G04*
G04 #@! TF.GenerationSoftware,Altium Limited,Altium Designer,20.2.6 (244)*
G04*
G04 Layer_Physical_Order=4*
G04 Layer_Color=16711680*
%FSLAX24Y24*%
%MOIN*%
G70*
G04*
G04 #@! TF.SameCoordinates,2017631A-D77C-4579-BA5B-B5A4186395AE*
G04*
G04*
G04 #@! TF.FilePolarity,Positive*
G04*
G01*
G75*
%ADD11C,0.0100*%
%ADD17C,0.0080*%
%ADD44R,0.0600X0.0600*%
%ADD93C,0.0300*%
%ADD94C,0.0150*%
G04:AMPARAMS|DCode=97|XSize=50mil|YSize=80mil|CornerRadius=0mil|HoleSize=0mil|Usage=FLASHONLY|Rotation=270.000|XOffset=0mil|YOffset=0mil|HoleType=Round|Shape=Octagon|*
%AMOCTAGOND97*
4,1,8,0.0400,0.0125,0.0400,-0.0125,0.0275,-0.0250,-0.0275,-0.0250,-0.0400,-0.0125,-0.0400,0.0125,-0.0275,0.0250,0.0275,0.0250,0.0400,0.0125,0.0*
%
%ADD97OCTAGOND97*%

%ADD98R,0.0700X0.0500*%
G04:AMPARAMS|DCode=99|XSize=50mil|YSize=70mil|CornerRadius=0mil|HoleSize=0mil|Usage=FLASHONLY|Rotation=270.000|XOffset=0mil|YOffset=0mil|HoleType=Round|Shape=Octagon|*
%AMOCTAGOND99*
4,1,8,0.0350,0.0125,0.0350,-0.0125,0.0225,-0.0250,-0.0225,-0.0250,-0.0350,-0.0125,-0.0350,0.0125,-0.0225,0.0250,0.0225,0.0250,0.0350,0.0125,0.0*
%
%ADD99OCTAGOND99*%

G04:AMPARAMS|DCode=100|XSize=39.4mil|YSize=70.9mil|CornerRadius=9.8mil|HoleSize=0mil|Usage=FLASHONLY|Rotation=90.000|XOffset=0mil|YOffset=0mil|HoleType=Round|Shape=RoundedRectangle|*
%AMROUNDEDRECTD100*
21,1,0.0394,0.0512,0,0,90.0*
21,1,0.0197,0.0709,0,0,90.0*
1,1,0.0197,0.0256,0.0098*
1,1,0.0197,0.0256,-0.0098*
1,1,0.0197,-0.0256,-0.0098*
1,1,0.0197,-0.0256,0.0098*
%
%ADD100ROUNDEDRECTD100*%
%ADD101C,0.0510*%
%ADD102R,0.0510X0.0510*%
%ADD103C,0.0630*%
%ADD104R,0.0630X0.0630*%
%ADD105C,0.0600*%
%ADD106C,0.0280*%
%ADD107C,0.0500*%
G36*
X68784Y49422D02*
X68935Y49382D01*
X69081Y49323D01*
X69217Y49245D01*
X69341Y49150D01*
X69452Y49039D01*
X69548Y48915D01*
X69627Y48780D01*
X69688Y48635D01*
X69729Y48484D01*
X69750Y48328D01*
X69750Y48250D01*
Y19150D01*
Y19071D01*
X69729Y18915D01*
X69689Y18763D01*
X69629Y18618D01*
X69550Y18482D01*
X69454Y18357D01*
X69343Y18246D01*
X69218Y18150D01*
X69082Y18071D01*
X68937Y18011D01*
X68785Y17971D01*
X68629Y17950D01*
X68550D01*
X35520Y17950D01*
X35442Y17950D01*
X35286Y17970D01*
X35135Y18010D01*
X34990Y18069D01*
X34853Y18147D01*
X34729Y18242D01*
X34618Y18353D01*
X34522Y18477D01*
X34443Y18612D01*
X34382Y18757D01*
X34341Y18908D01*
X34320Y19064D01*
X34320Y19142D01*
X34320Y19142D01*
Y19333D01*
X34358Y19365D01*
X34404Y19356D01*
X34573Y19354D01*
X34739Y19389D01*
X34893Y19461D01*
X35026Y19566D01*
X35133Y19698D01*
X35207Y19850D01*
X35245Y20015D01*
X35245Y20185D01*
X35207Y20350D01*
X35133Y20503D01*
X35026Y20635D01*
X34892Y20739D01*
X34738Y20811D01*
X34573Y20846D01*
X34403Y20844D01*
X34358Y20835D01*
X34319Y20867D01*
Y20878D01*
Y26051D01*
X34381D01*
X34427Y26070D01*
X34446Y26116D01*
Y33816D01*
X34427Y33862D01*
X34381Y33881D01*
X34319D01*
Y34750D01*
X34369Y34800D01*
X35200D01*
Y35600D01*
X34319D01*
Y37921D01*
X34369Y37963D01*
X34408Y37956D01*
X34577Y37954D01*
X34742Y37990D01*
X34895Y38062D01*
X35027Y38167D01*
X35133Y38298D01*
X35207Y38451D01*
X35245Y38615D01*
X35245Y38784D01*
X35207Y38949D01*
X35134Y39101D01*
X35028Y39233D01*
X34895Y39337D01*
X34742Y39410D01*
X34577Y39446D01*
X34408Y39444D01*
X34370Y39437D01*
X34320Y39479D01*
Y48242D01*
Y48321D01*
X34341Y48476D01*
X34381Y48628D01*
X34441Y48774D01*
X34520Y48910D01*
X34616Y49035D01*
X34727Y49146D01*
X34852Y49242D01*
X34988Y49320D01*
X35133Y49381D01*
X35285Y49421D01*
X35441Y49442D01*
X68550D01*
X68628Y49442D01*
X68784Y49422D01*
D02*
G37*
%LPC*%
G36*
X44320Y48495D02*
X44240D01*
X44228Y48490D01*
X44215D01*
X44142Y48460D01*
X44133Y48450D01*
X44121Y48445D01*
X44065Y48389D01*
X44060Y48377D01*
X44050Y48368D01*
X44020Y48295D01*
Y48282D01*
X44015Y48270D01*
Y48190D01*
X44020Y48178D01*
Y48165D01*
X44050Y48092D01*
X44060Y48083D01*
X44065Y48071D01*
X44121Y48015D01*
X44133Y48010D01*
X44142Y48000D01*
X44215Y47970D01*
X44228D01*
X44240Y47965D01*
X44320D01*
X44332Y47970D01*
X44345D01*
X44418Y48000D01*
X44427Y48010D01*
X44439Y48015D01*
X44495Y48071D01*
X44500Y48083D01*
X44510Y48092D01*
X44540Y48165D01*
Y48178D01*
X44545Y48190D01*
Y48270D01*
X44540Y48282D01*
Y48295D01*
X44510Y48368D01*
X44500Y48377D01*
X44495Y48389D01*
X44439Y48445D01*
X44427Y48450D01*
X44418Y48460D01*
X44345Y48490D01*
X44332D01*
X44320Y48495D01*
D02*
G37*
G36*
X42360D02*
X42280D01*
X42268Y48490D01*
X42255D01*
X42182Y48460D01*
X42173Y48450D01*
X42161Y48445D01*
X42105Y48389D01*
X42100Y48377D01*
X42090Y48368D01*
X42060Y48295D01*
Y48282D01*
X42055Y48270D01*
Y48190D01*
X42060Y48178D01*
Y48165D01*
X42090Y48092D01*
X42100Y48083D01*
X42105Y48071D01*
X42161Y48015D01*
X42173Y48010D01*
X42182Y48000D01*
X42255Y47970D01*
X42268D01*
X42280Y47965D01*
X42360D01*
X42372Y47970D01*
X42385D01*
X42458Y48000D01*
X42467Y48010D01*
X42479Y48015D01*
X42535Y48071D01*
X42540Y48083D01*
X42550Y48092D01*
X42580Y48165D01*
Y48178D01*
X42585Y48190D01*
Y48270D01*
X42580Y48282D01*
Y48295D01*
X42550Y48368D01*
X42540Y48377D01*
X42535Y48389D01*
X42479Y48445D01*
X42467Y48450D01*
X42458Y48460D01*
X42385Y48490D01*
X42372D01*
X42360Y48495D01*
D02*
G37*
G36*
X61815Y47865D02*
X61185D01*
Y47235D01*
X61815D01*
Y47865D01*
D02*
G37*
G36*
X38203Y47009D02*
X38123Y46999D01*
X38047Y46967D01*
X37982Y46918D01*
X37933Y46853D01*
X37901Y46777D01*
X37891Y46697D01*
X37901Y46616D01*
X37933Y46540D01*
X37982Y46475D01*
X38047Y46426D01*
X38123Y46395D01*
X38203Y46384D01*
X38284Y46395D01*
X38360Y46426D01*
X38425Y46475D01*
X38474Y46540D01*
X38505Y46616D01*
X38516Y46697D01*
X38505Y46777D01*
X38474Y46853D01*
X38425Y46918D01*
X38360Y46967D01*
X38284Y46999D01*
X38203Y47009D01*
D02*
G37*
G36*
X61500Y46868D02*
X61418Y46857D01*
X61341Y46825D01*
X61275Y46775D01*
X61225Y46709D01*
X61193Y46632D01*
X61182Y46550D01*
X61193Y46468D01*
X61225Y46391D01*
X61275Y46325D01*
X61341Y46275D01*
X61418Y46243D01*
X61500Y46232D01*
X61582Y46243D01*
X61659Y46275D01*
X61725Y46325D01*
X61775Y46391D01*
X61807Y46468D01*
X61818Y46550D01*
X61807Y46632D01*
X61775Y46709D01*
X61725Y46775D01*
X61659Y46825D01*
X61582Y46857D01*
X61500Y46868D01*
D02*
G37*
G36*
Y45868D02*
X61418Y45857D01*
X61341Y45825D01*
X61275Y45775D01*
X61225Y45709D01*
X61193Y45632D01*
X61182Y45550D01*
X61193Y45468D01*
X61225Y45391D01*
X61275Y45325D01*
X61341Y45275D01*
X61418Y45243D01*
X61500Y45232D01*
X61582Y45243D01*
X61659Y45275D01*
X61725Y45325D01*
X61775Y45391D01*
X61807Y45468D01*
X61818Y45550D01*
X61807Y45632D01*
X61775Y45709D01*
X61725Y45775D01*
X61659Y45825D01*
X61582Y45857D01*
X61500Y45868D01*
D02*
G37*
G36*
X41800Y45204D02*
X41722Y45188D01*
X41656Y45144D01*
X41612Y45078D01*
X41596Y45000D01*
X41604Y44962D01*
X39221Y42579D01*
X39196Y42543D01*
X39188Y42500D01*
X39188Y42500D01*
Y42466D01*
X39156Y42444D01*
X39112Y42378D01*
X39096Y42300D01*
X39112Y42222D01*
X39156Y42156D01*
X39222Y42112D01*
X39300Y42096D01*
X39378Y42112D01*
X39444Y42156D01*
X39488Y42222D01*
X39504Y42300D01*
X39488Y42378D01*
X39444Y42444D01*
X39440Y42482D01*
X41762Y44804D01*
X41800Y44796D01*
X41878Y44812D01*
X41944Y44856D01*
X41988Y44922D01*
X42004Y45000D01*
X41988Y45078D01*
X41944Y45144D01*
X41878Y45188D01*
X41800Y45204D01*
D02*
G37*
G36*
X37100Y44554D02*
X37022Y44538D01*
X36956Y44494D01*
X36912Y44428D01*
X36896Y44350D01*
X36912Y44272D01*
X36956Y44206D01*
X37022Y44162D01*
X37100Y44146D01*
X37178Y44162D01*
X37244Y44206D01*
X37288Y44272D01*
X37304Y44350D01*
X37288Y44428D01*
X37244Y44494D01*
X37178Y44538D01*
X37100Y44554D01*
D02*
G37*
G36*
X44350Y44304D02*
X44272Y44288D01*
X44206Y44244D01*
X44162Y44178D01*
X44146Y44100D01*
X44162Y44022D01*
X44206Y43956D01*
X44272Y43912D01*
X44350Y43896D01*
X44428Y43912D01*
X44494Y43956D01*
X44538Y44022D01*
X44554Y44100D01*
X44538Y44178D01*
X44494Y44244D01*
X44428Y44288D01*
X44350Y44304D01*
D02*
G37*
G36*
X43300D02*
X43222Y44288D01*
X43156Y44244D01*
X43112Y44178D01*
X43096Y44100D01*
X43112Y44022D01*
X43156Y43956D01*
X43222Y43912D01*
X43300Y43896D01*
X43378Y43912D01*
X43444Y43956D01*
X43488Y44022D01*
X43504Y44100D01*
X43488Y44178D01*
X43444Y44244D01*
X43378Y44288D01*
X43300Y44304D01*
D02*
G37*
G36*
X42292Y44296D02*
X42214Y44281D01*
X42148Y44237D01*
X42104Y44170D01*
X42088Y44092D01*
X42104Y44014D01*
X42148Y43948D01*
X42214Y43904D01*
X42292Y43888D01*
X42370Y43904D01*
X42437Y43948D01*
X42481Y44014D01*
X42496Y44092D01*
X42481Y44170D01*
X42437Y44237D01*
X42370Y44281D01*
X42292Y44296D01*
D02*
G37*
G36*
X36950Y44004D02*
X36872Y43988D01*
X36806Y43944D01*
X36762Y43878D01*
X36746Y43800D01*
X36762Y43722D01*
X36806Y43656D01*
X36872Y43612D01*
X36950Y43596D01*
X36988Y43604D01*
X37171Y43421D01*
X37207Y43396D01*
X37250Y43388D01*
X37250Y43388D01*
X37684D01*
X37706Y43356D01*
X37772Y43312D01*
X37850Y43296D01*
X37928Y43312D01*
X37994Y43356D01*
X38038Y43422D01*
X38054Y43500D01*
X38038Y43578D01*
X37994Y43644D01*
X37928Y43688D01*
X37850Y43704D01*
X37772Y43688D01*
X37706Y43644D01*
X37684Y43612D01*
X37296D01*
X37146Y43762D01*
X37154Y43800D01*
X37138Y43878D01*
X37094Y43944D01*
X37028Y43988D01*
X36950Y44004D01*
D02*
G37*
G36*
X36000Y42204D02*
X35922Y42188D01*
X35856Y42144D01*
X35812Y42078D01*
X35796Y42000D01*
X35812Y41922D01*
X35856Y41856D01*
X35922Y41812D01*
X36000Y41796D01*
X36038Y41804D01*
X37191Y40650D01*
X37178Y40581D01*
X37193Y40503D01*
X37220Y40463D01*
X37228Y40451D01*
X37189Y40420D01*
X36246Y41362D01*
X36254Y41400D01*
X36238Y41478D01*
X36194Y41544D01*
X36128Y41588D01*
X36050Y41604D01*
X35972Y41588D01*
X35906Y41544D01*
X35862Y41478D01*
X35846Y41400D01*
X35862Y41322D01*
X35906Y41256D01*
X35972Y41212D01*
X36050Y41196D01*
X36088Y41204D01*
X38497Y38794D01*
X38512Y38722D01*
X38556Y38656D01*
X38622Y38612D01*
X38700Y38596D01*
X38778Y38612D01*
X38844Y38656D01*
X38888Y38722D01*
X38904Y38800D01*
X38888Y38878D01*
X38844Y38944D01*
X38778Y38988D01*
X38700Y39004D01*
X38622Y38988D01*
X38621Y38988D01*
X37220Y40389D01*
X37251Y40428D01*
X37263Y40420D01*
X37303Y40393D01*
X37381Y40378D01*
X37460Y40393D01*
X37526Y40437D01*
X37570Y40503D01*
X37585Y40581D01*
X37570Y40660D01*
X37526Y40726D01*
X37460Y40770D01*
X37381Y40785D01*
X37375Y40784D01*
X36196Y41962D01*
X36204Y42000D01*
X36188Y42078D01*
X36144Y42144D01*
X36078Y42188D01*
X36000Y42204D01*
D02*
G37*
G36*
X64274Y39515D02*
X64126D01*
X64120Y39512D01*
X64113Y39514D01*
X63969Y39485D01*
X63963Y39481D01*
X63956D01*
X63820Y39425D01*
X63815Y39420D01*
X63809Y39419D01*
X63686Y39337D01*
X63682Y39331D01*
X63676Y39328D01*
X63572Y39224D01*
X63569Y39218D01*
X63563Y39214D01*
X63481Y39091D01*
X63480Y39085D01*
X63475Y39080D01*
X63419Y38944D01*
Y38937D01*
X63415Y38931D01*
X63386Y38787D01*
X63388Y38780D01*
X63385Y38774D01*
Y38626D01*
X63388Y38620D01*
X63386Y38613D01*
X63415Y38469D01*
X63419Y38463D01*
Y38456D01*
X63475Y38320D01*
X63480Y38315D01*
X63481Y38309D01*
X63563Y38186D01*
X63569Y38182D01*
X63572Y38176D01*
X63676Y38072D01*
X63682Y38069D01*
X63686Y38063D01*
X63809Y37981D01*
X63815Y37980D01*
X63820Y37975D01*
X63956Y37919D01*
X63963D01*
X63969Y37915D01*
X64113Y37886D01*
X64120Y37888D01*
X64126Y37885D01*
X64274D01*
X64280Y37888D01*
X64287Y37886D01*
X64431Y37915D01*
X64437Y37919D01*
X64444D01*
X64580Y37975D01*
X64585Y37980D01*
X64591Y37981D01*
X64714Y38063D01*
X64718Y38069D01*
X64724Y38072D01*
X64828Y38176D01*
X64831Y38182D01*
X64837Y38186D01*
X64919Y38309D01*
X64920Y38315D01*
X64925Y38320D01*
X64981Y38456D01*
Y38463D01*
X64985Y38469D01*
X65014Y38613D01*
X65012Y38620D01*
X65015Y38626D01*
Y38774D01*
X65012Y38780D01*
X65014Y38787D01*
X64985Y38931D01*
X64981Y38937D01*
Y38944D01*
X64925Y39080D01*
X64920Y39085D01*
X64919Y39091D01*
X64837Y39214D01*
X64831Y39218D01*
X64828Y39224D01*
X64724Y39328D01*
X64718Y39331D01*
X64714Y39337D01*
X64591Y39419D01*
X64585Y39420D01*
X64580Y39425D01*
X64444Y39481D01*
X64437D01*
X64431Y39485D01*
X64287Y39514D01*
X64280Y39512D01*
X64274Y39515D01*
D02*
G37*
G36*
X51974D02*
X51826D01*
X51820Y39512D01*
X51813Y39514D01*
X51669Y39485D01*
X51663Y39481D01*
X51656D01*
X51520Y39425D01*
X51515Y39420D01*
X51509Y39419D01*
X51386Y39337D01*
X51382Y39331D01*
X51376Y39328D01*
X51272Y39224D01*
X51269Y39218D01*
X51263Y39214D01*
X51181Y39091D01*
X51180Y39085D01*
X51175Y39080D01*
X51119Y38944D01*
Y38937D01*
X51115Y38931D01*
X51086Y38787D01*
X51088Y38780D01*
X51085Y38774D01*
Y38626D01*
X51088Y38620D01*
X51086Y38613D01*
X51115Y38469D01*
X51119Y38463D01*
Y38456D01*
X51175Y38320D01*
X51180Y38315D01*
X51181Y38309D01*
X51263Y38186D01*
X51269Y38182D01*
X51272Y38176D01*
X51376Y38072D01*
X51382Y38069D01*
X51386Y38063D01*
X51509Y37981D01*
X51515Y37980D01*
X51520Y37975D01*
X51656Y37919D01*
X51663D01*
X51669Y37915D01*
X51813Y37886D01*
X51820Y37888D01*
X51826Y37885D01*
X51974D01*
X51980Y37888D01*
X51987Y37886D01*
X52131Y37915D01*
X52137Y37919D01*
X52144D01*
X52280Y37975D01*
X52285Y37980D01*
X52291Y37981D01*
X52414Y38063D01*
X52418Y38069D01*
X52424Y38072D01*
X52528Y38176D01*
X52531Y38182D01*
X52537Y38186D01*
X52619Y38309D01*
X52620Y38315D01*
X52625Y38320D01*
X52681Y38456D01*
Y38463D01*
X52685Y38469D01*
X52714Y38613D01*
X52712Y38620D01*
X52715Y38626D01*
Y38774D01*
X52712Y38780D01*
X52714Y38787D01*
X52685Y38931D01*
X52681Y38937D01*
Y38944D01*
X52625Y39080D01*
X52620Y39085D01*
X52619Y39091D01*
X52537Y39214D01*
X52531Y39218D01*
X52528Y39224D01*
X52424Y39328D01*
X52418Y39331D01*
X52414Y39337D01*
X52291Y39419D01*
X52285Y39420D01*
X52280Y39425D01*
X52144Y39481D01*
X52137D01*
X52131Y39485D01*
X51987Y39514D01*
X51980Y39512D01*
X51974Y39515D01*
D02*
G37*
G36*
X43274Y39515D02*
X43126D01*
X43120Y39512D01*
X43113Y39514D01*
X42969Y39485D01*
X42963Y39481D01*
X42956D01*
X42820Y39425D01*
X42815Y39420D01*
X42809Y39419D01*
X42686Y39337D01*
X42682Y39331D01*
X42676Y39328D01*
X42572Y39224D01*
X42569Y39218D01*
X42563Y39214D01*
X42481Y39091D01*
X42480Y39085D01*
X42475Y39080D01*
X42419Y38944D01*
Y38937D01*
X42415Y38931D01*
X42386Y38787D01*
X42388Y38780D01*
X42385Y38774D01*
Y38626D01*
X42388Y38620D01*
X42386Y38613D01*
X42415Y38469D01*
X42419Y38463D01*
Y38456D01*
X42475Y38320D01*
X42480Y38315D01*
X42481Y38309D01*
X42563Y38186D01*
X42569Y38182D01*
X42572Y38176D01*
X42676Y38072D01*
X42682Y38069D01*
X42686Y38063D01*
X42809Y37981D01*
X42815Y37980D01*
X42820Y37975D01*
X42956Y37919D01*
X42963D01*
X42969Y37915D01*
X43113Y37886D01*
X43120Y37888D01*
X43126Y37885D01*
X43274D01*
X43280Y37888D01*
X43287Y37886D01*
X43431Y37915D01*
X43437Y37919D01*
X43444D01*
X43580Y37975D01*
X43585Y37980D01*
X43591Y37981D01*
X43714Y38063D01*
X43718Y38069D01*
X43724Y38072D01*
X43828Y38176D01*
X43831Y38182D01*
X43837Y38186D01*
X43919Y38309D01*
X43920Y38315D01*
X43925Y38320D01*
X43981Y38456D01*
Y38463D01*
X43985Y38469D01*
X44014Y38613D01*
X44012Y38620D01*
X44015Y38626D01*
Y38774D01*
X44012Y38780D01*
X44014Y38787D01*
X43985Y38931D01*
X43981Y38937D01*
Y38944D01*
X43925Y39080D01*
X43920Y39085D01*
X43919Y39091D01*
X43837Y39214D01*
X43831Y39218D01*
X43828Y39224D01*
X43724Y39328D01*
X43718Y39331D01*
X43714Y39337D01*
X43591Y39419D01*
X43585Y39420D01*
X43580Y39425D01*
X43444Y39481D01*
X43437D01*
X43431Y39485D01*
X43287Y39514D01*
X43280Y39512D01*
X43274Y39515D01*
D02*
G37*
G36*
X46650Y36554D02*
X46572Y36538D01*
X46506Y36494D01*
X46484Y36462D01*
X40263D01*
X40263Y36462D01*
X40220Y36454D01*
X40184Y36429D01*
X40184Y36429D01*
X38419Y34665D01*
X38382Y34672D01*
X38303Y34657D01*
X38237Y34613D01*
X38193Y34547D01*
X38178Y34469D01*
X38193Y34390D01*
X38237Y34324D01*
X38303Y34280D01*
X38382Y34265D01*
X38460Y34280D01*
X38526Y34324D01*
X38570Y34390D01*
X38585Y34469D01*
X38578Y34506D01*
X40309Y36238D01*
X46484D01*
X46506Y36206D01*
X46572Y36162D01*
X46650Y36146D01*
X46728Y36162D01*
X46794Y36206D01*
X46838Y36272D01*
X46854Y36350D01*
X46838Y36428D01*
X46794Y36494D01*
X46728Y36538D01*
X46650Y36554D01*
D02*
G37*
G36*
X59300Y35763D02*
X59219Y35752D01*
X59144Y35721D01*
X59079Y35671D01*
X59029Y35606D01*
X58998Y35531D01*
X58987Y35450D01*
X58998Y35369D01*
X59029Y35294D01*
X59079Y35229D01*
X59144Y35179D01*
X59219Y35148D01*
X59300Y35137D01*
X59381Y35148D01*
X59456Y35179D01*
X59521Y35229D01*
X59571Y35294D01*
X59602Y35369D01*
X59613Y35450D01*
X59602Y35531D01*
X59571Y35606D01*
X59521Y35671D01*
X59456Y35721D01*
X59381Y35752D01*
X59300Y35763D01*
D02*
G37*
G36*
X58367D02*
X58286Y35752D01*
X58210Y35721D01*
X58146Y35671D01*
X58096Y35606D01*
X58065Y35531D01*
X58054Y35450D01*
X58065Y35369D01*
X58096Y35294D01*
X58146Y35229D01*
X58210Y35179D01*
X58286Y35148D01*
X58367Y35137D01*
X58448Y35148D01*
X58523Y35179D01*
X58588Y35229D01*
X58637Y35294D01*
X58669Y35369D01*
X58679Y35450D01*
X58669Y35531D01*
X58637Y35606D01*
X58588Y35671D01*
X58523Y35721D01*
X58448Y35752D01*
X58367Y35763D01*
D02*
G37*
G36*
X57433D02*
X57352Y35752D01*
X57277Y35721D01*
X57212Y35671D01*
X57163Y35606D01*
X57131Y35531D01*
X57121Y35450D01*
X57131Y35369D01*
X57163Y35294D01*
X57212Y35229D01*
X57277Y35179D01*
X57352Y35148D01*
X57433Y35137D01*
X57514Y35148D01*
X57590Y35179D01*
X57654Y35229D01*
X57704Y35294D01*
X57735Y35369D01*
X57746Y35450D01*
X57735Y35531D01*
X57704Y35606D01*
X57654Y35671D01*
X57590Y35721D01*
X57514Y35752D01*
X57433Y35763D01*
D02*
G37*
G36*
X56500D02*
X56419Y35752D01*
X56344Y35721D01*
X56279Y35671D01*
X56229Y35606D01*
X56198Y35531D01*
X56187Y35450D01*
X56198Y35369D01*
X56229Y35294D01*
X56279Y35229D01*
X56344Y35179D01*
X56419Y35148D01*
X56500Y35137D01*
X56581Y35148D01*
X56656Y35179D01*
X56721Y35229D01*
X56771Y35294D01*
X56802Y35369D01*
X56813Y35450D01*
X56802Y35531D01*
X56771Y35606D01*
X56721Y35671D01*
X56656Y35721D01*
X56581Y35752D01*
X56500Y35763D01*
D02*
G37*
G36*
X64900Y35665D02*
X63300D01*
X63254Y35646D01*
X63235Y35600D01*
Y34800D01*
X63254Y34754D01*
X63300Y34735D01*
X64900D01*
X64946Y34754D01*
X64965Y34800D01*
Y35600D01*
X64946Y35646D01*
X64900Y35665D01*
D02*
G37*
G36*
X52600D02*
X51000D01*
X50954Y35646D01*
X50935Y35600D01*
Y34800D01*
X50954Y34754D01*
X51000Y34735D01*
X52600D01*
X52646Y34754D01*
X52665Y34800D01*
Y35600D01*
X52646Y35646D01*
X52600Y35665D01*
D02*
G37*
G36*
X43900Y35665D02*
X42300D01*
X42254Y35646D01*
X42235Y35600D01*
Y34800D01*
X42254Y34754D01*
X42300Y34735D01*
X43900D01*
X43946Y34754D01*
X43965Y34800D01*
Y35600D01*
X43946Y35646D01*
X43900Y35665D01*
D02*
G37*
G36*
X40800Y34604D02*
X40722Y34588D01*
X40656Y34544D01*
X40612Y34478D01*
X40559Y34472D01*
X40544Y34494D01*
X40478Y34538D01*
X40400Y34554D01*
X40322Y34538D01*
X40256Y34494D01*
X40212Y34428D01*
X40196Y34350D01*
X40212Y34272D01*
X40256Y34206D01*
X40288Y34184D01*
Y30942D01*
X40272Y30938D01*
X40206Y30894D01*
X40162Y30828D01*
X40146Y30750D01*
X40162Y30672D01*
X40206Y30606D01*
X40272Y30562D01*
X40350Y30546D01*
X40428Y30562D01*
X40494Y30606D01*
X40538Y30672D01*
X40554Y30750D01*
X40538Y30828D01*
X40512Y30867D01*
Y34184D01*
X40544Y34206D01*
X40588Y34272D01*
X40641Y34278D01*
X40656Y34256D01*
X40722Y34212D01*
X40738Y34208D01*
Y30916D01*
X40706Y30894D01*
X40662Y30828D01*
X40646Y30750D01*
X40662Y30672D01*
X40706Y30606D01*
X40772Y30562D01*
X40850Y30546D01*
X40928Y30562D01*
X40994Y30606D01*
X41038Y30672D01*
X41054Y30750D01*
X41038Y30828D01*
X40994Y30894D01*
X40962Y30916D01*
Y34283D01*
X40988Y34322D01*
X41004Y34400D01*
X40988Y34478D01*
X40944Y34544D01*
X40878Y34588D01*
X40800Y34604D01*
D02*
G37*
G36*
X67305Y35091D02*
X66695D01*
X66540Y34936D01*
Y34626D01*
X66695Y34471D01*
X67305D01*
X67460Y34626D01*
Y34936D01*
X67305Y35091D01*
D02*
G37*
G36*
X59300Y34663D02*
X59219Y34652D01*
X59144Y34621D01*
X59079Y34571D01*
X59029Y34506D01*
X58998Y34431D01*
X58987Y34350D01*
X58998Y34269D01*
X59029Y34194D01*
X59079Y34129D01*
X59144Y34079D01*
X59219Y34048D01*
X59300Y34037D01*
X59381Y34048D01*
X59456Y34079D01*
X59521Y34129D01*
X59571Y34194D01*
X59602Y34269D01*
X59613Y34350D01*
X59602Y34431D01*
X59571Y34506D01*
X59521Y34571D01*
X59456Y34621D01*
X59381Y34652D01*
X59300Y34663D01*
D02*
G37*
G36*
X58367D02*
X58286Y34652D01*
X58210Y34621D01*
X58146Y34571D01*
X58096Y34506D01*
X58065Y34431D01*
X58054Y34350D01*
X58065Y34269D01*
X58096Y34194D01*
X58146Y34129D01*
X58210Y34079D01*
X58286Y34048D01*
X58367Y34037D01*
X58448Y34048D01*
X58523Y34079D01*
X58588Y34129D01*
X58637Y34194D01*
X58669Y34269D01*
X58679Y34350D01*
X58669Y34431D01*
X58637Y34506D01*
X58588Y34571D01*
X58523Y34621D01*
X58448Y34652D01*
X58367Y34663D01*
D02*
G37*
G36*
X57433D02*
X57352Y34652D01*
X57277Y34621D01*
X57212Y34571D01*
X57163Y34506D01*
X57131Y34431D01*
X57121Y34350D01*
X57131Y34269D01*
X57163Y34194D01*
X57212Y34129D01*
X57277Y34079D01*
X57352Y34048D01*
X57433Y34037D01*
X57514Y34048D01*
X57590Y34079D01*
X57654Y34129D01*
X57704Y34194D01*
X57735Y34269D01*
X57746Y34350D01*
X57735Y34431D01*
X57704Y34506D01*
X57654Y34571D01*
X57590Y34621D01*
X57514Y34652D01*
X57433Y34663D01*
D02*
G37*
G36*
X56500D02*
X56419Y34652D01*
X56344Y34621D01*
X56279Y34571D01*
X56229Y34506D01*
X56198Y34431D01*
X56187Y34350D01*
X56198Y34269D01*
X56229Y34194D01*
X56279Y34129D01*
X56344Y34079D01*
X56419Y34048D01*
X56500Y34037D01*
X56581Y34048D01*
X56656Y34079D01*
X56721Y34129D01*
X56771Y34194D01*
X56802Y34269D01*
X56813Y34350D01*
X56802Y34431D01*
X56771Y34506D01*
X56721Y34571D01*
X56656Y34621D01*
X56581Y34652D01*
X56500Y34663D01*
D02*
G37*
G36*
X67410Y33910D02*
X66590D01*
Y33290D01*
X67410D01*
Y33910D01*
D02*
G37*
G36*
X36900Y32604D02*
X36822Y32588D01*
X36756Y32544D01*
X36712Y32478D01*
X36696Y32400D01*
X36712Y32322D01*
X36720Y32309D01*
X36681Y32277D01*
X36596Y32362D01*
X36604Y32400D01*
X36588Y32478D01*
X36544Y32544D01*
X36478Y32588D01*
X36400Y32604D01*
X36322Y32588D01*
X36256Y32544D01*
X36212Y32478D01*
X36196Y32400D01*
X36212Y32322D01*
X36256Y32256D01*
X36322Y32212D01*
X36400Y32196D01*
X36438Y32204D01*
X38981Y29661D01*
X39017Y29636D01*
X39060Y29628D01*
X39060Y29628D01*
X49187D01*
X57644Y21171D01*
X57644Y21171D01*
X57681Y21146D01*
X57724Y21138D01*
X57724Y21138D01*
X58400D01*
X58400Y21138D01*
X58443Y21146D01*
X58479Y21171D01*
X58662Y21354D01*
X58700Y21346D01*
X58778Y21362D01*
X58844Y21406D01*
X58888Y21472D01*
X58904Y21550D01*
X58888Y21628D01*
X58844Y21694D01*
X58778Y21738D01*
X58700Y21754D01*
X58622Y21738D01*
X58556Y21694D01*
X58512Y21628D01*
X58496Y21550D01*
X58504Y21512D01*
X58354Y21362D01*
X58020D01*
X58012Y21412D01*
X58078Y21456D01*
X58122Y21522D01*
X58138Y21600D01*
X58122Y21678D01*
X58078Y21744D01*
X58012Y21788D01*
X57934Y21804D01*
X57856Y21788D01*
X57790Y21744D01*
X57768Y21712D01*
X57646D01*
X49379Y29979D01*
X49343Y30004D01*
X49300Y30012D01*
X49300Y30012D01*
X39173D01*
X37028Y32156D01*
Y32245D01*
X37044Y32256D01*
X37088Y32322D01*
X37104Y32400D01*
X37088Y32478D01*
X37044Y32544D01*
X36978Y32588D01*
X36900Y32604D01*
D02*
G37*
G36*
X67255Y32729D02*
X66745D01*
X66590Y32574D01*
Y32264D01*
X66745Y32109D01*
X67255D01*
X67410Y32264D01*
Y32574D01*
X67255Y32729D01*
D02*
G37*
G36*
Y31548D02*
X66745D01*
X66590Y31393D01*
Y31083D01*
X66745Y30928D01*
X67255D01*
X67410Y31083D01*
Y31393D01*
X67255Y31548D01*
D02*
G37*
G36*
X47650Y31513D02*
X47556Y31501D01*
X47468Y31464D01*
X47393Y31407D01*
X47336Y31332D01*
X47299Y31244D01*
X47287Y31150D01*
X47299Y31056D01*
X47336Y30968D01*
X47393Y30893D01*
X47468Y30836D01*
X47556Y30799D01*
X47650Y30787D01*
X47744Y30799D01*
X47832Y30836D01*
X47907Y30893D01*
X47964Y30968D01*
X48001Y31056D01*
X48013Y31150D01*
X48001Y31244D01*
X47964Y31332D01*
X47907Y31407D01*
X47832Y31464D01*
X47744Y31501D01*
X47650Y31513D01*
D02*
G37*
G36*
X46650D02*
X46556Y31501D01*
X46468Y31464D01*
X46393Y31407D01*
X46336Y31332D01*
X46299Y31244D01*
X46287Y31150D01*
X46299Y31056D01*
X46336Y30968D01*
X46393Y30893D01*
X46468Y30836D01*
X46556Y30799D01*
X46650Y30787D01*
X46744Y30799D01*
X46832Y30836D01*
X46907Y30893D01*
X46964Y30968D01*
X47001Y31056D01*
X47013Y31150D01*
X47001Y31244D01*
X46964Y31332D01*
X46907Y31407D01*
X46832Y31464D01*
X46744Y31501D01*
X46650Y31513D01*
D02*
G37*
G36*
X36350Y31054D02*
X36272Y31038D01*
X36206Y30994D01*
X36162Y30928D01*
X36146Y30850D01*
X36154Y30812D01*
X35971Y30629D01*
X35946Y30593D01*
X35938Y30550D01*
X35938Y30550D01*
Y26987D01*
X35938Y26987D01*
X35946Y26944D01*
X35971Y26908D01*
X36388Y26491D01*
Y25966D01*
X36356Y25944D01*
X36312Y25878D01*
X36296Y25800D01*
X36312Y25722D01*
X36356Y25656D01*
X36422Y25612D01*
X36500Y25596D01*
X36578Y25612D01*
X36644Y25656D01*
X36688Y25722D01*
X36704Y25800D01*
X36688Y25878D01*
X36644Y25944D01*
X36612Y25966D01*
Y26537D01*
X36612Y26537D01*
X36604Y26580D01*
X36579Y26616D01*
X36579Y26616D01*
X36162Y27034D01*
Y30504D01*
X36312Y30654D01*
X36350Y30646D01*
X36428Y30662D01*
X36494Y30706D01*
X36538Y30772D01*
X36554Y30850D01*
X36538Y30928D01*
X36494Y30994D01*
X36428Y31038D01*
X36350Y31054D01*
D02*
G37*
G36*
X67305Y30367D02*
X66695D01*
X66540Y30212D01*
Y29902D01*
X66695Y29747D01*
X67305D01*
X67460Y29902D01*
Y30212D01*
X67305Y30367D01*
D02*
G37*
G36*
X47650Y29538D02*
X47556Y29526D01*
X47468Y29489D01*
X47393Y29432D01*
X47336Y29357D01*
X47299Y29269D01*
X47287Y29175D01*
X47299Y29081D01*
X47336Y28993D01*
X47393Y28918D01*
X47468Y28861D01*
X47556Y28824D01*
X47650Y28812D01*
X47744Y28824D01*
X47832Y28861D01*
X47907Y28918D01*
X47964Y28993D01*
X48001Y29081D01*
X48013Y29175D01*
X48001Y29269D01*
X47964Y29357D01*
X47907Y29432D01*
X47832Y29489D01*
X47744Y29526D01*
X47650Y29538D01*
D02*
G37*
G36*
X46650D02*
X46556Y29526D01*
X46468Y29489D01*
X46393Y29432D01*
X46336Y29357D01*
X46299Y29269D01*
X46287Y29175D01*
X46299Y29081D01*
X46336Y28993D01*
X46393Y28918D01*
X46468Y28861D01*
X46556Y28824D01*
X46650Y28812D01*
X46744Y28824D01*
X46832Y28861D01*
X46907Y28918D01*
X46964Y28993D01*
X47001Y29081D01*
X47013Y29175D01*
X47001Y29269D01*
X46964Y29357D01*
X46907Y29432D01*
X46832Y29489D01*
X46744Y29526D01*
X46650Y29538D01*
D02*
G37*
G36*
X63750Y27888D02*
X63150D01*
X63097Y27877D01*
X63053Y27847D01*
X63053Y27847D01*
X62908Y27702D01*
X62900Y27704D01*
X62822Y27688D01*
X62756Y27644D01*
X62712Y27578D01*
X62696Y27500D01*
X62712Y27422D01*
X62756Y27356D01*
X62822Y27312D01*
X62900Y27296D01*
X62978Y27312D01*
X63044Y27356D01*
X63088Y27422D01*
X63104Y27500D01*
X63102Y27508D01*
X63207Y27612D01*
X63564D01*
X63568Y27609D01*
X63564Y27576D01*
X63553Y27555D01*
X63518Y27548D01*
X63449Y27501D01*
X63149Y27201D01*
X62999Y27051D01*
X62952Y26982D01*
X62936Y26900D01*
Y24325D01*
X62775D01*
Y23575D01*
X63525D01*
Y24325D01*
X63364D01*
Y26811D01*
X63751Y27199D01*
X63798Y27268D01*
X63814Y27350D01*
X63798Y27432D01*
X63788Y27447D01*
X63827Y27478D01*
X63998Y27308D01*
X63996Y27300D01*
X64012Y27222D01*
X64056Y27156D01*
X64122Y27112D01*
X64200Y27096D01*
X64278Y27112D01*
X64344Y27156D01*
X64388Y27222D01*
X64404Y27300D01*
X64388Y27378D01*
X64344Y27444D01*
X64278Y27488D01*
X64200Y27504D01*
X64192Y27502D01*
X63847Y27847D01*
X63803Y27877D01*
X63750Y27888D01*
D02*
G37*
G36*
X35382Y27872D02*
X35303Y27857D01*
X35237Y27813D01*
X35193Y27747D01*
X35178Y27668D01*
X35193Y27590D01*
X35237Y27524D01*
X35303Y27480D01*
X35382Y27465D01*
X35460Y27480D01*
X35526Y27524D01*
X35570Y27590D01*
X35585Y27668D01*
X35570Y27747D01*
X35526Y27813D01*
X35460Y27857D01*
X35382Y27872D01*
D02*
G37*
G36*
X47650Y27563D02*
X47556Y27551D01*
X47468Y27514D01*
X47393Y27457D01*
X47336Y27382D01*
X47299Y27294D01*
X47287Y27200D01*
X47299Y27106D01*
X47336Y27018D01*
X47393Y26943D01*
X47468Y26886D01*
X47556Y26849D01*
X47650Y26837D01*
X47744Y26849D01*
X47832Y26886D01*
X47907Y26943D01*
X47964Y27018D01*
X48001Y27106D01*
X48013Y27200D01*
X48001Y27294D01*
X47964Y27382D01*
X47907Y27457D01*
X47832Y27514D01*
X47744Y27551D01*
X47650Y27563D01*
D02*
G37*
G36*
X46650D02*
X46556Y27551D01*
X46468Y27514D01*
X46393Y27457D01*
X46336Y27382D01*
X46299Y27294D01*
X46287Y27200D01*
X46299Y27106D01*
X46336Y27018D01*
X46393Y26943D01*
X46468Y26886D01*
X46556Y26849D01*
X46650Y26837D01*
X46744Y26849D01*
X46832Y26886D01*
X46907Y26943D01*
X46964Y27018D01*
X47001Y27106D01*
X47013Y27200D01*
X47001Y27294D01*
X46964Y27382D01*
X46907Y27457D01*
X46832Y27514D01*
X46744Y27551D01*
X46650Y27563D01*
D02*
G37*
G36*
X64400Y31263D02*
X64319Y31252D01*
X64244Y31221D01*
X64179Y31171D01*
X64129Y31106D01*
X64098Y31031D01*
X64087Y30950D01*
X64098Y30869D01*
X64129Y30794D01*
X64179Y30729D01*
X64186Y30724D01*
Y30226D01*
X64179Y30221D01*
X64129Y30156D01*
X64098Y30081D01*
X64087Y30000D01*
X64098Y29919D01*
X64129Y29844D01*
X64179Y29779D01*
X64244Y29729D01*
X64319Y29698D01*
X64400Y29687D01*
X64409Y29688D01*
X65249Y28849D01*
X65318Y28802D01*
X65400Y28786D01*
X67211D01*
X68236Y27761D01*
Y26950D01*
X68252Y26868D01*
X68299Y26799D01*
X68448Y26650D01*
Y26355D01*
X68429Y26331D01*
X68398Y26255D01*
X68387Y26174D01*
X68398Y26093D01*
X68429Y26018D01*
X68479Y25953D01*
X68486Y25948D01*
Y25626D01*
X68479Y25621D01*
X68429Y25556D01*
X68398Y25481D01*
X68387Y25400D01*
X68398Y25319D01*
X68429Y25244D01*
X68479Y25179D01*
X68544Y25129D01*
X68619Y25098D01*
X68700Y25087D01*
X68781Y25098D01*
X68856Y25129D01*
X68921Y25179D01*
X68971Y25244D01*
X69002Y25319D01*
X69013Y25400D01*
X69002Y25481D01*
X68971Y25556D01*
X68921Y25621D01*
X68914Y25626D01*
Y25948D01*
X68921Y25953D01*
X68971Y26018D01*
X69002Y26093D01*
X69013Y26174D01*
X69002Y26255D01*
X68971Y26331D01*
X68921Y26395D01*
X68876Y26430D01*
Y26738D01*
X68860Y26820D01*
X68813Y26890D01*
X68664Y27039D01*
Y27850D01*
X68648Y27932D01*
X68601Y28001D01*
X67451Y29151D01*
X67382Y29198D01*
X67300Y29214D01*
X65489D01*
X64712Y29991D01*
X64713Y30000D01*
X64702Y30081D01*
X64671Y30156D01*
X64621Y30221D01*
X64614Y30226D01*
Y30724D01*
X64621Y30729D01*
X64671Y30794D01*
X64702Y30869D01*
X64713Y30950D01*
X64702Y31031D01*
X64671Y31106D01*
X64621Y31171D01*
X64556Y31221D01*
X64481Y31252D01*
X64400Y31263D01*
D02*
G37*
G36*
X47650Y25588D02*
X47556Y25576D01*
X47468Y25539D01*
X47393Y25482D01*
X47336Y25407D01*
X47299Y25319D01*
X47287Y25225D01*
X47299Y25131D01*
X47336Y25043D01*
X47393Y24968D01*
X47468Y24911D01*
X47556Y24874D01*
X47650Y24862D01*
X47744Y24874D01*
X47832Y24911D01*
X47907Y24968D01*
X47964Y25043D01*
X48001Y25131D01*
X48013Y25225D01*
X48001Y25319D01*
X47964Y25407D01*
X47907Y25482D01*
X47832Y25539D01*
X47744Y25576D01*
X47650Y25588D01*
D02*
G37*
G36*
X46650D02*
X46556Y25576D01*
X46468Y25539D01*
X46393Y25482D01*
X46336Y25407D01*
X46299Y25319D01*
X46287Y25225D01*
X46299Y25131D01*
X46336Y25043D01*
X46393Y24968D01*
X46468Y24911D01*
X46556Y24874D01*
X46650Y24862D01*
X46744Y24874D01*
X46832Y24911D01*
X46907Y24968D01*
X46964Y25043D01*
X47001Y25131D01*
X47013Y25225D01*
X47001Y25319D01*
X46964Y25407D01*
X46907Y25482D01*
X46832Y25539D01*
X46744Y25576D01*
X46650Y25588D01*
D02*
G37*
G36*
X36930Y24724D02*
X36852Y24708D01*
X36786Y24664D01*
X36742Y24598D01*
X36726Y24520D01*
X36742Y24442D01*
X36786Y24376D01*
X36852Y24331D01*
X36930Y24316D01*
X37008Y24331D01*
X37074Y24376D01*
X37119Y24442D01*
X37134Y24520D01*
X37119Y24598D01*
X37074Y24664D01*
X37008Y24708D01*
X36930Y24724D01*
D02*
G37*
G36*
X36070Y24624D02*
X35992Y24609D01*
X35926Y24565D01*
X35882Y24498D01*
X35866Y24420D01*
X35882Y24342D01*
X35926Y24276D01*
X35992Y24232D01*
X36070Y24216D01*
X36148Y24232D01*
X36215Y24276D01*
X36259Y24342D01*
X36274Y24420D01*
X36259Y24498D01*
X36215Y24565D01*
X36148Y24609D01*
X36070Y24624D01*
D02*
G37*
G36*
X37825Y24579D02*
X37747Y24563D01*
X37680Y24519D01*
X37636Y24453D01*
X37621Y24375D01*
X37636Y24297D01*
X37680Y24230D01*
X37747Y24186D01*
X37825Y24171D01*
X37903Y24186D01*
X37969Y24230D01*
X38013Y24297D01*
X38029Y24375D01*
X38013Y24453D01*
X37969Y24519D01*
X37903Y24563D01*
X37825Y24579D01*
D02*
G37*
G36*
X65050Y24527D02*
X64972Y24511D01*
X64906Y24467D01*
X64862Y24401D01*
X64846Y24323D01*
X64848Y24315D01*
X64498Y23966D01*
X64021D01*
X64016Y23972D01*
X63950Y24016D01*
X63872Y24032D01*
X63794Y24016D01*
X63728Y23972D01*
X63684Y23906D01*
X63668Y23828D01*
X63684Y23750D01*
X63728Y23684D01*
X63794Y23640D01*
X63872Y23624D01*
X63950Y23640D01*
X64016Y23684D01*
X64021Y23690D01*
X64555D01*
X64608Y23701D01*
X64652Y23731D01*
X65042Y24121D01*
X65050Y24119D01*
X65128Y24135D01*
X65194Y24179D01*
X65238Y24245D01*
X65254Y24323D01*
X65238Y24401D01*
X65194Y24467D01*
X65128Y24511D01*
X65050Y24527D01*
D02*
G37*
G36*
X59400Y25481D02*
X59318Y25465D01*
X59249Y25418D01*
X59202Y25349D01*
X59186Y25267D01*
X59202Y25185D01*
X59249Y25116D01*
X60264Y24100D01*
X60299Y24049D01*
X60368Y24002D01*
X60450Y23986D01*
X60532Y24002D01*
X60601Y24049D01*
X60648Y24118D01*
X60664Y24200D01*
Y24217D01*
X60648Y24299D01*
X60601Y24368D01*
X59551Y25418D01*
X59482Y25465D01*
X59400Y25481D01*
D02*
G37*
G36*
X66400Y26154D02*
X66322Y26138D01*
X66256Y26094D01*
X66212Y26028D01*
X66196Y25950D01*
X66198Y25942D01*
X65903Y25647D01*
X65873Y25603D01*
X65862Y25550D01*
Y24657D01*
X64593Y23388D01*
X61207D01*
X60952Y23642D01*
X60954Y23650D01*
X60938Y23728D01*
X60894Y23794D01*
X60828Y23838D01*
X60750Y23854D01*
X60672Y23838D01*
X60606Y23794D01*
X60562Y23728D01*
X60546Y23650D01*
X60562Y23572D01*
X60606Y23506D01*
X60631Y23489D01*
X60612Y23442D01*
X60550Y23454D01*
X60472Y23438D01*
X60406Y23394D01*
X60362Y23328D01*
X60346Y23250D01*
X60362Y23172D01*
X60406Y23106D01*
X60472Y23062D01*
X60550Y23046D01*
X60628Y23062D01*
X60667Y23087D01*
X60821D01*
X60966Y22943D01*
X61010Y22913D01*
X61063Y22902D01*
X61063Y22902D01*
X64737D01*
X64790Y22913D01*
X64834Y22943D01*
X66497Y24606D01*
X66527Y24650D01*
X66538Y24703D01*
X66538Y24703D01*
Y25401D01*
X66544Y25406D01*
X66588Y25472D01*
X66604Y25550D01*
X66588Y25628D01*
X66544Y25694D01*
X66506Y25720D01*
Y25780D01*
X66544Y25806D01*
X66588Y25872D01*
X66604Y25950D01*
X66588Y26028D01*
X66544Y26094D01*
X66478Y26138D01*
X66400Y26154D01*
D02*
G37*
G36*
X47650Y23613D02*
X47556Y23601D01*
X47468Y23564D01*
X47393Y23507D01*
X47336Y23432D01*
X47299Y23344D01*
X47287Y23250D01*
X47299Y23156D01*
X47336Y23068D01*
X47393Y22993D01*
X47468Y22936D01*
X47556Y22899D01*
X47650Y22887D01*
X47744Y22899D01*
X47832Y22936D01*
X47907Y22993D01*
X47964Y23068D01*
X48001Y23156D01*
X48013Y23250D01*
X48001Y23344D01*
X47964Y23432D01*
X47907Y23507D01*
X47832Y23564D01*
X47744Y23601D01*
X47650Y23613D01*
D02*
G37*
G36*
X46650D02*
X46556Y23601D01*
X46468Y23564D01*
X46393Y23507D01*
X46336Y23432D01*
X46299Y23344D01*
X46287Y23250D01*
X46299Y23156D01*
X46336Y23068D01*
X46393Y22993D01*
X46468Y22936D01*
X46556Y22899D01*
X46650Y22887D01*
X46744Y22899D01*
X46832Y22936D01*
X46907Y22993D01*
X46964Y23068D01*
X47001Y23156D01*
X47013Y23250D01*
X47001Y23344D01*
X46964Y23432D01*
X46907Y23507D01*
X46832Y23564D01*
X46744Y23601D01*
X46650Y23613D01*
D02*
G37*
G36*
X56450Y21863D02*
X56369Y21852D01*
X56294Y21821D01*
X56229Y21771D01*
X56179Y21706D01*
X56148Y21631D01*
X56137Y21550D01*
X56148Y21469D01*
X56179Y21394D01*
X56229Y21329D01*
X56294Y21279D01*
X56369Y21248D01*
X56450Y21237D01*
X56531Y21248D01*
X56606Y21279D01*
X56671Y21329D01*
X56721Y21394D01*
X56752Y21469D01*
X56763Y21550D01*
X56752Y21631D01*
X56721Y21706D01*
X56671Y21771D01*
X56606Y21821D01*
X56531Y21852D01*
X56450Y21863D01*
D02*
G37*
G36*
X55100D02*
X55019Y21852D01*
X54944Y21821D01*
X54879Y21771D01*
X54829Y21706D01*
X54798Y21631D01*
X54787Y21550D01*
X54798Y21469D01*
X54829Y21394D01*
X54879Y21329D01*
X54944Y21279D01*
X55019Y21248D01*
X55100Y21237D01*
X55181Y21248D01*
X55256Y21279D01*
X55321Y21329D01*
X55371Y21394D01*
X55402Y21469D01*
X55413Y21550D01*
X55402Y21631D01*
X55371Y21706D01*
X55321Y21771D01*
X55256Y21821D01*
X55181Y21852D01*
X55100Y21863D01*
D02*
G37*
G36*
X43274Y20915D02*
X43126D01*
X43120Y20912D01*
X43113Y20914D01*
X42969Y20885D01*
X42963Y20881D01*
X42956D01*
X42820Y20825D01*
X42815Y20820D01*
X42809Y20819D01*
X42686Y20737D01*
X42682Y20731D01*
X42676Y20728D01*
X42572Y20624D01*
X42569Y20618D01*
X42563Y20614D01*
X42481Y20491D01*
X42480Y20485D01*
X42475Y20480D01*
X42419Y20344D01*
Y20337D01*
X42415Y20331D01*
X42386Y20187D01*
X42388Y20180D01*
X42385Y20174D01*
Y20026D01*
X42388Y20020D01*
X42386Y20013D01*
X42415Y19869D01*
X42419Y19863D01*
Y19856D01*
X42475Y19720D01*
X42480Y19715D01*
X42481Y19709D01*
X42563Y19586D01*
X42569Y19582D01*
X42572Y19576D01*
X42676Y19472D01*
X42682Y19469D01*
X42686Y19463D01*
X42809Y19381D01*
X42815Y19380D01*
X42820Y19375D01*
X42956Y19319D01*
X42963D01*
X42969Y19315D01*
X43113Y19286D01*
X43120Y19288D01*
X43126Y19285D01*
X43274D01*
X43280Y19288D01*
X43287Y19286D01*
X43431Y19315D01*
X43437Y19319D01*
X43444D01*
X43580Y19375D01*
X43585Y19380D01*
X43591Y19381D01*
X43714Y19463D01*
X43718Y19469D01*
X43724Y19472D01*
X43828Y19576D01*
X43831Y19582D01*
X43837Y19586D01*
X43919Y19709D01*
X43920Y19715D01*
X43925Y19720D01*
X43981Y19856D01*
Y19863D01*
X43985Y19869D01*
X44014Y20013D01*
X44012Y20020D01*
X44015Y20026D01*
Y20174D01*
X44012Y20180D01*
X44014Y20187D01*
X43985Y20331D01*
X43981Y20337D01*
Y20344D01*
X43925Y20480D01*
X43920Y20485D01*
X43919Y20491D01*
X43837Y20614D01*
X43831Y20618D01*
X43828Y20624D01*
X43724Y20728D01*
X43718Y20731D01*
X43714Y20737D01*
X43591Y20819D01*
X43585Y20820D01*
X43580Y20825D01*
X43444Y20881D01*
X43437D01*
X43431Y20885D01*
X43287Y20914D01*
X43280Y20912D01*
X43274Y20915D01*
D02*
G37*
G36*
X64274Y20915D02*
X64126D01*
X64120Y20912D01*
X64113Y20914D01*
X63969Y20885D01*
X63963Y20881D01*
X63956D01*
X63820Y20825D01*
X63815Y20820D01*
X63809Y20819D01*
X63686Y20737D01*
X63682Y20731D01*
X63676Y20728D01*
X63572Y20624D01*
X63569Y20618D01*
X63563Y20614D01*
X63481Y20491D01*
X63480Y20485D01*
X63475Y20480D01*
X63419Y20344D01*
Y20337D01*
X63415Y20331D01*
X63386Y20187D01*
X63388Y20180D01*
X63385Y20174D01*
Y20026D01*
X63388Y20020D01*
X63386Y20013D01*
X63415Y19869D01*
X63419Y19863D01*
Y19856D01*
X63475Y19720D01*
X63480Y19715D01*
X63481Y19709D01*
X63563Y19586D01*
X63569Y19582D01*
X63572Y19576D01*
X63676Y19472D01*
X63682Y19469D01*
X63686Y19463D01*
X63809Y19381D01*
X63815Y19380D01*
X63820Y19375D01*
X63956Y19319D01*
X63963D01*
X63969Y19315D01*
X64113Y19286D01*
X64120Y19288D01*
X64126Y19285D01*
X64274D01*
X64280Y19288D01*
X64287Y19286D01*
X64431Y19315D01*
X64437Y19319D01*
X64444D01*
X64580Y19375D01*
X64585Y19380D01*
X64591Y19381D01*
X64714Y19463D01*
X64718Y19469D01*
X64724Y19472D01*
X64828Y19576D01*
X64831Y19582D01*
X64837Y19586D01*
X64919Y19709D01*
X64920Y19715D01*
X64925Y19720D01*
X64981Y19856D01*
Y19863D01*
X64985Y19869D01*
X65014Y20013D01*
X65012Y20020D01*
X65015Y20026D01*
Y20174D01*
X65012Y20180D01*
X65014Y20187D01*
X64985Y20331D01*
X64981Y20337D01*
Y20344D01*
X64925Y20480D01*
X64920Y20485D01*
X64919Y20491D01*
X64837Y20614D01*
X64831Y20618D01*
X64828Y20624D01*
X64724Y20728D01*
X64718Y20731D01*
X64714Y20737D01*
X64591Y20819D01*
X64585Y20820D01*
X64580Y20825D01*
X64444Y20881D01*
X64437D01*
X64431Y20885D01*
X64287Y20914D01*
X64280Y20912D01*
X64274Y20915D01*
D02*
G37*
G36*
X51974D02*
X51826D01*
X51820Y20912D01*
X51813Y20914D01*
X51669Y20885D01*
X51663Y20881D01*
X51656D01*
X51520Y20825D01*
X51515Y20820D01*
X51509Y20819D01*
X51386Y20737D01*
X51382Y20731D01*
X51376Y20728D01*
X51272Y20624D01*
X51269Y20618D01*
X51263Y20614D01*
X51181Y20491D01*
X51180Y20485D01*
X51175Y20480D01*
X51119Y20344D01*
Y20337D01*
X51115Y20331D01*
X51086Y20187D01*
X51088Y20180D01*
X51085Y20174D01*
Y20026D01*
X51088Y20020D01*
X51086Y20013D01*
X51115Y19869D01*
X51119Y19863D01*
Y19856D01*
X51175Y19720D01*
X51180Y19715D01*
X51181Y19709D01*
X51263Y19586D01*
X51269Y19582D01*
X51272Y19576D01*
X51376Y19472D01*
X51382Y19469D01*
X51386Y19463D01*
X51509Y19381D01*
X51515Y19380D01*
X51520Y19375D01*
X51656Y19319D01*
X51663D01*
X51669Y19315D01*
X51813Y19286D01*
X51820Y19288D01*
X51826Y19285D01*
X51974D01*
X51980Y19288D01*
X51987Y19286D01*
X52131Y19315D01*
X52137Y19319D01*
X52144D01*
X52280Y19375D01*
X52285Y19380D01*
X52291Y19381D01*
X52414Y19463D01*
X52418Y19469D01*
X52424Y19472D01*
X52528Y19576D01*
X52531Y19582D01*
X52537Y19586D01*
X52619Y19709D01*
X52620Y19715D01*
X52625Y19720D01*
X52681Y19856D01*
Y19863D01*
X52685Y19869D01*
X52714Y20013D01*
X52712Y20020D01*
X52715Y20026D01*
Y20174D01*
X52712Y20180D01*
X52714Y20187D01*
X52685Y20331D01*
X52681Y20337D01*
Y20344D01*
X52625Y20480D01*
X52620Y20485D01*
X52619Y20491D01*
X52537Y20614D01*
X52531Y20618D01*
X52528Y20624D01*
X52424Y20728D01*
X52418Y20731D01*
X52414Y20737D01*
X52291Y20819D01*
X52285Y20820D01*
X52280Y20825D01*
X52144Y20881D01*
X52137D01*
X52131Y20885D01*
X51987Y20914D01*
X51980Y20912D01*
X51974Y20915D01*
D02*
G37*
G36*
X55831Y21361D02*
X55750Y21350D01*
X55675Y21319D01*
X55610Y21270D01*
X55560Y21205D01*
X55529Y21129D01*
X55518Y21048D01*
X55529Y20968D01*
X55560Y20892D01*
X55610Y20827D01*
X55675Y20778D01*
X55750Y20746D01*
X55831Y20736D01*
X55912Y20746D01*
X55987Y20778D01*
X56052Y20827D01*
X56102Y20892D01*
X56133Y20968D01*
X56144Y21048D01*
X56133Y21129D01*
X56102Y21205D01*
X56052Y21270D01*
X55987Y21319D01*
X55912Y21350D01*
X55831Y21361D01*
D02*
G37*
G36*
X61300Y20904D02*
X61222Y20888D01*
X61156Y20844D01*
X61112Y20778D01*
X61096Y20700D01*
X61112Y20622D01*
X61156Y20556D01*
X61188Y20534D01*
Y19246D01*
X60988Y19046D01*
X60950Y19054D01*
X60872Y19038D01*
X60806Y18994D01*
X60762Y18928D01*
X60746Y18850D01*
X60762Y18772D01*
X60806Y18706D01*
X60872Y18662D01*
X60950Y18646D01*
X61028Y18662D01*
X61094Y18706D01*
X61138Y18772D01*
X61154Y18850D01*
X61146Y18888D01*
X61379Y19121D01*
X61379Y19121D01*
X61404Y19157D01*
X61412Y19200D01*
X61412Y19200D01*
Y20534D01*
X61444Y20556D01*
X61488Y20622D01*
X61504Y20700D01*
X61488Y20778D01*
X61444Y20844D01*
X61378Y20888D01*
X61300Y20904D01*
D02*
G37*
%LPD*%
D11*
X39300Y42300D02*
Y42500D01*
X41800Y45000D01*
X40850Y30750D02*
Y34350D01*
X40800Y34400D02*
X40850Y34350D01*
X40400Y30800D02*
Y34350D01*
X40350Y30750D02*
X40400Y30800D01*
X38382Y34469D02*
X40263Y36350D01*
X46650D01*
X36500Y25800D02*
Y26537D01*
X36050Y26987D02*
X36500Y26537D01*
X36916Y32110D02*
X39126Y29900D01*
X39060Y29740D02*
X49234D01*
X36400Y32400D02*
X39060Y29740D01*
X39126Y29900D02*
X49300D01*
X57600Y21600D01*
X49234Y29740D02*
X57724Y21250D01*
X36900Y32400D02*
X36916Y32384D01*
Y32110D02*
Y32384D01*
X36050Y30550D02*
X36350Y30850D01*
X36050Y26987D02*
Y30550D01*
X57600Y21600D02*
X57934D01*
X57724Y21250D02*
X58400D01*
X58700Y21550D01*
X36000Y42000D02*
X37381Y40619D01*
Y40581D02*
Y40619D01*
X36050Y41400D02*
X38650Y38800D01*
X38700D01*
X37250Y43500D02*
X37850D01*
X36950Y43800D02*
X37250Y43500D01*
X61300Y19200D02*
Y20700D01*
X60950Y18850D02*
X61300Y19200D01*
X42520Y48230D02*
G03*
X42520Y48230I-200J0D01*
G01*
X44480D02*
G03*
X44480Y48230I-200J0D01*
G01*
X69750Y48250D02*
G03*
X68550Y49442I-1196J-4D01*
G01*
X35520D02*
G03*
X34320Y48242I0J-1200D01*
G01*
X68550Y17950D02*
G03*
X69750Y19150I0J1200D01*
G01*
X34320Y19142D02*
G03*
X35520Y17950I1196J4D01*
G01*
X34320Y19372D02*
G03*
X34319Y20828I180J728D01*
G01*
X34324Y37971D02*
G03*
X34325Y39429I176J729D01*
G01*
X64950Y20100D02*
G03*
X64950Y20100I-750J0D01*
G01*
X64950Y38700D02*
G03*
X64950Y38700I-750J0D01*
G01*
X43950Y38700D02*
G03*
X43950Y38700I-750J0D01*
G01*
Y20100D02*
G03*
X43950Y20100I-750J0D01*
G01*
X52650Y38700D02*
G03*
X52650Y38700I-750J0D01*
G01*
X52650Y20100D02*
G03*
X52650Y20100I-750J0D01*
G01*
X34320Y39434D02*
Y48242D01*
X35520Y49442D02*
X68550D01*
X69750Y19150D02*
Y48250D01*
X35520Y17950D02*
X68550D01*
X34320Y19142D02*
Y19372D01*
X34319Y35600D02*
Y37971D01*
Y35600D02*
X35200D01*
X34319Y34800D02*
X34319Y20828D01*
X63300Y34800D02*
Y35600D01*
X64900Y34800D02*
Y35600D01*
X63300D02*
X64900D01*
X63300Y34800D02*
X64900D01*
X51000D02*
X52600D01*
X51000Y35600D02*
X52600D01*
Y34800D02*
Y35600D01*
X51000Y34800D02*
Y35600D01*
X42300Y34800D02*
X43900D01*
X42300Y35600D02*
X43900D01*
Y34800D02*
Y35600D01*
X42300Y34800D02*
Y35600D01*
X35200Y34800D02*
Y35600D01*
X34319Y34800D02*
X35200D01*
D17*
X68550Y17900D02*
G03*
X68600Y17950I0J50D01*
G01*
D02*
G03*
X68550Y18000I-50J0D01*
G01*
X35520D02*
G03*
X35520Y17900I0J-50D01*
G01*
X68550D01*
X35520Y18000D02*
X68550D01*
D44*
X48650Y27200D02*
D03*
Y25225D02*
D03*
Y23250D02*
D03*
Y31150D02*
D03*
Y29175D02*
D03*
D93*
X59400Y25267D02*
X60450Y24217D01*
Y24200D02*
Y24217D01*
X63300Y27050D02*
X63600Y27350D01*
X63150Y23950D02*
Y26900D01*
X63300Y27050D01*
X64400Y30000D02*
Y30950D01*
X65400Y29000D02*
X67300D01*
X64400Y30000D02*
X65400Y29000D01*
X67300D02*
X68450Y27850D01*
Y26950D02*
Y27850D01*
Y26950D02*
X68662Y26738D01*
Y26213D02*
X68700Y26174D01*
X68662Y26213D02*
Y26738D01*
X68700Y25400D02*
Y26174D01*
D94*
X63872Y23828D02*
X64555D01*
X65050Y24323D01*
X66400Y24703D02*
Y25550D01*
X60550Y23250D02*
X60575Y23225D01*
X66000Y24600D02*
Y25550D01*
X61150Y23250D02*
X64650D01*
X66000Y24600D01*
X64737Y23040D02*
X66400Y24703D01*
X61063Y23040D02*
X64737D01*
X60575Y23225D02*
X60878D01*
X61063Y23040D01*
X60750Y23650D02*
X61150Y23250D01*
X66000Y25550D02*
X66400Y25950D01*
X63150Y27750D02*
X63750D01*
X64200Y27300D01*
X62900Y27500D02*
X63150Y27750D01*
D97*
X67000Y30057D02*
D03*
Y34781D02*
D03*
D98*
Y33600D02*
D03*
D99*
Y32419D02*
D03*
Y31238D02*
D03*
D100*
X69246Y27448D02*
D03*
Y24046D02*
D03*
X67750D02*
D03*
Y27448D02*
D03*
D101*
X61500Y45550D02*
D03*
Y46550D02*
D03*
Y44550D02*
D03*
D102*
Y47550D02*
D03*
D103*
X62363Y23950D02*
D03*
D104*
X63150D02*
D03*
D105*
X47650Y27200D02*
D03*
X46650D02*
D03*
X47650Y25225D02*
D03*
X46650D02*
D03*
X47650Y23250D02*
D03*
X46650D02*
D03*
X47650Y31150D02*
D03*
X46650D02*
D03*
X47650Y29175D02*
D03*
X46650D02*
D03*
D106*
X35600Y24300D02*
D03*
X39300Y42300D02*
D03*
X40800Y34400D02*
D03*
X40400Y34350D02*
D03*
X35382Y27668D02*
D03*
X46650Y36350D02*
D03*
X38382Y34469D02*
D03*
X36500Y25800D02*
D03*
X43300Y44100D02*
D03*
X41800Y45000D02*
D03*
X42292Y44092D02*
D03*
X40350Y30750D02*
D03*
X40850D02*
D03*
X36900Y32400D02*
D03*
X36400D02*
D03*
X36350Y30850D02*
D03*
X38700Y38800D02*
D03*
X37381Y40581D02*
D03*
X57934Y21600D02*
D03*
X58700Y21550D02*
D03*
X36050Y41400D02*
D03*
X36000Y42000D02*
D03*
X37100Y44350D02*
D03*
X36950Y43800D02*
D03*
X37850Y43500D02*
D03*
X36070Y24420D02*
D03*
X36930Y24520D02*
D03*
X37825Y24375D02*
D03*
X44350Y44100D02*
D03*
X65050Y24323D02*
D03*
X63872Y23828D02*
D03*
X66400Y25550D02*
D03*
X60550Y23250D02*
D03*
X60750Y23650D02*
D03*
X60950Y18850D02*
D03*
X61300Y20700D02*
D03*
X59400Y25267D02*
D03*
X60450Y24200D02*
D03*
X63300Y27050D02*
D03*
X63600Y27350D02*
D03*
X62900Y27500D02*
D03*
X64200Y27300D02*
D03*
X66400Y25950D02*
D03*
D107*
X38650Y40250D02*
D03*
X38850Y42600D02*
D03*
X37950D02*
D03*
X37050D02*
D03*
X38650Y41800D02*
D03*
X37850D02*
D03*
X38650Y41025D02*
D03*
X38203Y46697D02*
D03*
X56450Y21550D02*
D03*
X55100D02*
D03*
X55831Y21048D02*
D03*
X59300Y34350D02*
D03*
X58367D02*
D03*
X57433D02*
D03*
X56500D02*
D03*
X59300Y35450D02*
D03*
X58367D02*
D03*
X57433D02*
D03*
X56500D02*
D03*
X64400Y30000D02*
D03*
Y30950D02*
D03*
X68700Y26174D02*
D03*
Y25400D02*
D03*
M02*
