G04*
G04 #@! TF.GenerationSoftware,Altium Limited,Altium Designer,20.2.6 (244)*
G04*
G04 Layer_Physical_Order=1*
G04 Layer_Color=255*
%FSLAX24Y24*%
%MOIN*%
G70*
G04*
G04 #@! TF.SameCoordinates,2017631A-D77C-4579-BA5B-B5A4186395AE*
G04*
G04*
G04 #@! TF.FilePolarity,Positive*
G04*
G01*
G75*
%ADD11C,0.0100*%
%ADD16C,0.0200*%
%ADD17C,0.0080*%
%ADD18R,0.0340X0.0318*%
%ADD19R,0.0209X0.0421*%
%ADD20R,0.0315X0.0315*%
%ADD21R,0.0315X0.0315*%
%ADD22R,0.0318X0.0340*%
%ADD23R,0.0860X0.0669*%
%ADD24R,0.1000X0.0315*%
%ADD25R,0.1000X0.0276*%
%ADD26R,0.0866X0.0866*%
%ADD27O,0.0500X0.0138*%
%ADD28O,0.0138X0.0500*%
%ADD29R,0.0315X0.0354*%
%ADD30R,0.0670X0.0475*%
%ADD31R,0.0354X0.0315*%
%ADD32R,0.0984X0.1496*%
%ADD33R,0.0669X0.0860*%
%ADD34R,0.0217X0.0394*%
%ADD35O,0.0400X0.1200*%
%ADD36O,0.0500X0.0110*%
%ADD37R,0.1240X0.1240*%
%ADD38O,0.0110X0.0500*%
%ADD39R,0.0472X0.0551*%
%ADD40R,0.1417X0.0972*%
%ADD41R,0.0386X0.0972*%
%ADD42R,0.0700X0.0400*%
%ADD43R,0.0600X0.0700*%
%ADD44R,0.0600X0.0600*%
%ADD45R,0.0750X0.0610*%
%ADD46R,0.1000X0.0160*%
%ADD47R,0.0787X0.0354*%
%ADD48R,0.0354X0.0787*%
%ADD49R,0.0524X0.0524*%
%ADD50R,0.0551X0.0472*%
%ADD93C,0.0300*%
%ADD94C,0.0150*%
%ADD95C,0.0400*%
%ADD96C,0.0500*%
G04:AMPARAMS|DCode=97|XSize=50mil|YSize=80mil|CornerRadius=0mil|HoleSize=0mil|Usage=FLASHONLY|Rotation=270.000|XOffset=0mil|YOffset=0mil|HoleType=Round|Shape=Octagon|*
%AMOCTAGOND97*
4,1,8,0.0400,0.0125,0.0400,-0.0125,0.0275,-0.0250,-0.0275,-0.0250,-0.0400,-0.0125,-0.0400,0.0125,-0.0275,0.0250,0.0275,0.0250,0.0400,0.0125,0.0*
%
%ADD97OCTAGOND97*%

%ADD98R,0.0700X0.0500*%
G04:AMPARAMS|DCode=99|XSize=50mil|YSize=70mil|CornerRadius=0mil|HoleSize=0mil|Usage=FLASHONLY|Rotation=270.000|XOffset=0mil|YOffset=0mil|HoleType=Round|Shape=Octagon|*
%AMOCTAGOND99*
4,1,8,0.0350,0.0125,0.0350,-0.0125,0.0225,-0.0250,-0.0225,-0.0250,-0.0350,-0.0125,-0.0350,0.0125,-0.0225,0.0250,0.0225,0.0250,0.0350,0.0125,0.0*
%
%ADD99OCTAGOND99*%

G04:AMPARAMS|DCode=100|XSize=39.4mil|YSize=70.9mil|CornerRadius=9.8mil|HoleSize=0mil|Usage=FLASHONLY|Rotation=90.000|XOffset=0mil|YOffset=0mil|HoleType=Round|Shape=RoundedRectangle|*
%AMROUNDEDRECTD100*
21,1,0.0394,0.0512,0,0,90.0*
21,1,0.0197,0.0709,0,0,90.0*
1,1,0.0197,0.0256,0.0098*
1,1,0.0197,0.0256,-0.0098*
1,1,0.0197,-0.0256,-0.0098*
1,1,0.0197,-0.0256,0.0098*
%
%ADD100ROUNDEDRECTD100*%
%ADD101C,0.0510*%
%ADD102R,0.0510X0.0510*%
%ADD103C,0.0630*%
%ADD104R,0.0630X0.0630*%
%ADD105C,0.0600*%
%ADD106C,0.0280*%
%ADD107C,0.0500*%
G36*
X68784Y49422D02*
X68935Y49382D01*
X69081Y49323D01*
X69217Y49245D01*
X69341Y49150D01*
X69452Y49039D01*
X69548Y48915D01*
X69627Y48780D01*
X69688Y48635D01*
X69729Y48484D01*
X69750Y48328D01*
X69750Y48250D01*
Y19150D01*
Y19071D01*
X69729Y18915D01*
X69689Y18763D01*
X69629Y18618D01*
X69550Y18482D01*
X69454Y18357D01*
X69343Y18246D01*
X69218Y18150D01*
X69082Y18071D01*
X68937Y18011D01*
X68785Y17971D01*
X68629Y17950D01*
X68550D01*
X35520Y17950D01*
X35442Y17950D01*
X35286Y17970D01*
X35135Y18010D01*
X34990Y18069D01*
X34853Y18147D01*
X34729Y18242D01*
X34618Y18353D01*
X34522Y18477D01*
X34443Y18612D01*
X34382Y18757D01*
X34341Y18908D01*
X34320Y19064D01*
X34320Y19142D01*
X34320Y19142D01*
Y19333D01*
X34358Y19365D01*
X34404Y19356D01*
X34573Y19354D01*
X34739Y19389D01*
X34893Y19461D01*
X35026Y19566D01*
X35133Y19698D01*
X35207Y19850D01*
X35245Y20015D01*
X35245Y20185D01*
X35207Y20350D01*
X35133Y20503D01*
X35026Y20635D01*
X34892Y20739D01*
X34738Y20811D01*
X34573Y20846D01*
X34403Y20844D01*
X34358Y20835D01*
X34319Y20867D01*
Y20878D01*
Y26051D01*
X34381D01*
X34427Y26070D01*
X34446Y26116D01*
Y33816D01*
X34427Y33862D01*
X34381Y33881D01*
X34319D01*
Y34750D01*
X34369Y34800D01*
X35200D01*
Y35600D01*
X34319D01*
Y37921D01*
X34369Y37963D01*
X34408Y37956D01*
X34577Y37954D01*
X34742Y37990D01*
X34895Y38062D01*
X35027Y38167D01*
X35133Y38298D01*
X35207Y38451D01*
X35245Y38615D01*
X35245Y38784D01*
X35207Y38949D01*
X35134Y39101D01*
X35028Y39233D01*
X34895Y39337D01*
X34742Y39410D01*
X34577Y39446D01*
X34408Y39444D01*
X34370Y39437D01*
X34320Y39479D01*
Y48242D01*
Y48321D01*
X34341Y48476D01*
X34381Y48628D01*
X34441Y48774D01*
X34520Y48910D01*
X34616Y49035D01*
X34727Y49146D01*
X34852Y49242D01*
X34988Y49320D01*
X35133Y49381D01*
X35285Y49421D01*
X35441Y49442D01*
X68550D01*
X68628Y49442D01*
X68784Y49422D01*
D02*
G37*
%LPC*%
G36*
X58660Y48910D02*
X57940D01*
Y48090D01*
X58660D01*
Y48910D01*
D02*
G37*
G36*
X56460D02*
X55740D01*
Y48090D01*
X56460D01*
Y48910D01*
D02*
G37*
G36*
X44320Y48495D02*
X44240D01*
X44228Y48490D01*
X44215D01*
X44142Y48460D01*
X44133Y48450D01*
X44121Y48445D01*
X44065Y48389D01*
X44060Y48377D01*
X44050Y48368D01*
X44020Y48295D01*
Y48282D01*
X44015Y48270D01*
Y48190D01*
X44020Y48178D01*
Y48165D01*
X44050Y48092D01*
X44060Y48083D01*
X44065Y48071D01*
X44121Y48015D01*
X44133Y48010D01*
X44142Y48000D01*
X44215Y47970D01*
X44228D01*
X44240Y47965D01*
X44320D01*
X44332Y47970D01*
X44345D01*
X44418Y48000D01*
X44427Y48010D01*
X44439Y48015D01*
X44495Y48071D01*
X44500Y48083D01*
X44510Y48092D01*
X44540Y48165D01*
Y48178D01*
X44545Y48190D01*
Y48270D01*
X44540Y48282D01*
Y48295D01*
X44510Y48368D01*
X44500Y48377D01*
X44495Y48389D01*
X44439Y48445D01*
X44427Y48450D01*
X44418Y48460D01*
X44345Y48490D01*
X44332D01*
X44320Y48495D01*
D02*
G37*
G36*
X42360D02*
X42280D01*
X42268Y48490D01*
X42255D01*
X42182Y48460D01*
X42173Y48450D01*
X42161Y48445D01*
X42105Y48389D01*
X42100Y48377D01*
X42090Y48368D01*
X42060Y48295D01*
Y48282D01*
X42055Y48270D01*
Y48190D01*
X42060Y48178D01*
Y48165D01*
X42090Y48092D01*
X42100Y48083D01*
X42105Y48071D01*
X42161Y48015D01*
X42173Y48010D01*
X42182Y48000D01*
X42255Y47970D01*
X42268D01*
X42280Y47965D01*
X42360D01*
X42372Y47970D01*
X42385D01*
X42458Y48000D01*
X42467Y48010D01*
X42479Y48015D01*
X42535Y48071D01*
X42540Y48083D01*
X42550Y48092D01*
X42580Y48165D01*
Y48178D01*
X42585Y48190D01*
Y48270D01*
X42580Y48282D01*
Y48295D01*
X42550Y48368D01*
X42540Y48377D01*
X42535Y48389D01*
X42479Y48445D01*
X42467Y48450D01*
X42458Y48460D01*
X42385Y48490D01*
X42372D01*
X42360Y48495D01*
D02*
G37*
G36*
X38700Y47312D02*
X38700Y47312D01*
X37900D01*
X37900Y47312D01*
X37857Y47304D01*
X37821Y47279D01*
X37821Y47279D01*
X37371Y46829D01*
X37346Y46793D01*
X37338Y46750D01*
X37338Y46750D01*
Y46046D01*
X36706Y45415D01*
X36660Y45434D01*
Y45890D01*
Y46170D01*
Y46450D01*
Y46730D01*
Y47010D01*
X35540D01*
Y46730D01*
Y46421D01*
X35450D01*
X35450Y46421D01*
X35407Y46413D01*
X35371Y46388D01*
X35371Y46388D01*
X34721Y45738D01*
X34696Y45702D01*
X34688Y45659D01*
X34688Y45659D01*
Y42050D01*
X34688Y42050D01*
X34696Y42007D01*
X34721Y41971D01*
X36788Y39904D01*
Y35373D01*
X35429Y34014D01*
X35405Y33978D01*
X35397Y33935D01*
X35397Y33935D01*
Y33766D01*
X35144D01*
Y32859D01*
X35594D01*
X35619Y32859D01*
Y32859D01*
X35644D01*
Y32859D01*
X36094D01*
X36131Y32859D01*
X36169Y32859D01*
X36288D01*
Y32566D01*
X36256Y32544D01*
X36212Y32478D01*
X36196Y32400D01*
X36212Y32322D01*
X36256Y32256D01*
X36322Y32212D01*
X36400Y32196D01*
X36478Y32212D01*
X36544Y32256D01*
X36588Y32322D01*
X36604Y32400D01*
X36588Y32478D01*
X36544Y32544D01*
X36512Y32566D01*
Y32823D01*
X36548Y32859D01*
X36632Y32859D01*
X36669Y32859D01*
X36788D01*
Y32566D01*
X36756Y32544D01*
X36712Y32478D01*
X36696Y32400D01*
X36712Y32322D01*
X36756Y32256D01*
X36822Y32212D01*
X36900Y32196D01*
X36978Y32212D01*
X37044Y32256D01*
X37088Y32322D01*
X37104Y32400D01*
X37088Y32478D01*
X37044Y32544D01*
X37012Y32566D01*
Y32823D01*
X37048Y32859D01*
X37132Y32859D01*
X37169Y32859D01*
X37594D01*
X37631Y32859D01*
X37669Y32859D01*
X38094D01*
X38131Y32859D01*
X38169Y32859D01*
X38619D01*
Y32859D01*
X38644D01*
Y32859D01*
X39094D01*
X39132Y32859D01*
X39169Y32859D01*
X39619D01*
Y32859D01*
X39644D01*
Y32859D01*
X40119D01*
Y32859D01*
X40144D01*
Y32859D01*
X40594D01*
X40631Y32859D01*
X40669Y32859D01*
X41079D01*
X41100Y32808D01*
X40054Y31762D01*
X37200D01*
X37200Y31762D01*
X37157Y31754D01*
X37121Y31729D01*
X37121Y31729D01*
X36429Y31038D01*
X36428Y31038D01*
X36350Y31054D01*
X36272Y31038D01*
X36206Y30994D01*
X36162Y30928D01*
X36146Y30850D01*
X36162Y30772D01*
X36206Y30706D01*
X36272Y30662D01*
X36350Y30646D01*
X36428Y30662D01*
X36494Y30706D01*
X36538Y30772D01*
X36553Y30846D01*
X36555Y30848D01*
X36559Y30851D01*
X37246Y31538D01*
X40100D01*
X40100Y31538D01*
X40143Y31546D01*
X40179Y31571D01*
X41335Y32726D01*
X41335Y32726D01*
X41359Y32762D01*
X41368Y32805D01*
Y32859D01*
X41619D01*
Y33766D01*
X41333D01*
X41314Y33812D01*
X41539Y34038D01*
X43900D01*
X43900Y34038D01*
X43943Y34046D01*
X43979Y34071D01*
X53196Y43288D01*
X56750D01*
X56750Y43288D01*
X56793Y43296D01*
X56829Y43321D01*
X57379Y43871D01*
X57379Y43871D01*
X57404Y43907D01*
X57412Y43950D01*
Y45854D01*
X58300Y46741D01*
X60070D01*
Y46635D01*
X60530D01*
Y46716D01*
X61096D01*
X61192Y46621D01*
X61182Y46550D01*
X61193Y46468D01*
X61225Y46391D01*
X61275Y46325D01*
X61341Y46275D01*
X61418Y46243D01*
X61500Y46232D01*
X61582Y46243D01*
X61659Y46275D01*
X61725Y46325D01*
X61775Y46391D01*
X61807Y46468D01*
X61818Y46550D01*
X61807Y46632D01*
X61775Y46709D01*
X61725Y46775D01*
X61659Y46825D01*
X61582Y46857D01*
X61500Y46868D01*
X61418Y46857D01*
X61366Y46835D01*
X61251Y46951D01*
X61206Y46981D01*
X61153Y46991D01*
X60530D01*
Y47072D01*
X60070D01*
Y46966D01*
X58253D01*
X58253Y46966D01*
X58211Y46957D01*
X58174Y46933D01*
X57221Y45979D01*
X57196Y45943D01*
X57188Y45900D01*
X57188Y45900D01*
Y43996D01*
X56704Y43512D01*
X53150D01*
X53107Y43504D01*
X53071Y43479D01*
X53071Y43479D01*
X43854Y34262D01*
X41493D01*
X41450Y34254D01*
X41414Y34229D01*
X41414Y34229D01*
X41009Y33825D01*
X40989Y33795D01*
X40960Y33766D01*
X40631Y33766D01*
X40594Y33766D01*
X40412D01*
Y33850D01*
X40412Y33850D01*
X40404Y33893D01*
X40379Y33929D01*
X40379Y33929D01*
X39842Y34466D01*
Y34684D01*
X39888Y34703D01*
X40204Y34388D01*
X40196Y34350D01*
X40212Y34272D01*
X40256Y34206D01*
X40322Y34162D01*
X40400Y34146D01*
X40478Y34162D01*
X40544Y34206D01*
X40588Y34272D01*
X40641Y34278D01*
X40656Y34256D01*
X40722Y34212D01*
X40800Y34196D01*
X40878Y34212D01*
X40944Y34256D01*
X40988Y34322D01*
X41004Y34400D01*
X40988Y34478D01*
X40944Y34544D01*
X40878Y34588D01*
X40800Y34604D01*
X40762Y34596D01*
X40162Y35196D01*
Y40254D01*
X43879Y43971D01*
X43879Y43971D01*
X43904Y44007D01*
X43912Y44050D01*
X43912Y44050D01*
Y44561D01*
X44074Y44723D01*
X44120Y44704D01*
Y44335D01*
X44212D01*
Y44249D01*
X44206Y44244D01*
X44162Y44178D01*
X44146Y44100D01*
X44162Y44022D01*
X44206Y43956D01*
X44272Y43912D01*
X44350Y43896D01*
X44428Y43912D01*
X44494Y43956D01*
X44538Y44022D01*
X44554Y44100D01*
X44538Y44178D01*
X44494Y44244D01*
X44488Y44249D01*
Y44335D01*
X44580D01*
Y44772D01*
X44188D01*
X44169Y44818D01*
X44279Y44928D01*
X44580D01*
Y45365D01*
X44392D01*
Y46435D01*
X44715D01*
Y47165D01*
X43845D01*
Y46435D01*
X44168D01*
Y45365D01*
X44120D01*
Y45086D01*
X43721Y44687D01*
X43696Y44651D01*
X43688Y44608D01*
X43688Y44608D01*
Y44096D01*
X43012Y43421D01*
X42962Y43441D01*
Y44661D01*
X43024Y44723D01*
X43070Y44704D01*
Y44335D01*
X43162D01*
Y44249D01*
X43156Y44244D01*
X43112Y44178D01*
X43096Y44100D01*
X43112Y44022D01*
X43156Y43956D01*
X43222Y43912D01*
X43300Y43896D01*
X43378Y43912D01*
X43444Y43956D01*
X43488Y44022D01*
X43504Y44100D01*
X43488Y44178D01*
X43444Y44244D01*
X43438Y44249D01*
Y44335D01*
X43530D01*
Y44772D01*
X43138D01*
X43119Y44818D01*
X43229Y44928D01*
X43530D01*
Y45365D01*
X43412D01*
Y46435D01*
X43735D01*
Y47165D01*
X42865D01*
Y46435D01*
X43188D01*
Y45365D01*
X43070D01*
Y45086D01*
X42771Y44787D01*
X42746Y44751D01*
X42738Y44708D01*
X42738Y44708D01*
Y43420D01*
X40208Y40891D01*
X40162Y40910D01*
Y45850D01*
X40154Y45893D01*
X40129Y45929D01*
X40129Y45929D01*
X38779Y47279D01*
X38743Y47304D01*
X38700Y47312D01*
D02*
G37*
G36*
X61815Y47865D02*
X61185D01*
Y47669D01*
X60309D01*
X60288Y47665D01*
X60070D01*
Y47661D01*
X57997D01*
X57915Y47644D01*
X57845Y47598D01*
X56157Y45910D01*
X55740D01*
Y45090D01*
X55903D01*
Y44257D01*
X55907Y44237D01*
Y44013D01*
X56342D01*
Y44487D01*
X56331D01*
Y45090D01*
X56460D01*
Y45607D01*
X58085Y47232D01*
X60070D01*
Y47228D01*
X60530D01*
Y47241D01*
X61185D01*
Y47235D01*
X61815D01*
Y47865D01*
D02*
G37*
G36*
X61500Y45868D02*
X61418Y45857D01*
X61341Y45825D01*
X61275Y45775D01*
X61225Y45709D01*
X61193Y45632D01*
X61182Y45550D01*
X61193Y45468D01*
X61225Y45391D01*
X61275Y45325D01*
X61341Y45275D01*
X61418Y45243D01*
X61500Y45232D01*
X61582Y45243D01*
X61659Y45275D01*
X61725Y45325D01*
X61775Y45391D01*
X61807Y45468D01*
X61818Y45550D01*
X61807Y45632D01*
X61775Y45709D01*
X61725Y45775D01*
X61659Y45825D01*
X61582Y45857D01*
X61500Y45868D01*
D02*
G37*
G36*
X42755Y47165D02*
X41885D01*
Y46435D01*
X42208D01*
Y45365D01*
X42070D01*
Y45150D01*
X41936D01*
X41878Y45188D01*
X41800Y45204D01*
X41722Y45188D01*
X41656Y45144D01*
X41612Y45078D01*
X41596Y45000D01*
X41612Y44922D01*
X41656Y44856D01*
X41722Y44812D01*
X41800Y44796D01*
X41878Y44812D01*
X41944Y44856D01*
X41988Y44922D01*
X41989Y44926D01*
X42191D01*
X42191Y44926D01*
X42202Y44928D01*
X42530D01*
Y45365D01*
X42432D01*
Y46435D01*
X42755D01*
Y47165D01*
D02*
G37*
G36*
X58660Y45910D02*
X57940D01*
Y45090D01*
X58086D01*
Y44397D01*
X58102Y44315D01*
X58135Y44265D01*
Y44126D01*
X58465D01*
Y44265D01*
X58498Y44315D01*
X58514Y44397D01*
Y45090D01*
X58660D01*
Y45910D01*
D02*
G37*
G36*
X42530Y44772D02*
X42070D01*
Y44335D01*
X42172D01*
Y44252D01*
X42148Y44237D01*
X42104Y44170D01*
X42088Y44092D01*
X42104Y44014D01*
X42148Y43948D01*
X42214Y43904D01*
X42292Y43888D01*
X42370Y43904D01*
X42437Y43948D01*
X42481Y44014D01*
X42496Y44092D01*
X42493Y44110D01*
X42498Y44135D01*
Y44335D01*
X42530D01*
Y44772D01*
D02*
G37*
G36*
X58091Y43774D02*
X57761D01*
Y43635D01*
X57728Y43585D01*
X57712Y43503D01*
Y42761D01*
X57330D01*
X57262Y42747D01*
X57257D01*
X57237Y42743D01*
X57013D01*
Y42308D01*
X57487D01*
Y42332D01*
X57720D01*
Y42328D01*
X58180D01*
Y42332D01*
X58470D01*
Y42328D01*
X58930D01*
Y42765D01*
X58470D01*
Y42761D01*
X58180D01*
Y42765D01*
X58140D01*
Y43503D01*
X58124Y43585D01*
X58091Y43635D01*
Y43774D01*
D02*
G37*
G36*
X58180Y42172D02*
X57720D01*
Y41893D01*
X57089Y41262D01*
X51450D01*
X51450Y41262D01*
X51407Y41254D01*
X51371Y41229D01*
X51371Y41229D01*
X46688Y36546D01*
X46650Y36554D01*
X46572Y36538D01*
X46506Y36494D01*
X46462Y36428D01*
X46446Y36350D01*
X46462Y36272D01*
X46506Y36206D01*
X46572Y36162D01*
X46650Y36146D01*
X46728Y36162D01*
X46794Y36206D01*
X46838Y36272D01*
X46854Y36350D01*
X46846Y36388D01*
X51496Y41038D01*
X57135D01*
X57135Y41038D01*
X57178Y41046D01*
X57215Y41071D01*
X57879Y41735D01*
X58180D01*
Y42172D01*
D02*
G37*
G36*
X64274Y39515D02*
X64126D01*
X64120Y39512D01*
X64113Y39514D01*
X63969Y39485D01*
X63963Y39481D01*
X63956D01*
X63820Y39425D01*
X63815Y39420D01*
X63809Y39419D01*
X63686Y39337D01*
X63682Y39331D01*
X63676Y39328D01*
X63572Y39224D01*
X63569Y39218D01*
X63563Y39214D01*
X63481Y39091D01*
X63480Y39085D01*
X63475Y39080D01*
X63419Y38944D01*
Y38937D01*
X63415Y38931D01*
X63386Y38787D01*
X63388Y38780D01*
X63385Y38774D01*
Y38626D01*
X63388Y38620D01*
X63386Y38613D01*
X63415Y38469D01*
X63419Y38463D01*
Y38456D01*
X63475Y38320D01*
X63480Y38315D01*
X63481Y38309D01*
X63563Y38186D01*
X63569Y38182D01*
X63572Y38176D01*
X63676Y38072D01*
X63682Y38069D01*
X63686Y38063D01*
X63809Y37981D01*
X63815Y37980D01*
X63820Y37975D01*
X63956Y37919D01*
X63963D01*
X63969Y37915D01*
X64113Y37886D01*
X64120Y37888D01*
X64126Y37885D01*
X64274D01*
X64280Y37888D01*
X64287Y37886D01*
X64431Y37915D01*
X64437Y37919D01*
X64444D01*
X64580Y37975D01*
X64585Y37980D01*
X64591Y37981D01*
X64714Y38063D01*
X64718Y38069D01*
X64724Y38072D01*
X64828Y38176D01*
X64831Y38182D01*
X64837Y38186D01*
X64919Y38309D01*
X64920Y38315D01*
X64925Y38320D01*
X64981Y38456D01*
Y38463D01*
X64985Y38469D01*
X65014Y38613D01*
X65012Y38620D01*
X65015Y38626D01*
Y38774D01*
X65012Y38780D01*
X65014Y38787D01*
X64985Y38931D01*
X64981Y38937D01*
Y38944D01*
X64925Y39080D01*
X64920Y39085D01*
X64919Y39091D01*
X64837Y39214D01*
X64831Y39218D01*
X64828Y39224D01*
X64724Y39328D01*
X64718Y39331D01*
X64714Y39337D01*
X64591Y39419D01*
X64585Y39420D01*
X64580Y39425D01*
X64444Y39481D01*
X64437D01*
X64431Y39485D01*
X64287Y39514D01*
X64280Y39512D01*
X64274Y39515D01*
D02*
G37*
G36*
X51974D02*
X51826D01*
X51820Y39512D01*
X51813Y39514D01*
X51669Y39485D01*
X51663Y39481D01*
X51656D01*
X51520Y39425D01*
X51515Y39420D01*
X51509Y39419D01*
X51386Y39337D01*
X51382Y39331D01*
X51376Y39328D01*
X51272Y39224D01*
X51269Y39218D01*
X51263Y39214D01*
X51181Y39091D01*
X51180Y39085D01*
X51175Y39080D01*
X51119Y38944D01*
Y38937D01*
X51115Y38931D01*
X51086Y38787D01*
X51088Y38780D01*
X51085Y38774D01*
Y38626D01*
X51088Y38620D01*
X51086Y38613D01*
X51115Y38469D01*
X51119Y38463D01*
Y38456D01*
X51175Y38320D01*
X51180Y38315D01*
X51181Y38309D01*
X51263Y38186D01*
X51269Y38182D01*
X51272Y38176D01*
X51376Y38072D01*
X51382Y38069D01*
X51386Y38063D01*
X51509Y37981D01*
X51515Y37980D01*
X51520Y37975D01*
X51656Y37919D01*
X51663D01*
X51669Y37915D01*
X51813Y37886D01*
X51820Y37888D01*
X51826Y37885D01*
X51974D01*
X51980Y37888D01*
X51987Y37886D01*
X52131Y37915D01*
X52137Y37919D01*
X52144D01*
X52280Y37975D01*
X52285Y37980D01*
X52291Y37981D01*
X52414Y38063D01*
X52418Y38069D01*
X52424Y38072D01*
X52528Y38176D01*
X52531Y38182D01*
X52537Y38186D01*
X52619Y38309D01*
X52620Y38315D01*
X52625Y38320D01*
X52681Y38456D01*
Y38463D01*
X52685Y38469D01*
X52714Y38613D01*
X52712Y38620D01*
X52715Y38626D01*
Y38774D01*
X52712Y38780D01*
X52714Y38787D01*
X52685Y38931D01*
X52681Y38937D01*
Y38944D01*
X52625Y39080D01*
X52620Y39085D01*
X52619Y39091D01*
X52537Y39214D01*
X52531Y39218D01*
X52528Y39224D01*
X52424Y39328D01*
X52418Y39331D01*
X52414Y39337D01*
X52291Y39419D01*
X52285Y39420D01*
X52280Y39425D01*
X52144Y39481D01*
X52137D01*
X52131Y39485D01*
X51987Y39514D01*
X51980Y39512D01*
X51974Y39515D01*
D02*
G37*
G36*
X43274Y39515D02*
X43126D01*
X43120Y39512D01*
X43113Y39514D01*
X42969Y39485D01*
X42963Y39481D01*
X42956D01*
X42820Y39425D01*
X42815Y39420D01*
X42809Y39419D01*
X42686Y39337D01*
X42682Y39331D01*
X42676Y39328D01*
X42572Y39224D01*
X42569Y39218D01*
X42563Y39214D01*
X42481Y39091D01*
X42480Y39085D01*
X42475Y39080D01*
X42419Y38944D01*
Y38937D01*
X42415Y38931D01*
X42386Y38787D01*
X42388Y38780D01*
X42385Y38774D01*
Y38626D01*
X42388Y38620D01*
X42386Y38613D01*
X42415Y38469D01*
X42419Y38463D01*
Y38456D01*
X42475Y38320D01*
X42480Y38315D01*
X42481Y38309D01*
X42563Y38186D01*
X42569Y38182D01*
X42572Y38176D01*
X42676Y38072D01*
X42682Y38069D01*
X42686Y38063D01*
X42809Y37981D01*
X42815Y37980D01*
X42820Y37975D01*
X42956Y37919D01*
X42963D01*
X42969Y37915D01*
X43113Y37886D01*
X43120Y37888D01*
X43126Y37885D01*
X43274D01*
X43280Y37888D01*
X43287Y37886D01*
X43431Y37915D01*
X43437Y37919D01*
X43444D01*
X43580Y37975D01*
X43585Y37980D01*
X43591Y37981D01*
X43714Y38063D01*
X43718Y38069D01*
X43724Y38072D01*
X43828Y38176D01*
X43831Y38182D01*
X43837Y38186D01*
X43919Y38309D01*
X43920Y38315D01*
X43925Y38320D01*
X43981Y38456D01*
Y38463D01*
X43985Y38469D01*
X44014Y38613D01*
X44012Y38620D01*
X44015Y38626D01*
Y38774D01*
X44012Y38780D01*
X44014Y38787D01*
X43985Y38931D01*
X43981Y38937D01*
Y38944D01*
X43925Y39080D01*
X43920Y39085D01*
X43919Y39091D01*
X43837Y39214D01*
X43831Y39218D01*
X43828Y39224D01*
X43724Y39328D01*
X43718Y39331D01*
X43714Y39337D01*
X43591Y39419D01*
X43585Y39420D01*
X43580Y39425D01*
X43444Y39481D01*
X43437D01*
X43431Y39485D01*
X43287Y39514D01*
X43280Y39512D01*
X43274Y39515D01*
D02*
G37*
G36*
X64900Y35665D02*
X63300D01*
X63254Y35646D01*
X63235Y35600D01*
Y34800D01*
X63254Y34754D01*
X63300Y34735D01*
X64900D01*
X64946Y34754D01*
X64965Y34800D01*
Y35600D01*
X64946Y35646D01*
X64900Y35665D01*
D02*
G37*
G36*
X52600D02*
X51000D01*
X50954Y35646D01*
X50935Y35600D01*
Y34800D01*
X50954Y34754D01*
X51000Y34735D01*
X52600D01*
X52646Y34754D01*
X52665Y34800D01*
Y35600D01*
X52646Y35646D01*
X52600Y35665D01*
D02*
G37*
G36*
X43900Y35665D02*
X42300D01*
X42254Y35646D01*
X42235Y35600D01*
Y34800D01*
X42254Y34754D01*
X42300Y34735D01*
X43900D01*
X43946Y34754D01*
X43965Y34800D01*
Y35600D01*
X43946Y35646D01*
X43900Y35665D01*
D02*
G37*
G36*
X67305Y35091D02*
X66695D01*
X66540Y34936D01*
Y34626D01*
X66695Y34471D01*
X67305D01*
X67460Y34626D01*
Y34936D01*
X67305Y35091D01*
D02*
G37*
G36*
X61922Y34030D02*
X61485D01*
Y33912D01*
X61219D01*
Y34006D01*
X60782D01*
Y33545D01*
X60864D01*
Y33208D01*
X60808D01*
Y32694D01*
X61144D01*
Y33208D01*
X61088D01*
Y33545D01*
X61219D01*
Y33688D01*
X61485D01*
Y33570D01*
X61922D01*
Y34030D01*
D02*
G37*
G36*
X59700Y35965D02*
X56050D01*
X56004Y35946D01*
X55985Y35900D01*
Y33594D01*
X55406D01*
X55324Y33578D01*
X55254Y33531D01*
X54133Y32410D01*
X53764D01*
Y31818D01*
X54133D01*
X55337Y30613D01*
Y29940D01*
X54387D01*
Y29943D01*
X53913D01*
Y29508D01*
X54387D01*
Y29511D01*
X55342D01*
Y29320D01*
X55847D01*
Y30412D01*
X55766D01*
Y30702D01*
X55749Y30784D01*
X55703Y30853D01*
X54442Y32114D01*
X55494Y33166D01*
X56088D01*
Y32980D01*
X56097Y32912D01*
X56123Y32849D01*
X56165Y32795D01*
X56219Y32753D01*
X56282Y32727D01*
X56303Y32724D01*
X56764Y32263D01*
X56833Y32217D01*
X56915Y32201D01*
X58131D01*
Y32197D01*
X58566D01*
Y32632D01*
X58131D01*
Y32629D01*
X57004D01*
X56844Y32789D01*
X56863Y32835D01*
X58066D01*
X58070Y32837D01*
X58075Y32836D01*
X58122Y32843D01*
X58140Y32853D01*
X58159Y32861D01*
X58161Y32866D01*
X58165Y32868D01*
X58170Y32888D01*
X58178Y32907D01*
X58178Y33277D01*
X58522D01*
Y32950D01*
X58522Y32907D01*
X58530Y32888D01*
X58535Y32868D01*
X58539Y32866D01*
X58541Y32861D01*
X58560Y32853D01*
X58578Y32843D01*
X58625Y32836D01*
X58630Y32837D01*
X58634Y32835D01*
X59700D01*
X59746Y32854D01*
X59746Y32854D01*
X59765Y32900D01*
X59765Y32950D01*
X59765Y33096D01*
X59795Y33126D01*
X59795D01*
Y33541D01*
X60399D01*
X60419Y33545D01*
X60626D01*
Y34006D01*
X60189D01*
Y33970D01*
X59795D01*
Y34106D01*
X59765D01*
Y35900D01*
X59746Y35946D01*
X59700Y35965D01*
D02*
G37*
G36*
X42414Y32453D02*
X41507D01*
Y32003D01*
X41507Y31966D01*
X41507Y31929D01*
Y31503D01*
X41507Y31466D01*
X41507Y31429D01*
Y31003D01*
X41507Y30966D01*
X41507Y30929D01*
Y30503D01*
X41507Y30466D01*
X41507Y30429D01*
Y30003D01*
X41507Y29966D01*
X41507Y29929D01*
Y29503D01*
X41507Y29466D01*
X41507Y29429D01*
Y29003D01*
X41507Y28966D01*
X41507Y28929D01*
Y28667D01*
X41461Y28648D01*
X40962Y29146D01*
Y30584D01*
X40994Y30606D01*
X41038Y30672D01*
X41054Y30750D01*
X41038Y30828D01*
X40994Y30894D01*
X40928Y30938D01*
X40850Y30954D01*
X40772Y30938D01*
X40706Y30894D01*
X40662Y30828D01*
X40646Y30750D01*
X40662Y30672D01*
X40706Y30606D01*
X40738Y30584D01*
Y29100D01*
X40738Y29100D01*
X40746Y29057D01*
X40771Y29020D01*
X41448Y28343D01*
X41448Y28343D01*
X41478Y28323D01*
X41507Y28294D01*
Y27979D01*
X42414D01*
Y28429D01*
X42414Y28453D01*
X42414D01*
Y28479D01*
X42414D01*
Y28929D01*
X42414Y28966D01*
X42414Y29003D01*
Y29429D01*
X42414Y29466D01*
X42414Y29503D01*
Y29929D01*
X42414Y29966D01*
X42414Y30003D01*
Y30429D01*
X42414Y30466D01*
X42414Y30503D01*
Y30929D01*
X42414Y30966D01*
X42414Y31003D01*
Y31429D01*
X42414Y31466D01*
X42414Y31503D01*
Y31929D01*
X42414Y31966D01*
X42414Y32003D01*
Y32104D01*
X42835D01*
Y31970D01*
X43272D01*
Y32430D01*
X42835D01*
Y32328D01*
X42414D01*
Y32453D01*
D02*
G37*
G36*
X67000Y33913D02*
X63050D01*
X62969Y33902D01*
X62894Y33871D01*
X62829Y33821D01*
X62229Y33221D01*
X62179Y33156D01*
X62148Y33081D01*
X62137Y33000D01*
X62137Y33000D01*
Y31135D01*
X61560Y30558D01*
X61377D01*
Y31592D01*
X61506D01*
X61518Y31592D01*
Y31592D01*
X61556D01*
Y31592D01*
X61892D01*
Y32106D01*
X61670D01*
X61664Y32114D01*
X61675Y32182D01*
X61700Y32199D01*
X61875Y32374D01*
X61922Y32444D01*
X61938Y32526D01*
Y32951D01*
X61922Y33033D01*
X61892Y33077D01*
Y33208D01*
X61556D01*
Y33077D01*
X61526Y33033D01*
X61510Y32951D01*
Y32614D01*
X61460Y32564D01*
X59866D01*
X59784Y32548D01*
X59715Y32501D01*
X59591Y32378D01*
X59585D01*
X59564Y32374D01*
X59005D01*
Y31394D01*
X59186D01*
Y30558D01*
X58693D01*
Y28942D01*
X59797D01*
Y30558D01*
X59614D01*
Y31394D01*
X59795D01*
Y31988D01*
X59832Y32013D01*
X59955Y32136D01*
X60770D01*
X60808Y32106D01*
X60808Y32086D01*
Y31975D01*
X60778Y31931D01*
X60762Y31849D01*
X60778Y31767D01*
X60808Y31723D01*
Y31592D01*
X60949D01*
Y30558D01*
X60898D01*
Y28942D01*
X62002D01*
Y30116D01*
X62671Y30785D01*
X62671Y30785D01*
X62721Y30850D01*
X62752Y30925D01*
X62763Y31006D01*
X62763Y31006D01*
Y32870D01*
X63010Y33118D01*
X63055Y33092D01*
X63055Y33062D01*
Y32126D01*
X63845D01*
Y32328D01*
X64955D01*
Y32176D01*
X65309D01*
X65345Y32148D01*
X65421Y32117D01*
X65502Y32106D01*
X67000D01*
X67020Y32109D01*
X67255D01*
X67410Y32264D01*
Y32574D01*
X67255Y32729D01*
X67020D01*
X67000Y32732D01*
X65745D01*
Y33156D01*
X64955D01*
Y32954D01*
X63845D01*
Y33106D01*
X63103D01*
X63069Y33106D01*
X63044Y33151D01*
X63180Y33287D01*
X67000D01*
X67020Y33290D01*
X67410D01*
Y33910D01*
X67020D01*
X67000Y33913D01*
D02*
G37*
G36*
X67255Y31548D02*
X66745D01*
X66590Y31393D01*
Y31083D01*
X66745Y30928D01*
X67255D01*
X67410Y31083D01*
Y31393D01*
X67255Y31548D01*
D02*
G37*
G36*
X58569Y32003D02*
X58134D01*
Y31568D01*
X58137D01*
Y31315D01*
X58120D01*
Y30878D01*
X58580D01*
Y31315D01*
X58565D01*
Y31568D01*
X58569D01*
Y32003D01*
D02*
G37*
G36*
X46650Y31513D02*
X46556Y31501D01*
X46468Y31464D01*
X46393Y31407D01*
X46336Y31332D01*
X46299Y31244D01*
X46287Y31150D01*
X46299Y31056D01*
X46336Y30968D01*
X46393Y30893D01*
X46468Y30836D01*
X46556Y30799D01*
X46650Y30787D01*
X46744Y30799D01*
X46832Y30836D01*
X46907Y30893D01*
X46964Y30968D01*
X47001Y31056D01*
X47013Y31150D01*
X47001Y31244D01*
X46964Y31332D01*
X46907Y31407D01*
X46832Y31464D01*
X46744Y31501D01*
X46650Y31513D01*
D02*
G37*
G36*
X47650D02*
X47556Y31501D01*
X47468Y31464D01*
X47393Y31407D01*
X47336Y31332D01*
X47299Y31244D01*
X47287Y31150D01*
X47299Y31056D01*
X47328Y30987D01*
X42304Y25962D01*
X41296D01*
X41142Y26117D01*
X41164Y26166D01*
X41619D01*
Y27073D01*
X41169D01*
X41132Y27073D01*
X41094Y27073D01*
X40669D01*
X40631Y27073D01*
X40594Y27073D01*
X40144D01*
Y27073D01*
X40119D01*
Y27073D01*
X39669D01*
X39632Y27073D01*
X39594Y27073D01*
X39169D01*
X39132Y27073D01*
X39094Y27073D01*
X38669D01*
X38631Y27073D01*
X38594Y27073D01*
X38333D01*
X38314Y27119D01*
X40179Y28985D01*
X40179Y28985D01*
X40204Y29021D01*
X40212Y29064D01*
Y30454D01*
X40312Y30554D01*
X40350Y30546D01*
X40428Y30562D01*
X40494Y30606D01*
X40538Y30672D01*
X40554Y30750D01*
X40538Y30828D01*
X40494Y30894D01*
X40428Y30938D01*
X40350Y30954D01*
X40272Y30938D01*
X40206Y30894D01*
X40162Y30828D01*
X40146Y30750D01*
X40154Y30712D01*
X40021Y30579D01*
X39996Y30543D01*
X39988Y30500D01*
X39988Y30500D01*
Y29111D01*
X38009Y27132D01*
X37989Y27102D01*
X37960Y27073D01*
X37631Y27073D01*
X37594Y27073D01*
X37169D01*
X37132Y27073D01*
X37094Y27073D01*
X36669D01*
X36632Y27073D01*
X36594Y27073D01*
X36144D01*
Y27073D01*
X36119D01*
Y27073D01*
X35669D01*
X35631Y27073D01*
X35580Y27073D01*
X35545Y27108D01*
Y27553D01*
X35570Y27590D01*
X35585Y27668D01*
X35570Y27747D01*
X35526Y27813D01*
X35460Y27857D01*
X35382Y27872D01*
X35303Y27857D01*
X35237Y27813D01*
X35193Y27747D01*
X35178Y27668D01*
X35193Y27590D01*
X35218Y27553D01*
Y27073D01*
X35144D01*
Y26166D01*
X35594D01*
X35631Y26166D01*
X35669Y26166D01*
X35958D01*
Y25662D01*
X35840D01*
Y25538D01*
X35487D01*
Y25643D01*
X35013D01*
Y25367D01*
X34771Y25125D01*
X34746Y25088D01*
X34738Y25045D01*
X34738Y25045D01*
Y24500D01*
X34738Y24500D01*
X34746Y24457D01*
X34771Y24421D01*
X35624Y23567D01*
X35624Y23567D01*
X35661Y23543D01*
X35703Y23534D01*
X35703Y23534D01*
X35820D01*
Y23428D01*
X36280D01*
Y23508D01*
X36330Y23523D01*
X36583Y23271D01*
X36619Y23246D01*
X36620Y23246D01*
Y22835D01*
X36910D01*
X37179Y22566D01*
Y21810D01*
X37162D01*
Y21290D01*
X37982D01*
Y21810D01*
X37403D01*
Y22612D01*
X37403Y22612D01*
X37395Y22655D01*
X37370Y22692D01*
X37370Y22692D01*
X37080Y22982D01*
Y23238D01*
X45327D01*
X46104Y22461D01*
X46141Y22436D01*
X46184Y22428D01*
X46184Y22428D01*
X53114D01*
X55847Y19694D01*
X55847Y19694D01*
X55883Y19670D01*
X55926Y19662D01*
X55926Y19662D01*
X56685D01*
Y19182D01*
X56856D01*
X57271Y18768D01*
X57271Y18768D01*
X57307Y18744D01*
X57350Y18735D01*
X57350Y18735D01*
X60786D01*
X60806Y18706D01*
X60872Y18662D01*
X60950Y18646D01*
X61028Y18662D01*
X61094Y18706D01*
X61138Y18772D01*
X61154Y18850D01*
X61138Y18928D01*
X61094Y18994D01*
X61028Y19038D01*
X60950Y19054D01*
X60872Y19038D01*
X60806Y18994D01*
X60783Y18959D01*
X57396D01*
X57015Y19341D01*
Y19662D01*
X57180D01*
X57518Y19324D01*
X57554Y19299D01*
X57597Y19291D01*
X57597Y19291D01*
X60385D01*
Y19132D01*
X60715D01*
Y19666D01*
X60715Y19674D01*
X60734Y19716D01*
X61153D01*
X61206Y19726D01*
X61251Y19756D01*
X61835Y20341D01*
X61865Y20385D01*
X61875Y20438D01*
Y24350D01*
X62735D01*
X62741Y24347D01*
X62775Y24307D01*
Y23575D01*
X63525D01*
Y24325D01*
X62827D01*
X62812Y24375D01*
X62835Y24390D01*
X63209Y24764D01*
X63734D01*
Y23977D01*
X63728Y23972D01*
X63684Y23906D01*
X63668Y23828D01*
X63684Y23750D01*
X63728Y23684D01*
X63794Y23640D01*
X63872Y23624D01*
X63950Y23640D01*
X64016Y23684D01*
X64060Y23750D01*
X64076Y23828D01*
X64060Y23906D01*
X64016Y23972D01*
X64010Y23977D01*
Y24231D01*
X64016Y24237D01*
X64060Y24250D01*
X66738Y21571D01*
Y21270D01*
X67176D01*
Y21730D01*
X66897D01*
X66385Y22242D01*
X66404Y22288D01*
X66785D01*
Y22170D01*
X67222D01*
Y22630D01*
X66785D01*
Y22512D01*
X66346D01*
X64496Y24362D01*
Y24614D01*
X64546Y24629D01*
X64547Y24628D01*
X64557Y24621D01*
X64848Y24331D01*
X64846Y24323D01*
X64862Y24245D01*
X64906Y24179D01*
X64972Y24135D01*
X65050Y24119D01*
X65128Y24135D01*
X65194Y24179D01*
X65238Y24245D01*
X65254Y24323D01*
X65238Y24401D01*
X65194Y24467D01*
X65128Y24511D01*
X65076Y24522D01*
X65067Y24535D01*
X65094Y24585D01*
X66890D01*
X66936Y24604D01*
X66955Y24650D01*
Y24836D01*
X67367D01*
X67387Y24845D01*
X67408Y24851D01*
X67410Y24854D01*
X67413Y24855D01*
X67421Y24876D01*
X67432Y24895D01*
X67435Y24932D01*
X68010D01*
Y24936D01*
X68386D01*
Y22932D01*
X68402Y22850D01*
X68449Y22781D01*
X68566Y22664D01*
X68547Y22617D01*
X68283D01*
Y22512D01*
X67815D01*
Y22630D01*
X67378D01*
Y22170D01*
X67815D01*
Y22288D01*
X68283D01*
Y22183D01*
X68717D01*
Y22447D01*
X68764Y22466D01*
X68901Y22329D01*
Y21719D01*
X68897D01*
Y21284D01*
X69332D01*
Y21719D01*
X69329D01*
Y22185D01*
X69347D01*
Y22620D01*
X69215D01*
X68814Y23021D01*
Y25112D01*
X68856Y25129D01*
X68921Y25179D01*
X68971Y25244D01*
X69002Y25319D01*
X69013Y25400D01*
X69002Y25481D01*
X68971Y25556D01*
X68921Y25621D01*
X68914Y25626D01*
Y25948D01*
X68921Y25953D01*
X68971Y26018D01*
X69002Y26093D01*
X69013Y26174D01*
X69002Y26255D01*
X68971Y26331D01*
X68921Y26395D01*
X68856Y26445D01*
X68781Y26476D01*
X68700Y26487D01*
X68643Y26479D01*
X68622Y26501D01*
X68552Y26548D01*
X68470Y26564D01*
X68010D01*
Y26567D01*
X66890D01*
Y26545D01*
X65597Y25986D01*
X65569Y26027D01*
X67246Y27704D01*
X67265Y27750D01*
Y28255D01*
X67290D01*
Y29045D01*
X67265D01*
Y29450D01*
X67246Y29496D01*
X67200Y29515D01*
X65000D01*
X64963Y29553D01*
X64961Y29558D01*
X65317Y29914D01*
X65363Y29983D01*
X65379Y30065D01*
Y30444D01*
X65745D01*
Y31424D01*
X64955D01*
Y30770D01*
X64951Y30749D01*
Y30154D01*
X64758Y29961D01*
X64711Y29984D01*
X64713Y30000D01*
X64702Y30081D01*
X64671Y30156D01*
X64621Y30221D01*
X64614Y30226D01*
Y30724D01*
X64621Y30729D01*
X64671Y30794D01*
X64702Y30869D01*
X64713Y30950D01*
X64702Y31031D01*
X64671Y31106D01*
X64621Y31171D01*
X64556Y31221D01*
X64481Y31252D01*
X64400Y31263D01*
X64319Y31252D01*
X64244Y31221D01*
X64179Y31171D01*
X64129Y31106D01*
X64126Y31098D01*
X63845D01*
Y31374D01*
X63055D01*
Y30394D01*
X63845D01*
Y30670D01*
X64186D01*
Y30226D01*
X64179Y30221D01*
X64129Y30156D01*
X64098Y30081D01*
X64087Y30000D01*
X64098Y29919D01*
X64129Y29844D01*
X64179Y29779D01*
X64244Y29729D01*
X64319Y29698D01*
X64400Y29687D01*
X64416Y29689D01*
X64439Y29642D01*
X64199Y29401D01*
X64152Y29332D01*
X64136Y29250D01*
Y28189D01*
X63894Y27946D01*
X63847Y27966D01*
Y29508D01*
X62743D01*
Y28199D01*
X62342Y27798D01*
X61855D01*
Y27764D01*
X61443D01*
Y27787D01*
X61008D01*
Y27313D01*
X61443D01*
Y27336D01*
X61855D01*
Y27202D01*
X62645D01*
Y27286D01*
X62900D01*
X62982Y27302D01*
X63051Y27349D01*
X63098Y27418D01*
X63114Y27500D01*
X63098Y27582D01*
X63051Y27651D01*
X62982Y27698D01*
X62929Y27708D01*
X62913Y27763D01*
X63042Y27892D01*
X63774D01*
X63793Y27846D01*
X63449Y27501D01*
X63449Y27501D01*
X63149Y27201D01*
X63102Y27132D01*
X63090Y27071D01*
X62988Y26969D01*
X62953Y26916D01*
X62941Y26854D01*
Y26499D01*
X62645D01*
Y26633D01*
X61855D01*
Y26499D01*
X61469D01*
Y26587D01*
X61034D01*
Y26113D01*
X61469D01*
Y26172D01*
X61855D01*
Y26038D01*
X62570D01*
X62574Y26033D01*
X62589Y25988D01*
X62388Y25787D01*
X62184D01*
Y25313D01*
X62619D01*
Y25556D01*
X62783Y25721D01*
X63238D01*
X63300Y25733D01*
X63329Y25753D01*
X63583D01*
X63633Y25763D01*
X63676Y25791D01*
X63704Y25834D01*
X63714Y25884D01*
X63704Y25934D01*
X63676Y25977D01*
X63669Y25982D01*
Y26042D01*
X63676Y26047D01*
X63704Y26090D01*
X63714Y26140D01*
X63704Y26190D01*
X63676Y26233D01*
X63633Y26261D01*
X63583Y26271D01*
X63493D01*
X63464Y26291D01*
X63402Y26303D01*
X63367D01*
X63267Y26403D01*
Y26786D01*
X63321Y26840D01*
X63382Y26852D01*
X63451Y26899D01*
X63751Y27199D01*
X63751Y27199D01*
X63993Y27440D01*
X64032Y27408D01*
X64012Y27378D01*
X63996Y27300D01*
X63998Y27292D01*
X63781Y27075D01*
X63751Y27031D01*
X63740Y26978D01*
Y26629D01*
X63734Y26598D01*
X63741Y26567D01*
Y26417D01*
X63751Y26367D01*
X63779Y26324D01*
X63822Y26295D01*
X63872Y26285D01*
X63922Y26295D01*
X63965Y26324D01*
X63993Y26367D01*
X64003Y26417D01*
Y26549D01*
X64005Y26551D01*
X64016Y26604D01*
X64016Y26604D01*
Y26921D01*
X64192Y27098D01*
X64200Y27096D01*
X64278Y27112D01*
X64344Y27156D01*
X64388Y27222D01*
X64404Y27300D01*
X64388Y27378D01*
X64344Y27444D01*
X64278Y27488D01*
X64200Y27504D01*
X64122Y27488D01*
X64092Y27468D01*
X64060Y27507D01*
X64501Y27949D01*
X64548Y28018D01*
X64564Y28100D01*
Y29161D01*
X64864Y29461D01*
X64930Y29457D01*
X64935Y29450D01*
Y27227D01*
X64613Y26905D01*
X64590Y26901D01*
X64547Y26872D01*
X64519Y26829D01*
X64514Y26806D01*
X64504Y26796D01*
X64485Y26750D01*
Y26350D01*
X64504Y26304D01*
X64550Y26285D01*
X64573D01*
X64661Y26197D01*
X64687Y26187D01*
X64697Y26161D01*
X64785Y26073D01*
Y25850D01*
X64804Y25804D01*
X64818Y25798D01*
X64824Y25789D01*
X64831Y25784D01*
Y25724D01*
X64824Y25719D01*
X64796Y25676D01*
X64786Y25626D01*
X64796Y25576D01*
X64824Y25533D01*
X64831Y25528D01*
Y25468D01*
X64824Y25463D01*
X64796Y25420D01*
X64786Y25370D01*
X64793Y25334D01*
X64667Y25209D01*
X64640Y25215D01*
X64590Y25205D01*
X64547Y25176D01*
X64542Y25169D01*
X64482D01*
X64477Y25176D01*
X64434Y25205D01*
X64384Y25215D01*
X64334Y25205D01*
X64291Y25176D01*
X64286Y25169D01*
X64226D01*
X64221Y25176D01*
X64178Y25205D01*
X64128Y25215D01*
X64078Y25205D01*
X64035Y25176D01*
X64030Y25169D01*
X63970D01*
X63965Y25176D01*
X63922Y25205D01*
X63872Y25215D01*
X63822Y25205D01*
X63779Y25176D01*
X63751Y25133D01*
X63741Y25083D01*
Y25040D01*
X63247D01*
X63228Y25086D01*
X63367Y25226D01*
X63377Y25241D01*
X63583D01*
X63633Y25251D01*
X63676Y25279D01*
X63704Y25322D01*
X63714Y25372D01*
X63704Y25422D01*
X63676Y25465D01*
X63633Y25493D01*
X63583Y25503D01*
X63255D01*
X63252Y25504D01*
X63249Y25503D01*
X63221D01*
X63171Y25493D01*
X63128Y25465D01*
X63099Y25422D01*
X63099Y25418D01*
X62714Y25033D01*
X62509D01*
X62493Y25030D01*
X62231D01*
Y24625D01*
X60738D01*
X60692Y24616D01*
X60663Y24627D01*
X60642Y24638D01*
Y25037D01*
X60514D01*
Y26157D01*
X60498Y26239D01*
X60451Y26309D01*
X59759Y27001D01*
X59689Y27048D01*
X59607Y27064D01*
X59049D01*
X58696Y27417D01*
Y27786D01*
X58104D01*
Y27664D01*
X57269D01*
Y28180D01*
X56714D01*
Y29320D01*
X56753D01*
Y30412D01*
X56247D01*
Y29320D01*
X56286D01*
Y28180D01*
X55731D01*
Y27714D01*
X54993D01*
Y27737D01*
X54558D01*
Y27263D01*
X54993D01*
Y27286D01*
X55729D01*
Y27234D01*
X55615Y27119D01*
X55573Y27065D01*
X55547Y27002D01*
X55538Y26934D01*
X55538Y26934D01*
Y21812D01*
X55267D01*
X55256Y21821D01*
X55181Y21852D01*
X55100Y21863D01*
X55019Y21852D01*
X54944Y21821D01*
X54879Y21771D01*
X54829Y21706D01*
X54798Y21631D01*
X54787Y21550D01*
X54798Y21469D01*
X54829Y21394D01*
X54879Y21329D01*
X54944Y21279D01*
X55019Y21248D01*
X55100Y21237D01*
X55181Y21248D01*
X55256Y21279D01*
X55267Y21288D01*
X55549D01*
Y21179D01*
X55529Y21129D01*
X55518Y21048D01*
X55529Y20968D01*
X55560Y20892D01*
X55610Y20827D01*
X55675Y20778D01*
X55750Y20746D01*
X55831Y20736D01*
X55912Y20746D01*
X55987Y20778D01*
X56052Y20827D01*
X56102Y20892D01*
X56133Y20968D01*
X56144Y21048D01*
X56133Y21129D01*
X56102Y21205D01*
X56076Y21238D01*
X56085Y21288D01*
X56283D01*
X56294Y21279D01*
X56369Y21248D01*
X56450Y21237D01*
X56531Y21248D01*
X56606Y21279D01*
X56671Y21329D01*
X56721Y21394D01*
X56752Y21469D01*
X56763Y21550D01*
X56752Y21631D01*
X56721Y21706D01*
X56671Y21771D01*
X56606Y21821D01*
X56531Y21852D01*
X56450Y21863D01*
X56369Y21852D01*
X56294Y21821D01*
X56283Y21812D01*
X56062D01*
Y26825D01*
X56177Y26940D01*
X56177Y26940D01*
X56218Y26994D01*
X56245Y27057D01*
X56249Y27088D01*
X57269D01*
Y27236D01*
X58104D01*
Y27114D01*
X58393D01*
X58809Y26699D01*
X58879Y26652D01*
X58961Y26636D01*
X59518D01*
X60086Y26068D01*
Y24944D01*
X60102Y24862D01*
X60143Y24801D01*
X60005Y24664D01*
X59500D01*
X59471Y24658D01*
X59310D01*
X59265Y24649D01*
X59227Y24624D01*
X59201Y24586D01*
X59192Y24541D01*
X59201Y24496D01*
X59227Y24458D01*
Y24427D01*
X59201Y24389D01*
X59192Y24344D01*
X59201Y24299D01*
X59227Y24261D01*
Y24230D01*
X59201Y24192D01*
X59192Y24147D01*
X59201Y24102D01*
X59227Y24064D01*
Y24033D01*
X59201Y23995D01*
X59192Y23950D01*
X59201Y23905D01*
X59227Y23867D01*
X59265Y23842D01*
X59310Y23833D01*
X59700D01*
X59726Y23838D01*
X59804D01*
X60354Y23288D01*
X60346Y23250D01*
X60362Y23172D01*
X60406Y23106D01*
X60472Y23062D01*
X60550Y23046D01*
X60628Y23062D01*
X60694Y23106D01*
X60738Y23172D01*
X60754Y23250D01*
X60738Y23328D01*
X60694Y23394D01*
X60669Y23411D01*
X60688Y23458D01*
X60750Y23446D01*
X60828Y23462D01*
X60894Y23506D01*
X60938Y23572D01*
X60954Y23650D01*
X60938Y23728D01*
X60894Y23794D01*
X60828Y23838D01*
X60750Y23854D01*
X60672Y23838D01*
X60606Y23794D01*
X60568Y23790D01*
X60404Y23954D01*
X60429Y24000D01*
X60450Y23996D01*
X60528Y24012D01*
X60594Y24056D01*
X60638Y24122D01*
X60654Y24200D01*
X60652Y24208D01*
X60795Y24350D01*
X61600D01*
Y20495D01*
X61139Y20033D01*
X61089Y20054D01*
Y20567D01*
X60908D01*
X60894Y20570D01*
X60786D01*
X60080Y21276D01*
Y21563D01*
X59620D01*
Y21125D01*
X59841D01*
X60348Y20618D01*
X60349Y20609D01*
X60315Y20567D01*
X60296Y20567D01*
X60011D01*
Y20409D01*
X59435D01*
X59435Y20409D01*
X59392Y20400D01*
X59380Y20393D01*
X59330Y20419D01*
Y20665D01*
X59212D01*
Y21068D01*
X59319D01*
Y21503D01*
X58961D01*
X58941Y21549D01*
X59090Y21697D01*
X59316D01*
Y22132D01*
X58990D01*
X58809Y22313D01*
Y22609D01*
X58824Y22621D01*
X58859Y22640D01*
X58894Y22633D01*
X58939Y22642D01*
X58977Y22667D01*
X59008D01*
X59046Y22642D01*
X59091Y22633D01*
X59136Y22642D01*
X59174Y22667D01*
X59188Y22688D01*
X59303D01*
X59738Y22254D01*
Y22156D01*
X59620D01*
Y21718D01*
X59866D01*
X59879Y21705D01*
X59879Y21705D01*
X59916Y21681D01*
X59959Y21672D01*
X59959Y21672D01*
X60169D01*
X61104Y20738D01*
X61096Y20700D01*
X61112Y20622D01*
X61156Y20556D01*
X61222Y20512D01*
X61300Y20496D01*
X61378Y20512D01*
X61444Y20556D01*
X61488Y20622D01*
X61504Y20700D01*
X61488Y20778D01*
X61444Y20844D01*
X61378Y20888D01*
X61300Y20904D01*
X61262Y20896D01*
X60295Y21864D01*
X60259Y21888D01*
X60216Y21897D01*
X60216Y21897D01*
X60080D01*
Y22156D01*
X59962D01*
Y22300D01*
X59962Y22300D01*
X59954Y22343D01*
X59929Y22379D01*
X59929Y22379D01*
X59429Y22880D01*
X59392Y22904D01*
X59350Y22913D01*
X59350Y22913D01*
X59208D01*
Y23140D01*
X59199Y23185D01*
X59174Y23223D01*
X59136Y23249D01*
X59091Y23258D01*
X59046Y23249D01*
X59008Y23223D01*
X58977D01*
X58939Y23249D01*
X58894Y23258D01*
X58849Y23249D01*
X58811Y23223D01*
X58780D01*
X58742Y23249D01*
X58697Y23258D01*
X58652Y23249D01*
X58614Y23223D01*
X58583D01*
X58545Y23249D01*
X58500Y23258D01*
X58455Y23249D01*
X58417Y23223D01*
X58386D01*
X58348Y23249D01*
X58303Y23258D01*
X58258Y23249D01*
X58220Y23223D01*
X58189D01*
X58151Y23249D01*
X58106Y23258D01*
X58061Y23249D01*
X58023Y23223D01*
X57992D01*
X57954Y23249D01*
X57909Y23258D01*
X57864Y23249D01*
X57826Y23223D01*
X57801Y23185D01*
X57792Y23140D01*
Y22750D01*
X57801Y22706D01*
X57826Y22667D01*
X57864Y22642D01*
X57909Y22633D01*
X57954Y22642D01*
X57992Y22667D01*
X58023D01*
X58041Y22655D01*
X58053Y22597D01*
X57612Y22156D01*
X57270D01*
Y21836D01*
X56771Y21337D01*
X56746Y21301D01*
X56738Y21258D01*
X56738Y21258D01*
Y20250D01*
X56738Y20250D01*
X56746Y20207D01*
X56771Y20171D01*
X56994Y19947D01*
X56994Y19947D01*
X57011Y19936D01*
X56996Y19886D01*
X55973D01*
X55510Y20349D01*
X55529Y20395D01*
X56311D01*
Y20076D01*
X56641D01*
Y20617D01*
X56432D01*
X56421Y20620D01*
X56421Y20620D01*
X55489D01*
X53329Y22779D01*
X53293Y22804D01*
X53250Y22812D01*
X53250Y22812D01*
X46296D01*
X45460Y23648D01*
X45480Y23694D01*
X47047D01*
X47328Y23413D01*
X47299Y23344D01*
X47287Y23250D01*
X47299Y23156D01*
X47336Y23068D01*
X47393Y22993D01*
X47468Y22936D01*
X47556Y22899D01*
X47650Y22887D01*
X47744Y22899D01*
X47832Y22936D01*
X47907Y22993D01*
X47964Y23068D01*
X48001Y23156D01*
X48013Y23250D01*
X48001Y23344D01*
X47964Y23432D01*
X47907Y23507D01*
X47832Y23564D01*
X47744Y23601D01*
X47650Y23613D01*
X47556Y23601D01*
X47487Y23572D01*
X47173Y23886D01*
X47136Y23910D01*
X47093Y23919D01*
X47093Y23919D01*
X41390D01*
X39193Y26116D01*
X39214Y26166D01*
X39397D01*
Y26091D01*
X39397Y26091D01*
X39405Y26048D01*
X39429Y26012D01*
X40971Y24471D01*
X40971Y24471D01*
X41007Y24446D01*
X41050Y24438D01*
X41050Y24438D01*
X46975D01*
X46975Y24438D01*
X47018Y24446D01*
X47054Y24471D01*
X47487Y24903D01*
X47556Y24874D01*
X47650Y24862D01*
X47744Y24874D01*
X47832Y24911D01*
X47907Y24968D01*
X47964Y25043D01*
X48001Y25131D01*
X48013Y25225D01*
X48001Y25319D01*
X47964Y25407D01*
X47907Y25482D01*
X47832Y25539D01*
X47744Y25576D01*
X47650Y25588D01*
X47556Y25576D01*
X47468Y25539D01*
X47393Y25482D01*
X47336Y25407D01*
X47299Y25319D01*
X47287Y25225D01*
X47299Y25131D01*
X47328Y25062D01*
X46929Y24662D01*
X41096D01*
X39642Y26117D01*
X39664Y26166D01*
X39849D01*
X39896Y26153D01*
X39904Y26110D01*
X39928Y26073D01*
X40931Y25071D01*
X40931Y25071D01*
X40968Y25046D01*
X41010Y25038D01*
X41010Y25038D01*
X45600D01*
X45600Y25038D01*
X45643Y25046D01*
X45679Y25071D01*
X47487Y26878D01*
X47556Y26849D01*
X47650Y26837D01*
X47744Y26849D01*
X47832Y26886D01*
X47907Y26943D01*
X47964Y27018D01*
X48001Y27106D01*
X48013Y27200D01*
X48001Y27294D01*
X47964Y27382D01*
X47907Y27457D01*
X47832Y27514D01*
X47744Y27551D01*
X47650Y27563D01*
X47556Y27551D01*
X47468Y27514D01*
X47393Y27457D01*
X47336Y27382D01*
X47299Y27294D01*
X47287Y27200D01*
X47299Y27106D01*
X47328Y27037D01*
X45554Y25262D01*
X41057D01*
X40200Y26119D01*
X40219Y26166D01*
X40397D01*
Y26091D01*
X40397Y26091D01*
X40405Y26048D01*
X40429Y26012D01*
X41021Y25421D01*
X41057Y25396D01*
X41100Y25388D01*
X41100Y25388D01*
X43975D01*
X43975Y25388D01*
X44018Y25396D01*
X44054Y25421D01*
X47487Y28853D01*
X47556Y28824D01*
X47650Y28812D01*
X47744Y28824D01*
X47832Y28861D01*
X47907Y28918D01*
X47964Y28993D01*
X48001Y29081D01*
X48013Y29175D01*
X48001Y29269D01*
X47964Y29357D01*
X47907Y29432D01*
X47832Y29489D01*
X47744Y29526D01*
X47650Y29538D01*
X47556Y29526D01*
X47468Y29489D01*
X47393Y29432D01*
X47336Y29357D01*
X47299Y29269D01*
X47287Y29175D01*
X47299Y29081D01*
X47328Y29012D01*
X43929Y25612D01*
X41146D01*
X40642Y26117D01*
X40664Y26166D01*
X40897D01*
Y26091D01*
X40897Y26091D01*
X40905Y26048D01*
X40929Y26012D01*
X41171Y25771D01*
X41171Y25771D01*
X41207Y25746D01*
X41250Y25738D01*
X42350D01*
X42350Y25738D01*
X42393Y25746D01*
X42429Y25771D01*
X47487Y30828D01*
X47556Y30799D01*
X47650Y30787D01*
X47744Y30799D01*
X47832Y30836D01*
X47907Y30893D01*
X47964Y30968D01*
X48001Y31056D01*
X48013Y31150D01*
X48001Y31244D01*
X47964Y31332D01*
X47907Y31407D01*
X47832Y31464D01*
X47744Y31501D01*
X47650Y31513D01*
D02*
G37*
G36*
X67305Y30367D02*
X66695D01*
X66540Y30212D01*
Y29902D01*
X66695Y29747D01*
X67305D01*
X67460Y29902D01*
Y30212D01*
X67305Y30367D01*
D02*
G37*
G36*
X46650Y29538D02*
X46556Y29526D01*
X46468Y29489D01*
X46393Y29432D01*
X46336Y29357D01*
X46299Y29269D01*
X46287Y29175D01*
X46299Y29081D01*
X46336Y28993D01*
X46393Y28918D01*
X46468Y28861D01*
X46556Y28824D01*
X46650Y28812D01*
X46744Y28824D01*
X46832Y28861D01*
X46907Y28918D01*
X46964Y28993D01*
X47001Y29081D01*
X47013Y29175D01*
X47001Y29269D01*
X46964Y29357D01*
X46907Y29432D01*
X46832Y29489D01*
X46744Y29526D01*
X46650Y29538D01*
D02*
G37*
G36*
Y27563D02*
X46556Y27551D01*
X46468Y27514D01*
X46393Y27457D01*
X46336Y27382D01*
X46299Y27294D01*
X46287Y27200D01*
X46299Y27106D01*
X46336Y27018D01*
X46393Y26943D01*
X46468Y26886D01*
X46556Y26849D01*
X46650Y26837D01*
X46744Y26849D01*
X46832Y26886D01*
X46907Y26943D01*
X46964Y27018D01*
X47001Y27106D01*
X47013Y27200D01*
X47001Y27294D01*
X46964Y27382D01*
X46907Y27457D01*
X46832Y27514D01*
X46744Y27551D01*
X46650Y27563D01*
D02*
G37*
G36*
X59637Y26092D02*
X59163D01*
Y25657D01*
X59186D01*
Y25356D01*
X59096Y25266D01*
X59091Y25267D01*
X59046Y25258D01*
X59008Y25233D01*
X58977D01*
X58939Y25258D01*
X58894Y25267D01*
X58849Y25258D01*
X58811Y25233D01*
X58780D01*
X58742Y25258D01*
X58697Y25267D01*
X58652Y25258D01*
X58614Y25233D01*
X58583D01*
X58545Y25258D01*
X58500Y25267D01*
X58455Y25258D01*
X58417Y25233D01*
X58386D01*
X58348Y25258D01*
X58303Y25267D01*
X58258Y25258D01*
X58220Y25233D01*
X58189D01*
X58151Y25258D01*
X58106Y25267D01*
X58061Y25258D01*
X58023Y25233D01*
X57992D01*
X57954Y25258D01*
X57909Y25267D01*
X57864Y25258D01*
X57826Y25233D01*
X57801Y25195D01*
X57792Y25150D01*
Y24760D01*
X57801Y24715D01*
X57826Y24677D01*
X57864Y24651D01*
X57909Y24643D01*
X57954Y24651D01*
X57992Y24677D01*
X58023D01*
X58061Y24651D01*
X58106Y24643D01*
X58151Y24651D01*
X58189Y24677D01*
X58220D01*
X58258Y24651D01*
X58303Y24643D01*
X58348Y24651D01*
X58386Y24677D01*
X58417D01*
X58455Y24651D01*
X58500Y24643D01*
X58545Y24651D01*
X58583Y24677D01*
X58614D01*
X58652Y24651D01*
X58697Y24643D01*
X58742Y24651D01*
X58780Y24677D01*
X58811D01*
X58849Y24651D01*
X58894Y24643D01*
X58939Y24651D01*
X58977Y24677D01*
X59008D01*
X59046Y24651D01*
X59091Y24643D01*
X59136Y24651D01*
X59174Y24677D01*
X59199Y24715D01*
X59208Y24760D01*
Y24845D01*
X59270Y24857D01*
X59339Y24903D01*
X59551Y25116D01*
X59598Y25185D01*
X59614Y25267D01*
Y25657D01*
X59637D01*
Y26092D01*
D02*
G37*
G36*
X46650Y25588D02*
X46556Y25576D01*
X46468Y25539D01*
X46393Y25482D01*
X46336Y25407D01*
X46299Y25319D01*
X46287Y25225D01*
X46299Y25131D01*
X46336Y25043D01*
X46393Y24968D01*
X46468Y24911D01*
X46556Y24874D01*
X46650Y24862D01*
X46744Y24874D01*
X46832Y24911D01*
X46907Y24968D01*
X46964Y25043D01*
X47001Y25131D01*
X47013Y25225D01*
X47001Y25319D01*
X46964Y25407D01*
X46907Y25482D01*
X46832Y25539D01*
X46744Y25576D01*
X46650Y25588D01*
D02*
G37*
G36*
X59700Y23673D02*
X59310D01*
X59265Y23664D01*
X59227Y23639D01*
X59201Y23601D01*
X59192Y23556D01*
X59201Y23511D01*
X59227Y23473D01*
Y23442D01*
X59201Y23404D01*
X59192Y23359D01*
X59201Y23314D01*
X59227Y23276D01*
X59265Y23251D01*
X59310Y23242D01*
X59700D01*
X59745Y23251D01*
X59783Y23276D01*
X59808Y23314D01*
X59817Y23359D01*
X59808Y23404D01*
X59783Y23442D01*
Y23473D01*
X59808Y23511D01*
X59817Y23556D01*
X59808Y23601D01*
X59783Y23639D01*
X59745Y23664D01*
X59700Y23673D01*
D02*
G37*
G36*
X57690Y24658D02*
X57300D01*
X57255Y24649D01*
X57217Y24624D01*
X57192Y24586D01*
X57183Y24541D01*
X57192Y24496D01*
X57217Y24458D01*
Y24427D01*
X57192Y24389D01*
X57183Y24344D01*
X57192Y24299D01*
X57217Y24261D01*
Y24230D01*
X57192Y24192D01*
X57183Y24147D01*
X57192Y24102D01*
X57217Y24064D01*
Y24033D01*
X57192Y23995D01*
X57183Y23950D01*
X57192Y23905D01*
X57217Y23867D01*
Y23836D01*
X57192Y23798D01*
X57183Y23753D01*
X57192Y23708D01*
X57217Y23670D01*
Y23639D01*
X57192Y23601D01*
X57183Y23556D01*
X57192Y23511D01*
X57217Y23473D01*
Y23442D01*
X57192Y23404D01*
X57183Y23359D01*
X57192Y23314D01*
X57217Y23276D01*
X57255Y23251D01*
X57300Y23242D01*
X57690D01*
X57735Y23251D01*
X57773Y23276D01*
X57799Y23314D01*
X57807Y23359D01*
X57799Y23404D01*
X57773Y23442D01*
Y23473D01*
X57799Y23511D01*
X57807Y23556D01*
X57799Y23601D01*
X57773Y23639D01*
Y23670D01*
X57799Y23708D01*
X57807Y23753D01*
X57799Y23798D01*
X57773Y23836D01*
Y23867D01*
X57799Y23905D01*
X57807Y23950D01*
X57799Y23995D01*
X57773Y24033D01*
Y24064D01*
X57799Y24102D01*
X57807Y24147D01*
X57799Y24192D01*
X57773Y24230D01*
Y24261D01*
X57799Y24299D01*
X57807Y24344D01*
X57799Y24389D01*
X57773Y24427D01*
Y24458D01*
X57799Y24496D01*
X57807Y24541D01*
X57799Y24586D01*
X57773Y24624D01*
X57735Y24649D01*
X57690Y24658D01*
D02*
G37*
G36*
X46650Y23613D02*
X46556Y23601D01*
X46468Y23564D01*
X46393Y23507D01*
X46336Y23432D01*
X46299Y23344D01*
X46287Y23250D01*
X46299Y23156D01*
X46336Y23068D01*
X46393Y22993D01*
X46468Y22936D01*
X46556Y22899D01*
X46650Y22887D01*
X46744Y22899D01*
X46832Y22936D01*
X46907Y22993D01*
X46964Y23068D01*
X47001Y23156D01*
X47013Y23250D01*
X47001Y23344D01*
X46964Y23432D01*
X46907Y23507D01*
X46832Y23564D01*
X46744Y23601D01*
X46650Y23613D01*
D02*
G37*
G36*
X67769Y21730D02*
X67331D01*
Y21270D01*
X67769D01*
Y21386D01*
X68268D01*
Y21281D01*
X68703D01*
Y21716D01*
X68268D01*
Y21611D01*
X67769D01*
Y21730D01*
D02*
G37*
G36*
X43274Y20915D02*
X43126D01*
X43120Y20912D01*
X43113Y20914D01*
X42969Y20885D01*
X42963Y20881D01*
X42956D01*
X42820Y20825D01*
X42815Y20820D01*
X42809Y20819D01*
X42686Y20737D01*
X42682Y20731D01*
X42676Y20728D01*
X42572Y20624D01*
X42569Y20618D01*
X42563Y20614D01*
X42481Y20491D01*
X42480Y20485D01*
X42475Y20480D01*
X42419Y20344D01*
Y20337D01*
X42415Y20331D01*
X42386Y20187D01*
X42388Y20180D01*
X42385Y20174D01*
Y20026D01*
X42388Y20020D01*
X42386Y20013D01*
X42415Y19869D01*
X42419Y19863D01*
Y19856D01*
X42475Y19720D01*
X42480Y19715D01*
X42481Y19709D01*
X42563Y19586D01*
X42569Y19582D01*
X42572Y19576D01*
X42676Y19472D01*
X42682Y19469D01*
X42686Y19463D01*
X42809Y19381D01*
X42815Y19380D01*
X42820Y19375D01*
X42956Y19319D01*
X42963D01*
X42969Y19315D01*
X43113Y19286D01*
X43120Y19288D01*
X43126Y19285D01*
X43274D01*
X43280Y19288D01*
X43287Y19286D01*
X43431Y19315D01*
X43437Y19319D01*
X43444D01*
X43580Y19375D01*
X43585Y19380D01*
X43591Y19381D01*
X43714Y19463D01*
X43718Y19469D01*
X43724Y19472D01*
X43828Y19576D01*
X43831Y19582D01*
X43837Y19586D01*
X43919Y19709D01*
X43920Y19715D01*
X43925Y19720D01*
X43981Y19856D01*
Y19863D01*
X43985Y19869D01*
X44014Y20013D01*
X44012Y20020D01*
X44015Y20026D01*
Y20174D01*
X44012Y20180D01*
X44014Y20187D01*
X43985Y20331D01*
X43981Y20337D01*
Y20344D01*
X43925Y20480D01*
X43920Y20485D01*
X43919Y20491D01*
X43837Y20614D01*
X43831Y20618D01*
X43828Y20624D01*
X43724Y20728D01*
X43718Y20731D01*
X43714Y20737D01*
X43591Y20819D01*
X43585Y20820D01*
X43580Y20825D01*
X43444Y20881D01*
X43437D01*
X43431Y20885D01*
X43287Y20914D01*
X43280Y20912D01*
X43274Y20915D01*
D02*
G37*
G36*
X64274Y20915D02*
X64126D01*
X64120Y20912D01*
X64113Y20914D01*
X63969Y20885D01*
X63963Y20881D01*
X63956D01*
X63820Y20825D01*
X63815Y20820D01*
X63809Y20819D01*
X63686Y20737D01*
X63682Y20731D01*
X63676Y20728D01*
X63572Y20624D01*
X63569Y20618D01*
X63563Y20614D01*
X63481Y20491D01*
X63480Y20485D01*
X63475Y20480D01*
X63419Y20344D01*
Y20337D01*
X63415Y20331D01*
X63386Y20187D01*
X63388Y20180D01*
X63385Y20174D01*
Y20026D01*
X63388Y20020D01*
X63386Y20013D01*
X63415Y19869D01*
X63419Y19863D01*
Y19856D01*
X63475Y19720D01*
X63480Y19715D01*
X63481Y19709D01*
X63563Y19586D01*
X63569Y19582D01*
X63572Y19576D01*
X63676Y19472D01*
X63682Y19469D01*
X63686Y19463D01*
X63809Y19381D01*
X63815Y19380D01*
X63820Y19375D01*
X63956Y19319D01*
X63963D01*
X63969Y19315D01*
X64113Y19286D01*
X64120Y19288D01*
X64126Y19285D01*
X64274D01*
X64280Y19288D01*
X64287Y19286D01*
X64431Y19315D01*
X64437Y19319D01*
X64444D01*
X64580Y19375D01*
X64585Y19380D01*
X64591Y19381D01*
X64714Y19463D01*
X64718Y19469D01*
X64724Y19472D01*
X64828Y19576D01*
X64831Y19582D01*
X64837Y19586D01*
X64919Y19709D01*
X64920Y19715D01*
X64925Y19720D01*
X64981Y19856D01*
Y19863D01*
X64985Y19869D01*
X65014Y20013D01*
X65012Y20020D01*
X65015Y20026D01*
Y20174D01*
X65012Y20180D01*
X65014Y20187D01*
X64985Y20331D01*
X64981Y20337D01*
Y20344D01*
X64925Y20480D01*
X64920Y20485D01*
X64919Y20491D01*
X64837Y20614D01*
X64831Y20618D01*
X64828Y20624D01*
X64724Y20728D01*
X64718Y20731D01*
X64714Y20737D01*
X64591Y20819D01*
X64585Y20820D01*
X64580Y20825D01*
X64444Y20881D01*
X64437D01*
X64431Y20885D01*
X64287Y20914D01*
X64280Y20912D01*
X64274Y20915D01*
D02*
G37*
G36*
X51974D02*
X51826D01*
X51820Y20912D01*
X51813Y20914D01*
X51669Y20885D01*
X51663Y20881D01*
X51656D01*
X51520Y20825D01*
X51515Y20820D01*
X51509Y20819D01*
X51386Y20737D01*
X51382Y20731D01*
X51376Y20728D01*
X51272Y20624D01*
X51269Y20618D01*
X51263Y20614D01*
X51181Y20491D01*
X51180Y20485D01*
X51175Y20480D01*
X51119Y20344D01*
Y20337D01*
X51115Y20331D01*
X51086Y20187D01*
X51088Y20180D01*
X51085Y20174D01*
Y20026D01*
X51088Y20020D01*
X51086Y20013D01*
X51115Y19869D01*
X51119Y19863D01*
Y19856D01*
X51175Y19720D01*
X51180Y19715D01*
X51181Y19709D01*
X51263Y19586D01*
X51269Y19582D01*
X51272Y19576D01*
X51376Y19472D01*
X51382Y19469D01*
X51386Y19463D01*
X51509Y19381D01*
X51515Y19380D01*
X51520Y19375D01*
X51656Y19319D01*
X51663D01*
X51669Y19315D01*
X51813Y19286D01*
X51820Y19288D01*
X51826Y19285D01*
X51974D01*
X51980Y19288D01*
X51987Y19286D01*
X52131Y19315D01*
X52137Y19319D01*
X52144D01*
X52280Y19375D01*
X52285Y19380D01*
X52291Y19381D01*
X52414Y19463D01*
X52418Y19469D01*
X52424Y19472D01*
X52528Y19576D01*
X52531Y19582D01*
X52537Y19586D01*
X52619Y19709D01*
X52620Y19715D01*
X52625Y19720D01*
X52681Y19856D01*
Y19863D01*
X52685Y19869D01*
X52714Y20013D01*
X52712Y20020D01*
X52715Y20026D01*
Y20174D01*
X52712Y20180D01*
X52714Y20187D01*
X52685Y20331D01*
X52681Y20337D01*
Y20344D01*
X52625Y20480D01*
X52620Y20485D01*
X52619Y20491D01*
X52537Y20614D01*
X52531Y20618D01*
X52528Y20624D01*
X52424Y20728D01*
X52418Y20731D01*
X52414Y20737D01*
X52291Y20819D01*
X52285Y20820D01*
X52280Y20825D01*
X52144Y20881D01*
X52137D01*
X52131Y20885D01*
X51987Y20914D01*
X51980Y20912D01*
X51974Y20915D01*
D02*
G37*
G36*
X36280Y23272D02*
X35820D01*
Y22835D01*
X36110D01*
X36838Y22107D01*
Y20241D01*
X36838Y20241D01*
X36846Y20198D01*
X36871Y20162D01*
X37262Y19770D01*
Y19390D01*
X38082D01*
Y19910D01*
X37440D01*
X37062Y20287D01*
Y22153D01*
X37054Y22196D01*
X37029Y22233D01*
X37029Y22233D01*
X36280Y22982D01*
Y23272D01*
D02*
G37*
%LPD*%
G36*
X39938Y45804D02*
Y40846D01*
X39728Y40637D01*
X39682Y40656D01*
Y43285D01*
X39880D01*
Y43722D01*
X39420D01*
Y43285D01*
X39458D01*
Y42495D01*
X39408Y42468D01*
X39378Y42488D01*
X39300Y42504D01*
X39222Y42488D01*
X39156Y42444D01*
X39112Y42378D01*
X39096Y42300D01*
X39112Y42222D01*
X39156Y42156D01*
X39188Y42134D01*
Y33801D01*
X39152Y33766D01*
X39132D01*
X39094Y33766D01*
X38812D01*
Y38634D01*
X38844Y38656D01*
X38888Y38722D01*
X38904Y38800D01*
X38888Y38878D01*
X38844Y38944D01*
X38778Y38988D01*
X38700Y39004D01*
X38622Y38988D01*
X38556Y38944D01*
X38512Y38878D01*
X38496Y38800D01*
X38512Y38722D01*
X38556Y38656D01*
X38588Y38634D01*
Y34610D01*
X38538Y34595D01*
X38526Y34613D01*
X38460Y34657D01*
X38382Y34672D01*
X38303Y34657D01*
X38237Y34613D01*
X38193Y34547D01*
X38178Y34469D01*
X38193Y34390D01*
X38237Y34324D01*
X38269Y34303D01*
Y33801D01*
X38234Y33766D01*
X38131Y33766D01*
X38094Y33766D01*
X37669D01*
X37631Y33766D01*
X37594Y33766D01*
X37494D01*
Y40416D01*
X37526Y40437D01*
X37570Y40503D01*
X37585Y40581D01*
X37570Y40660D01*
X37526Y40726D01*
X37460Y40770D01*
X37381Y40785D01*
X37303Y40770D01*
X37288Y40759D01*
X37244Y40783D01*
Y41318D01*
X37235Y41361D01*
X37211Y41398D01*
X37211Y41398D01*
X35392Y43216D01*
Y43747D01*
X35438Y43766D01*
X35507Y43698D01*
X35507Y43698D01*
X35540Y43675D01*
Y43650D01*
X36660D01*
Y43861D01*
X36710Y43881D01*
X36754Y43838D01*
X36746Y43800D01*
X36762Y43722D01*
X36806Y43656D01*
X36872Y43612D01*
X36950Y43596D01*
X37028Y43612D01*
X37094Y43656D01*
X37138Y43722D01*
X37154Y43800D01*
X37138Y43878D01*
X37094Y43944D01*
X37028Y43988D01*
X36950Y44004D01*
X36912Y43996D01*
X36789Y44119D01*
X36753Y44144D01*
X36710Y44152D01*
X36710Y44152D01*
X36660D01*
Y44212D01*
X36951D01*
X36956Y44206D01*
X37022Y44162D01*
X37100Y44146D01*
X37178Y44162D01*
X37244Y44206D01*
X37288Y44272D01*
X37304Y44350D01*
X37288Y44428D01*
X37244Y44494D01*
X37178Y44538D01*
X37100Y44554D01*
X37022Y44538D01*
X36956Y44494D01*
X36951Y44488D01*
X36660D01*
Y44770D01*
X35540D01*
Y44465D01*
X35507Y44442D01*
X35507Y44442D01*
X35438Y44374D01*
X35392Y44393D01*
Y45358D01*
X35540D01*
Y45050D01*
X36660D01*
Y45056D01*
X36666Y45104D01*
X36709Y45112D01*
X36745Y45137D01*
X37529Y45921D01*
X37529Y45921D01*
X37554Y45957D01*
X37562Y46000D01*
X37562Y46000D01*
Y46704D01*
X37946Y47088D01*
X38654D01*
X39938Y45804D01*
D02*
G37*
G36*
X35804Y42038D02*
X35796Y42000D01*
X35812Y41922D01*
X35856Y41856D01*
X35922Y41812D01*
X36000Y41796D01*
X36078Y41812D01*
X36144Y41856D01*
X36188Y41922D01*
X36204Y42000D01*
X36200Y42021D01*
X36246Y42046D01*
X37019Y41272D01*
Y40058D01*
X37008Y40050D01*
X36969Y40039D01*
X34912Y42096D01*
Y42314D01*
X34958Y42333D01*
X35854Y41438D01*
X35846Y41400D01*
X35862Y41322D01*
X35906Y41256D01*
X35972Y41212D01*
X36050Y41196D01*
X36128Y41212D01*
X36194Y41256D01*
X36238Y41322D01*
X36254Y41400D01*
X36238Y41478D01*
X36194Y41544D01*
X36128Y41588D01*
X36050Y41604D01*
X36012Y41596D01*
X35072Y42536D01*
Y42704D01*
X35118Y42723D01*
X35804Y42038D01*
D02*
G37*
G36*
X37269Y35250D02*
Y33801D01*
X37234Y33766D01*
X37132Y33766D01*
X37094Y33766D01*
X36669D01*
X36632Y33766D01*
X36594Y33766D01*
X36169D01*
X36131Y33766D01*
X36094Y33766D01*
X36012D01*
Y34054D01*
X37211Y35252D01*
X37219Y35265D01*
X37269Y35250D01*
D02*
G37*
%LPC*%
G36*
X38203Y47009D02*
X38123Y46999D01*
X38047Y46967D01*
X37982Y46918D01*
X37933Y46853D01*
X37901Y46777D01*
X37891Y46697D01*
X37901Y46616D01*
X37933Y46540D01*
X37982Y46475D01*
X37989Y46470D01*
Y46330D01*
X37985D01*
Y45870D01*
X38422D01*
Y46330D01*
X38418D01*
Y46470D01*
X38425Y46475D01*
X38474Y46540D01*
X38505Y46616D01*
X38516Y46697D01*
X38505Y46777D01*
X38474Y46853D01*
X38425Y46918D01*
X38360Y46967D01*
X38284Y46999D01*
X38203Y47009D01*
D02*
G37*
G36*
X39015Y46330D02*
X38578D01*
Y45870D01*
X38684D01*
Y45380D01*
X38684Y45380D01*
X38693Y45337D01*
X38709Y45313D01*
Y44926D01*
X38918D01*
X38929Y44924D01*
X38929Y44924D01*
X38973D01*
X39531Y44365D01*
X39522Y44315D01*
X39420D01*
Y43878D01*
X39880D01*
Y44315D01*
X39762D01*
Y44405D01*
X39762Y44405D01*
X39754Y44448D01*
X39729Y44485D01*
X39729Y44485D01*
X39098Y45115D01*
X39062Y45140D01*
X39039Y45144D01*
Y45467D01*
X38909D01*
Y45870D01*
X39015D01*
Y46330D01*
D02*
G37*
G36*
X38422Y43730D02*
X37985D01*
Y43704D01*
X37941Y43680D01*
X37928Y43688D01*
X37850Y43704D01*
X37772Y43688D01*
X37706Y43644D01*
X37662Y43578D01*
X37646Y43500D01*
X37662Y43422D01*
X37706Y43356D01*
X37772Y43312D01*
X37850Y43296D01*
X37928Y43312D01*
X37941Y43320D01*
X37985Y43296D01*
Y43270D01*
X38422D01*
Y43730D01*
D02*
G37*
G36*
X38665Y44574D02*
X38335D01*
Y44032D01*
X38506D01*
X38684Y43854D01*
Y43730D01*
X38578D01*
Y43270D01*
X39015D01*
Y43730D01*
X38909D01*
Y43901D01*
X38909Y43901D01*
X38900Y43944D01*
X38876Y43980D01*
X38665Y44191D01*
Y44574D01*
D02*
G37*
%LPD*%
G36*
X59700Y33970D02*
X59539D01*
X59457Y33953D01*
X59388Y33907D01*
X59249Y33768D01*
X59202Y33698D01*
X59186Y33616D01*
X59202Y33534D01*
X59249Y33465D01*
X59318Y33418D01*
X59400Y33402D01*
X59482Y33418D01*
X59551Y33465D01*
X59628Y33541D01*
X59700D01*
Y33050D01*
X59700Y32950D01*
X59700Y32900D01*
X58634D01*
X58587Y32907D01*
X58587Y32950D01*
Y33342D01*
X58113D01*
X58113Y32907D01*
X58066Y32900D01*
X56733D01*
X56564Y33069D01*
Y33380D01*
X56548Y33462D01*
X56501Y33531D01*
X56432Y33578D01*
X56350Y33594D01*
X56050D01*
Y35900D01*
X59700D01*
Y33970D01*
D02*
G37*
G36*
X67268Y26456D02*
X67252Y26432D01*
X67236Y26350D01*
X67252Y26268D01*
X67299Y26199D01*
X67300Y26198D01*
X67285Y26148D01*
X66890D01*
Y26088D01*
X66549D01*
X66544Y26094D01*
X66478Y26138D01*
X66400Y26154D01*
X66322Y26138D01*
X66256Y26094D01*
X66212Y26028D01*
X66196Y25950D01*
X66212Y25872D01*
X66256Y25806D01*
X66294Y25780D01*
Y25720D01*
X66256Y25694D01*
X66212Y25628D01*
X66196Y25550D01*
X66212Y25472D01*
X66256Y25406D01*
X66322Y25362D01*
X66400Y25346D01*
X66478Y25362D01*
X66544Y25406D01*
X66549Y25412D01*
X66890D01*
Y25352D01*
X67285D01*
X67300Y25302D01*
X67299Y25301D01*
X67252Y25232D01*
X67236Y25150D01*
X67252Y25068D01*
X67299Y24999D01*
X67368Y24952D01*
X67372Y24951D01*
X67367Y24901D01*
X66890D01*
Y24650D01*
X64918D01*
X64778Y24790D01*
Y24902D01*
X64767Y24955D01*
X64737Y24999D01*
X64693Y25029D01*
X64657Y25036D01*
X64638Y25082D01*
X64637Y25087D01*
X64920Y25370D01*
X65098D01*
Y25698D01*
X65100Y25700D01*
X65217Y25751D01*
X65279D01*
X65329Y25761D01*
X65372Y25789D01*
X65399Y25829D01*
X66950Y26500D01*
X67245D01*
X67268Y26456D01*
D02*
G37*
G36*
X67200Y27750D02*
X65300Y25850D01*
X64850D01*
Y26100D01*
X64743Y26207D01*
Y26243D01*
X64707D01*
X64600Y26350D01*
X64550D01*
Y26750D01*
X65000Y27200D01*
Y29450D01*
X67200D01*
Y27750D01*
D02*
G37*
G36*
X68394Y26123D02*
X68398Y26093D01*
X68429Y26018D01*
X68479Y25953D01*
X68486Y25948D01*
Y25626D01*
X68479Y25621D01*
X68429Y25556D01*
X68398Y25481D01*
X68393Y25446D01*
X68311Y25364D01*
X68010D01*
Y25748D01*
X68010D01*
Y25752D01*
X68010D01*
Y26136D01*
X68381D01*
X68394Y26123D01*
D02*
G37*
G36*
X38897Y26141D02*
X38905Y26098D01*
X38929Y26062D01*
X41186Y23805D01*
X41167Y23759D01*
X37080D01*
Y23865D01*
X36790D01*
X36612Y24043D01*
Y25028D01*
X36654Y25070D01*
X36700Y25050D01*
Y24681D01*
X36738D01*
X36764Y24631D01*
X36742Y24598D01*
X36726Y24520D01*
X36742Y24442D01*
X36786Y24376D01*
X36852Y24331D01*
X36930Y24316D01*
X37008Y24331D01*
X37074Y24376D01*
X37119Y24442D01*
X37134Y24520D01*
X37119Y24598D01*
X37096Y24631D01*
X37123Y24681D01*
X37160D01*
Y25119D01*
X36769D01*
X36749Y25165D01*
X36859Y25274D01*
X37160D01*
Y25712D01*
X36859D01*
X36691Y25879D01*
X36684Y25884D01*
X36644Y25944D01*
X36578Y25988D01*
X36500Y26004D01*
X36422Y25988D01*
X36356Y25944D01*
X36312Y25878D01*
X36296Y25800D01*
X36312Y25722D01*
X36325Y25702D01*
X36292Y25662D01*
X36183D01*
Y26166D01*
X36594D01*
X36632Y26166D01*
X36669Y26166D01*
X37094D01*
X37132Y26166D01*
X37169Y26166D01*
X37594D01*
X37631Y26166D01*
X37669Y26166D01*
X38094D01*
X38119Y26166D01*
Y26166D01*
X38144D01*
Y26166D01*
X38397D01*
Y25986D01*
X38397Y25986D01*
X38405Y25943D01*
X38429Y25907D01*
X38538Y25798D01*
Y25665D01*
X38420D01*
Y25296D01*
X38374Y25277D01*
X38214Y25437D01*
X38178Y25461D01*
X38135Y25469D01*
X38135Y25469D01*
X38039D01*
Y25682D01*
X37604D01*
Y25247D01*
X37919D01*
X37929Y25245D01*
X37929Y25245D01*
X38088D01*
X38420Y24914D01*
Y24635D01*
X38880D01*
Y25072D01*
X38579D01*
X38469Y25182D01*
X38488Y25228D01*
X38880D01*
Y25665D01*
X38762D01*
Y25845D01*
X38762Y25845D01*
X38754Y25888D01*
X38729Y25924D01*
X38729Y25924D01*
X38621Y26033D01*
Y26125D01*
X38644Y26166D01*
X38671Y26166D01*
X38857D01*
X38897Y26141D01*
D02*
G37*
G36*
X36356Y25656D02*
X36422Y25612D01*
X36500Y25596D01*
X36578Y25612D01*
X36616Y25637D01*
X36700Y25553D01*
Y25433D01*
X36421Y25153D01*
X36396Y25117D01*
X36388Y25074D01*
X36388Y25074D01*
Y23997D01*
X36388Y23997D01*
X36396Y23954D01*
X36421Y23917D01*
X36620Y23718D01*
Y23616D01*
X36574Y23597D01*
X36445Y23726D01*
X36409Y23750D01*
X36366Y23759D01*
X36366Y23759D01*
X36280D01*
Y23865D01*
X35820D01*
Y23759D01*
X35750D01*
X34962Y24546D01*
Y24999D01*
X35171Y25208D01*
X35487D01*
Y25313D01*
X35840D01*
Y25224D01*
X36300D01*
Y25649D01*
X36348Y25667D01*
X36356Y25656D01*
D02*
G37*
G36*
X45261Y23512D02*
X45237Y23462D01*
X37080D01*
Y23534D01*
X45244D01*
X45261Y23512D01*
D02*
G37*
G36*
X58884Y21382D02*
Y21068D01*
X58988D01*
Y20665D01*
X58870D01*
Y20262D01*
X58480D01*
Y20665D01*
X58362D01*
Y21068D01*
X58535D01*
Y21359D01*
X58585Y21386D01*
X58622Y21362D01*
X58700Y21346D01*
X58778Y21362D01*
X58834Y21399D01*
X58884Y21382D01*
D02*
G37*
G36*
X57790Y21456D02*
X57856Y21412D01*
X57934Y21396D01*
X58012Y21412D01*
X58050Y21437D01*
X58100Y21411D01*
Y21068D01*
X58138D01*
Y20665D01*
X58020D01*
Y20254D01*
X58019Y20254D01*
X57983Y20229D01*
X57892Y20138D01*
X57389D01*
Y20617D01*
X57362D01*
Y20982D01*
X57505Y21125D01*
X57730D01*
Y21455D01*
X57780Y21470D01*
X57790Y21456D01*
D02*
G37*
G36*
X58006Y19900D02*
X58020Y19888D01*
Y19635D01*
X58480D01*
Y19716D01*
X58870D01*
Y19635D01*
X59330D01*
Y19716D01*
X60366D01*
X60385Y19674D01*
X60385Y19666D01*
Y19515D01*
X57643D01*
X57306Y19853D01*
X57289Y19864D01*
X57304Y19914D01*
X57938D01*
X57938Y19914D01*
X57970Y19920D01*
X58006Y19900D01*
D02*
G37*
%LPC*%
G36*
X38042Y25053D02*
X37607D01*
Y24618D01*
X37687D01*
Y24523D01*
X37680Y24519D01*
X37636Y24453D01*
X37621Y24375D01*
X37636Y24297D01*
X37680Y24230D01*
X37747Y24186D01*
X37825Y24171D01*
X37903Y24186D01*
X37969Y24230D01*
X38013Y24297D01*
X38029Y24375D01*
X38013Y24453D01*
X37969Y24519D01*
X37962Y24523D01*
Y24618D01*
X38042D01*
Y25053D01*
D02*
G37*
G36*
X36300Y25069D02*
X35840D01*
Y24631D01*
X35933D01*
Y24569D01*
X35926Y24565D01*
X35882Y24498D01*
X35866Y24420D01*
X35882Y24342D01*
X35926Y24276D01*
X35992Y24232D01*
X36070Y24216D01*
X36148Y24232D01*
X36215Y24276D01*
X36259Y24342D01*
X36274Y24420D01*
X36259Y24498D01*
X36215Y24565D01*
X36208Y24569D01*
Y24631D01*
X36300D01*
Y25069D01*
D02*
G37*
%LPD*%
D11*
X35703Y23647D02*
X36050D01*
X36366D01*
X45374Y23350D02*
X46184Y22540D01*
X36662Y23350D02*
X45374D01*
X36366Y23647D02*
X36662Y23350D01*
X46184Y22540D02*
X53160D01*
X55926Y19774D01*
X58301Y22943D02*
X58303Y22945D01*
X57511Y21897D02*
X58301Y22686D01*
Y22943D01*
X61000Y33775D02*
X61025Y33800D01*
X60976Y33751D02*
X61000Y33775D01*
X61025Y33800D02*
X61703D01*
X60976Y32951D02*
Y33751D01*
X37381Y33312D02*
Y40581D01*
X40050Y40800D02*
Y45850D01*
X38700Y47200D02*
X40050Y45850D01*
X39730Y40480D02*
X40050Y40800D01*
X37900Y47200D02*
X38700D01*
X37450Y46000D02*
Y46750D01*
X36100Y45190D02*
X36126Y45216D01*
X36666D01*
X37450Y46000D01*
Y46750D02*
X37900Y47200D01*
X39730Y34420D02*
Y40480D01*
X39890Y34860D02*
Y40414D01*
X42850Y43374D01*
Y44708D01*
X40050Y35150D02*
Y40300D01*
X43800Y44050D02*
Y44608D01*
X40050Y40300D02*
X43800Y44050D01*
X39300Y33394D02*
X39381Y33312D01*
X39300Y33394D02*
Y42300D01*
X39570Y34160D02*
Y43423D01*
X39650Y43503D01*
X39890Y34860D02*
X40400Y34350D01*
X39570Y34160D02*
X39881Y33848D01*
X40050Y35150D02*
X40800Y34400D01*
X39730Y34420D02*
X40300Y33850D01*
X39881Y33312D02*
Y33848D01*
X40300Y33394D02*
X40381Y33312D01*
X40300Y33394D02*
Y33850D01*
X34960Y42490D02*
Y45544D01*
X34800Y42050D02*
X36900Y39950D01*
X35120Y45478D02*
X35392Y45750D01*
X35280Y43170D02*
X37132Y41318D01*
X34960Y45544D02*
X35446Y46030D01*
X35120Y42880D02*
X36000Y42000D01*
X34800Y45659D02*
X35450Y46309D01*
X35280Y43170D02*
Y45411D01*
X35339Y45470D01*
X34960Y42490D02*
X36050Y41400D01*
X34800Y42050D02*
Y45659D01*
X35120Y42880D02*
Y45478D01*
X35339Y45470D02*
X36100D01*
X40800Y34400D02*
Y34400D01*
X40400Y34350D02*
Y34350D01*
X41960Y32216D02*
X43038D01*
X43053Y32200D01*
X51450Y41150D02*
X57135D01*
X46650Y36350D02*
X51450Y41150D01*
X57135D02*
X57939Y41953D01*
X41493Y34150D02*
X43900D01*
X53150Y43400D01*
X41088Y33745D02*
X41493Y34150D01*
X41088Y33735D02*
Y33745D01*
X40882Y33529D02*
X41088Y33735D01*
X40882Y33312D02*
Y33529D01*
X53150Y43400D02*
X56750D01*
X57939Y41953D02*
X57950D01*
X57300Y43950D02*
Y45900D01*
X58253Y46853D02*
X60300D01*
X57300Y45900D02*
X58253Y46853D01*
X56750Y43400D02*
X57300Y43950D01*
X38382Y33312D02*
Y34469D01*
X36500Y25800D02*
X36612D01*
X36919Y25493D02*
X36930D01*
X36612Y25800D02*
X36919Y25493D01*
X36500Y25074D02*
X36919Y25493D01*
X36480Y30930D02*
X37200Y31650D01*
X40100D02*
X41255Y32805D01*
X37200Y31650D02*
X40100D01*
X36350Y30850D02*
X36399D01*
X36479Y30930D01*
X36480D01*
X43800Y44608D02*
X44339Y45147D01*
X42191Y45038D02*
X42300Y45147D01*
X41887Y45038D02*
X42191D01*
X41849Y45000D02*
X41887Y45038D01*
X41800Y45000D02*
X41849D01*
X38088Y27052D02*
X40100Y29064D01*
Y30500D02*
X40350Y30750D01*
X40100Y29064D02*
Y30500D01*
X37882Y26619D02*
Y26836D01*
X38088Y27042D01*
Y27052D01*
X41744Y28216D02*
X41960D01*
X41537Y28422D02*
X41744Y28216D01*
X41527Y28422D02*
X41537D01*
X40850Y29100D02*
X41527Y28422D01*
X40850Y29100D02*
Y30750D01*
X36900Y32400D02*
Y33294D01*
X36881Y33312D02*
X36900Y33294D01*
X36400Y32400D02*
Y33294D01*
X36381Y33312D02*
X36400Y33294D01*
X41255Y32805D02*
Y33186D01*
X41382Y33312D01*
X42850Y44708D02*
X43289Y45147D01*
X44339D02*
X44350D01*
X43289D02*
X43300D01*
X38881Y33312D02*
X38900Y33331D01*
X38700Y33531D02*
X38900Y33331D01*
X38700Y33531D02*
Y38800D01*
X57934Y21600D02*
X58500Y22166D01*
Y22945D01*
X58700Y21550D02*
X58784D01*
X59099Y21865D01*
X55926Y19774D02*
X57226D01*
X41343Y23807D02*
X47093D01*
X46250Y22700D02*
X53250D01*
X55443Y20507D01*
X39009Y26141D02*
X41343Y23807D01*
X36850Y23647D02*
X45303D01*
X46250Y22700D01*
X55443Y20507D02*
X56421D01*
X56476Y20347D02*
Y20453D01*
X56421Y20507D02*
X56476Y20453D01*
X47093Y23807D02*
X47650Y23250D01*
X36050Y23053D02*
X36950Y22153D01*
Y20241D02*
X37541Y19650D01*
X36950Y20241D02*
Y22153D01*
X37541Y19650D02*
X37672D01*
X37291Y21700D02*
Y22612D01*
X36850Y23053D02*
X36861D01*
X36970Y22945D01*
Y22933D02*
Y22945D01*
Y22933D02*
X37291Y22612D01*
X37441Y21550D02*
X37572D01*
X37291Y21700D02*
X37441Y21550D01*
X35900Y34100D02*
X37132Y35331D01*
X35900Y33331D02*
Y34100D01*
X35882Y33312D02*
X35900Y33331D01*
X37132Y35331D02*
Y41318D01*
X36900Y35326D02*
Y39950D01*
X35509Y33935D02*
X36900Y35326D01*
X35382Y33312D02*
X35509Y33439D01*
Y33935D01*
X36130Y44040D02*
X36710D01*
X36100Y44070D02*
X36130Y44040D01*
X35392Y45750D02*
X36100D01*
X36710Y44040D02*
X36950Y43800D01*
X35446Y46030D02*
X36100D01*
X35450Y46309D02*
X36099D01*
X37850Y43500D02*
X38203D01*
X42350Y25850D02*
X47650Y31150D01*
X41250Y25850D02*
X42350D01*
X41009Y26091D02*
X41250Y25850D01*
X41009Y26091D02*
Y26492D01*
X40882Y26619D02*
X41009Y26492D01*
X43975Y25500D02*
X47650Y29175D01*
X41100Y25500D02*
X43975D01*
X40509Y26091D02*
X41100Y25500D01*
X40509Y26091D02*
Y26492D01*
X40381Y26619D02*
X40509Y26492D01*
X46975Y24550D02*
X47650Y25225D01*
X41050Y24550D02*
X46975D01*
X39509Y26091D02*
X41050Y24550D01*
X39509Y26091D02*
Y26492D01*
X39381Y26619D02*
X39509Y26492D01*
X39009Y26141D02*
Y26492D01*
X38881Y26619D02*
X39009Y26492D01*
X40008Y26153D02*
Y26493D01*
X41010Y25150D02*
X45600D01*
X40008Y26153D02*
X41010Y25150D01*
X39881Y26619D02*
X40008Y26493D01*
X45600Y25150D02*
X47650Y27200D01*
X36839Y23647D02*
X36850D01*
X36730Y23755D02*
X36839Y23647D01*
X36730Y23755D02*
Y23767D01*
X36500Y23997D02*
X36730Y23767D01*
X36500Y23997D02*
Y25074D01*
X35230Y25426D02*
X35250D01*
X34850Y25045D02*
X35230Y25426D01*
X34850Y24500D02*
Y25045D01*
Y24500D02*
X35703Y23647D01*
X35250Y25426D02*
X36053D01*
X36070Y25443D01*
Y26214D01*
X35882Y26403D02*
X36070Y26214D01*
X35882Y26403D02*
Y26619D01*
X37822Y25465D02*
X37929Y25357D01*
X38135D01*
X38639Y24853D01*
X38650D01*
Y25447D02*
Y25845D01*
X38509Y25986D02*
X38650Y25845D01*
X38509Y25986D02*
Y26492D01*
X38382Y26619D02*
X38509Y26492D01*
X44280Y45217D02*
Y46800D01*
Y45217D02*
X44350Y45147D01*
X43300D02*
Y46800D01*
X42320Y45167D02*
Y46800D01*
X42300Y45147D02*
X42320Y45167D01*
X36099Y46309D02*
X36100Y46310D01*
X38797Y43500D02*
Y43901D01*
X38500Y44197D02*
X38797Y43901D01*
X38500Y44197D02*
Y44303D01*
X38874Y45091D02*
X38929Y45036D01*
X38874Y45091D02*
Y45303D01*
X39019Y45036D02*
X39650Y44405D01*
X38929Y45036D02*
X39019D01*
X39650Y44097D02*
Y44405D01*
X38797Y45380D02*
Y46100D01*
Y45380D02*
X38874Y45303D01*
X59850Y23950D02*
X60550Y23250D01*
X59505Y23950D02*
X59850D01*
X60550Y23650D02*
X60750D01*
X60053Y24147D02*
X60550Y23650D01*
X59505Y24147D02*
X60053D01*
X57226Y19774D02*
X57597Y19403D01*
X56850Y20250D02*
Y21258D01*
X57074Y20026D02*
X57938D01*
X56850Y20250D02*
X57074Y20026D01*
X57597Y19403D02*
X60550D01*
X60947Y18847D02*
X60950Y18850D01*
X57350Y18847D02*
X60947D01*
X56850Y19347D02*
Y19453D01*
Y19347D02*
X57350Y18847D01*
X60216Y21784D02*
X61300Y20700D01*
X59850Y21893D02*
X59959Y21784D01*
X60216D01*
X59288Y20150D02*
X59435Y20297D01*
X57938Y20026D02*
X58062Y20150D01*
X59288D01*
X59435Y20297D02*
X60176D01*
X57489Y21897D02*
X57500D01*
X56850Y21258D02*
X57489Y21897D01*
X57500D02*
X57511D01*
X59100Y20447D02*
Y21234D01*
X59101Y21235D01*
X58250Y20447D02*
Y21284D01*
X58251Y21285D01*
X58697Y22266D02*
Y22945D01*
Y22266D02*
X59099Y21865D01*
X59850Y21893D02*
Y22300D01*
X59350Y22800D02*
X59850Y22300D01*
X59091Y22805D02*
Y22945D01*
Y22805D02*
X59096Y22800D01*
X59350D01*
X67551Y21499D02*
X68485D01*
X67550Y21500D02*
X67551Y21499D01*
X67597Y22400D02*
X68500D01*
X64128Y24340D02*
Y24902D01*
Y24340D02*
X66957Y21511D01*
Y21500D02*
Y21511D01*
X66300Y22400D02*
X67003D01*
X64384Y24316D02*
X66300Y22400D01*
X64384Y24316D02*
Y24902D01*
X42520Y48230D02*
G03*
X42520Y48230I-200J0D01*
G01*
X44480D02*
G03*
X44480Y48230I-200J0D01*
G01*
X69750Y48250D02*
G03*
X68550Y49442I-1196J-4D01*
G01*
X35520D02*
G03*
X34320Y48242I0J-1200D01*
G01*
X68550Y17950D02*
G03*
X69750Y19150I0J1200D01*
G01*
X34320Y19142D02*
G03*
X35520Y17950I1196J4D01*
G01*
X34320Y19372D02*
G03*
X34319Y20828I180J728D01*
G01*
X34324Y37971D02*
G03*
X34325Y39429I176J729D01*
G01*
X64950Y20100D02*
G03*
X64950Y20100I-750J0D01*
G01*
X64950Y38700D02*
G03*
X64950Y38700I-750J0D01*
G01*
X43950Y38700D02*
G03*
X43950Y38700I-750J0D01*
G01*
Y20100D02*
G03*
X43950Y20100I-750J0D01*
G01*
X52650Y38700D02*
G03*
X52650Y38700I-750J0D01*
G01*
X52650Y20100D02*
G03*
X52650Y20100I-750J0D01*
G01*
X34320Y39434D02*
Y48242D01*
X35520Y49442D02*
X68550D01*
X69750Y19150D02*
Y48250D01*
X35520Y17950D02*
X68550D01*
X34320Y19142D02*
Y19372D01*
X34319Y35600D02*
Y37971D01*
Y35600D02*
X35200D01*
X34319Y34800D02*
X34319Y20828D01*
X63300Y34800D02*
Y35600D01*
X64900Y34800D02*
Y35600D01*
X63300D02*
X64900D01*
X63300Y34800D02*
X64900D01*
X51000D02*
X52600D01*
X51000Y35600D02*
X52600D01*
Y34800D02*
Y35600D01*
X51000Y34800D02*
Y35600D01*
X42300Y34800D02*
X43900D01*
X42300Y35600D02*
X43900D01*
Y34800D02*
Y35600D01*
X42300Y34800D02*
Y35600D01*
X35200Y34800D02*
Y35600D01*
X34319Y34800D02*
X35200D01*
D16*
X35382Y26619D02*
Y27668D01*
X42300Y44553D02*
X42335Y44519D01*
X42292Y44092D02*
X42335Y44135D01*
Y44519D01*
X62450Y24800D02*
Y24811D01*
X62509Y24870D01*
X62781D01*
X63252Y25341D01*
X63104Y26854D02*
X63300Y27050D01*
X62715Y25884D02*
X63238D01*
X62401Y25570D02*
X62715Y25884D01*
X62401Y25550D02*
Y25570D01*
X62250Y26336D02*
X63104D01*
X61259D02*
X62250D01*
X63104D02*
Y26854D01*
Y26336D02*
X63252Y26187D01*
Y26171D02*
X63283Y26140D01*
X63252Y26171D02*
Y26187D01*
X63283Y26140D02*
X63402D01*
X61251Y26343D02*
X61259Y26336D01*
X61251Y26343D02*
Y26350D01*
D17*
X68550Y17900D02*
G03*
X68600Y17950I0J50D01*
G01*
D02*
G03*
X68550Y18000I-50J0D01*
G01*
X35520D02*
G03*
X35520Y17900I0J-50D01*
G01*
X68550D01*
X35520Y18000D02*
X68550D01*
D18*
X58250Y19853D02*
D03*
Y20447D02*
D03*
X59100Y19853D02*
D03*
Y20447D02*
D03*
X59850Y21937D02*
D03*
Y21344D02*
D03*
X57500Y21937D02*
D03*
Y21344D02*
D03*
X58350Y31097D02*
D03*
Y30503D02*
D03*
X38650Y24853D02*
D03*
Y25447D02*
D03*
X36930Y24900D02*
D03*
Y25493D02*
D03*
X36070Y24850D02*
D03*
Y25443D02*
D03*
X36850Y23647D02*
D03*
Y23053D02*
D03*
X36050Y23647D02*
D03*
Y23053D02*
D03*
X60300Y46853D02*
D03*
Y47447D02*
D03*
X58700Y41953D02*
D03*
Y42547D02*
D03*
X57950Y41953D02*
D03*
Y42547D02*
D03*
X44350Y44553D02*
D03*
Y45147D02*
D03*
X43300Y44553D02*
D03*
Y45147D02*
D03*
X42300Y44553D02*
D03*
Y45147D02*
D03*
X39650Y44097D02*
D03*
Y43503D02*
D03*
D19*
X60924Y20297D02*
D03*
X60176D02*
D03*
X60550Y19403D02*
D03*
X57224Y20347D02*
D03*
X56476D02*
D03*
X56850Y19453D02*
D03*
X57926Y43503D02*
D03*
X58674D02*
D03*
X58300Y44397D02*
D03*
X38874Y45197D02*
D03*
X38126D02*
D03*
X38500Y44303D02*
D03*
D20*
X59101Y21285D02*
D03*
X59098Y21915D02*
D03*
X58318Y21285D02*
D03*
X58315Y21915D02*
D03*
X58349Y32415D02*
D03*
X58351Y31785D02*
D03*
X37825Y24835D02*
D03*
X37822Y25465D02*
D03*
D21*
X69115Y21501D02*
D03*
X68485Y21499D02*
D03*
X69130Y22403D02*
D03*
X68500Y22400D02*
D03*
D22*
X67550Y21500D02*
D03*
X66957D02*
D03*
X67597Y22400D02*
D03*
X67003D02*
D03*
X61857Y24800D02*
D03*
X62450D02*
D03*
X60407Y33775D02*
D03*
X61000D02*
D03*
X38203Y43500D02*
D03*
X38797D02*
D03*
X38203Y46100D02*
D03*
X38797D02*
D03*
X43053Y32200D02*
D03*
X43647D02*
D03*
X61703Y33800D02*
D03*
X62297D02*
D03*
D23*
X66800Y28650D02*
D03*
X68532D02*
D03*
D24*
X67450Y25150D02*
D03*
Y26829D02*
D03*
Y24684D02*
D03*
Y26350D02*
D03*
D25*
Y25550D02*
D03*
Y25950D02*
D03*
D26*
X64250Y25750D02*
D03*
D27*
X63402Y25372D02*
D03*
Y25628D02*
D03*
Y25884D02*
D03*
Y26140D02*
D03*
X65098Y26138D02*
D03*
Y25882D02*
D03*
Y25626D02*
D03*
Y25370D02*
D03*
D28*
X64128Y24902D02*
D03*
X63872D02*
D03*
X64640D02*
D03*
X64384D02*
D03*
X64128Y26598D02*
D03*
X63872D02*
D03*
X64640D02*
D03*
X64384D02*
D03*
D29*
X61850Y25550D02*
D03*
X62401D02*
D03*
X60674Y27550D02*
D03*
X61226D02*
D03*
X60700Y26350D02*
D03*
X61251D02*
D03*
X60976Y24800D02*
D03*
X60424D02*
D03*
X56124Y44250D02*
D03*
X56676D02*
D03*
X54776Y27500D02*
D03*
X54224D02*
D03*
D30*
X62250D02*
D03*
Y26336D02*
D03*
D31*
X59400Y26426D02*
D03*
Y25874D02*
D03*
X58350Y33124D02*
D03*
Y33676D02*
D03*
X35250Y24874D02*
D03*
Y25426D02*
D03*
X57250Y41974D02*
D03*
Y42526D02*
D03*
X54150Y29726D02*
D03*
Y29174D02*
D03*
D32*
X63295Y28700D02*
D03*
X65500D02*
D03*
X61450Y29750D02*
D03*
X59245D02*
D03*
D33*
X65350Y32666D02*
D03*
Y30934D02*
D03*
X63450Y32616D02*
D03*
Y30884D02*
D03*
X59400Y33616D02*
D03*
Y31884D02*
D03*
D34*
X60976Y32951D02*
D03*
X61350D02*
D03*
X61724D02*
D03*
Y31849D02*
D03*
X61350D02*
D03*
X60976D02*
D03*
D35*
X56350Y31320D02*
D03*
Y33380D02*
D03*
D36*
X57495Y24541D02*
D03*
Y23359D02*
D03*
Y23556D02*
D03*
Y23753D02*
D03*
Y23950D02*
D03*
Y24147D02*
D03*
Y24344D02*
D03*
X59505Y24541D02*
D03*
Y24344D02*
D03*
Y24147D02*
D03*
Y23950D02*
D03*
Y23753D02*
D03*
Y23556D02*
D03*
Y23359D02*
D03*
D37*
X58500Y23950D02*
D03*
D38*
X59091Y22945D02*
D03*
X58894D02*
D03*
X58697D02*
D03*
X58500D02*
D03*
X58303D02*
D03*
X58106D02*
D03*
X57909D02*
D03*
Y24955D02*
D03*
X58106D02*
D03*
X58303D02*
D03*
X58500D02*
D03*
X58697D02*
D03*
X58894D02*
D03*
X59091D02*
D03*
D39*
X58400Y27450D02*
D03*
X59463D02*
D03*
D40*
X56500Y27634D02*
D03*
D41*
X55595Y29866D02*
D03*
X56500D02*
D03*
X57406D02*
D03*
D42*
X40428Y19650D02*
D03*
X37672D02*
D03*
X40328Y21550D02*
D03*
X37572D02*
D03*
D43*
X56100Y48500D02*
D03*
Y45500D02*
D03*
X58300Y48500D02*
D03*
Y45500D02*
D03*
D44*
X41250Y48550D02*
D03*
X45350D02*
D03*
X48650Y27200D02*
D03*
Y25225D02*
D03*
Y23250D02*
D03*
Y31150D02*
D03*
Y29175D02*
D03*
D45*
X43300Y46800D02*
D03*
X44280D02*
D03*
X42320D02*
D03*
D46*
X36100Y43790D02*
D03*
Y44070D02*
D03*
Y43510D02*
D03*
Y44350D02*
D03*
Y44630D02*
D03*
Y44910D02*
D03*
Y45190D02*
D03*
Y45470D02*
D03*
Y45750D02*
D03*
Y46030D02*
D03*
Y46310D02*
D03*
Y46590D02*
D03*
Y46870D02*
D03*
D47*
X41960Y28216D02*
D03*
Y29716D02*
D03*
Y31216D02*
D03*
Y32216D02*
D03*
Y27716D02*
D03*
D03*
Y28716D02*
D03*
Y29216D02*
D03*
Y30216D02*
D03*
Y30716D02*
D03*
Y31716D02*
D03*
D48*
X35382Y26619D02*
D03*
X35882D02*
D03*
X36381D02*
D03*
X36881D02*
D03*
X37381D02*
D03*
X37882D02*
D03*
X38382D02*
D03*
X38881D02*
D03*
X39381D02*
D03*
X39881D02*
D03*
X40381D02*
D03*
X34881Y33312D02*
D03*
D03*
X35382D02*
D03*
X35882D02*
D03*
X36381D02*
D03*
X36881D02*
D03*
X37381D02*
D03*
X37882D02*
D03*
X38382D02*
D03*
X38881D02*
D03*
X39381D02*
D03*
X39881D02*
D03*
X40381D02*
D03*
X40882D02*
D03*
X34881Y26619D02*
D03*
D03*
X40882D02*
D03*
X41382D02*
D03*
Y33312D02*
D03*
D49*
X36632Y28366D02*
D03*
D03*
Y29350D02*
D03*
Y30334D02*
D03*
Y28366D02*
D03*
D03*
Y29350D02*
D03*
Y30334D02*
D03*
X37616Y28366D02*
D03*
D03*
Y29350D02*
D03*
Y30334D02*
D03*
X38600Y28366D02*
D03*
D03*
Y29350D02*
D03*
Y30334D02*
D03*
D50*
X66000Y25064D02*
D03*
Y24001D02*
D03*
X54100Y31051D02*
D03*
Y32114D02*
D03*
D93*
X60407Y33764D02*
Y33775D01*
X60399Y33755D02*
X60407Y33764D01*
X59539Y33755D02*
X60399D01*
X59400Y33616D02*
X59539Y33755D01*
X38203Y46100D02*
Y46697D01*
X54776Y27500D02*
X56366D01*
X56500Y27450D02*
X58400D01*
X56500D02*
Y27634D01*
X56915Y32415D02*
X58349D01*
X56350Y32980D02*
X56915Y32415D01*
X56350Y32980D02*
Y33380D01*
X55552Y29811D02*
Y30702D01*
X54139Y32114D02*
X55552Y30702D01*
Y29811D02*
X55595Y29768D01*
X54150Y29726D02*
X55552D01*
X55595Y29768D01*
Y29866D01*
X55406Y33380D02*
X56350D01*
X54139Y32114D02*
X55406Y33380D01*
X54100Y32114D02*
X54139D01*
X57950Y42547D02*
X58697D01*
X57939D02*
X57950D01*
X57330D02*
X57939D01*
X57250Y42526D02*
X57257Y42533D01*
X57316D01*
X57330Y42547D01*
X57926Y42559D02*
Y43503D01*
Y42559D02*
X57939Y42547D01*
X58300Y44397D02*
Y45500D01*
X56117Y44257D02*
X56124Y44250D01*
X56117Y44257D02*
Y45483D01*
X56100Y45500D02*
X56117Y45483D01*
X57997Y47447D02*
X60300D01*
X56100Y45550D02*
X57997Y47447D01*
X56100Y45500D02*
Y45550D01*
X60300Y47447D02*
X60309Y47455D01*
X61405D01*
X61500Y47550D01*
X61226Y27550D02*
X62200D01*
X62250Y27500D01*
X58961Y26850D02*
X59607D01*
X58400Y27411D02*
X58961Y26850D01*
X59607D02*
X60300Y26157D01*
Y24944D02*
X60424Y24820D01*
X60300Y24944D02*
Y26157D01*
X60424Y24780D02*
Y24820D01*
X58400Y27411D02*
Y27450D01*
X59500Y24450D02*
X60094D01*
X60424Y24780D01*
X59400Y25267D02*
Y25874D01*
X59188Y25055D02*
X59400Y25267D01*
X56500Y27634D02*
Y29866D01*
X58351Y31785D02*
X58351Y31785D01*
X58351Y31097D02*
Y31785D01*
X58350Y31097D02*
X58351Y31097D01*
X59400Y29905D02*
Y31884D01*
X59245Y29750D02*
X59400Y29905D01*
Y31884D02*
Y31979D01*
X59585Y32164D01*
X59680D01*
X59866Y32350D01*
X61548D01*
X61724Y32526D02*
Y32951D01*
X61548Y32350D02*
X61724Y32526D01*
X61163Y31849D02*
X61350D01*
X60976D02*
X61163D01*
Y30037D02*
Y31849D01*
Y30037D02*
X61450Y29750D01*
X63600Y27350D02*
X64350Y28100D01*
X63300Y27050D02*
X63600Y27350D01*
X68700Y25346D02*
Y25400D01*
X68600Y25246D02*
X68700Y25346D01*
X68600Y22932D02*
Y25246D01*
Y22932D02*
X69130Y22403D01*
X69115Y21501D02*
Y22388D01*
X69130Y22403D01*
X62347Y27500D02*
X62900D01*
X62250D02*
X62347D01*
X62949Y28102D01*
X62953D01*
X63295Y28444D01*
Y28700D01*
X64350Y28100D02*
Y29250D01*
X65165Y30065D01*
Y30749D02*
X65350Y30934D01*
X65165Y30065D02*
Y30749D01*
X64346Y30950D02*
X64400Y30896D01*
Y30000D02*
Y30896D01*
X63450Y30884D02*
X64280D01*
X64346Y30950D01*
X64400D01*
X68700Y25450D02*
Y26174D01*
X67450Y25150D02*
X68400D01*
X68650Y25400D01*
X68700D01*
X67450Y26350D02*
X68470D01*
X68646Y26174D01*
X68700D01*
D94*
X35465Y43934D02*
X35604Y43795D01*
X35465Y43934D02*
Y44206D01*
X36100Y44350D02*
X37100D01*
X35465Y44206D02*
X35604Y44345D01*
X36095D02*
X36100Y44350D01*
X35604Y44345D02*
X36095D01*
X35604Y43795D02*
X36095D01*
X36100Y43790D01*
X43300Y44035D02*
Y44488D01*
X36070Y24420D02*
Y24850D01*
X36930Y24520D02*
Y24900D01*
X37825Y24375D02*
Y24835D01*
X44350Y44035D02*
Y44438D01*
X61457Y46550D02*
X61500D01*
X61153Y46853D02*
X61457Y46550D01*
X60300Y46853D02*
X61153D01*
X64640Y24733D02*
X65050Y24323D01*
X64640Y24733D02*
Y24902D01*
X63872Y23828D02*
Y24902D01*
X66400Y25550D02*
X67450D01*
X58250Y19853D02*
X59100D01*
X61738Y20438D02*
Y24488D01*
X61153Y19853D02*
X61738Y20438D01*
X59100Y19853D02*
X61153D01*
X57224Y20347D02*
Y21039D01*
X57489Y21303D01*
X57500D01*
X59850Y21300D02*
X59861D01*
X60729Y20432D01*
X60894D01*
X60924Y20403D01*
Y20297D02*
Y20403D01*
X61738Y24488D02*
X62738D01*
X60738D02*
X61738D01*
X60450Y24200D02*
X60738Y24488D01*
X62738D02*
X63152Y24902D01*
X63872D01*
X63878Y26978D02*
X64200Y27300D01*
X63872Y26598D02*
X63878Y26604D01*
Y26978D01*
X66400Y25950D02*
X67450D01*
D95*
X55775Y21550D02*
X56450D01*
X55812Y21068D02*
X55831Y21048D01*
X55775Y21504D02*
Y21550D01*
X55812Y21068D02*
Y21468D01*
X55775Y21504D02*
X55812Y21468D01*
X55100Y21550D02*
X55775D01*
X55800Y26934D02*
X55991Y27125D01*
X55800Y21550D02*
Y26934D01*
X55991Y27125D02*
Y27348D01*
X56278Y27634D02*
X56500D01*
X55991Y27348D02*
X56278Y27634D01*
D96*
X61450Y29750D02*
Y30006D01*
X62450Y31006D01*
Y33000D01*
X63050Y33600D01*
X67000D01*
X65325Y32641D02*
X65350Y32666D01*
X63475Y32641D02*
X65325D01*
X63450Y32616D02*
X63475Y32641D01*
X65502Y32419D02*
X67000D01*
X65350Y32571D02*
X65502Y32419D01*
X65350Y32571D02*
Y32666D01*
D97*
X67000Y30057D02*
D03*
Y34781D02*
D03*
D98*
Y33600D02*
D03*
D99*
Y32419D02*
D03*
Y31238D02*
D03*
D100*
X69246Y27448D02*
D03*
Y24046D02*
D03*
X67750D02*
D03*
Y27448D02*
D03*
D101*
X61500Y45550D02*
D03*
Y46550D02*
D03*
Y44550D02*
D03*
D102*
Y47550D02*
D03*
D103*
X62363Y23950D02*
D03*
D104*
X63150D02*
D03*
D105*
X47650Y27200D02*
D03*
X46650D02*
D03*
X47650Y25225D02*
D03*
X46650D02*
D03*
X47650Y23250D02*
D03*
X46650D02*
D03*
X47650Y31150D02*
D03*
X46650D02*
D03*
X47650Y29175D02*
D03*
X46650D02*
D03*
D106*
X35600Y24300D02*
D03*
X39300Y42300D02*
D03*
X40800Y34400D02*
D03*
X40400Y34350D02*
D03*
X35382Y27668D02*
D03*
X46650Y36350D02*
D03*
X38382Y34469D02*
D03*
X36500Y25800D02*
D03*
X43300Y44100D02*
D03*
X41800Y45000D02*
D03*
X42292Y44092D02*
D03*
X40350Y30750D02*
D03*
X40850D02*
D03*
X36900Y32400D02*
D03*
X36400D02*
D03*
X36350Y30850D02*
D03*
X38700Y38800D02*
D03*
X37381Y40581D02*
D03*
X57934Y21600D02*
D03*
X58700Y21550D02*
D03*
X36050Y41400D02*
D03*
X36000Y42000D02*
D03*
X37100Y44350D02*
D03*
X36950Y43800D02*
D03*
X37850Y43500D02*
D03*
X36070Y24420D02*
D03*
X36930Y24520D02*
D03*
X37825Y24375D02*
D03*
X44350Y44100D02*
D03*
X65050Y24323D02*
D03*
X63872Y23828D02*
D03*
X66400Y25550D02*
D03*
X60550Y23250D02*
D03*
X60750Y23650D02*
D03*
X60950Y18850D02*
D03*
X61300Y20700D02*
D03*
X59400Y25267D02*
D03*
X60450Y24200D02*
D03*
X63300Y27050D02*
D03*
X63600Y27350D02*
D03*
X62900Y27500D02*
D03*
X64200Y27300D02*
D03*
X66400Y25950D02*
D03*
D107*
X38650Y40250D02*
D03*
X38850Y42600D02*
D03*
X37950D02*
D03*
X37050D02*
D03*
X38650Y41800D02*
D03*
X37850D02*
D03*
X38650Y41025D02*
D03*
X38203Y46697D02*
D03*
X56450Y21550D02*
D03*
X55100D02*
D03*
X55831Y21048D02*
D03*
X59300Y34350D02*
D03*
X58367D02*
D03*
X57433D02*
D03*
X56500D02*
D03*
X59300Y35450D02*
D03*
X58367D02*
D03*
X57433D02*
D03*
X56500D02*
D03*
X64400Y30000D02*
D03*
Y30950D02*
D03*
X68700Y26174D02*
D03*
Y25400D02*
D03*
M02*
