G04*
G04 #@! TF.GenerationSoftware,Altium Limited,Altium Designer,20.2.6 (244)*
G04*
G04 Layer_Physical_Order=2*
G04 Layer_Color=32768*
%FSLAX24Y24*%
%MOIN*%
G70*
G04*
G04 #@! TF.SameCoordinates,2017631A-D77C-4579-BA5B-B5A4186395AE*
G04*
G04*
G04 #@! TF.FilePolarity,Negative*
G04*
G01*
G75*
%ADD11C,0.0100*%
%ADD17C,0.0080*%
%ADD95C,0.0400*%
%ADD108O,0.0800X0.0750*%
%ADD109O,0.0700X0.0750*%
%ADD110O,0.0951X0.0636*%
%ADD111C,0.0680*%
%ADD112C,0.0794*%
%ADD113C,0.0700*%
%ADD114C,0.0560*%
G36*
X44393Y48400D02*
X44450Y48343D01*
X44480Y48270D01*
Y48230D01*
Y48190D01*
X44450Y48117D01*
X44393Y48060D01*
X44320Y48030D01*
X44240D01*
X44167Y48060D01*
X44110Y48117D01*
X44080Y48190D01*
Y48230D01*
Y48270D01*
X44110Y48343D01*
X44167Y48400D01*
X44240Y48430D01*
X44320D01*
X44393Y48400D01*
D02*
G37*
G36*
X42433D02*
X42490Y48343D01*
X42520Y48270D01*
Y48230D01*
Y48190D01*
X42490Y48117D01*
X42433Y48060D01*
X42360Y48030D01*
X42280D01*
X42207Y48060D01*
X42150Y48117D01*
X42120Y48190D01*
Y48230D01*
Y48270D01*
X42150Y48343D01*
X42207Y48400D01*
X42280Y48430D01*
X42360D01*
X42433Y48400D01*
D02*
G37*
G36*
X64419Y39421D02*
X64555Y39365D01*
X64678Y39283D01*
X64783Y39178D01*
X64865Y39055D01*
X64921Y38919D01*
X64950Y38774D01*
Y38700D01*
Y38626D01*
X64921Y38481D01*
X64865Y38345D01*
X64783Y38222D01*
X64678Y38117D01*
X64555Y38035D01*
X64419Y37979D01*
X64274Y37950D01*
X64126D01*
X63981Y37979D01*
X63845Y38035D01*
X63722Y38117D01*
X63617Y38222D01*
X63535Y38345D01*
X63479Y38481D01*
X63450Y38626D01*
Y38700D01*
Y38774D01*
X63479Y38919D01*
X63535Y39055D01*
X63617Y39178D01*
X63722Y39283D01*
X63845Y39365D01*
X63981Y39421D01*
X64126Y39450D01*
X64274D01*
X64419Y39421D01*
D02*
G37*
G36*
X52119D02*
X52255Y39365D01*
X52378Y39283D01*
X52483Y39178D01*
X52565Y39055D01*
X52621Y38919D01*
X52650Y38774D01*
Y38700D01*
Y38626D01*
X52621Y38481D01*
X52565Y38345D01*
X52483Y38222D01*
X52378Y38117D01*
X52255Y38035D01*
X52119Y37979D01*
X51974Y37950D01*
X51826D01*
X51681Y37979D01*
X51545Y38035D01*
X51422Y38117D01*
X51317Y38222D01*
X51235Y38345D01*
X51179Y38481D01*
X51150Y38626D01*
Y38700D01*
Y38774D01*
X51179Y38919D01*
X51235Y39055D01*
X51317Y39178D01*
X51422Y39283D01*
X51545Y39365D01*
X51681Y39421D01*
X51826Y39450D01*
X51974D01*
X52119Y39421D01*
D02*
G37*
G36*
X43419Y39421D02*
X43555Y39365D01*
X43678Y39283D01*
X43783Y39178D01*
X43865Y39055D01*
X43921Y38919D01*
X43950Y38774D01*
Y38700D01*
Y38626D01*
X43921Y38481D01*
X43865Y38345D01*
X43783Y38222D01*
X43678Y38117D01*
X43555Y38035D01*
X43419Y37979D01*
X43274Y37950D01*
X43126D01*
X42981Y37979D01*
X42845Y38035D01*
X42722Y38117D01*
X42617Y38222D01*
X42535Y38345D01*
X42479Y38481D01*
X42450Y38626D01*
Y38700D01*
Y38774D01*
X42479Y38919D01*
X42535Y39055D01*
X42617Y39178D01*
X42722Y39283D01*
X42845Y39365D01*
X42981Y39421D01*
X43126Y39450D01*
X43274D01*
X43419Y39421D01*
D02*
G37*
G36*
X64900Y34800D02*
X63300D01*
Y35600D01*
X64900D01*
Y34800D01*
D02*
G37*
G36*
X52600D02*
X51000D01*
Y35600D01*
X52600D01*
Y34800D01*
D02*
G37*
G36*
X43900Y34800D02*
X42300D01*
Y35600D01*
X43900D01*
Y34800D01*
D02*
G37*
G36*
X43419Y20821D02*
X43555Y20765D01*
X43678Y20683D01*
X43783Y20578D01*
X43865Y20455D01*
X43921Y20319D01*
X43950Y20174D01*
Y20100D01*
Y20026D01*
X43921Y19881D01*
X43865Y19745D01*
X43783Y19622D01*
X43678Y19517D01*
X43555Y19435D01*
X43419Y19379D01*
X43274Y19350D01*
X43126D01*
X42981Y19379D01*
X42845Y19435D01*
X42722Y19517D01*
X42617Y19622D01*
X42535Y19745D01*
X42479Y19881D01*
X42450Y20026D01*
Y20100D01*
Y20174D01*
X42479Y20319D01*
X42535Y20455D01*
X42617Y20578D01*
X42722Y20683D01*
X42845Y20765D01*
X42981Y20821D01*
X43126Y20850D01*
X43274D01*
X43419Y20821D01*
D02*
G37*
G36*
X64419Y20821D02*
X64555Y20765D01*
X64678Y20683D01*
X64783Y20578D01*
X64865Y20455D01*
X64921Y20319D01*
X64950Y20174D01*
Y20100D01*
Y20026D01*
X64921Y19881D01*
X64865Y19745D01*
X64783Y19622D01*
X64678Y19517D01*
X64555Y19435D01*
X64419Y19379D01*
X64274Y19350D01*
X64126D01*
X63981Y19379D01*
X63845Y19435D01*
X63722Y19517D01*
X63617Y19622D01*
X63535Y19745D01*
X63479Y19881D01*
X63450Y20026D01*
Y20100D01*
Y20174D01*
X63479Y20319D01*
X63535Y20455D01*
X63617Y20578D01*
X63722Y20683D01*
X63845Y20765D01*
X63981Y20821D01*
X64126Y20850D01*
X64274D01*
X64419Y20821D01*
D02*
G37*
G36*
X52119D02*
X52255Y20765D01*
X52378Y20683D01*
X52483Y20578D01*
X52565Y20455D01*
X52621Y20319D01*
X52650Y20174D01*
Y20100D01*
Y20026D01*
X52621Y19881D01*
X52565Y19745D01*
X52483Y19622D01*
X52378Y19517D01*
X52255Y19435D01*
X52119Y19379D01*
X51974Y19350D01*
X51826D01*
X51681Y19379D01*
X51545Y19435D01*
X51422Y19517D01*
X51317Y19622D01*
X51235Y19745D01*
X51179Y19881D01*
X51150Y20026D01*
Y20100D01*
Y20174D01*
X51179Y20319D01*
X51235Y20455D01*
X51317Y20578D01*
X51422Y20683D01*
X51545Y20765D01*
X51681Y20821D01*
X51826Y20850D01*
X51974D01*
X52119Y20821D01*
D02*
G37*
D11*
X45700Y22250D02*
Y36000D01*
X59900Y22250D02*
Y36000D01*
X45700D02*
X59900D01*
X45700Y22250D02*
X59900D01*
X42520Y48230D02*
G03*
X42520Y48230I-200J0D01*
G01*
X44480D02*
G03*
X44480Y48230I-200J0D01*
G01*
X69750Y48250D02*
G03*
X68550Y49442I-1196J-4D01*
G01*
X35520D02*
G03*
X34320Y48242I0J-1200D01*
G01*
X68550Y17950D02*
G03*
X69750Y19150I0J1200D01*
G01*
X34320Y19142D02*
G03*
X35520Y17950I1196J4D01*
G01*
X34320Y19372D02*
G03*
X34319Y20828I180J728D01*
G01*
X34324Y37971D02*
G03*
X34325Y39429I176J729D01*
G01*
X64950Y20100D02*
G03*
X64950Y20100I-750J0D01*
G01*
X64950Y38700D02*
G03*
X64950Y38700I-750J0D01*
G01*
X43950Y38700D02*
G03*
X43950Y38700I-750J0D01*
G01*
Y20100D02*
G03*
X43950Y20100I-750J0D01*
G01*
X52650Y38700D02*
G03*
X52650Y38700I-750J0D01*
G01*
X52650Y20100D02*
G03*
X52650Y20100I-750J0D01*
G01*
X34320Y39434D02*
Y48242D01*
X35520Y49442D02*
X68550D01*
X69750Y19150D02*
Y48250D01*
X35520Y17950D02*
X68550D01*
X34320Y19142D02*
Y19372D01*
X34319Y35600D02*
Y37971D01*
Y35600D02*
X35200D01*
X34319Y34800D02*
X34319Y20828D01*
X63300Y34800D02*
Y35600D01*
X64900Y34800D02*
Y35600D01*
X63300D02*
X64900D01*
X63300Y34800D02*
X64900D01*
X51000D02*
X52600D01*
X51000Y35600D02*
X52600D01*
Y34800D02*
Y35600D01*
X51000Y34800D02*
Y35600D01*
X42300Y34800D02*
X43900D01*
X42300Y35600D02*
X43900D01*
Y34800D02*
Y35600D01*
X42300Y34800D02*
Y35600D01*
X35200Y34800D02*
Y35600D01*
X34319Y34800D02*
X35200D01*
D17*
X68550Y17900D02*
G03*
X68600Y17950I0J50D01*
G01*
D02*
G03*
X68550Y18000I-50J0D01*
G01*
X35520D02*
G03*
X35520Y17900I0J-50D01*
G01*
X68550D01*
X35520Y18000D02*
X68550D01*
D95*
X42360Y48430D02*
X42433Y48400D01*
X42490Y48343D01*
X42520Y48270D01*
Y48230D02*
Y48270D01*
Y48190D02*
Y48230D01*
X42490Y48117D02*
X42520Y48190D01*
X42433Y48060D02*
X42490Y48117D01*
X42360Y48030D02*
X42433Y48060D01*
X42280Y48030D02*
X42360D01*
X42207Y48060D02*
X42280Y48030D01*
X42150Y48117D02*
X42207Y48060D01*
X42120Y48190D02*
X42150Y48117D01*
X42120Y48190D02*
Y48230D01*
Y48270D01*
X42150Y48343D01*
X42207Y48400D01*
X42280Y48430D01*
X42360D01*
X44320D02*
X44393Y48400D01*
X44450Y48343D01*
X44480Y48270D01*
Y48230D02*
Y48270D01*
Y48190D02*
Y48230D01*
X44450Y48117D02*
X44480Y48190D01*
X44393Y48060D02*
X44450Y48117D01*
X44320Y48030D02*
X44393Y48060D01*
X44240Y48030D02*
X44320D01*
X44167Y48060D02*
X44240Y48030D01*
X44110Y48117D02*
X44167Y48060D01*
X44080Y48190D02*
X44110Y48117D01*
X44080Y48190D02*
Y48230D01*
Y48270D01*
X44110Y48343D01*
X44167Y48400D01*
X44240Y48430D01*
X44320D01*
X51974Y20850D02*
X52119Y20821D01*
X52255Y20765D01*
X52378Y20683D01*
X52483Y20578D01*
X52565Y20455D01*
X52621Y20319D01*
X52650Y20174D01*
Y20100D02*
Y20174D01*
Y20026D02*
Y20100D01*
X52621Y19881D02*
X52650Y20026D01*
X52565Y19745D02*
X52621Y19881D01*
X52483Y19622D02*
X52565Y19745D01*
X52378Y19517D02*
X52483Y19622D01*
X52255Y19435D02*
X52378Y19517D01*
X52119Y19379D02*
X52255Y19435D01*
X51974Y19350D02*
X52119Y19379D01*
X51826Y19350D02*
X51974D01*
X51681Y19379D02*
X51826Y19350D01*
X51545Y19435D02*
X51681Y19379D01*
X51422Y19517D02*
X51545Y19435D01*
X51317Y19622D02*
X51422Y19517D01*
X51235Y19745D02*
X51317Y19622D01*
X51179Y19881D02*
X51235Y19745D01*
X51150Y20026D02*
X51179Y19881D01*
X51150Y20026D02*
Y20100D01*
Y20174D01*
X51179Y20319D01*
X51235Y20455D01*
X51317Y20578D01*
X51422Y20683D01*
X51545Y20765D01*
X51681Y20821D01*
X51826Y20850D01*
X51974D01*
X64274D02*
X64419Y20821D01*
X64555Y20765D01*
X64678Y20683D01*
X64783Y20578D01*
X64865Y20455D01*
X64921Y20319D01*
X64950Y20174D01*
Y20100D02*
Y20174D01*
Y20026D02*
Y20100D01*
X64921Y19881D02*
X64950Y20026D01*
X64865Y19745D02*
X64921Y19881D01*
X64783Y19622D02*
X64865Y19745D01*
X64678Y19517D02*
X64783Y19622D01*
X64555Y19435D02*
X64678Y19517D01*
X64419Y19379D02*
X64555Y19435D01*
X64274Y19350D02*
X64419Y19379D01*
X64126Y19350D02*
X64274D01*
X63981Y19379D02*
X64126Y19350D01*
X63845Y19435D02*
X63981Y19379D01*
X63722Y19517D02*
X63845Y19435D01*
X63617Y19622D02*
X63722Y19517D01*
X63535Y19745D02*
X63617Y19622D01*
X63479Y19881D02*
X63535Y19745D01*
X63450Y20026D02*
X63479Y19881D01*
X63450Y20026D02*
Y20100D01*
Y20174D01*
X63479Y20319D01*
X63535Y20455D01*
X63617Y20578D01*
X63722Y20683D01*
X63845Y20765D01*
X63981Y20821D01*
X64126Y20850D01*
X64274D01*
X43274Y20850D02*
X43419Y20821D01*
X43555Y20765D01*
X43678Y20683D01*
X43783Y20578D01*
X43865Y20455D01*
X43921Y20319D01*
X43950Y20174D01*
Y20100D02*
Y20174D01*
Y20026D02*
Y20100D01*
X43921Y19881D02*
X43950Y20026D01*
X43865Y19745D02*
X43921Y19881D01*
X43783Y19622D02*
X43865Y19745D01*
X43678Y19517D02*
X43783Y19622D01*
X43555Y19435D02*
X43678Y19517D01*
X43419Y19379D02*
X43555Y19435D01*
X43274Y19350D02*
X43419Y19379D01*
X43126Y19350D02*
X43274D01*
X42981Y19379D02*
X43126Y19350D01*
X42845Y19435D02*
X42981Y19379D01*
X42722Y19517D02*
X42845Y19435D01*
X42617Y19622D02*
X42722Y19517D01*
X42535Y19745D02*
X42617Y19622D01*
X42479Y19881D02*
X42535Y19745D01*
X42450Y20026D02*
X42479Y19881D01*
X42450Y20026D02*
Y20100D01*
Y20174D01*
X42479Y20319D01*
X42535Y20455D01*
X42617Y20578D01*
X42722Y20683D01*
X42845Y20765D01*
X42981Y20821D01*
X43126Y20850D01*
X43274D01*
X43900Y34800D02*
Y35600D01*
X42300Y34800D02*
X43900D01*
X42300D02*
Y35600D01*
X43900D01*
X52600Y34800D02*
Y35600D01*
X51000Y34800D02*
X52600D01*
X51000D02*
Y35600D01*
X52600D01*
X64900Y34800D02*
Y35600D01*
X63300Y34800D02*
X64900D01*
X63300D02*
Y35600D01*
X64900D01*
X43274Y39450D02*
X43419Y39421D01*
X43555Y39365D01*
X43678Y39283D01*
X43783Y39178D01*
X43865Y39055D01*
X43921Y38919D01*
X43950Y38774D01*
Y38700D02*
Y38774D01*
Y38626D02*
Y38700D01*
X43921Y38481D02*
X43950Y38626D01*
X43865Y38345D02*
X43921Y38481D01*
X43783Y38222D02*
X43865Y38345D01*
X43678Y38117D02*
X43783Y38222D01*
X43555Y38035D02*
X43678Y38117D01*
X43419Y37979D02*
X43555Y38035D01*
X43274Y37950D02*
X43419Y37979D01*
X43126Y37950D02*
X43274D01*
X42981Y37979D02*
X43126Y37950D01*
X42845Y38035D02*
X42981Y37979D01*
X42722Y38117D02*
X42845Y38035D01*
X42617Y38222D02*
X42722Y38117D01*
X42535Y38345D02*
X42617Y38222D01*
X42479Y38481D02*
X42535Y38345D01*
X42450Y38626D02*
X42479Y38481D01*
X42450Y38626D02*
Y38700D01*
Y38774D01*
X42479Y38919D01*
X42535Y39055D01*
X42617Y39178D01*
X42722Y39283D01*
X42845Y39365D01*
X42981Y39421D01*
X43126Y39450D01*
X43274D01*
X51974Y39450D02*
X52119Y39421D01*
X52255Y39365D01*
X52378Y39283D01*
X52483Y39178D01*
X52565Y39055D01*
X52621Y38919D01*
X52650Y38774D01*
Y38700D02*
Y38774D01*
Y38626D02*
Y38700D01*
X52621Y38481D02*
X52650Y38626D01*
X52565Y38345D02*
X52621Y38481D01*
X52483Y38222D02*
X52565Y38345D01*
X52378Y38117D02*
X52483Y38222D01*
X52255Y38035D02*
X52378Y38117D01*
X52119Y37979D02*
X52255Y38035D01*
X51974Y37950D02*
X52119Y37979D01*
X51826Y37950D02*
X51974D01*
X51681Y37979D02*
X51826Y37950D01*
X51545Y38035D02*
X51681Y37979D01*
X51422Y38117D02*
X51545Y38035D01*
X51317Y38222D02*
X51422Y38117D01*
X51235Y38345D02*
X51317Y38222D01*
X51179Y38481D02*
X51235Y38345D01*
X51150Y38626D02*
X51179Y38481D01*
X51150Y38626D02*
Y38700D01*
Y38774D01*
X51179Y38919D01*
X51235Y39055D01*
X51317Y39178D01*
X51422Y39283D01*
X51545Y39365D01*
X51681Y39421D01*
X51826Y39450D01*
X51974D01*
X64274D02*
X64419Y39421D01*
X64555Y39365D01*
X64678Y39283D01*
X64783Y39178D01*
X64865Y39055D01*
X64921Y38919D01*
X64950Y38774D01*
Y38700D02*
Y38774D01*
Y38626D02*
Y38700D01*
X64921Y38481D02*
X64950Y38626D01*
X64865Y38345D02*
X64921Y38481D01*
X64783Y38222D02*
X64865Y38345D01*
X64678Y38117D02*
X64783Y38222D01*
X64555Y38035D02*
X64678Y38117D01*
X64419Y37979D02*
X64555Y38035D01*
X64274Y37950D02*
X64419Y37979D01*
X64126Y37950D02*
X64274D01*
X63981Y37979D02*
X64126Y37950D01*
X63845Y38035D02*
X63981Y37979D01*
X63722Y38117D02*
X63845Y38035D01*
X63617Y38222D02*
X63722Y38117D01*
X63535Y38345D02*
X63617Y38222D01*
X63479Y38481D02*
X63535Y38345D01*
X63450Y38626D02*
X63479Y38481D01*
X63450Y38626D02*
Y38700D01*
Y38774D01*
X63479Y38919D01*
X63535Y39055D01*
X63617Y39178D01*
X63722Y39283D01*
X63845Y39365D01*
X63981Y39421D01*
X64126Y39450D01*
X64274D01*
X68628Y49442D02*
X68784Y49422D01*
X68550Y49442D02*
X68628Y49442D01*
X35441Y49442D02*
X68550D01*
X35285Y49421D02*
X35441Y49442D01*
X35133Y49381D02*
X35285Y49421D01*
X34988Y49320D02*
X35133Y49381D01*
X34852Y49242D02*
X34988Y49320D01*
X34727Y49146D02*
X34852Y49242D01*
X34616Y49035D02*
X34727Y49146D01*
X34520Y48910D02*
X34616Y49035D01*
X34441Y48774D02*
X34520Y48910D01*
X34381Y48628D02*
X34441Y48774D01*
X34341Y48476D02*
X34381Y48628D01*
X34320Y48321D02*
X34341Y48476D01*
X34320Y48242D02*
Y48321D01*
Y39434D02*
Y48242D01*
Y39434D02*
X34408Y39444D01*
X34577Y39446D01*
X34742Y39410D01*
X34895Y39337D01*
X35028Y39233D01*
X35134Y39101D01*
X35207Y38949D01*
X35245Y38784D01*
X35245Y38615D02*
X35245Y38784D01*
X35207Y38451D02*
X35245Y38615D01*
X35133Y38298D02*
X35207Y38451D01*
X35027Y38167D02*
X35133Y38298D01*
X34895Y38062D02*
X35027Y38167D01*
X34742Y37990D02*
X34895Y38062D01*
X34577Y37954D02*
X34742Y37990D01*
X34408Y37956D02*
X34577Y37954D01*
X34324Y37971D02*
X34408Y37956D01*
X34319Y37971D02*
X34324Y37971D01*
X34319Y35600D02*
Y37971D01*
Y35600D02*
X35200D01*
Y34800D02*
Y35600D01*
X34319Y34800D02*
X35200D01*
X34319D02*
X34319Y20828D01*
X34403Y20844D01*
X34573Y20846D01*
X34738Y20811D01*
X34892Y20739D01*
X35026Y20635D01*
X35133Y20503D01*
X35207Y20350D01*
X35245Y20185D01*
X35245Y20015D01*
X35207Y19850D02*
X35245Y20015D01*
X35133Y19698D02*
X35207Y19850D01*
X35026Y19566D02*
X35133Y19698D01*
X34893Y19461D02*
X35026Y19566D01*
X34739Y19389D02*
X34893Y19461D01*
X34573Y19354D02*
X34739Y19389D01*
X34404Y19356D02*
X34573Y19354D01*
X34320Y19372D02*
X34404Y19356D01*
X34320Y19142D02*
Y19372D01*
Y19142D02*
X34320Y19064D01*
X34341Y18908D01*
X34382Y18757D01*
X34443Y18612D01*
X34522Y18477D01*
X34618Y18353D01*
X34729Y18242D01*
X34853Y18147D01*
X34990Y18069D01*
X35135Y18010D01*
X35286Y17970D01*
X35442Y17950D01*
X35520Y17950D01*
X68550Y17950D01*
X68629D01*
X68785Y17971D01*
X68937Y18011D01*
X69082Y18071D01*
X69218Y18150D01*
X69343Y18246D01*
X69454Y18357D01*
X69550Y18482D01*
X69629Y18618D01*
X69689Y18763D01*
X69729Y18915D01*
X69750Y19071D01*
Y19150D01*
Y48250D01*
X69750Y48328D02*
X69750Y48250D01*
X69729Y48484D02*
X69750Y48328D01*
X69688Y48635D02*
X69729Y48484D01*
X69627Y48780D02*
X69688Y48635D01*
X69548Y48915D02*
X69627Y48780D01*
X69452Y49039D02*
X69548Y48915D01*
X69341Y49150D02*
X69452Y49039D01*
X69217Y49245D02*
X69341Y49150D01*
X69081Y49323D02*
X69217Y49245D01*
X68935Y49382D02*
X69081Y49323D01*
X68784Y49422D02*
X68935Y49382D01*
D108*
X67000Y30057D02*
D03*
Y34781D02*
D03*
D109*
Y33600D02*
D03*
Y32419D02*
D03*
Y31238D02*
D03*
D110*
X69246Y27448D02*
D03*
Y24046D02*
D03*
X67750D02*
D03*
Y27448D02*
D03*
D111*
X61500Y45550D02*
D03*
Y46550D02*
D03*
Y44550D02*
D03*
X38650Y40250D02*
D03*
X38850Y42600D02*
D03*
X37950D02*
D03*
X37050D02*
D03*
X38650Y41800D02*
D03*
X37850D02*
D03*
X38650Y41025D02*
D03*
X64400Y30000D02*
D03*
Y30950D02*
D03*
X68700Y26174D02*
D03*
Y25400D02*
D03*
D112*
X62363Y23950D02*
D03*
X63150D02*
D03*
D113*
X47650Y27200D02*
D03*
X48650D02*
D03*
X47650Y25225D02*
D03*
X48650D02*
D03*
X47650Y23250D02*
D03*
X48650D02*
D03*
X47650Y31150D02*
D03*
X48650D02*
D03*
X47650Y29175D02*
D03*
X48650D02*
D03*
D114*
X35600Y24300D02*
D03*
X39300Y42300D02*
D03*
X40800Y34400D02*
D03*
X40400Y34350D02*
D03*
X46650Y36350D02*
D03*
X38382Y34469D02*
D03*
X36500Y25800D02*
D03*
X41800Y45000D02*
D03*
X40350Y30750D02*
D03*
X40850D02*
D03*
X36900Y32400D02*
D03*
X36400D02*
D03*
X36350Y30850D02*
D03*
X38700Y38800D02*
D03*
X37381Y40581D02*
D03*
X57934Y21600D02*
D03*
X58700Y21550D02*
D03*
X36050Y41400D02*
D03*
X36000Y42000D02*
D03*
X36950Y43800D02*
D03*
X37850Y43500D02*
D03*
X65050Y24323D02*
D03*
X63872Y23828D02*
D03*
X66400Y25550D02*
D03*
X60550Y23250D02*
D03*
X60750Y23650D02*
D03*
X60950Y18850D02*
D03*
X61300Y20700D02*
D03*
X59400Y25267D02*
D03*
X60450Y24200D02*
D03*
X63300Y27050D02*
D03*
X63600Y27350D02*
D03*
X62900Y27500D02*
D03*
X64200Y27300D02*
D03*
X66400Y25950D02*
D03*
M02*
