G04*
G04 #@! TF.GenerationSoftware,Altium Limited,Altium Designer,20.2.6 (244)*
G04*
G04 Layer_Color=8388736*
%FSLAX24Y24*%
%MOIN*%
G70*
G04*
G04 #@! TF.SameCoordinates,2017631A-D77C-4579-BA5B-B5A4186395AE*
G04*
G04*
G04 #@! TF.FilePolarity,Negative*
G04*
G01*
G75*
%ADD11C,0.0100*%
%ADD17C,0.0080*%
%ADD51R,0.0380X0.0358*%
%ADD52R,0.0249X0.0461*%
%ADD53R,0.0355X0.0355*%
%ADD54R,0.0355X0.0355*%
%ADD55R,0.0358X0.0380*%
%ADD56R,0.0900X0.0709*%
%ADD57R,0.1040X0.0355*%
%ADD58R,0.1040X0.0316*%
%ADD59R,0.0906X0.0906*%
%ADD60O,0.0540X0.0178*%
%ADD61O,0.0178X0.0540*%
%ADD62R,0.0355X0.0394*%
%ADD63R,0.0710X0.0515*%
%ADD64R,0.0394X0.0355*%
%ADD65R,0.1024X0.1536*%
%ADD66R,0.0709X0.0900*%
%ADD67R,0.0257X0.0434*%
%ADD68O,0.0440X0.1240*%
%ADD69O,0.0540X0.0150*%
%ADD70R,0.1280X0.1280*%
%ADD71O,0.0150X0.0540*%
%ADD72R,0.0512X0.0591*%
%ADD73R,0.1457X0.1012*%
%ADD74R,0.0426X0.1012*%
%ADD75R,0.0740X0.0440*%
%ADD76R,0.0640X0.0740*%
%ADD77R,0.0640X0.0640*%
%ADD78R,0.0790X0.0650*%
%ADD79R,0.1040X0.0200*%
%ADD80R,0.0827X0.0394*%
%ADD81R,0.0394X0.0827*%
%ADD82R,0.0564X0.0564*%
%ADD83R,0.0591X0.0512*%
G04:AMPARAMS|DCode=84|XSize=54mil|YSize=84mil|CornerRadius=0mil|HoleSize=0mil|Usage=FLASHONLY|Rotation=270.000|XOffset=0mil|YOffset=0mil|HoleType=Round|Shape=Octagon|*
%AMOCTAGOND84*
4,1,8,0.0420,0.0135,0.0420,-0.0135,0.0285,-0.0270,-0.0285,-0.0270,-0.0420,-0.0135,-0.0420,0.0135,-0.0285,0.0270,0.0285,0.0270,0.0420,0.0135,0.0*
%
%ADD84OCTAGOND84*%

%ADD85R,0.0740X0.0540*%
G04:AMPARAMS|DCode=86|XSize=54mil|YSize=74mil|CornerRadius=0mil|HoleSize=0mil|Usage=FLASHONLY|Rotation=270.000|XOffset=0mil|YOffset=0mil|HoleType=Round|Shape=Octagon|*
%AMOCTAGOND86*
4,1,8,0.0370,0.0135,0.0370,-0.0135,0.0235,-0.0270,-0.0235,-0.0270,-0.0370,-0.0135,-0.0370,0.0135,-0.0235,0.0270,0.0235,0.0270,0.0370,0.0135,0.0*
%
%ADD86OCTAGOND86*%

G04:AMPARAMS|DCode=87|XSize=43.4mil|YSize=74.9mil|CornerRadius=11.8mil|HoleSize=0mil|Usage=FLASHONLY|Rotation=90.000|XOffset=0mil|YOffset=0mil|HoleType=Round|Shape=RoundedRectangle|*
%AMROUNDEDRECTD87*
21,1,0.0434,0.0512,0,0,90.0*
21,1,0.0197,0.0749,0,0,90.0*
1,1,0.0237,0.0256,0.0098*
1,1,0.0237,0.0256,-0.0098*
1,1,0.0237,-0.0256,-0.0098*
1,1,0.0237,-0.0256,0.0098*
%
%ADD87ROUNDEDRECTD87*%
%ADD88C,0.0550*%
%ADD89R,0.0550X0.0550*%
%ADD90C,0.0670*%
%ADD91R,0.0670X0.0670*%
%ADD92C,0.0640*%
D11*
X42520Y48230D02*
G03*
X42520Y48230I-200J0D01*
G01*
X44480D02*
G03*
X44480Y48230I-200J0D01*
G01*
X69750Y48250D02*
G03*
X68550Y49442I-1196J-4D01*
G01*
X35520D02*
G03*
X34320Y48242I0J-1200D01*
G01*
X68550Y17950D02*
G03*
X69750Y19150I0J1200D01*
G01*
X34320Y19142D02*
G03*
X35520Y17950I1196J4D01*
G01*
X34320Y19372D02*
G03*
X34319Y20828I180J728D01*
G01*
X34324Y37971D02*
G03*
X34325Y39429I176J729D01*
G01*
X64950Y20100D02*
G03*
X64950Y20100I-750J0D01*
G01*
X64950Y38700D02*
G03*
X64950Y38700I-750J0D01*
G01*
X43950Y38700D02*
G03*
X43950Y38700I-750J0D01*
G01*
Y20100D02*
G03*
X43950Y20100I-750J0D01*
G01*
X52650Y38700D02*
G03*
X52650Y38700I-750J0D01*
G01*
X52650Y20100D02*
G03*
X52650Y20100I-750J0D01*
G01*
X34320Y39434D02*
Y48242D01*
X35520Y49442D02*
X68550D01*
X69750Y19150D02*
Y48250D01*
X35520Y17950D02*
X68550D01*
X34320Y19142D02*
Y19372D01*
X34319Y35600D02*
Y37971D01*
Y35600D02*
X35200D01*
X34319Y34800D02*
X34319Y20828D01*
X63300Y34800D02*
Y35600D01*
X64900Y34800D02*
Y35600D01*
X63300D02*
X64900D01*
X63300Y34800D02*
X64900D01*
X51000D02*
X52600D01*
X51000Y35600D02*
X52600D01*
Y34800D02*
Y35600D01*
X51000Y34800D02*
Y35600D01*
X42300Y34800D02*
X43900D01*
X42300Y35600D02*
X43900D01*
Y34800D02*
Y35600D01*
X42300Y34800D02*
Y35600D01*
X35200Y34800D02*
Y35600D01*
X34319Y34800D02*
X35200D01*
D17*
X68550Y17900D02*
G03*
X68600Y17950I0J50D01*
G01*
D02*
G03*
X68550Y18000I-50J0D01*
G01*
X35520D02*
G03*
X35520Y17900I0J-50D01*
G01*
X68550D01*
X35520Y18000D02*
X68550D01*
D51*
X58250Y19853D02*
D03*
Y20447D02*
D03*
X59100Y19853D02*
D03*
Y20447D02*
D03*
X59850Y21937D02*
D03*
Y21344D02*
D03*
X57500Y21937D02*
D03*
Y21344D02*
D03*
X58350Y31097D02*
D03*
Y30503D02*
D03*
X38650Y24853D02*
D03*
Y25447D02*
D03*
X36930Y24900D02*
D03*
Y25493D02*
D03*
X36070Y24850D02*
D03*
Y25443D02*
D03*
X36850Y23647D02*
D03*
Y23053D02*
D03*
X36050Y23647D02*
D03*
Y23053D02*
D03*
X60300Y46853D02*
D03*
Y47447D02*
D03*
X58700Y41953D02*
D03*
Y42547D02*
D03*
X57950Y41953D02*
D03*
Y42547D02*
D03*
X44350Y44553D02*
D03*
Y45147D02*
D03*
X43300Y44553D02*
D03*
Y45147D02*
D03*
X42300Y44553D02*
D03*
Y45147D02*
D03*
X39650Y44097D02*
D03*
Y43503D02*
D03*
D52*
X60924Y20297D02*
D03*
X60176D02*
D03*
X60550Y19403D02*
D03*
X57224Y20347D02*
D03*
X56476D02*
D03*
X56850Y19453D02*
D03*
X57926Y43503D02*
D03*
X58674D02*
D03*
X58300Y44397D02*
D03*
X38874Y45197D02*
D03*
X38126D02*
D03*
X38500Y44303D02*
D03*
D53*
X59101Y21285D02*
D03*
X59098Y21915D02*
D03*
X58318Y21285D02*
D03*
X58315Y21915D02*
D03*
X58349Y32415D02*
D03*
X58351Y31785D02*
D03*
X37825Y24835D02*
D03*
X37822Y25465D02*
D03*
D54*
X69115Y21501D02*
D03*
X68485Y21499D02*
D03*
X69130Y22403D02*
D03*
X68500Y22400D02*
D03*
D55*
X67550Y21500D02*
D03*
X66957D02*
D03*
X67597Y22400D02*
D03*
X67003D02*
D03*
X61857Y24800D02*
D03*
X62450D02*
D03*
X60407Y33775D02*
D03*
X61000D02*
D03*
X38203Y43500D02*
D03*
X38797D02*
D03*
X38203Y46100D02*
D03*
X38797D02*
D03*
X43053Y32200D02*
D03*
X43647D02*
D03*
X61703Y33800D02*
D03*
X62297D02*
D03*
D56*
X66800Y28650D02*
D03*
X68532D02*
D03*
D57*
X67450Y25150D02*
D03*
Y26829D02*
D03*
Y24684D02*
D03*
Y26350D02*
D03*
D58*
Y25550D02*
D03*
Y25950D02*
D03*
D59*
X64250Y25750D02*
D03*
D60*
X63402Y25372D02*
D03*
Y25628D02*
D03*
Y25884D02*
D03*
Y26140D02*
D03*
X65098Y26138D02*
D03*
Y25882D02*
D03*
Y25626D02*
D03*
Y25370D02*
D03*
D61*
X64128Y24902D02*
D03*
X63872D02*
D03*
X64640D02*
D03*
X64384D02*
D03*
X64128Y26598D02*
D03*
X63872D02*
D03*
X64640D02*
D03*
X64384D02*
D03*
D62*
X61850Y25550D02*
D03*
X62401D02*
D03*
X60674Y27550D02*
D03*
X61226D02*
D03*
X60700Y26350D02*
D03*
X61251D02*
D03*
X60976Y24800D02*
D03*
X60424D02*
D03*
X56124Y44250D02*
D03*
X56676D02*
D03*
X54776Y27500D02*
D03*
X54224D02*
D03*
D63*
X62250D02*
D03*
Y26336D02*
D03*
D64*
X59400Y26426D02*
D03*
Y25874D02*
D03*
X58350Y33124D02*
D03*
Y33676D02*
D03*
X35250Y24874D02*
D03*
Y25426D02*
D03*
X57250Y41974D02*
D03*
Y42526D02*
D03*
X54150Y29726D02*
D03*
Y29174D02*
D03*
D65*
X63295Y28700D02*
D03*
X65500D02*
D03*
X61450Y29750D02*
D03*
X59245D02*
D03*
D66*
X65350Y32666D02*
D03*
Y30934D02*
D03*
X63450Y32616D02*
D03*
Y30884D02*
D03*
X59400Y33616D02*
D03*
Y31884D02*
D03*
D67*
X60976Y32951D02*
D03*
X61350D02*
D03*
X61724D02*
D03*
Y31849D02*
D03*
X61350D02*
D03*
X60976D02*
D03*
D68*
X56350Y31320D02*
D03*
Y33380D02*
D03*
D69*
X57495Y24541D02*
D03*
Y23359D02*
D03*
Y23556D02*
D03*
Y23753D02*
D03*
Y23950D02*
D03*
Y24147D02*
D03*
Y24344D02*
D03*
X59505Y24541D02*
D03*
Y24344D02*
D03*
Y24147D02*
D03*
Y23950D02*
D03*
Y23753D02*
D03*
Y23556D02*
D03*
Y23359D02*
D03*
D70*
X58500Y23950D02*
D03*
D71*
X59091Y22945D02*
D03*
X58894D02*
D03*
X58697D02*
D03*
X58500D02*
D03*
X58303D02*
D03*
X58106D02*
D03*
X57909D02*
D03*
Y24955D02*
D03*
X58106D02*
D03*
X58303D02*
D03*
X58500D02*
D03*
X58697D02*
D03*
X58894D02*
D03*
X59091D02*
D03*
D72*
X58400Y27450D02*
D03*
X59463D02*
D03*
D73*
X56500Y27634D02*
D03*
D74*
X55595Y29866D02*
D03*
X56500D02*
D03*
X57406D02*
D03*
D75*
X40428Y19650D02*
D03*
X37672D02*
D03*
X40328Y21550D02*
D03*
X37572D02*
D03*
D76*
X56100Y48500D02*
D03*
Y45500D02*
D03*
X58300Y48500D02*
D03*
Y45500D02*
D03*
D77*
X41250Y48550D02*
D03*
X45350D02*
D03*
X48650Y27200D02*
D03*
Y25225D02*
D03*
Y23250D02*
D03*
Y31150D02*
D03*
Y29175D02*
D03*
D78*
X43300Y46800D02*
D03*
X44280D02*
D03*
X42320D02*
D03*
D79*
X36100Y43790D02*
D03*
Y44070D02*
D03*
Y43510D02*
D03*
Y44350D02*
D03*
Y44630D02*
D03*
Y44910D02*
D03*
Y45190D02*
D03*
Y45470D02*
D03*
Y45750D02*
D03*
Y46030D02*
D03*
Y46310D02*
D03*
Y46590D02*
D03*
Y46870D02*
D03*
D80*
X41960Y28216D02*
D03*
Y29716D02*
D03*
Y31216D02*
D03*
Y32216D02*
D03*
Y27716D02*
D03*
D03*
Y28716D02*
D03*
Y29216D02*
D03*
Y30216D02*
D03*
Y30716D02*
D03*
Y31716D02*
D03*
D81*
X35382Y26619D02*
D03*
X35882D02*
D03*
X36381D02*
D03*
X36881D02*
D03*
X37381D02*
D03*
X37882D02*
D03*
X38382D02*
D03*
X38881D02*
D03*
X39381D02*
D03*
X39881D02*
D03*
X40381D02*
D03*
X34881Y33312D02*
D03*
D03*
X35382D02*
D03*
X35882D02*
D03*
X36381D02*
D03*
X36881D02*
D03*
X37381D02*
D03*
X37882D02*
D03*
X38382D02*
D03*
X38881D02*
D03*
X39381D02*
D03*
X39881D02*
D03*
X40381D02*
D03*
X40882D02*
D03*
X34881Y26619D02*
D03*
D03*
X40882D02*
D03*
X41382D02*
D03*
Y33312D02*
D03*
D82*
X36632Y28366D02*
D03*
D03*
Y29350D02*
D03*
Y30334D02*
D03*
Y28366D02*
D03*
D03*
Y29350D02*
D03*
Y30334D02*
D03*
X37616Y28366D02*
D03*
D03*
Y29350D02*
D03*
Y30334D02*
D03*
X38600Y28366D02*
D03*
D03*
Y29350D02*
D03*
Y30334D02*
D03*
D83*
X66000Y25064D02*
D03*
Y24001D02*
D03*
X54100Y31051D02*
D03*
Y32114D02*
D03*
D84*
X67000Y30057D02*
D03*
Y34781D02*
D03*
D85*
Y33600D02*
D03*
D86*
Y32419D02*
D03*
Y31238D02*
D03*
D87*
X69246Y27448D02*
D03*
Y24046D02*
D03*
X67750D02*
D03*
Y27448D02*
D03*
D88*
X61500Y45550D02*
D03*
Y46550D02*
D03*
Y44550D02*
D03*
D89*
Y47550D02*
D03*
D90*
X62363Y23950D02*
D03*
D91*
X63150D02*
D03*
D92*
X47650Y27200D02*
D03*
X46650D02*
D03*
X47650Y25225D02*
D03*
X46650D02*
D03*
X47650Y23250D02*
D03*
X46650D02*
D03*
X47650Y31150D02*
D03*
X46650D02*
D03*
X47650Y29175D02*
D03*
X46650D02*
D03*
M02*
