G04*
G04 #@! TF.GenerationSoftware,Altium Limited,Altium Designer,20.2.6 (244)*
G04*
G04 Layer_Color=16711935*
%FSLAX24Y24*%
%MOIN*%
G70*
G04*
G04 #@! TF.SameCoordinates,2017631A-D77C-4579-BA5B-B5A4186395AE*
G04*
G04*
G04 #@! TF.FilePolarity,Positive*
G04*
G01*
G75*
%ADD11C,0.0100*%
%ADD17C,0.0080*%
G36*
X37088Y25393D02*
X36773D01*
Y25512D01*
X37088D01*
Y25393D01*
D02*
G37*
G36*
X35407Y25347D02*
X35093D01*
Y25465D01*
X35407D01*
Y25347D01*
D02*
G37*
G36*
X36228Y25343D02*
X35913D01*
Y25462D01*
X36228D01*
Y25343D01*
D02*
G37*
G36*
X37088Y24882D02*
X36773D01*
Y25000D01*
X37088D01*
Y24882D01*
D02*
G37*
G36*
X35407Y24835D02*
X35093D01*
Y24953D01*
X35407D01*
Y24835D01*
D02*
G37*
G36*
X36228Y24832D02*
X35913D01*
Y24950D01*
X36228D01*
Y24832D01*
D02*
G37*
G36*
X37007Y23547D02*
X36693D01*
Y23665D01*
X37007D01*
Y23547D01*
D02*
G37*
G36*
X36207D02*
X35893D01*
Y23665D01*
X36207D01*
Y23547D01*
D02*
G37*
G36*
X37007Y23035D02*
X36693D01*
Y23153D01*
X37007D01*
Y23035D01*
D02*
G37*
G36*
X36207D02*
X35893D01*
Y23153D01*
X36207D01*
Y23035D01*
D02*
G37*
G36*
X54307Y29647D02*
X53993D01*
Y29765D01*
X54307D01*
Y29647D01*
D02*
G37*
G36*
Y29135D02*
X53993D01*
Y29253D01*
X54307D01*
Y29135D01*
D02*
G37*
G36*
X54815Y27343D02*
X54697D01*
Y27657D01*
X54815D01*
Y27343D01*
D02*
G37*
G36*
X54303D02*
X54185D01*
Y27657D01*
X54303D01*
Y27343D01*
D02*
G37*
G36*
X38807Y25347D02*
X38493D01*
Y25465D01*
X38807D01*
Y25347D01*
D02*
G37*
G36*
Y24835D02*
X38493D01*
Y24953D01*
X38807D01*
Y24835D01*
D02*
G37*
G36*
X56929Y19526D02*
X56771D01*
Y19349D01*
X56929D01*
Y19526D01*
D02*
G37*
G36*
X57303Y20274D02*
X57145D01*
Y20451D01*
X57303D01*
Y20274D01*
D02*
G37*
G36*
X56555D02*
X56397D01*
Y20451D01*
X56555D01*
Y20274D01*
D02*
G37*
G36*
X57657Y21326D02*
X57343D01*
Y21444D01*
X57657D01*
Y21326D01*
D02*
G37*
G36*
Y21956D02*
X57343D01*
Y21838D01*
X57657D01*
Y21956D01*
D02*
G37*
G36*
X38815Y45943D02*
X38697D01*
Y46257D01*
X38815D01*
Y45943D01*
D02*
G37*
G36*
X38303D02*
X38185D01*
Y46257D01*
X38303D01*
Y45943D01*
D02*
G37*
G36*
X38953Y45124D02*
X38795D01*
Y45301D01*
X38953D01*
Y45124D01*
D02*
G37*
G36*
X38205D02*
X38047D01*
Y45301D01*
X38205D01*
Y45124D01*
D02*
G37*
G36*
X42457Y45047D02*
X42143D01*
Y45165D01*
X42457D01*
Y45047D01*
D02*
G37*
G36*
Y44535D02*
X42143D01*
Y44653D01*
X42457D01*
Y44535D01*
D02*
G37*
G36*
X38579Y44199D02*
X38421D01*
Y44376D01*
X38579D01*
Y44199D01*
D02*
G37*
G36*
X39807Y43997D02*
X39493D01*
Y44115D01*
X39807D01*
Y43997D01*
D02*
G37*
G36*
Y43485D02*
X39493D01*
Y43603D01*
X39807D01*
Y43485D01*
D02*
G37*
G36*
X38815Y43343D02*
X38697D01*
Y43657D01*
X38815D01*
Y43343D01*
D02*
G37*
G36*
X38303D02*
X38185D01*
Y43657D01*
X38303D01*
Y43343D01*
D02*
G37*
G36*
X44507Y45047D02*
X44193D01*
Y45165D01*
X44507D01*
Y45047D01*
D02*
G37*
G36*
X43457D02*
X43143D01*
Y45165D01*
X43457D01*
Y45047D01*
D02*
G37*
G36*
X44507Y44535D02*
X44193D01*
Y44653D01*
X44507D01*
Y44535D01*
D02*
G37*
G36*
X43457D02*
X43143D01*
Y44653D01*
X43457D01*
Y44535D01*
D02*
G37*
G36*
X56715Y44093D02*
X56597D01*
Y44407D01*
X56715D01*
Y44093D01*
D02*
G37*
G36*
X56203D02*
X56085D01*
Y44407D01*
X56203D01*
Y44093D01*
D02*
G37*
G36*
X57407Y42447D02*
X57093D01*
Y42565D01*
X57407D01*
Y42447D01*
D02*
G37*
G36*
Y41935D02*
X57093D01*
Y42053D01*
X57407D01*
Y41935D01*
D02*
G37*
G36*
X43665Y32043D02*
X43547D01*
Y32357D01*
X43665D01*
Y32043D01*
D02*
G37*
G36*
X43153D02*
X43035D01*
Y32357D01*
X43153D01*
Y32043D01*
D02*
G37*
G36*
X60457Y47347D02*
X60143D01*
Y47465D01*
X60457D01*
Y47347D01*
D02*
G37*
G36*
Y46835D02*
X60143D01*
Y46953D01*
X60457D01*
Y46835D01*
D02*
G37*
G36*
X58379Y44324D02*
X58221D01*
Y44501D01*
X58379D01*
Y44324D01*
D02*
G37*
G36*
X58753Y43399D02*
X58595D01*
Y43576D01*
X58753D01*
Y43399D01*
D02*
G37*
G36*
X58005D02*
X57847D01*
Y43576D01*
X58005D01*
Y43399D01*
D02*
G37*
G36*
X58857Y42447D02*
X58543D01*
Y42565D01*
X58857D01*
Y42447D01*
D02*
G37*
G36*
X58107D02*
X57793D01*
Y42565D01*
X58107D01*
Y42447D01*
D02*
G37*
G36*
X58857Y41935D02*
X58543D01*
Y42053D01*
X58857D01*
Y41935D01*
D02*
G37*
G36*
X58107D02*
X57793D01*
Y42053D01*
X58107D01*
Y41935D01*
D02*
G37*
G36*
X62315Y33643D02*
X62197D01*
Y33957D01*
X62315D01*
Y33643D01*
D02*
G37*
G36*
X61803D02*
X61685D01*
Y33957D01*
X61803D01*
Y33643D01*
D02*
G37*
G36*
X61019Y33618D02*
X60901D01*
Y33933D01*
X61019D01*
Y33618D01*
D02*
G37*
G36*
X60507D02*
X60389D01*
Y33933D01*
X60507D01*
Y33618D01*
D02*
G37*
G36*
X58507Y33597D02*
X58193D01*
Y33715D01*
X58507D01*
Y33597D01*
D02*
G37*
G36*
Y33085D02*
X58193D01*
Y33203D01*
X58507D01*
Y33085D01*
D02*
G37*
G36*
Y30997D02*
X58193D01*
Y31115D01*
X58507D01*
Y30997D01*
D02*
G37*
G36*
Y30485D02*
X58193D01*
Y30603D01*
X58507D01*
Y30485D01*
D02*
G37*
G36*
X61265Y27393D02*
X61147D01*
Y27707D01*
X61265D01*
Y27393D01*
D02*
G37*
G36*
X60753D02*
X60635D01*
Y27707D01*
X60753D01*
Y27393D01*
D02*
G37*
G36*
X59557Y26347D02*
X59243D01*
Y26465D01*
X59557D01*
Y26347D01*
D02*
G37*
G36*
X61291Y26193D02*
X61172D01*
Y26507D01*
X61291D01*
Y26193D01*
D02*
G37*
G36*
X60779D02*
X60661D01*
Y26507D01*
X60779D01*
Y26193D01*
D02*
G37*
G36*
X59557Y25835D02*
X59243D01*
Y25953D01*
X59557D01*
Y25835D01*
D02*
G37*
G36*
X62441Y25393D02*
X62322D01*
Y25707D01*
X62441D01*
Y25393D01*
D02*
G37*
G36*
X61929D02*
X61811D01*
Y25707D01*
X61929D01*
Y25393D01*
D02*
G37*
G36*
X62468Y24643D02*
X62350D01*
Y24957D01*
X62468D01*
Y24643D01*
D02*
G37*
G36*
X61957D02*
X61838D01*
Y24957D01*
X61957D01*
Y24643D01*
D02*
G37*
G36*
X61015D02*
X60897D01*
Y24957D01*
X61015D01*
Y24643D01*
D02*
G37*
G36*
X60503D02*
X60385D01*
Y24957D01*
X60503D01*
Y24643D01*
D02*
G37*
G36*
X67615Y22243D02*
X67497D01*
Y22557D01*
X67615D01*
Y22243D01*
D02*
G37*
G36*
X67103D02*
X66985D01*
Y22557D01*
X67103D01*
Y22243D01*
D02*
G37*
G36*
X60007Y21838D02*
X59693D01*
Y21956D01*
X60007D01*
Y21838D01*
D02*
G37*
G36*
X67568Y21343D02*
X67450D01*
Y21657D01*
X67568D01*
Y21343D01*
D02*
G37*
G36*
X67057D02*
X66938D01*
Y21657D01*
X67057D01*
Y21343D01*
D02*
G37*
G36*
X60007Y21326D02*
X59693D01*
Y21444D01*
X60007D01*
Y21326D01*
D02*
G37*
G36*
X59257Y20347D02*
X58943D01*
Y20465D01*
X59257D01*
Y20347D01*
D02*
G37*
G36*
X58407D02*
X58093D01*
Y20465D01*
X58407D01*
Y20347D01*
D02*
G37*
G36*
X61003Y20224D02*
X60845D01*
Y20401D01*
X61003D01*
Y20224D01*
D02*
G37*
G36*
X60255D02*
X60097D01*
Y20401D01*
X60255D01*
Y20224D01*
D02*
G37*
G36*
X59257Y19835D02*
X58943D01*
Y19953D01*
X59257D01*
Y19835D01*
D02*
G37*
G36*
X58407D02*
X58093D01*
Y19953D01*
X58407D01*
Y19835D01*
D02*
G37*
G36*
X60629Y19299D02*
X60471D01*
Y19476D01*
X60629D01*
Y19299D01*
D02*
G37*
D11*
X42520Y48230D02*
G03*
X42520Y48230I-200J0D01*
G01*
X44480D02*
G03*
X44480Y48230I-200J0D01*
G01*
X69750Y48250D02*
G03*
X68550Y49442I-1196J-4D01*
G01*
X35520D02*
G03*
X34320Y48242I0J-1200D01*
G01*
X68550Y17950D02*
G03*
X69750Y19150I0J1200D01*
G01*
X34320Y19142D02*
G03*
X35520Y17950I1196J4D01*
G01*
X34320Y19372D02*
G03*
X34319Y20828I180J728D01*
G01*
X34324Y37971D02*
G03*
X34325Y39429I176J729D01*
G01*
X64950Y20100D02*
G03*
X64950Y20100I-750J0D01*
G01*
X64950Y38700D02*
G03*
X64950Y38700I-750J0D01*
G01*
X43950Y38700D02*
G03*
X43950Y38700I-750J0D01*
G01*
Y20100D02*
G03*
X43950Y20100I-750J0D01*
G01*
X52650Y38700D02*
G03*
X52650Y38700I-750J0D01*
G01*
X52650Y20100D02*
G03*
X52650Y20100I-750J0D01*
G01*
X34320Y39434D02*
Y48242D01*
X35520Y49442D02*
X68550D01*
X69750Y19150D02*
Y48250D01*
X35520Y17950D02*
X68550D01*
X34320Y19142D02*
Y19372D01*
X34319Y35600D02*
Y37971D01*
Y35600D02*
X35200D01*
X34319Y34800D02*
X34319Y20828D01*
X63300Y34800D02*
Y35600D01*
X64900Y34800D02*
Y35600D01*
X63300D02*
X64900D01*
X63300Y34800D02*
X64900D01*
X51000D02*
X52600D01*
X51000Y35600D02*
X52600D01*
Y34800D02*
Y35600D01*
X51000Y34800D02*
Y35600D01*
X42300Y34800D02*
X43900D01*
X42300Y35600D02*
X43900D01*
Y34800D02*
Y35600D01*
X42300Y34800D02*
Y35600D01*
X35200Y34800D02*
Y35600D01*
X34319Y34800D02*
X35200D01*
D17*
X68550Y17900D02*
G03*
X68600Y17950I0J50D01*
G01*
D02*
G03*
X68550Y18000I-50J0D01*
G01*
X35520D02*
G03*
X35520Y17900I0J-50D01*
G01*
X68550D01*
X35520Y18000D02*
X68550D01*
M02*
