G04*
G04 #@! TF.GenerationSoftware,Altium Limited,Altium Designer,20.2.6 (244)*
G04*
G04 Layer_Color=255*
%FSLAX24Y24*%
%MOIN*%
G70*
G04*
G04 #@! TF.SameCoordinates,2017631A-D77C-4579-BA5B-B5A4186395AE*
G04*
G04*
G04 #@! TF.FilePolarity,Positive*
G04*
G01*
G75*
%ADD11C,0.0100*%
%ADD17C,0.0080*%
%ADD18R,0.0340X0.0318*%
%ADD19R,0.0209X0.0421*%
%ADD20R,0.0315X0.0315*%
%ADD21R,0.0315X0.0315*%
%ADD22R,0.0318X0.0340*%
%ADD23R,0.0860X0.0669*%
%ADD24R,0.1000X0.0315*%
%ADD25R,0.1000X0.0276*%
%ADD26R,0.0866X0.0866*%
%ADD27O,0.0500X0.0138*%
%ADD28O,0.0138X0.0500*%
%ADD29R,0.0315X0.0354*%
%ADD30R,0.0670X0.0475*%
%ADD31R,0.0354X0.0315*%
%ADD32R,0.0984X0.1496*%
%ADD33R,0.0669X0.0860*%
%ADD34R,0.0217X0.0394*%
%ADD35O,0.0400X0.1200*%
%ADD36O,0.0500X0.0110*%
%ADD37R,0.1240X0.1240*%
%ADD38O,0.0110X0.0500*%
%ADD39R,0.0472X0.0551*%
%ADD40R,0.1417X0.0972*%
%ADD41R,0.0386X0.0972*%
%ADD42R,0.0700X0.0400*%
%ADD43R,0.0600X0.0700*%
%ADD44R,0.0600X0.0600*%
%ADD45R,0.0750X0.0610*%
%ADD46R,0.1000X0.0160*%
%ADD47R,0.0787X0.0354*%
%ADD48R,0.0354X0.0787*%
%ADD49R,0.0524X0.0524*%
%ADD50R,0.0551X0.0472*%
G04:AMPARAMS|DCode=97|XSize=50mil|YSize=80mil|CornerRadius=0mil|HoleSize=0mil|Usage=FLASHONLY|Rotation=270.000|XOffset=0mil|YOffset=0mil|HoleType=Round|Shape=Octagon|*
%AMOCTAGOND97*
4,1,8,0.0400,0.0125,0.0400,-0.0125,0.0275,-0.0250,-0.0275,-0.0250,-0.0400,-0.0125,-0.0400,0.0125,-0.0275,0.0250,0.0275,0.0250,0.0400,0.0125,0.0*
%
%ADD97OCTAGOND97*%

%ADD98R,0.0700X0.0500*%
G04:AMPARAMS|DCode=99|XSize=50mil|YSize=70mil|CornerRadius=0mil|HoleSize=0mil|Usage=FLASHONLY|Rotation=270.000|XOffset=0mil|YOffset=0mil|HoleType=Round|Shape=Octagon|*
%AMOCTAGOND99*
4,1,8,0.0350,0.0125,0.0350,-0.0125,0.0225,-0.0250,-0.0225,-0.0250,-0.0350,-0.0125,-0.0350,0.0125,-0.0225,0.0250,0.0225,0.0250,0.0350,0.0125,0.0*
%
%ADD99OCTAGOND99*%

G04:AMPARAMS|DCode=100|XSize=39.4mil|YSize=70.9mil|CornerRadius=9.8mil|HoleSize=0mil|Usage=FLASHONLY|Rotation=90.000|XOffset=0mil|YOffset=0mil|HoleType=Round|Shape=RoundedRectangle|*
%AMROUNDEDRECTD100*
21,1,0.0394,0.0512,0,0,90.0*
21,1,0.0197,0.0709,0,0,90.0*
1,1,0.0197,0.0256,0.0098*
1,1,0.0197,0.0256,-0.0098*
1,1,0.0197,-0.0256,-0.0098*
1,1,0.0197,-0.0256,0.0098*
%
%ADD100ROUNDEDRECTD100*%
%ADD101C,0.0510*%
%ADD102R,0.0510X0.0510*%
%ADD103C,0.0630*%
%ADD104R,0.0630X0.0630*%
%ADD105C,0.0600*%
D11*
X42520Y48230D02*
G03*
X42520Y48230I-200J0D01*
G01*
X44480D02*
G03*
X44480Y48230I-200J0D01*
G01*
X69750Y48250D02*
G03*
X68550Y49442I-1196J-4D01*
G01*
X35520D02*
G03*
X34320Y48242I0J-1200D01*
G01*
X68550Y17950D02*
G03*
X69750Y19150I0J1200D01*
G01*
X34320Y19142D02*
G03*
X35520Y17950I1196J4D01*
G01*
X34320Y19372D02*
G03*
X34319Y20828I180J728D01*
G01*
X34324Y37971D02*
G03*
X34325Y39429I176J729D01*
G01*
X64950Y20100D02*
G03*
X64950Y20100I-750J0D01*
G01*
X64950Y38700D02*
G03*
X64950Y38700I-750J0D01*
G01*
X43950Y38700D02*
G03*
X43950Y38700I-750J0D01*
G01*
Y20100D02*
G03*
X43950Y20100I-750J0D01*
G01*
X52650Y38700D02*
G03*
X52650Y38700I-750J0D01*
G01*
X52650Y20100D02*
G03*
X52650Y20100I-750J0D01*
G01*
X34320Y39434D02*
Y48242D01*
X35520Y49442D02*
X68550D01*
X69750Y19150D02*
Y48250D01*
X35520Y17950D02*
X68550D01*
X34320Y19142D02*
Y19372D01*
X34319Y35600D02*
Y37971D01*
Y35600D02*
X35200D01*
X34319Y34800D02*
X34319Y20828D01*
X63300Y34800D02*
Y35600D01*
X64900Y34800D02*
Y35600D01*
X63300D02*
X64900D01*
X63300Y34800D02*
X64900D01*
X51000D02*
X52600D01*
X51000Y35600D02*
X52600D01*
Y34800D02*
Y35600D01*
X51000Y34800D02*
Y35600D01*
X42300Y34800D02*
X43900D01*
X42300Y35600D02*
X43900D01*
Y34800D02*
Y35600D01*
X42300Y34800D02*
Y35600D01*
X35200Y34800D02*
Y35600D01*
X34319Y34800D02*
X35200D01*
D17*
X68550Y17900D02*
G03*
X68600Y17950I0J50D01*
G01*
D02*
G03*
X68550Y18000I-50J0D01*
G01*
X35520D02*
G03*
X35520Y17900I0J-50D01*
G01*
X68550D01*
X35520Y18000D02*
X68550D01*
D18*
X58250Y19853D02*
D03*
Y20447D02*
D03*
X59100Y19853D02*
D03*
Y20447D02*
D03*
X59850Y21937D02*
D03*
Y21344D02*
D03*
X57500Y21937D02*
D03*
Y21344D02*
D03*
X58350Y31097D02*
D03*
Y30503D02*
D03*
X38650Y24853D02*
D03*
Y25447D02*
D03*
X36930Y24900D02*
D03*
Y25493D02*
D03*
X36070Y24850D02*
D03*
Y25443D02*
D03*
X36850Y23647D02*
D03*
Y23053D02*
D03*
X36050Y23647D02*
D03*
Y23053D02*
D03*
X60300Y46853D02*
D03*
Y47447D02*
D03*
X58700Y41953D02*
D03*
Y42547D02*
D03*
X57950Y41953D02*
D03*
Y42547D02*
D03*
X44350Y44553D02*
D03*
Y45147D02*
D03*
X43300Y44553D02*
D03*
Y45147D02*
D03*
X42300Y44553D02*
D03*
Y45147D02*
D03*
X39650Y44097D02*
D03*
Y43503D02*
D03*
D19*
X60924Y20297D02*
D03*
X60176D02*
D03*
X60550Y19403D02*
D03*
X57224Y20347D02*
D03*
X56476D02*
D03*
X56850Y19453D02*
D03*
X57926Y43503D02*
D03*
X58674D02*
D03*
X58300Y44397D02*
D03*
X38874Y45197D02*
D03*
X38126D02*
D03*
X38500Y44303D02*
D03*
D20*
X59101Y21285D02*
D03*
X59098Y21915D02*
D03*
X58318Y21285D02*
D03*
X58315Y21915D02*
D03*
X58349Y32415D02*
D03*
X58351Y31785D02*
D03*
X37825Y24835D02*
D03*
X37822Y25465D02*
D03*
D21*
X69115Y21501D02*
D03*
X68485Y21499D02*
D03*
X69130Y22403D02*
D03*
X68500Y22400D02*
D03*
D22*
X67550Y21500D02*
D03*
X66957D02*
D03*
X67597Y22400D02*
D03*
X67003D02*
D03*
X61857Y24800D02*
D03*
X62450D02*
D03*
X60407Y33775D02*
D03*
X61000D02*
D03*
X38203Y43500D02*
D03*
X38797D02*
D03*
X38203Y46100D02*
D03*
X38797D02*
D03*
X43053Y32200D02*
D03*
X43647D02*
D03*
X61703Y33800D02*
D03*
X62297D02*
D03*
D23*
X66800Y28650D02*
D03*
X68532D02*
D03*
D24*
X67450Y25150D02*
D03*
Y26829D02*
D03*
Y24684D02*
D03*
Y26350D02*
D03*
D25*
Y25550D02*
D03*
Y25950D02*
D03*
D26*
X64250Y25750D02*
D03*
D27*
X63402Y25372D02*
D03*
Y25628D02*
D03*
Y25884D02*
D03*
Y26140D02*
D03*
X65098Y26138D02*
D03*
Y25882D02*
D03*
Y25626D02*
D03*
Y25370D02*
D03*
D28*
X64128Y24902D02*
D03*
X63872D02*
D03*
X64640D02*
D03*
X64384D02*
D03*
X64128Y26598D02*
D03*
X63872D02*
D03*
X64640D02*
D03*
X64384D02*
D03*
D29*
X61850Y25550D02*
D03*
X62401D02*
D03*
X60674Y27550D02*
D03*
X61226D02*
D03*
X60700Y26350D02*
D03*
X61251D02*
D03*
X60976Y24800D02*
D03*
X60424D02*
D03*
X56124Y44250D02*
D03*
X56676D02*
D03*
X54776Y27500D02*
D03*
X54224D02*
D03*
D30*
X62250D02*
D03*
Y26336D02*
D03*
D31*
X59400Y26426D02*
D03*
Y25874D02*
D03*
X58350Y33124D02*
D03*
Y33676D02*
D03*
X35250Y24874D02*
D03*
Y25426D02*
D03*
X57250Y41974D02*
D03*
Y42526D02*
D03*
X54150Y29726D02*
D03*
Y29174D02*
D03*
D32*
X63295Y28700D02*
D03*
X65500D02*
D03*
X61450Y29750D02*
D03*
X59245D02*
D03*
D33*
X65350Y32666D02*
D03*
Y30934D02*
D03*
X63450Y32616D02*
D03*
Y30884D02*
D03*
X59400Y33616D02*
D03*
Y31884D02*
D03*
D34*
X60976Y32951D02*
D03*
X61350D02*
D03*
X61724D02*
D03*
Y31849D02*
D03*
X61350D02*
D03*
X60976D02*
D03*
D35*
X56350Y31320D02*
D03*
Y33380D02*
D03*
D36*
X57495Y24541D02*
D03*
Y23359D02*
D03*
Y23556D02*
D03*
Y23753D02*
D03*
Y23950D02*
D03*
Y24147D02*
D03*
Y24344D02*
D03*
X59505Y24541D02*
D03*
Y24344D02*
D03*
Y24147D02*
D03*
Y23950D02*
D03*
Y23753D02*
D03*
Y23556D02*
D03*
Y23359D02*
D03*
D37*
X58500Y23950D02*
D03*
D38*
X59091Y22945D02*
D03*
X58894D02*
D03*
X58697D02*
D03*
X58500D02*
D03*
X58303D02*
D03*
X58106D02*
D03*
X57909D02*
D03*
Y24955D02*
D03*
X58106D02*
D03*
X58303D02*
D03*
X58500D02*
D03*
X58697D02*
D03*
X58894D02*
D03*
X59091D02*
D03*
D39*
X58400Y27450D02*
D03*
X59463D02*
D03*
D40*
X56500Y27634D02*
D03*
D41*
X55595Y29866D02*
D03*
X56500D02*
D03*
X57406D02*
D03*
D42*
X40428Y19650D02*
D03*
X37672D02*
D03*
X40328Y21550D02*
D03*
X37572D02*
D03*
D43*
X56100Y48500D02*
D03*
Y45500D02*
D03*
X58300Y48500D02*
D03*
Y45500D02*
D03*
D44*
X41250Y48550D02*
D03*
X45350D02*
D03*
X48650Y27200D02*
D03*
Y25225D02*
D03*
Y23250D02*
D03*
Y31150D02*
D03*
Y29175D02*
D03*
D45*
X43300Y46800D02*
D03*
X44280D02*
D03*
X42320D02*
D03*
D46*
X36100Y43790D02*
D03*
Y44070D02*
D03*
Y43510D02*
D03*
Y44350D02*
D03*
Y44630D02*
D03*
Y44910D02*
D03*
Y45190D02*
D03*
Y45470D02*
D03*
Y45750D02*
D03*
Y46030D02*
D03*
Y46310D02*
D03*
Y46590D02*
D03*
Y46870D02*
D03*
D47*
X41960Y28216D02*
D03*
Y29716D02*
D03*
Y31216D02*
D03*
Y32216D02*
D03*
Y27716D02*
D03*
D03*
Y28716D02*
D03*
Y29216D02*
D03*
Y30216D02*
D03*
Y30716D02*
D03*
Y31716D02*
D03*
D48*
X35382Y26619D02*
D03*
X35882D02*
D03*
X36381D02*
D03*
X36881D02*
D03*
X37381D02*
D03*
X37882D02*
D03*
X38382D02*
D03*
X38881D02*
D03*
X39381D02*
D03*
X39881D02*
D03*
X40381D02*
D03*
X34881Y33312D02*
D03*
D03*
X35382D02*
D03*
X35882D02*
D03*
X36381D02*
D03*
X36881D02*
D03*
X37381D02*
D03*
X37882D02*
D03*
X38382D02*
D03*
X38881D02*
D03*
X39381D02*
D03*
X39881D02*
D03*
X40381D02*
D03*
X40882D02*
D03*
X34881Y26619D02*
D03*
D03*
X40882D02*
D03*
X41382D02*
D03*
Y33312D02*
D03*
D49*
X36632Y28366D02*
D03*
D03*
Y29350D02*
D03*
Y30334D02*
D03*
Y28366D02*
D03*
D03*
Y29350D02*
D03*
Y30334D02*
D03*
X37616Y28366D02*
D03*
D03*
Y29350D02*
D03*
Y30334D02*
D03*
X38600Y28366D02*
D03*
D03*
Y29350D02*
D03*
Y30334D02*
D03*
D50*
X66000Y25064D02*
D03*
Y24001D02*
D03*
X54100Y31051D02*
D03*
Y32114D02*
D03*
D97*
X67000Y30057D02*
D03*
Y34781D02*
D03*
D98*
Y33600D02*
D03*
D99*
Y32419D02*
D03*
Y31238D02*
D03*
D100*
X69246Y27448D02*
D03*
Y24046D02*
D03*
X67750D02*
D03*
Y27448D02*
D03*
D101*
X61500Y45550D02*
D03*
Y46550D02*
D03*
Y44550D02*
D03*
D102*
Y47550D02*
D03*
D103*
X62363Y23950D02*
D03*
D104*
X63150D02*
D03*
D105*
X47650Y27200D02*
D03*
X46650D02*
D03*
X47650Y25225D02*
D03*
X46650D02*
D03*
X47650Y23250D02*
D03*
X46650D02*
D03*
X47650Y31150D02*
D03*
X46650D02*
D03*
X47650Y29175D02*
D03*
X46650D02*
D03*
M02*
