M48
;Layer_Color=9474304
;FILE_FORMAT=2:4
INCH,LZ
;TYPE=PLATED
T1F00S00C0.0160
T3F00S00C0.0280
T4F00S00C0.0300
T7F00S00C0.0394
%
T01
X063872Y023828
X06505Y024323
X0664Y02555
Y02595
X0642Y0273
X0636Y02735
X0633Y02705
X0629Y0275
X0594Y025267
X06045Y0242
X06075Y02365
X06055Y02325
X0613Y0207
X06095Y01885
X0587Y02155
X057934Y0216
X037825Y024375
X03693Y02452
X03607Y02442
X0356Y0243
X0365Y0258
X035382Y027668
X03635Y03085
X04035Y03075
X04085
X0408Y0344
X0404Y03435
X038382Y034469
X0369Y0324
X0364
X0387Y0388
X037381Y040581
X03605Y0414
X036Y042
X03695Y0438
X0371Y04435
X03785Y0435
X0393Y0423
X042292Y044092
X0433Y0441
X04435
X0418Y045
X04665Y03635
T03
X0687Y0254
Y026174
X0644Y03
Y03095
X05645Y02155
X055831Y021048
X0551Y02155
X03865Y04025
Y041025
Y0418
X03785
X03795Y0426
X03885
X03705
X038203Y046697
X0615Y04655
Y04555
Y04455
X0593Y03545
X058367
X057433
X0565
Y03435
X057433
X058367
X0593
X0615Y04755
T04
X04765Y02325
X04865
Y025225
X04765
Y0272
X04865
Y029175
X04765
Y03115
X04865
X04665
Y029175
Y0272
Y025225
Y02325
T07
X06315Y02395
X062363
M30
