G04*
G04 #@! TF.GenerationSoftware,Altium Limited,Altium Designer,20.2.6 (244)*
G04*
G04 Layer_Color=32896*
%FSLAX24Y24*%
%MOIN*%
G70*
G04*
G04 #@! TF.SameCoordinates,2017631A-D77C-4579-BA5B-B5A4186395AE*
G04*
G04*
G04 #@! TF.FilePolarity,Positive*
G04*
G01*
G75*
%ADD11C,0.0100*%
%ADD17C,0.0080*%
G36*
X68233Y35486D02*
X68236Y35480D01*
X68243Y35468D01*
X68251Y35458D01*
X68259Y35449D01*
X68262Y35444D01*
X68266Y35441D01*
X68269Y35438D01*
X68272Y35435D01*
X68274Y35433D01*
X68275Y35432D01*
X68277Y35431D01*
X68277Y35431D01*
X68289Y35421D01*
X68301Y35414D01*
X68311Y35408D01*
X68321Y35403D01*
X68325Y35401D01*
X68329Y35399D01*
X68331Y35398D01*
X68334Y35397D01*
X68336Y35396D01*
X68338Y35396D01*
X68339Y35395D01*
X68339D01*
Y35328D01*
X68329Y35332D01*
X68320Y35336D01*
X68310Y35340D01*
X68301Y35345D01*
X68293Y35349D01*
X68285Y35354D01*
X68278Y35358D01*
X68272Y35363D01*
X68265Y35367D01*
X68260Y35371D01*
X68255Y35375D01*
X68252Y35378D01*
X68249Y35380D01*
X68246Y35382D01*
X68245Y35384D01*
X68245Y35384D01*
Y35107D01*
X68171D01*
Y35493D01*
X68231D01*
X68233Y35486D01*
D02*
G37*
G36*
X68729Y35107D02*
X68652D01*
Y35223D01*
X68589Y35288D01*
X68483Y35107D01*
X68383D01*
X68536Y35342D01*
X68391Y35491D01*
X68495D01*
X68652Y35321D01*
Y35491D01*
X68729D01*
Y35107D01*
D02*
G37*
G36*
X63960Y25400D02*
X63883D01*
Y25568D01*
X63730D01*
Y25400D01*
X63653D01*
Y25784D01*
X63730D01*
Y25633D01*
X63883D01*
Y25784D01*
X63960D01*
Y25400D01*
D02*
G37*
G36*
X63463Y25779D02*
X63466Y25772D01*
X63473Y25761D01*
X63481Y25750D01*
X63489Y25741D01*
X63492Y25737D01*
X63496Y25734D01*
X63499Y25730D01*
X63502Y25728D01*
X63504Y25726D01*
X63505Y25724D01*
X63507Y25724D01*
X63507Y25723D01*
X63519Y25714D01*
X63531Y25707D01*
X63541Y25700D01*
X63551Y25696D01*
X63555Y25694D01*
X63559Y25692D01*
X63561Y25691D01*
X63564Y25690D01*
X63566Y25689D01*
X63568Y25688D01*
X63569Y25688D01*
X63569D01*
Y25621D01*
X63559Y25625D01*
X63550Y25628D01*
X63540Y25633D01*
X63532Y25637D01*
X63523Y25642D01*
X63515Y25646D01*
X63508Y25651D01*
X63502Y25655D01*
X63495Y25660D01*
X63490Y25664D01*
X63485Y25667D01*
X63482Y25670D01*
X63479Y25673D01*
X63476Y25675D01*
X63475Y25676D01*
X63475Y25677D01*
Y25400D01*
X63401D01*
Y25785D01*
X63461D01*
X63463Y25779D01*
D02*
G37*
D11*
X69560Y32419D02*
X72120D01*
Y31238D02*
Y33600D01*
X69560D02*
X72120D01*
X69560Y31238D02*
X72120D01*
X69560Y30057D02*
Y34781D01*
X67560Y30057D02*
X69560D01*
X67560Y34781D02*
X69560D01*
X63556Y23300D02*
Y23500D01*
X61959D02*
X63556D01*
X61959Y23300D02*
Y23500D01*
X63556Y23300D02*
X63906D01*
Y25150D01*
X61606D02*
X63906D01*
X61606Y23300D02*
Y25150D01*
Y23300D02*
X61959D01*
X42520Y48230D02*
G03*
X42520Y48230I-200J0D01*
G01*
X44480D02*
G03*
X44480Y48230I-200J0D01*
G01*
X69750Y48250D02*
G03*
X68550Y49442I-1196J-4D01*
G01*
X35520D02*
G03*
X34320Y48242I0J-1200D01*
G01*
X68550Y17950D02*
G03*
X69750Y19150I0J1200D01*
G01*
X34320Y19142D02*
G03*
X35520Y17950I1196J4D01*
G01*
X34320Y19372D02*
G03*
X34319Y20828I180J728D01*
G01*
X34324Y37971D02*
G03*
X34325Y39429I176J729D01*
G01*
X64950Y20100D02*
G03*
X64950Y20100I-750J0D01*
G01*
X64950Y38700D02*
G03*
X64950Y38700I-750J0D01*
G01*
X43950Y38700D02*
G03*
X43950Y38700I-750J0D01*
G01*
Y20100D02*
G03*
X43950Y20100I-750J0D01*
G01*
X52650Y38700D02*
G03*
X52650Y38700I-750J0D01*
G01*
X52650Y20100D02*
G03*
X52650Y20100I-750J0D01*
G01*
X34320Y39434D02*
Y48242D01*
X35520Y49442D02*
X68550D01*
X69750Y19150D02*
Y48250D01*
X35520Y17950D02*
X68550D01*
X34320Y19142D02*
Y19372D01*
X34319Y35600D02*
Y37971D01*
Y35600D02*
X35200D01*
X34319Y34800D02*
X34319Y20828D01*
X63300Y34800D02*
Y35600D01*
X64900Y34800D02*
Y35600D01*
X63300D02*
X64900D01*
X63300Y34800D02*
X64900D01*
X51000D02*
X52600D01*
X51000Y35600D02*
X52600D01*
Y34800D02*
Y35600D01*
X51000Y34800D02*
Y35600D01*
X42300Y34800D02*
X43900D01*
X42300Y35600D02*
X43900D01*
Y34800D02*
Y35600D01*
X42300Y34800D02*
Y35600D01*
X35200Y34800D02*
Y35600D01*
X34319Y34800D02*
X35200D01*
D17*
X68550Y17900D02*
G03*
X68600Y17950I0J50D01*
G01*
D02*
G03*
X68550Y18000I-50J0D01*
G01*
X35520D02*
G03*
X35520Y17900I0J-50D01*
G01*
X68550D01*
X35520Y18000D02*
X68550D01*
M02*
