G04*
G04 #@! TF.GenerationSoftware,Altium Limited,Altium Designer,20.2.6 (244)*
G04*
G04 Layer_Physical_Order=1*
G04 Layer_Color=255*
%FSLAX24Y24*%
%MOIN*%
G70*
G04*
G04 #@! TF.SameCoordinates,AAC5203C-1E5B-4ACD-AD40-D79658958D62*
G04*
G04*
G04 #@! TF.FilePolarity,Positive*
G04*
G01*
G75*
%ADD10C,0.0100*%
%ADD13C,0.0200*%
%ADD18R,0.0354X0.1000*%
%ADD19R,0.0524X0.0524*%
%ADD20R,0.1000X0.0354*%
%ADD21C,0.0600*%
%ADD22R,0.0935X0.0800*%
%ADD23R,0.0800X0.0935*%
%ADD24R,0.1496X0.1300*%
%ADD25R,0.1000X0.0500*%
%ADD26R,0.0340X0.0318*%
%ADD27R,0.0600X0.0600*%
%ADD28R,0.0750X0.0610*%
%ADD29R,0.1300X0.1496*%
%ADD30R,0.0860X0.0669*%
%ADD31R,0.0394X0.0217*%
%ADD32R,0.1000X0.0236*%
%ADD33R,0.1000X0.0118*%
%ADD34R,0.0315X0.0315*%
%ADD35O,0.0138X0.0500*%
%ADD36O,0.0500X0.0138*%
%ADD37R,0.0866X0.0866*%
%ADD38R,0.0318X0.0340*%
%ADD39R,0.0315X0.0354*%
%ADD40R,0.0669X0.0860*%
%ADD41R,0.0250X0.0600*%
%ADD42R,0.0354X0.0315*%
%ADD43O,0.0400X0.1200*%
%ADD44R,0.0972X0.1417*%
%ADD45R,0.0972X0.0386*%
%ADD46R,0.0700X0.0600*%
%ADD47R,0.1000X0.0160*%
%ADD48R,0.0315X0.0315*%
%ADD49O,0.0500X0.0110*%
%ADD50O,0.0110X0.0500*%
%ADD51R,0.1240X0.1240*%
%ADD52R,0.0670X0.0475*%
%ADD101C,0.0300*%
%ADD102C,0.0150*%
%ADD103R,0.0600X0.0600*%
G04:AMPARAMS|DCode=104|XSize=50mil|YSize=80mil|CornerRadius=0mil|HoleSize=0mil|Usage=FLASHONLY|Rotation=270.000|XOffset=0mil|YOffset=0mil|HoleType=Round|Shape=Octagon|*
%AMOCTAGOND104*
4,1,8,0.0400,0.0125,0.0400,-0.0125,0.0275,-0.0250,-0.0275,-0.0250,-0.0400,-0.0125,-0.0400,0.0125,-0.0275,0.0250,0.0275,0.0250,0.0400,0.0125,0.0*
%
%ADD104OCTAGOND104*%

%ADD105R,0.0700X0.0500*%
G04:AMPARAMS|DCode=106|XSize=50mil|YSize=70mil|CornerRadius=0mil|HoleSize=0mil|Usage=FLASHONLY|Rotation=270.000|XOffset=0mil|YOffset=0mil|HoleType=Round|Shape=Octagon|*
%AMOCTAGOND106*
4,1,8,0.0350,0.0125,0.0350,-0.0125,0.0225,-0.0250,-0.0225,-0.0250,-0.0350,-0.0125,-0.0350,0.0125,-0.0225,0.0250,0.0225,0.0250,0.0350,0.0125,0.0*
%
%ADD106OCTAGOND106*%

%ADD107O,0.0709X0.0394*%
%ADD108O,0.0827X0.0394*%
%ADD109C,0.0256*%
%ADD110R,0.0630X0.0630*%
%ADD111C,0.0630*%
%ADD112C,0.0510*%
%ADD113R,0.0510X0.0510*%
%ADD114C,0.0394*%
%ADD115R,0.0394X0.0394*%
%ADD116C,0.0500*%
%ADD117C,0.0280*%
G36*
X59891Y54466D02*
X60144Y54398D01*
X60386Y54298D01*
X60614Y54167D01*
X60822Y54007D01*
X61007Y53822D01*
X61167Y53614D01*
X61298Y53386D01*
X61398Y53144D01*
X61466Y52891D01*
X61500Y52631D01*
Y52500D01*
Y39293D01*
X61450Y39247D01*
X61425Y39250D01*
X61265Y39238D01*
X61111Y39192D01*
X60971Y39115D01*
X60850Y39010D01*
X60755Y38882D01*
X60688Y38736D01*
X60654Y38580D01*
Y38420D01*
X60688Y38264D01*
X60755Y38118D01*
X60850Y37990D01*
X60971Y37885D01*
X61111Y37808D01*
X61265Y37762D01*
X61425Y37750D01*
X61454Y37753D01*
X61504Y37707D01*
X61504Y20680D01*
X61468Y20646D01*
X61425Y20650D01*
X61265Y20638D01*
X61111Y20592D01*
X60971Y20515D01*
X60850Y20410D01*
X60755Y20282D01*
X60688Y20136D01*
X60654Y19980D01*
Y19820D01*
X60688Y19664D01*
X60755Y19518D01*
X60850Y19390D01*
X60971Y19285D01*
X61111Y19208D01*
X61265Y19162D01*
X61425Y19150D01*
X61452Y19153D01*
X61455Y19152D01*
X61500Y19107D01*
Y17500D01*
Y17369D01*
X61466Y17109D01*
X61398Y16856D01*
X61298Y16614D01*
X61167Y16386D01*
X61007Y16178D01*
X60822Y15993D01*
X60614Y15833D01*
X60386Y15702D01*
X60144Y15602D01*
X59891Y15534D01*
X59631Y15500D01*
X59369D01*
X59109Y15534D01*
X58856Y15602D01*
X58614Y15702D01*
X58386Y15833D01*
X58178Y15993D01*
X57993Y16178D01*
X57833Y16386D01*
X57702Y16614D01*
X57602Y16856D01*
X57534Y17109D01*
X57500Y17369D01*
Y17500D01*
X26500D01*
Y17369D01*
X26466Y17109D01*
X26398Y16856D01*
X26298Y16614D01*
X26167Y16386D01*
X26007Y16178D01*
X25822Y15993D01*
X25614Y15833D01*
X25386Y15702D01*
X25144Y15602D01*
X24891Y15534D01*
X24631Y15500D01*
X24369D01*
X24109Y15534D01*
X23856Y15602D01*
X23614Y15702D01*
X23386Y15833D01*
X23178Y15993D01*
X22993Y16178D01*
X22833Y16386D01*
X22702Y16614D01*
X22602Y16856D01*
X22534Y17109D01*
X22500Y17369D01*
Y17500D01*
Y19108D01*
X22545Y19154D01*
X22584Y19150D01*
X22744Y19162D01*
X22897Y19208D01*
X23038Y19285D01*
X23158Y19390D01*
X23254Y19518D01*
X23321Y19664D01*
X23354Y19820D01*
Y19980D01*
X23321Y20136D01*
X23254Y20282D01*
X23158Y20410D01*
X23038Y20515D01*
X22897Y20592D01*
X22744Y20638D01*
X22584Y20650D01*
X22541Y20646D01*
X22504Y20680D01*
Y37711D01*
X22554Y37757D01*
X22580Y37755D01*
X22739Y37767D01*
X22893Y37812D01*
X23033Y37889D01*
X23154Y37994D01*
X23250Y38122D01*
X23316Y38268D01*
X23350Y38424D01*
Y38584D01*
X23316Y38741D01*
X23250Y38886D01*
X23154Y39015D01*
X23033Y39120D01*
X22893Y39197D01*
X22739Y39242D01*
X22580Y39254D01*
X22537Y39250D01*
X22500Y39284D01*
Y52500D01*
Y52631D01*
X22534Y52891D01*
X22602Y53144D01*
X22702Y53386D01*
X22833Y53614D01*
X22993Y53822D01*
X23178Y54007D01*
X23386Y54167D01*
X23614Y54298D01*
X23856Y54398D01*
X24109Y54466D01*
X24369Y54500D01*
X59631D01*
X59891Y54466D01*
D02*
G37*
%LPC*%
G36*
X59574Y53315D02*
X59426D01*
X59420Y53312D01*
X59413Y53314D01*
X59269Y53285D01*
X59263Y53281D01*
X59256D01*
X59120Y53225D01*
X59115Y53220D01*
X59109Y53219D01*
X58986Y53137D01*
X58982Y53131D01*
X58976Y53128D01*
X58872Y53024D01*
X58869Y53018D01*
X58863Y53014D01*
X58781Y52891D01*
X58780Y52885D01*
X58775Y52880D01*
X58719Y52744D01*
Y52737D01*
X58715Y52731D01*
X58686Y52587D01*
X58688Y52580D01*
X58685Y52574D01*
Y52426D01*
X58688Y52420D01*
X58686Y52413D01*
X58715Y52269D01*
X58719Y52263D01*
Y52256D01*
X58775Y52120D01*
X58780Y52115D01*
X58781Y52109D01*
X58863Y51986D01*
X58869Y51982D01*
X58872Y51976D01*
X58976Y51872D01*
X58982Y51869D01*
X58986Y51863D01*
X59109Y51781D01*
X59115Y51780D01*
X59120Y51775D01*
X59256Y51719D01*
X59263D01*
X59269Y51715D01*
X59413Y51686D01*
X59420Y51688D01*
X59426Y51685D01*
X59574D01*
X59580Y51688D01*
X59587Y51686D01*
X59731Y51715D01*
X59737Y51719D01*
X59744D01*
X59880Y51775D01*
X59885Y51780D01*
X59891Y51781D01*
X60014Y51863D01*
X60018Y51869D01*
X60024Y51872D01*
X60128Y51976D01*
X60131Y51982D01*
X60137Y51986D01*
X60219Y52109D01*
X60220Y52115D01*
X60225Y52120D01*
X60281Y52256D01*
Y52263D01*
X60285Y52269D01*
X60314Y52413D01*
X60312Y52420D01*
X60315Y52426D01*
Y52574D01*
X60312Y52580D01*
X60314Y52587D01*
X60285Y52731D01*
X60281Y52737D01*
Y52744D01*
X60225Y52880D01*
X60220Y52885D01*
X60219Y52891D01*
X60137Y53014D01*
X60131Y53018D01*
X60128Y53024D01*
X60024Y53128D01*
X60018Y53131D01*
X60014Y53137D01*
X59891Y53219D01*
X59885Y53220D01*
X59880Y53225D01*
X59744Y53281D01*
X59737D01*
X59731Y53285D01*
X59587Y53314D01*
X59580Y53312D01*
X59574Y53315D01*
D02*
G37*
G36*
X24574D02*
X24426D01*
X24420Y53312D01*
X24413Y53314D01*
X24269Y53285D01*
X24263Y53281D01*
X24256D01*
X24120Y53225D01*
X24115Y53220D01*
X24109Y53219D01*
X23986Y53137D01*
X23982Y53131D01*
X23976Y53128D01*
X23872Y53024D01*
X23869Y53018D01*
X23863Y53014D01*
X23781Y52891D01*
X23780Y52885D01*
X23775Y52880D01*
X23719Y52744D01*
Y52737D01*
X23715Y52731D01*
X23686Y52587D01*
X23688Y52580D01*
X23685Y52574D01*
Y52426D01*
X23688Y52420D01*
X23686Y52413D01*
X23715Y52269D01*
X23719Y52263D01*
Y52256D01*
X23775Y52120D01*
X23780Y52115D01*
X23781Y52109D01*
X23863Y51986D01*
X23869Y51982D01*
X23872Y51976D01*
X23976Y51872D01*
X23982Y51869D01*
X23986Y51863D01*
X24109Y51781D01*
X24115Y51780D01*
X24120Y51775D01*
X24256Y51719D01*
X24263D01*
X24269Y51715D01*
X24413Y51686D01*
X24420Y51688D01*
X24426Y51685D01*
X24574D01*
X24580Y51688D01*
X24587Y51686D01*
X24731Y51715D01*
X24737Y51719D01*
X24744D01*
X24880Y51775D01*
X24885Y51780D01*
X24891Y51781D01*
X25014Y51863D01*
X25018Y51869D01*
X25024Y51872D01*
X25128Y51976D01*
X25131Y51982D01*
X25137Y51986D01*
X25219Y52109D01*
X25220Y52115D01*
X25225Y52120D01*
X25281Y52256D01*
Y52263D01*
X25285Y52269D01*
X25314Y52413D01*
X25312Y52420D01*
X25315Y52426D01*
Y52574D01*
X25312Y52580D01*
X25314Y52587D01*
X25285Y52731D01*
X25281Y52737D01*
Y52744D01*
X25225Y52880D01*
X25220Y52885D01*
X25219Y52891D01*
X25137Y53014D01*
X25131Y53018D01*
X25128Y53024D01*
X25024Y53128D01*
X25018Y53131D01*
X25014Y53137D01*
X24891Y53219D01*
X24885Y53220D01*
X24880Y53225D01*
X24744Y53281D01*
X24737D01*
X24731Y53285D01*
X24587Y53314D01*
X24580Y53312D01*
X24574Y53315D01*
D02*
G37*
G36*
X51153Y53167D02*
X51149Y53165D01*
X51145Y53166D01*
X50897Y53139D01*
X50893Y53137D01*
X50889Y53138D01*
X50646Y53081D01*
X50643Y53079D01*
X50639Y53079D01*
X50405Y52993D01*
X50402Y52990D01*
X50397Y52990D01*
X50175Y52876D01*
X50173Y52873D01*
X50169Y52872D01*
X49962Y52732D01*
X49960Y52729D01*
X49956Y52728D01*
X49768Y52564D01*
X49766Y52560D01*
X49762Y52558D01*
X49595Y52373D01*
X49594Y52369D01*
X49590Y52367D01*
X49447Y52163D01*
X49446Y52159D01*
X49443Y52156D01*
X49325Y51936D01*
X49325Y51932D01*
X49322Y51929D01*
X49232Y51696D01*
X49232Y51692D01*
X49230Y51689D01*
X49169Y51447D01*
X49169Y51443D01*
X49167Y51439D01*
X49136Y51192D01*
X49137Y51188D01*
X49135Y51184D01*
X49135Y51062D01*
X49135Y51062D01*
X49134Y51059D01*
X49135Y51058D01*
X49134Y51056D01*
X49134Y51054D01*
X49135Y51053D01*
X49134Y51051D01*
Y50816D01*
X49135Y50814D01*
X49134Y50811D01*
X49170Y50345D01*
X49172Y50343D01*
X49171Y50340D01*
X49243Y49878D01*
X49244Y49876D01*
X49244Y49873D01*
X49351Y49418D01*
X49353Y49416D01*
X49352Y49414D01*
X49495Y48968D01*
X49496Y48966D01*
X49496Y48964D01*
X49672Y48531D01*
X49674Y48529D01*
X49674Y48526D01*
X49883Y48108D01*
X49885Y48106D01*
X49886Y48103D01*
X50126Y47703D01*
X50128Y47701D01*
X50129Y47698D01*
X50400Y47317D01*
X50402Y47316D01*
X50403Y47313D01*
X50702Y46954D01*
X50704Y46953D01*
X50705Y46951D01*
X51032Y46616D01*
X51034Y46615D01*
X51035Y46612D01*
X51386Y46303D01*
X51389Y46303D01*
X51390Y46300D01*
X51764Y46020D01*
X51766Y46019D01*
X51768Y46017D01*
X52162Y45766D01*
X52165Y45765D01*
X52167Y45763D01*
X52579Y45543D01*
X52582Y45543D01*
X52584Y45541D01*
X53012Y45354D01*
X53014Y45353D01*
X53016Y45352D01*
X53237Y45275D01*
X53246Y45272D01*
X53256Y45272D01*
X53259Y45271D01*
X53260Y45272D01*
X53271Y45268D01*
X53291Y45269D01*
X53302Y45274D01*
X53315Y45275D01*
X53333Y45283D01*
X53341Y45293D01*
X53353Y45298D01*
X53366Y45312D01*
X53366Y45313D01*
X53561Y45384D01*
X53563Y45386D01*
X53566Y45386D01*
X53987Y45577D01*
X53988Y45578D01*
X53991Y45579D01*
X54396Y45801D01*
X54398Y45803D01*
X54400Y45804D01*
X54787Y46056D01*
X54789Y46058D01*
X54791Y46059D01*
X55158Y46341D01*
X55159Y46343D01*
X55161Y46344D01*
X55505Y46652D01*
X55506Y46655D01*
X55509Y46656D01*
X55828Y46990D01*
X55829Y46992D01*
X55832Y46993D01*
X56125Y47350D01*
X56125Y47353D01*
X56128Y47354D01*
X56392Y47733D01*
X56393Y47736D01*
X56395Y47737D01*
X56630Y48135D01*
X56631Y48137D01*
X56633Y48139D01*
X56837Y48554D01*
X56837Y48556D01*
X56839Y48558D01*
X57011Y48987D01*
X57011Y48989D01*
X57013Y48991D01*
X57152Y49432D01*
X57151Y49435D01*
X57153Y49437D01*
X57258Y49887D01*
X57257Y49890D01*
X57259Y49892D01*
X57329Y50348D01*
X57328Y50351D01*
X57330Y50353D01*
X57365Y50814D01*
X57364Y50817D01*
X57365Y50819D01*
Y51175D01*
X57364Y51179D01*
X57365Y51183D01*
X57334Y51431D01*
X57332Y51434D01*
X57333Y51438D01*
X57273Y51681D01*
X57270Y51684D01*
X57270Y51688D01*
X57181Y51922D01*
X57178Y51925D01*
X57178Y51929D01*
X57061Y52150D01*
X57058Y52152D01*
X57057Y52156D01*
X56914Y52361D01*
X56911Y52363D01*
X56909Y52367D01*
X56743Y52554D01*
X56739Y52555D01*
X56737Y52559D01*
X56549Y52724D01*
X56545Y52725D01*
X56543Y52728D01*
X56337Y52869D01*
X56333Y52870D01*
X56330Y52873D01*
X56108Y52987D01*
X56104Y52988D01*
X56101Y52991D01*
X55866Y53077D01*
X55862Y53077D01*
X55859Y53079D01*
X55616Y53137D01*
X55612Y53136D01*
X55608Y53138D01*
X55360Y53166D01*
X55356Y53165D01*
X55352Y53166D01*
X55102Y53164D01*
X55098Y53162D01*
X55094Y53163D01*
X54847Y53130D01*
X54843Y53128D01*
X54839Y53129D01*
X54597Y53066D01*
X54594Y53063D01*
X54590Y53063D01*
X54357Y52972D01*
X54354Y52969D01*
X54350Y52968D01*
X54131Y52849D01*
X54128Y52846D01*
X54124Y52845D01*
X53921Y52700D01*
X53919Y52696D01*
X53915Y52695D01*
X53730Y52526D01*
X53729Y52523D01*
X53725Y52521D01*
X53562Y52331D01*
X53561Y52327D01*
X53558Y52325D01*
X53419Y52117D01*
X53419Y52113D01*
X53415Y52110D01*
X53303Y51887D01*
X53303Y51883D01*
X53300Y51880D01*
X53275Y51809D01*
X53225Y51809D01*
X53200Y51879D01*
X53197Y51882D01*
X53197Y51886D01*
X53085Y52109D01*
X53082Y52112D01*
X53081Y52116D01*
X52943Y52324D01*
X52940Y52326D01*
X52938Y52330D01*
X52776Y52519D01*
X52773Y52521D01*
X52771Y52525D01*
X52587Y52694D01*
X52583Y52695D01*
X52581Y52699D01*
X52378Y52844D01*
X52374Y52844D01*
X52371Y52848D01*
X52152Y52967D01*
X52148Y52967D01*
X52145Y52970D01*
X51913Y53062D01*
X51909Y53062D01*
X51906Y53065D01*
X51665Y53128D01*
X51661Y53127D01*
X51657Y53129D01*
X51410Y53163D01*
X51406Y53162D01*
X51402Y53163D01*
X51153Y53167D01*
D02*
G37*
G36*
X43020Y53445D02*
X42940D01*
X42928Y53440D01*
X42915D01*
X42842Y53410D01*
X42833Y53400D01*
X42821Y53395D01*
X42765Y53339D01*
X42760Y53327D01*
X42750Y53318D01*
X42720Y53245D01*
Y53232D01*
X42715Y53220D01*
Y53140D01*
X42720Y53128D01*
Y53115D01*
X42750Y53042D01*
X42760Y53033D01*
X42765Y53021D01*
X42821Y52965D01*
X42833Y52960D01*
X42842Y52950D01*
X42915Y52920D01*
X42928D01*
X42940Y52915D01*
X43020D01*
X43032Y52920D01*
X43045D01*
X43118Y52950D01*
X43127Y52960D01*
X43139Y52965D01*
X43195Y53021D01*
X43200Y53033D01*
X43210Y53042D01*
X43240Y53115D01*
Y53128D01*
X43245Y53140D01*
Y53220D01*
X43240Y53232D01*
Y53245D01*
X43210Y53318D01*
X43200Y53327D01*
X43195Y53339D01*
X43139Y53395D01*
X43127Y53400D01*
X43118Y53410D01*
X43045Y53440D01*
X43032D01*
X43020Y53445D01*
D02*
G37*
G36*
X41060D02*
X40980D01*
X40968Y53440D01*
X40955D01*
X40882Y53410D01*
X40873Y53400D01*
X40861Y53395D01*
X40805Y53339D01*
X40800Y53327D01*
X40790Y53318D01*
X40760Y53245D01*
Y53232D01*
X40755Y53220D01*
Y53140D01*
X40760Y53128D01*
Y53115D01*
X40790Y53042D01*
X40800Y53033D01*
X40805Y53021D01*
X40861Y52965D01*
X40873Y52960D01*
X40882Y52950D01*
X40955Y52920D01*
X40968D01*
X40980Y52915D01*
X41060D01*
X41072Y52920D01*
X41085D01*
X41158Y52950D01*
X41167Y52960D01*
X41179Y52965D01*
X41235Y53021D01*
X41240Y53033D01*
X41250Y53042D01*
X41280Y53115D01*
Y53128D01*
X41285Y53140D01*
Y53220D01*
X41280Y53232D01*
Y53245D01*
X41250Y53318D01*
X41240Y53327D01*
X41235Y53339D01*
X41179Y53395D01*
X41167Y53400D01*
X41158Y53410D01*
X41085Y53440D01*
X41072D01*
X41060Y53445D01*
D02*
G37*
G36*
X43415Y52115D02*
X42545D01*
Y51385D01*
X42868D01*
Y50805D01*
X42868Y50805D01*
X42876Y50762D01*
X42901Y50726D01*
X42922Y50705D01*
X42903Y50659D01*
X42797D01*
X42797Y50659D01*
X42754Y50650D01*
X42717Y50626D01*
X42717Y50626D01*
X42371Y50279D01*
X42346Y50243D01*
X42338Y50200D01*
X42338Y50200D01*
Y49934D01*
X42330Y49929D01*
X42280Y49956D01*
Y50172D01*
X41820D01*
Y50091D01*
X41752D01*
X41748Y50098D01*
X41681Y50142D01*
X41603Y50157D01*
X41525Y50142D01*
X41459Y50098D01*
X41415Y50031D01*
X41410Y50008D01*
X41360Y50013D01*
Y50202D01*
X41593Y50434D01*
X41820D01*
Y50328D01*
X42280D01*
Y50765D01*
X42112D01*
Y51385D01*
X42435D01*
Y52115D01*
X41565D01*
Y51385D01*
X41888D01*
Y50765D01*
X41820D01*
Y50659D01*
X41547D01*
X41547Y50659D01*
X41504Y50650D01*
X41467Y50626D01*
X41467Y50626D01*
X41169Y50328D01*
X41145Y50291D01*
X41136Y50248D01*
X41136Y50248D01*
Y49645D01*
X39632Y48140D01*
X39622Y48138D01*
X39556Y48094D01*
X39512Y48028D01*
X39496Y47950D01*
X39512Y47872D01*
X39556Y47806D01*
X39622Y47762D01*
X39700Y47746D01*
X39778Y47762D01*
X39844Y47806D01*
X39888Y47872D01*
X39904Y47950D01*
X39888Y48028D01*
X39868Y48059D01*
X41328Y49519D01*
X41328Y49519D01*
X41352Y49555D01*
X41360Y49598D01*
X41360Y49598D01*
Y49894D01*
X41410Y49899D01*
X41415Y49875D01*
X41459Y49809D01*
X41525Y49765D01*
X41603Y49750D01*
X41681Y49765D01*
X41748Y49809D01*
X41752Y49816D01*
X41820D01*
Y49735D01*
X42111D01*
X42130Y49689D01*
X40388Y47946D01*
X40350Y47954D01*
X40272Y47938D01*
X40206Y47894D01*
X40162Y47828D01*
X40146Y47750D01*
X40162Y47672D01*
X40206Y47606D01*
X40272Y47562D01*
X40350Y47546D01*
X40428Y47562D01*
X40494Y47606D01*
X40538Y47672D01*
X40554Y47750D01*
X40546Y47788D01*
X42529Y49771D01*
X42529Y49771D01*
X42554Y49807D01*
X42562Y49850D01*
Y50154D01*
X42843Y50434D01*
X43020D01*
Y50328D01*
X43480D01*
Y50765D01*
X43179D01*
X43092Y50852D01*
Y51385D01*
X43415D01*
Y52115D01*
D02*
G37*
G36*
X41455D02*
X40585D01*
Y51385D01*
X40738D01*
Y50765D01*
X40620D01*
Y50639D01*
X40588Y50604D01*
X40546Y50596D01*
X40509Y50571D01*
X40509Y50571D01*
X40265Y50327D01*
X40265Y50327D01*
X40265Y50327D01*
X38921Y48983D01*
X38896Y48946D01*
X38888Y48904D01*
X38888Y48904D01*
Y48016D01*
X38856Y47994D01*
X38812Y47928D01*
X38796Y47850D01*
X38812Y47772D01*
X38856Y47706D01*
X38922Y47662D01*
X39000Y47646D01*
X39078Y47662D01*
X39144Y47706D01*
X39188Y47772D01*
X39204Y47850D01*
X39188Y47928D01*
X39144Y47994D01*
X39112Y48016D01*
Y48857D01*
X40164Y49908D01*
X40211Y49894D01*
X40215Y49875D01*
X40259Y49809D01*
X40325Y49765D01*
X40403Y49750D01*
X40481Y49765D01*
X40548Y49809D01*
X40552Y49816D01*
X40620D01*
Y49735D01*
X41080D01*
Y50172D01*
X40620D01*
Y50091D01*
X40552D01*
X40548Y50098D01*
X40481Y50142D01*
X40470Y50144D01*
X40453Y50198D01*
X40594Y50339D01*
X40620Y50328D01*
Y50328D01*
X41080D01*
Y50765D01*
X40962D01*
Y51385D01*
X41455D01*
Y52115D01*
D02*
G37*
G36*
X43480Y50172D02*
X43020D01*
Y50143D01*
X42970Y50116D01*
X42931Y50142D01*
X42853Y50157D01*
X42775Y50142D01*
X42709Y50098D01*
X42665Y50031D01*
X42650Y49953D01*
X42665Y49875D01*
X42709Y49809D01*
X42775Y49765D01*
X42853Y49750D01*
X42931Y49765D01*
X42970Y49791D01*
X43020Y49764D01*
Y49735D01*
X43480D01*
Y50172D01*
D02*
G37*
G36*
X32450Y48259D02*
X32383Y48250D01*
X32320Y48224D01*
X32267Y48183D01*
X32226Y48130D01*
X32200Y48067D01*
X32191Y48000D01*
X32200Y47933D01*
X32226Y47870D01*
X32267Y47817D01*
X32320Y47776D01*
X32383Y47750D01*
X32450Y47741D01*
X32517Y47750D01*
X32580Y47776D01*
X32633Y47817D01*
X32674Y47870D01*
X32700Y47933D01*
X32709Y48000D01*
X32700Y48067D01*
X32674Y48130D01*
X32633Y48183D01*
X32580Y48224D01*
X32517Y48250D01*
X32450Y48259D01*
D02*
G37*
G36*
X29550Y47218D02*
X29468Y47207D01*
X29391Y47175D01*
X29325Y47125D01*
X29275Y47059D01*
X29243Y46982D01*
X29232Y46900D01*
X29243Y46818D01*
X29275Y46741D01*
X29325Y46675D01*
X29391Y46625D01*
X29468Y46593D01*
X29550Y46582D01*
X29632Y46593D01*
X29709Y46625D01*
X29775Y46675D01*
X29825Y46741D01*
X29857Y46818D01*
X29868Y46900D01*
X29857Y46982D01*
X29825Y47059D01*
X29775Y47125D01*
X29709Y47175D01*
X29632Y47207D01*
X29550Y47218D01*
D02*
G37*
G36*
X25210Y44750D02*
X24090D01*
Y44468D01*
X23919D01*
X23914Y44474D01*
X23848Y44518D01*
X23770Y44534D01*
X23692Y44518D01*
X23626Y44474D01*
X23582Y44408D01*
X23566Y44330D01*
X23582Y44252D01*
X23626Y44186D01*
X23692Y44142D01*
X23713Y44138D01*
X23719Y44103D01*
X23718Y44086D01*
X23656Y44044D01*
X23612Y43978D01*
X23596Y43900D01*
X23612Y43822D01*
X23656Y43756D01*
X23722Y43712D01*
X23784Y43699D01*
X23805Y43650D01*
X23708Y43552D01*
X23700Y43554D01*
X23622Y43538D01*
X23556Y43494D01*
X23512Y43428D01*
X23496Y43350D01*
X23512Y43272D01*
X23556Y43206D01*
X23622Y43162D01*
X23700Y43146D01*
X23778Y43162D01*
X23844Y43206D01*
X23888Y43272D01*
X23904Y43350D01*
X23902Y43358D01*
X24172Y43627D01*
X24645D01*
X24658Y43630D01*
X25210D01*
Y43910D01*
Y44190D01*
Y44470D01*
Y44750D01*
D02*
G37*
G36*
X29915Y44680D02*
X29478D01*
Y44379D01*
X29368Y44269D01*
X29322Y44288D01*
Y44680D01*
X28885D01*
Y44588D01*
X28699D01*
X28694Y44594D01*
X28628Y44638D01*
X28550Y44654D01*
X28472Y44638D01*
X28406Y44594D01*
X28362Y44528D01*
X28346Y44450D01*
X28362Y44372D01*
X28406Y44306D01*
X28472Y44262D01*
X28550Y44246D01*
X28628Y44262D01*
X28694Y44306D01*
X28699Y44312D01*
X28885D01*
Y44220D01*
X29264D01*
X29293Y44170D01*
X29288Y44142D01*
X29288Y44142D01*
Y43857D01*
X29215D01*
Y43137D01*
X29585D01*
Y43857D01*
X29512D01*
Y44096D01*
X29636Y44220D01*
X29915D01*
Y44680D01*
D02*
G37*
G36*
X34310Y44610D02*
X33490D01*
Y43890D01*
X34310D01*
Y44610D01*
D02*
G37*
G36*
X31092Y45437D02*
X30657D01*
Y44963D01*
X30686D01*
Y44610D01*
X30490D01*
Y43890D01*
X30686D01*
Y43676D01*
X30679Y43671D01*
X30629Y43606D01*
X30598Y43531D01*
X30587Y43450D01*
X30598Y43369D01*
X30629Y43294D01*
X30679Y43229D01*
X30744Y43179D01*
X30819Y43148D01*
X30900Y43137D01*
X30981Y43148D01*
X31056Y43179D01*
X31121Y43229D01*
X31171Y43294D01*
X31202Y43369D01*
X31213Y43450D01*
X31202Y43531D01*
X31171Y43606D01*
X31121Y43671D01*
X31114Y43676D01*
Y43890D01*
X31310D01*
Y44610D01*
X31114D01*
Y45155D01*
X31098Y45237D01*
X31092Y45246D01*
Y45437D01*
D02*
G37*
G36*
X44800Y43413D02*
X44706Y43401D01*
X44618Y43364D01*
X44543Y43307D01*
X44486Y43232D01*
X44449Y43144D01*
X44437Y43050D01*
X44449Y42956D01*
X44486Y42868D01*
X44543Y42793D01*
X44618Y42736D01*
X44706Y42699D01*
X44800Y42687D01*
X44894Y42699D01*
X44982Y42736D01*
X45057Y42793D01*
X45114Y42868D01*
X45151Y42956D01*
X45163Y43050D01*
X45151Y43144D01*
X45114Y43232D01*
X45057Y43307D01*
X44982Y43364D01*
X44894Y43401D01*
X44800Y43413D01*
D02*
G37*
G36*
X42450D02*
X42356Y43401D01*
X42268Y43364D01*
X42193Y43307D01*
X42136Y43232D01*
X42099Y43144D01*
X42087Y43050D01*
X42099Y42956D01*
X42136Y42868D01*
X42193Y42793D01*
X42268Y42736D01*
X42356Y42699D01*
X42450Y42687D01*
X42544Y42699D01*
X42632Y42736D01*
X42707Y42793D01*
X42764Y42868D01*
X42801Y42956D01*
X42813Y43050D01*
X42801Y43144D01*
X42764Y43232D01*
X42707Y43307D01*
X42632Y43364D01*
X42544Y43401D01*
X42450Y43413D01*
D02*
G37*
G36*
X37750D02*
X37656Y43401D01*
X37568Y43364D01*
X37493Y43307D01*
X37436Y43232D01*
X37399Y43144D01*
X37387Y43050D01*
X37399Y42956D01*
X37436Y42868D01*
X37493Y42793D01*
X37568Y42736D01*
X37656Y42699D01*
X37750Y42687D01*
X37844Y42699D01*
X37932Y42736D01*
X38007Y42793D01*
X38064Y42868D01*
X38101Y42956D01*
X38113Y43050D01*
X38101Y43144D01*
X38064Y43232D01*
X38007Y43307D01*
X37932Y43364D01*
X37844Y43401D01*
X37750Y43413D01*
D02*
G37*
G36*
X34310Y42410D02*
X33490D01*
Y41690D01*
X34310D01*
Y42410D01*
D02*
G37*
G36*
X29211Y42963D02*
X28841D01*
Y42243D01*
X28914D01*
Y41765D01*
X28870D01*
Y41328D01*
X29330D01*
Y41434D01*
X29670D01*
Y41328D01*
X30130D01*
Y41765D01*
X29670D01*
Y41659D01*
X29330D01*
Y41765D01*
X29138D01*
Y42243D01*
X29211D01*
Y42963D01*
D02*
G37*
G36*
X28503Y41266D02*
X28423Y41255D01*
X28347Y41224D01*
X28282Y41175D01*
X28233Y41110D01*
X28201Y41034D01*
X28191Y40953D01*
X28201Y40873D01*
X28233Y40797D01*
X28282Y40732D01*
X28347Y40683D01*
X28423Y40651D01*
X28503Y40641D01*
X28584Y40651D01*
X28660Y40683D01*
X28725Y40732D01*
X28730Y40739D01*
X28870D01*
Y40735D01*
X29330D01*
Y41172D01*
X28870D01*
Y41168D01*
X28730D01*
X28725Y41175D01*
X28660Y41224D01*
X28584Y41255D01*
X28503Y41266D01*
D02*
G37*
G36*
X31310Y42410D02*
X30490D01*
Y41690D01*
X30788D01*
Y41218D01*
X29676Y40107D01*
X29465D01*
Y39387D01*
X29835D01*
Y39948D01*
X30979Y41093D01*
X31004Y41129D01*
X31012Y41172D01*
X31012Y41172D01*
Y41690D01*
X31310D01*
Y42410D01*
D02*
G37*
G36*
X42074Y39315D02*
X41926D01*
X41920Y39312D01*
X41913Y39314D01*
X41769Y39285D01*
X41763Y39281D01*
X41756D01*
X41620Y39225D01*
X41615Y39220D01*
X41609Y39219D01*
X41486Y39137D01*
X41482Y39131D01*
X41476Y39128D01*
X41372Y39024D01*
X41369Y39018D01*
X41363Y39014D01*
X41281Y38891D01*
X41280Y38885D01*
X41275Y38880D01*
X41219Y38744D01*
Y38737D01*
X41215Y38731D01*
X41186Y38587D01*
X41188Y38580D01*
X41185Y38574D01*
Y38426D01*
X41188Y38420D01*
X41186Y38413D01*
X41215Y38269D01*
X41219Y38263D01*
Y38256D01*
X41275Y38120D01*
X41280Y38115D01*
X41281Y38109D01*
X41363Y37986D01*
X41369Y37982D01*
X41372Y37976D01*
X41476Y37872D01*
X41482Y37869D01*
X41486Y37863D01*
X41609Y37781D01*
X41615Y37780D01*
X41620Y37775D01*
X41756Y37719D01*
X41763D01*
X41769Y37715D01*
X41913Y37686D01*
X41920Y37688D01*
X41926Y37685D01*
X42074D01*
X42080Y37688D01*
X42087Y37686D01*
X42231Y37715D01*
X42237Y37719D01*
X42244D01*
X42380Y37775D01*
X42385Y37780D01*
X42391Y37781D01*
X42514Y37863D01*
X42518Y37869D01*
X42524Y37872D01*
X42628Y37976D01*
X42631Y37982D01*
X42637Y37986D01*
X42719Y38109D01*
X42720Y38115D01*
X42725Y38120D01*
X42781Y38256D01*
Y38263D01*
X42785Y38269D01*
X42814Y38413D01*
X42812Y38420D01*
X42815Y38426D01*
Y38574D01*
X42812Y38580D01*
X42814Y38587D01*
X42785Y38731D01*
X42781Y38737D01*
Y38744D01*
X42725Y38880D01*
X42720Y38885D01*
X42719Y38891D01*
X42637Y39014D01*
X42631Y39018D01*
X42628Y39024D01*
X42524Y39128D01*
X42518Y39131D01*
X42514Y39137D01*
X42391Y39219D01*
X42385Y39220D01*
X42380Y39225D01*
X42244Y39281D01*
X42237D01*
X42231Y39285D01*
X42087Y39314D01*
X42080Y39312D01*
X42074Y39315D01*
D02*
G37*
G36*
X49974Y39315D02*
X49826D01*
X49820Y39312D01*
X49813Y39314D01*
X49669Y39285D01*
X49663Y39281D01*
X49656D01*
X49520Y39225D01*
X49515Y39220D01*
X49509Y39219D01*
X49386Y39137D01*
X49382Y39131D01*
X49376Y39128D01*
X49272Y39024D01*
X49269Y39018D01*
X49263Y39014D01*
X49181Y38891D01*
X49180Y38885D01*
X49175Y38880D01*
X49119Y38744D01*
Y38737D01*
X49115Y38731D01*
X49086Y38587D01*
X49088Y38580D01*
X49085Y38574D01*
Y38426D01*
X49088Y38420D01*
X49086Y38413D01*
X49115Y38269D01*
X49119Y38263D01*
Y38256D01*
X49175Y38120D01*
X49180Y38115D01*
X49181Y38109D01*
X49263Y37986D01*
X49269Y37982D01*
X49272Y37976D01*
X49376Y37872D01*
X49382Y37869D01*
X49386Y37863D01*
X49509Y37781D01*
X49515Y37780D01*
X49520Y37775D01*
X49656Y37719D01*
X49663D01*
X49669Y37715D01*
X49813Y37686D01*
X49820Y37688D01*
X49826Y37685D01*
X49974D01*
X49980Y37688D01*
X49987Y37686D01*
X50131Y37715D01*
X50137Y37719D01*
X50144D01*
X50280Y37775D01*
X50285Y37780D01*
X50291Y37781D01*
X50414Y37863D01*
X50418Y37869D01*
X50424Y37872D01*
X50528Y37976D01*
X50531Y37982D01*
X50537Y37986D01*
X50619Y38109D01*
X50620Y38115D01*
X50625Y38120D01*
X50681Y38256D01*
Y38263D01*
X50685Y38269D01*
X50714Y38413D01*
X50712Y38420D01*
X50715Y38426D01*
Y38574D01*
X50712Y38580D01*
X50714Y38587D01*
X50685Y38731D01*
X50681Y38737D01*
Y38744D01*
X50625Y38880D01*
X50620Y38885D01*
X50619Y38891D01*
X50537Y39014D01*
X50531Y39018D01*
X50528Y39024D01*
X50424Y39128D01*
X50418Y39131D01*
X50414Y39137D01*
X50291Y39219D01*
X50285Y39220D01*
X50280Y39225D01*
X50144Y39281D01*
X50137D01*
X50131Y39285D01*
X49987Y39314D01*
X49980Y39312D01*
X49974Y39315D01*
D02*
G37*
G36*
X34174D02*
X34026D01*
X34020Y39312D01*
X34013Y39314D01*
X33869Y39285D01*
X33863Y39281D01*
X33856D01*
X33720Y39225D01*
X33715Y39220D01*
X33709Y39219D01*
X33586Y39137D01*
X33582Y39131D01*
X33576Y39128D01*
X33472Y39024D01*
X33469Y39018D01*
X33463Y39014D01*
X33381Y38891D01*
X33380Y38885D01*
X33375Y38880D01*
X33319Y38744D01*
Y38737D01*
X33315Y38731D01*
X33286Y38587D01*
X33288Y38580D01*
X33285Y38574D01*
Y38426D01*
X33288Y38420D01*
X33286Y38413D01*
X33315Y38269D01*
X33319Y38263D01*
Y38256D01*
X33375Y38120D01*
X33380Y38115D01*
X33381Y38109D01*
X33463Y37986D01*
X33469Y37982D01*
X33472Y37976D01*
X33576Y37872D01*
X33582Y37869D01*
X33586Y37863D01*
X33709Y37781D01*
X33715Y37780D01*
X33720Y37775D01*
X33856Y37719D01*
X33863D01*
X33869Y37715D01*
X34013Y37686D01*
X34020Y37688D01*
X34026Y37685D01*
X34174D01*
X34180Y37688D01*
X34187Y37686D01*
X34331Y37715D01*
X34337Y37719D01*
X34344D01*
X34480Y37775D01*
X34485Y37780D01*
X34491Y37781D01*
X34614Y37863D01*
X34618Y37869D01*
X34624Y37872D01*
X34728Y37976D01*
X34731Y37982D01*
X34737Y37986D01*
X34819Y38109D01*
X34820Y38115D01*
X34825Y38120D01*
X34881Y38256D01*
Y38263D01*
X34885Y38269D01*
X34914Y38413D01*
X34912Y38420D01*
X34915Y38426D01*
Y38574D01*
X34912Y38580D01*
X34914Y38587D01*
X34885Y38731D01*
X34881Y38737D01*
Y38744D01*
X34825Y38880D01*
X34820Y38885D01*
X34819Y38891D01*
X34737Y39014D01*
X34731Y39018D01*
X34728Y39024D01*
X34624Y39128D01*
X34618Y39131D01*
X34614Y39137D01*
X34491Y39219D01*
X34485Y39220D01*
X34480Y39225D01*
X34344Y39281D01*
X34337D01*
X34331Y39285D01*
X34187Y39314D01*
X34180Y39312D01*
X34174Y39315D01*
D02*
G37*
G36*
X29461Y39213D02*
X29091D01*
Y38493D01*
X29164D01*
Y37793D01*
X29025D01*
Y37687D01*
X28780D01*
Y37793D01*
X28320D01*
Y37356D01*
X28780D01*
Y37462D01*
X29025D01*
Y37356D01*
X29485D01*
Y37413D01*
X29763D01*
Y37308D01*
X30237D01*
Y37743D01*
X29763D01*
Y37638D01*
X29485D01*
Y37793D01*
X29388D01*
Y38493D01*
X29461D01*
Y39213D01*
D02*
G37*
G36*
X30130Y41172D02*
X29670D01*
Y40893D01*
X27396Y38619D01*
X27371Y38583D01*
X27363Y38540D01*
X27363Y38540D01*
Y37141D01*
X27331Y37119D01*
X27287Y37053D01*
X27271Y36975D01*
X27287Y36897D01*
X27331Y36831D01*
X27397Y36787D01*
X27475Y36771D01*
X27553Y36787D01*
X27619Y36831D01*
X27663Y36897D01*
X27679Y36975D01*
X27663Y37053D01*
X27619Y37119D01*
X27587Y37141D01*
Y38493D01*
X29829Y40735D01*
X30130D01*
Y41172D01*
D02*
G37*
G36*
X32450Y47259D02*
X32383Y47250D01*
X32320Y47224D01*
X32267Y47183D01*
X32226Y47130D01*
X32200Y47067D01*
X32191Y47000D01*
X32200Y46933D01*
X32207Y46916D01*
X31721Y46429D01*
X31696Y46393D01*
X31688Y46350D01*
X31688Y46350D01*
Y36650D01*
X31688Y36650D01*
X31696Y36607D01*
X31721Y36571D01*
X33888Y34404D01*
Y29946D01*
X30279Y26337D01*
X29653D01*
Y27395D01*
X29179D01*
X29179Y27395D01*
X29153D01*
Y27395D01*
X29129Y27395D01*
X28679D01*
X28679Y27395D01*
X28653D01*
Y27395D01*
X28629Y27395D01*
X28179D01*
Y27395D01*
X28153D01*
Y27395D01*
X27679D01*
Y27395D01*
X27653D01*
Y27395D01*
X27179D01*
Y27395D01*
X27153D01*
Y27395D01*
X26703D01*
X26666Y27395D01*
X26629Y27395D01*
X26319D01*
X26300Y27441D01*
X27679Y28821D01*
X27679Y28821D01*
X27704Y28857D01*
X27712Y28900D01*
X27712Y28900D01*
Y31004D01*
X29490Y32781D01*
X29535Y32755D01*
X29535Y32724D01*
Y32319D01*
X29535Y32281D01*
X29535Y32244D01*
Y31819D01*
X29535Y31781D01*
X29535Y31744D01*
Y31319D01*
X29535Y31281D01*
X29535Y31244D01*
Y30819D01*
X29535Y30782D01*
X29535Y30744D01*
Y30319D01*
X29535Y30282D01*
X29535Y30244D01*
Y29819D01*
X29535Y29781D01*
X29535Y29744D01*
Y29319D01*
X29535Y29281D01*
X29535Y29244D01*
Y28819D01*
X29535Y28781D01*
X29535Y28744D01*
Y28294D01*
X30655D01*
Y28419D01*
X30981D01*
X30982Y28419D01*
X31024Y28428D01*
X31061Y28452D01*
X33079Y30471D01*
X33104Y30507D01*
X33112Y30550D01*
X33112Y30550D01*
Y33234D01*
X33144Y33256D01*
X33188Y33322D01*
X33204Y33400D01*
X33188Y33478D01*
X33144Y33544D01*
X33078Y33588D01*
X33000Y33604D01*
X32922Y33588D01*
X32856Y33544D01*
X32812Y33478D01*
X32796Y33400D01*
X32812Y33322D01*
X32856Y33256D01*
X32888Y33234D01*
Y30596D01*
X30935Y28644D01*
X30690D01*
X30655Y28679D01*
X30655Y28781D01*
X30655Y28819D01*
Y29244D01*
X30655Y29281D01*
X30655Y29319D01*
Y29744D01*
X30655Y29781D01*
X30655Y29819D01*
Y30244D01*
X30655Y30282D01*
X30655Y30319D01*
Y30744D01*
X30655Y30782D01*
X30655Y30819D01*
Y31244D01*
X30655Y31281D01*
X30655Y31319D01*
Y31744D01*
X30655Y31781D01*
X30655Y31819D01*
Y32244D01*
X30655Y32281D01*
X30655Y32319D01*
Y32388D01*
X31335D01*
Y32270D01*
X31772D01*
Y32730D01*
X31335D01*
Y32612D01*
X30655D01*
Y32769D01*
X29583D01*
X29548Y32769D01*
X29522Y32813D01*
X31906Y35197D01*
X31978Y35212D01*
X32044Y35256D01*
X32088Y35322D01*
X32104Y35400D01*
X32088Y35478D01*
X32044Y35544D01*
X31978Y35588D01*
X31900Y35604D01*
X31822Y35588D01*
X31756Y35544D01*
X31712Y35478D01*
X31696Y35400D01*
X31712Y35322D01*
X31712Y35321D01*
X29699Y33308D01*
X29653Y33327D01*
Y34288D01*
X29512D01*
Y34985D01*
X29630D01*
Y35422D01*
X29170D01*
Y34985D01*
X29288D01*
Y34323D01*
X29252Y34288D01*
X29166Y34288D01*
X29129Y34288D01*
X28895D01*
X28892Y34304D01*
X28868Y34341D01*
X28868Y34341D01*
X27261Y35947D01*
X27278Y36002D01*
X27328Y36012D01*
X27394Y36056D01*
X27438Y36122D01*
X27454Y36200D01*
X27446Y36238D01*
X28078Y36869D01*
X28320D01*
Y36763D01*
X28780D01*
Y37200D01*
X28320D01*
Y37094D01*
X28031D01*
X28031Y37094D01*
X27989Y37085D01*
X27952Y37061D01*
X27952Y37061D01*
X27288Y36396D01*
X27250Y36404D01*
X27172Y36388D01*
X27156Y36378D01*
X27112Y36401D01*
Y44349D01*
X28433Y45670D01*
X28712D01*
Y46130D01*
X28662D01*
Y46606D01*
X28709Y46625D01*
X28775Y46675D01*
X28825Y46741D01*
X28857Y46818D01*
X28868Y46900D01*
X28857Y46982D01*
X28825Y47059D01*
X28775Y47125D01*
X28709Y47175D01*
X28632Y47207D01*
X28550Y47218D01*
X28468Y47207D01*
X28391Y47175D01*
X28325Y47125D01*
X28275Y47059D01*
X28243Y46982D01*
X28232Y46900D01*
X28243Y46818D01*
X28275Y46741D01*
X28325Y46675D01*
X28391Y46625D01*
X28438Y46606D01*
Y46130D01*
X28274D01*
Y45829D01*
X28165Y45719D01*
X28119Y45738D01*
Y46130D01*
X28114D01*
Y46550D01*
X28098Y46632D01*
X28051Y46701D01*
X27865Y46888D01*
Y47215D01*
X27235D01*
Y46585D01*
X27562D01*
X27686Y46461D01*
Y46130D01*
X27681D01*
Y45670D01*
X28050D01*
X28070Y45624D01*
X26921Y44475D01*
X26896Y44439D01*
X26888Y44396D01*
X26888Y44396D01*
Y41141D01*
X26838Y41121D01*
X26796Y41162D01*
X26804Y41200D01*
X26788Y41278D01*
X26744Y41344D01*
X26678Y41388D01*
X26600Y41404D01*
X26522Y41388D01*
X26506Y41378D01*
X26462Y41401D01*
Y45050D01*
X26454Y45093D01*
X26429Y45129D01*
X26429Y45129D01*
X25219Y46339D01*
X25210Y46346D01*
Y46710D01*
Y46990D01*
X24090D01*
Y46710D01*
Y46430D01*
Y46150D01*
Y45870D01*
Y45590D01*
Y45310D01*
Y45030D01*
X24669D01*
X24680Y45028D01*
X25164D01*
X25338Y44854D01*
Y42686D01*
X25334Y42680D01*
X25325Y42638D01*
X25325Y42637D01*
Y42566D01*
X25293Y42544D01*
X25249Y42478D01*
X25234Y42400D01*
X25249Y42322D01*
X25293Y42256D01*
X25359Y42212D01*
X25438Y42196D01*
X25516Y42212D01*
X25568Y42247D01*
X25618Y42227D01*
Y36426D01*
X25408Y36217D01*
X25362Y36236D01*
Y39258D01*
X25378Y39262D01*
X25444Y39306D01*
X25488Y39372D01*
X25504Y39450D01*
X25488Y39528D01*
X25444Y39594D01*
X25378Y39638D01*
X25300Y39654D01*
X25222Y39638D01*
X25156Y39594D01*
X25112Y39528D01*
X25096Y39450D01*
X25112Y39372D01*
X25138Y39333D01*
Y36196D01*
X23336Y34395D01*
X23312Y34359D01*
X23304Y34316D01*
X23267Y34288D01*
X23179D01*
Y33168D01*
X23653D01*
Y33168D01*
X23679D01*
Y33168D01*
X24129D01*
X24166Y33168D01*
X24203Y33168D01*
X24304D01*
Y33000D01*
X24272Y32978D01*
X24227Y32912D01*
X24212Y32834D01*
X24227Y32756D01*
X24272Y32690D01*
X24338Y32646D01*
X24416Y32630D01*
X24494Y32646D01*
X24560Y32690D01*
X24604Y32756D01*
X24620Y32834D01*
X24604Y32912D01*
X24560Y32978D01*
X24528Y33000D01*
Y33133D01*
X24563Y33168D01*
X24666Y33168D01*
X24703Y33168D01*
X24804D01*
Y33000D01*
X24772Y32978D01*
X24727Y32912D01*
X24712Y32834D01*
X24727Y32756D01*
X24772Y32690D01*
X24838Y32646D01*
X24916Y32630D01*
X24994Y32646D01*
X25060Y32690D01*
X25104Y32756D01*
X25120Y32834D01*
X25104Y32912D01*
X25060Y32978D01*
X25028Y33000D01*
Y33133D01*
X25063Y33168D01*
X25166Y33168D01*
X25203Y33168D01*
X25629D01*
X25666Y33168D01*
X25703Y33168D01*
X26129D01*
X26166Y33168D01*
X26203Y33168D01*
X26629D01*
X26666Y33168D01*
X26703Y33168D01*
X27129D01*
X27166Y33168D01*
X27203Y33168D01*
X27629D01*
X27666Y33168D01*
X27703Y33168D01*
X28153D01*
Y33168D01*
X28179D01*
Y33168D01*
X28653D01*
Y33168D01*
X28679D01*
Y33168D01*
X29139Y33168D01*
X29164Y33122D01*
X28154Y32112D01*
X23566D01*
X23544Y32144D01*
X23478Y32188D01*
X23400Y32204D01*
X23322Y32188D01*
X23256Y32144D01*
X23212Y32078D01*
X23196Y32000D01*
X23212Y31922D01*
X23256Y31856D01*
X23322Y31812D01*
X23400Y31796D01*
X23478Y31812D01*
X23544Y31856D01*
X23566Y31888D01*
X28200D01*
X28200Y31888D01*
X28211Y31890D01*
X28235Y31844D01*
X27521Y31129D01*
X27496Y31093D01*
X27488Y31050D01*
X27488Y31050D01*
Y28946D01*
X25964Y27422D01*
X25945Y27395D01*
X25666Y27395D01*
X25629Y27395D01*
X25203D01*
X25166Y27395D01*
X25129Y27395D01*
X24703D01*
X24666Y27395D01*
X24629Y27395D01*
X24179D01*
X24179Y27395D01*
X24153D01*
Y27395D01*
X24129Y27395D01*
X23679D01*
X23679Y27395D01*
X23630Y27398D01*
Y27658D01*
X23637Y27663D01*
X23687Y27728D01*
X23718Y27803D01*
X23728Y27884D01*
X23718Y27965D01*
X23687Y28041D01*
X23637Y28105D01*
X23572Y28155D01*
X23497Y28186D01*
X23416Y28197D01*
X23335Y28186D01*
X23259Y28155D01*
X23195Y28105D01*
X23145Y28041D01*
X23114Y27965D01*
X23103Y27884D01*
X23114Y27803D01*
X23145Y27728D01*
X23195Y27663D01*
X23202Y27658D01*
Y27395D01*
X23179D01*
Y26275D01*
X23501D01*
X23520Y26229D01*
X22971Y25679D01*
X22946Y25643D01*
X22938Y25600D01*
X22938Y25600D01*
Y25247D01*
X22820D01*
Y24809D01*
X23280D01*
X23291Y24764D01*
Y24699D01*
X23280Y24654D01*
X23241Y24654D01*
X22820D01*
Y24216D01*
X22836D01*
Y23826D01*
X22829Y23821D01*
X22779Y23756D01*
X22748Y23681D01*
X22737Y23600D01*
X22748Y23519D01*
X22779Y23444D01*
X22829Y23379D01*
X22894Y23329D01*
X22969Y23298D01*
X23050Y23287D01*
X23131Y23298D01*
X23206Y23329D01*
X23271Y23379D01*
X23321Y23444D01*
X23338Y23485D01*
X23388Y23475D01*
Y22093D01*
X23318Y22064D01*
X23243Y22007D01*
X23186Y21932D01*
X23149Y21844D01*
X23137Y21750D01*
X23149Y21656D01*
X23186Y21568D01*
X23243Y21493D01*
X23318Y21436D01*
X23406Y21399D01*
X23500Y21387D01*
X23594Y21399D01*
X23682Y21436D01*
X23757Y21493D01*
X23814Y21568D01*
X23851Y21656D01*
X23863Y21750D01*
X23851Y21844D01*
X23814Y21932D01*
X23757Y22007D01*
X23682Y22064D01*
X23612Y22093D01*
Y23950D01*
X23612Y23950D01*
X23604Y23993D01*
X23579Y24029D01*
X23579Y24029D01*
X23516Y24093D01*
Y24916D01*
X23569D01*
Y24762D01*
X24043D01*
Y24867D01*
X24202D01*
X24222Y24817D01*
X24121Y24715D01*
X24096Y24679D01*
X24088Y24636D01*
X24088Y24636D01*
Y23750D01*
X24088Y23750D01*
X24096Y23707D01*
X24121Y23671D01*
X24688Y23104D01*
Y22093D01*
X24618Y22064D01*
X24543Y22007D01*
X24486Y21932D01*
X24449Y21844D01*
X24437Y21750D01*
X24449Y21656D01*
X24486Y21568D01*
X24543Y21493D01*
X24618Y21436D01*
X24706Y21399D01*
X24800Y21387D01*
X24894Y21399D01*
X24982Y21436D01*
X25057Y21493D01*
X25114Y21568D01*
X25151Y21656D01*
X25163Y21750D01*
X25151Y21844D01*
X25114Y21932D01*
X25057Y22007D01*
X24982Y22064D01*
X24912Y22093D01*
Y23081D01*
X24962Y23101D01*
X25862Y22201D01*
Y21740D01*
X26982D01*
Y22360D01*
X26021D01*
X24595Y23785D01*
Y24216D01*
X24713D01*
Y24647D01*
X24920D01*
X24920Y24647D01*
X24970Y24606D01*
Y24216D01*
X25271D01*
X25617Y23871D01*
X25617Y23871D01*
X25653Y23846D01*
X25696Y23838D01*
X25696Y23838D01*
X25862D01*
Y23640D01*
X26982D01*
Y24260D01*
X25862D01*
Y24062D01*
X25743D01*
X25430Y24375D01*
Y24654D01*
X25044D01*
X25023Y24704D01*
X25129Y24809D01*
X25430D01*
Y25247D01*
X25312D01*
Y25534D01*
X25344Y25556D01*
X25388Y25622D01*
X25404Y25700D01*
X25388Y25778D01*
X25344Y25844D01*
X25278Y25888D01*
X25200Y25904D01*
X25122Y25888D01*
X25056Y25844D01*
X25012Y25778D01*
X24996Y25700D01*
X25012Y25622D01*
X25056Y25556D01*
X25088Y25534D01*
Y25247D01*
X24970D01*
Y24968D01*
X24873Y24871D01*
X24713D01*
Y25247D01*
X24253D01*
Y25091D01*
X24043D01*
Y25196D01*
X23569D01*
Y25140D01*
X23280D01*
Y25247D01*
X23162D01*
Y25554D01*
X23868Y26259D01*
X23878Y26275D01*
X23937D01*
X23939Y26264D01*
X23964Y26228D01*
X24209Y25982D01*
X24209Y25982D01*
X24246Y25958D01*
X24289Y25949D01*
X24289Y25949D01*
X24438D01*
X24438Y25949D01*
X24483Y25883D01*
X24549Y25838D01*
X24627Y25823D01*
X24705Y25838D01*
X24771Y25883D01*
X24815Y25949D01*
X24831Y26027D01*
X24815Y26105D01*
X24771Y26171D01*
X24705Y26215D01*
X24701Y26216D01*
X24684Y26270D01*
X24689Y26275D01*
X25129D01*
X25166Y26275D01*
X25203Y26275D01*
X25629D01*
X25666Y26275D01*
X25703Y26275D01*
X26129D01*
X26153Y26275D01*
Y26275D01*
X26179D01*
Y26275D01*
X26288D01*
Y25567D01*
X26181D01*
Y25107D01*
X26619D01*
Y25567D01*
X26512D01*
Y26240D01*
X26548Y26275D01*
X26666Y26275D01*
X26703Y26275D01*
X26966D01*
X27679Y25562D01*
X27660Y25516D01*
X27568D01*
Y25411D01*
X27212D01*
Y25567D01*
X26774D01*
Y25107D01*
X27212D01*
Y25186D01*
X27568D01*
Y25081D01*
X28003D01*
Y25473D01*
X28197D01*
Y25084D01*
X28632D01*
Y25087D01*
X29170D01*
X29178Y25069D01*
X29228Y25004D01*
X29292Y24954D01*
X29368Y24923D01*
X29449Y24912D01*
X29530Y24923D01*
X29605Y24954D01*
X29670Y25004D01*
X29719Y25069D01*
X29751Y25144D01*
X29761Y25225D01*
X29751Y25306D01*
X29719Y25381D01*
X29688Y25423D01*
X29712Y25473D01*
X30667D01*
X30667Y25473D01*
X30710Y25481D01*
X30747Y25506D01*
X34729Y29488D01*
X34729Y29488D01*
X34754Y29525D01*
X34762Y29568D01*
X34762Y29568D01*
Y33725D01*
X44733Y43696D01*
X44800Y43687D01*
X44894Y43699D01*
X44982Y43736D01*
X45057Y43793D01*
X45114Y43868D01*
X45151Y43956D01*
X45163Y44050D01*
X45151Y44144D01*
X45114Y44232D01*
X45057Y44307D01*
X44982Y44364D01*
X44894Y44401D01*
X44800Y44413D01*
X44706Y44401D01*
X44618Y44364D01*
X44543Y44307D01*
X44486Y44232D01*
X44449Y44144D01*
X44437Y44050D01*
X44449Y43956D01*
X44486Y43868D01*
X44530Y43810D01*
X41958Y41238D01*
X41912Y41257D01*
Y43354D01*
X42287Y43728D01*
X42356Y43699D01*
X42450Y43687D01*
X42544Y43699D01*
X42632Y43736D01*
X42707Y43793D01*
X42764Y43868D01*
X42801Y43956D01*
X42813Y44050D01*
X42801Y44144D01*
X42764Y44232D01*
X42707Y44307D01*
X42632Y44364D01*
X42544Y44401D01*
X42450Y44413D01*
X42356Y44401D01*
X42268Y44364D01*
X42193Y44307D01*
X42136Y44232D01*
X42099Y44144D01*
X42087Y44050D01*
X42099Y43956D01*
X42128Y43887D01*
X41721Y43479D01*
X41696Y43443D01*
X41688Y43400D01*
X41688Y43400D01*
Y41194D01*
X39808Y39314D01*
X39762Y39334D01*
Y42817D01*
X39812Y42834D01*
X39843Y42793D01*
X39918Y42736D01*
X40006Y42699D01*
X40100Y42687D01*
X40194Y42699D01*
X40282Y42736D01*
X40357Y42793D01*
X40414Y42868D01*
X40451Y42956D01*
X40463Y43050D01*
X40451Y43144D01*
X40414Y43232D01*
X40357Y43307D01*
X40282Y43364D01*
X40194Y43401D01*
X40100Y43413D01*
X40006Y43401D01*
X39918Y43364D01*
X39843Y43307D01*
X39812Y43266D01*
X39762Y43283D01*
Y43554D01*
X39937Y43728D01*
X40006Y43699D01*
X40100Y43687D01*
X40194Y43699D01*
X40282Y43736D01*
X40357Y43793D01*
X40414Y43868D01*
X40451Y43956D01*
X40463Y44050D01*
X40451Y44144D01*
X40414Y44232D01*
X40357Y44307D01*
X40282Y44364D01*
X40194Y44401D01*
X40100Y44413D01*
X40006Y44401D01*
X39918Y44364D01*
X39843Y44307D01*
X39786Y44232D01*
X39749Y44144D01*
X39737Y44050D01*
X39749Y43956D01*
X39778Y43887D01*
X39571Y43679D01*
X39546Y43643D01*
X39538Y43600D01*
X39538Y43600D01*
Y42491D01*
X39488Y42471D01*
X38072Y43887D01*
X38101Y43956D01*
X38113Y44050D01*
X38101Y44144D01*
X38064Y44232D01*
X38007Y44307D01*
X37932Y44364D01*
X37844Y44401D01*
X37750Y44413D01*
X37656Y44401D01*
X37568Y44364D01*
X37493Y44307D01*
X37436Y44232D01*
X37399Y44144D01*
X37387Y44050D01*
X37399Y43956D01*
X37436Y43868D01*
X37493Y43793D01*
X37568Y43736D01*
X37656Y43699D01*
X37750Y43687D01*
X37844Y43699D01*
X37913Y43728D01*
X39338Y42304D01*
Y39296D01*
X34158Y34117D01*
X34112Y34136D01*
Y34450D01*
X34112Y34450D01*
X34104Y34493D01*
X34079Y34529D01*
X34079Y34529D01*
X31912Y36696D01*
Y46304D01*
X32145Y46537D01*
X32193Y46513D01*
X32191Y46500D01*
X32200Y46433D01*
X32226Y46370D01*
X32267Y46317D01*
X32280Y46307D01*
X32263Y46257D01*
X32193D01*
Y45743D01*
X32707D01*
Y45888D01*
X35850D01*
X35850Y45888D01*
X35893Y45896D01*
X35929Y45921D01*
X36537Y46528D01*
X36606Y46499D01*
X36700Y46487D01*
X36794Y46499D01*
X36882Y46536D01*
X36957Y46593D01*
X37014Y46668D01*
X37051Y46756D01*
X37063Y46850D01*
X37051Y46944D01*
X37014Y47032D01*
X36957Y47107D01*
X36882Y47164D01*
X36794Y47201D01*
X36700Y47213D01*
X36606Y47201D01*
X36518Y47164D01*
X36443Y47107D01*
X36386Y47032D01*
X36349Y46944D01*
X36337Y46850D01*
X36349Y46756D01*
X36378Y46687D01*
X35804Y46112D01*
X32707D01*
Y46257D01*
X32671D01*
X32647Y46307D01*
X32663Y46328D01*
X35290D01*
X35290Y46328D01*
X35333Y46336D01*
X35369Y46361D01*
X35537Y46528D01*
X35606Y46499D01*
X35700Y46487D01*
X35794Y46499D01*
X35882Y46536D01*
X35957Y46593D01*
X36014Y46668D01*
X36051Y46756D01*
X36063Y46850D01*
X36051Y46944D01*
X36014Y47032D01*
X35957Y47107D01*
X35882Y47164D01*
X35794Y47201D01*
X35700Y47213D01*
X35606Y47201D01*
X35518Y47164D01*
X35443Y47107D01*
X35386Y47032D01*
X35349Y46944D01*
X35337Y46850D01*
X35349Y46756D01*
X35378Y46687D01*
X35244Y46552D01*
X34978D01*
X34964Y46602D01*
X35014Y46668D01*
X35051Y46756D01*
X35063Y46850D01*
X35051Y46944D01*
X35014Y47032D01*
X34957Y47107D01*
X34882Y47164D01*
X34794Y47201D01*
X34700Y47213D01*
X34606Y47201D01*
X34518Y47164D01*
X34443Y47107D01*
X34386Y47032D01*
X34349Y46944D01*
X34337Y46850D01*
X34349Y46756D01*
X34386Y46668D01*
X34436Y46602D01*
X34422Y46552D01*
X32702D01*
X32700Y46567D01*
X32674Y46630D01*
X32633Y46683D01*
X32582Y46723D01*
X32578Y46749D01*
Y46751D01*
X32582Y46777D01*
X32633Y46817D01*
X32674Y46870D01*
X32700Y46933D01*
X32709Y47000D01*
X32700Y47067D01*
X32674Y47130D01*
X32633Y47183D01*
X32580Y47224D01*
X32517Y47250D01*
X32450Y47259D01*
D02*
G37*
G36*
X29630Y36015D02*
X29170D01*
Y35578D01*
X29630D01*
Y35582D01*
X29856D01*
X29876Y35534D01*
X29925Y35469D01*
X29990Y35419D01*
X30066Y35388D01*
X30147Y35377D01*
X30227Y35388D01*
X30303Y35419D01*
X30368Y35469D01*
X30417Y35534D01*
X30449Y35609D01*
X30459Y35690D01*
X30449Y35771D01*
X30417Y35846D01*
X30368Y35911D01*
X30303Y35961D01*
X30227Y35992D01*
X30147Y36003D01*
X30070Y35993D01*
X30068Y35994D01*
X29986Y36011D01*
X29630D01*
Y36015D01*
D02*
G37*
G36*
X50450Y37015D02*
X47900D01*
X47854Y36996D01*
X47835Y36950D01*
Y32972D01*
X46262D01*
X46239Y32995D01*
Y33763D01*
X46242D01*
Y34237D01*
X45807D01*
Y33763D01*
X45810D01*
Y32979D01*
X45566D01*
Y32982D01*
X45434D01*
X45324Y33092D01*
Y33472D01*
X45570D01*
Y34527D01*
X44953D01*
X44129Y35351D01*
X44059Y35398D01*
X43977Y35414D01*
X40350D01*
X40268Y35398D01*
X40199Y35351D01*
X37857Y33010D01*
X37440D01*
Y32864D01*
X35760D01*
Y33010D01*
X35040D01*
Y32290D01*
X35760D01*
Y32436D01*
X37440D01*
Y32290D01*
X38160D01*
Y32707D01*
X40439Y34986D01*
X43889D01*
X44650Y34225D01*
Y33472D01*
X44896D01*
Y33092D01*
X44623Y32820D01*
X44462D01*
Y32858D01*
X43370D01*
Y32353D01*
X44462D01*
Y32391D01*
X44712D01*
X44794Y32408D01*
X44864Y32454D01*
X45081Y32672D01*
X45131Y32651D01*
Y32547D01*
X45566D01*
Y32551D01*
X45963D01*
Y32533D01*
X46437D01*
Y32543D01*
X47835D01*
Y32450D01*
X47838Y32443D01*
Y32380D01*
X47847Y32312D01*
X47873Y32249D01*
X47915Y32195D01*
X47969Y32153D01*
X48032Y32127D01*
X48100Y32118D01*
X48168Y32127D01*
X48231Y32153D01*
X48285Y32195D01*
X48327Y32249D01*
X48353Y32312D01*
X48362Y32380D01*
Y32385D01*
X50450D01*
X50496Y32404D01*
X50515Y32450D01*
Y34811D01*
X50510Y34823D01*
Y34836D01*
X50501Y34845D01*
X50496Y34857D01*
X50482Y34908D01*
X50886Y35312D01*
X52028D01*
X53520Y33821D01*
Y33578D01*
X53980D01*
Y33659D01*
X55217D01*
X55270Y33669D01*
X55314Y33699D01*
X55391Y33776D01*
X55456Y33749D01*
X55550Y33737D01*
X55644Y33749D01*
X55732Y33786D01*
X55807Y33843D01*
X55864Y33918D01*
X55901Y34006D01*
X55913Y34100D01*
X55901Y34194D01*
X55864Y34282D01*
X55807Y34357D01*
X55732Y34414D01*
X55644Y34451D01*
X55550Y34463D01*
X55456Y34451D01*
X55368Y34414D01*
X55293Y34357D01*
X55236Y34282D01*
X55199Y34194D01*
X55187Y34100D01*
X55199Y34006D01*
X55209Y33983D01*
X55160Y33934D01*
X53980D01*
Y34015D01*
X53715D01*
X52183Y35547D01*
X52138Y35577D01*
X52085Y35588D01*
X50829D01*
X50829Y35588D01*
X50777Y35577D01*
X50732Y35547D01*
X50732Y35547D01*
X50561Y35376D01*
X50515Y35396D01*
Y36950D01*
X50496Y36996D01*
X50450Y37015D01*
D02*
G37*
G36*
X58955Y33491D02*
X58345D01*
X58190Y33336D01*
Y33026D01*
X58345Y32871D01*
X58955D01*
X59110Y33026D01*
Y33336D01*
X58955Y33491D01*
D02*
G37*
G36*
X52106Y34995D02*
X51126D01*
Y34205D01*
X51402D01*
Y33712D01*
X50792D01*
Y32292D01*
X52408D01*
Y32788D01*
X52771D01*
X52777Y32781D01*
X52841Y32731D01*
X52917Y32700D01*
X52998Y32690D01*
X53079Y32700D01*
X53154Y32731D01*
X53219Y32781D01*
X53269Y32846D01*
X53300Y32921D01*
X53310Y33002D01*
X53300Y33083D01*
X53269Y33159D01*
X53219Y33223D01*
X53154Y33273D01*
X53079Y33304D01*
X52998Y33315D01*
X52917Y33304D01*
X52841Y33273D01*
X52777Y33223D01*
X52771Y33216D01*
X52408D01*
Y33712D01*
X51830D01*
Y34205D01*
X52106D01*
Y34995D01*
D02*
G37*
G36*
X54426Y33237D02*
X54345Y33226D01*
X54270Y33195D01*
X54205Y33145D01*
X54155Y33080D01*
X54124Y33005D01*
X54113Y32924D01*
X54124Y32843D01*
X54155Y32768D01*
X54205Y32703D01*
X54270Y32653D01*
X54345Y32622D01*
X54426Y32611D01*
X54507Y32622D01*
X54582Y32653D01*
X54647Y32703D01*
X54653Y32710D01*
X55049D01*
X55131Y32726D01*
X55175Y32756D01*
X55306D01*
Y33092D01*
X55175D01*
X55131Y33122D01*
X55049Y33138D01*
X54653D01*
X54647Y33145D01*
X54582Y33195D01*
X54507Y33226D01*
X54426Y33237D01*
D02*
G37*
G36*
X53980Y33422D02*
X53520D01*
Y32985D01*
X53638D01*
Y32665D01*
X53520D01*
Y32228D01*
X53821D01*
X53953Y32097D01*
X53953Y32097D01*
X53989Y32072D01*
X54032Y32064D01*
X54032Y32064D01*
X54792D01*
Y32008D01*
X55306D01*
Y32344D01*
X54792D01*
Y32288D01*
X54078D01*
X53980Y32386D01*
Y32665D01*
X53862D01*
Y32985D01*
X53980D01*
Y33422D01*
D02*
G37*
G36*
X40728Y32510D02*
X39673D01*
Y31790D01*
X39187D01*
Y31793D01*
X38713D01*
Y31790D01*
X38132D01*
X38114Y31832D01*
X38057Y31907D01*
X37982Y31964D01*
X37894Y32001D01*
X37800Y32013D01*
X37706Y32001D01*
X37618Y31964D01*
X37543Y31907D01*
X37511Y31864D01*
X35689D01*
X35657Y31907D01*
X35582Y31964D01*
X35494Y32001D01*
X35400Y32013D01*
X35306Y32001D01*
X35218Y31964D01*
X35143Y31907D01*
X35086Y31832D01*
X35049Y31744D01*
X35037Y31650D01*
X35049Y31556D01*
X35086Y31468D01*
X35143Y31393D01*
X35218Y31336D01*
X35306Y31299D01*
X35400Y31287D01*
X35494Y31299D01*
X35582Y31336D01*
X35657Y31393D01*
X35689Y31436D01*
X37511D01*
X37543Y31393D01*
X37618Y31336D01*
X37706Y31299D01*
X37800Y31287D01*
X37894Y31299D01*
X37982Y31336D01*
X38015Y31361D01*
X38713D01*
Y31358D01*
X39187D01*
Y31361D01*
X39858D01*
X39940Y31378D01*
X40009Y31424D01*
X40175Y31590D01*
X40728D01*
Y31636D01*
X41138D01*
Y30931D01*
X41486D01*
Y30165D01*
X41000D01*
X40954Y30146D01*
X40935Y30100D01*
Y29314D01*
X40879Y29271D01*
X40829Y29206D01*
X40798Y29131D01*
X40787Y29050D01*
X40798Y28969D01*
X40829Y28894D01*
X40879Y28829D01*
X40935Y28786D01*
Y28514D01*
X40879Y28471D01*
X40829Y28406D01*
X40798Y28331D01*
X40787Y28250D01*
X40798Y28169D01*
X40829Y28094D01*
X40879Y28029D01*
X40944Y27979D01*
X41019Y27948D01*
X41100Y27937D01*
X41181Y27948D01*
X41256Y27979D01*
X41321Y28029D01*
X41371Y28094D01*
X41388Y28135D01*
X41487D01*
X41504Y28094D01*
X41554Y28029D01*
X41619Y27979D01*
X41694Y27948D01*
X41775Y27937D01*
X41856Y27948D01*
X41931Y27979D01*
X41996Y28029D01*
X42046Y28094D01*
X42063Y28135D01*
X42162D01*
X42179Y28094D01*
X42229Y28029D01*
X42294Y27979D01*
X42369Y27948D01*
X42450Y27937D01*
X42531Y27948D01*
X42606Y27979D01*
X42671Y28029D01*
X42721Y28094D01*
X42746Y28154D01*
X42746Y28154D01*
X42765Y28200D01*
Y30100D01*
X42746Y30146D01*
X42700Y30165D01*
X41914D01*
Y30931D01*
X42230D01*
Y31486D01*
X43370D01*
Y31447D01*
X44462D01*
Y31953D01*
X43370D01*
Y31914D01*
X42230D01*
Y32469D01*
X41138D01*
Y32064D01*
X40728D01*
Y32510D01*
D02*
G37*
G36*
X56408Y33092D02*
X55894D01*
Y32756D01*
X55894Y32756D01*
Y32718D01*
X55894D01*
X55894Y32706D01*
Y32382D01*
X55894D01*
Y32344D01*
X55894D01*
Y32008D01*
X56025D01*
X56069Y31978D01*
X56111Y31970D01*
X56127Y31916D01*
X56076Y31864D01*
X54222D01*
X54140Y31848D01*
X54071Y31801D01*
X52981Y30712D01*
X52408D01*
Y31208D01*
X50792D01*
Y29788D01*
X52408D01*
Y30284D01*
X53070D01*
X53152Y30300D01*
X53221Y30346D01*
X54311Y31436D01*
X56164D01*
X56246Y31452D01*
X56316Y31499D01*
X56603Y31786D01*
X58240D01*
Y31690D01*
X59060D01*
Y32310D01*
X58240D01*
Y32214D01*
X56603D01*
X56408Y32409D01*
Y32706D01*
X56408Y32718D01*
X56408D01*
Y32756D01*
X56408D01*
Y33092D01*
D02*
G37*
G36*
X45569Y32353D02*
X45134D01*
Y31918D01*
X45137D01*
Y31412D01*
X45120D01*
Y30974D01*
X45580D01*
Y31412D01*
X45565D01*
Y31918D01*
X45569D01*
Y32353D01*
D02*
G37*
G36*
X37800Y31013D02*
X37706Y31001D01*
X37618Y30964D01*
X37618Y30964D01*
X35582D01*
X35582Y30964D01*
X35494Y31001D01*
X35400Y31013D01*
X35306Y31001D01*
X35218Y30964D01*
X35143Y30907D01*
X35086Y30832D01*
X35049Y30744D01*
X35037Y30650D01*
X35049Y30556D01*
X35086Y30468D01*
X35143Y30393D01*
X35218Y30336D01*
X35306Y30299D01*
X35400Y30287D01*
X35494Y30299D01*
X35582Y30336D01*
X35657Y30393D01*
X35714Y30468D01*
X35742Y30536D01*
X37458D01*
X37486Y30468D01*
X37543Y30393D01*
X37618Y30336D01*
X37706Y30299D01*
X37800Y30287D01*
X37894Y30299D01*
X37982Y30336D01*
X38057Y30393D01*
X38114Y30468D01*
X38151Y30556D01*
X38163Y30650D01*
X38151Y30744D01*
X38114Y30832D01*
X38057Y30907D01*
X37982Y30964D01*
X37894Y31001D01*
X37800Y31013D01*
D02*
G37*
G36*
X58905Y31129D02*
X58395D01*
X58240Y30974D01*
Y30664D01*
X58395Y30509D01*
X58905D01*
X59060Y30664D01*
Y30974D01*
X58905Y31129D01*
D02*
G37*
G36*
X37800Y30013D02*
X37706Y30001D01*
X37618Y29964D01*
X37618Y29964D01*
X35582D01*
X35582Y29964D01*
X35494Y30001D01*
X35400Y30013D01*
X35306Y30001D01*
X35218Y29964D01*
X35143Y29907D01*
X35086Y29832D01*
X35049Y29744D01*
X35037Y29650D01*
X35049Y29556D01*
X35086Y29468D01*
X35143Y29393D01*
X35218Y29336D01*
X35306Y29299D01*
X35400Y29287D01*
X35494Y29299D01*
X35582Y29336D01*
X35657Y29393D01*
X35714Y29468D01*
X35742Y29536D01*
X37458D01*
X37486Y29468D01*
X37543Y29393D01*
X37618Y29336D01*
X37706Y29299D01*
X37800Y29287D01*
X37894Y29299D01*
X37982Y29336D01*
X38057Y29393D01*
X38114Y29468D01*
X38151Y29556D01*
X38163Y29650D01*
X38151Y29744D01*
X38114Y29832D01*
X38057Y29907D01*
X37982Y29964D01*
X37894Y30001D01*
X37800Y30013D01*
D02*
G37*
G36*
X58905Y29948D02*
X58395D01*
X58240Y29793D01*
Y29483D01*
X58395Y29328D01*
X58905D01*
X59060Y29483D01*
Y29793D01*
X58905Y29948D01*
D02*
G37*
G36*
X37800Y29013D02*
X37706Y29001D01*
X37618Y28964D01*
X37618Y28964D01*
X35582D01*
X35582Y28964D01*
X35494Y29001D01*
X35400Y29013D01*
X35306Y29001D01*
X35218Y28964D01*
X35143Y28907D01*
X35086Y28832D01*
X35049Y28744D01*
X35037Y28650D01*
X35049Y28556D01*
X35086Y28468D01*
X35143Y28393D01*
X35218Y28336D01*
X35306Y28299D01*
X35400Y28287D01*
X35494Y28299D01*
X35582Y28336D01*
X35657Y28393D01*
X35714Y28468D01*
X35742Y28536D01*
X37458D01*
X37486Y28468D01*
X37543Y28393D01*
X37618Y28336D01*
X37706Y28299D01*
X37800Y28287D01*
X37894Y28299D01*
X37982Y28336D01*
X38057Y28393D01*
X38114Y28468D01*
X38151Y28556D01*
X38163Y28650D01*
X38151Y28744D01*
X38114Y28832D01*
X38057Y28907D01*
X37982Y28964D01*
X37894Y29001D01*
X37800Y29013D01*
D02*
G37*
G36*
X58955Y28767D02*
X58345D01*
X58190Y28612D01*
Y28302D01*
X58345Y28147D01*
X58955D01*
X59110Y28302D01*
Y28612D01*
X58955Y28767D01*
D02*
G37*
G36*
X37800Y28013D02*
X37706Y28001D01*
X37618Y27964D01*
X37618Y27964D01*
X35582D01*
X35582Y27964D01*
X35494Y28001D01*
X35400Y28013D01*
X35306Y28001D01*
X35218Y27964D01*
X35143Y27907D01*
X35086Y27832D01*
X35049Y27744D01*
X35037Y27650D01*
X35049Y27556D01*
X35086Y27468D01*
X35143Y27393D01*
X35218Y27336D01*
X35306Y27299D01*
X35400Y27287D01*
X35494Y27299D01*
X35582Y27336D01*
X35657Y27393D01*
X35714Y27468D01*
X35742Y27536D01*
X37458D01*
X37486Y27468D01*
X37543Y27393D01*
X37618Y27336D01*
X37706Y27299D01*
X37800Y27287D01*
X37894Y27299D01*
X37982Y27336D01*
X38057Y27393D01*
X38114Y27468D01*
X38151Y27556D01*
X38163Y27650D01*
X38151Y27744D01*
X38114Y27832D01*
X38057Y27907D01*
X37982Y27964D01*
X37894Y28001D01*
X37800Y28013D01*
D02*
G37*
G36*
X54758Y29408D02*
X53338D01*
Y28180D01*
X53298Y28153D01*
X52974Y27829D01*
X52928Y27760D01*
X52911Y27678D01*
Y27330D01*
X52731D01*
Y27170D01*
X52269D01*
Y27387D01*
X51834D01*
Y26913D01*
X52085D01*
X52097Y26905D01*
X52149Y26895D01*
X52149Y26895D01*
X52731D01*
Y26734D01*
X53326D01*
X54010Y26051D01*
X54010Y26051D01*
X54054Y26021D01*
X54107Y26010D01*
X54791D01*
Y25967D01*
X54801Y25917D01*
X54829Y25874D01*
X54872Y25845D01*
X54922Y25835D01*
X54972Y25845D01*
X55015Y25874D01*
X55043Y25917D01*
X55053Y25967D01*
Y26117D01*
X55060Y26148D01*
X55053Y26179D01*
Y26329D01*
X55043Y26379D01*
X55015Y26422D01*
X54972Y26451D01*
X54922Y26461D01*
X54872Y26451D01*
X54829Y26422D01*
X54801Y26379D01*
X54791Y26329D01*
Y26286D01*
X54164D01*
X53520Y26929D01*
Y27330D01*
X53340D01*
Y27589D01*
X53538Y27788D01*
X53548D01*
X53568Y27792D01*
X54758D01*
Y29408D01*
D02*
G37*
G36*
X46387Y28492D02*
X45913D01*
Y28288D01*
X45909Y28267D01*
Y28014D01*
X45858Y27964D01*
X45350D01*
X45321Y27958D01*
X45210D01*
X45165Y27949D01*
X45127Y27924D01*
X45101Y27886D01*
X45092Y27841D01*
X45101Y27796D01*
X45114Y27777D01*
X45123Y27742D01*
X45115Y27709D01*
X45101Y27689D01*
X45092Y27644D01*
X45101Y27599D01*
X45127Y27561D01*
Y27530D01*
X45101Y27492D01*
X45092Y27447D01*
X45101Y27402D01*
X45127Y27364D01*
Y27333D01*
X45101Y27295D01*
X45092Y27250D01*
X45101Y27205D01*
X45127Y27167D01*
X45165Y27142D01*
X45210Y27133D01*
X45600D01*
X45626Y27138D01*
X45754D01*
X46004Y26888D01*
X45996Y26850D01*
X46012Y26772D01*
X46056Y26706D01*
X46122Y26662D01*
X46200Y26646D01*
X46278Y26662D01*
X46344Y26706D01*
X46388Y26772D01*
X46404Y26850D01*
X46396Y26888D01*
X46437Y26938D01*
X46584D01*
X46606Y26906D01*
X46672Y26862D01*
X46750Y26846D01*
X46828Y26862D01*
X46894Y26906D01*
X46938Y26972D01*
X46954Y27050D01*
X46938Y27128D01*
X46894Y27194D01*
X46828Y27238D01*
X46750Y27254D01*
X46672Y27238D01*
X46606Y27194D01*
X46584Y27162D01*
X46396D01*
X46073Y27486D01*
X46093Y27536D01*
X46950D01*
X47032Y27552D01*
X47101Y27599D01*
X47148Y27668D01*
X47164Y27750D01*
X47148Y27832D01*
X47101Y27901D01*
X47032Y27948D01*
X46950Y27964D01*
X46337D01*
Y28057D01*
X46387D01*
Y28492D01*
D02*
G37*
G36*
X45600Y26973D02*
X45210D01*
X45165Y26964D01*
X45127Y26939D01*
X45101Y26901D01*
X45092Y26856D01*
X45101Y26811D01*
X45127Y26773D01*
Y26742D01*
X45101Y26704D01*
X45092Y26659D01*
X45101Y26614D01*
X45127Y26576D01*
X45165Y26551D01*
X45210Y26542D01*
X45600D01*
X45644Y26551D01*
X45683Y26576D01*
X45708Y26614D01*
X45717Y26659D01*
X45708Y26704D01*
X45683Y26742D01*
Y26773D01*
X45708Y26811D01*
X45717Y26856D01*
X45708Y26901D01*
X45683Y26939D01*
X45644Y26964D01*
X45600Y26973D01*
D02*
G37*
G36*
X43590Y27958D02*
X43200D01*
X43155Y27949D01*
X43117Y27924D01*
X43092Y27886D01*
X43083Y27841D01*
X43092Y27796D01*
X43117Y27758D01*
Y27727D01*
X43092Y27689D01*
X43083Y27644D01*
X43092Y27599D01*
X43117Y27561D01*
Y27530D01*
X43092Y27492D01*
X43083Y27447D01*
X43092Y27402D01*
X43117Y27364D01*
Y27333D01*
X43092Y27295D01*
X43083Y27250D01*
X43092Y27205D01*
X43117Y27167D01*
Y27136D01*
X43092Y27098D01*
X43083Y27053D01*
X43092Y27008D01*
X43117Y26970D01*
Y26939D01*
X43092Y26901D01*
X43083Y26856D01*
X43092Y26811D01*
X43117Y26773D01*
Y26742D01*
X43092Y26704D01*
X43083Y26659D01*
X43092Y26614D01*
X43117Y26576D01*
X43155Y26551D01*
X43200Y26542D01*
X43590D01*
X43635Y26551D01*
X43673Y26576D01*
X43699Y26614D01*
X43707Y26659D01*
X43699Y26704D01*
X43673Y26742D01*
Y26773D01*
X43699Y26811D01*
X43707Y26856D01*
X43699Y26901D01*
X43673Y26939D01*
Y26970D01*
X43699Y27008D01*
X43707Y27053D01*
X43699Y27098D01*
X43673Y27136D01*
Y27167D01*
X43699Y27205D01*
X43707Y27250D01*
X43699Y27295D01*
X43673Y27333D01*
Y27364D01*
X43699Y27402D01*
X43707Y27447D01*
X43699Y27492D01*
X43673Y27530D01*
Y27561D01*
X43699Y27599D01*
X43707Y27644D01*
X43699Y27689D01*
X43673Y27727D01*
Y27758D01*
X43699Y27796D01*
X43707Y27841D01*
X43699Y27886D01*
X43673Y27924D01*
X43635Y27949D01*
X43590Y27958D01*
D02*
G37*
G36*
X37900Y26964D02*
X35500D01*
X35418Y26948D01*
X35349Y26901D01*
X35302Y26832D01*
X35286Y26750D01*
X35302Y26668D01*
X35349Y26599D01*
X35418Y26552D01*
X35500Y26536D01*
X37900D01*
X37982Y26552D01*
X38051Y26599D01*
X38098Y26668D01*
X38114Y26750D01*
X38098Y26832D01*
X38051Y26901D01*
X37982Y26948D01*
X37900Y26964D01*
D02*
G37*
G36*
X44991Y26558D02*
X44946Y26549D01*
X44908Y26523D01*
X44877D01*
X44839Y26549D01*
X44794Y26558D01*
X44749Y26549D01*
X44711Y26523D01*
X44680D01*
X44642Y26549D01*
X44597Y26558D01*
X44552Y26549D01*
X44514Y26523D01*
X44483D01*
X44445Y26549D01*
X44400Y26558D01*
X44355Y26549D01*
X44317Y26523D01*
X44286D01*
X44248Y26549D01*
X44203Y26558D01*
X44158Y26549D01*
X44120Y26523D01*
X44089D01*
X44051Y26549D01*
X44006Y26558D01*
X43961Y26549D01*
X43923Y26523D01*
X43892D01*
X43854Y26549D01*
X43809Y26558D01*
X43764Y26549D01*
X43726Y26523D01*
X43701Y26485D01*
X43692Y26440D01*
Y26050D01*
X43701Y26005D01*
X43726Y25967D01*
X43764Y25942D01*
X43809Y25933D01*
X43854Y25942D01*
X43892Y25967D01*
X43923D01*
X43961Y25942D01*
X44006Y25933D01*
X44041Y25940D01*
X44054Y25933D01*
X44065Y25884D01*
X44061Y25870D01*
X43954Y25762D01*
X43350D01*
X43350Y25762D01*
X43307Y25754D01*
X43271Y25729D01*
X43271Y25729D01*
X42771Y25229D01*
X42746Y25193D01*
X42738Y25150D01*
X42738Y25150D01*
Y24793D01*
X42668Y24764D01*
X42593Y24707D01*
X42536Y24632D01*
X42499Y24544D01*
X42487Y24450D01*
X42499Y24356D01*
X42528Y24287D01*
X42247Y24005D01*
X42222Y23969D01*
X42214Y23926D01*
X42214Y23926D01*
Y23657D01*
X42141D01*
Y22937D01*
X42214D01*
Y21874D01*
X42214Y21874D01*
X42222Y21831D01*
X42247Y21795D01*
X42651Y21391D01*
X42651Y21391D01*
X42687Y21366D01*
X42730Y21358D01*
X43885D01*
Y21120D01*
X44322D01*
Y21580D01*
X44006D01*
X43995Y21582D01*
X43995Y21582D01*
X42776D01*
X42438Y21920D01*
Y22937D01*
X42511D01*
Y23657D01*
X42438D01*
Y23880D01*
X42687Y24128D01*
X42756Y24099D01*
X42850Y24087D01*
X42863Y24089D01*
X42885Y24044D01*
X42621Y23779D01*
X42596Y23743D01*
X42588Y23700D01*
X42588Y23700D01*
Y22763D01*
X42515D01*
Y22043D01*
X42885D01*
Y22763D01*
X42812D01*
Y23654D01*
X43412Y24254D01*
X43450Y24246D01*
X43528Y24262D01*
X43594Y24306D01*
X43638Y24372D01*
X43654Y24450D01*
X43638Y24528D01*
X43594Y24594D01*
X43528Y24638D01*
X43450Y24654D01*
X43372Y24638D01*
X43306Y24594D01*
X43262Y24528D01*
X43257Y24503D01*
X43206Y24504D01*
X43201Y24544D01*
X43164Y24632D01*
X43107Y24707D01*
X43032Y24764D01*
X42962Y24793D01*
Y25104D01*
X43396Y25538D01*
X44000D01*
X44000Y25538D01*
X44043Y25546D01*
X44079Y25571D01*
X44238Y25729D01*
X44288Y25709D01*
Y25646D01*
X43924Y25282D01*
X43771D01*
X43739Y25276D01*
X43671D01*
X43608Y25318D01*
X43530Y25333D01*
X43452Y25318D01*
X43386Y25274D01*
X43342Y25207D01*
X43326Y25129D01*
X43342Y25051D01*
X43386Y24985D01*
X43452Y24941D01*
X43530Y24925D01*
X43608Y24941D01*
X43674Y24985D01*
X43703Y25028D01*
X43753Y25013D01*
Y24681D01*
X44188D01*
Y25116D01*
X44146D01*
X44125Y25166D01*
X44467Y25509D01*
X44484Y25514D01*
X44510Y25514D01*
X44532Y25509D01*
X44708Y25333D01*
Y25116D01*
X44603D01*
Y24681D01*
X45038D01*
Y25116D01*
X44974D01*
X44966Y25140D01*
X45006Y25180D01*
X45029Y25175D01*
X45107Y25191D01*
X45174Y25235D01*
X45218Y25301D01*
X45233Y25379D01*
X45218Y25457D01*
X45174Y25524D01*
X45107Y25568D01*
X45029Y25583D01*
X44951Y25568D01*
X44885Y25524D01*
X44840Y25519D01*
X44709Y25649D01*
Y25909D01*
X44724Y25921D01*
X44759Y25940D01*
X44794Y25933D01*
X44839Y25942D01*
X44877Y25967D01*
X44928Y25954D01*
X44930Y25953D01*
X45938Y24945D01*
Y24793D01*
X45868Y24764D01*
X45793Y24707D01*
X45736Y24632D01*
X45699Y24544D01*
X45687Y24450D01*
X45699Y24356D01*
X45736Y24268D01*
X45793Y24193D01*
X45868Y24136D01*
X45926Y24112D01*
Y23657D01*
X45841D01*
Y22937D01*
X45914D01*
Y22822D01*
X45254Y22162D01*
X44915D01*
Y22280D01*
X44478D01*
Y21820D01*
X44915D01*
Y21938D01*
X45300D01*
X45300Y21938D01*
X45343Y21946D01*
X45379Y21971D01*
X46105Y22697D01*
X46105Y22697D01*
X46130Y22733D01*
X46138Y22776D01*
X46138Y22776D01*
Y22937D01*
X46211D01*
Y23657D01*
X46150D01*
Y24102D01*
X46232Y24136D01*
X46307Y24193D01*
X46364Y24268D01*
X46401Y24356D01*
X46413Y24450D01*
X46401Y24544D01*
X46364Y24632D01*
X46307Y24707D01*
X46232Y24764D01*
X46162Y24793D01*
Y24991D01*
X46162Y24991D01*
X46154Y25034D01*
X46129Y25071D01*
X46129Y25071D01*
X45108Y26092D01*
Y26440D01*
X45099Y26485D01*
X45074Y26523D01*
X45036Y26549D01*
X44991Y26558D01*
D02*
G37*
G36*
X50600Y29515D02*
X48400D01*
X48354Y29496D01*
X48335Y29450D01*
Y26400D01*
X48354Y26354D01*
X48400Y26335D01*
X48455D01*
Y26326D01*
X49245D01*
Y26335D01*
X49805D01*
Y26326D01*
X50595D01*
Y26335D01*
X50600D01*
X50646Y26354D01*
X50665Y26400D01*
Y29450D01*
X50646Y29496D01*
X50600Y29515D01*
D02*
G37*
G36*
X53520Y26166D02*
X52731D01*
Y26014D01*
X52319D01*
Y26037D01*
X51884D01*
Y25563D01*
X51887D01*
Y24225D01*
X51841Y24206D01*
X51091Y24955D01*
X51022Y25002D01*
X50940Y25018D01*
X50595D01*
Y25574D01*
X49805D01*
Y24594D01*
X50364D01*
X50385Y24590D01*
X50851D01*
X51950Y23491D01*
X51950Y23491D01*
X52325Y23116D01*
Y22669D01*
X53075D01*
Y23419D01*
X52628D01*
X52315Y23731D01*
Y25563D01*
X52319D01*
Y25586D01*
X52731D01*
Y25570D01*
X53292D01*
X53338Y25539D01*
X53401Y25527D01*
X53563D01*
X53583Y25477D01*
X53394Y25287D01*
X53134D01*
Y24813D01*
X53569D01*
Y25073D01*
X53786Y25290D01*
X54446D01*
X54499Y25301D01*
X54501Y25303D01*
X54633D01*
X54683Y25313D01*
X54726Y25341D01*
X54754Y25384D01*
X54764Y25434D01*
X54754Y25484D01*
X54726Y25527D01*
X54719Y25532D01*
Y25592D01*
X54726Y25597D01*
X54754Y25640D01*
X54764Y25690D01*
X54754Y25740D01*
X54726Y25783D01*
X54683Y25811D01*
X54633Y25821D01*
X54543D01*
X54514Y25841D01*
X54452Y25853D01*
X53520D01*
Y26166D01*
D02*
G37*
G36*
X57400Y31315D02*
X55600D01*
X55554Y31296D01*
X55535Y31250D01*
Y25950D01*
X55542Y25934D01*
X55544Y25917D01*
X55635Y25760D01*
X55642Y25755D01*
X55646Y25747D01*
X55661Y25741D01*
X55675Y25730D01*
X55679Y25731D01*
X55728Y25719D01*
Y25619D01*
X55735Y25603D01*
X55737Y25586D01*
X55840Y25410D01*
X55846Y25382D01*
X55864Y25354D01*
X55855Y25298D01*
X55854Y25296D01*
X55835Y25250D01*
X55835Y24977D01*
X55747Y24889D01*
X55737Y24863D01*
X55711Y24853D01*
X55586Y24728D01*
X55527Y24726D01*
X55522Y24729D01*
X55484Y24755D01*
X55434Y24765D01*
X55384Y24755D01*
X55341Y24726D01*
X55336Y24719D01*
X55276D01*
X55271Y24726D01*
X55228Y24755D01*
X55178Y24765D01*
X55128Y24755D01*
X55085Y24726D01*
X55080Y24719D01*
X55020D01*
X55015Y24726D01*
X54972Y24755D01*
X54922Y24765D01*
X54872Y24755D01*
X54829Y24726D01*
X54801Y24683D01*
X54791Y24633D01*
Y24543D01*
X54771Y24514D01*
X54759Y24452D01*
Y24401D01*
X54185Y23826D01*
X54149Y23774D01*
X54137Y23711D01*
Y22287D01*
X54149Y22224D01*
X54185Y22171D01*
X54460Y21896D01*
X54441Y21849D01*
X51653D01*
X49064Y24439D01*
Y24594D01*
X49245D01*
Y25574D01*
X48758D01*
X48014Y26318D01*
Y28000D01*
X47998Y28082D01*
X47951Y28151D01*
X46501Y29601D01*
X46432Y29648D01*
X46350Y29664D01*
X45850D01*
X45768Y29648D01*
X45699Y29601D01*
X45443Y29346D01*
X45357D01*
X45337Y29342D01*
X45113D01*
Y28907D01*
X45136D01*
Y28702D01*
X44999Y28565D01*
X44991Y28567D01*
X44946Y28558D01*
X44908Y28533D01*
X44877D01*
X44839Y28558D01*
X44794Y28567D01*
X44749Y28558D01*
X44711Y28533D01*
X44680D01*
X44642Y28558D01*
X44597Y28567D01*
X44552Y28558D01*
X44514Y28533D01*
X44483D01*
X44445Y28558D01*
X44400Y28567D01*
X44355Y28558D01*
X44317Y28533D01*
X44286D01*
X44248Y28558D01*
X44203Y28567D01*
X44158Y28558D01*
X44120Y28533D01*
X44089D01*
X44051Y28558D01*
X44006Y28567D01*
X43961Y28558D01*
X43943Y28546D01*
X43907Y28537D01*
X43872Y28546D01*
X43854Y28558D01*
X43809Y28567D01*
X43764Y28558D01*
X43726Y28533D01*
X43701Y28495D01*
X43692Y28450D01*
Y28060D01*
X43701Y28015D01*
X43726Y27977D01*
X43764Y27951D01*
X43809Y27943D01*
X43854Y27951D01*
X43892Y27977D01*
X43923D01*
X43961Y27951D01*
X44006Y27943D01*
X44051Y27951D01*
X44089Y27977D01*
X44120D01*
X44158Y27951D01*
X44203Y27943D01*
X44248Y27951D01*
X44286Y27977D01*
X44317D01*
X44355Y27951D01*
X44400Y27943D01*
X44445Y27951D01*
X44483Y27977D01*
X44514D01*
X44552Y27951D01*
X44597Y27943D01*
X44642Y27951D01*
X44680Y27977D01*
X44711D01*
X44749Y27951D01*
X44794Y27943D01*
X44839Y27951D01*
X44877Y27977D01*
X44908D01*
X44946Y27951D01*
X44991Y27943D01*
X45036Y27951D01*
X45074Y27977D01*
X45099Y28015D01*
X45108Y28060D01*
Y28144D01*
X45173Y28157D01*
X45242Y28203D01*
X45501Y28462D01*
X45548Y28532D01*
X45564Y28614D01*
Y28907D01*
X45587D01*
Y28929D01*
X45614Y28934D01*
X45683Y28981D01*
X45939Y29236D01*
X46261D01*
X47586Y27911D01*
Y26229D01*
X47602Y26147D01*
X47649Y26078D01*
X48455Y25271D01*
Y24594D01*
X48636D01*
Y24350D01*
X48652Y24268D01*
X48699Y24199D01*
X48729Y24179D01*
X48749Y24149D01*
X48762Y24135D01*
Y23357D01*
X47408Y22002D01*
X47400Y22004D01*
X47322Y21988D01*
X47256Y21944D01*
X47212Y21878D01*
X47196Y21800D01*
X47212Y21722D01*
X47256Y21656D01*
X47322Y21612D01*
X47400Y21596D01*
X47478Y21612D01*
X47544Y21656D01*
X47588Y21722D01*
X47604Y21800D01*
X47602Y21808D01*
X48997Y23203D01*
X48997Y23203D01*
X49027Y23247D01*
X49038Y23300D01*
Y23794D01*
X49084Y23813D01*
X51413Y21484D01*
X51483Y21437D01*
X51565Y21421D01*
X54734D01*
Y21418D01*
X54939D01*
X54959Y21414D01*
X55485D01*
Y21403D01*
X55920D01*
Y21535D01*
X56251Y21866D01*
X56298Y21936D01*
X56314Y22018D01*
Y22529D01*
X56635Y22850D01*
X57477D01*
Y23770D01*
X57477Y23770D01*
X57477D01*
X57501Y23810D01*
X57747Y24055D01*
X57766Y24101D01*
Y24103D01*
X57768D01*
X57814Y24122D01*
X57819Y24127D01*
X58821D01*
Y24160D01*
X58823D01*
X58886Y24173D01*
X58932Y24204D01*
X58953Y24193D01*
X58973Y24172D01*
X58960Y24108D01*
X58975Y24035D01*
X59016Y23973D01*
X59079Y23931D01*
X59152Y23917D01*
X59225Y23931D01*
X59287Y23973D01*
X59329Y24035D01*
X59343Y24108D01*
X59329Y24182D01*
X59287Y24244D01*
X59225Y24285D01*
X59152Y24300D01*
X59089Y24287D01*
X59063Y24320D01*
X59059Y24329D01*
X59608Y24877D01*
X59643Y24930D01*
X59655Y24992D01*
Y25493D01*
X59643Y25556D01*
X59608Y25609D01*
X59036Y26180D01*
X59068Y26219D01*
X59075Y26215D01*
X59148Y26200D01*
X59221Y26215D01*
X59283Y26256D01*
X59325Y26318D01*
X59339Y26392D01*
X59325Y26465D01*
X59283Y26527D01*
X59221Y26569D01*
X59148Y26583D01*
X59075Y26569D01*
X59012Y26527D01*
X58971Y26465D01*
X58956Y26392D01*
X58971Y26318D01*
X58977Y26309D01*
X58943Y26273D01*
X58890Y26309D01*
X58828Y26321D01*
X58821Y26326D01*
Y26373D01*
X57701D01*
Y26017D01*
Y25657D01*
X57495D01*
X57495Y25657D01*
X57452Y25649D01*
X57416Y25625D01*
X57416Y25625D01*
X57321Y25529D01*
X57298Y25525D01*
X57278Y25538D01*
X57200Y25554D01*
X57158Y25546D01*
X57134Y25592D01*
X57446Y25904D01*
X57465Y25950D01*
Y31250D01*
X57446Y31296D01*
X57400Y31315D01*
D02*
G37*
G36*
X54452Y25060D02*
X53957D01*
X53905Y25049D01*
X53860Y25019D01*
X53421Y24580D01*
X53178D01*
Y24120D01*
X53615D01*
Y24385D01*
X54014Y24784D01*
X54452D01*
X54483Y24791D01*
X54633D01*
X54683Y24801D01*
X54726Y24829D01*
X54754Y24872D01*
X54764Y24922D01*
X54754Y24972D01*
X54726Y25015D01*
X54683Y25043D01*
X54633Y25053D01*
X54483D01*
X54452Y25060D01*
D02*
G37*
G36*
X46950Y24504D02*
X46872Y24488D01*
X46806Y24444D01*
X46762Y24378D01*
X46746Y24300D01*
X46754Y24262D01*
X46321Y23829D01*
X46296Y23793D01*
X46288Y23750D01*
X46288Y23750D01*
Y22763D01*
X46215D01*
Y22043D01*
X46585D01*
Y22763D01*
X46512D01*
Y23704D01*
X46912Y24104D01*
X46950Y24096D01*
X47028Y24112D01*
X47094Y24156D01*
X47138Y24222D01*
X47154Y24300D01*
X47138Y24378D01*
X47094Y24444D01*
X47028Y24488D01*
X46950Y24504D01*
D02*
G37*
G36*
X45041Y24487D02*
X44606D01*
Y24052D01*
X44666D01*
Y23790D01*
X44549D01*
Y23352D01*
X45009D01*
Y23790D01*
X44891D01*
Y24052D01*
X45041D01*
Y24487D01*
D02*
G37*
G36*
X44190D02*
X43755D01*
Y24052D01*
X43861D01*
Y23790D01*
X43768D01*
Y23352D01*
X44229D01*
Y23790D01*
X44085D01*
Y24052D01*
X44190D01*
Y24487D01*
D02*
G37*
G36*
X45009Y23197D02*
X44549D01*
Y23192D01*
X44229D01*
Y23197D01*
X43768D01*
Y22759D01*
X44229D01*
X44251Y22719D01*
Y22710D01*
X44244Y22706D01*
X44200Y22640D01*
X44185Y22561D01*
X44200Y22483D01*
X44244Y22417D01*
X44310Y22373D01*
X44389Y22358D01*
X44467Y22373D01*
X44533Y22417D01*
X44577Y22483D01*
X44592Y22561D01*
X44577Y22640D01*
X44533Y22706D01*
X44526Y22710D01*
Y22719D01*
X44549Y22759D01*
X45009D01*
Y23197D01*
D02*
G37*
G36*
X43259Y23657D02*
X42889D01*
Y22937D01*
X42962D01*
Y22676D01*
X42962Y22676D01*
X42970Y22633D01*
X42995Y22597D01*
X43621Y21971D01*
X43621Y21971D01*
X43657Y21946D01*
X43700Y21938D01*
X43885D01*
Y21820D01*
X44322D01*
Y22280D01*
X43885D01*
Y22162D01*
X43746D01*
X43186Y22722D01*
Y22937D01*
X43259D01*
Y23657D01*
D02*
G37*
G36*
X46959D02*
X46589D01*
Y22937D01*
X46662D01*
Y21970D01*
X46154Y21462D01*
X44915D01*
Y21580D01*
X44478D01*
Y21120D01*
X44915D01*
Y21238D01*
X46200D01*
X46200Y21238D01*
X46243Y21246D01*
X46279Y21271D01*
X46853Y21845D01*
X46853Y21845D01*
X46878Y21881D01*
X46886Y21924D01*
X46886Y21924D01*
Y22937D01*
X46959D01*
Y23657D01*
D02*
G37*
G36*
X49974Y20715D02*
X49826D01*
X49820Y20712D01*
X49813Y20714D01*
X49669Y20685D01*
X49663Y20681D01*
X49656D01*
X49520Y20625D01*
X49515Y20620D01*
X49509Y20619D01*
X49386Y20537D01*
X49382Y20531D01*
X49376Y20528D01*
X49272Y20424D01*
X49269Y20418D01*
X49263Y20414D01*
X49181Y20291D01*
X49180Y20285D01*
X49175Y20280D01*
X49119Y20144D01*
Y20137D01*
X49115Y20131D01*
X49086Y19987D01*
X49088Y19980D01*
X49085Y19974D01*
Y19826D01*
X49088Y19820D01*
X49086Y19813D01*
X49115Y19669D01*
X49119Y19663D01*
Y19656D01*
X49175Y19520D01*
X49180Y19515D01*
X49181Y19509D01*
X49263Y19386D01*
X49269Y19382D01*
X49272Y19376D01*
X49376Y19272D01*
X49382Y19269D01*
X49386Y19263D01*
X49509Y19181D01*
X49515Y19180D01*
X49520Y19175D01*
X49656Y19119D01*
X49663D01*
X49669Y19115D01*
X49813Y19086D01*
X49820Y19088D01*
X49826Y19085D01*
X49974D01*
X49980Y19088D01*
X49987Y19086D01*
X50131Y19115D01*
X50137Y19119D01*
X50144D01*
X50280Y19175D01*
X50285Y19180D01*
X50291Y19181D01*
X50414Y19263D01*
X50418Y19269D01*
X50424Y19272D01*
X50528Y19376D01*
X50531Y19382D01*
X50537Y19386D01*
X50619Y19509D01*
X50620Y19515D01*
X50625Y19520D01*
X50681Y19656D01*
Y19663D01*
X50685Y19669D01*
X50714Y19813D01*
X50712Y19820D01*
X50715Y19826D01*
Y19974D01*
X50712Y19980D01*
X50714Y19987D01*
X50685Y20131D01*
X50681Y20137D01*
Y20144D01*
X50625Y20280D01*
X50620Y20285D01*
X50619Y20291D01*
X50537Y20414D01*
X50531Y20418D01*
X50528Y20424D01*
X50424Y20528D01*
X50418Y20531D01*
X50414Y20537D01*
X50291Y20619D01*
X50285Y20620D01*
X50280Y20625D01*
X50144Y20681D01*
X50137D01*
X50131Y20685D01*
X49987Y20714D01*
X49980Y20712D01*
X49974Y20715D01*
D02*
G37*
G36*
X42074D02*
X41926D01*
X41920Y20712D01*
X41913Y20714D01*
X41769Y20685D01*
X41763Y20681D01*
X41756D01*
X41620Y20625D01*
X41615Y20620D01*
X41609Y20619D01*
X41486Y20537D01*
X41482Y20531D01*
X41476Y20528D01*
X41372Y20424D01*
X41369Y20418D01*
X41363Y20414D01*
X41281Y20291D01*
X41280Y20285D01*
X41275Y20280D01*
X41219Y20144D01*
Y20137D01*
X41215Y20131D01*
X41186Y19987D01*
X41188Y19980D01*
X41185Y19974D01*
Y19826D01*
X41188Y19820D01*
X41186Y19813D01*
X41215Y19669D01*
X41219Y19663D01*
Y19656D01*
X41275Y19520D01*
X41280Y19515D01*
X41281Y19509D01*
X41363Y19386D01*
X41369Y19382D01*
X41372Y19376D01*
X41476Y19272D01*
X41482Y19269D01*
X41486Y19263D01*
X41609Y19181D01*
X41615Y19180D01*
X41620Y19175D01*
X41756Y19119D01*
X41763D01*
X41769Y19115D01*
X41913Y19086D01*
X41920Y19088D01*
X41926Y19085D01*
X42074D01*
X42080Y19088D01*
X42087Y19086D01*
X42231Y19115D01*
X42237Y19119D01*
X42244D01*
X42380Y19175D01*
X42385Y19180D01*
X42391Y19181D01*
X42514Y19263D01*
X42518Y19269D01*
X42524Y19272D01*
X42628Y19376D01*
X42631Y19382D01*
X42637Y19386D01*
X42719Y19509D01*
X42720Y19515D01*
X42725Y19520D01*
X42781Y19656D01*
Y19663D01*
X42785Y19669D01*
X42814Y19813D01*
X42812Y19820D01*
X42815Y19826D01*
Y19974D01*
X42812Y19980D01*
X42814Y19987D01*
X42785Y20131D01*
X42781Y20137D01*
Y20144D01*
X42725Y20280D01*
X42720Y20285D01*
X42719Y20291D01*
X42637Y20414D01*
X42631Y20418D01*
X42628Y20424D01*
X42524Y20528D01*
X42518Y20531D01*
X42514Y20537D01*
X42391Y20619D01*
X42385Y20620D01*
X42380Y20625D01*
X42244Y20681D01*
X42237D01*
X42231Y20685D01*
X42087Y20714D01*
X42080Y20712D01*
X42074Y20715D01*
D02*
G37*
G36*
X34174D02*
X34026D01*
X34020Y20712D01*
X34013Y20714D01*
X33869Y20685D01*
X33863Y20681D01*
X33856D01*
X33720Y20625D01*
X33715Y20620D01*
X33709Y20619D01*
X33586Y20537D01*
X33582Y20531D01*
X33576Y20528D01*
X33472Y20424D01*
X33469Y20418D01*
X33463Y20414D01*
X33381Y20291D01*
X33380Y20285D01*
X33375Y20280D01*
X33319Y20144D01*
Y20137D01*
X33315Y20131D01*
X33286Y19987D01*
X33288Y19980D01*
X33285Y19974D01*
Y19826D01*
X33288Y19820D01*
X33286Y19813D01*
X33315Y19669D01*
X33319Y19663D01*
Y19656D01*
X33375Y19520D01*
X33380Y19515D01*
X33381Y19509D01*
X33463Y19386D01*
X33469Y19382D01*
X33472Y19376D01*
X33576Y19272D01*
X33582Y19269D01*
X33586Y19263D01*
X33709Y19181D01*
X33715Y19180D01*
X33720Y19175D01*
X33856Y19119D01*
X33863D01*
X33869Y19115D01*
X34013Y19086D01*
X34020Y19088D01*
X34026Y19085D01*
X34174D01*
X34180Y19088D01*
X34187Y19086D01*
X34331Y19115D01*
X34337Y19119D01*
X34344D01*
X34480Y19175D01*
X34485Y19180D01*
X34491Y19181D01*
X34614Y19263D01*
X34618Y19269D01*
X34624Y19272D01*
X34728Y19376D01*
X34731Y19382D01*
X34737Y19386D01*
X34819Y19509D01*
X34820Y19515D01*
X34825Y19520D01*
X34881Y19656D01*
Y19663D01*
X34885Y19669D01*
X34914Y19813D01*
X34912Y19820D01*
X34915Y19826D01*
Y19974D01*
X34912Y19980D01*
X34914Y19987D01*
X34885Y20131D01*
X34881Y20137D01*
Y20144D01*
X34825Y20280D01*
X34820Y20285D01*
X34819Y20291D01*
X34737Y20414D01*
X34731Y20418D01*
X34728Y20424D01*
X34624Y20528D01*
X34618Y20531D01*
X34614Y20537D01*
X34491Y20619D01*
X34485Y20620D01*
X34480Y20625D01*
X34344Y20681D01*
X34337D01*
X34331Y20685D01*
X34187Y20714D01*
X34180Y20712D01*
X34174Y20715D01*
D02*
G37*
G36*
X24574Y18315D02*
X24426D01*
X24420Y18312D01*
X24413Y18314D01*
X24269Y18285D01*
X24263Y18281D01*
X24256D01*
X24120Y18225D01*
X24115Y18220D01*
X24109Y18219D01*
X23986Y18137D01*
X23982Y18131D01*
X23976Y18128D01*
X23872Y18024D01*
X23869Y18018D01*
X23863Y18014D01*
X23781Y17891D01*
X23780Y17885D01*
X23775Y17880D01*
X23719Y17744D01*
Y17737D01*
X23715Y17731D01*
X23686Y17587D01*
X23688Y17580D01*
X23685Y17574D01*
Y17426D01*
X23688Y17420D01*
X23686Y17413D01*
X23715Y17269D01*
X23719Y17263D01*
Y17256D01*
X23775Y17120D01*
X23780Y17115D01*
X23781Y17109D01*
X23863Y16986D01*
X23869Y16982D01*
X23872Y16976D01*
X23976Y16872D01*
X23982Y16869D01*
X23986Y16863D01*
X24109Y16781D01*
X24115Y16780D01*
X24120Y16775D01*
X24256Y16719D01*
X24263D01*
X24269Y16715D01*
X24413Y16686D01*
X24420Y16688D01*
X24426Y16685D01*
X24574D01*
X24580Y16688D01*
X24587Y16686D01*
X24731Y16715D01*
X24737Y16719D01*
X24744D01*
X24880Y16775D01*
X24885Y16780D01*
X24891Y16781D01*
X25014Y16863D01*
X25018Y16869D01*
X25024Y16872D01*
X25128Y16976D01*
X25131Y16982D01*
X25137Y16986D01*
X25219Y17109D01*
X25220Y17115D01*
X25225Y17120D01*
X25281Y17256D01*
Y17263D01*
X25285Y17269D01*
X25314Y17413D01*
X25312Y17420D01*
X25315Y17426D01*
Y17574D01*
X25312Y17580D01*
X25314Y17587D01*
X25285Y17731D01*
X25281Y17737D01*
Y17744D01*
X25225Y17880D01*
X25220Y17885D01*
X25219Y17891D01*
X25137Y18014D01*
X25131Y18018D01*
X25128Y18024D01*
X25024Y18128D01*
X25018Y18131D01*
X25014Y18137D01*
X24891Y18219D01*
X24885Y18220D01*
X24880Y18225D01*
X24744Y18281D01*
X24737D01*
X24731Y18285D01*
X24587Y18314D01*
X24580Y18312D01*
X24574Y18315D01*
D02*
G37*
G36*
X59574D02*
X59426D01*
X59420Y18312D01*
X59413Y18314D01*
X59269Y18285D01*
X59263Y18281D01*
X59256D01*
X59120Y18225D01*
X59115Y18220D01*
X59109Y18219D01*
X58986Y18137D01*
X58982Y18131D01*
X58976Y18128D01*
X58872Y18024D01*
X58869Y18018D01*
X58863Y18014D01*
X58781Y17891D01*
X58780Y17885D01*
X58775Y17880D01*
X58719Y17744D01*
Y17737D01*
X58715Y17731D01*
X58686Y17587D01*
X58688Y17580D01*
X58685Y17574D01*
Y17426D01*
X58688Y17420D01*
X58686Y17413D01*
X58715Y17269D01*
X58719Y17263D01*
Y17256D01*
X58775Y17120D01*
X58780Y17115D01*
X58781Y17109D01*
X58863Y16986D01*
X58869Y16982D01*
X58872Y16976D01*
X58976Y16872D01*
X58982Y16869D01*
X58986Y16863D01*
X59109Y16781D01*
X59115Y16780D01*
X59120Y16775D01*
X59256Y16719D01*
X59263D01*
X59269Y16715D01*
X59413Y16686D01*
X59420Y16688D01*
X59426Y16685D01*
X59574D01*
X59580Y16688D01*
X59587Y16686D01*
X59731Y16715D01*
X59737Y16719D01*
X59744D01*
X59880Y16775D01*
X59885Y16780D01*
X59891Y16781D01*
X60014Y16863D01*
X60018Y16869D01*
X60024Y16872D01*
X60128Y16976D01*
X60131Y16982D01*
X60137Y16986D01*
X60219Y17109D01*
X60220Y17115D01*
X60225Y17120D01*
X60281Y17256D01*
Y17263D01*
X60285Y17269D01*
X60314Y17413D01*
X60312Y17420D01*
X60315Y17426D01*
Y17574D01*
X60312Y17580D01*
X60314Y17587D01*
X60285Y17731D01*
X60281Y17737D01*
Y17744D01*
X60225Y17880D01*
X60220Y17885D01*
X60219Y17891D01*
X60137Y18014D01*
X60131Y18018D01*
X60128Y18024D01*
X60024Y18128D01*
X60018Y18131D01*
X60014Y18137D01*
X59891Y18219D01*
X59885Y18220D01*
X59880Y18225D01*
X59744Y18281D01*
X59737D01*
X59731Y18285D01*
X59587Y18314D01*
X59580Y18312D01*
X59574Y18315D01*
D02*
G37*
%LPD*%
G36*
X26238Y44997D02*
Y40737D01*
X26212Y40718D01*
X26162Y40742D01*
Y44999D01*
X26210Y45020D01*
X26238Y44997D01*
D02*
G37*
G36*
X26522Y41012D02*
X26600Y40996D01*
X26638Y41004D01*
X26688Y40954D01*
Y36010D01*
X26642Y35991D01*
X26162Y36470D01*
Y40388D01*
X26212Y40402D01*
X26272Y40362D01*
X26350Y40346D01*
X26428Y40362D01*
X26494Y40406D01*
X26538Y40472D01*
X26554Y40550D01*
X26538Y40628D01*
X26494Y40694D01*
X26462Y40716D01*
Y40999D01*
X26506Y41022D01*
X26522Y41012D01*
D02*
G37*
G36*
X25304Y35724D02*
Y34323D01*
X25268Y34288D01*
X25166Y34288D01*
X25129Y34288D01*
X24703D01*
X24666Y34288D01*
X24629Y34288D01*
X24203D01*
X24166Y34288D01*
X24129Y34288D01*
X24028D01*
Y34519D01*
X25254Y35745D01*
X25304Y35724D01*
D02*
G37*
G36*
X26838Y35477D02*
Y34323D01*
X26802Y34288D01*
X26666Y34288D01*
X26629Y34288D01*
X26528D01*
Y35269D01*
X26560Y35290D01*
X26604Y35356D01*
X26620Y35434D01*
X26604Y35512D01*
X26560Y35578D01*
X26494Y35623D01*
X26416Y35638D01*
X26338Y35623D01*
X26272Y35578D01*
X26227Y35512D01*
X26212Y35434D01*
X26227Y35356D01*
X26272Y35290D01*
X26304Y35269D01*
Y34323D01*
X26268Y34288D01*
X26166Y34288D01*
X26129Y34288D01*
X25703D01*
X25666Y34288D01*
X25629Y34288D01*
X25528D01*
Y35719D01*
X25969Y36161D01*
X25969Y36161D01*
X25994Y36197D01*
X26002Y36240D01*
X26002Y36240D01*
Y36248D01*
X26048Y36267D01*
X26838Y35477D01*
D02*
G37*
G36*
X27455Y35090D02*
X27441Y35042D01*
X27422Y35038D01*
X27356Y34994D01*
X27312Y34928D01*
X27296Y34850D01*
X27312Y34772D01*
X27356Y34706D01*
X27367Y34698D01*
X27356Y34645D01*
X27322Y34638D01*
X27256Y34594D01*
X27212Y34528D01*
X27196Y34450D01*
X27212Y34372D01*
X27234Y34338D01*
X27208Y34288D01*
X27166Y34288D01*
X27129Y34288D01*
X27062D01*
Y35417D01*
X27108Y35437D01*
X27455Y35090D01*
D02*
G37*
G36*
X50450Y35265D02*
X49976Y34791D01*
X49966Y34798D01*
X49884Y34814D01*
X49788D01*
X49706Y34798D01*
X49637Y34751D01*
X49591Y34682D01*
X49574Y34600D01*
X49591Y34518D01*
X49637Y34449D01*
X49706Y34402D01*
X49788Y34386D01*
X49884D01*
X49966Y34402D01*
X50035Y34449D01*
X50067Y34496D01*
X50077Y34503D01*
X50404Y34830D01*
X50450Y34811D01*
Y32450D01*
X47900D01*
Y32543D01*
X48077D01*
X48159Y32560D01*
X48229Y32606D01*
X48275Y32676D01*
X48292Y32757D01*
X48275Y32839D01*
X48229Y32909D01*
X48159Y32955D01*
X48077Y32972D01*
X47900D01*
Y36950D01*
X50450D01*
Y35265D01*
D02*
G37*
G36*
X42700Y28200D02*
X41000D01*
Y30100D01*
X41486D01*
Y29700D01*
X41502Y29618D01*
X41549Y29549D01*
X41618Y29502D01*
X41700Y29486D01*
X41782Y29502D01*
X41851Y29549D01*
X41898Y29618D01*
X41914Y29700D01*
Y30100D01*
X42700D01*
Y28200D01*
D02*
G37*
G36*
X50600Y26400D02*
X48400D01*
Y29450D01*
X50600D01*
Y26400D01*
D02*
G37*
G36*
X57400Y25950D02*
X56800Y25350D01*
X55950D01*
X55793Y25619D01*
Y25793D01*
X55692D01*
X55600Y25950D01*
Y31250D01*
X57400D01*
Y25950D01*
D02*
G37*
G36*
X56897Y25250D02*
X57697Y24450D01*
X57701D01*
Y24442D01*
X58100D01*
X58127Y24392D01*
X58110Y24368D01*
X58098Y24305D01*
X58109Y24250D01*
X58091Y24205D01*
X58088Y24200D01*
X57800D01*
X57768Y24168D01*
X57701D01*
Y24101D01*
X57000Y23400D01*
X56952D01*
X56951Y23401D01*
X56882Y23448D01*
X56800Y23464D01*
X56733D01*
X56651Y23448D01*
X56581Y23401D01*
X56580Y23400D01*
X56300D01*
X55596Y24646D01*
X55757Y24807D01*
X55793D01*
Y24843D01*
X55900Y24950D01*
X55900Y25250D01*
X56897Y25250D01*
D02*
G37*
G36*
X55823Y24111D02*
X56243Y23368D01*
X56251Y23362D01*
X56254Y23354D01*
X56269Y23348D01*
X56283Y23337D01*
X56292Y23339D01*
X56300Y23335D01*
X56423D01*
Y23243D01*
X55980Y22800D01*
X55930Y22821D01*
Y23172D01*
X55470D01*
Y22735D01*
X55562D01*
Y22467D01*
X55483D01*
Y22033D01*
X55747D01*
X55766Y21986D01*
X55621Y21842D01*
X55169D01*
Y21853D01*
X54965D01*
X54816Y22001D01*
X54835Y22047D01*
X55166D01*
Y22482D01*
X55087D01*
Y22735D01*
X55180D01*
Y23172D01*
X54720D01*
Y22735D01*
X54812D01*
Y22482D01*
X54731D01*
Y22152D01*
X54685Y22132D01*
X54463Y22354D01*
Y23644D01*
X54764Y23945D01*
X54793Y23936D01*
X54812Y23922D01*
Y23765D01*
X54720D01*
Y23328D01*
X55180D01*
Y23765D01*
X55088D01*
Y23873D01*
X55269Y24055D01*
X55269Y24055D01*
X55289Y24084D01*
X55332Y24091D01*
X55335D01*
X55347Y24088D01*
X55562Y23873D01*
Y23765D01*
X55470D01*
Y23328D01*
X55930D01*
Y23765D01*
X55838D01*
Y23930D01*
X55838Y23930D01*
X55827Y23983D01*
X55797Y24028D01*
X55797Y24028D01*
X55761Y24064D01*
X55767Y24125D01*
X55823Y24111D01*
D02*
G37*
%LPC*%
G36*
X56267Y25083D02*
X56148D01*
X56086Y25071D01*
X56033Y25035D01*
X55997Y24982D01*
X55985Y24920D01*
X55997Y24858D01*
X56033Y24805D01*
X56086Y24769D01*
X56148Y24757D01*
X56267D01*
X56329Y24769D01*
X56382Y24805D01*
X56418Y24858D01*
X56430Y24920D01*
X56418Y24982D01*
X56382Y25035D01*
X56329Y25071D01*
X56267Y25083D01*
D02*
G37*
%LPD*%
D10*
X27000Y36050D02*
Y44396D01*
X28789Y33755D02*
X28916Y33628D01*
X28789Y33755D02*
Y34261D01*
X27000Y36050D02*
X28789Y34261D01*
X28543Y26357D02*
Y26808D01*
X28450Y26901D02*
X28543Y26808D01*
X28835Y26065D02*
X30469D01*
X28543Y26357D02*
X28835Y26065D01*
X29043Y26357D02*
X29175Y26225D01*
X30325D01*
X29043Y26357D02*
Y26808D01*
X28916Y26935D02*
X29043Y26808D01*
X30325Y26225D02*
X34000Y29900D01*
X30469Y26065D02*
X34170Y29766D01*
X30535Y25905D02*
X34330Y29700D01*
X28345Y25905D02*
X30535D01*
X26950Y26450D02*
X27815Y25585D01*
X30667D01*
X27916Y26334D02*
X28345Y25905D01*
X27450Y26200D02*
X27905Y25745D01*
X30601D02*
X34490Y29634D01*
X30667Y25585D02*
X34650Y29568D01*
X27905Y25745D02*
X30601D01*
X24289Y26061D02*
X24592D01*
X24043Y26307D02*
Y26507D01*
Y26307D02*
X24289Y26061D01*
X23916Y26634D02*
X24043Y26507D01*
X23050Y25028D02*
Y25600D01*
X23789Y26339D01*
Y26507D01*
X23916Y26634D01*
X27400Y33644D02*
Y34450D01*
Y33644D02*
X27416Y33628D01*
X39700Y47950D02*
Y48050D01*
X41248Y49598D01*
X42450Y49850D02*
Y50200D01*
X40350Y47750D02*
X42450Y49850D01*
Y50200D02*
X42797Y50547D01*
X43239D01*
X42000D02*
X42050D01*
X41547D02*
X42000D01*
X41248Y49598D02*
Y50248D01*
X41547Y50547D01*
X40344Y50247D02*
X40344D01*
X40795Y50492D02*
X40850Y50547D01*
X40588Y50492D02*
X40795D01*
X40344Y50247D02*
X40588Y50492D01*
X39000Y48904D02*
X40344Y50247D01*
X39000Y47850D02*
Y48904D01*
X27500Y34850D02*
X27916Y34434D01*
X31900Y35350D02*
Y35400D01*
X27600Y31050D02*
X31900Y35350D01*
X27600Y28900D02*
Y31050D01*
X30982Y28531D02*
X33000Y30550D01*
Y33400D01*
X26043Y27343D02*
X27600Y28900D01*
X26043Y27062D02*
Y27343D01*
X29995Y28531D02*
X30982D01*
X25916Y26935D02*
X26043Y27062D01*
X34000Y29900D02*
Y34450D01*
X31800Y36650D02*
Y46350D01*
Y36650D02*
X34000Y34450D01*
X27916Y26334D02*
Y26935D01*
X27450Y26200D02*
Y26901D01*
X26950Y26450D02*
Y26901D01*
X34490Y29634D02*
Y33837D01*
X34650Y29568D02*
Y33771D01*
X34330Y29700D02*
Y33904D01*
X34490Y33837D02*
X41800Y41147D01*
X34650Y33771D02*
X44800Y43921D01*
X34170Y33970D02*
X39450Y39250D01*
X34170Y29766D02*
Y33970D01*
X34330Y33904D02*
X39650Y39224D01*
X31800Y46350D02*
X32450Y47000D01*
X44800Y43921D02*
Y44050D01*
X39650Y39224D02*
Y43600D01*
X41800Y41147D02*
Y43400D01*
X39450Y39250D02*
Y42350D01*
X37750Y44050D02*
X39450Y42350D01*
X39650Y43600D02*
X40100Y44050D01*
X41800Y43400D02*
X42450Y44050D01*
X27916Y33628D02*
Y34434D01*
X28416Y33628D02*
Y34288D01*
X26800Y35904D02*
X28416Y34288D01*
X26800Y35904D02*
Y41000D01*
X27475Y36975D02*
Y38540D01*
X29889Y40953D01*
X27250Y36200D02*
X28031Y36981D01*
X28550D01*
X29889Y40953D02*
X29900D01*
X26916Y33628D02*
X26950Y33662D01*
Y35524D01*
X26050Y36424D02*
X26950Y35524D01*
X26416Y33628D02*
Y35434D01*
X42980Y50805D02*
Y51750D01*
Y50805D02*
X43239Y50547D01*
X43250D01*
X42000Y50597D02*
Y51750D01*
Y50597D02*
X42050Y50547D01*
X40850D02*
Y51580D01*
X41020Y51750D01*
X26600Y41200D02*
X26800Y41000D01*
X26050Y36424D02*
Y45100D01*
X27000Y44396D02*
X28493Y45889D01*
Y45900D01*
X25250Y36150D02*
Y39400D01*
X25300Y39450D01*
X24680Y46260D02*
X25140D01*
X26350Y40550D02*
Y45050D01*
X25140Y46260D02*
X26350Y45050D01*
X25170Y45980D02*
X26050Y45100D01*
X24680Y45980D02*
X25170D01*
X25890Y36240D02*
Y45010D01*
X24650Y45730D02*
X24680Y45700D01*
X25200D02*
X25890Y45010D01*
X24680Y45700D02*
X25200D01*
X25730Y36380D02*
Y44870D01*
X24680Y45420D02*
X25180D01*
X24650Y45450D02*
X24680Y45420D01*
X25180D02*
X25730Y44870D01*
X25450Y42650D02*
Y44900D01*
X24680Y45140D02*
X25210D01*
X24650Y45170D02*
X24680Y45140D01*
X25210D02*
X25450Y44900D01*
X25438Y42638D02*
X25450Y42650D01*
X25438Y42400D02*
Y42638D01*
X23916Y34566D02*
X25730Y36380D01*
X25416Y35766D02*
X25890Y36240D01*
X23416Y34316D02*
X25250Y36150D01*
X25416Y33628D02*
Y35766D01*
X23416Y33628D02*
Y34316D01*
X23916Y33628D02*
Y34566D01*
X24650Y46010D02*
X24680Y45980D01*
X24650Y46290D02*
X24680Y46260D01*
X23916Y26634D02*
Y26935D01*
X24592Y26061D02*
X24627Y26027D01*
X25200Y25028D02*
Y25700D01*
X23400Y32000D02*
X28200D01*
X29289Y33089D01*
Y33501D02*
X29416Y33628D01*
X29289Y33089D02*
Y33501D01*
X24916Y32834D02*
Y33628D01*
X24416Y32834D02*
Y33628D01*
X28493Y45900D02*
X28550Y45957D01*
Y46900D01*
X30026Y32500D02*
X31553D01*
X29995Y32531D02*
X30026Y32500D01*
X29400Y43497D02*
Y44142D01*
X29697Y44439D01*
Y44450D01*
X29400Y33644D02*
Y35203D01*
Y33644D02*
X29416Y33628D01*
X28550Y37575D02*
X29255D01*
X29304Y37526D02*
X30000D01*
X29255Y37575D02*
X29304Y37526D01*
X29276Y37595D02*
Y38853D01*
X29255Y37575D02*
X29276Y37595D01*
X29650Y39747D02*
Y39922D01*
X30900Y41172D01*
Y42050D01*
X29100Y41547D02*
X29900D01*
X29026Y41621D02*
X29100Y41547D01*
X29026Y41621D02*
Y42603D01*
X35650Y46800D02*
Y46850D01*
X35290Y46440D02*
X35650Y46800D01*
X32589Y46440D02*
X35290D01*
X32529Y46500D02*
X32589Y46440D01*
X32450Y46500D02*
X32529D01*
X35650Y46850D02*
X35700D01*
X32450Y46000D02*
X35850D01*
X36700Y46850D01*
X23404Y25028D02*
X23757D01*
X23050D02*
X23404D01*
X23500Y21750D02*
Y23950D01*
X23404Y24046D02*
X23500Y23950D01*
X23404Y24046D02*
Y25028D01*
X24200Y23750D02*
Y24636D01*
X24323Y24759D01*
X24920D01*
X25189Y25028D02*
X25200D01*
X24920Y24759D02*
X25189Y25028D01*
X24200Y23750D02*
X24800Y23150D01*
Y21750D02*
Y23150D01*
X25696Y23950D02*
X26422D01*
X25211Y24435D02*
X25696Y23950D01*
X25200Y24435D02*
X25211D01*
X24483Y23739D02*
Y24435D01*
Y23739D02*
X26172Y22050D01*
X26422D01*
X23806Y24979D02*
X24434D01*
X24483Y25028D01*
X23757D02*
X23806Y24979D01*
X26400Y25337D02*
Y26919D01*
X26416Y26935D01*
X27032Y25299D02*
X27785D01*
X26993Y25337D02*
X27032Y25299D01*
X45405Y27447D02*
X45953D01*
X46350Y27050D02*
X46750D01*
X45953Y27447D02*
X46350Y27050D01*
X45800Y27250D02*
X46200Y26850D01*
X45405Y27250D02*
X45800D01*
X57200Y25350D02*
X57400D01*
X59055Y25152D02*
Y25290D01*
Y25013D02*
Y25152D01*
X57400Y25350D02*
Y25450D01*
Y25250D02*
Y25350D01*
X43530Y25129D02*
X43564Y25164D01*
X43771Y25170D02*
X43970D01*
X43765Y25164D02*
X43771Y25170D01*
X43564Y25164D02*
X43765D01*
X42850Y25150D02*
X43350Y25650D01*
X42850Y24450D02*
Y25150D01*
X43350Y25650D02*
X44000D01*
X44203Y25853D01*
Y26245D01*
X42326Y23926D02*
X42850Y24450D01*
X44821Y25379D02*
X45029D01*
X42700Y23700D02*
X43450Y24450D01*
X42700Y22403D02*
Y23700D01*
X42326Y23297D02*
Y23926D01*
Y21874D02*
Y23297D01*
X46400Y23750D02*
X46950Y24300D01*
X46400Y22403D02*
Y23750D01*
X42326Y21874D02*
X42730Y21470D01*
X44053Y21400D02*
Y21411D01*
X43995Y21470D02*
X44053Y21411D01*
X42730Y21470D02*
X43995D01*
X44053Y21400D02*
X44103Y21350D01*
X43074Y22676D02*
X43700Y22050D01*
X43074Y22676D02*
Y23297D01*
X43700Y22050D02*
X44103D01*
X44697D02*
X45300D01*
X46026Y22776D01*
Y23297D01*
X44697Y21350D02*
X46200D01*
X46774Y21924D01*
Y23297D01*
X43973Y23597D02*
Y24269D01*
Y23597D02*
X43998Y23571D01*
X44779D02*
Y24224D01*
X44823Y24269D01*
X43970Y24899D02*
Y25170D01*
X44400Y25600D01*
Y26245D01*
X44597Y25603D02*
Y26245D01*
Y25603D02*
X44821Y25379D01*
Y24899D02*
Y25379D01*
X46050Y24450D02*
Y24991D01*
X44991Y26050D02*
X46050Y24991D01*
X44991Y26050D02*
Y26245D01*
X46026Y23297D02*
X46038Y23309D01*
Y24438D01*
X46050Y24450D01*
X53750Y32447D02*
Y33203D01*
X54032Y32176D02*
X55049D01*
X53761Y32447D02*
X54032Y32176D01*
X53750Y32447D02*
X53761D01*
X58261Y25348D02*
X58996D01*
X59055Y25290D01*
X58252Y25545D02*
X58256Y25550D01*
X57498Y25152D02*
X58261D01*
X57400Y25250D02*
X57498Y25152D01*
X57400Y25450D02*
X57495Y25545D01*
X58252D01*
X58256Y25550D02*
X58261Y25545D01*
Y24955D02*
X58996D01*
X59055Y25013D01*
X60250Y17500D02*
G03*
X60250Y17500I-750J0D01*
G01*
X25250D02*
G03*
X25250Y17500I-750J0D01*
G01*
X60250Y52500D02*
G03*
X60250Y52500I-750J0D01*
G01*
X25250D02*
G03*
X25250Y52500I-750J0D01*
G01*
X43180Y53180D02*
G03*
X43180Y53180I-200J0D01*
G01*
X41220D02*
G03*
X41220Y53180I-200J0D01*
G01*
X53269Y45400D02*
G03*
X57250Y51050I-2019J5650D01*
G01*
X49249D02*
G03*
X53275Y45383I6001J0D01*
G01*
X57250Y51050D02*
G03*
X53250Y51050I-2000J0D01*
G01*
D02*
G03*
X49250Y51050I-2000J0D01*
G01*
X22500Y37762D02*
G03*
X22500Y39247I104J743D01*
G01*
X22504Y19157D02*
G03*
X22504Y20643I104J743D01*
G01*
X61504Y39243D02*
G03*
X61504Y37757I-104J-743D01*
G01*
X42750Y38500D02*
G03*
X42750Y38500I-750J0D01*
G01*
Y19900D02*
G03*
X42750Y19900I-750J0D01*
G01*
X57500Y17500D02*
G03*
X61500Y17500I2000J0D01*
G01*
Y52500D02*
G03*
X59500Y54500I-2000J0D01*
G01*
X24500D02*
G03*
X22500Y52500I0J-2000D01*
G01*
Y17500D02*
G03*
X26500Y17500I2000J0D01*
G01*
X61504Y20643D02*
G03*
X61504Y19157I-104J-743D01*
G01*
X50650Y19900D02*
G03*
X50650Y19900I-750J0D01*
G01*
Y38500D02*
G03*
X50650Y38500I-750J0D01*
G01*
X34850D02*
G03*
X34850Y38500I-750J0D01*
G01*
Y19900D02*
G03*
X34850Y19900I-750J0D01*
G01*
X61500Y39247D02*
Y52500D01*
X22500Y17500D02*
Y19142D01*
Y39247D02*
Y52500D01*
X22504Y20643D02*
Y37757D01*
X61504Y20643D02*
Y37757D01*
X61500Y17500D02*
Y19142D01*
X26500Y17500D02*
X57500D01*
X24500Y54500D02*
X59500D01*
D13*
X54300Y22287D02*
X54951Y21635D01*
X54300Y22287D02*
Y23711D01*
X54922Y24333D02*
Y24452D01*
X54300Y23711D02*
X54922Y24333D01*
X53058Y25800D02*
X53126Y25868D01*
X53401Y25690D02*
X54452D01*
X53223Y25868D02*
X53401Y25690D01*
X53126Y25868D02*
X53223D01*
X58827Y26158D02*
X59492Y25493D01*
X58823Y24323D02*
X59492Y24992D01*
Y25493D01*
X58775Y26158D02*
X58827D01*
X58279Y26177D02*
X58756D01*
X58775Y26158D01*
X58279Y24323D02*
X58823D01*
X58261Y24305D02*
X58279Y24323D01*
X58261Y26195D02*
X58279Y26177D01*
X56148Y24920D02*
X56267D01*
D18*
X28916Y26835D02*
D03*
X27416D02*
D03*
X26416D02*
D03*
X25916D02*
D03*
X24916D02*
D03*
X23416D02*
D03*
X26916D02*
D03*
X27916D02*
D03*
X28416D02*
D03*
X29416D02*
D03*
X23916D02*
D03*
X24416D02*
D03*
X25416D02*
D03*
X22916D02*
D03*
D03*
X28916Y33728D02*
D03*
X27416D02*
D03*
X26416D02*
D03*
X25916D02*
D03*
X24916D02*
D03*
X23416D02*
D03*
X26916D02*
D03*
X27916D02*
D03*
X28416D02*
D03*
X29416D02*
D03*
X23916D02*
D03*
X24416D02*
D03*
X25416D02*
D03*
X22916D02*
D03*
D03*
D19*
X26634Y30650D02*
D03*
Y29666D02*
D03*
Y28681D02*
D03*
D03*
X25650Y30650D02*
D03*
Y29666D02*
D03*
Y28681D02*
D03*
D03*
X24666Y30650D02*
D03*
Y29666D02*
D03*
Y28681D02*
D03*
D03*
Y30650D02*
D03*
Y29666D02*
D03*
Y28681D02*
D03*
D03*
D20*
X30095Y32032D02*
D03*
Y31031D02*
D03*
Y30531D02*
D03*
Y29532D02*
D03*
Y29032D02*
D03*
Y28031D02*
D03*
D03*
Y32531D02*
D03*
Y31532D02*
D03*
Y30031D02*
D03*
Y28531D02*
D03*
D21*
X41700Y29700D02*
D03*
X42850Y24450D02*
D03*
X46050D02*
D03*
X24800Y21750D02*
D03*
X23500D02*
D03*
X55550Y34100D02*
D03*
X37800Y27650D02*
D03*
Y29650D02*
D03*
Y26650D02*
D03*
Y28650D02*
D03*
Y30650D02*
D03*
Y31650D02*
D03*
X35400Y27650D02*
D03*
Y29650D02*
D03*
Y26650D02*
D03*
Y28650D02*
D03*
Y30650D02*
D03*
Y31650D02*
D03*
X44800Y44050D02*
D03*
Y43050D02*
D03*
X42450Y44050D02*
D03*
Y43050D02*
D03*
X40100Y44050D02*
D03*
Y43050D02*
D03*
X37750Y44050D02*
D03*
Y43050D02*
D03*
X36700Y46850D02*
D03*
X34700D02*
D03*
X35700D02*
D03*
D22*
X56950Y21990D02*
D03*
Y23310D02*
D03*
X40200Y30730D02*
D03*
Y32050D02*
D03*
D23*
X45110Y34000D02*
D03*
X43790D02*
D03*
D24*
X51600Y30498D02*
D03*
Y33002D02*
D03*
D25*
X26422Y22050D02*
D03*
X29778D02*
D03*
Y23950D02*
D03*
X26422D02*
D03*
D26*
X43250Y49953D02*
D03*
Y50547D02*
D03*
X42050Y49953D02*
D03*
Y50547D02*
D03*
X40850Y49953D02*
D03*
Y50547D02*
D03*
X53750Y32447D02*
D03*
Y31853D02*
D03*
X55700Y23547D02*
D03*
Y22953D02*
D03*
X54950Y23547D02*
D03*
Y22953D02*
D03*
X44779Y23571D02*
D03*
Y22978D02*
D03*
X43998Y23571D02*
D03*
Y22978D02*
D03*
X45350Y30600D02*
D03*
Y31193D02*
D03*
X25200Y24435D02*
D03*
Y25028D02*
D03*
X23050D02*
D03*
Y24435D02*
D03*
X29400Y35203D02*
D03*
Y35797D02*
D03*
X29255Y37575D02*
D03*
Y36981D02*
D03*
X28550Y37575D02*
D03*
Y36981D02*
D03*
X29900Y41547D02*
D03*
Y40953D02*
D03*
X29100Y41547D02*
D03*
Y40953D02*
D03*
X24483Y24435D02*
D03*
Y25028D02*
D03*
X53750Y33203D02*
D03*
Y33797D02*
D03*
D27*
X44050Y53500D02*
D03*
X39950D02*
D03*
X37700Y46850D02*
D03*
D28*
X41020Y51750D02*
D03*
X42980D02*
D03*
X42000D02*
D03*
D29*
X54048Y28600D02*
D03*
X56552D02*
D03*
D30*
X56216Y30850D02*
D03*
X54484D02*
D03*
X49884Y34600D02*
D03*
X51616D02*
D03*
D31*
X56151Y32176D02*
D03*
Y32550D02*
D03*
Y32924D02*
D03*
X55049D02*
D03*
Y32550D02*
D03*
Y32176D02*
D03*
D32*
X58261Y23990D02*
D03*
Y26510D02*
D03*
Y24305D02*
D03*
Y26195D02*
D03*
D33*
Y24561D02*
D03*
Y24758D02*
D03*
Y24955D02*
D03*
Y25545D02*
D03*
Y25742D02*
D03*
Y25939D02*
D03*
Y25152D02*
D03*
Y25348D02*
D03*
D34*
X55700Y22250D02*
D03*
X55703Y21620D02*
D03*
X54949Y22265D02*
D03*
X54951Y21635D02*
D03*
X45351Y32135D02*
D03*
X45349Y32765D02*
D03*
X44821Y24899D02*
D03*
X44823Y24269D02*
D03*
X43970Y24899D02*
D03*
X43973Y24269D02*
D03*
D35*
X55434Y26148D02*
D03*
X55690D02*
D03*
X54922D02*
D03*
X55178D02*
D03*
X55434Y24452D02*
D03*
X55690D02*
D03*
X54922D02*
D03*
X55178D02*
D03*
D36*
X56148Y24920D02*
D03*
Y25176D02*
D03*
Y25432D02*
D03*
Y25688D02*
D03*
X54452Y25690D02*
D03*
Y25434D02*
D03*
Y25178D02*
D03*
Y24922D02*
D03*
D37*
X55300Y25300D02*
D03*
D38*
X53397Y24350D02*
D03*
X52803D02*
D03*
X44697Y21350D02*
D03*
X44103D02*
D03*
Y22050D02*
D03*
X44697D02*
D03*
X29697Y44450D02*
D03*
X29103D02*
D03*
X27900Y45900D02*
D03*
X28493D02*
D03*
X26400Y25337D02*
D03*
X26993D02*
D03*
X31553Y32500D02*
D03*
X32147D02*
D03*
D39*
X52800Y25050D02*
D03*
X53351D02*
D03*
X46576Y34000D02*
D03*
X46024D02*
D03*
X30874Y45200D02*
D03*
X31426D02*
D03*
X51500Y27150D02*
D03*
X52051D02*
D03*
X51550Y25800D02*
D03*
X52101D02*
D03*
D40*
X50200Y26816D02*
D03*
Y25084D02*
D03*
X48850Y26816D02*
D03*
Y25084D02*
D03*
D41*
X42700Y22403D02*
D03*
X42326Y23297D02*
D03*
X43074D02*
D03*
X46400Y22403D02*
D03*
X46026Y23297D02*
D03*
X46774D02*
D03*
X29650Y39747D02*
D03*
X30024Y38853D02*
D03*
X29276D02*
D03*
X29400Y43497D02*
D03*
X29774Y42603D02*
D03*
X29026D02*
D03*
D42*
X46150Y28826D02*
D03*
Y28274D02*
D03*
X45350Y29676D02*
D03*
Y29124D02*
D03*
X46200Y32199D02*
D03*
Y32750D02*
D03*
X38950Y31024D02*
D03*
Y31576D02*
D03*
X23806Y24428D02*
D03*
Y24979D02*
D03*
X30000Y36974D02*
D03*
Y37526D02*
D03*
D43*
X48100Y32780D02*
D03*
Y30720D02*
D03*
D44*
X41684Y31700D02*
D03*
D45*
X43916Y32606D02*
D03*
Y31700D02*
D03*
Y30794D02*
D03*
D46*
X30900Y42050D02*
D03*
X33900D02*
D03*
X30900Y44250D02*
D03*
X33900D02*
D03*
D47*
X24650Y43770D02*
D03*
Y44050D02*
D03*
Y43490D02*
D03*
Y44330D02*
D03*
Y44610D02*
D03*
Y44890D02*
D03*
Y45170D02*
D03*
Y45450D02*
D03*
Y45730D02*
D03*
Y46010D02*
D03*
Y46290D02*
D03*
Y46570D02*
D03*
Y46850D02*
D03*
D48*
X27785Y25299D02*
D03*
X28415Y25301D02*
D03*
D49*
X45405Y26659D02*
D03*
Y26856D02*
D03*
Y27053D02*
D03*
Y27250D02*
D03*
Y27447D02*
D03*
Y27644D02*
D03*
Y27841D02*
D03*
X43395Y27644D02*
D03*
Y27447D02*
D03*
Y27250D02*
D03*
Y27053D02*
D03*
Y26856D02*
D03*
Y26659D02*
D03*
Y27841D02*
D03*
D50*
X44991Y28255D02*
D03*
X44794D02*
D03*
X44597D02*
D03*
X44400D02*
D03*
X44203D02*
D03*
X44006D02*
D03*
X43809D02*
D03*
Y26245D02*
D03*
X44006D02*
D03*
X44203D02*
D03*
X44400D02*
D03*
X44597D02*
D03*
X44794D02*
D03*
X44991D02*
D03*
D51*
X44400Y27250D02*
D03*
D52*
X53126Y25868D02*
D03*
Y27032D02*
D03*
D101*
X28415Y25301D02*
X29318D01*
X29394Y25225D01*
X29449D01*
X46024Y32765D02*
X46166D01*
X29400Y35797D02*
X29986D01*
X30092Y35690D01*
X30147D01*
X23416Y26935D02*
Y27884D01*
X27900Y45900D02*
Y46550D01*
X27550Y46900D02*
X27900Y46550D01*
X28503Y40953D02*
X29100D01*
X30900Y43450D02*
Y44250D01*
Y45155D01*
X30874Y45180D02*
X30900Y45155D01*
X30874Y45180D02*
Y45200D01*
X23050Y23600D02*
Y24435D01*
X45850Y29450D02*
X46350D01*
X47800Y26229D02*
Y28000D01*
X46350Y29450D02*
X47800Y28000D01*
X45350Y29124D02*
X45357Y29132D01*
X45532D01*
X45850Y29450D01*
X48850Y25084D02*
Y25179D01*
X47800Y26229D02*
X48850Y25179D01*
X45350Y27750D02*
X45947D01*
X46950D01*
X48900Y24300D02*
X51565Y21635D01*
X44389Y22978D02*
X44779D01*
X43998D02*
X44389D01*
X44779D02*
X44790D01*
X46123Y27926D02*
Y28267D01*
X45947Y27750D02*
X46123Y27926D01*
X46130Y28274D02*
X46150D01*
X46123Y28267D02*
X46130Y28274D01*
X45350Y28614D02*
Y29124D01*
X45091Y28355D02*
X45350Y28614D01*
X45351Y32135D02*
X45351Y32135D01*
X45351Y31194D02*
Y32135D01*
X45350Y31193D02*
X45351Y31194D01*
X45110Y34000D02*
Y34067D01*
X43977Y35200D02*
X45110Y34067D01*
X40350Y35200D02*
X43977D01*
X37800Y32650D02*
X40350Y35200D01*
X35500Y26750D02*
X37900D01*
X35500Y27750D02*
X37900D01*
X35500Y28750D02*
X37900D01*
X35500Y29750D02*
X37900D01*
X35500Y30750D02*
X37900D01*
X35400Y32650D02*
X37800D01*
X35400Y31650D02*
X37800D01*
X37956Y31576D02*
X38950D01*
X37881Y31650D02*
X37956Y31576D01*
X37800Y31650D02*
X37881D01*
X41700Y29700D02*
Y31684D01*
X41684Y31700D02*
X41700Y31684D01*
X38950Y31576D02*
X39858D01*
X40132Y31850D01*
X40200D01*
X41534D01*
X41684Y31700D01*
X43916D01*
X44712Y32606D02*
X45110Y33003D01*
X43916Y32606D02*
X44712D01*
X45110Y33003D02*
Y34000D01*
Y33003D02*
X45349Y32765D01*
X46166D02*
X46180Y32750D01*
X46024Y32906D02*
X46166Y32765D01*
X46024Y32906D02*
Y34000D01*
X45349Y32765D02*
X46024D01*
X46180Y32750D02*
X46200D01*
X46207Y32757D01*
X48077D01*
X49788Y34600D02*
X49884D01*
X51600Y33002D02*
X52998D01*
X54426Y32924D02*
X55049D01*
X51616Y33018D02*
Y34600D01*
X51600Y33002D02*
X51616Y33018D01*
X56151Y32363D02*
X56514Y32000D01*
X54222Y31650D02*
X56164D01*
X56514Y32000D01*
X51600Y30498D02*
X53070D01*
X54222Y31650D01*
X56151Y32363D02*
Y32550D01*
Y32176D02*
Y32363D01*
X56514Y32000D02*
X58650D01*
X53126Y27032D02*
Y27678D01*
X53450Y28002D01*
X53548D01*
X54048Y28502D01*
Y28600D01*
X51565Y21635D02*
X54951D01*
X48850Y24350D02*
Y25084D01*
X50940Y24804D02*
X52101Y23643D01*
X50385Y24804D02*
X50940D01*
X50200Y24988D02*
X50385Y24804D01*
X50200Y24988D02*
Y25084D01*
X52101Y23643D02*
Y25800D01*
Y23643D02*
X52700Y23044D01*
X56733Y23250D02*
X56800D01*
X56100Y22617D02*
X56733Y23250D01*
X56100Y22018D02*
Y22617D01*
X55703Y21620D02*
X56100Y22018D01*
X54951Y21635D02*
X54959Y21628D01*
X55695D01*
X55703Y21620D01*
X52101Y25800D02*
X53058D01*
D102*
X42853Y49953D02*
X43250D01*
X40403D02*
X40850D01*
X41603D02*
X42050D01*
X23700Y43350D02*
X24115Y43765D01*
X24645D02*
X24650Y43770D01*
X24115Y43765D02*
X24645D01*
X23800Y43900D02*
X23950Y44050D01*
X24650D01*
X28550Y44450D02*
X29103D01*
X23770Y44330D02*
X24650D01*
X48900Y23300D02*
Y24300D01*
X48850Y24350D02*
X48900Y24300D01*
X47400Y21800D02*
X48900Y23300D01*
X44389Y22561D02*
Y22978D01*
X49884Y34600D02*
X49979D01*
X50829Y35450D01*
X52085D01*
X53739Y33797D02*
X53750D01*
X52085Y35450D02*
X53739Y33797D01*
X53750D02*
X55217D01*
X55521Y34100D01*
X55550D01*
X54949Y22265D02*
X54949Y22265D01*
Y22953D01*
X54950Y22953D01*
X55700Y22250D02*
Y22953D01*
X54950Y23547D02*
Y23930D01*
X55172Y24152D01*
Y24446D01*
X55178Y24452D01*
X55700Y23547D02*
Y23930D01*
X55440Y24190D02*
X55700Y23930D01*
X55440Y24190D02*
Y24446D01*
X55434Y24452D02*
X55440Y24446D01*
X53729Y25428D02*
X54446D01*
X53351Y25050D02*
Y25070D01*
X53434Y25152D01*
X53453D02*
X53729Y25428D01*
X53434Y25152D02*
X53453D01*
X53957Y24922D02*
X54452D01*
X53397Y24361D02*
X53957Y24922D01*
X53397Y24350D02*
Y24361D01*
X54446Y25428D02*
X54452Y25434D01*
X52149Y27032D02*
X53126D01*
X52051Y27130D02*
X52149Y27032D01*
X52051Y27130D02*
Y27150D01*
X54107Y26148D02*
X54922D01*
X53223Y27032D02*
X54107Y26148D01*
X53126Y27032D02*
X53223D01*
D103*
X37800Y32650D02*
D03*
X35400D02*
D03*
X44800Y45050D02*
D03*
X42450D02*
D03*
X40100D02*
D03*
X37750D02*
D03*
D104*
X58650Y28457D02*
D03*
Y33181D02*
D03*
D105*
Y32000D02*
D03*
D106*
Y30819D02*
D03*
Y29638D02*
D03*
D107*
X60589Y26951D02*
D03*
Y23549D02*
D03*
D108*
X58955Y26951D02*
D03*
Y23549D02*
D03*
D109*
X59148Y26392D02*
D03*
X59152Y24108D02*
D03*
D110*
X52700Y23044D02*
D03*
D111*
Y22256D02*
D03*
D112*
X29550Y46900D02*
D03*
X28550D02*
D03*
X30550D02*
D03*
D113*
X27550D02*
D03*
D114*
X32450Y48000D02*
D03*
Y47000D02*
D03*
Y46500D02*
D03*
Y47500D02*
D03*
D115*
Y46000D02*
D03*
D116*
X29449Y25225D02*
D03*
X30147Y35690D02*
D03*
X23416Y27884D02*
D03*
X28503Y40953D02*
D03*
X30900Y43450D02*
D03*
X23050Y23600D02*
D03*
X42450Y28250D02*
D03*
X41775D02*
D03*
X48500Y36350D02*
D03*
X49175D02*
D03*
X49850D02*
D03*
X48500Y35550D02*
D03*
X49175D02*
D03*
X49850D02*
D03*
X41100Y29050D02*
D03*
X41775D02*
D03*
X42450D02*
D03*
X41100Y28250D02*
D03*
X52998Y33002D02*
D03*
X54426Y32924D02*
D03*
X50250Y28200D02*
D03*
X49575D02*
D03*
X48900D02*
D03*
X50250Y29000D02*
D03*
X49575D02*
D03*
X48900D02*
D03*
D117*
X27400Y34450D02*
D03*
X39700Y47950D02*
D03*
X40350Y47750D02*
D03*
X42853Y49953D02*
D03*
X40403D02*
D03*
X39000Y47850D02*
D03*
X27500Y34850D02*
D03*
X31900Y35400D02*
D03*
X33000Y33400D02*
D03*
X41603Y49953D02*
D03*
X27475Y36975D02*
D03*
X27250Y36200D02*
D03*
X26416Y35434D02*
D03*
X25300Y39450D02*
D03*
X26600Y41200D02*
D03*
X25438Y42400D02*
D03*
X26350Y40550D02*
D03*
X23700Y43350D02*
D03*
X23800Y43900D02*
D03*
X24627Y26027D02*
D03*
X25200Y25700D02*
D03*
X23400Y32000D02*
D03*
X24916Y32834D02*
D03*
X24416D02*
D03*
X28550Y44450D02*
D03*
X23770Y44330D02*
D03*
X46200Y26850D02*
D03*
X57200Y25350D02*
D03*
X59055Y25152D02*
D03*
X46750Y27050D02*
D03*
X43530Y25129D02*
D03*
X45029Y25379D02*
D03*
X43450Y24450D02*
D03*
X46950Y24300D02*
D03*
Y27750D02*
D03*
X47400Y21800D02*
D03*
X44389Y22561D02*
D03*
M02*
