G04*
G04 #@! TF.GenerationSoftware,Altium Limited,Altium Designer,20.2.6 (244)*
G04*
G04 Layer_Color=255*
%FSLAX24Y24*%
%MOIN*%
G70*
G04*
G04 #@! TF.SameCoordinates,AAC5203C-1E5B-4ACD-AD40-D79658958D62*
G04*
G04*
G04 #@! TF.FilePolarity,Positive*
G04*
G01*
G75*
%ADD10C,0.0100*%
%ADD21C,0.0600*%
%ADD27R,0.0600X0.0600*%
%ADD103R,0.0600X0.0600*%
G04:AMPARAMS|DCode=104|XSize=50mil|YSize=80mil|CornerRadius=0mil|HoleSize=0mil|Usage=FLASHONLY|Rotation=270.000|XOffset=0mil|YOffset=0mil|HoleType=Round|Shape=Octagon|*
%AMOCTAGOND104*
4,1,8,0.0400,0.0125,0.0400,-0.0125,0.0275,-0.0250,-0.0275,-0.0250,-0.0400,-0.0125,-0.0400,0.0125,-0.0275,0.0250,0.0275,0.0250,0.0400,0.0125,0.0*
%
%ADD104OCTAGOND104*%

%ADD105R,0.0700X0.0500*%
G04:AMPARAMS|DCode=106|XSize=50mil|YSize=70mil|CornerRadius=0mil|HoleSize=0mil|Usage=FLASHONLY|Rotation=270.000|XOffset=0mil|YOffset=0mil|HoleType=Round|Shape=Octagon|*
%AMOCTAGOND106*
4,1,8,0.0350,0.0125,0.0350,-0.0125,0.0225,-0.0250,-0.0225,-0.0250,-0.0350,-0.0125,-0.0350,0.0125,-0.0225,0.0250,0.0225,0.0250,0.0350,0.0125,0.0*
%
%ADD106OCTAGOND106*%

%ADD107O,0.0709X0.0394*%
%ADD108O,0.0827X0.0394*%
%ADD109C,0.0256*%
%ADD110R,0.0630X0.0630*%
%ADD111C,0.0630*%
%ADD112C,0.0510*%
%ADD113R,0.0510X0.0510*%
%ADD114C,0.0394*%
%ADD115R,0.0394X0.0394*%
D10*
X60250Y17500D02*
G03*
X60250Y17500I-750J0D01*
G01*
X25250D02*
G03*
X25250Y17500I-750J0D01*
G01*
X60250Y52500D02*
G03*
X60250Y52500I-750J0D01*
G01*
X25250D02*
G03*
X25250Y52500I-750J0D01*
G01*
X43180Y53180D02*
G03*
X43180Y53180I-200J0D01*
G01*
X41220D02*
G03*
X41220Y53180I-200J0D01*
G01*
X53269Y45400D02*
G03*
X57250Y51050I-2019J5650D01*
G01*
X49249D02*
G03*
X53275Y45383I6001J0D01*
G01*
X57250Y51050D02*
G03*
X53250Y51050I-2000J0D01*
G01*
D02*
G03*
X49250Y51050I-2000J0D01*
G01*
X22500Y37762D02*
G03*
X22500Y39247I104J743D01*
G01*
X22504Y19157D02*
G03*
X22504Y20643I104J743D01*
G01*
X61504Y39243D02*
G03*
X61504Y37757I-104J-743D01*
G01*
X42750Y38500D02*
G03*
X42750Y38500I-750J0D01*
G01*
Y19900D02*
G03*
X42750Y19900I-750J0D01*
G01*
X57500Y17500D02*
G03*
X61500Y17500I2000J0D01*
G01*
Y52500D02*
G03*
X59500Y54500I-2000J0D01*
G01*
X24500D02*
G03*
X22500Y52500I0J-2000D01*
G01*
Y17500D02*
G03*
X26500Y17500I2000J0D01*
G01*
X61504Y20643D02*
G03*
X61504Y19157I-104J-743D01*
G01*
X50650Y19900D02*
G03*
X50650Y19900I-750J0D01*
G01*
Y38500D02*
G03*
X50650Y38500I-750J0D01*
G01*
X34850D02*
G03*
X34850Y38500I-750J0D01*
G01*
Y19900D02*
G03*
X34850Y19900I-750J0D01*
G01*
X61500Y39247D02*
Y52500D01*
X22500Y17500D02*
Y19142D01*
Y39247D02*
Y52500D01*
X22504Y20643D02*
Y37757D01*
X61504Y20643D02*
Y37757D01*
X61500Y17500D02*
Y19142D01*
X26500Y17500D02*
X57500D01*
X24500Y54500D02*
X59500D01*
D21*
X37800Y27650D02*
D03*
Y29650D02*
D03*
Y26650D02*
D03*
Y28650D02*
D03*
Y30650D02*
D03*
Y31650D02*
D03*
X35400Y27650D02*
D03*
Y29650D02*
D03*
Y26650D02*
D03*
Y28650D02*
D03*
Y30650D02*
D03*
Y31650D02*
D03*
X44800Y44050D02*
D03*
Y43050D02*
D03*
X42450Y44050D02*
D03*
Y43050D02*
D03*
X40100Y44050D02*
D03*
Y43050D02*
D03*
X37750Y44050D02*
D03*
Y43050D02*
D03*
X36700Y46850D02*
D03*
X34700D02*
D03*
X35700D02*
D03*
D27*
X37700D02*
D03*
D103*
X37800Y32650D02*
D03*
X35400D02*
D03*
X44800Y45050D02*
D03*
X42450D02*
D03*
X40100D02*
D03*
X37750D02*
D03*
D104*
X58650Y28457D02*
D03*
Y33181D02*
D03*
D105*
Y32000D02*
D03*
D106*
Y30819D02*
D03*
Y29638D02*
D03*
D107*
X60589Y26951D02*
D03*
Y23549D02*
D03*
D108*
X58955Y26951D02*
D03*
Y23549D02*
D03*
D109*
X59148Y26392D02*
D03*
X59152Y24108D02*
D03*
D110*
X52700Y23044D02*
D03*
D111*
Y22256D02*
D03*
D112*
X29550Y46900D02*
D03*
X28550D02*
D03*
X30550D02*
D03*
D113*
X27550D02*
D03*
D114*
X32450Y48000D02*
D03*
Y47000D02*
D03*
Y46500D02*
D03*
Y47500D02*
D03*
D115*
Y46000D02*
D03*
M02*
