G04*
G04 #@! TF.GenerationSoftware,Altium Limited,Altium Designer,20.2.6 (244)*
G04*
G04 Layer_Physical_Order=2*
G04 Layer_Color=32768*
%FSLAX24Y24*%
%MOIN*%
G70*
G04*
G04 #@! TF.SameCoordinates,AAC5203C-1E5B-4ACD-AD40-D79658958D62*
G04*
G04*
G04 #@! TF.FilePolarity,Negative*
G04*
G01*
G75*
%ADD10C,0.0100*%
%ADD118C,0.0400*%
%ADD119C,0.0700*%
%ADD120O,0.0800X0.0750*%
%ADD121O,0.0700X0.0750*%
%ADD122O,0.0951X0.0636*%
%ADD123O,0.1069X0.0636*%
%ADD124C,0.0656*%
%ADD125C,0.0794*%
%ADD126C,0.0680*%
%ADD127C,0.0676*%
%ADD128C,0.0560*%
G36*
X43093Y53350D02*
X43150Y53293D01*
X43180Y53220D01*
Y53180D01*
Y53140D01*
X43150Y53067D01*
X43093Y53010D01*
X43020Y52980D01*
X42940D01*
X42867Y53010D01*
X42810Y53067D01*
X42780Y53140D01*
Y53180D01*
Y53220D01*
X42810Y53293D01*
X42867Y53350D01*
X42940Y53380D01*
X43020D01*
X43093Y53350D01*
D02*
G37*
G36*
X41133D02*
X41190Y53293D01*
X41220Y53220D01*
Y53180D01*
Y53140D01*
X41190Y53067D01*
X41133Y53010D01*
X41060Y52980D01*
X40980D01*
X40907Y53010D01*
X40850Y53067D01*
X40820Y53140D01*
Y53180D01*
Y53220D01*
X40850Y53293D01*
X40907Y53350D01*
X40980Y53380D01*
X41060D01*
X41133Y53350D01*
D02*
G37*
G36*
X59719Y53221D02*
X59855Y53165D01*
X59978Y53083D01*
X60083Y52978D01*
X60165Y52855D01*
X60221Y52719D01*
X60250Y52574D01*
Y52500D01*
Y52426D01*
X60221Y52281D01*
X60165Y52145D01*
X60083Y52022D01*
X59978Y51917D01*
X59855Y51835D01*
X59719Y51779D01*
X59574Y51750D01*
X59426D01*
X59281Y51779D01*
X59145Y51835D01*
X59022Y51917D01*
X58917Y52022D01*
X58835Y52145D01*
X58779Y52281D01*
X58750Y52426D01*
Y52500D01*
Y52574D01*
X58779Y52719D01*
X58835Y52855D01*
X58917Y52978D01*
X59022Y53083D01*
X59145Y53165D01*
X59281Y53221D01*
X59426Y53250D01*
X59574D01*
X59719Y53221D01*
D02*
G37*
G36*
X24719D02*
X24855Y53165D01*
X24978Y53083D01*
X25083Y52978D01*
X25165Y52855D01*
X25221Y52719D01*
X25250Y52574D01*
Y52500D01*
Y52426D01*
X25221Y52281D01*
X25165Y52145D01*
X25083Y52022D01*
X24978Y51917D01*
X24855Y51835D01*
X24719Y51779D01*
X24574Y51750D01*
X24426D01*
X24281Y51779D01*
X24145Y51835D01*
X24022Y51917D01*
X23917Y52022D01*
X23835Y52145D01*
X23779Y52281D01*
X23750Y52426D01*
Y52500D01*
Y52574D01*
X23779Y52719D01*
X23835Y52855D01*
X23917Y52978D01*
X24022Y53083D01*
X24145Y53165D01*
X24281Y53221D01*
X24426Y53250D01*
X24574D01*
X24719Y53221D01*
D02*
G37*
G36*
X51401Y53098D02*
X51648Y53065D01*
X51889Y53002D01*
X52121Y52910D01*
X52340Y52791D01*
X52543Y52646D01*
X52727Y52477D01*
X52889Y52288D01*
X53027Y52080D01*
X53139Y51857D01*
X53223Y51622D01*
X53250Y51501D01*
X53277Y51623D01*
X53362Y51858D01*
X53473Y52081D01*
X53612Y52289D01*
X53774Y52479D01*
X53958Y52647D01*
X54162Y52792D01*
X54381Y52911D01*
X54614Y53003D01*
X54855Y53066D01*
X55103Y53099D01*
X55353Y53101D01*
X55601Y53074D01*
X55844Y53016D01*
X56078Y52930D01*
X56300Y52815D01*
X56507Y52675D01*
X56694Y52510D01*
X56861Y52324D01*
X57004Y52119D01*
X57121Y51898D01*
X57210Y51665D01*
X57270Y51423D01*
X57300Y51175D01*
Y51050D01*
Y50819D01*
X57265Y50358D01*
X57195Y49902D01*
X57090Y49452D01*
X56951Y49011D01*
X56779Y48582D01*
X56575Y48168D01*
X56339Y47770D01*
X56074Y47392D01*
X55781Y47034D01*
X55462Y46701D01*
X55118Y46392D01*
X54752Y46111D01*
X54365Y45858D01*
X53960Y45636D01*
X53539Y45445D01*
X53322Y45366D01*
X53318Y45357D01*
X53305Y45342D01*
X53287Y45334D01*
X53268Y45333D01*
X53259Y45336D01*
X53259D01*
X53038Y45413D01*
X52610Y45600D01*
X52197Y45820D01*
X51803Y46071D01*
X51429Y46352D01*
X51078Y46661D01*
X50752Y46996D01*
X50453Y47355D01*
X50182Y47736D01*
X49941Y48137D01*
X49732Y48555D01*
X49556Y48988D01*
X49414Y49433D01*
X49307Y49888D01*
X49235Y50350D01*
X49199Y50816D01*
Y51050D01*
Y51051D01*
X49199Y51053D01*
X49199Y51056D01*
X49200Y51058D01*
X49200Y51059D01*
X49200Y51184D01*
X49232Y51431D01*
X49293Y51673D01*
X49383Y51906D01*
X49500Y52126D01*
X49643Y52330D01*
X49810Y52515D01*
X49998Y52679D01*
X50205Y52818D01*
X50427Y52932D01*
X50661Y53018D01*
X50904Y53075D01*
X51152Y53102D01*
X51401Y53098D01*
D02*
G37*
G36*
X42219Y39221D02*
X42355Y39165D01*
X42478Y39083D01*
X42583Y38978D01*
X42665Y38855D01*
X42721Y38719D01*
X42750Y38574D01*
Y38500D01*
Y38426D01*
X42721Y38281D01*
X42665Y38145D01*
X42583Y38022D01*
X42478Y37917D01*
X42355Y37835D01*
X42219Y37779D01*
X42074Y37750D01*
X41926D01*
X41781Y37779D01*
X41645Y37835D01*
X41522Y37917D01*
X41417Y38022D01*
X41335Y38145D01*
X41279Y38281D01*
X41250Y38426D01*
Y38500D01*
Y38574D01*
X41279Y38719D01*
X41335Y38855D01*
X41417Y38978D01*
X41522Y39083D01*
X41645Y39165D01*
X41781Y39221D01*
X41926Y39250D01*
X42074D01*
X42219Y39221D01*
D02*
G37*
G36*
X50119Y39221D02*
X50255Y39165D01*
X50378Y39083D01*
X50483Y38978D01*
X50565Y38855D01*
X50621Y38719D01*
X50650Y38574D01*
Y38500D01*
Y38426D01*
X50621Y38281D01*
X50565Y38145D01*
X50483Y38022D01*
X50378Y37917D01*
X50255Y37835D01*
X50119Y37779D01*
X49974Y37750D01*
X49826D01*
X49681Y37779D01*
X49545Y37835D01*
X49422Y37917D01*
X49317Y38022D01*
X49235Y38145D01*
X49179Y38281D01*
X49150Y38426D01*
Y38500D01*
Y38574D01*
X49179Y38719D01*
X49235Y38855D01*
X49317Y38978D01*
X49422Y39083D01*
X49545Y39165D01*
X49681Y39221D01*
X49826Y39250D01*
X49974D01*
X50119Y39221D01*
D02*
G37*
G36*
X34319D02*
X34455Y39165D01*
X34578Y39083D01*
X34683Y38978D01*
X34765Y38855D01*
X34821Y38719D01*
X34850Y38574D01*
Y38500D01*
Y38426D01*
X34821Y38281D01*
X34765Y38145D01*
X34683Y38022D01*
X34578Y37917D01*
X34455Y37835D01*
X34319Y37779D01*
X34174Y37750D01*
X34026D01*
X33881Y37779D01*
X33745Y37835D01*
X33622Y37917D01*
X33517Y38022D01*
X33435Y38145D01*
X33379Y38281D01*
X33350Y38426D01*
Y38500D01*
Y38574D01*
X33379Y38719D01*
X33435Y38855D01*
X33517Y38978D01*
X33622Y39083D01*
X33745Y39165D01*
X33881Y39221D01*
X34026Y39250D01*
X34174D01*
X34319Y39221D01*
D02*
G37*
G36*
X50119Y20621D02*
X50255Y20565D01*
X50378Y20483D01*
X50483Y20378D01*
X50565Y20255D01*
X50621Y20119D01*
X50650Y19974D01*
Y19900D01*
Y19826D01*
X50621Y19681D01*
X50565Y19545D01*
X50483Y19422D01*
X50378Y19317D01*
X50255Y19235D01*
X50119Y19179D01*
X49974Y19150D01*
X49826D01*
X49681Y19179D01*
X49545Y19235D01*
X49422Y19317D01*
X49317Y19422D01*
X49235Y19545D01*
X49179Y19681D01*
X49150Y19826D01*
Y19900D01*
Y19974D01*
X49179Y20119D01*
X49235Y20255D01*
X49317Y20378D01*
X49422Y20483D01*
X49545Y20565D01*
X49681Y20621D01*
X49826Y20650D01*
X49974D01*
X50119Y20621D01*
D02*
G37*
G36*
X42219D02*
X42355Y20565D01*
X42478Y20483D01*
X42583Y20378D01*
X42665Y20255D01*
X42721Y20119D01*
X42750Y19974D01*
Y19900D01*
Y19826D01*
X42721Y19681D01*
X42665Y19545D01*
X42583Y19422D01*
X42478Y19317D01*
X42355Y19235D01*
X42219Y19179D01*
X42074Y19150D01*
X41926D01*
X41781Y19179D01*
X41645Y19235D01*
X41522Y19317D01*
X41417Y19422D01*
X41335Y19545D01*
X41279Y19681D01*
X41250Y19826D01*
Y19900D01*
Y19974D01*
X41279Y20119D01*
X41335Y20255D01*
X41417Y20378D01*
X41522Y20483D01*
X41645Y20565D01*
X41781Y20621D01*
X41926Y20650D01*
X42074D01*
X42219Y20621D01*
D02*
G37*
G36*
X34319D02*
X34455Y20565D01*
X34578Y20483D01*
X34683Y20378D01*
X34765Y20255D01*
X34821Y20119D01*
X34850Y19974D01*
Y19900D01*
Y19826D01*
X34821Y19681D01*
X34765Y19545D01*
X34683Y19422D01*
X34578Y19317D01*
X34455Y19235D01*
X34319Y19179D01*
X34174Y19150D01*
X34026D01*
X33881Y19179D01*
X33745Y19235D01*
X33622Y19317D01*
X33517Y19422D01*
X33435Y19545D01*
X33379Y19681D01*
X33350Y19826D01*
Y19900D01*
Y19974D01*
X33379Y20119D01*
X33435Y20255D01*
X33517Y20378D01*
X33622Y20483D01*
X33745Y20565D01*
X33881Y20621D01*
X34026Y20650D01*
X34174D01*
X34319Y20621D01*
D02*
G37*
G36*
X59719Y18221D02*
X59855Y18165D01*
X59978Y18083D01*
X60083Y17978D01*
X60165Y17855D01*
X60221Y17719D01*
X60250Y17574D01*
Y17500D01*
Y17426D01*
X60221Y17281D01*
X60165Y17145D01*
X60083Y17022D01*
X59978Y16917D01*
X59855Y16835D01*
X59719Y16779D01*
X59574Y16750D01*
X59426D01*
X59281Y16779D01*
X59145Y16835D01*
X59022Y16917D01*
X58917Y17022D01*
X58835Y17145D01*
X58779Y17281D01*
X58750Y17426D01*
Y17500D01*
Y17574D01*
X58779Y17719D01*
X58835Y17855D01*
X58917Y17978D01*
X59022Y18083D01*
X59145Y18165D01*
X59281Y18221D01*
X59426Y18250D01*
X59574D01*
X59719Y18221D01*
D02*
G37*
G36*
X24719D02*
X24855Y18165D01*
X24978Y18083D01*
X25083Y17978D01*
X25165Y17855D01*
X25221Y17719D01*
X25250Y17574D01*
Y17500D01*
Y17426D01*
X25221Y17281D01*
X25165Y17145D01*
X25083Y17022D01*
X24978Y16917D01*
X24855Y16835D01*
X24719Y16779D01*
X24574Y16750D01*
X24426D01*
X24281Y16779D01*
X24145Y16835D01*
X24022Y16917D01*
X23917Y17022D01*
X23835Y17145D01*
X23779Y17281D01*
X23750Y17426D01*
Y17500D01*
Y17574D01*
X23779Y17719D01*
X23835Y17855D01*
X23917Y17978D01*
X24022Y18083D01*
X24145Y18165D01*
X24281Y18221D01*
X24426Y18250D01*
X24574D01*
X24719Y18221D01*
D02*
G37*
D10*
X31950Y49300D02*
X43750D01*
X51350Y41700D01*
Y36200D02*
Y41700D01*
X50350Y35200D02*
X51350Y36200D01*
X47850Y35200D02*
X50350D01*
X43550Y39500D02*
X47850Y35200D01*
X32000Y39500D02*
X43550D01*
X31950Y39450D02*
X32000Y39500D01*
X31950Y39450D02*
Y49300D01*
X60250Y17500D02*
G03*
X60250Y17500I-750J0D01*
G01*
X25250D02*
G03*
X25250Y17500I-750J0D01*
G01*
X60250Y52500D02*
G03*
X60250Y52500I-750J0D01*
G01*
X25250D02*
G03*
X25250Y52500I-750J0D01*
G01*
X43180Y53180D02*
G03*
X43180Y53180I-200J0D01*
G01*
X41220D02*
G03*
X41220Y53180I-200J0D01*
G01*
X53269Y45400D02*
G03*
X57250Y51050I-2019J5650D01*
G01*
X49249D02*
G03*
X53275Y45383I6001J0D01*
G01*
X57250Y51050D02*
G03*
X53250Y51050I-2000J0D01*
G01*
D02*
G03*
X49250Y51050I-2000J0D01*
G01*
X22500Y37762D02*
G03*
X22500Y39247I104J743D01*
G01*
X22504Y19157D02*
G03*
X22504Y20643I104J743D01*
G01*
X61504Y39243D02*
G03*
X61504Y37757I-104J-743D01*
G01*
X42750Y38500D02*
G03*
X42750Y38500I-750J0D01*
G01*
Y19900D02*
G03*
X42750Y19900I-750J0D01*
G01*
X57500Y17500D02*
G03*
X61500Y17500I2000J0D01*
G01*
Y52500D02*
G03*
X59500Y54500I-2000J0D01*
G01*
X24500D02*
G03*
X22500Y52500I0J-2000D01*
G01*
Y17500D02*
G03*
X26500Y17500I2000J0D01*
G01*
X61504Y20643D02*
G03*
X61504Y19157I-104J-743D01*
G01*
X50650Y19900D02*
G03*
X50650Y19900I-750J0D01*
G01*
Y38500D02*
G03*
X50650Y38500I-750J0D01*
G01*
X34850D02*
G03*
X34850Y38500I-750J0D01*
G01*
Y19900D02*
G03*
X34850Y19900I-750J0D01*
G01*
X61500Y39247D02*
Y52500D01*
X22500Y17500D02*
Y19142D01*
Y39247D02*
Y52500D01*
X22504Y20643D02*
Y37757D01*
X61504Y20643D02*
Y37757D01*
X61500Y17500D02*
Y19142D01*
X26500Y17500D02*
X57500D01*
X24500Y54500D02*
X59500D01*
D118*
X59574Y18250D02*
X59719Y18221D01*
X59855Y18165D01*
X59978Y18083D01*
X60083Y17978D01*
X60165Y17855D01*
X60221Y17719D01*
X60250Y17574D01*
Y17500D02*
Y17574D01*
Y17426D02*
Y17500D01*
X60221Y17281D02*
X60250Y17426D01*
X60165Y17145D02*
X60221Y17281D01*
X60083Y17022D02*
X60165Y17145D01*
X59978Y16917D02*
X60083Y17022D01*
X59855Y16835D02*
X59978Y16917D01*
X59719Y16779D02*
X59855Y16835D01*
X59574Y16750D02*
X59719Y16779D01*
X59426Y16750D02*
X59574D01*
X59281Y16779D02*
X59426Y16750D01*
X59145Y16835D02*
X59281Y16779D01*
X59022Y16917D02*
X59145Y16835D01*
X58917Y17022D02*
X59022Y16917D01*
X58835Y17145D02*
X58917Y17022D01*
X58779Y17281D02*
X58835Y17145D01*
X58750Y17426D02*
X58779Y17281D01*
X58750Y17426D02*
Y17500D01*
Y17574D01*
X58779Y17719D01*
X58835Y17855D01*
X58917Y17978D01*
X59022Y18083D01*
X59145Y18165D01*
X59281Y18221D01*
X59426Y18250D01*
X59574D01*
X24574D02*
X24719Y18221D01*
X24855Y18165D01*
X24978Y18083D01*
X25083Y17978D01*
X25165Y17855D01*
X25221Y17719D01*
X25250Y17574D01*
Y17500D02*
Y17574D01*
Y17426D02*
Y17500D01*
X25221Y17281D02*
X25250Y17426D01*
X25165Y17145D02*
X25221Y17281D01*
X25083Y17022D02*
X25165Y17145D01*
X24978Y16917D02*
X25083Y17022D01*
X24855Y16835D02*
X24978Y16917D01*
X24719Y16779D02*
X24855Y16835D01*
X24574Y16750D02*
X24719Y16779D01*
X24426Y16750D02*
X24574D01*
X24281Y16779D02*
X24426Y16750D01*
X24145Y16835D02*
X24281Y16779D01*
X24022Y16917D02*
X24145Y16835D01*
X23917Y17022D02*
X24022Y16917D01*
X23835Y17145D02*
X23917Y17022D01*
X23779Y17281D02*
X23835Y17145D01*
X23750Y17426D02*
X23779Y17281D01*
X23750Y17426D02*
Y17500D01*
Y17574D01*
X23779Y17719D01*
X23835Y17855D01*
X23917Y17978D01*
X24022Y18083D01*
X24145Y18165D01*
X24281Y18221D01*
X24426Y18250D01*
X24574D01*
X59574Y53250D02*
X59719Y53221D01*
X59855Y53165D01*
X59978Y53083D01*
X60083Y52978D01*
X60165Y52855D01*
X60221Y52719D01*
X60250Y52574D01*
Y52500D02*
Y52574D01*
Y52426D02*
Y52500D01*
X60221Y52281D02*
X60250Y52426D01*
X60165Y52145D02*
X60221Y52281D01*
X60083Y52022D02*
X60165Y52145D01*
X59978Y51917D02*
X60083Y52022D01*
X59855Y51835D02*
X59978Y51917D01*
X59719Y51779D02*
X59855Y51835D01*
X59574Y51750D02*
X59719Y51779D01*
X59426Y51750D02*
X59574D01*
X59281Y51779D02*
X59426Y51750D01*
X59145Y51835D02*
X59281Y51779D01*
X59022Y51917D02*
X59145Y51835D01*
X58917Y52022D02*
X59022Y51917D01*
X58835Y52145D02*
X58917Y52022D01*
X58779Y52281D02*
X58835Y52145D01*
X58750Y52426D02*
X58779Y52281D01*
X58750Y52426D02*
Y52500D01*
Y52574D01*
X58779Y52719D01*
X58835Y52855D01*
X58917Y52978D01*
X59022Y53083D01*
X59145Y53165D01*
X59281Y53221D01*
X59426Y53250D01*
X59574D01*
X51152Y53102D02*
X51401Y53098D01*
X51648Y53065D01*
X51889Y53002D01*
X52121Y52910D01*
X52340Y52791D01*
X52543Y52646D01*
X52727Y52477D01*
X52889Y52288D01*
X53027Y52080D01*
X53139Y51857D01*
X53223Y51622D01*
X53250Y51501D01*
X53277Y51623D01*
X53362Y51858D01*
X53473Y52081D01*
X53612Y52289D01*
X53774Y52479D01*
X53958Y52647D01*
X54162Y52792D01*
X54381Y52911D01*
X54614Y53003D01*
X54855Y53066D01*
X55103Y53099D01*
X55353Y53101D01*
X55601Y53074D01*
X55844Y53016D01*
X56078Y52930D01*
X56300Y52815D01*
X56507Y52675D01*
X56694Y52510D01*
X56861Y52324D01*
X57004Y52119D01*
X57121Y51898D01*
X57210Y51665D01*
X57270Y51423D01*
X57300Y51175D01*
Y51050D02*
Y51175D01*
Y50819D02*
Y51050D01*
X57265Y50358D02*
X57300Y50819D01*
X57195Y49902D02*
X57265Y50358D01*
X57090Y49452D02*
X57195Y49902D01*
X56951Y49011D02*
X57090Y49452D01*
X56779Y48582D02*
X56951Y49011D01*
X56575Y48168D02*
X56779Y48582D01*
X56339Y47770D02*
X56575Y48168D01*
X56074Y47392D02*
X56339Y47770D01*
X55781Y47034D02*
X56074Y47392D01*
X55462Y46701D02*
X55781Y47034D01*
X55118Y46392D02*
X55462Y46701D01*
X54752Y46111D02*
X55118Y46392D01*
X54365Y45858D02*
X54752Y46111D01*
X53960Y45636D02*
X54365Y45858D01*
X53539Y45445D02*
X53960Y45636D01*
X53322Y45366D02*
X53539Y45445D01*
X53318Y45357D02*
X53322Y45366D01*
X53305Y45342D02*
X53318Y45357D01*
X53287Y45334D02*
X53305Y45342D01*
X53268Y45333D02*
X53287Y45334D01*
X53259Y45336D02*
X53268Y45333D01*
X53259Y45336D02*
X53259D01*
X53038Y45413D02*
X53259Y45336D01*
X52610Y45600D02*
X53038Y45413D01*
X52197Y45820D02*
X52610Y45600D01*
X51803Y46071D02*
X52197Y45820D01*
X51429Y46352D02*
X51803Y46071D01*
X51078Y46661D02*
X51429Y46352D01*
X50752Y46996D02*
X51078Y46661D01*
X50453Y47355D02*
X50752Y46996D01*
X50182Y47736D02*
X50453Y47355D01*
X49941Y48137D02*
X50182Y47736D01*
X49732Y48555D02*
X49941Y48137D01*
X49556Y48988D02*
X49732Y48555D01*
X49414Y49433D02*
X49556Y48988D01*
X49307Y49888D02*
X49414Y49433D01*
X49235Y50350D02*
X49307Y49888D01*
X49199Y50816D02*
X49235Y50350D01*
X49199Y50816D02*
Y51050D01*
Y51051D01*
X49199Y51053D01*
X49199Y51056D01*
X49200Y51058D01*
X49200Y51059D01*
X49200Y51184D01*
X49232Y51431D01*
X49293Y51673D01*
X49383Y51906D01*
X49500Y52126D01*
X49643Y52330D01*
X49810Y52515D01*
X49998Y52679D01*
X50205Y52818D01*
X50427Y52932D01*
X50661Y53018D01*
X50904Y53075D01*
X51152Y53102D01*
X24574Y53250D02*
X24719Y53221D01*
X24855Y53165D01*
X24978Y53083D01*
X25083Y52978D01*
X25165Y52855D01*
X25221Y52719D01*
X25250Y52574D01*
Y52500D02*
Y52574D01*
Y52426D02*
Y52500D01*
X25221Y52281D02*
X25250Y52426D01*
X25165Y52145D02*
X25221Y52281D01*
X25083Y52022D02*
X25165Y52145D01*
X24978Y51917D02*
X25083Y52022D01*
X24855Y51835D02*
X24978Y51917D01*
X24719Y51779D02*
X24855Y51835D01*
X24574Y51750D02*
X24719Y51779D01*
X24426Y51750D02*
X24574D01*
X24281Y51779D02*
X24426Y51750D01*
X24145Y51835D02*
X24281Y51779D01*
X24022Y51917D02*
X24145Y51835D01*
X23917Y52022D02*
X24022Y51917D01*
X23835Y52145D02*
X23917Y52022D01*
X23779Y52281D02*
X23835Y52145D01*
X23750Y52426D02*
X23779Y52281D01*
X23750Y52426D02*
Y52500D01*
Y52574D01*
X23779Y52719D01*
X23835Y52855D01*
X23917Y52978D01*
X24022Y53083D01*
X24145Y53165D01*
X24281Y53221D01*
X24426Y53250D01*
X24574D01*
X34174Y20650D02*
X34319Y20621D01*
X34455Y20565D01*
X34578Y20483D01*
X34683Y20378D01*
X34765Y20255D01*
X34821Y20119D01*
X34850Y19974D01*
Y19900D02*
Y19974D01*
Y19826D02*
Y19900D01*
X34821Y19681D02*
X34850Y19826D01*
X34765Y19545D02*
X34821Y19681D01*
X34683Y19422D02*
X34765Y19545D01*
X34578Y19317D02*
X34683Y19422D01*
X34455Y19235D02*
X34578Y19317D01*
X34319Y19179D02*
X34455Y19235D01*
X34174Y19150D02*
X34319Y19179D01*
X34026Y19150D02*
X34174D01*
X33881Y19179D02*
X34026Y19150D01*
X33745Y19235D02*
X33881Y19179D01*
X33622Y19317D02*
X33745Y19235D01*
X33517Y19422D02*
X33622Y19317D01*
X33435Y19545D02*
X33517Y19422D01*
X33379Y19681D02*
X33435Y19545D01*
X33350Y19826D02*
X33379Y19681D01*
X33350Y19826D02*
Y19900D01*
Y19974D01*
X33379Y20119D01*
X33435Y20255D01*
X33517Y20378D01*
X33622Y20483D01*
X33745Y20565D01*
X33881Y20621D01*
X34026Y20650D01*
X34174D01*
X42074D02*
X42219Y20621D01*
X42355Y20565D01*
X42478Y20483D01*
X42583Y20378D01*
X42665Y20255D01*
X42721Y20119D01*
X42750Y19974D01*
Y19900D02*
Y19974D01*
Y19826D02*
Y19900D01*
X42721Y19681D02*
X42750Y19826D01*
X42665Y19545D02*
X42721Y19681D01*
X42583Y19422D02*
X42665Y19545D01*
X42478Y19317D02*
X42583Y19422D01*
X42355Y19235D02*
X42478Y19317D01*
X42219Y19179D02*
X42355Y19235D01*
X42074Y19150D02*
X42219Y19179D01*
X41926Y19150D02*
X42074D01*
X41781Y19179D02*
X41926Y19150D01*
X41645Y19235D02*
X41781Y19179D01*
X41522Y19317D02*
X41645Y19235D01*
X41417Y19422D02*
X41522Y19317D01*
X41335Y19545D02*
X41417Y19422D01*
X41279Y19681D02*
X41335Y19545D01*
X41250Y19826D02*
X41279Y19681D01*
X41250Y19826D02*
Y19900D01*
Y19974D01*
X41279Y20119D01*
X41335Y20255D01*
X41417Y20378D01*
X41522Y20483D01*
X41645Y20565D01*
X41781Y20621D01*
X41926Y20650D01*
X42074D01*
X49974D02*
X50119Y20621D01*
X50255Y20565D01*
X50378Y20483D01*
X50483Y20378D01*
X50565Y20255D01*
X50621Y20119D01*
X50650Y19974D01*
Y19900D02*
Y19974D01*
Y19826D02*
Y19900D01*
X50621Y19681D02*
X50650Y19826D01*
X50565Y19545D02*
X50621Y19681D01*
X50483Y19422D02*
X50565Y19545D01*
X50378Y19317D02*
X50483Y19422D01*
X50255Y19235D02*
X50378Y19317D01*
X50119Y19179D02*
X50255Y19235D01*
X49974Y19150D02*
X50119Y19179D01*
X49826Y19150D02*
X49974D01*
X49681Y19179D02*
X49826Y19150D01*
X49545Y19235D02*
X49681Y19179D01*
X49422Y19317D02*
X49545Y19235D01*
X49317Y19422D02*
X49422Y19317D01*
X49235Y19545D02*
X49317Y19422D01*
X49179Y19681D02*
X49235Y19545D01*
X49150Y19826D02*
X49179Y19681D01*
X49150Y19826D02*
Y19900D01*
Y19974D01*
X49179Y20119D01*
X49235Y20255D01*
X49317Y20378D01*
X49422Y20483D01*
X49545Y20565D01*
X49681Y20621D01*
X49826Y20650D01*
X49974D01*
X34174Y39250D02*
X34319Y39221D01*
X34455Y39165D01*
X34578Y39083D01*
X34683Y38978D01*
X34765Y38855D01*
X34821Y38719D01*
X34850Y38574D01*
Y38500D02*
Y38574D01*
Y38426D02*
Y38500D01*
X34821Y38281D02*
X34850Y38426D01*
X34765Y38145D02*
X34821Y38281D01*
X34683Y38022D02*
X34765Y38145D01*
X34578Y37917D02*
X34683Y38022D01*
X34455Y37835D02*
X34578Y37917D01*
X34319Y37779D02*
X34455Y37835D01*
X34174Y37750D02*
X34319Y37779D01*
X34026Y37750D02*
X34174D01*
X33881Y37779D02*
X34026Y37750D01*
X33745Y37835D02*
X33881Y37779D01*
X33622Y37917D02*
X33745Y37835D01*
X33517Y38022D02*
X33622Y37917D01*
X33435Y38145D02*
X33517Y38022D01*
X33379Y38281D02*
X33435Y38145D01*
X33350Y38426D02*
X33379Y38281D01*
X33350Y38426D02*
Y38500D01*
Y38574D01*
X33379Y38719D01*
X33435Y38855D01*
X33517Y38978D01*
X33622Y39083D01*
X33745Y39165D01*
X33881Y39221D01*
X34026Y39250D01*
X34174D01*
X49974D02*
X50119Y39221D01*
X50255Y39165D01*
X50378Y39083D01*
X50483Y38978D01*
X50565Y38855D01*
X50621Y38719D01*
X50650Y38574D01*
Y38500D02*
Y38574D01*
Y38426D02*
Y38500D01*
X50621Y38281D02*
X50650Y38426D01*
X50565Y38145D02*
X50621Y38281D01*
X50483Y38022D02*
X50565Y38145D01*
X50378Y37917D02*
X50483Y38022D01*
X50255Y37835D02*
X50378Y37917D01*
X50119Y37779D02*
X50255Y37835D01*
X49974Y37750D02*
X50119Y37779D01*
X49826Y37750D02*
X49974D01*
X49681Y37779D02*
X49826Y37750D01*
X49545Y37835D02*
X49681Y37779D01*
X49422Y37917D02*
X49545Y37835D01*
X49317Y38022D02*
X49422Y37917D01*
X49235Y38145D02*
X49317Y38022D01*
X49179Y38281D02*
X49235Y38145D01*
X49150Y38426D02*
X49179Y38281D01*
X49150Y38426D02*
Y38500D01*
Y38574D01*
X49179Y38719D01*
X49235Y38855D01*
X49317Y38978D01*
X49422Y39083D01*
X49545Y39165D01*
X49681Y39221D01*
X49826Y39250D01*
X49974D01*
X42074Y39250D02*
X42219Y39221D01*
X42355Y39165D01*
X42478Y39083D01*
X42583Y38978D01*
X42665Y38855D01*
X42721Y38719D01*
X42750Y38574D01*
Y38500D02*
Y38574D01*
Y38426D02*
Y38500D01*
X42721Y38281D02*
X42750Y38426D01*
X42665Y38145D02*
X42721Y38281D01*
X42583Y38022D02*
X42665Y38145D01*
X42478Y37917D02*
X42583Y38022D01*
X42355Y37835D02*
X42478Y37917D01*
X42219Y37779D02*
X42355Y37835D01*
X42074Y37750D02*
X42219Y37779D01*
X41926Y37750D02*
X42074D01*
X41781Y37779D02*
X41926Y37750D01*
X41645Y37835D02*
X41781Y37779D01*
X41522Y37917D02*
X41645Y37835D01*
X41417Y38022D02*
X41522Y37917D01*
X41335Y38145D02*
X41417Y38022D01*
X41279Y38281D02*
X41335Y38145D01*
X41250Y38426D02*
X41279Y38281D01*
X41250Y38426D02*
Y38500D01*
Y38574D01*
X41279Y38719D01*
X41335Y38855D01*
X41417Y38978D01*
X41522Y39083D01*
X41645Y39165D01*
X41781Y39221D01*
X41926Y39250D01*
X42074D01*
X41220Y53180D02*
Y53220D01*
Y53140D02*
Y53180D01*
X40820Y53140D02*
Y53180D01*
Y53220D01*
X43020Y53380D02*
X43093Y53350D01*
X43150Y53293D01*
X43180Y53220D01*
Y53180D02*
Y53220D01*
Y53140D02*
Y53180D01*
X43150Y53067D02*
X43180Y53140D01*
X43093Y53010D02*
X43150Y53067D01*
X43020Y52980D02*
X43093Y53010D01*
X42940Y52980D02*
X43020D01*
X42867Y53010D02*
X42940Y52980D01*
X42810Y53067D02*
X42867Y53010D01*
X42780Y53140D02*
X42810Y53067D01*
X42780Y53140D02*
Y53180D01*
Y53220D01*
X42810Y53293D01*
X42867Y53350D01*
X42940Y53380D01*
X43020D01*
X59631Y54500D02*
X59891Y54466D01*
X24369Y54500D02*
X59631D01*
X24109Y54466D02*
X24369Y54500D01*
X23856Y54398D02*
X24109Y54466D01*
X23614Y54298D02*
X23856Y54398D01*
X23386Y54167D02*
X23614Y54298D01*
X23178Y54007D02*
X23386Y54167D01*
X22993Y53822D02*
X23178Y54007D01*
X22833Y53614D02*
X22993Y53822D01*
X22702Y53386D02*
X22833Y53614D01*
X22602Y53144D02*
X22702Y53386D01*
X22534Y52891D02*
X22602Y53144D01*
X22500Y52631D02*
X22534Y52891D01*
X22500Y52500D02*
Y52631D01*
Y39247D02*
Y52500D01*
Y39247D02*
X22580Y39254D01*
X22739Y39242D01*
X22893Y39197D01*
X23033Y39120D01*
X23154Y39015D01*
X23250Y38886D01*
X23316Y38741D01*
X23350Y38584D01*
Y38424D02*
Y38584D01*
X23316Y38268D02*
X23350Y38424D01*
X23250Y38122D02*
X23316Y38268D01*
X23154Y37994D02*
X23250Y38122D01*
X23033Y37889D02*
X23154Y37994D01*
X22893Y37812D02*
X23033Y37889D01*
X22739Y37767D02*
X22893Y37812D01*
X22580Y37755D02*
X22739Y37767D01*
X22500Y37762D02*
X22580Y37755D01*
X22500Y37762D02*
X22504Y20643D01*
X22584Y20650D01*
X22744Y20638D01*
X22897Y20592D01*
X23038Y20515D01*
X23158Y20410D01*
X23254Y20282D01*
X23321Y20136D01*
X23354Y19980D01*
Y19820D02*
Y19980D01*
X23321Y19664D02*
X23354Y19820D01*
X23254Y19518D02*
X23321Y19664D01*
X23158Y19390D02*
X23254Y19518D01*
X23038Y19285D02*
X23158Y19390D01*
X22897Y19208D02*
X23038Y19285D01*
X22744Y19162D02*
X22897Y19208D01*
X22584Y19150D02*
X22744Y19162D01*
X22504Y19157D02*
X22584Y19150D01*
X22500Y19142D02*
X22504Y19157D01*
X22500Y17500D02*
Y19142D01*
Y17369D02*
Y17500D01*
Y17369D02*
X22534Y17109D01*
X22602Y16856D01*
X22702Y16614D01*
X22833Y16386D01*
X22993Y16178D01*
X23178Y15993D01*
X23386Y15833D01*
X23614Y15702D01*
X23856Y15602D01*
X24109Y15534D01*
X24369Y15500D01*
X24631D01*
X24891Y15534D01*
X25144Y15602D01*
X25386Y15702D01*
X25614Y15833D01*
X25822Y15993D01*
X26007Y16178D01*
X26167Y16386D01*
X26298Y16614D01*
X26398Y16856D01*
X26466Y17109D01*
X26500Y17369D01*
Y17500D01*
X57500D01*
Y17369D02*
Y17500D01*
Y17369D02*
X57534Y17109D01*
X57602Y16856D01*
X57702Y16614D01*
X57833Y16386D01*
X57993Y16178D01*
X58178Y15993D01*
X58386Y15833D01*
X58614Y15702D01*
X58856Y15602D01*
X59109Y15534D01*
X59369Y15500D01*
X59631D01*
X59891Y15534D01*
X60144Y15602D01*
X60386Y15702D01*
X60614Y15833D01*
X60822Y15993D01*
X61007Y16178D01*
X61167Y16386D01*
X61298Y16614D01*
X61398Y16856D01*
X61466Y17109D01*
X61500Y17369D01*
Y17500D01*
Y19142D01*
X61504Y19157D01*
X61425Y19150D02*
X61504Y19157D01*
X61265Y19162D02*
X61425Y19150D01*
X61111Y19208D02*
X61265Y19162D01*
X60971Y19285D02*
X61111Y19208D01*
X60850Y19390D02*
X60971Y19285D01*
X60755Y19518D02*
X60850Y19390D01*
X60688Y19664D02*
X60755Y19518D01*
X60654Y19820D02*
X60688Y19664D01*
X60654Y19820D02*
Y19980D01*
X60688Y20136D01*
X60755Y20282D01*
X60850Y20410D01*
X60971Y20515D01*
X61111Y20592D01*
X61265Y20638D01*
X61425Y20650D01*
X61504Y20643D01*
X61504Y37757D01*
X61425Y37750D02*
X61504Y37757D01*
X61265Y37762D02*
X61425Y37750D01*
X61111Y37808D02*
X61265Y37762D01*
X60971Y37885D02*
X61111Y37808D01*
X60850Y37990D02*
X60971Y37885D01*
X60755Y38118D02*
X60850Y37990D01*
X60688Y38264D02*
X60755Y38118D01*
X60654Y38420D02*
X60688Y38264D01*
X60654Y38420D02*
Y38580D01*
X60688Y38736D01*
X60755Y38882D01*
X60850Y39010D01*
X60971Y39115D01*
X61111Y39192D01*
X61265Y39238D01*
X61425Y39250D01*
X61504Y39243D01*
X61500Y52500D02*
X61504Y39243D01*
X61500Y52500D02*
Y52631D01*
X61466Y52891D02*
X61500Y52631D01*
X61398Y53144D02*
X61466Y52891D01*
X61298Y53386D02*
X61398Y53144D01*
X61167Y53614D02*
X61298Y53386D01*
X61007Y53822D02*
X61167Y53614D01*
X60822Y54007D02*
X61007Y53822D01*
X60614Y54167D02*
X60822Y54007D01*
X60386Y54298D02*
X60614Y54167D01*
X60144Y54398D02*
X60386Y54298D01*
X59891Y54466D02*
X60144Y54398D01*
X40980Y53380D02*
X41060D01*
X40907Y53350D02*
X40980Y53380D01*
X40850Y53293D02*
X40907Y53350D01*
X40820Y53220D02*
X40850Y53293D01*
X40820Y53140D02*
X40850Y53067D01*
X40907Y53010D01*
X40980Y52980D01*
X41060D01*
X41133Y53010D01*
X41190Y53067D01*
X41220Y53140D01*
X41190Y53293D02*
X41220Y53220D01*
X41133Y53350D02*
X41190Y53293D01*
X41060Y53380D02*
X41133Y53350D01*
D119*
X37800Y32650D02*
D03*
Y27650D02*
D03*
Y29650D02*
D03*
Y26650D02*
D03*
Y28650D02*
D03*
Y30650D02*
D03*
X35400Y32650D02*
D03*
Y27650D02*
D03*
Y29650D02*
D03*
Y26650D02*
D03*
Y28650D02*
D03*
Y30650D02*
D03*
X44800Y44050D02*
D03*
Y45050D02*
D03*
X42450Y44050D02*
D03*
Y45050D02*
D03*
X40100Y44050D02*
D03*
Y45050D02*
D03*
X37750Y44050D02*
D03*
Y45050D02*
D03*
X36700Y46850D02*
D03*
X37700D02*
D03*
X35700D02*
D03*
D120*
X58650Y28457D02*
D03*
Y33181D02*
D03*
D121*
Y32000D02*
D03*
Y30819D02*
D03*
Y29638D02*
D03*
D122*
X60589Y26951D02*
D03*
Y23549D02*
D03*
D123*
X58955Y26951D02*
D03*
Y23549D02*
D03*
D124*
X59148Y26392D02*
D03*
X59152Y24108D02*
D03*
D125*
X52700Y23044D02*
D03*
Y22256D02*
D03*
D126*
X29550Y46900D02*
D03*
X28550D02*
D03*
X30550D02*
D03*
X52998Y33002D02*
D03*
X54426Y32924D02*
D03*
X50250Y28200D02*
D03*
X49575D02*
D03*
X48900D02*
D03*
X50250Y29000D02*
D03*
X49575D02*
D03*
X48900D02*
D03*
D127*
X32450Y47000D02*
D03*
Y46500D02*
D03*
Y47500D02*
D03*
Y46000D02*
D03*
D128*
X27400Y34450D02*
D03*
X39700Y47950D02*
D03*
X40350Y47750D02*
D03*
X39000Y47850D02*
D03*
X27500Y34850D02*
D03*
X31900Y35400D02*
D03*
X33000Y33400D02*
D03*
X27475Y36975D02*
D03*
X27250Y36200D02*
D03*
X26416Y35434D02*
D03*
X25300Y39450D02*
D03*
X26600Y41200D02*
D03*
X25438Y42400D02*
D03*
X26350Y40550D02*
D03*
X23800Y43900D02*
D03*
X24627Y26027D02*
D03*
X25200Y25700D02*
D03*
X23400Y32000D02*
D03*
X24916Y32834D02*
D03*
X24416D02*
D03*
X28550Y44450D02*
D03*
X46200Y26850D02*
D03*
X57200Y25350D02*
D03*
X59055Y25152D02*
D03*
X46750Y27050D02*
D03*
X43530Y25129D02*
D03*
X45029Y25379D02*
D03*
X43450Y24450D02*
D03*
X46950Y24300D02*
D03*
X47400Y21800D02*
D03*
X44389Y22561D02*
D03*
M02*
