G04*
G04 #@! TF.GenerationSoftware,Altium Limited,Altium Designer,20.2.6 (244)*
G04*
G04 Layer_Color=8421504*
%FSLAX24Y24*%
%MOIN*%
G70*
G04*
G04 #@! TF.SameCoordinates,AAC5203C-1E5B-4ACD-AD40-D79658958D62*
G04*
G04*
G04 #@! TF.FilePolarity,Positive*
G04*
G01*
G75*
%ADD10C,0.0100*%
%ADD18R,0.0354X0.1000*%
%ADD19R,0.0524X0.0524*%
%ADD20R,0.1000X0.0354*%
%ADD21C,0.0600*%
%ADD22R,0.0935X0.0800*%
%ADD23R,0.0800X0.0935*%
%ADD24R,0.1496X0.1300*%
%ADD25R,0.1000X0.0500*%
%ADD26R,0.0340X0.0318*%
%ADD27R,0.0600X0.0600*%
%ADD28R,0.0750X0.0610*%
%ADD29R,0.1300X0.1496*%
%ADD30R,0.0860X0.0669*%
%ADD31R,0.0394X0.0217*%
%ADD32R,0.1000X0.0236*%
%ADD33R,0.1000X0.0118*%
%ADD34R,0.0315X0.0315*%
%ADD35O,0.0138X0.0500*%
%ADD36O,0.0500X0.0138*%
%ADD37R,0.0866X0.0866*%
%ADD38R,0.0318X0.0340*%
%ADD39R,0.0315X0.0354*%
%ADD40R,0.0669X0.0860*%
%ADD41R,0.0250X0.0600*%
%ADD42R,0.0354X0.0315*%
%ADD43O,0.0400X0.1200*%
%ADD44R,0.0972X0.1417*%
%ADD45R,0.0972X0.0386*%
%ADD46R,0.0700X0.0600*%
%ADD47R,0.1000X0.0160*%
%ADD48R,0.0315X0.0315*%
%ADD49O,0.0500X0.0110*%
%ADD50O,0.0110X0.0500*%
%ADD51R,0.1240X0.1240*%
%ADD52R,0.0670X0.0475*%
G36*
X43420Y50680D02*
Y50482D01*
X43304Y50374D01*
X43196D01*
X43080Y50482D01*
Y50680D01*
X43105Y50705D01*
X43395D01*
X43420Y50680D01*
D02*
G37*
G36*
X42220D02*
Y50482D01*
X42104Y50374D01*
X41996D01*
X41880Y50482D01*
Y50680D01*
X41905Y50705D01*
X42195D01*
X42220Y50680D01*
D02*
G37*
G36*
X41020D02*
Y50482D01*
X40904Y50374D01*
X40796D01*
X40680Y50482D01*
Y50680D01*
X40705Y50705D01*
X40995D01*
X41020Y50680D01*
D02*
G37*
G36*
X43420Y50018D02*
Y49820D01*
X43395Y49795D01*
X43105D01*
X43080Y49820D01*
Y50018D01*
X43196Y50126D01*
X43304D01*
X43420Y50018D01*
D02*
G37*
G36*
X42220D02*
Y49820D01*
X42195Y49795D01*
X41905D01*
X41880Y49820D01*
Y50018D01*
X41996Y50126D01*
X42104D01*
X42220Y50018D01*
D02*
G37*
G36*
X41020D02*
Y49820D01*
X40995Y49795D01*
X40705D01*
X40680Y49820D01*
Y50018D01*
X40796Y50126D01*
X40904D01*
X41020Y50018D01*
D02*
G37*
G36*
X28652Y46045D02*
Y45755D01*
X28627Y45730D01*
X28429D01*
X28321Y45846D01*
Y45954D01*
X28429Y46070D01*
X28627D01*
X28652Y46045D01*
D02*
G37*
G36*
X28073Y45954D02*
Y45846D01*
X27965Y45730D01*
X27766D01*
X27741Y45755D01*
Y46045D01*
X27766Y46070D01*
X27965D01*
X28073Y45954D01*
D02*
G37*
G36*
X31574Y45345D02*
Y45055D01*
X31549Y45030D01*
X31433D01*
X31274Y45146D01*
Y45254D01*
X31433Y45370D01*
X31549D01*
X31574Y45345D01*
D02*
G37*
G36*
X31026Y45254D02*
Y45146D01*
X30867Y45030D01*
X30751D01*
X30726Y45055D01*
Y45345D01*
X30751Y45370D01*
X30867D01*
X31026Y45254D01*
D02*
G37*
G36*
X29855Y44595D02*
Y44305D01*
X29830Y44280D01*
X29632D01*
X29524Y44396D01*
Y44504D01*
X29632Y44620D01*
X29830D01*
X29855Y44595D01*
D02*
G37*
G36*
X29276Y44504D02*
Y44396D01*
X29168Y44280D01*
X28970D01*
X28945Y44305D01*
Y44595D01*
X28970Y44620D01*
X29168D01*
X29276Y44504D01*
D02*
G37*
G36*
X30070Y41680D02*
Y41482D01*
X29954Y41374D01*
X29846D01*
X29730Y41482D01*
Y41680D01*
X29755Y41705D01*
X30045D01*
X30070Y41680D01*
D02*
G37*
G36*
X29270D02*
Y41482D01*
X29154Y41374D01*
X29046D01*
X28930Y41482D01*
Y41680D01*
X28955Y41705D01*
X29245D01*
X29270Y41680D01*
D02*
G37*
G36*
X30070Y41018D02*
Y40820D01*
X30045Y40795D01*
X29755D01*
X29730Y40820D01*
Y41018D01*
X29846Y41126D01*
X29954D01*
X30070Y41018D01*
D02*
G37*
G36*
X29270D02*
Y40820D01*
X29245Y40795D01*
X28955D01*
X28930Y40820D01*
Y41018D01*
X29046Y41126D01*
X29154D01*
X29270Y41018D01*
D02*
G37*
G36*
X29425Y37708D02*
Y37510D01*
X29310Y37402D01*
X29201D01*
X29085Y37510D01*
Y37708D01*
X29110Y37733D01*
X29400D01*
X29425Y37708D01*
D02*
G37*
G36*
X28720D02*
Y37510D01*
X28604Y37402D01*
X28496D01*
X28380Y37510D01*
Y37708D01*
X28405Y37733D01*
X28695D01*
X28720Y37708D01*
D02*
G37*
G36*
X30170Y37649D02*
Y37533D01*
X30054Y37374D01*
X29946D01*
X29830Y37533D01*
Y37649D01*
X29855Y37674D01*
X30145D01*
X30170Y37649D01*
D02*
G37*
G36*
Y36967D02*
Y36851D01*
X30145Y36826D01*
X29855D01*
X29830Y36851D01*
Y36967D01*
X29946Y37126D01*
X30054D01*
X30170Y36967D01*
D02*
G37*
G36*
X29425Y37046D02*
Y36848D01*
X29400Y36823D01*
X29110D01*
X29085Y36848D01*
Y37046D01*
X29201Y37154D01*
X29310D01*
X29425Y37046D01*
D02*
G37*
G36*
X28720D02*
Y36848D01*
X28695Y36823D01*
X28405D01*
X28380Y36848D01*
Y37046D01*
X28496Y37154D01*
X28604D01*
X28720Y37046D01*
D02*
G37*
G36*
X29570Y35930D02*
Y35732D01*
X29454Y35624D01*
X29346D01*
X29230Y35732D01*
Y35930D01*
X29255Y35955D01*
X29545D01*
X29570Y35930D01*
D02*
G37*
G36*
Y35268D02*
Y35070D01*
X29545Y35045D01*
X29255D01*
X29230Y35070D01*
Y35268D01*
X29346Y35376D01*
X29454D01*
X29570Y35268D01*
D02*
G37*
G36*
X46724Y34145D02*
Y33855D01*
X46699Y33830D01*
X46583D01*
X46424Y33946D01*
Y34054D01*
X46583Y34170D01*
X46699D01*
X46724Y34145D01*
D02*
G37*
G36*
X46176Y34054D02*
Y33946D01*
X46017Y33830D01*
X45901D01*
X45876Y33855D01*
Y34145D01*
X45901Y34170D01*
X46017D01*
X46176Y34054D01*
D02*
G37*
G36*
X53920Y33930D02*
Y33732D01*
X53804Y33624D01*
X53696D01*
X53580Y33732D01*
Y33930D01*
X53605Y33955D01*
X53895D01*
X53920Y33930D01*
D02*
G37*
G36*
Y33268D02*
Y33070D01*
X53895Y33045D01*
X53605D01*
X53580Y33070D01*
Y33268D01*
X53696Y33376D01*
X53804D01*
X53920Y33268D01*
D02*
G37*
G36*
X46370Y32874D02*
Y32757D01*
X46254Y32598D01*
X46146D01*
X46030Y32757D01*
Y32874D01*
X46055Y32899D01*
X46345D01*
X46370Y32874D01*
D02*
G37*
G36*
X32305Y32645D02*
Y32355D01*
X32280Y32330D01*
X32082D01*
X31974Y32446D01*
Y32554D01*
X32082Y32670D01*
X32280D01*
X32305Y32645D01*
D02*
G37*
G36*
X31726Y32554D02*
Y32446D01*
X31618Y32330D01*
X31420D01*
X31395Y32355D01*
Y32645D01*
X31420Y32670D01*
X31618D01*
X31726Y32554D01*
D02*
G37*
G36*
X53920Y32580D02*
Y32382D01*
X53804Y32274D01*
X53696D01*
X53580Y32382D01*
Y32580D01*
X53605Y32605D01*
X53895D01*
X53920Y32580D01*
D02*
G37*
G36*
X46370Y32192D02*
Y32075D01*
X46345Y32050D01*
X46055D01*
X46030Y32075D01*
Y32192D01*
X46146Y32350D01*
X46254D01*
X46370Y32192D01*
D02*
G37*
G36*
X53920Y31918D02*
Y31720D01*
X53895Y31695D01*
X53605D01*
X53580Y31720D01*
Y31918D01*
X53696Y32026D01*
X53804D01*
X53920Y31918D01*
D02*
G37*
G36*
X39120Y31699D02*
Y31583D01*
X39004Y31424D01*
X38896D01*
X38780Y31583D01*
Y31699D01*
X38805Y31724D01*
X39095D01*
X39120Y31699D01*
D02*
G37*
G36*
X45520Y31327D02*
Y31129D01*
X45404Y31021D01*
X45296D01*
X45180Y31129D01*
Y31327D01*
X45205Y31352D01*
X45495D01*
X45520Y31327D01*
D02*
G37*
G36*
X39120Y31017D02*
Y30901D01*
X39095Y30876D01*
X38805D01*
X38780Y30901D01*
Y31017D01*
X38896Y31176D01*
X39004D01*
X39120Y31017D01*
D02*
G37*
G36*
X45520Y30665D02*
Y30466D01*
X45495Y30441D01*
X45205D01*
X45180Y30466D01*
Y30665D01*
X45296Y30773D01*
X45404D01*
X45520Y30665D01*
D02*
G37*
G36*
Y29799D02*
Y29683D01*
X45404Y29524D01*
X45296D01*
X45180Y29683D01*
Y29799D01*
X45205Y29824D01*
X45495D01*
X45520Y29799D01*
D02*
G37*
G36*
Y29117D02*
Y29001D01*
X45495Y28976D01*
X45205D01*
X45180Y29001D01*
Y29117D01*
X45296Y29276D01*
X45404D01*
X45520Y29117D01*
D02*
G37*
G36*
X46320Y28949D02*
Y28833D01*
X46204Y28674D01*
X46096D01*
X45980Y28833D01*
Y28949D01*
X46005Y28974D01*
X46295D01*
X46320Y28949D01*
D02*
G37*
G36*
Y28267D02*
Y28151D01*
X46295Y28126D01*
X46005D01*
X45980Y28151D01*
Y28267D01*
X46096Y28426D01*
X46204D01*
X46320Y28267D01*
D02*
G37*
G36*
X45046Y28360D02*
Y28337D01*
Y28073D01*
Y28050D01*
X45014Y28018D01*
X44968D01*
X44936Y28050D01*
Y28073D01*
Y28337D01*
Y28360D01*
X44968Y28392D01*
X45014D01*
X45046Y28360D01*
D02*
G37*
G36*
X44849D02*
Y28337D01*
Y28073D01*
Y28050D01*
X44817Y28018D01*
X44771D01*
X44739Y28050D01*
Y28073D01*
Y28337D01*
Y28360D01*
X44771Y28392D01*
X44817D01*
X44849Y28360D01*
D02*
G37*
G36*
X44652D02*
Y28337D01*
Y28073D01*
Y28050D01*
X44620Y28018D01*
X44574D01*
X44542Y28050D01*
Y28073D01*
Y28337D01*
Y28360D01*
X44574Y28392D01*
X44620D01*
X44652Y28360D01*
D02*
G37*
G36*
X44455D02*
Y28337D01*
Y28073D01*
Y28050D01*
X44423Y28018D01*
X44377D01*
X44345Y28050D01*
Y28073D01*
Y28337D01*
Y28360D01*
X44377Y28392D01*
X44423D01*
X44455Y28360D01*
D02*
G37*
G36*
X44258D02*
Y28337D01*
Y28073D01*
Y28050D01*
X44226Y28018D01*
X44180D01*
X44148Y28050D01*
Y28073D01*
Y28337D01*
Y28360D01*
X44180Y28392D01*
X44226D01*
X44258Y28360D01*
D02*
G37*
G36*
X44061D02*
Y28337D01*
Y28073D01*
Y28050D01*
X44029Y28018D01*
X43983D01*
X43951Y28050D01*
Y28073D01*
Y28337D01*
Y28360D01*
X43983Y28392D01*
X44029D01*
X44061Y28360D01*
D02*
G37*
G36*
X43864D02*
Y28337D01*
Y28073D01*
Y28050D01*
X43832Y28018D01*
X43786D01*
X43754Y28050D01*
Y28073D01*
Y28337D01*
Y28360D01*
X43786Y28392D01*
X43832D01*
X43864Y28360D01*
D02*
G37*
G36*
X45509Y27896D02*
X45541Y27864D01*
Y27818D01*
X45509Y27786D01*
X45487Y27786D01*
Y27786D01*
X45223Y27786D01*
X45200Y27786D01*
X45168Y27818D01*
Y27864D01*
X45200Y27896D01*
X45223Y27896D01*
X45487D01*
X45509Y27896D01*
D02*
G37*
G36*
X43600D02*
X43631Y27864D01*
Y27818D01*
X43600Y27786D01*
X43577Y27786D01*
Y27786D01*
X43313Y27786D01*
X43291Y27786D01*
X43259Y27818D01*
Y27864D01*
X43291Y27896D01*
X43313Y27896D01*
X43577D01*
X43600Y27896D01*
D02*
G37*
G36*
X45509Y27699D02*
X45541Y27667D01*
Y27621D01*
X45509Y27589D01*
X45487Y27589D01*
Y27589D01*
X45223Y27589D01*
X45200Y27589D01*
X45168Y27621D01*
Y27667D01*
X45200Y27699D01*
X45223Y27699D01*
X45487D01*
X45509Y27699D01*
D02*
G37*
G36*
X43600D02*
X43631Y27667D01*
Y27621D01*
X43600Y27589D01*
X43577Y27589D01*
Y27589D01*
X43313Y27589D01*
X43291Y27589D01*
X43259Y27621D01*
Y27667D01*
X43291Y27699D01*
X43313Y27699D01*
X43577D01*
X43600Y27699D01*
D02*
G37*
G36*
X45509Y27502D02*
X45541Y27470D01*
Y27424D01*
X45509Y27392D01*
X45487Y27392D01*
Y27392D01*
X45223Y27392D01*
X45200Y27392D01*
X45168Y27424D01*
Y27470D01*
X45200Y27502D01*
X45223Y27502D01*
X45487D01*
X45509Y27502D01*
D02*
G37*
G36*
X43600D02*
X43631Y27470D01*
Y27424D01*
X43600Y27392D01*
X43577Y27392D01*
Y27392D01*
X43313Y27392D01*
X43291Y27392D01*
X43259Y27424D01*
Y27470D01*
X43291Y27502D01*
X43313Y27502D01*
X43577D01*
X43600Y27502D01*
D02*
G37*
G36*
X45509Y27304D02*
X45540Y27272D01*
Y27228D01*
X45509Y27196D01*
X45487Y27195D01*
X45487Y27195D01*
X45223Y27195D01*
X45201Y27196D01*
X45170Y27228D01*
Y27272D01*
X45201Y27304D01*
X45223Y27305D01*
X45487D01*
X45509Y27304D01*
D02*
G37*
G36*
X43599D02*
X43630Y27272D01*
Y27228D01*
X43599Y27196D01*
X43577Y27195D01*
X43577Y27195D01*
X43313Y27195D01*
X43291Y27196D01*
X43260Y27228D01*
Y27272D01*
X43291Y27304D01*
X43313Y27305D01*
X43577D01*
X43599Y27304D01*
D02*
G37*
G36*
X45509Y27107D02*
X45540Y27075D01*
Y27031D01*
X45509Y26999D01*
X45487Y26998D01*
X45487Y26998D01*
X45223Y26998D01*
X45201Y26999D01*
X45170Y27031D01*
Y27075D01*
X45201Y27107D01*
X45223Y27108D01*
X45487D01*
X45509Y27107D01*
D02*
G37*
G36*
X43599D02*
X43630Y27075D01*
Y27031D01*
X43599Y26999D01*
X43577Y26998D01*
X43577Y26998D01*
X43313Y26998D01*
X43291Y26999D01*
X43260Y27031D01*
Y27075D01*
X43291Y27107D01*
X43313Y27108D01*
X43577D01*
X43599Y27107D01*
D02*
G37*
G36*
X52200Y27295D02*
Y27005D01*
X52175Y26980D01*
X52058D01*
X51900Y27096D01*
Y27204D01*
X52058Y27320D01*
X52175D01*
X52200Y27295D01*
D02*
G37*
G36*
X51652Y27204D02*
Y27096D01*
X51493Y26980D01*
X51376D01*
X51351Y27005D01*
Y27295D01*
X51376Y27320D01*
X51493D01*
X51652Y27204D01*
D02*
G37*
G36*
X45542Y26879D02*
Y26833D01*
X45509Y26801D01*
X45200D01*
X45168Y26833D01*
Y26879D01*
X45200Y26911D01*
X45509D01*
X45542Y26879D01*
D02*
G37*
G36*
X43632D02*
Y26833D01*
X43600Y26801D01*
X43290D01*
X43258Y26833D01*
Y26879D01*
X43290Y26911D01*
X43600D01*
X43632Y26879D01*
D02*
G37*
G36*
X53460Y27231D02*
Y26834D01*
X53421Y26794D01*
X53279D01*
X53239Y26834D01*
Y26917D01*
X53200Y26956D01*
X53051D01*
X53012Y26917D01*
Y26834D01*
X52972Y26794D01*
X52830D01*
X52791Y26834D01*
Y27231D01*
X52830Y27270D01*
X53421D01*
X53460Y27231D01*
D02*
G37*
G36*
X60785Y27147D02*
X60856Y27117D01*
X60910Y27061D01*
X60940Y26990D01*
Y26912D01*
X60910Y26841D01*
X60856Y26786D01*
X60785Y26755D01*
X60746Y26754D01*
X60746Y26754D01*
X60431Y26754D01*
X60393Y26755D01*
X60322Y26786D01*
X60267Y26841D01*
X60238Y26912D01*
Y26990D01*
X60267Y27061D01*
X60322Y27117D01*
X60393Y27147D01*
X60431Y27148D01*
X60746D01*
X60785Y27147D01*
D02*
G37*
G36*
X59210D02*
X59281Y27117D01*
X59336Y27061D01*
X59365Y26990D01*
Y26912D01*
X59336Y26841D01*
X59281Y26786D01*
X59210Y26755D01*
X59172Y26754D01*
X59172Y26754D01*
X58739Y26754D01*
X58700Y26755D01*
X58629Y26786D01*
X58574Y26841D01*
X58545Y26912D01*
Y26990D01*
X58574Y27061D01*
X58629Y27117D01*
X58700Y27147D01*
X58739Y27148D01*
X59172D01*
X59210Y27147D01*
D02*
G37*
G36*
X44896Y26754D02*
X43904D01*
Y27746D01*
X44896D01*
Y26754D01*
D02*
G37*
G36*
X45542Y26682D02*
Y26636D01*
X45509Y26604D01*
X45200D01*
X45168Y26636D01*
Y26682D01*
X45200Y26714D01*
X45509D01*
X45542Y26682D01*
D02*
G37*
G36*
X43632D02*
Y26636D01*
X43600Y26604D01*
X43290D01*
X43258Y26636D01*
Y26682D01*
X43290Y26714D01*
X43600D01*
X43632Y26682D01*
D02*
G37*
G36*
X45046Y26450D02*
Y26427D01*
Y26163D01*
Y26141D01*
X45014Y26108D01*
X44968D01*
X44936Y26141D01*
Y26163D01*
Y26427D01*
Y26450D01*
X44968Y26482D01*
X45014D01*
X45046Y26450D01*
D02*
G37*
G36*
X44849D02*
Y26427D01*
Y26163D01*
Y26141D01*
X44817Y26108D01*
X44771D01*
X44739Y26141D01*
Y26163D01*
Y26427D01*
Y26450D01*
X44771Y26482D01*
X44817D01*
X44849Y26450D01*
D02*
G37*
G36*
X44652D02*
Y26427D01*
Y26163D01*
Y26141D01*
X44620Y26108D01*
X44574D01*
X44542Y26141D01*
Y26163D01*
Y26427D01*
Y26450D01*
X44574Y26482D01*
X44620D01*
X44652Y26450D01*
D02*
G37*
G36*
X44455D02*
Y26427D01*
Y26163D01*
Y26141D01*
X44423Y26108D01*
X44377D01*
X44345Y26141D01*
Y26163D01*
Y26427D01*
Y26450D01*
X44377Y26482D01*
X44423D01*
X44455Y26450D01*
D02*
G37*
G36*
X44258D02*
Y26427D01*
Y26163D01*
Y26141D01*
X44226Y26108D01*
X44180D01*
X44148Y26141D01*
Y26163D01*
Y26427D01*
Y26450D01*
X44180Y26482D01*
X44226D01*
X44258Y26450D01*
D02*
G37*
G36*
X44061D02*
Y26427D01*
Y26163D01*
Y26141D01*
X44029Y26108D01*
X43983D01*
X43951Y26141D01*
Y26163D01*
Y26427D01*
Y26450D01*
X43983Y26482D01*
X44029D01*
X44061Y26450D01*
D02*
G37*
G36*
X43864D02*
Y26427D01*
Y26163D01*
Y26141D01*
X43832Y26108D01*
X43786D01*
X43754Y26141D01*
Y26163D01*
Y26427D01*
Y26450D01*
X43786Y26482D01*
X43832D01*
X43864Y26450D01*
D02*
G37*
G36*
X53460Y26066D02*
Y25669D01*
X53421Y25630D01*
X52830D01*
X52791Y25669D01*
Y26066D01*
X52830Y26106D01*
X52972D01*
X53012Y26066D01*
Y25983D01*
X53051Y25944D01*
X53200D01*
X53239Y25983D01*
Y26066D01*
X53279Y26106D01*
X53421D01*
X53460Y26066D01*
D02*
G37*
G36*
X52250Y25945D02*
Y25655D01*
X52225Y25630D01*
X52108D01*
X51950Y25746D01*
Y25854D01*
X52108Y25970D01*
X52225D01*
X52250Y25945D01*
D02*
G37*
G36*
X51702Y25854D02*
Y25746D01*
X51543Y25630D01*
X51426D01*
X51401Y25655D01*
Y25945D01*
X51426Y25970D01*
X51543D01*
X51702Y25854D01*
D02*
G37*
G36*
X27152Y25482D02*
Y25192D01*
X27127Y25167D01*
X26929D01*
X26821Y25283D01*
Y25392D01*
X26929Y25507D01*
X27127D01*
X27152Y25482D01*
D02*
G37*
G36*
X26573Y25392D02*
Y25283D01*
X26465Y25167D01*
X26266D01*
X26241Y25192D01*
Y25482D01*
X26266Y25507D01*
X26465D01*
X26573Y25392D01*
D02*
G37*
G36*
X53500Y25195D02*
Y24905D01*
X53475Y24880D01*
X53358D01*
X53200Y24996D01*
Y25104D01*
X53358Y25220D01*
X53475D01*
X53500Y25195D01*
D02*
G37*
G36*
X52952Y25104D02*
Y24996D01*
X52793Y24880D01*
X52676D01*
X52651Y24905D01*
Y25195D01*
X52676Y25220D01*
X52793D01*
X52952Y25104D01*
D02*
G37*
G36*
X25370Y25162D02*
Y24963D01*
X25254Y24856D01*
X25146D01*
X25030Y24963D01*
Y25162D01*
X25055Y25187D01*
X25345D01*
X25370Y25162D01*
D02*
G37*
G36*
X24653D02*
Y24963D01*
X24538Y24856D01*
X24429D01*
X24313Y24963D01*
Y25162D01*
X24338Y25187D01*
X24628D01*
X24653Y25162D01*
D02*
G37*
G36*
X23220D02*
Y24963D01*
X23104Y24856D01*
X22996D01*
X22880Y24963D01*
Y25162D01*
X22905Y25187D01*
X23195D01*
X23220Y25162D01*
D02*
G37*
G36*
X23976Y25103D02*
Y24986D01*
X23861Y24827D01*
X23752D01*
X23636Y24986D01*
Y25103D01*
X23661Y25128D01*
X23951D01*
X23976Y25103D01*
D02*
G37*
G36*
Y24421D02*
Y24304D01*
X23951Y24279D01*
X23661D01*
X23636Y24304D01*
Y24421D01*
X23752Y24579D01*
X23861D01*
X23976Y24421D01*
D02*
G37*
G36*
X25370Y24500D02*
Y24301D01*
X25345Y24276D01*
X25055D01*
X25030Y24301D01*
Y24500D01*
X25146Y24607D01*
X25254D01*
X25370Y24500D01*
D02*
G37*
G36*
X24653D02*
Y24301D01*
X24628Y24276D01*
X24338D01*
X24313Y24301D01*
Y24500D01*
X24429Y24607D01*
X24538D01*
X24653Y24500D01*
D02*
G37*
G36*
X23220D02*
Y24301D01*
X23195Y24276D01*
X22905D01*
X22880Y24301D01*
Y24500D01*
X22996Y24607D01*
X23104D01*
X23220Y24500D01*
D02*
G37*
G36*
X53555Y24495D02*
Y24205D01*
X53530Y24180D01*
X53332D01*
X53224Y24296D01*
Y24404D01*
X53332Y24520D01*
X53530D01*
X53555Y24495D01*
D02*
G37*
G36*
X52976Y24404D02*
Y24296D01*
X52868Y24180D01*
X52670D01*
X52645Y24205D01*
Y24495D01*
X52670Y24520D01*
X52868D01*
X52976Y24404D01*
D02*
G37*
G36*
X44949Y23705D02*
Y23507D01*
X44833Y23399D01*
X44724D01*
X44609Y23507D01*
Y23705D01*
X44634Y23730D01*
X44924D01*
X44949Y23705D01*
D02*
G37*
G36*
X44169D02*
Y23507D01*
X44053Y23399D01*
X43944D01*
X43828Y23507D01*
Y23705D01*
X43854Y23730D01*
X44143D01*
X44169Y23705D01*
D02*
G37*
G36*
X55870Y23680D02*
Y23482D01*
X55754Y23374D01*
X55646D01*
X55530Y23482D01*
Y23680D01*
X55555Y23705D01*
X55845D01*
X55870Y23680D01*
D02*
G37*
G36*
X55120D02*
Y23482D01*
X55004Y23374D01*
X54896D01*
X54780Y23482D01*
Y23680D01*
X54805Y23705D01*
X55095D01*
X55120Y23680D01*
D02*
G37*
G36*
X59283Y23717D02*
X59338Y23661D01*
X59368Y23589D01*
Y23510D01*
X59338Y23438D01*
X59283Y23383D01*
X59211Y23353D01*
X58699D01*
X58627Y23383D01*
X58572Y23438D01*
X58542Y23510D01*
Y23589D01*
X58572Y23661D01*
X58627Y23717D01*
X58699Y23746D01*
X59211D01*
X59283Y23717D01*
D02*
G37*
G36*
X60785Y23746D02*
X60856Y23715D01*
X60911Y23660D01*
X60940Y23588D01*
Y23511D01*
X60911Y23439D01*
X60856Y23384D01*
X60785Y23353D01*
X60746Y23353D01*
X60746Y23353D01*
X60431Y23353D01*
X60393Y23353D01*
X60321Y23384D01*
X60267Y23439D01*
X60237Y23511D01*
Y23588D01*
X60267Y23660D01*
X60321Y23715D01*
X60393Y23746D01*
X60431Y23746D01*
X60746D01*
X60785Y23746D01*
D02*
G37*
G36*
X44949Y23043D02*
Y22845D01*
X44924Y22819D01*
X44634D01*
X44609Y22845D01*
Y23043D01*
X44724Y23151D01*
X44833D01*
X44949Y23043D01*
D02*
G37*
G36*
X44169D02*
Y22845D01*
X44143Y22819D01*
X43854D01*
X43828Y22845D01*
Y23043D01*
X43944Y23151D01*
X44053D01*
X44169Y23043D01*
D02*
G37*
G36*
X55870Y23018D02*
Y22820D01*
X55845Y22795D01*
X55555D01*
X55530Y22820D01*
Y23018D01*
X55646Y23126D01*
X55754D01*
X55870Y23018D01*
D02*
G37*
G36*
X55120D02*
Y22820D01*
X55095Y22795D01*
X54805D01*
X54780Y22820D01*
Y23018D01*
X54896Y23126D01*
X55004D01*
X55120Y23018D01*
D02*
G37*
G36*
X44855Y22195D02*
Y21905D01*
X44830Y21880D01*
X44632D01*
X44524Y21996D01*
Y22104D01*
X44632Y22220D01*
X44830D01*
X44855Y22195D01*
D02*
G37*
G36*
X44276Y22104D02*
Y21996D01*
X44168Y21880D01*
X43970D01*
X43945Y21905D01*
Y22195D01*
X43970Y22220D01*
X44168D01*
X44276Y22104D01*
D02*
G37*
G36*
X44855Y21495D02*
Y21205D01*
X44830Y21180D01*
X44632D01*
X44524Y21296D01*
Y21404D01*
X44632Y21520D01*
X44830D01*
X44855Y21495D01*
D02*
G37*
G36*
X44276Y21404D02*
Y21296D01*
X44168Y21180D01*
X43970D01*
X43945Y21205D01*
Y21495D01*
X43970Y21520D01*
X44168D01*
X44276Y21404D01*
D02*
G37*
D10*
X60250Y17500D02*
G03*
X60250Y17500I-750J0D01*
G01*
X25250D02*
G03*
X25250Y17500I-750J0D01*
G01*
X60250Y52500D02*
G03*
X60250Y52500I-750J0D01*
G01*
X25250D02*
G03*
X25250Y52500I-750J0D01*
G01*
X43180Y53180D02*
G03*
X43180Y53180I-200J0D01*
G01*
X41220D02*
G03*
X41220Y53180I-200J0D01*
G01*
X53269Y45400D02*
G03*
X57250Y51050I-2019J5650D01*
G01*
X49249D02*
G03*
X53275Y45383I6001J0D01*
G01*
X57250Y51050D02*
G03*
X53250Y51050I-2000J0D01*
G01*
D02*
G03*
X49250Y51050I-2000J0D01*
G01*
X22500Y37762D02*
G03*
X22500Y39247I104J743D01*
G01*
X22504Y19157D02*
G03*
X22504Y20643I104J743D01*
G01*
X61504Y39243D02*
G03*
X61504Y37757I-104J-743D01*
G01*
X42750Y38500D02*
G03*
X42750Y38500I-750J0D01*
G01*
Y19900D02*
G03*
X42750Y19900I-750J0D01*
G01*
X57500Y17500D02*
G03*
X61500Y17500I2000J0D01*
G01*
Y52500D02*
G03*
X59500Y54500I-2000J0D01*
G01*
X24500D02*
G03*
X22500Y52500I0J-2000D01*
G01*
Y17500D02*
G03*
X26500Y17500I2000J0D01*
G01*
X61504Y20643D02*
G03*
X61504Y19157I-104J-743D01*
G01*
X50650Y19900D02*
G03*
X50650Y19900I-750J0D01*
G01*
Y38500D02*
G03*
X50650Y38500I-750J0D01*
G01*
X34850D02*
G03*
X34850Y38500I-750J0D01*
G01*
Y19900D02*
G03*
X34850Y19900I-750J0D01*
G01*
X61500Y39247D02*
Y52500D01*
X22500Y17500D02*
Y19142D01*
Y39247D02*
Y52500D01*
X22504Y20643D02*
Y37757D01*
X61504Y20643D02*
Y37757D01*
X61500Y17500D02*
Y19142D01*
X26500Y17500D02*
X57500D01*
X24500Y54500D02*
X59500D01*
D18*
X28916Y26835D02*
D03*
X27416D02*
D03*
X26416D02*
D03*
X25916D02*
D03*
X24916D02*
D03*
X23416D02*
D03*
X26916D02*
D03*
X27916D02*
D03*
X28416D02*
D03*
X29416D02*
D03*
X23916D02*
D03*
X24416D02*
D03*
X25416D02*
D03*
X22916D02*
D03*
D03*
X28916Y33728D02*
D03*
X27416D02*
D03*
X26416D02*
D03*
X25916D02*
D03*
X24916D02*
D03*
X23416D02*
D03*
X26916D02*
D03*
X27916D02*
D03*
X28416D02*
D03*
X29416D02*
D03*
X23916D02*
D03*
X24416D02*
D03*
X25416D02*
D03*
X22916D02*
D03*
D03*
D19*
X26634Y30650D02*
D03*
Y29666D02*
D03*
Y28681D02*
D03*
D03*
X25650Y30650D02*
D03*
Y29666D02*
D03*
Y28681D02*
D03*
D03*
X24666Y30650D02*
D03*
Y29666D02*
D03*
Y28681D02*
D03*
D03*
Y30650D02*
D03*
Y29666D02*
D03*
Y28681D02*
D03*
D03*
D20*
X30095Y32032D02*
D03*
Y31031D02*
D03*
Y30531D02*
D03*
Y29532D02*
D03*
Y29032D02*
D03*
Y28031D02*
D03*
D03*
Y32531D02*
D03*
Y31532D02*
D03*
Y30031D02*
D03*
Y28531D02*
D03*
D21*
X41700Y29700D02*
D03*
X42850Y24450D02*
D03*
X46050D02*
D03*
X24800Y21750D02*
D03*
X23500D02*
D03*
X55550Y34100D02*
D03*
D22*
X56950Y21990D02*
D03*
Y23310D02*
D03*
X40200Y30730D02*
D03*
Y32050D02*
D03*
D23*
X45110Y34000D02*
D03*
X43790D02*
D03*
D24*
X51600Y30498D02*
D03*
Y33002D02*
D03*
D25*
X26422Y22050D02*
D03*
X29778D02*
D03*
Y23950D02*
D03*
X26422D02*
D03*
D26*
X43250Y49953D02*
D03*
Y50547D02*
D03*
X42050Y49953D02*
D03*
Y50547D02*
D03*
X40850Y49953D02*
D03*
Y50547D02*
D03*
X53750Y32447D02*
D03*
Y31853D02*
D03*
X55700Y23547D02*
D03*
Y22953D02*
D03*
X54950Y23547D02*
D03*
Y22953D02*
D03*
X44779Y23571D02*
D03*
Y22978D02*
D03*
X43998Y23571D02*
D03*
Y22978D02*
D03*
X45350Y30600D02*
D03*
Y31193D02*
D03*
X25200Y24435D02*
D03*
Y25028D02*
D03*
X23050D02*
D03*
Y24435D02*
D03*
X29400Y35203D02*
D03*
Y35797D02*
D03*
X29255Y37575D02*
D03*
Y36981D02*
D03*
X28550Y37575D02*
D03*
Y36981D02*
D03*
X29900Y41547D02*
D03*
Y40953D02*
D03*
X29100Y41547D02*
D03*
Y40953D02*
D03*
X24483Y24435D02*
D03*
Y25028D02*
D03*
X53750Y33203D02*
D03*
Y33797D02*
D03*
D27*
X44050Y53500D02*
D03*
X39950D02*
D03*
D28*
X41020Y51750D02*
D03*
X42980D02*
D03*
X42000D02*
D03*
D29*
X54048Y28600D02*
D03*
X56552D02*
D03*
D30*
X56216Y30850D02*
D03*
X54484D02*
D03*
X49884Y34600D02*
D03*
X51616D02*
D03*
D31*
X56151Y32176D02*
D03*
Y32550D02*
D03*
Y32924D02*
D03*
X55049D02*
D03*
Y32550D02*
D03*
Y32176D02*
D03*
D32*
X58261Y23990D02*
D03*
Y26510D02*
D03*
Y24305D02*
D03*
Y26195D02*
D03*
D33*
Y24561D02*
D03*
Y24758D02*
D03*
Y24955D02*
D03*
Y25545D02*
D03*
Y25742D02*
D03*
Y25939D02*
D03*
Y25152D02*
D03*
Y25348D02*
D03*
D34*
X55700Y22250D02*
D03*
X55703Y21620D02*
D03*
X54949Y22265D02*
D03*
X54951Y21635D02*
D03*
X45351Y32135D02*
D03*
X45349Y32765D02*
D03*
X44821Y24899D02*
D03*
X44823Y24269D02*
D03*
X43970Y24899D02*
D03*
X43973Y24269D02*
D03*
D35*
X55434Y26148D02*
D03*
X55690D02*
D03*
X54922D02*
D03*
X55178D02*
D03*
X55434Y24452D02*
D03*
X55690D02*
D03*
X54922D02*
D03*
X55178D02*
D03*
D36*
X56148Y24920D02*
D03*
Y25176D02*
D03*
Y25432D02*
D03*
Y25688D02*
D03*
X54452Y25690D02*
D03*
Y25434D02*
D03*
Y25178D02*
D03*
Y24922D02*
D03*
D37*
X55300Y25300D02*
D03*
D38*
X53397Y24350D02*
D03*
X52803D02*
D03*
X44697Y21350D02*
D03*
X44103D02*
D03*
Y22050D02*
D03*
X44697D02*
D03*
X29697Y44450D02*
D03*
X29103D02*
D03*
X27900Y45900D02*
D03*
X28493D02*
D03*
X26400Y25337D02*
D03*
X26993D02*
D03*
X31553Y32500D02*
D03*
X32147D02*
D03*
D39*
X52800Y25050D02*
D03*
X53351D02*
D03*
X46576Y34000D02*
D03*
X46024D02*
D03*
X30874Y45200D02*
D03*
X31426D02*
D03*
X51500Y27150D02*
D03*
X52051D02*
D03*
X51550Y25800D02*
D03*
X52101D02*
D03*
D40*
X50200Y26816D02*
D03*
Y25084D02*
D03*
X48850Y26816D02*
D03*
Y25084D02*
D03*
D41*
X42700Y22403D02*
D03*
X42326Y23297D02*
D03*
X43074D02*
D03*
X46400Y22403D02*
D03*
X46026Y23297D02*
D03*
X46774D02*
D03*
X29650Y39747D02*
D03*
X30024Y38853D02*
D03*
X29276D02*
D03*
X29400Y43497D02*
D03*
X29774Y42603D02*
D03*
X29026D02*
D03*
D42*
X46150Y28826D02*
D03*
Y28274D02*
D03*
X45350Y29676D02*
D03*
Y29124D02*
D03*
X46200Y32199D02*
D03*
Y32750D02*
D03*
X38950Y31024D02*
D03*
Y31576D02*
D03*
X23806Y24428D02*
D03*
Y24979D02*
D03*
X30000Y36974D02*
D03*
Y37526D02*
D03*
D43*
X48100Y32780D02*
D03*
Y30720D02*
D03*
D44*
X41684Y31700D02*
D03*
D45*
X43916Y32606D02*
D03*
Y31700D02*
D03*
Y30794D02*
D03*
D46*
X30900Y42050D02*
D03*
X33900D02*
D03*
X30900Y44250D02*
D03*
X33900D02*
D03*
D47*
X24650Y43770D02*
D03*
Y44050D02*
D03*
Y43490D02*
D03*
Y44330D02*
D03*
Y44610D02*
D03*
Y44890D02*
D03*
Y45170D02*
D03*
Y45450D02*
D03*
Y45730D02*
D03*
Y46010D02*
D03*
Y46290D02*
D03*
Y46570D02*
D03*
Y46850D02*
D03*
D48*
X27785Y25299D02*
D03*
X28415Y25301D02*
D03*
D49*
X45405Y26659D02*
D03*
Y26856D02*
D03*
Y27053D02*
D03*
Y27250D02*
D03*
Y27447D02*
D03*
Y27644D02*
D03*
Y27841D02*
D03*
X43395Y27644D02*
D03*
Y27447D02*
D03*
Y27250D02*
D03*
Y27053D02*
D03*
Y26856D02*
D03*
Y26659D02*
D03*
Y27841D02*
D03*
D50*
X44991Y28255D02*
D03*
X44794D02*
D03*
X44597D02*
D03*
X44400D02*
D03*
X44203D02*
D03*
X44006D02*
D03*
X43809D02*
D03*
Y26245D02*
D03*
X44006D02*
D03*
X44203D02*
D03*
X44400D02*
D03*
X44597D02*
D03*
X44794D02*
D03*
X44991D02*
D03*
D51*
X44400Y27250D02*
D03*
D52*
X53126Y25868D02*
D03*
Y27032D02*
D03*
M02*
