G04*
G04 #@! TF.GenerationSoftware,Altium Limited,Altium Designer,20.2.6 (244)*
G04*
G04 Layer_Color=65535*
%FSLAX25Y25*%
%MOIN*%
G70*
G04*
G04 #@! TF.SameCoordinates,EC59DE11-5F21-440E-92AE-D345A4C3AF16*
G04*
G04*
G04 #@! TF.FilePolarity,Positive*
G04*
G01*
G75*
%ADD10C,0.01000*%
%ADD11C,0.00598*%
%ADD12C,0.00600*%
G36*
X480179Y204218D02*
X480227D01*
X480325Y204211D01*
X480449Y204190D01*
X480581Y204169D01*
X480720Y204135D01*
X480859Y204093D01*
Y202247D01*
X480852Y202254D01*
X480824Y202261D01*
X480790Y202275D01*
X480748Y202289D01*
X480651Y202309D01*
X480602Y202323D01*
X480533D01*
X480491Y202316D01*
X480436Y202303D01*
X480373Y202289D01*
X480311Y202261D01*
X480241Y202226D01*
X480179Y202178D01*
X480172Y202171D01*
X480151Y202150D01*
X480130Y202122D01*
X480102Y202080D01*
X480068Y202025D01*
X480047Y201956D01*
X480026Y201879D01*
X480019Y201789D01*
Y201775D01*
Y201747D01*
X480026Y201699D01*
X480040Y201636D01*
X480061Y201560D01*
X480089Y201470D01*
X480130Y201379D01*
X480186Y201275D01*
X480332Y201026D01*
X480338Y201019D01*
X480345Y200998D01*
X480366Y200956D01*
X480394Y200907D01*
X480422Y200845D01*
X480456Y200769D01*
X480491Y200686D01*
X480533Y200595D01*
X480568Y200491D01*
X480602Y200387D01*
X480665Y200151D01*
X480692Y200033D01*
X480713Y199908D01*
X480720Y199783D01*
X480727Y199658D01*
Y199651D01*
Y199617D01*
X480720Y199575D01*
Y199513D01*
X480706Y199436D01*
X480692Y199353D01*
X480672Y199249D01*
X480644Y199145D01*
X480609Y199027D01*
X480568Y198909D01*
X480512Y198784D01*
X480449Y198652D01*
X480373Y198527D01*
X480283Y198395D01*
X480179Y198270D01*
X480061Y198145D01*
X480054Y198138D01*
X480033Y198118D01*
X479991Y198083D01*
X479943Y198048D01*
X479874Y197993D01*
X479797Y197944D01*
X479707Y197882D01*
X479603Y197826D01*
X479492Y197764D01*
X479367Y197701D01*
X479228Y197653D01*
X479082Y197604D01*
X478930Y197563D01*
X478763Y197528D01*
X478590Y197507D01*
X478409Y197500D01*
X478326D01*
X478284Y197507D01*
X478229D01*
X478111Y197521D01*
X477972Y197542D01*
X477819Y197576D01*
X477660Y197618D01*
X477500Y197680D01*
Y199547D01*
X477514Y199540D01*
X477542Y199520D01*
X477597Y199499D01*
X477660Y199471D01*
X477743Y199436D01*
X477826Y199415D01*
X477923Y199395D01*
X478020Y199388D01*
X478062D01*
X478104Y199395D01*
X478159Y199408D01*
X478222Y199422D01*
X478291Y199443D01*
X478354Y199478D01*
X478416Y199527D01*
X478423Y199533D01*
X478444Y199554D01*
X478465Y199582D01*
X478499Y199624D01*
X478527Y199679D01*
X478548Y199735D01*
X478569Y199811D01*
X478576Y199887D01*
Y199894D01*
X478569Y199915D01*
X478562Y199950D01*
X478541Y200005D01*
X478513Y200082D01*
X478485Y200123D01*
X478465Y200179D01*
X478430Y200241D01*
X478395Y200311D01*
X478354Y200387D01*
X478305Y200470D01*
X478298Y200477D01*
X478284Y200505D01*
X478263Y200547D01*
X478236Y200602D01*
X478208Y200672D01*
X478166Y200755D01*
X478131Y200845D01*
X478090Y200949D01*
X478048Y201060D01*
X478014Y201178D01*
X477944Y201435D01*
X477916Y201567D01*
X477896Y201706D01*
X477882Y201851D01*
X477875Y201990D01*
Y202004D01*
Y202032D01*
X477882Y202080D01*
Y202143D01*
X477896Y202226D01*
X477910Y202316D01*
X477930Y202420D01*
X477958Y202532D01*
X477993Y202649D01*
X478034Y202774D01*
X478083Y202906D01*
X478145Y203038D01*
X478222Y203177D01*
X478305Y203309D01*
X478409Y203441D01*
X478520Y203566D01*
X478527Y203573D01*
X478548Y203593D01*
X478590Y203628D01*
X478638Y203670D01*
X478701Y203718D01*
X478777Y203774D01*
X478860Y203836D01*
X478957Y203899D01*
X479068Y203954D01*
X479186Y204017D01*
X479311Y204072D01*
X479450Y204121D01*
X479596Y204162D01*
X479749Y204197D01*
X479908Y204218D01*
X480075Y204225D01*
X480144D01*
X480179Y204218D01*
D02*
G37*
G36*
X484003D02*
X484072D01*
X484156Y204204D01*
X484253Y204190D01*
X484357Y204169D01*
X484475Y204142D01*
X484593Y204107D01*
X484725Y204058D01*
X484856Y204003D01*
X484995Y203940D01*
X485127Y203857D01*
X485259Y203767D01*
X485391Y203663D01*
X485516Y203545D01*
X485523Y203538D01*
X485543Y203517D01*
X485578Y203475D01*
X485620Y203427D01*
X485668Y203364D01*
X485717Y203281D01*
X485779Y203198D01*
X485842Y203094D01*
X485897Y202983D01*
X485960Y202865D01*
X486008Y202733D01*
X486064Y202594D01*
X486099Y202448D01*
X486133Y202289D01*
X486154Y202129D01*
X486161Y201962D01*
Y201956D01*
Y201942D01*
Y201907D01*
X486154Y201872D01*
Y201824D01*
X486147Y201768D01*
X486140Y201706D01*
X486133Y201636D01*
X486099Y201484D01*
X486057Y201317D01*
X486001Y201137D01*
X485918Y200963D01*
X485155Y199471D01*
X486231D01*
Y197604D01*
X482053D01*
X484135Y201490D01*
X484142Y201504D01*
X484156Y201539D01*
X484183Y201588D01*
X484211Y201650D01*
X484232Y201727D01*
X484260Y201803D01*
X484273Y201879D01*
X484280Y201956D01*
Y201962D01*
Y201969D01*
X484273Y202011D01*
X484260Y202066D01*
X484225Y202136D01*
X484169Y202198D01*
X484135Y202226D01*
X484093Y202254D01*
X484044Y202275D01*
X483982Y202295D01*
X483913Y202303D01*
X483836Y202309D01*
X483802D01*
X483767Y202303D01*
X483725Y202295D01*
X483670Y202282D01*
X483621Y202254D01*
X483566Y202226D01*
X483517Y202185D01*
X483510Y202178D01*
X483496Y202164D01*
X483482Y202136D01*
X483462Y202101D01*
X483434Y202060D01*
X483420Y202004D01*
X483406Y201948D01*
X483399Y201886D01*
Y201879D01*
Y201851D01*
X483406Y201817D01*
X483420Y201768D01*
X483441Y201706D01*
X483468Y201643D01*
X483510Y201581D01*
X483566Y201518D01*
X482740Y200047D01*
X482726Y200054D01*
X482691Y200082D01*
X482643Y200116D01*
X482573Y200172D01*
X482490Y200248D01*
X482400Y200331D01*
X482303Y200429D01*
X482205Y200547D01*
X482101Y200678D01*
X482004Y200817D01*
X481914Y200977D01*
X481831Y201150D01*
X481761Y201331D01*
X481713Y201532D01*
X481678Y201740D01*
X481664Y201962D01*
Y201976D01*
Y202004D01*
X481671Y202053D01*
X481678Y202115D01*
X481685Y202198D01*
X481699Y202289D01*
X481719Y202400D01*
X481747Y202511D01*
X481782Y202636D01*
X481824Y202761D01*
X481879Y202892D01*
X481942Y203031D01*
X482011Y203163D01*
X482101Y203302D01*
X482198Y203434D01*
X482316Y203559D01*
X482323Y203566D01*
X482344Y203586D01*
X482386Y203621D01*
X482434Y203663D01*
X482497Y203711D01*
X482573Y203767D01*
X482663Y203829D01*
X482760Y203892D01*
X482872Y203954D01*
X482997Y204017D01*
X483128Y204072D01*
X483267Y204121D01*
X483420Y204162D01*
X483572Y204197D01*
X483739Y204218D01*
X483913Y204225D01*
X483954D01*
X484003Y204218D01*
D02*
G37*
G36*
X480179Y226218D02*
X480227D01*
X480325Y226211D01*
X480449Y226190D01*
X480581Y226169D01*
X480720Y226135D01*
X480859Y226093D01*
Y224247D01*
X480852Y224254D01*
X480824Y224261D01*
X480790Y224275D01*
X480748Y224289D01*
X480651Y224309D01*
X480602Y224323D01*
X480533D01*
X480491Y224316D01*
X480436Y224303D01*
X480373Y224289D01*
X480311Y224261D01*
X480241Y224226D01*
X480179Y224178D01*
X480172Y224171D01*
X480151Y224150D01*
X480130Y224122D01*
X480102Y224080D01*
X480068Y224025D01*
X480047Y223955D01*
X480026Y223879D01*
X480019Y223789D01*
Y223775D01*
Y223747D01*
X480026Y223699D01*
X480040Y223636D01*
X480061Y223560D01*
X480089Y223470D01*
X480130Y223379D01*
X480186Y223275D01*
X480332Y223025D01*
X480338Y223019D01*
X480345Y222998D01*
X480366Y222956D01*
X480394Y222907D01*
X480422Y222845D01*
X480456Y222769D01*
X480491Y222686D01*
X480533Y222595D01*
X480568Y222491D01*
X480602Y222387D01*
X480665Y222151D01*
X480692Y222033D01*
X480713Y221908D01*
X480720Y221783D01*
X480727Y221658D01*
Y221651D01*
Y221617D01*
X480720Y221575D01*
Y221513D01*
X480706Y221436D01*
X480692Y221353D01*
X480672Y221249D01*
X480644Y221145D01*
X480609Y221027D01*
X480568Y220909D01*
X480512Y220784D01*
X480449Y220652D01*
X480373Y220527D01*
X480283Y220395D01*
X480179Y220270D01*
X480061Y220145D01*
X480054Y220139D01*
X480033Y220118D01*
X479991Y220083D01*
X479943Y220048D01*
X479874Y219993D01*
X479797Y219944D01*
X479707Y219882D01*
X479603Y219826D01*
X479492Y219764D01*
X479367Y219701D01*
X479228Y219653D01*
X479082Y219604D01*
X478930Y219563D01*
X478763Y219528D01*
X478590Y219507D01*
X478409Y219500D01*
X478326D01*
X478284Y219507D01*
X478229D01*
X478111Y219521D01*
X477972Y219542D01*
X477819Y219576D01*
X477660Y219618D01*
X477500Y219680D01*
Y221547D01*
X477514Y221540D01*
X477542Y221519D01*
X477597Y221499D01*
X477660Y221471D01*
X477743Y221436D01*
X477826Y221415D01*
X477923Y221395D01*
X478020Y221388D01*
X478062D01*
X478104Y221395D01*
X478159Y221409D01*
X478222Y221422D01*
X478291Y221443D01*
X478354Y221478D01*
X478416Y221527D01*
X478423Y221533D01*
X478444Y221554D01*
X478465Y221582D01*
X478499Y221624D01*
X478527Y221679D01*
X478548Y221735D01*
X478569Y221811D01*
X478576Y221887D01*
Y221894D01*
X478569Y221915D01*
X478562Y221950D01*
X478541Y222005D01*
X478513Y222082D01*
X478485Y222123D01*
X478465Y222179D01*
X478430Y222241D01*
X478395Y222311D01*
X478354Y222387D01*
X478305Y222470D01*
X478298Y222477D01*
X478284Y222505D01*
X478263Y222547D01*
X478236Y222602D01*
X478208Y222672D01*
X478166Y222755D01*
X478131Y222845D01*
X478090Y222949D01*
X478048Y223060D01*
X478014Y223178D01*
X477944Y223435D01*
X477916Y223567D01*
X477896Y223706D01*
X477882Y223851D01*
X477875Y223990D01*
Y224004D01*
Y224032D01*
X477882Y224080D01*
Y224143D01*
X477896Y224226D01*
X477910Y224316D01*
X477930Y224420D01*
X477958Y224532D01*
X477993Y224650D01*
X478034Y224774D01*
X478083Y224906D01*
X478145Y225038D01*
X478222Y225177D01*
X478305Y225309D01*
X478409Y225441D01*
X478520Y225566D01*
X478527Y225572D01*
X478548Y225593D01*
X478590Y225628D01*
X478638Y225670D01*
X478701Y225718D01*
X478777Y225774D01*
X478860Y225836D01*
X478957Y225899D01*
X479068Y225954D01*
X479186Y226017D01*
X479311Y226072D01*
X479450Y226121D01*
X479596Y226162D01*
X479749Y226197D01*
X479908Y226218D01*
X480075Y226225D01*
X480144D01*
X480179Y226218D01*
D02*
G37*
G36*
X484863Y219604D02*
X483031D01*
Y226065D01*
X484863D01*
Y219604D01*
D02*
G37*
G36*
X270575Y227482D02*
X270658D01*
X270748Y227468D01*
X270859Y227454D01*
X270977Y227433D01*
X271109Y227405D01*
X271241Y227371D01*
X271387Y227322D01*
X271526Y227273D01*
X271671Y227204D01*
X271810Y227128D01*
X271949Y227038D01*
X272081Y226933D01*
X272199Y226815D01*
X272206Y226809D01*
X272227Y226788D01*
X272254Y226746D01*
X272296Y226691D01*
X272338Y226621D01*
X272393Y226538D01*
X272448Y226434D01*
X272504Y226323D01*
X272560Y226191D01*
X272615Y226045D01*
X272671Y225885D01*
X272712Y225712D01*
X272754Y225525D01*
X272782Y225323D01*
X272802Y225101D01*
X272809Y224872D01*
Y223325D01*
Y223311D01*
Y223269D01*
X272802Y223207D01*
X272796Y223123D01*
X272789Y223012D01*
X272775Y222894D01*
X272754Y222756D01*
X272726Y222610D01*
X272685Y222457D01*
X272643Y222290D01*
X272587Y222124D01*
X272518Y221951D01*
X272435Y221784D01*
X272344Y221617D01*
X272240Y221451D01*
X272115Y221298D01*
X272109Y221291D01*
X272081Y221263D01*
X272046Y221222D01*
X271990Y221173D01*
X271921Y221111D01*
X271838Y221048D01*
X271741Y220972D01*
X271637Y220902D01*
X271512Y220826D01*
X271380Y220750D01*
X271234Y220687D01*
X271074Y220625D01*
X270908Y220576D01*
X270727Y220535D01*
X270540Y220507D01*
X270339Y220500D01*
X270255D01*
X270214Y220507D01*
X270158D01*
X270096Y220514D01*
X270033Y220521D01*
X269881Y220542D01*
X269714Y220569D01*
X269527Y220604D01*
X269339Y220660D01*
Y222270D01*
X269346D01*
X269353Y222263D01*
X269374Y222249D01*
X269402Y222242D01*
X269478Y222207D01*
X269575Y222172D01*
X269686Y222138D01*
X269811Y222103D01*
X269943Y222082D01*
X270075Y222075D01*
X270117D01*
X270151Y222082D01*
X270228Y222089D01*
X270332Y222117D01*
X270443Y222152D01*
X270561Y222207D01*
X270672Y222290D01*
X270727Y222339D01*
X270776Y222395D01*
Y222402D01*
X270790Y222409D01*
X270804Y222429D01*
X270818Y222450D01*
X270838Y222485D01*
X270859Y222527D01*
X270880Y222568D01*
X270908Y222624D01*
X270956Y222749D01*
X270998Y222901D01*
X271026Y223082D01*
X271040Y223290D01*
Y225066D01*
Y225074D01*
Y225101D01*
X271033Y225136D01*
Y225184D01*
X271019Y225240D01*
X271005Y225303D01*
X270991Y225372D01*
X270963Y225441D01*
X270936Y225511D01*
X270894Y225580D01*
X270845Y225642D01*
X270790Y225698D01*
X270721Y225747D01*
X270637Y225781D01*
X270547Y225809D01*
X270443Y225816D01*
X270401D01*
X270353Y225809D01*
X270297Y225795D01*
X270228Y225767D01*
X270151Y225733D01*
X270075Y225684D01*
X269999Y225622D01*
X269992Y225615D01*
X269971Y225587D01*
X269936Y225545D01*
X269902Y225497D01*
X269867Y225427D01*
X269832Y225351D01*
X269811Y225261D01*
X269804Y225164D01*
Y225150D01*
Y225122D01*
X269811Y225066D01*
X269825Y225004D01*
X269846Y224935D01*
X269881Y224858D01*
X269922Y224782D01*
X269985Y224713D01*
X269992Y224706D01*
X270020Y224685D01*
X270061Y224657D01*
X270110Y224622D01*
X270179Y224588D01*
X270249Y224560D01*
X270339Y224539D01*
X270429Y224532D01*
X270457D01*
X270498Y224539D01*
X270540Y224546D01*
X270596Y224553D01*
X270658Y224574D01*
X270721Y224595D01*
X270783Y224622D01*
Y222991D01*
X270776D01*
X270769Y222985D01*
X270748Y222978D01*
X270721Y222971D01*
X270644Y222950D01*
X270554Y222929D01*
X270443Y222908D01*
X270318Y222887D01*
X270186Y222873D01*
X270047Y222867D01*
X270006D01*
X269964Y222873D01*
X269902D01*
X269825Y222887D01*
X269742Y222901D01*
X269645Y222922D01*
X269541Y222943D01*
X269430Y222978D01*
X269312Y223019D01*
X269187Y223075D01*
X269069Y223130D01*
X268944Y223207D01*
X268819Y223290D01*
X268701Y223387D01*
X268590Y223498D01*
X268583Y223505D01*
X268562Y223526D01*
X268534Y223561D01*
X268500Y223616D01*
X268451Y223678D01*
X268403Y223748D01*
X268347Y223838D01*
X268298Y223935D01*
X268243Y224046D01*
X268187Y224164D01*
X268139Y224296D01*
X268090Y224435D01*
X268056Y224588D01*
X268028Y224747D01*
X268007Y224914D01*
X268000Y225087D01*
Y225101D01*
Y225129D01*
X268007Y225184D01*
X268014Y225254D01*
X268021Y225344D01*
X268035Y225441D01*
X268062Y225552D01*
X268090Y225677D01*
X268125Y225802D01*
X268174Y225941D01*
X268236Y226080D01*
X268298Y226225D01*
X268382Y226371D01*
X268479Y226517D01*
X268590Y226656D01*
X268715Y226788D01*
X268722Y226795D01*
X268749Y226815D01*
X268791Y226850D01*
X268847Y226899D01*
X268916Y226947D01*
X268999Y227010D01*
X269096Y227072D01*
X269208Y227142D01*
X269325Y227204D01*
X269464Y227267D01*
X269603Y227329D01*
X269763Y227378D01*
X269922Y227426D01*
X270096Y227461D01*
X270283Y227482D01*
X270471Y227489D01*
X270519D01*
X270575Y227482D01*
D02*
G37*
G36*
X244568Y251268D02*
X244492D01*
X244415Y251254D01*
X244318Y251240D01*
X244214Y251212D01*
X244110Y251171D01*
X244013Y251115D01*
X243936Y251039D01*
X243929Y251025D01*
X243909Y250997D01*
X243881Y250935D01*
X243853Y250851D01*
X243825Y250747D01*
X243811Y250678D01*
X243797Y250608D01*
X243784Y250532D01*
X243777Y250442D01*
X243770Y250352D01*
Y250248D01*
X244568D01*
Y248395D01*
X243770D01*
Y246500D01*
X242000D01*
Y250588D01*
Y250602D01*
Y250636D01*
X242007Y250699D01*
X242014Y250775D01*
X242021Y250872D01*
X242035Y250983D01*
X242062Y251101D01*
X242090Y251240D01*
X242125Y251379D01*
X242174Y251525D01*
X242229Y251677D01*
X242298Y251830D01*
X242382Y251983D01*
X242472Y252135D01*
X242583Y252274D01*
X242708Y252413D01*
X242715Y252420D01*
X242743Y252441D01*
X242784Y252475D01*
X242840Y252524D01*
X242909Y252579D01*
X242992Y252635D01*
X243096Y252704D01*
X243208Y252767D01*
X243339Y252836D01*
X243478Y252899D01*
X243631Y252954D01*
X243797Y253010D01*
X243971Y253058D01*
X244158Y253093D01*
X244360Y253114D01*
X244568Y253121D01*
Y251268D01*
D02*
G37*
G36*
X244596Y175920D02*
X244672Y175914D01*
X244755Y175907D01*
X244859Y175893D01*
X244970Y175872D01*
X245095Y175844D01*
X245227Y175803D01*
X245366Y175761D01*
X245512Y175705D01*
X245657Y175636D01*
X245803Y175553D01*
X245942Y175462D01*
X246088Y175358D01*
X246219Y175233D01*
X246227Y175226D01*
X246247Y175199D01*
X246282Y175164D01*
X246331Y175109D01*
X246386Y175039D01*
X246442Y174963D01*
X246511Y174866D01*
X246573Y174761D01*
X246643Y174637D01*
X246705Y174512D01*
X246761Y174366D01*
X246816Y174213D01*
X246865Y174054D01*
X246900Y173880D01*
X246920Y173700D01*
X246927Y173512D01*
Y173505D01*
Y173485D01*
Y173457D01*
X246920Y173415D01*
Y173360D01*
X246914Y173283D01*
X246907Y173186D01*
X244221D01*
Y173193D01*
X244207Y173221D01*
X244200Y173256D01*
X244186Y173311D01*
X244172Y173366D01*
X244165Y173429D01*
X244151Y173575D01*
Y173582D01*
Y173609D01*
X244158Y173651D01*
X244165Y173707D01*
X244172Y173776D01*
X244193Y173852D01*
X244214Y173936D01*
X244242Y174019D01*
X245137D01*
Y174026D01*
X245130Y174040D01*
X245123Y174067D01*
X245116Y174102D01*
X245081Y174186D01*
X245033Y174290D01*
X244956Y174387D01*
X244908Y174428D01*
X244852Y174470D01*
X244790Y174505D01*
X244721Y174532D01*
X244637Y174546D01*
X244547Y174553D01*
X244533D01*
X244492Y174546D01*
X244436Y174539D01*
X244360Y174519D01*
X244276Y174484D01*
X244186Y174435D01*
X244096Y174366D01*
X244013Y174269D01*
X244006Y174255D01*
X243978Y174220D01*
X243950Y174158D01*
X243909Y174074D01*
X243874Y173970D01*
X243839Y173845D01*
X243811Y173707D01*
X243804Y173547D01*
Y173540D01*
Y173526D01*
Y173505D01*
Y173471D01*
X243811Y173429D01*
X243818Y173387D01*
X243832Y173283D01*
X243853Y173158D01*
X243888Y173033D01*
X243936Y172908D01*
X244006Y172791D01*
X244013Y172777D01*
X244040Y172742D01*
X244089Y172700D01*
X244145Y172645D01*
X244221Y172589D01*
X244311Y172548D01*
X244415Y172513D01*
X244526Y172499D01*
X244540D01*
X244575Y172506D01*
X244623Y172513D01*
X244693Y172534D01*
X244776Y172568D01*
X244859Y172610D01*
X244950Y172679D01*
X245040Y172770D01*
X246053Y171548D01*
X246046Y171541D01*
X246018Y171527D01*
X245984Y171500D01*
X245928Y171465D01*
X245866Y171423D01*
X245782Y171375D01*
X245692Y171326D01*
X245595Y171278D01*
X245484Y171222D01*
X245359Y171174D01*
X245234Y171125D01*
X245095Y171083D01*
X244950Y171049D01*
X244797Y171021D01*
X244637Y171007D01*
X244478Y171000D01*
X244429D01*
X244380Y171007D01*
X244304Y171014D01*
X244214Y171021D01*
X244110Y171035D01*
X243999Y171063D01*
X243874Y171090D01*
X243735Y171125D01*
X243596Y171174D01*
X243450Y171229D01*
X243298Y171298D01*
X243152Y171382D01*
X243006Y171472D01*
X242861Y171583D01*
X242722Y171708D01*
X242715Y171715D01*
X242694Y171743D01*
X242652Y171777D01*
X242611Y171833D01*
X242555Y171902D01*
X242493Y171985D01*
X242430Y172083D01*
X242361Y172194D01*
X242291Y172312D01*
X242229Y172450D01*
X242167Y172589D01*
X242111Y172749D01*
X242069Y172915D01*
X242035Y173089D01*
X242007Y173269D01*
X242000Y173464D01*
Y173478D01*
Y173512D01*
X242007Y173568D01*
X242014Y173637D01*
X242021Y173727D01*
X242035Y173831D01*
X242062Y173950D01*
X242090Y174074D01*
X242125Y174206D01*
X242174Y174345D01*
X242236Y174491D01*
X242298Y174644D01*
X242382Y174789D01*
X242479Y174935D01*
X242590Y175074D01*
X242715Y175213D01*
X242722Y175220D01*
X242750Y175240D01*
X242791Y175282D01*
X242847Y175324D01*
X242916Y175379D01*
X242999Y175442D01*
X243096Y175504D01*
X243208Y175574D01*
X243333Y175636D01*
X243464Y175698D01*
X243617Y175761D01*
X243770Y175816D01*
X243936Y175865D01*
X244117Y175900D01*
X244304Y175920D01*
X244498Y175927D01*
X244547D01*
X244596Y175920D01*
D02*
G37*
G36*
X274441Y148123D02*
Y148109D01*
Y148075D01*
X274434Y148012D01*
X274427Y147929D01*
X274420Y147832D01*
X274407Y147714D01*
X274386Y147589D01*
X274358Y147450D01*
X274316Y147304D01*
X274275Y147152D01*
X274219Y146992D01*
X274150Y146833D01*
X274074Y146673D01*
X273983Y146520D01*
X273872Y146368D01*
X273754Y146229D01*
X273747Y146222D01*
X273720Y146201D01*
X273685Y146159D01*
X273629Y146118D01*
X273560Y146062D01*
X273484Y146000D01*
X273386Y145930D01*
X273282Y145868D01*
X273157Y145798D01*
X273025Y145729D01*
X272887Y145667D01*
X272727Y145611D01*
X272568Y145569D01*
X272387Y145535D01*
X272207Y145507D01*
X272012Y145500D01*
X271964D01*
X271908Y145507D01*
X271832Y145514D01*
X271742Y145521D01*
X271638Y145535D01*
X271519Y145563D01*
X271388Y145590D01*
X271256Y145625D01*
X271110Y145674D01*
X270957Y145729D01*
X270812Y145798D01*
X270659Y145882D01*
X270506Y145972D01*
X270361Y146083D01*
X270222Y146208D01*
X270215Y146215D01*
X270194Y146243D01*
X270152Y146277D01*
X270111Y146333D01*
X270055Y146402D01*
X269993Y146485D01*
X269930Y146583D01*
X269861Y146694D01*
X269792Y146812D01*
X269729Y146943D01*
X269667Y147089D01*
X269611Y147242D01*
X269569Y147408D01*
X269535Y147575D01*
X269507Y147762D01*
X269500Y147950D01*
Y147964D01*
Y147992D01*
X269507Y148047D01*
X269514Y148116D01*
X269521Y148200D01*
X269542Y148304D01*
X269563Y148415D01*
X269590Y148533D01*
X269632Y148665D01*
X269673Y148803D01*
X269736Y148949D01*
X269805Y149095D01*
X269889Y149241D01*
X269986Y149386D01*
X270097Y149532D01*
X270222Y149671D01*
X270229Y149678D01*
X270256Y149706D01*
X270298Y149740D01*
X270354Y149789D01*
X270416Y149844D01*
X270499Y149907D01*
X270597Y149969D01*
X270708Y150039D01*
X270826Y150108D01*
X270957Y150171D01*
X271096Y150233D01*
X271249Y150289D01*
X271409Y150337D01*
X271575Y150372D01*
X271749Y150400D01*
X271929Y150407D01*
X272040D01*
X272109Y150400D01*
X272193Y150393D01*
X272290Y150386D01*
X272401Y150379D01*
Y148422D01*
X272394Y148429D01*
X272366Y148450D01*
X272325Y148477D01*
X272269Y148512D01*
X272200Y148540D01*
X272130Y148567D01*
X272047Y148588D01*
X271964Y148595D01*
X271915D01*
X271866Y148588D01*
X271804Y148567D01*
X271728Y148547D01*
X271651Y148512D01*
X271568Y148463D01*
X271492Y148394D01*
X271485Y148387D01*
X271464Y148359D01*
X271429Y148318D01*
X271395Y148262D01*
X271353Y148193D01*
X271325Y148109D01*
X271298Y148012D01*
X271290Y147908D01*
Y147894D01*
Y147866D01*
X271304Y147811D01*
X271318Y147749D01*
X271339Y147679D01*
X271374Y147603D01*
X271422Y147520D01*
X271492Y147443D01*
X271499Y147436D01*
X271527Y147415D01*
X271575Y147381D01*
X271631Y147346D01*
X271707Y147304D01*
X271790Y147277D01*
X271887Y147249D01*
X271991Y147242D01*
X272019D01*
X272054Y147249D01*
X272096Y147256D01*
X272151Y147270D01*
X272207Y147291D01*
X272269Y147318D01*
X272332Y147360D01*
X272394Y147408D01*
X272456Y147471D01*
X272512Y147547D01*
X272568Y147637D01*
X272609Y147742D01*
X272644Y147866D01*
X272665Y148012D01*
X272672Y148179D01*
Y152065D01*
X274441D01*
Y148123D01*
D02*
G37*
G36*
X298596Y177920D02*
X298672Y177913D01*
X298755Y177900D01*
X298859Y177879D01*
X298963Y177858D01*
X299081Y177830D01*
X299206Y177796D01*
X299331Y177754D01*
X299463Y177698D01*
X299595Y177636D01*
X299727Y177567D01*
X299859Y177483D01*
X299991Y177386D01*
X299997Y177379D01*
X300018Y177358D01*
X300053Y177331D01*
X300101Y177289D01*
X300157Y177233D01*
X300213Y177164D01*
X300282Y177088D01*
X300351Y177004D01*
X300428Y176907D01*
X300504Y176796D01*
X300573Y176678D01*
X300643Y176546D01*
X300705Y176415D01*
X300768Y176262D01*
X300816Y176109D01*
X300858Y175943D01*
X299033Y175880D01*
Y175887D01*
X299026Y175894D01*
X298991Y175929D01*
X298943Y175977D01*
X298880Y176033D01*
X298797Y176088D01*
X298700Y176137D01*
X298582Y176172D01*
X298519Y176186D01*
X298401D01*
X298346Y176172D01*
X298276Y176158D01*
X298200Y176130D01*
X298117Y176095D01*
X298033Y176040D01*
X297950Y175970D01*
X297943Y175963D01*
X297915Y175936D01*
X297888Y175887D01*
X297846Y175825D01*
X297811Y175755D01*
X297777Y175665D01*
X297749Y175568D01*
X297742Y175464D01*
Y175450D01*
X297749Y175415D01*
X297756Y175360D01*
X297770Y175290D01*
X297791Y175214D01*
X297832Y175131D01*
X297881Y175040D01*
X297950Y174957D01*
X297957Y174950D01*
X297985Y174922D01*
X298033Y174888D01*
X298089Y174853D01*
X298165Y174811D01*
X298249Y174777D01*
X298346Y174749D01*
X298450Y174742D01*
X298492D01*
X298533Y174749D01*
X298589Y174756D01*
X298658Y174777D01*
X298727Y174797D01*
X298804Y174832D01*
X298873Y174874D01*
X298880Y174881D01*
X298901Y174902D01*
X298936Y174929D01*
X298977Y174971D01*
X299019Y175027D01*
X299061Y175096D01*
X299102Y175172D01*
X299130Y175256D01*
X300907Y175318D01*
Y175304D01*
X300900Y175269D01*
X300893Y175221D01*
X300886Y175145D01*
X300865Y175061D01*
X300844Y174957D01*
X300816Y174846D01*
X300775Y174721D01*
X300733Y174596D01*
X300678Y174457D01*
X300608Y174319D01*
X300532Y174180D01*
X300448Y174041D01*
X300351Y173902D01*
X300233Y173770D01*
X300109Y173645D01*
X300101Y173638D01*
X300074Y173618D01*
X300039Y173583D01*
X299984Y173548D01*
X299914Y173493D01*
X299838Y173444D01*
X299741Y173382D01*
X299637Y173326D01*
X299519Y173264D01*
X299394Y173201D01*
X299255Y173153D01*
X299109Y173104D01*
X298956Y173063D01*
X298797Y173028D01*
X298623Y173007D01*
X298450Y173000D01*
X298408D01*
X298353Y173007D01*
X298283Y173014D01*
X298193Y173021D01*
X298096Y173042D01*
X297978Y173063D01*
X297860Y173090D01*
X297721Y173132D01*
X297589Y173173D01*
X297444Y173236D01*
X297298Y173305D01*
X297152Y173389D01*
X297006Y173486D01*
X296861Y173597D01*
X296722Y173722D01*
X296715Y173729D01*
X296694Y173757D01*
X296652Y173798D01*
X296611Y173854D01*
X296555Y173923D01*
X296493Y174006D01*
X296430Y174103D01*
X296361Y174214D01*
X296291Y174332D01*
X296229Y174464D01*
X296167Y174610D01*
X296111Y174763D01*
X296069Y174929D01*
X296035Y175096D01*
X296007Y175276D01*
X296000Y175464D01*
Y175478D01*
Y175512D01*
X296007Y175561D01*
X296014Y175637D01*
X296021Y175721D01*
X296042Y175825D01*
X296062Y175943D01*
X296090Y176067D01*
X296132Y176199D01*
X296174Y176338D01*
X296236Y176484D01*
X296305Y176630D01*
X296389Y176775D01*
X296486Y176921D01*
X296597Y177067D01*
X296722Y177206D01*
X296729Y177213D01*
X296757Y177240D01*
X296798Y177275D01*
X296854Y177317D01*
X296923Y177372D01*
X297006Y177435D01*
X297096Y177497D01*
X297208Y177567D01*
X297333Y177636D01*
X297464Y177698D01*
X297603Y177761D01*
X297756Y177816D01*
X297915Y177858D01*
X298089Y177900D01*
X298262Y177920D01*
X298450Y177927D01*
X298533D01*
X298596Y177920D01*
D02*
G37*
G36*
X297277Y250179D02*
Y250172D01*
Y250137D01*
X297284Y250096D01*
X297290Y250033D01*
X297298Y249964D01*
X297311Y249880D01*
X297332Y249797D01*
X297360Y249714D01*
X297395Y249624D01*
X297443Y249540D01*
X297499Y249457D01*
X297561Y249388D01*
X297644Y249325D01*
X297735Y249284D01*
X297839Y249256D01*
X297957Y249242D01*
X298005D01*
X298061Y249256D01*
X298130Y249270D01*
X298207Y249290D01*
X298283Y249325D01*
X298366Y249374D01*
X298443Y249436D01*
X298449Y249443D01*
X298477Y249471D01*
X298505Y249513D01*
X298547Y249575D01*
X298581Y249644D01*
X298616Y249721D01*
X298637Y249818D01*
X298644Y249915D01*
Y249929D01*
Y249964D01*
X298637Y250019D01*
X298623Y250082D01*
X298602Y250158D01*
X298568Y250241D01*
X298526Y250318D01*
X298463Y250394D01*
X298456Y250401D01*
X298429Y250422D01*
X298394Y250456D01*
X298339Y250491D01*
X298276Y250526D01*
X298200Y250560D01*
X298116Y250581D01*
X298019Y250588D01*
X297978D01*
X297929Y250581D01*
X297867Y250568D01*
X297797Y250547D01*
X297721Y250519D01*
X297631Y250477D01*
X297547Y250422D01*
Y252379D01*
X297561D01*
X297596Y252386D01*
X297651D01*
X297721Y252393D01*
X297797Y252400D01*
X297873D01*
X297950Y252407D01*
X298061D01*
X298116Y252400D01*
X298186Y252393D01*
X298269Y252386D01*
X298373Y252372D01*
X298484Y252344D01*
X298602Y252316D01*
X298734Y252282D01*
X298873Y252233D01*
X299012Y252171D01*
X299157Y252101D01*
X299303Y252018D01*
X299449Y251921D01*
X299588Y251810D01*
X299727Y251685D01*
X299733Y251678D01*
X299761Y251650D01*
X299796Y251608D01*
X299837Y251560D01*
X299893Y251484D01*
X299956Y251400D01*
X300018Y251310D01*
X300087Y251199D01*
X300157Y251081D01*
X300219Y250949D01*
X300282Y250803D01*
X300337Y250651D01*
X300379Y250491D01*
X300420Y250318D01*
X300441Y250144D01*
X300448Y249957D01*
Y249943D01*
Y249908D01*
X300441Y249860D01*
X300434Y249783D01*
X300427Y249700D01*
X300407Y249596D01*
X300386Y249478D01*
X300358Y249353D01*
X300316Y249221D01*
X300268Y249082D01*
X300212Y248937D01*
X300143Y248791D01*
X300060Y248638D01*
X299962Y248492D01*
X299851Y248354D01*
X299720Y248215D01*
X299713Y248208D01*
X299685Y248187D01*
X299643Y248152D01*
X299588Y248104D01*
X299518Y248048D01*
X299435Y247986D01*
X299338Y247923D01*
X299227Y247861D01*
X299102Y247792D01*
X298963Y247729D01*
X298817Y247667D01*
X298658Y247611D01*
X298491Y247569D01*
X298318Y247528D01*
X298130Y247507D01*
X297936Y247500D01*
X297887D01*
X297832Y247507D01*
X297762Y247514D01*
X297672Y247521D01*
X297568Y247542D01*
X297450Y247563D01*
X297325Y247590D01*
X297193Y247632D01*
X297048Y247680D01*
X296909Y247736D01*
X296756Y247805D01*
X296610Y247889D01*
X296472Y247986D01*
X296326Y248104D01*
X296194Y248229D01*
X296187Y248236D01*
X296166Y248263D01*
X296131Y248305D01*
X296083Y248361D01*
X296034Y248437D01*
X295972Y248520D01*
X295910Y248624D01*
X295847Y248742D01*
X295784Y248867D01*
X295722Y249013D01*
X295660Y249166D01*
X295611Y249339D01*
X295563Y249513D01*
X295528Y249707D01*
X295507Y249908D01*
X295500Y250123D01*
Y254065D01*
X297277D01*
Y250179D01*
D02*
G37*
G36*
X270575Y278420D02*
X270651D01*
X270748Y278407D01*
X270859Y278393D01*
X270984Y278372D01*
X271116Y278344D01*
X271262Y278309D01*
X271408Y278261D01*
X271560Y278212D01*
X271706Y278143D01*
X271859Y278066D01*
X272004Y277976D01*
X272136Y277872D01*
X272268Y277754D01*
X272275Y277747D01*
X272296Y277727D01*
X272331Y277685D01*
X272372Y277629D01*
X272421Y277567D01*
X272476Y277484D01*
X272539Y277386D01*
X272601Y277275D01*
X272664Y277150D01*
X272726Y277019D01*
X272782Y276866D01*
X272830Y276706D01*
X272872Y276526D01*
X272907Y276339D01*
X272927Y276144D01*
X272934Y275929D01*
Y273604D01*
X271158D01*
Y275804D01*
Y275811D01*
Y275818D01*
Y275839D01*
Y275867D01*
X271151Y275936D01*
X271137Y276019D01*
X271109Y276116D01*
X271081Y276214D01*
X271033Y276304D01*
X270970Y276394D01*
X270963Y276401D01*
X270936Y276429D01*
X270901Y276463D01*
X270845Y276505D01*
X270776Y276547D01*
X270693Y276581D01*
X270596Y276609D01*
X270492Y276616D01*
X270443D01*
X270394Y276602D01*
X270325Y276588D01*
X270249Y276568D01*
X270165Y276526D01*
X270082Y276477D01*
X270006Y276408D01*
X269999Y276401D01*
X269978Y276373D01*
X269943Y276325D01*
X269908Y276269D01*
X269867Y276193D01*
X269839Y276109D01*
X269811Y276012D01*
X269804Y275908D01*
Y275894D01*
Y275860D01*
X269811Y275804D01*
X269825Y275742D01*
X269846Y275665D01*
X269881Y275582D01*
X269922Y275506D01*
X269985Y275429D01*
X269992Y275422D01*
X270020Y275402D01*
X270061Y275367D01*
X270117Y275339D01*
X270186Y275304D01*
X270269Y275270D01*
X270367Y275249D01*
X270471Y275242D01*
X270505D01*
X270554Y275249D01*
X270609Y275256D01*
X270672Y275270D01*
X270741Y275290D01*
X270811Y275318D01*
X270887Y275353D01*
Y273542D01*
X270880D01*
X270852Y273535D01*
X270818Y273528D01*
X270762Y273521D01*
X270707Y273514D01*
X270637Y273507D01*
X270492Y273500D01*
X270443D01*
X270387Y273507D01*
X270311Y273514D01*
X270221Y273521D01*
X270117Y273535D01*
X269999Y273563D01*
X269867Y273590D01*
X269728Y273625D01*
X269589Y273674D01*
X269437Y273729D01*
X269291Y273798D01*
X269138Y273882D01*
X268992Y273972D01*
X268847Y274083D01*
X268708Y274208D01*
X268701Y274215D01*
X268680Y274243D01*
X268645Y274277D01*
X268597Y274333D01*
X268541Y274402D01*
X268486Y274485D01*
X268423Y274583D01*
X268354Y274694D01*
X268291Y274812D01*
X268222Y274951D01*
X268167Y275089D01*
X268111Y275249D01*
X268062Y275415D01*
X268028Y275589D01*
X268007Y275769D01*
X268000Y275964D01*
Y275978D01*
Y276012D01*
X268007Y276061D01*
X268014Y276137D01*
X268021Y276220D01*
X268042Y276325D01*
X268062Y276443D01*
X268090Y276568D01*
X268132Y276699D01*
X268174Y276838D01*
X268236Y276984D01*
X268305Y277130D01*
X268389Y277275D01*
X268486Y277421D01*
X268597Y277567D01*
X268722Y277706D01*
X268729Y277713D01*
X268757Y277740D01*
X268798Y277775D01*
X268854Y277817D01*
X268923Y277872D01*
X269006Y277935D01*
X269104Y277997D01*
X269208Y278066D01*
X269333Y278136D01*
X269464Y278198D01*
X269610Y278261D01*
X269763Y278316D01*
X269922Y278358D01*
X270096Y278400D01*
X270276Y278420D01*
X270464Y278427D01*
X270512D01*
X270575Y278420D01*
D02*
G37*
D10*
X474000Y232000D02*
G03*
X489000Y232000I7500J7500D01*
G01*
Y192000D02*
G03*
X474000Y192000I-7500J-7500D01*
G01*
X489000Y267000D02*
G03*
X474000Y267000I-7500J-7500D01*
G01*
Y157000D02*
G03*
X489000Y157000I7500J7500D01*
G01*
X261574Y216453D02*
Y216500D01*
X229500Y239574D02*
X229547D01*
X229500Y164574D02*
X229547D01*
X281426Y132500D02*
Y132547D01*
X313453Y184426D02*
X313500D01*
X313453Y259426D02*
X313500D01*
X261574Y291453D02*
Y291500D01*
X277287Y216453D02*
Y216500D01*
X229500Y255287D02*
X229547D01*
X229500Y180287D02*
X229547D01*
X265713Y132500D02*
Y132547D01*
X313453Y168713D02*
X313500D01*
X313453Y243713D02*
X313500D01*
X277287Y291453D02*
Y291500D01*
X293000Y216453D02*
Y216500D01*
X229500Y271000D02*
X229547D01*
X229500Y196000D02*
X229547D01*
X250000Y132500D02*
Y132547D01*
X313453Y153000D02*
X313500D01*
X313453Y228000D02*
X313500D01*
X293000Y291453D02*
Y291500D01*
X488000Y191953D02*
Y192000D01*
Y266453D02*
Y266500D01*
Y178768D02*
Y178815D01*
Y253518D02*
Y253565D01*
Y165583D02*
Y165630D01*
Y240583D02*
Y240630D01*
X250000Y131000D02*
X293000D01*
X298000Y136000D01*
X245000D02*
X250000Y131000D01*
X298000Y136000D02*
Y138000D01*
X245000Y136000D02*
Y138000D01*
X250000Y293000D02*
X293000D01*
X250000Y281000D02*
X293000D01*
X250000Y218000D02*
X293000D01*
X250000Y206000D02*
X293000D01*
X250000Y143000D02*
X293000D01*
X228000Y196000D02*
X233000Y201000D01*
X228000Y228000D02*
X233000Y223000D01*
X228000Y271000D02*
X233000Y276000D01*
X228000Y153000D02*
X233000Y148000D01*
X293000Y293000D02*
X298000Y288000D01*
X310000Y201000D02*
X315000Y196000D01*
X303000D02*
X308000Y201000D01*
X310000Y223000D02*
X315000Y228000D01*
X303000D02*
X308000Y223000D01*
X245000Y288000D02*
X250000Y293000D01*
X235000Y201000D02*
X240000Y196000D01*
Y153000D02*
Y196000D01*
X235000Y223000D02*
X240000Y228000D01*
Y271000D01*
X310000Y276000D02*
X315000Y271000D01*
X303000D02*
X308000Y276000D01*
X293000Y206000D02*
X298000Y211000D01*
X293000Y218000D02*
X298000Y213000D01*
X310000Y148000D02*
X315000Y153000D01*
X303000D02*
X308000Y148000D01*
X235000Y276000D02*
X240000Y271000D01*
X245000Y211000D02*
X250000Y206000D01*
X245000Y213000D02*
X250000Y218000D01*
X235000Y148000D02*
X240000Y153000D01*
X293000Y281000D02*
X298000Y286000D01*
X293000Y143000D02*
X298000Y138000D01*
X245000Y286000D02*
X250000Y281000D01*
X245000Y138000D02*
X250000Y143000D01*
X315000Y153000D02*
Y196000D01*
Y228000D02*
Y271000D01*
X303000Y153000D02*
Y196000D01*
Y228000D02*
Y271000D01*
X228000Y153000D02*
Y196000D01*
Y228000D02*
Y271000D01*
X298000Y286000D02*
Y288000D01*
X245000Y286000D02*
Y288000D01*
X308000Y276000D02*
X310000D01*
X308000Y223000D02*
X310000D01*
X308000Y201000D02*
X310000D01*
X308000Y148000D02*
X310000D01*
X298000Y211000D02*
Y213000D01*
X245000Y211000D02*
Y213000D01*
X233000Y276000D02*
X235000D01*
X233000Y223000D02*
X235000D01*
X233000Y201000D02*
X235000D01*
X233000Y148000D02*
X235000D01*
X489000Y232000D02*
Y267000D01*
Y157000D02*
Y192000D01*
X474000Y232000D02*
Y267000D01*
Y157000D02*
Y192000D01*
X501000Y259000D02*
G03*
X513000Y259000I6000J0D01*
G01*
Y271000D02*
G03*
X501000Y271000I-6000J0D01*
G01*
Y206000D02*
G03*
X513000Y206000I6000J0D01*
G01*
Y218000D02*
G03*
X501000Y218000I-6000J0D01*
G01*
X513000Y165000D02*
G03*
X501000Y165000I-6000J0D01*
G01*
Y153000D02*
G03*
X513000Y153000I6000J0D01*
G01*
X204000D02*
G03*
X216000Y153000I6000J0D01*
G01*
X327000Y259000D02*
G03*
X339000Y259000I6000J0D01*
G01*
X450000Y153000D02*
G03*
X462000Y153000I6000J0D01*
G01*
X450000Y206000D02*
G03*
X462000Y206000I6000J0D01*
G01*
Y218000D02*
G03*
X450000Y218000I-6000J0D01*
G01*
Y259000D02*
G03*
X462000Y259000I6000J0D01*
G01*
X327000Y206000D02*
G03*
X339000Y206000I6000J0D01*
G01*
Y218000D02*
G03*
X327000Y218000I-6000J0D01*
G01*
Y153000D02*
G03*
X339000Y153000I6000J0D01*
G01*
X216000Y165000D02*
G03*
X204000Y165000I-6000J0D01*
G01*
Y206000D02*
G03*
X216000Y206000I6000J0D01*
G01*
Y218000D02*
G03*
X204000Y218000I-6000J0D01*
G01*
Y259000D02*
G03*
X216000Y259000I6000J0D01*
G01*
X462000Y271000D02*
G03*
X450000Y271000I-6000J0D01*
G01*
X462000Y165000D02*
G03*
X450000Y165000I-6000J0D01*
G01*
X339000Y271000D02*
G03*
X327000Y271000I-6000J0D01*
G01*
X339000Y165000D02*
G03*
X327000Y165000I-6000J0D01*
G01*
X216000Y271000D02*
G03*
X204000Y271000I-6000J0D01*
G01*
X517000Y153000D02*
G03*
X517000Y165000I0J6000D01*
G01*
Y206000D02*
G03*
X517000Y218000I0J6000D01*
G01*
Y259000D02*
G03*
X517000Y271000I0J6000D01*
G01*
X250000Y305000D02*
G03*
X216000Y271000I0J-34000D01*
G01*
X293000Y119000D02*
G03*
X327000Y153000I0J34000D01*
G01*
X216000D02*
G03*
X250000Y119000I34000J0D01*
G01*
X327000Y271000D02*
G03*
X293000Y305000I-34000J0D01*
G01*
D02*
G03*
X250000Y305000I-21500J0D01*
G01*
X279000D02*
G03*
X279000Y305000I-7500J0D01*
G01*
Y119000D02*
G03*
X279000Y119000I-7500J0D01*
G01*
X250000D02*
G03*
X293000Y119000I21500J0D01*
G01*
X165000Y119000D02*
G03*
X204000Y119000I19500J0D01*
G01*
X192000D02*
G03*
X192000Y119000I-7500J0D01*
G01*
Y305000D02*
G03*
X192000Y305000I-7500J0D01*
G01*
X204000D02*
G03*
X165000Y305000I-19500J0D01*
G01*
X192000Y267000D02*
G03*
X177000Y267000I-7500J-7500D01*
G01*
Y157000D02*
G03*
X192000Y157000I7500J7500D01*
G01*
X177000Y232000D02*
G03*
X192000Y232000I7500J7500D01*
G01*
Y192000D02*
G03*
X177000Y192000I-7500J-7500D01*
G01*
X416000Y119000D02*
G03*
X450000Y153000I0J34000D01*
G01*
X339000D02*
G03*
X373000Y119000I34000J0D01*
G01*
Y305000D02*
G03*
X339000Y271000I0J-34000D01*
G01*
X450000D02*
G03*
X416000Y305000I-34000J0D01*
G01*
D02*
G03*
X373000Y305000I-21500J0D01*
G01*
X402000D02*
G03*
X402000Y305000I-7500J0D01*
G01*
Y119000D02*
G03*
X402000Y119000I-7500J0D01*
G01*
X373000D02*
G03*
X416000Y119000I21500J0D01*
G01*
X501000Y305000D02*
G03*
X462000Y305000I-19500J0D01*
G01*
X489000D02*
G03*
X489000Y305000I-7500J0D01*
G01*
Y119000D02*
G03*
X489000Y119000I-7500J0D01*
G01*
X462000D02*
G03*
X501000Y119000I19500J0D01*
G01*
X513000Y271000D02*
X517000D01*
X513000Y259000D02*
X517000D01*
X513000Y218000D02*
X517000D01*
X513000Y206000D02*
X517000D01*
X513000Y153000D02*
X517000D01*
X513000Y165000D02*
X517000D01*
X501000Y218000D02*
Y259000D01*
Y165000D02*
Y206000D01*
X216000Y218000D02*
Y259000D01*
X462000Y165000D02*
Y206000D01*
X450000Y165000D02*
Y206000D01*
Y218000D02*
Y259000D01*
X462000Y218000D02*
Y259000D01*
X339000Y165000D02*
Y206000D01*
X327000Y165000D02*
Y206000D01*
Y218000D02*
Y259000D01*
X339000Y218000D02*
Y259000D01*
X204000Y218000D02*
Y259000D01*
Y165000D02*
Y206000D01*
X165000Y153000D02*
Y271000D01*
X216000Y165000D02*
Y206000D01*
X204000Y119000D02*
Y153000D01*
X165000Y119000D02*
Y153000D01*
X204000Y271000D02*
Y305000D01*
X165000Y271000D02*
Y305000D01*
X192000Y157000D02*
Y192000D01*
X177000Y157000D02*
Y192000D01*
X192000Y232000D02*
Y267000D01*
X177000Y232000D02*
Y267000D01*
X356000Y201000D02*
X358000D01*
X368000Y136000D02*
Y138000D01*
Y286000D02*
Y288000D01*
X356000Y276000D02*
X358000D01*
X368000Y211000D02*
Y213000D01*
X431000Y201000D02*
X433000D01*
X431000Y276000D02*
X433000D01*
Y201000D02*
X438000Y196000D01*
X358000Y201000D02*
X363000Y196000D01*
X351000D02*
X356000Y201000D01*
X426000Y196000D02*
X431000Y201000D01*
Y148000D02*
X433000D01*
X356000D02*
X358000D01*
X433000D02*
X438000Y153000D01*
X363000D02*
Y196000D01*
X426000Y153000D02*
Y196000D01*
X438000Y153000D02*
Y196000D01*
X351000Y153000D02*
X356000Y148000D01*
X358000D02*
X363000Y153000D01*
X426000D02*
X431000Y148000D01*
X351000Y153000D02*
Y196000D01*
X431000Y223000D02*
X433000D01*
X356000D02*
X358000D01*
X433000D02*
X438000Y228000D01*
X351000D02*
X356000Y223000D01*
X358000D02*
X363000Y228000D01*
X426000D02*
X431000Y223000D01*
X433000Y276000D02*
X438000Y271000D01*
X363000Y228000D02*
Y271000D01*
X426000Y228000D02*
Y271000D01*
X438000Y228000D02*
Y271000D01*
X358000Y276000D02*
X363000Y271000D01*
X351000D02*
X356000Y276000D01*
X426000Y271000D02*
X431000Y276000D01*
X351000Y228000D02*
Y271000D01*
X373000Y143000D02*
X416000D01*
X373000Y131000D02*
X416000D01*
X421000Y136000D01*
X416000Y143000D02*
X421000Y138000D01*
Y136000D02*
Y138000D01*
X368000Y136000D02*
X373000Y131000D01*
X368000Y138000D02*
X373000Y143000D01*
Y218000D02*
X416000D01*
X373000Y206000D02*
X416000D01*
X421000Y211000D01*
X416000Y218000D02*
X421000Y213000D01*
Y211000D02*
Y213000D01*
X368000Y211000D02*
X373000Y206000D01*
X368000Y213000D02*
X373000Y218000D01*
Y293000D02*
X416000D01*
X373000Y281000D02*
X416000D01*
X421000Y286000D01*
X416000Y293000D02*
X421000Y288000D01*
Y286000D02*
Y288000D01*
X368000Y286000D02*
X373000Y281000D01*
X368000Y288000D02*
X373000Y293000D01*
X462000Y271000D02*
Y305000D01*
X501000Y271000D02*
Y305000D01*
X462000Y119000D02*
Y153000D01*
X501000Y119000D02*
Y153000D01*
D11*
X251137Y207669D02*
X259011D01*
X251137Y216331D02*
X259011D01*
X238331Y229137D02*
Y237011D01*
X229669Y229137D02*
Y237011D01*
X238331Y154137D02*
Y162011D01*
X229669Y154137D02*
Y162011D01*
X283989Y141331D02*
X291863D01*
X283989Y132669D02*
X291863D01*
X304669Y186989D02*
Y194863D01*
X313331Y186989D02*
Y194863D01*
X304669Y261989D02*
Y269863D01*
X313331Y261989D02*
Y269863D01*
X251137Y282669D02*
X259011D01*
X251137Y291331D02*
X259011D01*
X266850Y207669D02*
X274724D01*
X266850Y216331D02*
X274724D01*
X238331Y244850D02*
Y252724D01*
X229669Y244850D02*
Y252724D01*
X238331Y169850D02*
Y177724D01*
X229669Y169850D02*
Y177724D01*
X268276Y141331D02*
X276150D01*
X268276Y132669D02*
X276150D01*
X304669Y171276D02*
Y179150D01*
X313331Y171276D02*
Y179150D01*
X304669Y246276D02*
Y254150D01*
X313331Y246276D02*
Y254150D01*
X266850Y282669D02*
X274724D01*
X266850Y291331D02*
X274724D01*
X282563Y207669D02*
X290437D01*
X282563Y216331D02*
X290437D01*
X238331Y260563D02*
Y268437D01*
X229669Y260563D02*
Y268437D01*
X238331Y185563D02*
Y193437D01*
X229669Y185563D02*
Y193437D01*
X252563Y141331D02*
X260437D01*
X252563Y132669D02*
X260437D01*
X304669Y155563D02*
Y163437D01*
X313331Y155563D02*
Y163437D01*
X304669Y230563D02*
Y238437D01*
X313331Y230563D02*
Y238437D01*
X282563Y282669D02*
X290437D01*
X282563Y291331D02*
X290437D01*
X477563Y183169D02*
X485437D01*
X477563Y191831D02*
X485437D01*
X477563Y257669D02*
X485437D01*
X477563Y266331D02*
X485437D01*
X477563Y169984D02*
X485437D01*
X477563Y178646D02*
X485437D01*
X477563Y244734D02*
X485437D01*
X477563Y253396D02*
X485437D01*
X477563Y156799D02*
X485437D01*
X477563Y165461D02*
X485437D01*
X477563Y231799D02*
X485437D01*
X477563Y240461D02*
X485437D01*
D12*
X255199Y210875D02*
Y213375D01*
X253949Y212125D02*
X255199Y213375D01*
X253949Y212125D02*
X255199Y210875D01*
X232625Y233199D02*
X235125D01*
X232625D02*
X233875Y231949D01*
X235125Y233199D01*
X232625Y158199D02*
X235125D01*
X232625D02*
X233875Y156949D01*
X235125Y158199D01*
X287801Y135625D02*
Y138125D01*
Y135625D02*
X289051Y136875D01*
X287801Y138125D02*
X289051Y136875D01*
X307875Y190801D02*
X310375D01*
X309125Y192051D02*
X310375Y190801D01*
X307875D02*
X309125Y192051D01*
X307875Y265801D02*
X310375D01*
X309125Y267051D02*
X310375Y265801D01*
X307875D02*
X309125Y267051D01*
X255199Y285875D02*
Y288375D01*
X253949Y287125D02*
X255199Y288375D01*
X253949Y287125D02*
X255199Y285875D01*
X270912Y210875D02*
Y213375D01*
X269662Y212125D02*
X270912Y213375D01*
X269662Y212125D02*
X270912Y210875D01*
X232625Y248912D02*
X235125D01*
X232625D02*
X233875Y247662D01*
X235125Y248912D01*
X232625Y173912D02*
X235125D01*
X232625D02*
X233875Y172662D01*
X235125Y173912D01*
X272088Y135625D02*
Y138125D01*
Y135625D02*
X273338Y136875D01*
X272088Y138125D02*
X273338Y136875D01*
X307875Y175088D02*
X310375D01*
X309125Y176338D02*
X310375Y175088D01*
X307875D02*
X309125Y176338D01*
X307875Y250088D02*
X310375D01*
X309125Y251338D02*
X310375Y250088D01*
X307875D02*
X309125Y251338D01*
X270912Y285875D02*
Y288375D01*
X269662Y287125D02*
X270912Y288375D01*
X269662Y287125D02*
X270912Y285875D01*
X286625Y210875D02*
Y213375D01*
X285375Y212125D02*
X286625Y213375D01*
X285375Y212125D02*
X286625Y210875D01*
X232625Y264625D02*
X235125D01*
X232625D02*
X233875Y263375D01*
X235125Y264625D01*
X232625Y189625D02*
X235125D01*
X232625D02*
X233875Y188375D01*
X235125Y189625D01*
X256375Y135625D02*
Y138125D01*
Y135625D02*
X257625Y136875D01*
X256375Y138125D02*
X257625Y136875D01*
X307875Y159375D02*
X310375D01*
X309125Y160625D02*
X310375Y159375D01*
X307875D02*
X309125Y160625D01*
X307875Y234375D02*
X310375D01*
X309125Y235625D02*
X310375Y234375D01*
X307875D02*
X309125Y235625D01*
X286625Y285875D02*
Y288375D01*
X285375Y287125D02*
X286625Y288375D01*
X285375Y287125D02*
X286625Y285875D01*
X481625Y186375D02*
Y188875D01*
X480375Y187625D02*
X481625Y188875D01*
X480375Y187625D02*
X481625Y186375D01*
Y260875D02*
Y263375D01*
X480375Y262125D02*
X481625Y263375D01*
X480375Y262125D02*
X481625Y260875D01*
Y173190D02*
Y175690D01*
X480375Y174440D02*
X481625Y175690D01*
X480375Y174440D02*
X481625Y173190D01*
Y247940D02*
Y250440D01*
X480375Y249190D02*
X481625Y250440D01*
X480375Y249190D02*
X481625Y247940D01*
Y160005D02*
Y162505D01*
X480375Y161255D02*
X481625Y162505D01*
X480375Y161255D02*
X481625Y160005D01*
Y235005D02*
Y237505D01*
X480375Y236255D02*
X481625Y237505D01*
X480375Y236255D02*
X481625Y235005D01*
M02*
