G04*
G04 #@! TF.GenerationSoftware,Altium Limited,Altium Designer,20.2.6 (244)*
G04*
G04 Layer_Physical_Order=3*
G04 Layer_Color=128*
%FSLAX25Y25*%
%MOIN*%
G70*
G04*
G04 #@! TF.SameCoordinates,EC59DE11-5F21-440E-92AE-D345A4C3AF16*
G04*
G04*
G04 #@! TF.FilePolarity,Negative*
G04*
G01*
G75*
%ADD10C,0.01000*%
%ADD22C,0.04000*%
%ADD23C,0.05600*%
%ADD24C,0.06800*%
G36*
X483688Y312212D02*
X485053Y311646D01*
X486281Y310826D01*
X487326Y309781D01*
X488146Y308553D01*
X488712Y307188D01*
X489000Y305739D01*
Y305000D01*
Y304261D01*
X488712Y302812D01*
X488146Y301447D01*
X487326Y300219D01*
X486281Y299174D01*
X485053Y298354D01*
X483688Y297788D01*
X482239Y297500D01*
X480761D01*
X479312Y297788D01*
X477947Y298354D01*
X476719Y299174D01*
X475674Y300219D01*
X474854Y301447D01*
X474288Y302812D01*
X474000Y304261D01*
Y305000D01*
Y305739D01*
X474288Y307188D01*
X474854Y308553D01*
X475674Y309781D01*
X476719Y310826D01*
X477947Y311646D01*
X479312Y312212D01*
X480761Y312500D01*
X482239D01*
X483688Y312212D01*
D02*
G37*
G36*
X396688D02*
X398053Y311646D01*
X399281Y310826D01*
X400326Y309781D01*
X401146Y308553D01*
X401712Y307188D01*
X402000Y305739D01*
Y305000D01*
Y304261D01*
X401712Y302812D01*
X401146Y301447D01*
X400326Y300219D01*
X399281Y299174D01*
X398053Y298354D01*
X396688Y297788D01*
X395239Y297500D01*
X393761D01*
X392312Y297788D01*
X390947Y298354D01*
X389719Y299174D01*
X388674Y300219D01*
X387854Y301447D01*
X387288Y302812D01*
X387000Y304261D01*
Y305000D01*
Y305739D01*
X387288Y307188D01*
X387854Y308553D01*
X388674Y309781D01*
X389719Y310826D01*
X390947Y311646D01*
X392312Y312212D01*
X393761Y312500D01*
X395239D01*
X396688Y312212D01*
D02*
G37*
G36*
X273688D02*
X275053Y311646D01*
X276281Y310826D01*
X277326Y309781D01*
X278146Y308553D01*
X278712Y307188D01*
X279000Y305739D01*
Y305000D01*
Y304261D01*
X278712Y302812D01*
X278146Y301447D01*
X277326Y300219D01*
X276281Y299174D01*
X275053Y298354D01*
X273688Y297788D01*
X272239Y297500D01*
X270761D01*
X269312Y297788D01*
X267947Y298354D01*
X266719Y299174D01*
X265674Y300219D01*
X264854Y301447D01*
X264288Y302812D01*
X264000Y304261D01*
Y305000D01*
Y305739D01*
X264288Y307188D01*
X264854Y308553D01*
X265674Y309781D01*
X266719Y310826D01*
X267947Y311646D01*
X269312Y312212D01*
X270761Y312500D01*
X272239D01*
X273688Y312212D01*
D02*
G37*
G36*
X186688D02*
X188053Y311646D01*
X189281Y310826D01*
X190326Y309781D01*
X191146Y308553D01*
X191712Y307188D01*
X192000Y305739D01*
Y305000D01*
Y304261D01*
X191712Y302812D01*
X191146Y301447D01*
X190326Y300219D01*
X189281Y299174D01*
X188053Y298354D01*
X186688Y297788D01*
X185239Y297500D01*
X183761D01*
X182312Y297788D01*
X180947Y298354D01*
X179719Y299174D01*
X178674Y300219D01*
X177854Y301447D01*
X177288Y302812D01*
X177000Y304261D01*
Y305000D01*
Y305739D01*
X177288Y307188D01*
X177854Y308553D01*
X178674Y309781D01*
X179719Y310826D01*
X180947Y311646D01*
X182312Y312212D01*
X183761Y312500D01*
X185239D01*
X186688Y312212D01*
D02*
G37*
G36*
X421000Y288000D02*
Y286000D01*
X416000Y281000D01*
X373000D01*
X368000Y286000D01*
Y288000D01*
X373000Y293000D01*
X416000D01*
X421000Y288000D01*
D02*
G37*
G36*
X462000Y218000D02*
X461971Y218588D01*
X461742Y219742D01*
X461292Y220828D01*
X460638Y221806D01*
X459806Y222638D01*
X458828Y223291D01*
X457742Y223742D01*
X456588Y223971D01*
X455412D01*
X454258Y223742D01*
X453172Y223291D01*
X452194Y222638D01*
X451362Y221806D01*
X450708Y220828D01*
X450258Y219742D01*
X450029Y218588D01*
X450000Y218000D01*
Y259000D01*
X450029Y258412D01*
X450258Y257258D01*
X450708Y256172D01*
X451362Y255194D01*
X452194Y254362D01*
X453172Y253709D01*
X454258Y253258D01*
X455412Y253029D01*
X456588D01*
X457742Y253258D01*
X458828Y253709D01*
X459806Y254362D01*
X460638Y255194D01*
X461292Y256172D01*
X461742Y257258D01*
X461971Y258412D01*
X462000Y259000D01*
Y218000D01*
D02*
G37*
G36*
X339000D02*
X338971Y218588D01*
X338742Y219742D01*
X338292Y220828D01*
X337638Y221806D01*
X336806Y222638D01*
X335828Y223291D01*
X334742Y223742D01*
X333588Y223971D01*
X332412D01*
X331258Y223742D01*
X330172Y223291D01*
X329194Y222638D01*
X328362Y221806D01*
X327709Y220828D01*
X327258Y219742D01*
X327029Y218588D01*
X327000Y218000D01*
Y259000D01*
X327029Y258412D01*
X327258Y257258D01*
X327709Y256172D01*
X328362Y255194D01*
X329194Y254362D01*
X330172Y253709D01*
X331258Y253258D01*
X332412Y253029D01*
X333588D01*
X334742Y253258D01*
X335828Y253709D01*
X336806Y254362D01*
X337638Y255194D01*
X338292Y256172D01*
X338742Y257258D01*
X338971Y258412D01*
X339000Y259000D01*
Y218000D01*
D02*
G37*
G36*
X216000D02*
X215971Y218588D01*
X215742Y219742D01*
X215292Y220828D01*
X214638Y221806D01*
X213806Y222638D01*
X212828Y223291D01*
X211742Y223742D01*
X210588Y223971D01*
X209412D01*
X208258Y223742D01*
X207172Y223291D01*
X206194Y222638D01*
X205362Y221806D01*
X204709Y220828D01*
X204258Y219742D01*
X204029Y218588D01*
X204000Y218000D01*
Y259000D01*
X204029Y258412D01*
X204258Y257258D01*
X204709Y256172D01*
X205362Y255194D01*
X206194Y254362D01*
X207172Y253709D01*
X208258Y253258D01*
X209412Y253029D01*
X210588D01*
X211742Y253258D01*
X212828Y253709D01*
X213806Y254362D01*
X214638Y255194D01*
X215292Y256172D01*
X215742Y257258D01*
X215971Y258412D01*
X216000Y259000D01*
Y218000D01*
D02*
G37*
G36*
X186574Y269925D02*
X187917Y269565D01*
X189201Y269033D01*
X190405Y268338D01*
X191508Y267492D01*
X192000Y267000D01*
X192000Y232000D01*
X192000D01*
X191508Y231508D01*
X190405Y230662D01*
X189201Y229967D01*
X187917Y229435D01*
X186574Y229075D01*
X185195Y228893D01*
X183805D01*
X182426Y229075D01*
X181083Y229435D01*
X179799Y229967D01*
X178595Y230662D01*
X177492Y231508D01*
X177000Y232000D01*
Y267000D01*
X177492Y267492D01*
X178595Y268338D01*
X179799Y269033D01*
X181083Y269565D01*
X182426Y269925D01*
X183805Y270107D01*
X185195D01*
X186574Y269925D01*
D02*
G37*
G36*
X438000Y271000D02*
Y228000D01*
X433000Y223000D01*
X431000D01*
X426000Y228000D01*
Y271000D01*
X431000Y276000D01*
X433000D01*
X438000Y271000D01*
D02*
G37*
G36*
X363000D02*
Y228000D01*
X358000Y223000D01*
X356000D01*
X351000Y228000D01*
Y271000D01*
X356000Y276000D01*
X358000D01*
X363000Y271000D01*
D02*
G37*
G36*
X421000Y213000D02*
Y211000D01*
X416000Y206000D01*
X373000D01*
X368000Y211000D01*
Y213000D01*
X373000Y218000D01*
X416000D01*
X421000Y213000D01*
D02*
G37*
G36*
X462000Y165000D02*
X461971Y165588D01*
X461742Y166742D01*
X461292Y167828D01*
X460638Y168806D01*
X459806Y169638D01*
X458828Y170291D01*
X457742Y170742D01*
X456588Y170971D01*
X455412D01*
X454258Y170742D01*
X453172Y170291D01*
X452194Y169638D01*
X451362Y168806D01*
X450708Y167828D01*
X450258Y166742D01*
X450029Y165588D01*
X450000Y165000D01*
Y206000D01*
X450029Y205412D01*
X450258Y204258D01*
X450708Y203172D01*
X451362Y202194D01*
X452194Y201362D01*
X453172Y200709D01*
X454258Y200258D01*
X455412Y200029D01*
X456588D01*
X457742Y200258D01*
X458828Y200709D01*
X459806Y201362D01*
X460638Y202194D01*
X461292Y203172D01*
X461742Y204258D01*
X461971Y205412D01*
X462000Y206000D01*
Y165000D01*
D02*
G37*
G36*
X339000D02*
X338971Y165588D01*
X338742Y166742D01*
X338292Y167828D01*
X337638Y168806D01*
X336806Y169638D01*
X335828Y170291D01*
X334742Y170742D01*
X333588Y170971D01*
X332412D01*
X331258Y170742D01*
X330172Y170291D01*
X329194Y169638D01*
X328362Y168806D01*
X327709Y167828D01*
X327258Y166742D01*
X327029Y165588D01*
X327000Y165000D01*
Y206000D01*
X327029Y205412D01*
X327258Y204258D01*
X327709Y203172D01*
X328362Y202194D01*
X329194Y201362D01*
X330172Y200709D01*
X331258Y200258D01*
X332412Y200029D01*
X333588D01*
X334742Y200258D01*
X335828Y200709D01*
X336806Y201362D01*
X337638Y202194D01*
X338292Y203172D01*
X338742Y204258D01*
X338971Y205412D01*
X339000Y206000D01*
Y165000D01*
D02*
G37*
G36*
X216000D02*
X215971Y165588D01*
X215742Y166742D01*
X215292Y167828D01*
X214638Y168806D01*
X213806Y169638D01*
X212828Y170291D01*
X211742Y170742D01*
X210588Y170971D01*
X209412D01*
X208258Y170742D01*
X207172Y170291D01*
X206194Y169638D01*
X205362Y168806D01*
X204709Y167828D01*
X204258Y166742D01*
X204029Y165588D01*
X204000Y165000D01*
Y206000D01*
X204029Y205412D01*
X204258Y204258D01*
X204709Y203172D01*
X205362Y202194D01*
X206194Y201362D01*
X207172Y200709D01*
X208258Y200258D01*
X209412Y200029D01*
X210588D01*
X211742Y200258D01*
X212828Y200709D01*
X213806Y201362D01*
X214638Y202194D01*
X215292Y203172D01*
X215742Y204258D01*
X215971Y205412D01*
X216000Y206000D01*
Y165000D01*
D02*
G37*
G36*
X186574Y194925D02*
X187917Y194565D01*
X189201Y194033D01*
X190405Y193338D01*
X191508Y192492D01*
X192000Y192000D01*
X192000Y157000D01*
X192000D01*
X191508Y156508D01*
X190405Y155662D01*
X189201Y154967D01*
X187917Y154435D01*
X186574Y154075D01*
X185195Y153893D01*
X183805D01*
X182426Y154075D01*
X181083Y154435D01*
X179799Y154967D01*
X178595Y155662D01*
X177492Y156508D01*
X177000Y157000D01*
Y192000D01*
X177492Y192492D01*
X178595Y193338D01*
X179799Y194033D01*
X181083Y194565D01*
X182426Y194925D01*
X183805Y195107D01*
X185195D01*
X186574Y194925D01*
D02*
G37*
G36*
X438000Y196000D02*
Y153000D01*
X433000Y148000D01*
X431000D01*
X426000Y153000D01*
Y196000D01*
X431000Y201000D01*
X433000D01*
X438000Y196000D01*
D02*
G37*
G36*
X363000D02*
Y153000D01*
X358000Y148000D01*
X356000D01*
X351000Y153000D01*
Y196000D01*
X356000Y201000D01*
X358000D01*
X363000Y196000D01*
D02*
G37*
G36*
X421000Y138000D02*
Y136000D01*
X416000Y131000D01*
X373000D01*
X368000Y136000D01*
Y138000D01*
X373000Y143000D01*
X416000D01*
X421000Y138000D01*
D02*
G37*
G36*
X396688Y126212D02*
X398053Y125646D01*
X399281Y124826D01*
X400326Y123781D01*
X401146Y122553D01*
X401712Y121188D01*
X402000Y119739D01*
Y119000D01*
Y118261D01*
X401712Y116812D01*
X401146Y115447D01*
X400326Y114219D01*
X399281Y113174D01*
X398053Y112354D01*
X396688Y111788D01*
X395239Y111500D01*
X393761D01*
X392312Y111788D01*
X390947Y112354D01*
X389719Y113174D01*
X388674Y114219D01*
X387854Y115447D01*
X387288Y116812D01*
X387000Y118261D01*
Y119000D01*
Y119739D01*
X387288Y121188D01*
X387854Y122553D01*
X388674Y123781D01*
X389719Y124826D01*
X390947Y125646D01*
X392312Y126212D01*
X393761Y126500D01*
X395239D01*
X396688Y126212D01*
D02*
G37*
G36*
X273688D02*
X275053Y125646D01*
X276281Y124826D01*
X277326Y123781D01*
X278146Y122553D01*
X278712Y121188D01*
X279000Y119739D01*
Y119000D01*
Y118261D01*
X278712Y116812D01*
X278146Y115447D01*
X277326Y114219D01*
X276281Y113174D01*
X275053Y112354D01*
X273688Y111788D01*
X272239Y111500D01*
X270761D01*
X269312Y111788D01*
X267947Y112354D01*
X266719Y113174D01*
X265674Y114219D01*
X264854Y115447D01*
X264288Y116812D01*
X264000Y118261D01*
Y119000D01*
Y119739D01*
X264288Y121188D01*
X264854Y122553D01*
X265674Y123781D01*
X266719Y124826D01*
X267947Y125646D01*
X269312Y126212D01*
X270761Y126500D01*
X272239D01*
X273688Y126212D01*
D02*
G37*
G36*
X483688Y126212D02*
X485053Y125646D01*
X486281Y124826D01*
X487326Y123781D01*
X488146Y122553D01*
X488712Y121188D01*
X489000Y119739D01*
Y119000D01*
Y118261D01*
X488712Y116812D01*
X488146Y115447D01*
X487326Y114219D01*
X486281Y113174D01*
X485053Y112354D01*
X483688Y111788D01*
X482239Y111500D01*
X480761D01*
X479312Y111788D01*
X477947Y112354D01*
X476719Y113174D01*
X475674Y114219D01*
X474854Y115447D01*
X474288Y116812D01*
X474000Y118261D01*
Y119000D01*
Y119739D01*
X474288Y121188D01*
X474854Y122553D01*
X475674Y123781D01*
X476719Y124826D01*
X477947Y125646D01*
X479312Y126212D01*
X480761Y126500D01*
X482239D01*
X483688Y126212D01*
D02*
G37*
G36*
X186688D02*
X188053Y125646D01*
X189281Y124826D01*
X190326Y123781D01*
X191146Y122553D01*
X191712Y121188D01*
X192000Y119739D01*
Y119000D01*
Y118261D01*
X191712Y116812D01*
X191146Y115447D01*
X190326Y114219D01*
X189281Y113174D01*
X188053Y112354D01*
X186688Y111788D01*
X185239Y111500D01*
X183761D01*
X182312Y111788D01*
X180947Y112354D01*
X179719Y113174D01*
X178674Y114219D01*
X177854Y115447D01*
X177288Y116812D01*
X177000Y118261D01*
Y119000D01*
Y119739D01*
X177288Y121188D01*
X177854Y122553D01*
X178674Y123781D01*
X179719Y124826D01*
X180947Y125646D01*
X182312Y126212D01*
X183761Y126500D01*
X185239D01*
X186688Y126212D01*
D02*
G37*
D10*
X501000Y259000D02*
G03*
X513000Y259000I6000J0D01*
G01*
Y271000D02*
G03*
X501000Y271000I-6000J0D01*
G01*
Y206000D02*
G03*
X513000Y206000I6000J0D01*
G01*
Y218000D02*
G03*
X501000Y218000I-6000J0D01*
G01*
X513000Y165000D02*
G03*
X501000Y165000I-6000J0D01*
G01*
Y153000D02*
G03*
X513000Y153000I6000J0D01*
G01*
X204000D02*
G03*
X216000Y153000I6000J0D01*
G01*
X327000Y259000D02*
G03*
X339000Y259000I6000J0D01*
G01*
X450000Y153000D02*
G03*
X462000Y153000I6000J0D01*
G01*
X450000Y206000D02*
G03*
X462000Y206000I6000J0D01*
G01*
Y218000D02*
G03*
X450000Y218000I-6000J0D01*
G01*
Y259000D02*
G03*
X462000Y259000I6000J0D01*
G01*
X327000Y206000D02*
G03*
X339000Y206000I6000J0D01*
G01*
Y218000D02*
G03*
X327000Y218000I-6000J0D01*
G01*
Y153000D02*
G03*
X339000Y153000I6000J0D01*
G01*
X216000Y165000D02*
G03*
X204000Y165000I-6000J0D01*
G01*
Y206000D02*
G03*
X216000Y206000I6000J0D01*
G01*
Y218000D02*
G03*
X204000Y218000I-6000J0D01*
G01*
Y259000D02*
G03*
X216000Y259000I6000J0D01*
G01*
X462000Y271000D02*
G03*
X450000Y271000I-6000J0D01*
G01*
X462000Y165000D02*
G03*
X450000Y165000I-6000J0D01*
G01*
X339000Y271000D02*
G03*
X327000Y271000I-6000J0D01*
G01*
X339000Y165000D02*
G03*
X327000Y165000I-6000J0D01*
G01*
X216000Y271000D02*
G03*
X204000Y271000I-6000J0D01*
G01*
X517000Y153000D02*
G03*
X517000Y165000I0J6000D01*
G01*
Y206000D02*
G03*
X517000Y218000I0J6000D01*
G01*
Y259000D02*
G03*
X517000Y271000I0J6000D01*
G01*
X250000Y305000D02*
G03*
X216000Y271000I0J-34000D01*
G01*
X293000Y119000D02*
G03*
X327000Y153000I0J34000D01*
G01*
X216000D02*
G03*
X250000Y119000I34000J0D01*
G01*
X327000Y271000D02*
G03*
X293000Y305000I-34000J0D01*
G01*
D02*
G03*
X250000Y305000I-21500J0D01*
G01*
X279000D02*
G03*
X279000Y305000I-7500J0D01*
G01*
Y119000D02*
G03*
X279000Y119000I-7500J0D01*
G01*
X250000D02*
G03*
X293000Y119000I21500J0D01*
G01*
X165000Y119000D02*
G03*
X204000Y119000I19500J0D01*
G01*
X192000D02*
G03*
X192000Y119000I-7500J0D01*
G01*
Y305000D02*
G03*
X192000Y305000I-7500J0D01*
G01*
X204000D02*
G03*
X165000Y305000I-19500J0D01*
G01*
X192000Y267000D02*
G03*
X177000Y267000I-7500J-7500D01*
G01*
Y157000D02*
G03*
X192000Y157000I7500J7500D01*
G01*
X177000Y232000D02*
G03*
X192000Y232000I7500J7500D01*
G01*
Y192000D02*
G03*
X177000Y192000I-7500J-7500D01*
G01*
X416000Y119000D02*
G03*
X450000Y153000I0J34000D01*
G01*
X339000D02*
G03*
X373000Y119000I34000J0D01*
G01*
Y305000D02*
G03*
X339000Y271000I0J-34000D01*
G01*
X450000D02*
G03*
X416000Y305000I-34000J0D01*
G01*
D02*
G03*
X373000Y305000I-21500J0D01*
G01*
X402000D02*
G03*
X402000Y305000I-7500J0D01*
G01*
Y119000D02*
G03*
X402000Y119000I-7500J0D01*
G01*
X373000D02*
G03*
X416000Y119000I21500J0D01*
G01*
X501000Y305000D02*
G03*
X462000Y305000I-19500J0D01*
G01*
X489000D02*
G03*
X489000Y305000I-7500J0D01*
G01*
Y119000D02*
G03*
X489000Y119000I-7500J0D01*
G01*
X462000D02*
G03*
X501000Y119000I19500J0D01*
G01*
X513000Y271000D02*
X517000D01*
X513000Y259000D02*
X517000D01*
X513000Y218000D02*
X517000D01*
X513000Y206000D02*
X517000D01*
X513000Y153000D02*
X517000D01*
X513000Y165000D02*
X517000D01*
X501000Y218000D02*
Y259000D01*
Y165000D02*
Y206000D01*
X216000Y218000D02*
Y259000D01*
X462000Y165000D02*
Y206000D01*
X450000Y165000D02*
Y206000D01*
Y218000D02*
Y259000D01*
X462000Y218000D02*
Y259000D01*
X339000Y165000D02*
Y206000D01*
X327000Y165000D02*
Y206000D01*
Y218000D02*
Y259000D01*
X339000Y218000D02*
Y259000D01*
X204000Y218000D02*
Y259000D01*
Y165000D02*
Y206000D01*
X165000Y153000D02*
Y271000D01*
X216000Y165000D02*
Y206000D01*
X204000Y119000D02*
Y153000D01*
X165000Y119000D02*
Y153000D01*
X204000Y271000D02*
Y305000D01*
X165000Y271000D02*
Y305000D01*
X192000Y157000D02*
Y192000D01*
X177000Y157000D02*
Y192000D01*
X192000Y232000D02*
Y267000D01*
X177000Y232000D02*
Y267000D01*
X356000Y201000D02*
X358000D01*
X368000Y136000D02*
Y138000D01*
Y286000D02*
Y288000D01*
X356000Y276000D02*
X358000D01*
X368000Y211000D02*
Y213000D01*
X431000Y201000D02*
X433000D01*
X431000Y276000D02*
X433000D01*
Y201000D02*
X438000Y196000D01*
X358000Y201000D02*
X363000Y196000D01*
X351000D02*
X356000Y201000D01*
X426000Y196000D02*
X431000Y201000D01*
Y148000D02*
X433000D01*
X356000D02*
X358000D01*
X433000D02*
X438000Y153000D01*
X363000D02*
Y196000D01*
X426000Y153000D02*
Y196000D01*
X438000Y153000D02*
Y196000D01*
X351000Y153000D02*
X356000Y148000D01*
X358000D02*
X363000Y153000D01*
X426000D02*
X431000Y148000D01*
X351000Y153000D02*
Y196000D01*
X431000Y223000D02*
X433000D01*
X356000D02*
X358000D01*
X433000D02*
X438000Y228000D01*
X351000D02*
X356000Y223000D01*
X358000D02*
X363000Y228000D01*
X426000D02*
X431000Y223000D01*
X433000Y276000D02*
X438000Y271000D01*
X363000Y228000D02*
Y271000D01*
X426000Y228000D02*
Y271000D01*
X438000Y228000D02*
Y271000D01*
X358000Y276000D02*
X363000Y271000D01*
X351000D02*
X356000Y276000D01*
X426000Y271000D02*
X431000Y276000D01*
X351000Y228000D02*
Y271000D01*
X373000Y143000D02*
X416000D01*
X373000Y131000D02*
X416000D01*
X421000Y136000D01*
X416000Y143000D02*
X421000Y138000D01*
Y136000D02*
Y138000D01*
X368000Y136000D02*
X373000Y131000D01*
X368000Y138000D02*
X373000Y143000D01*
Y218000D02*
X416000D01*
X373000Y206000D02*
X416000D01*
X421000Y211000D01*
X416000Y218000D02*
X421000Y213000D01*
Y211000D02*
Y213000D01*
X368000Y211000D02*
X373000Y206000D01*
X368000Y213000D02*
X373000Y218000D01*
Y293000D02*
X416000D01*
X373000Y281000D02*
X416000D01*
X421000Y286000D01*
X416000Y293000D02*
X421000Y288000D01*
Y286000D02*
Y288000D01*
X368000Y286000D02*
X373000Y281000D01*
X368000Y288000D02*
X373000Y293000D01*
X462000Y271000D02*
Y305000D01*
X501000Y271000D02*
Y305000D01*
X462000Y119000D02*
Y153000D01*
X501000Y119000D02*
Y153000D01*
D22*
X185239Y126500D02*
X186688Y126212D01*
X188053Y125646D01*
X189281Y124826D01*
X190326Y123781D01*
X191146Y122553D01*
X191712Y121188D01*
X192000Y119739D01*
Y119000D02*
Y119739D01*
Y118261D02*
Y119000D01*
X191712Y116812D02*
X192000Y118261D01*
X191146Y115447D02*
X191712Y116812D01*
X190326Y114219D02*
X191146Y115447D01*
X189281Y113174D02*
X190326Y114219D01*
X188053Y112354D02*
X189281Y113174D01*
X186688Y111788D02*
X188053Y112354D01*
X185239Y111500D02*
X186688Y111788D01*
X183761Y111500D02*
X185239D01*
X182312Y111788D02*
X183761Y111500D01*
X180947Y112354D02*
X182312Y111788D01*
X179719Y113174D02*
X180947Y112354D01*
X178674Y114219D02*
X179719Y113174D01*
X177854Y115447D02*
X178674Y114219D01*
X177288Y116812D02*
X177854Y115447D01*
X177000Y118261D02*
X177288Y116812D01*
X177000Y118261D02*
Y119000D01*
Y119739D01*
X177288Y121188D01*
X177854Y122553D01*
X178674Y123781D01*
X179719Y124826D01*
X180947Y125646D01*
X182312Y126212D01*
X183761Y126500D01*
X185239D01*
X482239D02*
X483688Y126212D01*
X485053Y125646D01*
X486281Y124826D01*
X487326Y123781D01*
X488146Y122553D01*
X488712Y121188D01*
X489000Y119739D01*
Y119000D02*
Y119739D01*
Y118261D02*
Y119000D01*
X488712Y116812D02*
X489000Y118261D01*
X488146Y115447D02*
X488712Y116812D01*
X487326Y114219D02*
X488146Y115447D01*
X486281Y113174D02*
X487326Y114219D01*
X485053Y112354D02*
X486281Y113174D01*
X483688Y111788D02*
X485053Y112354D01*
X482239Y111500D02*
X483688Y111788D01*
X480761Y111500D02*
X482239D01*
X479312Y111788D02*
X480761Y111500D01*
X477947Y112354D02*
X479312Y111788D01*
X476719Y113174D02*
X477947Y112354D01*
X475674Y114219D02*
X476719Y113174D01*
X474854Y115447D02*
X475674Y114219D01*
X474288Y116812D02*
X474854Y115447D01*
X474000Y118261D02*
X474288Y116812D01*
X474000Y118261D02*
Y119000D01*
Y119739D01*
X474288Y121188D01*
X474854Y122553D01*
X475674Y123781D01*
X476719Y124826D01*
X477947Y125646D01*
X479312Y126212D01*
X480761Y126500D01*
X482239D01*
X272239Y126500D02*
X273688Y126212D01*
X275053Y125646D01*
X276281Y124826D01*
X277326Y123781D01*
X278146Y122553D01*
X278712Y121188D01*
X279000Y119739D01*
Y119000D02*
Y119739D01*
Y118261D02*
Y119000D01*
X278712Y116812D02*
X279000Y118261D01*
X278146Y115447D02*
X278712Y116812D01*
X277326Y114219D02*
X278146Y115447D01*
X276281Y113174D02*
X277326Y114219D01*
X275053Y112354D02*
X276281Y113174D01*
X273688Y111788D02*
X275053Y112354D01*
X272239Y111500D02*
X273688Y111788D01*
X270761Y111500D02*
X272239D01*
X269312Y111788D02*
X270761Y111500D01*
X267947Y112354D02*
X269312Y111788D01*
X266719Y113174D02*
X267947Y112354D01*
X265674Y114219D02*
X266719Y113174D01*
X264854Y115447D02*
X265674Y114219D01*
X264288Y116812D02*
X264854Y115447D01*
X264000Y118261D02*
X264288Y116812D01*
X264000Y118261D02*
Y119000D01*
Y119739D01*
X264288Y121188D01*
X264854Y122553D01*
X265674Y123781D01*
X266719Y124826D01*
X267947Y125646D01*
X269312Y126212D01*
X270761Y126500D01*
X272239D01*
X395239D02*
X396688Y126212D01*
X398053Y125646D01*
X399281Y124826D01*
X400326Y123781D01*
X401146Y122553D01*
X401712Y121188D01*
X402000Y119739D01*
Y119000D02*
Y119739D01*
Y118261D02*
Y119000D01*
X401712Y116812D02*
X402000Y118261D01*
X401146Y115447D02*
X401712Y116812D01*
X400326Y114219D02*
X401146Y115447D01*
X399281Y113174D02*
X400326Y114219D01*
X398053Y112354D02*
X399281Y113174D01*
X396688Y111788D02*
X398053Y112354D01*
X395239Y111500D02*
X396688Y111788D01*
X393761Y111500D02*
X395239D01*
X392312Y111788D02*
X393761Y111500D01*
X390947Y112354D02*
X392312Y111788D01*
X389719Y113174D02*
X390947Y112354D01*
X388674Y114219D02*
X389719Y113174D01*
X387854Y115447D02*
X388674Y114219D01*
X387288Y116812D02*
X387854Y115447D01*
X387000Y118261D02*
X387288Y116812D01*
X387000Y118261D02*
Y119000D01*
Y119739D01*
X387288Y121188D01*
X387854Y122553D01*
X388674Y123781D01*
X389719Y124826D01*
X390947Y125646D01*
X392312Y126212D01*
X393761Y126500D01*
X395239D01*
X416000Y143000D02*
X421000Y138000D01*
Y136000D02*
Y138000D01*
X416000Y131000D02*
X421000Y136000D01*
X373000Y131000D02*
X416000D01*
X368000Y136000D02*
X373000Y131000D01*
X368000Y136000D02*
Y138000D01*
X373000Y143000D01*
X416000D01*
X358000Y201000D02*
X363000Y196000D01*
Y153000D02*
Y196000D01*
X358000Y148000D02*
X363000Y153000D01*
X356000Y148000D02*
X358000D01*
X351000Y153000D02*
X356000Y148000D01*
X351000Y153000D02*
Y196000D01*
X356000Y201000D01*
X358000D01*
X433000D02*
X438000Y196000D01*
Y153000D02*
Y196000D01*
X433000Y148000D02*
X438000Y153000D01*
X431000Y148000D02*
X433000D01*
X426000Y153000D02*
X431000Y148000D01*
X426000Y153000D02*
Y196000D01*
X431000Y201000D01*
X433000D01*
X185195Y195107D02*
X186574Y194925D01*
X187917Y194565D01*
X189201Y194033D01*
X190405Y193338D01*
X191508Y192492D01*
X192000Y192000D01*
X192000Y157000D01*
X192000D02*
X192000D01*
X191508Y156508D02*
X192000Y157000D01*
X190405Y155662D02*
X191508Y156508D01*
X189201Y154967D02*
X190405Y155662D01*
X187917Y154435D02*
X189201Y154967D01*
X186574Y154075D02*
X187917Y154435D01*
X185195Y153893D02*
X186574Y154075D01*
X183805Y153893D02*
X185195D01*
X182426Y154075D02*
X183805Y153893D01*
X181083Y154435D02*
X182426Y154075D01*
X179799Y154967D02*
X181083Y154435D01*
X178595Y155662D02*
X179799Y154967D01*
X177492Y156508D02*
X178595Y155662D01*
X177000Y157000D02*
X177492Y156508D01*
X177000Y157000D02*
Y192000D01*
X177492Y192492D01*
X178595Y193338D01*
X179799Y194033D01*
X181083Y194565D01*
X182426Y194925D01*
X183805Y195107D01*
X185195D01*
X216000Y165000D02*
Y206000D01*
X215971Y165588D02*
X216000Y165000D01*
X215742Y166742D02*
X215971Y165588D01*
X215292Y167828D02*
X215742Y166742D01*
X214638Y168806D02*
X215292Y167828D01*
X213806Y169638D02*
X214638Y168806D01*
X212828Y170291D02*
X213806Y169638D01*
X211742Y170742D02*
X212828Y170291D01*
X210588Y170971D02*
X211742Y170742D01*
X209412Y170971D02*
X210588D01*
X208258Y170742D02*
X209412Y170971D01*
X207172Y170291D02*
X208258Y170742D01*
X206194Y169638D02*
X207172Y170291D01*
X205362Y168806D02*
X206194Y169638D01*
X204709Y167828D02*
X205362Y168806D01*
X204258Y166742D02*
X204709Y167828D01*
X204029Y165588D02*
X204258Y166742D01*
X204000Y165000D02*
X204029Y165588D01*
X204000Y165000D02*
Y206000D01*
X204029Y205412D01*
X204258Y204258D01*
X204709Y203172D01*
X205362Y202194D01*
X206194Y201362D01*
X207172Y200709D01*
X208258Y200258D01*
X209412Y200029D01*
X210588D01*
X211742Y200258D01*
X212828Y200709D01*
X213806Y201362D01*
X214638Y202194D01*
X215292Y203172D01*
X215742Y204258D01*
X215971Y205412D01*
X216000Y206000D01*
X339000Y165000D02*
Y206000D01*
X338971Y165588D02*
X339000Y165000D01*
X338742Y166742D02*
X338971Y165588D01*
X338292Y167828D02*
X338742Y166742D01*
X337638Y168806D02*
X338292Y167828D01*
X336806Y169638D02*
X337638Y168806D01*
X335828Y170291D02*
X336806Y169638D01*
X334742Y170742D02*
X335828Y170291D01*
X333588Y170971D02*
X334742Y170742D01*
X332412Y170971D02*
X333588D01*
X331258Y170742D02*
X332412Y170971D01*
X330172Y170291D02*
X331258Y170742D01*
X329194Y169638D02*
X330172Y170291D01*
X328362Y168806D02*
X329194Y169638D01*
X327709Y167828D02*
X328362Y168806D01*
X327258Y166742D02*
X327709Y167828D01*
X327029Y165588D02*
X327258Y166742D01*
X327000Y165000D02*
X327029Y165588D01*
X327000Y165000D02*
Y206000D01*
X327029Y205412D01*
X327258Y204258D01*
X327709Y203172D01*
X328362Y202194D01*
X329194Y201362D01*
X330172Y200709D01*
X331258Y200258D01*
X332412Y200029D01*
X333588D01*
X334742Y200258D01*
X335828Y200709D01*
X336806Y201362D01*
X337638Y202194D01*
X338292Y203172D01*
X338742Y204258D01*
X338971Y205412D01*
X339000Y206000D01*
X462000Y165000D02*
Y206000D01*
X461971Y165588D02*
X462000Y165000D01*
X461742Y166742D02*
X461971Y165588D01*
X461292Y167828D02*
X461742Y166742D01*
X460638Y168806D02*
X461292Y167828D01*
X459806Y169638D02*
X460638Y168806D01*
X458828Y170291D02*
X459806Y169638D01*
X457742Y170742D02*
X458828Y170291D01*
X456588Y170971D02*
X457742Y170742D01*
X455412Y170971D02*
X456588D01*
X454258Y170742D02*
X455412Y170971D01*
X453172Y170291D02*
X454258Y170742D01*
X452194Y169638D02*
X453172Y170291D01*
X451362Y168806D02*
X452194Y169638D01*
X450708Y167828D02*
X451362Y168806D01*
X450258Y166742D02*
X450708Y167828D01*
X450029Y165588D02*
X450258Y166742D01*
X450000Y165000D02*
X450029Y165588D01*
X450000Y165000D02*
Y206000D01*
X450029Y205412D01*
X450258Y204258D01*
X450708Y203172D01*
X451362Y202194D01*
X452194Y201362D01*
X453172Y200709D01*
X454258Y200258D01*
X455412Y200029D01*
X456588D01*
X457742Y200258D01*
X458828Y200709D01*
X459806Y201362D01*
X460638Y202194D01*
X461292Y203172D01*
X461742Y204258D01*
X461971Y205412D01*
X462000Y206000D01*
X416000Y218000D02*
X421000Y213000D01*
Y211000D02*
Y213000D01*
X416000Y206000D02*
X421000Y211000D01*
X373000Y206000D02*
X416000D01*
X368000Y211000D02*
X373000Y206000D01*
X368000Y211000D02*
Y213000D01*
X373000Y218000D01*
X416000D01*
X358000Y276000D02*
X363000Y271000D01*
Y228000D02*
Y271000D01*
X358000Y223000D02*
X363000Y228000D01*
X356000Y223000D02*
X358000D01*
X351000Y228000D02*
X356000Y223000D01*
X351000Y228000D02*
Y271000D01*
X356000Y276000D01*
X358000D01*
X433000D02*
X438000Y271000D01*
Y228000D02*
Y271000D01*
X433000Y223000D02*
X438000Y228000D01*
X431000Y223000D02*
X433000D01*
X426000Y228000D02*
X431000Y223000D01*
X426000Y228000D02*
Y271000D01*
X431000Y276000D01*
X433000D01*
X185195Y270107D02*
X186574Y269925D01*
X187917Y269565D01*
X189201Y269033D01*
X190405Y268338D01*
X191508Y267492D01*
X192000Y267000D01*
X192000Y232000D01*
X192000D02*
X192000D01*
X191508Y231508D02*
X192000Y232000D01*
X190405Y230662D02*
X191508Y231508D01*
X189201Y229967D02*
X190405Y230662D01*
X187917Y229435D02*
X189201Y229967D01*
X186574Y229075D02*
X187917Y229435D01*
X185195Y228893D02*
X186574Y229075D01*
X183805Y228893D02*
X185195D01*
X182426Y229075D02*
X183805Y228893D01*
X181083Y229435D02*
X182426Y229075D01*
X179799Y229967D02*
X181083Y229435D01*
X178595Y230662D02*
X179799Y229967D01*
X177492Y231508D02*
X178595Y230662D01*
X177000Y232000D02*
X177492Y231508D01*
X177000Y232000D02*
Y267000D01*
X177492Y267492D01*
X178595Y268338D01*
X179799Y269033D01*
X181083Y269565D01*
X182426Y269925D01*
X183805Y270107D01*
X185195D01*
X216000Y218000D02*
Y259000D01*
X215971Y218588D02*
X216000Y218000D01*
X215742Y219742D02*
X215971Y218588D01*
X215292Y220828D02*
X215742Y219742D01*
X214638Y221806D02*
X215292Y220828D01*
X213806Y222638D02*
X214638Y221806D01*
X212828Y223291D02*
X213806Y222638D01*
X211742Y223742D02*
X212828Y223291D01*
X210588Y223971D02*
X211742Y223742D01*
X209412Y223971D02*
X210588D01*
X208258Y223742D02*
X209412Y223971D01*
X207172Y223291D02*
X208258Y223742D01*
X206194Y222638D02*
X207172Y223291D01*
X205362Y221806D02*
X206194Y222638D01*
X204709Y220828D02*
X205362Y221806D01*
X204258Y219742D02*
X204709Y220828D01*
X204029Y218588D02*
X204258Y219742D01*
X204000Y218000D02*
X204029Y218588D01*
X204000Y218000D02*
Y259000D01*
X204029Y258412D01*
X204258Y257258D01*
X204709Y256172D01*
X205362Y255194D01*
X206194Y254362D01*
X207172Y253709D01*
X208258Y253258D01*
X209412Y253029D01*
X210588D01*
X211742Y253258D01*
X212828Y253709D01*
X213806Y254362D01*
X214638Y255194D01*
X215292Y256172D01*
X215742Y257258D01*
X215971Y258412D01*
X216000Y259000D01*
X339000Y218000D02*
Y259000D01*
X338971Y218588D02*
X339000Y218000D01*
X338742Y219742D02*
X338971Y218588D01*
X338292Y220828D02*
X338742Y219742D01*
X337638Y221806D02*
X338292Y220828D01*
X336806Y222638D02*
X337638Y221806D01*
X335828Y223291D02*
X336806Y222638D01*
X334742Y223742D02*
X335828Y223291D01*
X333588Y223971D02*
X334742Y223742D01*
X332412Y223971D02*
X333588D01*
X331258Y223742D02*
X332412Y223971D01*
X330172Y223291D02*
X331258Y223742D01*
X329194Y222638D02*
X330172Y223291D01*
X328362Y221806D02*
X329194Y222638D01*
X327709Y220828D02*
X328362Y221806D01*
X327258Y219742D02*
X327709Y220828D01*
X327029Y218588D02*
X327258Y219742D01*
X327000Y218000D02*
X327029Y218588D01*
X327000Y218000D02*
Y259000D01*
X327029Y258412D01*
X327258Y257258D01*
X327709Y256172D01*
X328362Y255194D01*
X329194Y254362D01*
X330172Y253709D01*
X331258Y253258D01*
X332412Y253029D01*
X333588D01*
X334742Y253258D01*
X335828Y253709D01*
X336806Y254362D01*
X337638Y255194D01*
X338292Y256172D01*
X338742Y257258D01*
X338971Y258412D01*
X339000Y259000D01*
X462000Y218000D02*
Y259000D01*
X461971Y218588D02*
X462000Y218000D01*
X461742Y219742D02*
X461971Y218588D01*
X461292Y220828D02*
X461742Y219742D01*
X460638Y221806D02*
X461292Y220828D01*
X459806Y222638D02*
X460638Y221806D01*
X458828Y223291D02*
X459806Y222638D01*
X457742Y223742D02*
X458828Y223291D01*
X456588Y223971D02*
X457742Y223742D01*
X455412Y223971D02*
X456588D01*
X454258Y223742D02*
X455412Y223971D01*
X453172Y223291D02*
X454258Y223742D01*
X452194Y222638D02*
X453172Y223291D01*
X451362Y221806D02*
X452194Y222638D01*
X450708Y220828D02*
X451362Y221806D01*
X450258Y219742D02*
X450708Y220828D01*
X450029Y218588D02*
X450258Y219742D01*
X450000Y218000D02*
X450029Y218588D01*
X450000Y218000D02*
Y259000D01*
X450029Y258412D01*
X450258Y257258D01*
X450708Y256172D01*
X451362Y255194D01*
X452194Y254362D01*
X453172Y253709D01*
X454258Y253258D01*
X455412Y253029D01*
X456588D01*
X457742Y253258D01*
X458828Y253709D01*
X459806Y254362D01*
X460638Y255194D01*
X461292Y256172D01*
X461742Y257258D01*
X461971Y258412D01*
X462000Y259000D01*
X416000Y293000D02*
X421000Y288000D01*
Y286000D02*
Y288000D01*
X416000Y281000D02*
X421000Y286000D01*
X373000Y281000D02*
X416000D01*
X368000Y286000D02*
X373000Y281000D01*
X368000Y286000D02*
Y288000D01*
X373000Y293000D01*
X416000D01*
X185239Y312500D02*
X186688Y312212D01*
X188053Y311646D01*
X189281Y310826D01*
X190326Y309781D01*
X191146Y308553D01*
X191712Y307188D01*
X192000Y305739D01*
Y305000D02*
Y305739D01*
Y304261D02*
Y305000D01*
X191712Y302812D02*
X192000Y304261D01*
X191146Y301447D02*
X191712Y302812D01*
X190326Y300219D02*
X191146Y301447D01*
X189281Y299174D02*
X190326Y300219D01*
X188053Y298354D02*
X189281Y299174D01*
X186688Y297788D02*
X188053Y298354D01*
X185239Y297500D02*
X186688Y297788D01*
X183761Y297500D02*
X185239D01*
X182312Y297788D02*
X183761Y297500D01*
X180947Y298354D02*
X182312Y297788D01*
X179719Y299174D02*
X180947Y298354D01*
X178674Y300219D02*
X179719Y299174D01*
X177854Y301447D02*
X178674Y300219D01*
X177288Y302812D02*
X177854Y301447D01*
X177000Y304261D02*
X177288Y302812D01*
X177000Y304261D02*
Y305000D01*
Y305739D01*
X177288Y307188D01*
X177854Y308553D01*
X178674Y309781D01*
X179719Y310826D01*
X180947Y311646D01*
X182312Y312212D01*
X183761Y312500D01*
X185239D01*
X272239D02*
X273688Y312212D01*
X275053Y311646D01*
X276281Y310826D01*
X277326Y309781D01*
X278146Y308553D01*
X278712Y307188D01*
X279000Y305739D01*
Y305000D02*
Y305739D01*
Y304261D02*
Y305000D01*
X278712Y302812D02*
X279000Y304261D01*
X278146Y301447D02*
X278712Y302812D01*
X277326Y300219D02*
X278146Y301447D01*
X276281Y299174D02*
X277326Y300219D01*
X275053Y298354D02*
X276281Y299174D01*
X273688Y297788D02*
X275053Y298354D01*
X272239Y297500D02*
X273688Y297788D01*
X270761Y297500D02*
X272239D01*
X269312Y297788D02*
X270761Y297500D01*
X267947Y298354D02*
X269312Y297788D01*
X266719Y299174D02*
X267947Y298354D01*
X265674Y300219D02*
X266719Y299174D01*
X264854Y301447D02*
X265674Y300219D01*
X264288Y302812D02*
X264854Y301447D01*
X264000Y304261D02*
X264288Y302812D01*
X264000Y304261D02*
Y305000D01*
Y305739D01*
X264288Y307188D01*
X264854Y308553D01*
X265674Y309781D01*
X266719Y310826D01*
X267947Y311646D01*
X269312Y312212D01*
X270761Y312500D01*
X272239D01*
X395239D02*
X396688Y312212D01*
X398053Y311646D01*
X399281Y310826D01*
X400326Y309781D01*
X401146Y308553D01*
X401712Y307188D01*
X402000Y305739D01*
Y305000D02*
Y305739D01*
Y304261D02*
Y305000D01*
X401712Y302812D02*
X402000Y304261D01*
X401146Y301447D02*
X401712Y302812D01*
X400326Y300219D02*
X401146Y301447D01*
X399281Y299174D02*
X400326Y300219D01*
X398053Y298354D02*
X399281Y299174D01*
X396688Y297788D02*
X398053Y298354D01*
X395239Y297500D02*
X396688Y297788D01*
X393761Y297500D02*
X395239D01*
X392312Y297788D02*
X393761Y297500D01*
X390947Y298354D02*
X392312Y297788D01*
X389719Y299174D02*
X390947Y298354D01*
X388674Y300219D02*
X389719Y299174D01*
X387854Y301447D02*
X388674Y300219D01*
X387288Y302812D02*
X387854Y301447D01*
X387000Y304261D02*
X387288Y302812D01*
X387000Y304261D02*
Y305000D01*
Y305739D01*
X387288Y307188D01*
X387854Y308553D01*
X388674Y309781D01*
X389719Y310826D01*
X390947Y311646D01*
X392312Y312212D01*
X393761Y312500D01*
X395239D01*
X482239D02*
X483688Y312212D01*
X485053Y311646D01*
X486281Y310826D01*
X487326Y309781D01*
X488146Y308553D01*
X488712Y307188D01*
X489000Y305739D01*
Y305000D02*
Y305739D01*
Y304261D02*
Y305000D01*
X488712Y302812D02*
X489000Y304261D01*
X488146Y301447D02*
X488712Y302812D01*
X487326Y300219D02*
X488146Y301447D01*
X486281Y299174D02*
X487326Y300219D01*
X485053Y298354D02*
X486281Y299174D01*
X483688Y297788D02*
X485053Y298354D01*
X482239Y297500D02*
X483688Y297788D01*
X480761Y297500D02*
X482239D01*
X479312Y297788D02*
X480761Y297500D01*
X477947Y298354D02*
X479312Y297788D01*
X476719Y299174D02*
X477947Y298354D01*
X475674Y300219D02*
X476719Y299174D01*
X474854Y301447D02*
X475674Y300219D01*
X474288Y302812D02*
X474854Y301447D01*
X474000Y304261D02*
X474288Y302812D01*
X474000Y304261D02*
Y305000D01*
Y305739D01*
X474288Y307188D01*
X474854Y308553D01*
X475674Y309781D01*
X476719Y310826D01*
X477947Y311646D01*
X479312Y312212D01*
X480761Y312500D01*
X482239D01*
X395909Y326500D02*
X398703Y326132D01*
X393091Y326500D02*
X395909D01*
X390297Y326132D02*
X393091Y326500D01*
X387574Y325403D02*
X390297Y326132D01*
X384970Y324324D02*
X387574Y325403D01*
X382530Y322915D02*
X384970Y324324D01*
X380294Y321199D02*
X382530Y322915D01*
X378301Y319206D02*
X380294Y321199D01*
X376585Y316970D02*
X378301Y319206D01*
X375176Y314530D02*
X376585Y316970D01*
X374097Y311926D02*
X375176Y314530D01*
X373368Y309203D02*
X374097Y311926D01*
X373000Y306409D02*
X373368Y309203D01*
X373000Y305000D02*
Y306409D01*
X371330Y305000D02*
X373000D01*
X368005Y304673D02*
X371330Y305000D01*
X364729Y304021D02*
X368005Y304673D01*
X361532Y303051D02*
X364729Y304021D01*
X358446Y301773D02*
X361532Y303051D01*
X355499Y300198D02*
X358446Y301773D01*
X352722Y298342D02*
X355499Y300198D01*
X350139Y296223D02*
X352722Y298342D01*
X347777Y293861D02*
X350139Y296223D01*
X345658Y291278D02*
X347777Y293861D01*
X343802Y288501D02*
X345658Y291278D01*
X342227Y285554D02*
X343802Y288501D01*
X340949Y282468D02*
X342227Y285554D01*
X339979Y279271D02*
X340949Y282468D01*
X339327Y275995D02*
X339979Y279271D01*
X339000Y272670D02*
X339327Y275995D01*
X339000Y271591D02*
Y272670D01*
X338769Y272750D02*
X339000Y271591D01*
X338317Y273842D02*
X338769Y272750D01*
X337661Y274825D02*
X338317Y273842D01*
X336825Y275660D02*
X337661Y274825D01*
X335842Y276317D02*
X336825Y275660D01*
X334750Y276769D02*
X335842Y276317D01*
X333591Y277000D02*
X334750Y276769D01*
X332409Y277000D02*
X333591D01*
X331250Y276769D02*
X332409Y277000D01*
X330158Y276317D02*
X331250Y276769D01*
X329175Y275660D02*
X330158Y276317D01*
X328340Y274825D02*
X329175Y275660D01*
X327683Y273842D02*
X328340Y274825D01*
X327231Y272750D02*
X327683Y273842D01*
X327000Y271591D02*
X327231Y272750D01*
X327000Y271591D02*
Y272670D01*
X326673Y275995D02*
X327000Y272670D01*
X326021Y279271D02*
X326673Y275995D01*
X325051Y282468D02*
X326021Y279271D01*
X323773Y285554D02*
X325051Y282468D01*
X322198Y288501D02*
X323773Y285554D01*
X320342Y291278D02*
X322198Y288501D01*
X318223Y293861D02*
X320342Y291278D01*
X315861Y296223D02*
X318223Y293861D01*
X313278Y298342D02*
X315861Y296223D01*
X310501Y300198D02*
X313278Y298342D01*
X307554Y301773D02*
X310501Y300198D01*
X304468Y303051D02*
X307554Y301773D01*
X301271Y304021D02*
X304468Y303051D01*
X297995Y304673D02*
X301271Y304021D01*
X294670Y305000D02*
X297995Y304673D01*
X293000Y305000D02*
X294670D01*
X293000D02*
Y306409D01*
X292632Y309203D02*
X293000Y306409D01*
X291903Y311926D02*
X292632Y309203D01*
X290824Y314530D02*
X291903Y311926D01*
X289415Y316970D02*
X290824Y314530D01*
X287699Y319206D02*
X289415Y316970D01*
X285706Y321199D02*
X287699Y319206D01*
X283470Y322915D02*
X285706Y321199D01*
X281030Y324324D02*
X283470Y322915D01*
X278426Y325403D02*
X281030Y324324D01*
X275703Y326132D02*
X278426Y325403D01*
X272909Y326500D02*
X275703Y326132D01*
X270091Y326500D02*
X272909D01*
X267297Y326132D02*
X270091Y326500D01*
X264574Y325403D02*
X267297Y326132D01*
X261970Y324324D02*
X264574Y325403D01*
X259530Y322915D02*
X261970Y324324D01*
X257294Y321199D02*
X259530Y322915D01*
X255301Y319206D02*
X257294Y321199D01*
X253585Y316970D02*
X255301Y319206D01*
X252176Y314530D02*
X253585Y316970D01*
X251097Y311926D02*
X252176Y314530D01*
X250368Y309203D02*
X251097Y311926D01*
X250000Y306409D02*
X250368Y309203D01*
X250000Y305000D02*
Y306409D01*
X248330Y305000D02*
X250000D01*
X245005Y304673D02*
X248330Y305000D01*
X241729Y304021D02*
X245005Y304673D01*
X238532Y303051D02*
X241729Y304021D01*
X235446Y301773D02*
X238532Y303051D01*
X232499Y300198D02*
X235446Y301773D01*
X229722Y298342D02*
X232499Y300198D01*
X227139Y296223D02*
X229722Y298342D01*
X224777Y293861D02*
X227139Y296223D01*
X222658Y291278D02*
X224777Y293861D01*
X220802Y288501D02*
X222658Y291278D01*
X219227Y285554D02*
X220802Y288501D01*
X217949Y282468D02*
X219227Y285554D01*
X216979Y279271D02*
X217949Y282468D01*
X216327Y275995D02*
X216979Y279271D01*
X216000Y272670D02*
X216327Y275995D01*
X216000Y271591D02*
Y272670D01*
X215769Y272750D02*
X216000Y271591D01*
X215317Y273842D02*
X215769Y272750D01*
X214661Y274825D02*
X215317Y273842D01*
X213825Y275660D02*
X214661Y274825D01*
X212842Y276317D02*
X213825Y275660D01*
X211750Y276769D02*
X212842Y276317D01*
X210591Y277000D02*
X211750Y276769D01*
X209409Y277000D02*
X210591D01*
X208250Y276769D02*
X209409Y277000D01*
X207158Y276317D02*
X208250Y276769D01*
X206175Y275660D02*
X207158Y276317D01*
X205340Y274825D02*
X206175Y275660D01*
X204683Y273842D02*
X205340Y274825D01*
X204231Y272750D02*
X204683Y273842D01*
X204000Y271591D02*
X204231Y272750D01*
X204000Y271591D02*
Y305000D01*
Y306278D01*
X203666Y308812D02*
X204000Y306278D01*
X203005Y311281D02*
X203666Y308812D01*
X202027Y313643D02*
X203005Y311281D01*
X200748Y315857D02*
X202027Y313643D01*
X199192Y317885D02*
X200748Y315857D01*
X197385Y319692D02*
X199192Y317885D01*
X195357Y321248D02*
X197385Y319692D01*
X193143Y322527D02*
X195357Y321248D01*
X190781Y323505D02*
X193143Y322527D01*
X188312Y324166D02*
X190781Y323505D01*
X185778Y324500D02*
X188312Y324166D01*
X183222Y324500D02*
X185778D01*
X180688Y324166D02*
X183222Y324500D01*
X178218Y323505D02*
X180688Y324166D01*
X175857Y322527D02*
X178218Y323505D01*
X173643Y321248D02*
X175857Y322527D01*
X171615Y319692D02*
X173643Y321248D01*
X169808Y317885D02*
X171615Y319692D01*
X168252Y315857D02*
X169808Y317885D01*
X166973Y313643D02*
X168252Y315857D01*
X165995Y311281D02*
X166973Y313643D01*
X165334Y308812D02*
X165995Y311281D01*
X165000Y306278D02*
X165334Y308812D01*
X165000Y305000D02*
Y306278D01*
Y119000D02*
Y305000D01*
Y117722D02*
Y119000D01*
Y117722D02*
X165334Y115188D01*
X165995Y112718D01*
X166973Y110357D01*
X168252Y108143D01*
X169808Y106115D01*
X171615Y104308D01*
X173643Y102752D01*
X175857Y101473D01*
X178218Y100495D01*
X180688Y99834D01*
X183222Y99500D01*
X185778D01*
X188312Y99834D01*
X190781Y100495D01*
X193143Y101473D01*
X195357Y102752D01*
X197385Y104308D01*
X199192Y106115D01*
X200748Y108143D01*
X202027Y110357D01*
X203005Y112718D01*
X203666Y115188D01*
X204000Y117722D01*
Y119000D01*
Y152409D01*
X204231Y151250D01*
X204683Y150158D01*
X205340Y149175D01*
X206175Y148339D01*
X207158Y147683D01*
X208250Y147231D01*
X209409Y147000D01*
X210591D01*
X211750Y147231D01*
X212842Y147683D01*
X213825Y148339D01*
X214661Y149175D01*
X215317Y150158D01*
X215769Y151250D01*
X216000Y152409D01*
Y151330D02*
Y152409D01*
Y151330D02*
X216327Y148005D01*
X216979Y144729D01*
X217949Y141532D01*
X219227Y138446D01*
X220802Y135499D01*
X222658Y132722D01*
X224777Y130140D01*
X227139Y127777D01*
X229722Y125658D01*
X232499Y123802D01*
X235446Y122227D01*
X238532Y120949D01*
X241729Y119979D01*
X245005Y119327D01*
X248330Y119000D01*
X250000D01*
Y117591D02*
Y119000D01*
Y117591D02*
X250368Y114797D01*
X251097Y112074D01*
X252176Y109470D01*
X253585Y107030D01*
X255301Y104794D01*
X257294Y102801D01*
X259530Y101085D01*
X261970Y99676D01*
X264574Y98597D01*
X267297Y97868D01*
X270091Y97500D01*
X272909D01*
X275703Y97868D01*
X278426Y98597D01*
X281030Y99676D01*
X283470Y101085D01*
X285706Y102801D01*
X287699Y104794D01*
X289415Y107030D01*
X290824Y109470D01*
X291903Y112074D01*
X292632Y114797D01*
X293000Y117591D01*
Y119000D01*
X294670Y119000D01*
X297995Y119327D01*
X301271Y119979D01*
X304468Y120949D01*
X307554Y122227D01*
X310501Y123802D01*
X313278Y125658D01*
X315861Y127777D01*
X318223Y130140D01*
X320342Y132722D01*
X322198Y135499D01*
X323773Y138446D01*
X325051Y141532D01*
X326021Y144729D01*
X326673Y148005D01*
X327000Y151330D01*
Y152409D01*
X327231Y151250D01*
X327683Y150158D01*
X328340Y149175D01*
X329175Y148339D01*
X330158Y147683D01*
X331250Y147231D01*
X332409Y147000D01*
X333591D01*
X334750Y147231D01*
X335842Y147683D01*
X336825Y148339D01*
X337661Y149175D01*
X338317Y150158D01*
X338769Y151250D01*
X339000Y152409D01*
Y151330D02*
Y152409D01*
Y151330D02*
X339327Y148005D01*
X339979Y144729D01*
X340949Y141532D01*
X342227Y138446D01*
X343802Y135499D01*
X345658Y132722D01*
X347777Y130140D01*
X350139Y127777D01*
X352722Y125658D01*
X355499Y123802D01*
X358446Y122227D01*
X361532Y120949D01*
X364729Y119979D01*
X368005Y119327D01*
X371330Y119000D01*
X373000D01*
Y117591D02*
Y119000D01*
Y117591D02*
X373368Y114797D01*
X374097Y112074D01*
X375176Y109470D01*
X376585Y107030D01*
X378301Y104794D01*
X380294Y102801D01*
X382530Y101085D01*
X384970Y99676D01*
X387574Y98597D01*
X390297Y97868D01*
X393091Y97500D01*
X395909D01*
X398703Y97868D01*
X401426Y98597D01*
X404030Y99676D01*
X406470Y101085D01*
X408706Y102801D01*
X410699Y104794D01*
X412415Y107030D01*
X413824Y109470D01*
X414903Y112074D01*
X415632Y114797D01*
X416000Y117591D01*
Y119000D01*
X417670Y119000D01*
X420995Y119327D01*
X424271Y119979D01*
X427468Y120949D01*
X430554Y122227D01*
X433501Y123802D01*
X436278Y125658D01*
X438861Y127777D01*
X441223Y130140D01*
X443342Y132722D01*
X445198Y135499D01*
X446773Y138446D01*
X448051Y141532D01*
X449021Y144729D01*
X449673Y148005D01*
X450000Y151330D01*
Y152409D01*
X450231Y151250D01*
X450683Y150158D01*
X451339Y149175D01*
X452175Y148339D01*
X453158Y147683D01*
X454250Y147231D01*
X455409Y147000D01*
X456591D01*
X457750Y147231D01*
X458842Y147683D01*
X459825Y148339D01*
X460661Y149175D01*
X461317Y150158D01*
X461769Y151250D01*
X462000Y152409D01*
Y119000D02*
Y152409D01*
Y117722D02*
Y119000D01*
Y117722D02*
X462334Y115188D01*
X462995Y112718D01*
X463973Y110357D01*
X465252Y108143D01*
X466808Y106115D01*
X468615Y104308D01*
X470643Y102752D01*
X472857Y101473D01*
X475218Y100495D01*
X477688Y99834D01*
X480222Y99500D01*
X482778D01*
X485312Y99834D01*
X487781Y100495D01*
X490143Y101473D01*
X492357Y102752D01*
X494385Y104308D01*
X496192Y106115D01*
X497748Y108143D01*
X499026Y110357D01*
X500005Y112718D01*
X500666Y115188D01*
X501000Y117722D01*
Y119000D01*
Y152409D01*
X501231Y151250D01*
X501683Y150158D01*
X502340Y149175D01*
X503175Y148339D01*
X504158Y147683D01*
X505250Y147231D01*
X506409Y147000D01*
X507591D01*
X508750Y147231D01*
X509842Y147683D01*
X510825Y148339D01*
X511660Y149175D01*
X512317Y150158D01*
X512769Y151250D01*
X513000Y152409D01*
Y153000D01*
X517591D01*
X518750Y153231D01*
X519842Y153683D01*
X520825Y154340D01*
X521661Y155175D01*
X522317Y156158D01*
X522769Y157250D01*
X523000Y158409D01*
Y159591D01*
X522769Y160750D02*
X523000Y159591D01*
X522317Y161842D02*
X522769Y160750D01*
X521661Y162825D02*
X522317Y161842D01*
X520825Y163661D02*
X521661Y162825D01*
X519842Y164317D02*
X520825Y163661D01*
X518750Y164769D02*
X519842Y164317D01*
X517591Y165000D02*
X518750Y164769D01*
X513000Y165000D02*
X517591D01*
X513000D02*
Y165591D01*
X512769Y166750D02*
X513000Y165591D01*
X512317Y167842D02*
X512769Y166750D01*
X511660Y168825D02*
X512317Y167842D01*
X510825Y169660D02*
X511660Y168825D01*
X509842Y170317D02*
X510825Y169660D01*
X508750Y170769D02*
X509842Y170317D01*
X507591Y171000D02*
X508750Y170769D01*
X506409Y171000D02*
X507591D01*
X505250Y170769D02*
X506409Y171000D01*
X504158Y170317D02*
X505250Y170769D01*
X503175Y169660D02*
X504158Y170317D01*
X502340Y168825D02*
X503175Y169660D01*
X501683Y167842D02*
X502340Y168825D01*
X501231Y166750D02*
X501683Y167842D01*
X501000Y165591D02*
X501231Y166750D01*
X501000Y165591D02*
Y205409D01*
X501231Y204250D01*
X501683Y203158D01*
X502340Y202175D01*
X503175Y201340D01*
X504158Y200683D01*
X505250Y200231D01*
X506409Y200000D01*
X507591D01*
X508750Y200231D01*
X509842Y200683D01*
X510825Y201340D01*
X511660Y202175D01*
X512317Y203158D01*
X512769Y204250D01*
X513000Y205409D01*
Y206000D01*
X517591D01*
X518750Y206231D01*
X519842Y206683D01*
X520825Y207340D01*
X521661Y208175D01*
X522317Y209158D01*
X522769Y210250D01*
X523000Y211409D01*
Y212591D01*
X522769Y213750D02*
X523000Y212591D01*
X522317Y214842D02*
X522769Y213750D01*
X521661Y215825D02*
X522317Y214842D01*
X520825Y216660D02*
X521661Y215825D01*
X519842Y217317D02*
X520825Y216660D01*
X518750Y217769D02*
X519842Y217317D01*
X517591Y218000D02*
X518750Y217769D01*
X513000Y218000D02*
X517591D01*
X513000D02*
Y218591D01*
X512769Y219750D02*
X513000Y218591D01*
X512317Y220842D02*
X512769Y219750D01*
X511660Y221825D02*
X512317Y220842D01*
X510825Y222660D02*
X511660Y221825D01*
X509842Y223317D02*
X510825Y222660D01*
X508750Y223769D02*
X509842Y223317D01*
X507591Y224000D02*
X508750Y223769D01*
X506409Y224000D02*
X507591D01*
X505250Y223769D02*
X506409Y224000D01*
X504158Y223317D02*
X505250Y223769D01*
X503175Y222660D02*
X504158Y223317D01*
X502340Y221825D02*
X503175Y222660D01*
X501683Y220842D02*
X502340Y221825D01*
X501231Y219750D02*
X501683Y220842D01*
X501000Y218591D02*
X501231Y219750D01*
X501000Y218591D02*
Y258409D01*
X501231Y257250D01*
X501683Y256158D01*
X502340Y255175D01*
X503175Y254340D01*
X504158Y253683D01*
X505250Y253231D01*
X506409Y253000D01*
X507591D01*
X508750Y253231D01*
X509842Y253683D01*
X510825Y254340D01*
X511660Y255175D01*
X512317Y256158D01*
X512769Y257250D01*
X513000Y258409D01*
Y259000D01*
X517591D01*
X518750Y259231D01*
X519842Y259683D01*
X520825Y260339D01*
X521661Y261175D01*
X522317Y262158D01*
X522769Y263250D01*
X523000Y264409D01*
Y265591D01*
X522769Y266750D02*
X523000Y265591D01*
X522317Y267842D02*
X522769Y266750D01*
X521661Y268825D02*
X522317Y267842D01*
X520825Y269660D02*
X521661Y268825D01*
X519842Y270317D02*
X520825Y269660D01*
X518750Y270769D02*
X519842Y270317D01*
X517591Y271000D02*
X518750Y270769D01*
X513000Y271000D02*
X517591D01*
X513000D02*
Y271591D01*
X512769Y272750D02*
X513000Y271591D01*
X512317Y273842D02*
X512769Y272750D01*
X511660Y274825D02*
X512317Y273842D01*
X510825Y275660D02*
X511660Y274825D01*
X509842Y276317D02*
X510825Y275660D01*
X508750Y276769D02*
X509842Y276317D01*
X507591Y277000D02*
X508750Y276769D01*
X506409Y277000D02*
X507591D01*
X505250Y276769D02*
X506409Y277000D01*
X504158Y276317D02*
X505250Y276769D01*
X503175Y275660D02*
X504158Y276317D01*
X502340Y274825D02*
X503175Y275660D01*
X501683Y273842D02*
X502340Y274825D01*
X501231Y272750D02*
X501683Y273842D01*
X501000Y271591D02*
X501231Y272750D01*
X501000Y271591D02*
Y305000D01*
Y306278D01*
X500666Y308812D02*
X501000Y306278D01*
X500005Y311281D02*
X500666Y308812D01*
X499026Y313643D02*
X500005Y311281D01*
X497748Y315857D02*
X499026Y313643D01*
X496192Y317885D02*
X497748Y315857D01*
X494385Y319692D02*
X496192Y317885D01*
X492357Y321248D02*
X494385Y319692D01*
X490143Y322527D02*
X492357Y321248D01*
X487781Y323505D02*
X490143Y322527D01*
X485312Y324166D02*
X487781Y323505D01*
X482778Y324500D02*
X485312Y324166D01*
X480222Y324500D02*
X482778D01*
X477688Y324166D02*
X480222Y324500D01*
X475218Y323505D02*
X477688Y324166D01*
X472857Y322527D02*
X475218Y323505D01*
X470643Y321248D02*
X472857Y322527D01*
X468615Y319692D02*
X470643Y321248D01*
X466808Y317885D02*
X468615Y319692D01*
X465252Y315857D02*
X466808Y317885D01*
X463973Y313643D02*
X465252Y315857D01*
X462995Y311281D02*
X463973Y313643D01*
X462334Y308812D02*
X462995Y311281D01*
X462000Y306278D02*
X462334Y308812D01*
X462000Y305000D02*
Y306278D01*
Y271591D02*
Y305000D01*
X461769Y272750D02*
X462000Y271591D01*
X461317Y273842D02*
X461769Y272750D01*
X460661Y274825D02*
X461317Y273842D01*
X459825Y275660D02*
X460661Y274825D01*
X458842Y276317D02*
X459825Y275660D01*
X457750Y276769D02*
X458842Y276317D01*
X456591Y277000D02*
X457750Y276769D01*
X455409Y277000D02*
X456591D01*
X454250Y276769D02*
X455409Y277000D01*
X453158Y276317D02*
X454250Y276769D01*
X452175Y275660D02*
X453158Y276317D01*
X451339Y274825D02*
X452175Y275660D01*
X450683Y273842D02*
X451339Y274825D01*
X450231Y272750D02*
X450683Y273842D01*
X450000Y271591D02*
X450231Y272750D01*
X450000Y271591D02*
Y272670D01*
X449673Y275995D02*
X450000Y272670D01*
X449021Y279271D02*
X449673Y275995D01*
X448051Y282468D02*
X449021Y279271D01*
X446773Y285554D02*
X448051Y282468D01*
X445198Y288501D02*
X446773Y285554D01*
X443342Y291278D02*
X445198Y288501D01*
X441223Y293861D02*
X443342Y291278D01*
X438861Y296223D02*
X441223Y293861D01*
X436278Y298342D02*
X438861Y296223D01*
X433501Y300198D02*
X436278Y298342D01*
X430554Y301773D02*
X433501Y300198D01*
X427468Y303051D02*
X430554Y301773D01*
X424271Y304021D02*
X427468Y303051D01*
X420995Y304673D02*
X424271Y304021D01*
X417670Y305000D02*
X420995Y304673D01*
X416000Y305000D02*
X417670D01*
X416000D02*
Y306409D01*
X415632Y309203D02*
X416000Y306409D01*
X414903Y311926D02*
X415632Y309203D01*
X413824Y314530D02*
X414903Y311926D01*
X412415Y316970D02*
X413824Y314530D01*
X410699Y319206D02*
X412415Y316970D01*
X408706Y321199D02*
X410699Y319206D01*
X406470Y322915D02*
X408706Y321199D01*
X404030Y324324D02*
X406470Y322915D01*
X401426Y325403D02*
X404030Y324324D01*
X398703Y326132D02*
X401426Y325403D01*
D23*
X210000Y261000D02*
D03*
X220000Y265000D02*
D03*
X200000D02*
D03*
Y212000D02*
D03*
X220000D02*
D03*
X210000Y208000D02*
D03*
X333000D02*
D03*
X343000Y212000D02*
D03*
X323000D02*
D03*
X446000Y265000D02*
D03*
X466000D02*
D03*
X456000Y261000D02*
D03*
X507000D02*
D03*
X517000Y265000D02*
D03*
X497000D02*
D03*
X446000Y212000D02*
D03*
X466000D02*
D03*
X456000Y208000D02*
D03*
X507000D02*
D03*
X517000Y212000D02*
D03*
X497000D02*
D03*
X323000Y265000D02*
D03*
X343000D02*
D03*
X333000Y261000D02*
D03*
X474000Y152500D02*
D03*
X471492Y232508D02*
D03*
X243000Y185500D02*
D03*
X261500Y146000D02*
D03*
X299500Y164000D02*
D03*
X300500Y238500D02*
D03*
X283500Y277500D02*
D03*
X286000Y204500D02*
D03*
X243500Y231500D02*
D03*
X306334Y209835D02*
D03*
D24*
X224000Y271000D02*
D03*
X470000D02*
D03*
X470500Y280000D02*
D03*
X347000Y271000D02*
D03*
X347500Y280000D02*
D03*
X224500D02*
D03*
M02*
