M48
;Layer_Color=9474304
;FILE_FORMAT=2:4
INCH,LZ
;TYPE=PLATED
T1F00S00C0.0160
T2F00S00C0.0280
%
T01
X021Y01545
X02615Y0146
X0333Y0155
X0456Y01545
X0474Y01525
X0507Y0155
X0517Y0159
X0497
Y0212
X0507Y0208
X0517Y0212
Y0265
X0507Y0261
X0497Y0265
X047149Y023251
X0466Y0212
X0456Y0208
X0446Y0212
Y0265
X0456Y0261
X0466Y0265
Y01585
X0446
X0343Y0159
X0323
Y0212
X0333Y0208
X0343Y0212
Y0265
X0333Y0261
X0323Y0265
X03005Y02385
X030633Y020983
X0286Y02045
X02995Y0164
X0243Y01855
X02435Y02315
X022Y0212
X021Y0208
X02Y0212
Y0265
X021Y0261
X022Y0265
X02835Y02775
X022Y01585
X02
T02
X04665Y01415
X048175
X0497
X04694Y01645
Y01735
X047Y0271
X04705Y028
X048225Y02895
X04975
X0467
X03475Y028
X0347Y0271
X034723Y0174
X034673Y0165
X02805Y01585
X026975
X0259
Y017375
X026975
X02805
Y0189
X026975
X0259
Y02265
X026975
X02805
Y024175
X026975
X0259
Y0257
X026975
X02805
X0224Y0271
X02245Y028
Y01735
X0224Y01645
M30
