G04*
G04 #@! TF.GenerationSoftware,Altium Limited,Altium Designer,20.2.6 (244)*
G04*
G04 Layer_Color=32768*
%FSLAX25Y25*%
%MOIN*%
G70*
G04*
G04 #@! TF.SameCoordinates,EC59DE11-5F21-440E-92AE-D345A4C3AF16*
G04*
G04*
G04 #@! TF.FilePolarity,Positive*
G04*
G01*
G75*
%ADD10C,0.01000*%
%ADD31C,0.00200*%
G36*
X284630Y208456D02*
X282563D01*
Y211212D01*
X284630D01*
Y208456D01*
D02*
G37*
G36*
X274724D02*
X272657D01*
Y211212D01*
X274724D01*
Y208456D01*
D02*
G37*
G36*
X268917D02*
X266850D01*
Y211212D01*
X268917D01*
Y208456D01*
D02*
G37*
G36*
X259011D02*
X256944D01*
Y211212D01*
X259011D01*
Y208456D01*
D02*
G37*
G36*
X253204D02*
X251137D01*
Y211212D01*
X253204D01*
Y208456D01*
D02*
G37*
G36*
X274960Y208160D02*
Y208063D01*
Y207965D01*
X274822Y207826D01*
X274626D01*
X274488Y207965D01*
Y208063D01*
Y208160D01*
X274626Y208299D01*
X274822D01*
X274960Y208160D01*
D02*
G37*
G36*
X259247D02*
Y208063D01*
Y207965D01*
X259109Y207826D01*
X258913D01*
X258775Y207965D01*
Y208063D01*
Y208160D01*
X258913Y208299D01*
X259109D01*
X259247Y208160D01*
D02*
G37*
G36*
X238174Y193535D02*
Y193339D01*
X238035Y193201D01*
X237840D01*
X237701Y193339D01*
Y193535D01*
X237840Y193673D01*
X238035D01*
X238174Y193535D01*
D02*
G37*
G36*
X237544Y191370D02*
X234788D01*
Y193437D01*
X237544D01*
Y191370D01*
D02*
G37*
G36*
X233212D02*
X230456D01*
Y193437D01*
X233212D01*
Y191370D01*
D02*
G37*
G36*
X237544Y185563D02*
X234788D01*
Y187630D01*
X237544D01*
Y185563D01*
D02*
G37*
G36*
X233212D02*
X230456D01*
Y187630D01*
X233212D01*
Y185563D01*
D02*
G37*
G36*
X238174Y177822D02*
Y177626D01*
X238035Y177488D01*
X237840D01*
X237701Y177626D01*
Y177822D01*
X237840Y177960D01*
X238035D01*
X238174Y177822D01*
D02*
G37*
G36*
X237544Y175657D02*
X234788D01*
Y177724D01*
X237544D01*
Y175657D01*
D02*
G37*
G36*
X233212D02*
X230456D01*
Y177724D01*
X233212D01*
Y175657D01*
D02*
G37*
G36*
X237544Y169850D02*
X234788D01*
Y171917D01*
X237544D01*
Y169850D01*
D02*
G37*
G36*
X233212D02*
X230456D01*
Y171917D01*
X233212D01*
Y169850D01*
D02*
G37*
G36*
X238174Y162109D02*
Y161913D01*
X238035Y161775D01*
X237840D01*
X237701Y161913D01*
Y162109D01*
X237840Y162247D01*
X238035D01*
X238174Y162109D01*
D02*
G37*
G36*
X237544Y159944D02*
X234788D01*
Y162011D01*
X237544D01*
Y159944D01*
D02*
G37*
G36*
X233212D02*
X230456D01*
Y162011D01*
X233212D01*
Y159944D01*
D02*
G37*
G36*
X237544Y154137D02*
X234788D01*
Y156204D01*
X237544D01*
Y154137D01*
D02*
G37*
G36*
X233212D02*
X230456D01*
Y156204D01*
X233212D01*
Y154137D01*
D02*
G37*
G36*
X284225Y141035D02*
Y140937D01*
Y140840D01*
X284087Y140701D01*
X283891D01*
X283753Y140840D01*
Y140937D01*
Y141035D01*
X283891Y141174D01*
X284087D01*
X284225Y141035D01*
D02*
G37*
G36*
X268512D02*
Y140937D01*
Y140840D01*
X268374Y140701D01*
X268178D01*
X268040Y140840D01*
Y140937D01*
Y141035D01*
X268178Y141174D01*
X268374D01*
X268512Y141035D01*
D02*
G37*
G36*
X252799D02*
Y140937D01*
Y140840D01*
X252661Y140701D01*
X252465D01*
X252327Y140840D01*
Y140937D01*
Y141035D01*
X252465Y141174D01*
X252661D01*
X252799Y141035D01*
D02*
G37*
G36*
X286056Y137787D02*
X283989D01*
Y140543D01*
X286056D01*
Y137787D01*
D02*
G37*
G36*
X276150D02*
X274083D01*
Y140543D01*
X276150D01*
Y137787D01*
D02*
G37*
G36*
X270343D02*
X268276D01*
Y140543D01*
X270343D01*
Y137787D01*
D02*
G37*
G36*
X260437D02*
X258370D01*
Y140543D01*
X260437D01*
Y137787D01*
D02*
G37*
G36*
X254630D02*
X252563D01*
Y140543D01*
X254630D01*
Y137787D01*
D02*
G37*
G36*
X286056Y133457D02*
X283989D01*
Y136213D01*
X286056D01*
Y133457D01*
D02*
G37*
G36*
X276150D02*
X274083D01*
Y136213D01*
X276150D01*
Y133457D01*
D02*
G37*
G36*
X270343D02*
X268276D01*
Y136213D01*
X270343D01*
Y133457D01*
D02*
G37*
G36*
X260437D02*
X258370D01*
Y136213D01*
X260437D01*
Y133457D01*
D02*
G37*
G36*
X254630D02*
X252563D01*
Y136213D01*
X254630D01*
Y133457D01*
D02*
G37*
G36*
X284630Y287788D02*
X282563D01*
Y290544D01*
X284630D01*
Y287788D01*
D02*
G37*
G36*
X274724D02*
X272657D01*
Y290544D01*
X274724D01*
Y287788D01*
D02*
G37*
G36*
X268917D02*
X266850D01*
Y290544D01*
X268917D01*
Y287788D01*
D02*
G37*
G36*
X259011D02*
X256944D01*
Y290544D01*
X259011D01*
Y287788D01*
D02*
G37*
G36*
X253204D02*
X251137D01*
Y290544D01*
X253204D01*
Y287788D01*
D02*
G37*
G36*
X284630Y283456D02*
X282563D01*
Y286212D01*
X284630D01*
Y283456D01*
D02*
G37*
G36*
X274724D02*
X272657D01*
Y286212D01*
X274724D01*
Y283456D01*
D02*
G37*
G36*
X268917D02*
X266850D01*
Y286212D01*
X268917D01*
Y283456D01*
D02*
G37*
G36*
X259011D02*
X256944D01*
Y286212D01*
X259011D01*
Y283456D01*
D02*
G37*
G36*
X253204D02*
X251137D01*
Y286212D01*
X253204D01*
Y283456D01*
D02*
G37*
G36*
X274960Y283160D02*
Y283063D01*
Y282965D01*
X274822Y282826D01*
X274626D01*
X274488Y282965D01*
Y283063D01*
Y283160D01*
X274626Y283299D01*
X274822D01*
X274960Y283160D01*
D02*
G37*
G36*
X259247D02*
Y283063D01*
Y282965D01*
X259109Y282826D01*
X258913D01*
X258775Y282965D01*
Y283063D01*
Y283160D01*
X258913Y283299D01*
X259109D01*
X259247Y283160D01*
D02*
G37*
G36*
X269609Y269758D02*
X267482D01*
Y270270D01*
X269609D01*
Y269758D01*
D02*
G37*
G36*
X275099Y270243D02*
X275904D01*
Y269731D01*
X275099D01*
Y268925D01*
X274587D01*
Y269731D01*
X273778D01*
Y270243D01*
X274587D01*
Y271052D01*
X275099D01*
Y270243D01*
D02*
G37*
G36*
X238174Y268535D02*
Y268339D01*
X238035Y268201D01*
X237840D01*
X237701Y268339D01*
Y268535D01*
X237840Y268673D01*
X238035D01*
X238174Y268535D01*
D02*
G37*
G36*
X237544Y266370D02*
X234788D01*
Y268437D01*
X237544D01*
Y266370D01*
D02*
G37*
G36*
X233212D02*
X230456D01*
Y268437D01*
X233212D01*
Y266370D01*
D02*
G37*
G36*
X237544Y260563D02*
X234788D01*
Y262630D01*
X237544D01*
Y260563D01*
D02*
G37*
G36*
X233212D02*
X230456D01*
Y262630D01*
X233212D01*
Y260563D01*
D02*
G37*
G36*
X238174Y252822D02*
Y252626D01*
X238035Y252488D01*
X237840D01*
X237701Y252626D01*
Y252822D01*
X237840Y252960D01*
X238035D01*
X238174Y252822D01*
D02*
G37*
G36*
X237544Y250657D02*
X234788D01*
Y252724D01*
X237544D01*
Y250657D01*
D02*
G37*
G36*
X233212D02*
X230456D01*
Y252724D01*
X233212D01*
Y250657D01*
D02*
G37*
G36*
X237544Y244850D02*
X234788D01*
Y246917D01*
X237544D01*
Y244850D01*
D02*
G37*
G36*
X233212D02*
X230456D01*
Y246917D01*
X233212D01*
Y244850D01*
D02*
G37*
G36*
X238174Y237109D02*
Y236913D01*
X238035Y236775D01*
X237840D01*
X237701Y236913D01*
Y237109D01*
X237840Y237247D01*
X238035D01*
X238174Y237109D01*
D02*
G37*
G36*
X237544Y234944D02*
X234788D01*
Y237011D01*
X237544D01*
Y234944D01*
D02*
G37*
G36*
X233212D02*
X230456D01*
Y237011D01*
X233212D01*
Y234944D01*
D02*
G37*
G36*
X237544Y229137D02*
X234788D01*
Y231204D01*
X237544D01*
Y229137D01*
D02*
G37*
G36*
X233212D02*
X230456D01*
Y231204D01*
X233212D01*
Y229137D01*
D02*
G37*
G36*
X284630Y212788D02*
X282563D01*
Y215544D01*
X284630D01*
Y212788D01*
D02*
G37*
G36*
X274724D02*
X272657D01*
Y215544D01*
X274724D01*
Y212788D01*
D02*
G37*
G36*
X268917D02*
X266850D01*
Y215544D01*
X268917D01*
Y212788D01*
D02*
G37*
G36*
X259011D02*
X256944D01*
Y215544D01*
X259011D01*
Y212788D01*
D02*
G37*
G36*
X253204D02*
X251137D01*
Y215544D01*
X253204D01*
Y212788D01*
D02*
G37*
G36*
X290437Y287788D02*
X288370D01*
Y290544D01*
X290437D01*
Y287788D01*
D02*
G37*
G36*
Y283456D02*
X288370D01*
Y286212D01*
X290437D01*
Y283456D01*
D02*
G37*
G36*
X290673Y283160D02*
Y283063D01*
Y282965D01*
X290535Y282826D01*
X290339D01*
X290201Y282965D01*
Y283063D01*
Y283160D01*
X290339Y283299D01*
X290535D01*
X290673Y283160D01*
D02*
G37*
G36*
X479413Y269758D02*
X477287D01*
Y270270D01*
X479413D01*
Y269758D01*
D02*
G37*
G36*
X484904Y270243D02*
X485708D01*
Y269731D01*
X484904D01*
Y268925D01*
X484392D01*
Y269731D01*
X483582D01*
Y270243D01*
X484392D01*
Y271052D01*
X484904D01*
Y270243D01*
D02*
G37*
G36*
X312544Y267796D02*
X309788D01*
Y269863D01*
X312544D01*
Y267796D01*
D02*
G37*
G36*
X308212D02*
X305456D01*
Y269863D01*
X308212D01*
Y267796D01*
D02*
G37*
G36*
X485437Y262788D02*
X483370D01*
Y265544D01*
X485437D01*
Y262788D01*
D02*
G37*
G36*
X479630D02*
X477563D01*
Y265544D01*
X479630D01*
Y262788D01*
D02*
G37*
G36*
X312544Y261989D02*
X309788D01*
Y264056D01*
X312544D01*
Y261989D01*
D02*
G37*
G36*
X308212D02*
X305456D01*
Y264056D01*
X308212D01*
Y261989D01*
D02*
G37*
G36*
X305299Y262087D02*
Y261891D01*
X305160Y261753D01*
X304965D01*
X304826Y261891D01*
Y262087D01*
X304965Y262225D01*
X305160D01*
X305299Y262087D01*
D02*
G37*
G36*
X485437Y258456D02*
X483370D01*
Y261212D01*
X485437D01*
Y258456D01*
D02*
G37*
G36*
X479630D02*
X477563D01*
Y261212D01*
X479630D01*
Y258456D01*
D02*
G37*
G36*
X485673Y258160D02*
Y258063D01*
Y257965D01*
X485535Y257826D01*
X485339D01*
X485201Y257965D01*
Y258063D01*
Y258160D01*
X485339Y258299D01*
X485535D01*
X485673Y258160D01*
D02*
G37*
G36*
X312544Y252083D02*
X309788D01*
Y254150D01*
X312544D01*
Y252083D01*
D02*
G37*
G36*
X308212D02*
X305456D01*
Y254150D01*
X308212D01*
Y252083D01*
D02*
G37*
G36*
X485437Y249852D02*
X483370D01*
Y252608D01*
X485437D01*
Y249852D01*
D02*
G37*
G36*
X479630D02*
X477563D01*
Y252608D01*
X479630D01*
Y249852D01*
D02*
G37*
G36*
X312544Y246276D02*
X309788D01*
Y248343D01*
X312544D01*
Y246276D01*
D02*
G37*
G36*
X308212D02*
X305456D01*
Y248343D01*
X308212D01*
Y246276D01*
D02*
G37*
G36*
X305299Y246374D02*
Y246178D01*
X305160Y246040D01*
X304965D01*
X304826Y246178D01*
Y246374D01*
X304965Y246512D01*
X305160D01*
X305299Y246374D01*
D02*
G37*
G36*
X485437Y245521D02*
X483370D01*
Y248277D01*
X485437D01*
Y245521D01*
D02*
G37*
G36*
X479630D02*
X477563D01*
Y248277D01*
X479630D01*
Y245521D01*
D02*
G37*
G36*
X485673Y245225D02*
Y245127D01*
Y245030D01*
X485535Y244891D01*
X485339D01*
X485201Y245030D01*
Y245127D01*
Y245225D01*
X485339Y245364D01*
X485535D01*
X485673Y245225D01*
D02*
G37*
G36*
X485437Y236917D02*
X483370D01*
Y239673D01*
X485437D01*
Y236917D01*
D02*
G37*
G36*
X479630D02*
X477563D01*
Y239673D01*
X479630D01*
Y236917D01*
D02*
G37*
G36*
X312544Y236370D02*
X309788D01*
Y238437D01*
X312544D01*
Y236370D01*
D02*
G37*
G36*
X308212D02*
X305456D01*
Y238437D01*
X308212D01*
Y236370D01*
D02*
G37*
G36*
X485437Y232586D02*
X483370D01*
Y235342D01*
X485437D01*
Y232586D01*
D02*
G37*
G36*
X479630D02*
X477563D01*
Y235342D01*
X479630D01*
Y232586D01*
D02*
G37*
G36*
X485673Y232290D02*
Y232192D01*
Y232095D01*
X485535Y231956D01*
X485339D01*
X485201Y232095D01*
Y232192D01*
Y232290D01*
X485339Y232429D01*
X485535D01*
X485673Y232290D01*
D02*
G37*
G36*
X312544Y230563D02*
X309788D01*
Y232630D01*
X312544D01*
Y230563D01*
D02*
G37*
G36*
X308212D02*
X305456D01*
Y232630D01*
X308212D01*
Y230563D01*
D02*
G37*
G36*
X305299Y230661D02*
Y230465D01*
X305160Y230327D01*
X304965D01*
X304826Y230465D01*
Y230661D01*
X304965Y230799D01*
X305160D01*
X305299Y230661D01*
D02*
G37*
G36*
X290437Y212788D02*
X288370D01*
Y215544D01*
X290437D01*
Y212788D01*
D02*
G37*
G36*
Y208456D02*
X288370D01*
Y211212D01*
X290437D01*
Y208456D01*
D02*
G37*
G36*
X290673Y208160D02*
Y208063D01*
Y207965D01*
X290535Y207826D01*
X290339D01*
X290201Y207965D01*
Y208063D01*
Y208160D01*
X290339Y208299D01*
X290535D01*
X290673Y208160D01*
D02*
G37*
G36*
X312544Y192796D02*
X309788D01*
Y194863D01*
X312544D01*
Y192796D01*
D02*
G37*
G36*
X308212D02*
X305456D01*
Y194863D01*
X308212D01*
Y192796D01*
D02*
G37*
G36*
X485437Y188287D02*
X483370D01*
Y191043D01*
X485437D01*
Y188287D01*
D02*
G37*
G36*
X479630D02*
X477563D01*
Y191043D01*
X479630D01*
Y188287D01*
D02*
G37*
G36*
X312544Y186989D02*
X309788D01*
Y189056D01*
X312544D01*
Y186989D01*
D02*
G37*
G36*
X308212D02*
X305456D01*
Y189056D01*
X308212D01*
Y186989D01*
D02*
G37*
G36*
X305299Y187087D02*
Y186891D01*
X305160Y186753D01*
X304965D01*
X304826Y186891D01*
Y187087D01*
X304965Y187225D01*
X305160D01*
X305299Y187087D01*
D02*
G37*
G36*
X485437Y183957D02*
X483370D01*
Y186713D01*
X485437D01*
Y183957D01*
D02*
G37*
G36*
X479630D02*
X477563D01*
Y186713D01*
X479630D01*
Y183957D01*
D02*
G37*
G36*
X485673Y183660D02*
Y183563D01*
Y183465D01*
X485535Y183326D01*
X485339D01*
X485201Y183465D01*
Y183563D01*
Y183660D01*
X485339Y183799D01*
X485535D01*
X485673Y183660D01*
D02*
G37*
G36*
X312544Y177083D02*
X309788D01*
Y179150D01*
X312544D01*
Y177083D01*
D02*
G37*
G36*
X308212D02*
X305456D01*
Y179150D01*
X308212D01*
Y177083D01*
D02*
G37*
G36*
X485437Y175102D02*
X483370D01*
Y177858D01*
X485437D01*
Y175102D01*
D02*
G37*
G36*
X479630D02*
X477563D01*
Y177858D01*
X479630D01*
Y175102D01*
D02*
G37*
G36*
X312544Y171276D02*
X309788D01*
Y173343D01*
X312544D01*
Y171276D01*
D02*
G37*
G36*
X308212D02*
X305456D01*
Y173343D01*
X308212D01*
Y171276D01*
D02*
G37*
G36*
X305299Y171374D02*
Y171178D01*
X305160Y171040D01*
X304965D01*
X304826Y171178D01*
Y171374D01*
X304965Y171512D01*
X305160D01*
X305299Y171374D01*
D02*
G37*
G36*
X485437Y170772D02*
X483370D01*
Y173527D01*
X485437D01*
Y170772D01*
D02*
G37*
G36*
X479630D02*
X477563D01*
Y173527D01*
X479630D01*
Y170772D01*
D02*
G37*
G36*
X485673Y170475D02*
Y170377D01*
Y170280D01*
X485535Y170141D01*
X485339D01*
X485201Y170280D01*
Y170377D01*
Y170475D01*
X485339Y170614D01*
X485535D01*
X485673Y170475D01*
D02*
G37*
G36*
X485437Y161917D02*
X483370D01*
Y164673D01*
X485437D01*
Y161917D01*
D02*
G37*
G36*
X479630D02*
X477563D01*
Y164673D01*
X479630D01*
Y161917D01*
D02*
G37*
G36*
X312544Y161370D02*
X309788D01*
Y163437D01*
X312544D01*
Y161370D01*
D02*
G37*
G36*
X308212D02*
X305456D01*
Y163437D01*
X308212D01*
Y161370D01*
D02*
G37*
G36*
X485437Y157586D02*
X483370D01*
Y160342D01*
X485437D01*
Y157586D01*
D02*
G37*
G36*
X479630D02*
X477563D01*
Y160342D01*
X479630D01*
Y157586D01*
D02*
G37*
G36*
X485673Y157290D02*
Y157192D01*
Y157095D01*
X485535Y156956D01*
X485339D01*
X485201Y157095D01*
Y157192D01*
Y157290D01*
X485339Y157429D01*
X485535D01*
X485673Y157290D01*
D02*
G37*
G36*
X312544Y155563D02*
X309788D01*
Y157630D01*
X312544D01*
Y155563D01*
D02*
G37*
G36*
X308212D02*
X305456D01*
Y157630D01*
X308212D01*
Y155563D01*
D02*
G37*
G36*
X305299Y155661D02*
Y155465D01*
X305160Y155327D01*
X304965D01*
X304826Y155465D01*
Y155661D01*
X304965Y155799D01*
X305160D01*
X305299Y155661D01*
D02*
G37*
G36*
X291863Y137787D02*
X289796D01*
Y140543D01*
X291863D01*
Y137787D01*
D02*
G37*
G36*
Y133457D02*
X289796D01*
Y136213D01*
X291863D01*
Y133457D01*
D02*
G37*
D10*
X501000Y259000D02*
G03*
X513000Y259000I6000J0D01*
G01*
Y271000D02*
G03*
X501000Y271000I-6000J0D01*
G01*
Y206000D02*
G03*
X513000Y206000I6000J0D01*
G01*
Y218000D02*
G03*
X501000Y218000I-6000J0D01*
G01*
X513000Y165000D02*
G03*
X501000Y165000I-6000J0D01*
G01*
Y153000D02*
G03*
X513000Y153000I6000J0D01*
G01*
X204000D02*
G03*
X216000Y153000I6000J0D01*
G01*
X327000Y259000D02*
G03*
X339000Y259000I6000J0D01*
G01*
X450000Y153000D02*
G03*
X462000Y153000I6000J0D01*
G01*
X450000Y206000D02*
G03*
X462000Y206000I6000J0D01*
G01*
Y218000D02*
G03*
X450000Y218000I-6000J0D01*
G01*
Y259000D02*
G03*
X462000Y259000I6000J0D01*
G01*
X327000Y206000D02*
G03*
X339000Y206000I6000J0D01*
G01*
Y218000D02*
G03*
X327000Y218000I-6000J0D01*
G01*
Y153000D02*
G03*
X339000Y153000I6000J0D01*
G01*
X216000Y165000D02*
G03*
X204000Y165000I-6000J0D01*
G01*
Y206000D02*
G03*
X216000Y206000I6000J0D01*
G01*
Y218000D02*
G03*
X204000Y218000I-6000J0D01*
G01*
Y259000D02*
G03*
X216000Y259000I6000J0D01*
G01*
X462000Y271000D02*
G03*
X450000Y271000I-6000J0D01*
G01*
X462000Y165000D02*
G03*
X450000Y165000I-6000J0D01*
G01*
X339000Y271000D02*
G03*
X327000Y271000I-6000J0D01*
G01*
X339000Y165000D02*
G03*
X327000Y165000I-6000J0D01*
G01*
X216000Y271000D02*
G03*
X204000Y271000I-6000J0D01*
G01*
X517000Y153000D02*
G03*
X517000Y165000I0J6000D01*
G01*
Y206000D02*
G03*
X517000Y218000I0J6000D01*
G01*
Y259000D02*
G03*
X517000Y271000I0J6000D01*
G01*
X250000Y305000D02*
G03*
X216000Y271000I0J-34000D01*
G01*
X293000Y119000D02*
G03*
X327000Y153000I0J34000D01*
G01*
X216000D02*
G03*
X250000Y119000I34000J0D01*
G01*
X327000Y271000D02*
G03*
X293000Y305000I-34000J0D01*
G01*
D02*
G03*
X250000Y305000I-21500J0D01*
G01*
X279000D02*
G03*
X279000Y305000I-7500J0D01*
G01*
Y119000D02*
G03*
X279000Y119000I-7500J0D01*
G01*
X250000D02*
G03*
X293000Y119000I21500J0D01*
G01*
X165000Y119000D02*
G03*
X204000Y119000I19500J0D01*
G01*
X192000D02*
G03*
X192000Y119000I-7500J0D01*
G01*
Y305000D02*
G03*
X192000Y305000I-7500J0D01*
G01*
X204000D02*
G03*
X165000Y305000I-19500J0D01*
G01*
X192000Y267000D02*
G03*
X177000Y267000I-7500J-7500D01*
G01*
Y157000D02*
G03*
X192000Y157000I7500J7500D01*
G01*
X177000Y232000D02*
G03*
X192000Y232000I7500J7500D01*
G01*
Y192000D02*
G03*
X177000Y192000I-7500J-7500D01*
G01*
X416000Y119000D02*
G03*
X450000Y153000I0J34000D01*
G01*
X339000D02*
G03*
X373000Y119000I34000J0D01*
G01*
Y305000D02*
G03*
X339000Y271000I0J-34000D01*
G01*
X450000D02*
G03*
X416000Y305000I-34000J0D01*
G01*
D02*
G03*
X373000Y305000I-21500J0D01*
G01*
X402000D02*
G03*
X402000Y305000I-7500J0D01*
G01*
Y119000D02*
G03*
X402000Y119000I-7500J0D01*
G01*
X373000D02*
G03*
X416000Y119000I21500J0D01*
G01*
X501000Y305000D02*
G03*
X462000Y305000I-19500J0D01*
G01*
X489000D02*
G03*
X489000Y305000I-7500J0D01*
G01*
Y119000D02*
G03*
X489000Y119000I-7500J0D01*
G01*
X462000D02*
G03*
X501000Y119000I19500J0D01*
G01*
X513000Y271000D02*
X517000D01*
X513000Y259000D02*
X517000D01*
X513000Y218000D02*
X517000D01*
X513000Y206000D02*
X517000D01*
X513000Y153000D02*
X517000D01*
X513000Y165000D02*
X517000D01*
X501000Y218000D02*
Y259000D01*
Y165000D02*
Y206000D01*
X216000Y218000D02*
Y259000D01*
X462000Y165000D02*
Y206000D01*
X450000Y165000D02*
Y206000D01*
Y218000D02*
Y259000D01*
X462000Y218000D02*
Y259000D01*
X339000Y165000D02*
Y206000D01*
X327000Y165000D02*
Y206000D01*
Y218000D02*
Y259000D01*
X339000Y218000D02*
Y259000D01*
X204000Y218000D02*
Y259000D01*
Y165000D02*
Y206000D01*
X165000Y153000D02*
Y271000D01*
X216000Y165000D02*
Y206000D01*
X204000Y119000D02*
Y153000D01*
X165000Y119000D02*
Y153000D01*
X204000Y271000D02*
Y305000D01*
X165000Y271000D02*
Y305000D01*
X192000Y157000D02*
Y192000D01*
X177000Y157000D02*
Y192000D01*
X192000Y232000D02*
Y267000D01*
X177000Y232000D02*
Y267000D01*
X356000Y201000D02*
X358000D01*
X368000Y136000D02*
Y138000D01*
Y286000D02*
Y288000D01*
X356000Y276000D02*
X358000D01*
X368000Y211000D02*
Y213000D01*
X431000Y201000D02*
X433000D01*
X431000Y276000D02*
X433000D01*
Y201000D02*
X438000Y196000D01*
X358000Y201000D02*
X363000Y196000D01*
X351000D02*
X356000Y201000D01*
X426000Y196000D02*
X431000Y201000D01*
Y148000D02*
X433000D01*
X356000D02*
X358000D01*
X433000D02*
X438000Y153000D01*
X363000D02*
Y196000D01*
X426000Y153000D02*
Y196000D01*
X438000Y153000D02*
Y196000D01*
X351000Y153000D02*
X356000Y148000D01*
X358000D02*
X363000Y153000D01*
X426000D02*
X431000Y148000D01*
X351000Y153000D02*
Y196000D01*
X431000Y223000D02*
X433000D01*
X356000D02*
X358000D01*
X433000D02*
X438000Y228000D01*
X351000D02*
X356000Y223000D01*
X358000D02*
X363000Y228000D01*
X426000D02*
X431000Y223000D01*
X433000Y276000D02*
X438000Y271000D01*
X363000Y228000D02*
Y271000D01*
X426000Y228000D02*
Y271000D01*
X438000Y228000D02*
Y271000D01*
X358000Y276000D02*
X363000Y271000D01*
X351000D02*
X356000Y276000D01*
X426000Y271000D02*
X431000Y276000D01*
X351000Y228000D02*
Y271000D01*
X373000Y143000D02*
X416000D01*
X373000Y131000D02*
X416000D01*
X421000Y136000D01*
X416000Y143000D02*
X421000Y138000D01*
Y136000D02*
Y138000D01*
X368000Y136000D02*
X373000Y131000D01*
X368000Y138000D02*
X373000Y143000D01*
Y218000D02*
X416000D01*
X373000Y206000D02*
X416000D01*
X421000Y211000D01*
X416000Y218000D02*
X421000Y213000D01*
Y211000D02*
Y213000D01*
X368000Y211000D02*
X373000Y206000D01*
X368000Y213000D02*
X373000Y218000D01*
Y293000D02*
X416000D01*
X373000Y281000D02*
X416000D01*
X421000Y286000D01*
X416000Y293000D02*
X421000Y288000D01*
Y286000D02*
Y288000D01*
X368000Y286000D02*
X373000Y281000D01*
X368000Y288000D02*
X373000Y293000D01*
X462000Y271000D02*
Y305000D01*
X501000Y271000D02*
Y305000D01*
X462000Y119000D02*
Y153000D01*
X501000Y119000D02*
Y153000D01*
D31*
X251137Y208063D02*
X259011D01*
X251137D02*
Y215936D01*
X259011D01*
Y208063D02*
Y215936D01*
X237937Y229137D02*
Y237011D01*
X230064Y229137D02*
X237937D01*
X230064D02*
Y237011D01*
X237937D01*
Y154137D02*
Y162011D01*
X230064Y154137D02*
X237937D01*
X230064D02*
Y162011D01*
X237937D01*
X283989Y140937D02*
X291863D01*
Y133063D02*
Y140937D01*
X283989Y133063D02*
X291863D01*
X283989D02*
Y140937D01*
X305063Y186989D02*
Y194863D01*
X312936D01*
Y186989D02*
Y194863D01*
X305063Y186989D02*
X312936D01*
X305063Y261989D02*
Y269863D01*
X312936D01*
Y261989D02*
Y269863D01*
X305063Y261989D02*
X312936D01*
X251137Y283063D02*
X259011D01*
X251137D02*
Y290936D01*
X259011D01*
Y283063D02*
Y290936D01*
X266850Y208063D02*
X274724D01*
X266850D02*
Y215936D01*
X274724D01*
Y208063D02*
Y215936D01*
X237937Y244850D02*
Y252724D01*
X230064Y244850D02*
X237937D01*
X230064D02*
Y252724D01*
X237937D01*
Y169850D02*
Y177724D01*
X230064Y169850D02*
X237937D01*
X230064D02*
Y177724D01*
X237937D01*
X268276Y140937D02*
X276150D01*
Y133063D02*
Y140937D01*
X268276Y133063D02*
X276150D01*
X268276D02*
Y140937D01*
X305063Y171276D02*
Y179150D01*
X312936D01*
Y171276D02*
Y179150D01*
X305063Y171276D02*
X312936D01*
X305063Y246276D02*
Y254150D01*
X312936D01*
Y246276D02*
Y254150D01*
X305063Y246276D02*
X312936D01*
X266850Y283063D02*
X274724D01*
X266850D02*
Y290936D01*
X274724D01*
Y283063D02*
Y290936D01*
X282563Y208063D02*
X290437D01*
X282563D02*
Y215936D01*
X290437D01*
Y208063D02*
Y215936D01*
X237937Y260563D02*
Y268437D01*
X230064Y260563D02*
X237937D01*
X230064D02*
Y268437D01*
X237937D01*
Y185563D02*
Y193437D01*
X230064Y185563D02*
X237937D01*
X230064D02*
Y193437D01*
X237937D01*
X252563Y140937D02*
X260437D01*
Y133063D02*
Y140937D01*
X252563Y133063D02*
X260437D01*
X252563D02*
Y140937D01*
X305063Y155563D02*
Y163437D01*
X312936D01*
Y155563D02*
Y163437D01*
X305063Y155563D02*
X312936D01*
X305063Y230563D02*
Y238437D01*
X312936D01*
Y230563D02*
Y238437D01*
X305063Y230563D02*
X312936D01*
X282563Y283063D02*
X290437D01*
X282563D02*
Y290936D01*
X290437D01*
Y283063D02*
Y290936D01*
X477563Y183563D02*
X485437D01*
X477563D02*
Y191437D01*
X485437D01*
Y183563D02*
Y191437D01*
X477563Y258063D02*
X485437D01*
X477563D02*
Y265936D01*
X485437D01*
Y258063D02*
Y265936D01*
X477563Y170377D02*
X485437D01*
X477563D02*
Y178251D01*
X485437D01*
Y170377D02*
Y178251D01*
X477563Y245127D02*
X485437D01*
X477563D02*
Y253001D01*
X485437D01*
Y245127D02*
Y253001D01*
X477563Y157192D02*
X485437D01*
X477563D02*
Y165066D01*
X485437D01*
Y157192D02*
Y165066D01*
X477563Y232192D02*
X485437D01*
X477563D02*
Y240066D01*
X485437D01*
Y232192D02*
Y240066D01*
M02*
