G04*
G04 #@! TF.GenerationSoftware,Altium Limited,Altium Designer,20.2.6 (244)*
G04*
G04 Layer_Physical_Order=1*
G04 Layer_Color=255*
%FSLAX25Y25*%
%MOIN*%
G70*
G04*
G04 #@! TF.SameCoordinates,EC59DE11-5F21-440E-92AE-D345A4C3AF16*
G04*
G04*
G04 #@! TF.FilePolarity,Positive*
G04*
G01*
G75*
%ADD10C,0.01000*%
%ADD13R,0.03543X0.02756*%
%ADD14R,0.02756X0.03543*%
%ADD18C,0.03000*%
%ADD19C,0.04000*%
%ADD20C,0.05000*%
%ADD21C,0.02800*%
G36*
X398703Y326132D02*
X401426Y325403D01*
X404030Y324324D01*
X406470Y322915D01*
X408706Y321199D01*
X410699Y319206D01*
X412415Y316970D01*
X413824Y314530D01*
X414903Y311926D01*
X415632Y309203D01*
X416000Y306409D01*
Y305000D01*
X417670D01*
X420995Y304673D01*
X424271Y304021D01*
X427468Y303051D01*
X430554Y301773D01*
X433501Y300198D01*
X436278Y298342D01*
X438861Y296223D01*
X441223Y293861D01*
X443342Y291278D01*
X445198Y288501D01*
X446773Y285554D01*
X448051Y282468D01*
X449021Y279271D01*
X449673Y275995D01*
X449888Y273805D01*
X449934Y273341D01*
X449934D01*
Y273341D01*
X449934D01*
X450000Y272670D01*
X450000Y272327D01*
X450000Y272327D01*
Y271591D01*
X450231Y272750D01*
X450444Y273265D01*
D01*
X450683Y273842D01*
X451339Y274825D01*
X452175Y275660D01*
X453158Y276317D01*
X454250Y276769D01*
X455409Y277000D01*
X456591D01*
X457750Y276769D01*
X458842Y276317D01*
X459825Y275660D01*
X460661Y274825D01*
X461317Y273842D01*
X461500Y273400D01*
X461500D01*
X461500Y273400D01*
X461500D01*
X461769Y272750D01*
X462000Y271591D01*
X462000Y273500D01*
X462000Y273971D01*
Y305000D01*
Y306278D01*
X462334Y308812D01*
X462995Y311281D01*
X463973Y313643D01*
X465252Y315857D01*
X466808Y317885D01*
X468615Y319692D01*
X470643Y321248D01*
X472857Y322527D01*
X475218Y323505D01*
X477688Y324166D01*
X480222Y324500D01*
X482778D01*
X485312Y324166D01*
X487781Y323505D01*
X490143Y322527D01*
X492357Y321248D01*
X494385Y319692D01*
X496192Y317885D01*
X497748Y315857D01*
X499026Y313643D01*
X500005Y311281D01*
X500666Y308812D01*
X501000Y306278D01*
Y305000D01*
Y273971D01*
X501000Y273500D01*
X501000D01*
Y273500D01*
X501000D01*
X501000Y271591D01*
X501231Y272750D01*
X501500Y273401D01*
X501683Y273842D01*
X502340Y274825D01*
X503175Y275660D01*
X504158Y276317D01*
X505250Y276769D01*
X506409Y277000D01*
X507591D01*
X508750Y276769D01*
X509842Y276317D01*
X510825Y275660D01*
X511660Y274825D01*
X512317Y273842D01*
X512769Y272750D01*
X513000Y271591D01*
Y271000D01*
X517591D01*
X518750Y270769D01*
X519842Y270317D01*
X520825Y269660D01*
X521661Y268825D01*
X522317Y267842D01*
X522769Y266750D01*
X523000Y265591D01*
Y264409D01*
X522769Y263250D01*
X522317Y262158D01*
X521661Y261175D01*
X520825Y260339D01*
X519842Y259683D01*
X518750Y259231D01*
X517591Y259000D01*
X513000D01*
Y258409D01*
X512769Y257250D01*
X512317Y256158D01*
X511660Y255175D01*
X510825Y254340D01*
X509842Y253683D01*
X508750Y253231D01*
X507591Y253000D01*
X506409D01*
X505250Y253231D01*
X504158Y253683D01*
X503175Y254340D01*
X502340Y255175D01*
X501683Y256158D01*
X501500Y256599D01*
X501231Y257250D01*
X501000Y258409D01*
X501000Y256500D01*
X501000D01*
Y256500D01*
X501000D01*
X501000Y256029D01*
Y220971D01*
X501000Y220500D01*
X501000D01*
Y220500D01*
X501000D01*
X501000Y218591D01*
X501231Y219750D01*
X501500Y220401D01*
X501683Y220842D01*
X502340Y221825D01*
X503175Y222660D01*
X504158Y223317D01*
X505250Y223769D01*
X506409Y224000D01*
X507591D01*
X508750Y223769D01*
X509842Y223317D01*
X510825Y222660D01*
X511660Y221825D01*
X512317Y220842D01*
X512769Y219750D01*
X513000Y218591D01*
Y218000D01*
X517591D01*
X518750Y217769D01*
X519842Y217317D01*
X520825Y216660D01*
X521661Y215825D01*
X522317Y214842D01*
X522769Y213750D01*
X523000Y212591D01*
Y211409D01*
X522769Y210250D01*
X522317Y209158D01*
X521661Y208175D01*
X520825Y207340D01*
X519842Y206683D01*
X518750Y206231D01*
X517591Y206000D01*
X513000D01*
Y205409D01*
X512769Y204250D01*
X512317Y203158D01*
X511660Y202175D01*
X510825Y201340D01*
X509842Y200683D01*
X508750Y200231D01*
X507591Y200000D01*
X506409D01*
X505250Y200231D01*
X504158Y200683D01*
X503175Y201340D01*
X502340Y202175D01*
X501683Y203158D01*
X501500Y203599D01*
X501231Y204250D01*
X501000Y205409D01*
X501000Y203500D01*
X501000D01*
Y203500D01*
X501000D01*
X501000Y203029D01*
Y167971D01*
X501000Y167500D01*
X501000D01*
Y167500D01*
X501000D01*
X501000Y165591D01*
X501231Y166750D01*
X501500Y167401D01*
X501683Y167842D01*
X502340Y168825D01*
X503175Y169660D01*
X504158Y170317D01*
X505250Y170769D01*
X506409Y171000D01*
X507591D01*
X508750Y170769D01*
X509842Y170317D01*
X510825Y169660D01*
X511660Y168825D01*
X512317Y167842D01*
X512769Y166750D01*
X513000Y165591D01*
Y165000D01*
X517591D01*
X518750Y164769D01*
X519842Y164317D01*
X520825Y163661D01*
X521661Y162825D01*
X522317Y161842D01*
X522769Y160750D01*
X523000Y159591D01*
Y158409D01*
X522769Y157250D01*
X522317Y156158D01*
X521661Y155175D01*
X520825Y154340D01*
X519842Y153683D01*
X518750Y153231D01*
X517591Y153000D01*
X513000D01*
Y152409D01*
X512769Y151250D01*
X512317Y150158D01*
X511660Y149175D01*
X510825Y148339D01*
X509842Y147683D01*
X508750Y147231D01*
X507591Y147000D01*
X506409D01*
X505250Y147231D01*
X504158Y147683D01*
X503175Y148339D01*
X502340Y149175D01*
X501683Y150158D01*
X501500Y150599D01*
X501231Y151250D01*
X501000Y152409D01*
X501000Y150500D01*
X501000D01*
Y150500D01*
X501000D01*
X501000Y150029D01*
Y119000D01*
Y117722D01*
X500666Y115188D01*
X500005Y112718D01*
X499026Y110357D01*
X497748Y108143D01*
X496192Y106115D01*
X494385Y104308D01*
X492357Y102752D01*
X490143Y101473D01*
X487781Y100495D01*
X485312Y99834D01*
X482778Y99500D01*
X480222D01*
X477688Y99834D01*
X475218Y100495D01*
X472857Y101473D01*
X470643Y102752D01*
X468615Y104308D01*
X466808Y106115D01*
X465252Y108143D01*
X463973Y110357D01*
X462995Y112718D01*
X462334Y115188D01*
X462000Y117722D01*
Y119000D01*
Y150029D01*
X462000Y150500D01*
X462000Y152409D01*
X461769Y151250D01*
X461500Y150600D01*
X461500D01*
X461500Y150600D01*
X461500D01*
X461317Y150158D01*
X460661Y149175D01*
X459825Y148339D01*
X458842Y147683D01*
X457750Y147231D01*
X456591Y147000D01*
X455409D01*
X454250Y147231D01*
X453158Y147683D01*
X452175Y148339D01*
X451339Y149175D01*
X450683Y150158D01*
X450444Y150735D01*
X450444D01*
X450231Y151250D01*
X450124Y151787D01*
X450124Y151788D01*
X450000Y152409D01*
X450000Y151330D01*
X449934Y150659D01*
X449934Y150659D01*
Y150659D01*
X449934D01*
X449888Y150195D01*
X449673Y148005D01*
X449021Y144729D01*
X448051Y141532D01*
X446773Y138446D01*
X445198Y135499D01*
X443342Y132722D01*
X441223Y130140D01*
X438861Y127777D01*
X436278Y125658D01*
X433501Y123802D01*
X430554Y122227D01*
X427468Y120949D01*
X424271Y119979D01*
X420995Y119327D01*
X417670Y119000D01*
X416000Y119000D01*
Y117591D01*
X415632Y114797D01*
X414903Y112074D01*
X413824Y109470D01*
X412415Y107030D01*
X410699Y104794D01*
X408706Y102801D01*
X406470Y101085D01*
X404030Y99676D01*
X401426Y98597D01*
X398703Y97868D01*
X395909Y97500D01*
X393091D01*
X390297Y97868D01*
X387574Y98597D01*
X384970Y99676D01*
X382530Y101085D01*
X380294Y102801D01*
X378301Y104794D01*
X376585Y107030D01*
X375176Y109470D01*
X374097Y112074D01*
X373368Y114797D01*
X373000Y117591D01*
Y119000D01*
X371330D01*
X368005Y119327D01*
X364729Y119979D01*
X361532Y120949D01*
X358446Y122227D01*
X355499Y123802D01*
X352722Y125658D01*
X350139Y127777D01*
X347777Y130140D01*
X345658Y132722D01*
X343802Y135499D01*
X342227Y138446D01*
X340949Y141532D01*
X339979Y144729D01*
X339327Y148005D01*
X339112Y150195D01*
X339066Y150659D01*
X339066Y150659D01*
Y150659D01*
D01*
X339000Y151330D01*
X339000Y151673D01*
X339000Y151673D01*
Y152409D01*
X338769Y151250D01*
X338602Y150847D01*
X338377Y150303D01*
X338317Y150158D01*
X337661Y149175D01*
X336825Y148339D01*
X335842Y147683D01*
X334750Y147231D01*
X333591Y147000D01*
X332409D01*
X331250Y147231D01*
X330158Y147683D01*
X329175Y148339D01*
X328340Y149175D01*
X327683Y150158D01*
X327444Y150735D01*
X327444D01*
X327231Y151250D01*
X327124Y151787D01*
X327124Y151788D01*
X327000Y152409D01*
X327000Y151330D01*
X326934Y150659D01*
X326934Y150659D01*
Y150659D01*
X326934D01*
X326888Y150195D01*
X326673Y148005D01*
X326021Y144729D01*
X325051Y141532D01*
X323773Y138446D01*
X322198Y135499D01*
X320342Y132722D01*
X318223Y130140D01*
X315861Y127777D01*
X313278Y125658D01*
X310501Y123802D01*
X307554Y122227D01*
X304468Y120949D01*
X301271Y119979D01*
X297995Y119327D01*
X294670Y119000D01*
X293000Y119000D01*
Y117591D01*
X292632Y114797D01*
X291903Y112074D01*
X290824Y109470D01*
X289415Y107030D01*
X287699Y104794D01*
X285706Y102801D01*
X283470Y101085D01*
X281030Y99676D01*
X278426Y98597D01*
X275703Y97868D01*
X272909Y97500D01*
X270091D01*
X267297Y97868D01*
X264574Y98597D01*
X261970Y99676D01*
X259530Y101085D01*
X257294Y102801D01*
X255301Y104794D01*
X253585Y107030D01*
X252176Y109470D01*
X251097Y112074D01*
X250368Y114797D01*
X250000Y117591D01*
Y119000D01*
X248330D01*
X245005Y119327D01*
X241729Y119979D01*
X238532Y120949D01*
X235446Y122227D01*
X232499Y123802D01*
X229722Y125658D01*
X227139Y127777D01*
X224777Y130140D01*
X222658Y132722D01*
X220802Y135499D01*
X219227Y138446D01*
X217949Y141532D01*
X216979Y144729D01*
X216327Y148005D01*
X216112Y150195D01*
X216066Y150659D01*
X216066Y150659D01*
Y150659D01*
D01*
X216000Y151330D01*
X216000Y151673D01*
X216000Y151673D01*
Y152409D01*
X215769Y151250D01*
X215602Y150847D01*
X215377Y150303D01*
X215317Y150158D01*
X214661Y149175D01*
X213825Y148339D01*
X212842Y147683D01*
X211750Y147231D01*
X210591Y147000D01*
X209409D01*
X208250Y147231D01*
X207158Y147683D01*
X206175Y148339D01*
X205340Y149175D01*
X204683Y150158D01*
X204500Y150599D01*
X204230Y151250D01*
X204000Y152409D01*
X204000Y150500D01*
X204000D01*
Y150500D01*
X204000D01*
X204000Y150029D01*
Y119000D01*
Y117722D01*
X203666Y115188D01*
X203005Y112718D01*
X202027Y110357D01*
X200748Y108143D01*
X199192Y106115D01*
X197385Y104308D01*
X195357Y102752D01*
X193143Y101473D01*
X190781Y100495D01*
X188312Y99834D01*
X185778Y99500D01*
X183222D01*
X180688Y99834D01*
X178218Y100495D01*
X175857Y101473D01*
X173643Y102752D01*
X171615Y104308D01*
X169808Y106115D01*
X168252Y108143D01*
X166973Y110357D01*
X165995Y112718D01*
X165334Y115188D01*
X165000Y117722D01*
Y119000D01*
Y305000D01*
Y306278D01*
X165334Y308812D01*
X165995Y311281D01*
X166973Y313643D01*
X168252Y315857D01*
X169808Y317885D01*
X171615Y319692D01*
X173643Y321248D01*
X175857Y322527D01*
X178218Y323505D01*
X180688Y324166D01*
X183222Y324500D01*
X185778D01*
X188312Y324166D01*
X190781Y323505D01*
X193143Y322527D01*
X195357Y321248D01*
X197385Y319692D01*
X199192Y317885D01*
X200748Y315857D01*
X202027Y313643D01*
X203005Y311281D01*
X203666Y308812D01*
X204000Y306278D01*
Y305000D01*
Y273971D01*
X204000Y273500D01*
X204000D01*
Y273500D01*
X204000D01*
X204000Y271591D01*
X204230Y272750D01*
X204500Y273401D01*
X204683Y273842D01*
X205340Y274825D01*
X206175Y275660D01*
X207158Y276317D01*
X208250Y276769D01*
X209409Y277000D01*
X210591D01*
X211750Y276769D01*
X212842Y276317D01*
X213825Y275660D01*
X214661Y274825D01*
X215317Y273842D01*
X215556Y273265D01*
X215769Y272750D01*
X215876Y272213D01*
X215876Y272212D01*
X216000Y271591D01*
X216000Y272670D01*
X216066Y273341D01*
D01*
Y273341D01*
X216066D01*
X216112Y273805D01*
X216327Y275995D01*
X216979Y279271D01*
X217949Y282468D01*
X219227Y285554D01*
X220802Y288501D01*
X222658Y291278D01*
X224777Y293861D01*
X227139Y296223D01*
X229722Y298342D01*
X232499Y300198D01*
X235446Y301773D01*
X238532Y303051D01*
X241729Y304021D01*
X245005Y304673D01*
X248330Y305000D01*
X250000D01*
Y306409D01*
X250368Y309203D01*
X251097Y311926D01*
X252176Y314530D01*
X253585Y316970D01*
X255301Y319206D01*
X257294Y321199D01*
X259530Y322915D01*
X261970Y324324D01*
X264574Y325403D01*
X267297Y326132D01*
X270091Y326500D01*
X272909D01*
X275703Y326132D01*
X278426Y325403D01*
X281030Y324324D01*
X283470Y322915D01*
X285706Y321199D01*
X287699Y319206D01*
X289415Y316970D01*
X290824Y314530D01*
X291903Y311926D01*
X292632Y309203D01*
X293000Y306409D01*
Y305000D01*
X294670D01*
X297995Y304673D01*
X301271Y304021D01*
X304468Y303051D01*
X307554Y301773D01*
X310501Y300198D01*
X313278Y298342D01*
X315861Y296223D01*
X318223Y293861D01*
X320342Y291278D01*
X322198Y288501D01*
X323773Y285554D01*
X325051Y282468D01*
X326021Y279271D01*
X326673Y275995D01*
X326888Y273805D01*
X326934Y273341D01*
X326934D01*
Y273341D01*
X326934D01*
X327000Y272670D01*
X327000Y272327D01*
X327000Y272327D01*
Y271591D01*
X327231Y272750D01*
X327444Y273265D01*
D01*
X327683Y273842D01*
X328340Y274825D01*
X329175Y275660D01*
X330158Y276317D01*
X331250Y276769D01*
X332409Y277000D01*
X333591D01*
X334750Y276769D01*
X335842Y276317D01*
X336825Y275660D01*
X337661Y274825D01*
X338317Y273842D01*
X338556Y273265D01*
X338769Y272750D01*
X338876Y272213D01*
X338876Y272212D01*
X339000Y271591D01*
X339000Y272670D01*
X339066Y273341D01*
D01*
Y273341D01*
X339066D01*
X339112Y273805D01*
X339327Y275995D01*
X339979Y279271D01*
X340949Y282468D01*
X342227Y285554D01*
X343802Y288501D01*
X345658Y291278D01*
X347777Y293861D01*
X350139Y296223D01*
X352722Y298342D01*
X355499Y300198D01*
X358446Y301773D01*
X361532Y303051D01*
X364729Y304021D01*
X368005Y304673D01*
X371330Y305000D01*
X373000D01*
Y306409D01*
X373368Y309203D01*
X374097Y311926D01*
X375176Y314530D01*
X376585Y316970D01*
X378301Y319206D01*
X380294Y321199D01*
X382530Y322915D01*
X384970Y324324D01*
X387574Y325403D01*
X390297Y326132D01*
X393091Y326500D01*
X395909D01*
X398703Y326132D01*
D02*
G37*
%LPC*%
G36*
X272239Y313149D02*
X270761D01*
X270700Y313124D01*
X270635Y313137D01*
X269186Y312849D01*
X269130Y312812D01*
X269064D01*
X267699Y312246D01*
X267652Y312199D01*
X267587Y312186D01*
X266358Y311366D01*
X266321Y311310D01*
X266260Y311285D01*
X265215Y310240D01*
X265190Y310179D01*
X265134Y310142D01*
X264314Y308913D01*
X264301Y308848D01*
X264254Y308801D01*
X263688Y307436D01*
Y307370D01*
X263651Y307314D01*
X263363Y305865D01*
X263376Y305800D01*
X263351Y305739D01*
Y304261D01*
X263376Y304200D01*
X263363Y304135D01*
X263651Y302686D01*
X263688Y302630D01*
Y302564D01*
X264254Y301199D01*
X264301Y301152D01*
X264314Y301087D01*
X265134Y299858D01*
X265190Y299821D01*
X265215Y299760D01*
X266260Y298715D01*
X266321Y298690D01*
X266358Y298634D01*
X267587Y297814D01*
X267652Y297801D01*
X267699Y297754D01*
X269064Y297188D01*
X269130D01*
X269186Y297151D01*
X270635Y296863D01*
X270700Y296876D01*
X270761Y296851D01*
X272239D01*
X272300Y296876D01*
X272365Y296863D01*
X273814Y297151D01*
X273870Y297188D01*
X273936D01*
X275301Y297754D01*
X275348Y297801D01*
X275413Y297814D01*
X276642Y298634D01*
X276679Y298690D01*
X276740Y298715D01*
X277785Y299760D01*
X277810Y299821D01*
X277866Y299858D01*
X278686Y301087D01*
X278699Y301152D01*
X278746Y301199D01*
X279312Y302564D01*
Y302630D01*
X279349Y302686D01*
X279637Y304135D01*
X279624Y304200D01*
X279649Y304261D01*
Y305739D01*
X279624Y305800D01*
X279637Y305865D01*
X279349Y307314D01*
X279312Y307370D01*
Y307436D01*
X278746Y308801D01*
X278699Y308848D01*
X278686Y308913D01*
X277866Y310142D01*
X277810Y310179D01*
X277785Y310240D01*
X276740Y311285D01*
X276679Y311310D01*
X276642Y311366D01*
X275413Y312186D01*
X275348Y312199D01*
X275301Y312246D01*
X273936Y312812D01*
X273870D01*
X273814Y312849D01*
X272365Y313137D01*
X272300Y313124D01*
X272239Y313149D01*
D02*
G37*
G36*
X185239D02*
X183761D01*
X183700Y313124D01*
X183635Y313137D01*
X182186Y312849D01*
X182130Y312812D01*
X182064D01*
X180699Y312246D01*
X180652Y312199D01*
X180587Y312186D01*
X179358Y311366D01*
X179321Y311310D01*
X179260Y311285D01*
X178215Y310240D01*
X178190Y310179D01*
X178134Y310142D01*
X177314Y308913D01*
X177301Y308848D01*
X177254Y308801D01*
X176688Y307436D01*
Y307370D01*
X176651Y307314D01*
X176363Y305865D01*
X176376Y305800D01*
X176351Y305739D01*
Y304261D01*
X176376Y304200D01*
X176363Y304135D01*
X176651Y302686D01*
X176688Y302630D01*
Y302564D01*
X177254Y301199D01*
X177301Y301152D01*
X177314Y301087D01*
X178134Y299858D01*
X178190Y299821D01*
X178215Y299760D01*
X179260Y298715D01*
X179321Y298690D01*
X179358Y298634D01*
X180587Y297814D01*
X180652Y297801D01*
X180699Y297754D01*
X182064Y297188D01*
X182130D01*
X182186Y297151D01*
X183635Y296863D01*
X183700Y296876D01*
X183761Y296851D01*
X185239D01*
X185300Y296876D01*
X185365Y296863D01*
X186814Y297151D01*
X186870Y297188D01*
X186936D01*
X188301Y297754D01*
X188348Y297801D01*
X188413Y297814D01*
X189642Y298634D01*
X189679Y298690D01*
X189740Y298715D01*
X190785Y299760D01*
X190810Y299821D01*
X190866Y299858D01*
X191686Y301087D01*
X191699Y301152D01*
X191746Y301199D01*
X192312Y302564D01*
Y302630D01*
X192349Y302686D01*
X192637Y304135D01*
X192624Y304200D01*
X192649Y304261D01*
Y305739D01*
X192624Y305800D01*
X192637Y305865D01*
X192349Y307314D01*
X192312Y307370D01*
Y307436D01*
X191746Y308801D01*
X191699Y308848D01*
X191686Y308913D01*
X190866Y310142D01*
X190810Y310179D01*
X190785Y310240D01*
X189740Y311285D01*
X189679Y311310D01*
X189642Y311366D01*
X188413Y312186D01*
X188348Y312199D01*
X188301Y312246D01*
X186936Y312812D01*
X186870D01*
X186814Y312849D01*
X185365Y313137D01*
X185300Y313124D01*
X185239Y313149D01*
D02*
G37*
G36*
X482239D02*
X480761D01*
X480700Y313124D01*
X480635Y313137D01*
X479186Y312849D01*
X479130Y312812D01*
X479064D01*
X477699Y312246D01*
X477652Y312199D01*
X477587Y312186D01*
X476358Y311366D01*
X476321Y311310D01*
X476260Y311285D01*
X475215Y310240D01*
X475190Y310179D01*
X475134Y310142D01*
X474314Y308913D01*
X474301Y308848D01*
X474254Y308801D01*
X473688Y307436D01*
Y307370D01*
X473651Y307314D01*
X473363Y305865D01*
X473376Y305800D01*
X473351Y305739D01*
Y304261D01*
X473376Y304200D01*
X473363Y304135D01*
X473651Y302686D01*
X473688Y302630D01*
Y302564D01*
X474254Y301199D01*
X474301Y301152D01*
X474314Y301087D01*
X475134Y299858D01*
X475190Y299821D01*
X475215Y299760D01*
X476260Y298715D01*
X476321Y298690D01*
X476358Y298634D01*
X477587Y297814D01*
X477652Y297801D01*
X477699Y297754D01*
X479064Y297188D01*
X479130D01*
X479186Y297151D01*
X480635Y296863D01*
X480700Y296876D01*
X480761Y296851D01*
X482239D01*
X482300Y296876D01*
X482365Y296863D01*
X483814Y297151D01*
X483870Y297188D01*
X483936D01*
X485301Y297754D01*
X485348Y297801D01*
X485413Y297814D01*
X486642Y298634D01*
X486679Y298690D01*
X486740Y298715D01*
X487785Y299760D01*
X487810Y299821D01*
X487866Y299858D01*
X488686Y301087D01*
X488699Y301152D01*
X488746Y301199D01*
X489312Y302564D01*
Y302630D01*
X489349Y302686D01*
X489637Y304135D01*
X489624Y304200D01*
X489649Y304261D01*
Y305739D01*
X489624Y305800D01*
X489637Y305865D01*
X489349Y307314D01*
X489312Y307370D01*
Y307436D01*
X488746Y308801D01*
X488699Y308848D01*
X488686Y308913D01*
X487866Y310142D01*
X487810Y310179D01*
X487785Y310240D01*
X486740Y311285D01*
X486679Y311310D01*
X486642Y311366D01*
X485413Y312186D01*
X485348Y312199D01*
X485301Y312246D01*
X483936Y312812D01*
X483870D01*
X483814Y312849D01*
X482365Y313137D01*
X482300Y313124D01*
X482239Y313149D01*
D02*
G37*
G36*
X395239D02*
X393761D01*
X393700Y313124D01*
X393635Y313137D01*
X392186Y312849D01*
X392130Y312812D01*
X392064D01*
X390699Y312246D01*
X390652Y312199D01*
X390587Y312186D01*
X389358Y311366D01*
X389321Y311310D01*
X389260Y311285D01*
X388215Y310240D01*
X388190Y310179D01*
X388134Y310142D01*
X387314Y308913D01*
X387301Y308848D01*
X387254Y308801D01*
X386688Y307436D01*
Y307370D01*
X386651Y307314D01*
X386363Y305865D01*
X386376Y305800D01*
X386351Y305739D01*
Y304261D01*
X386376Y304200D01*
X386363Y304135D01*
X386651Y302686D01*
X386688Y302630D01*
Y302564D01*
X387254Y301199D01*
X387301Y301152D01*
X387314Y301087D01*
X388134Y299858D01*
X388190Y299821D01*
X388215Y299760D01*
X389260Y298715D01*
X389321Y298690D01*
X389358Y298634D01*
X390587Y297814D01*
X390652Y297801D01*
X390699Y297754D01*
X392064Y297188D01*
X392130D01*
X392186Y297151D01*
X393635Y296863D01*
X393700Y296876D01*
X393761Y296851D01*
X395239D01*
X395300Y296876D01*
X395365Y296863D01*
X396814Y297151D01*
X396870Y297188D01*
X396936D01*
X398301Y297754D01*
X398348Y297801D01*
X398413Y297814D01*
X399642Y298634D01*
X399679Y298690D01*
X399740Y298715D01*
X400785Y299760D01*
X400810Y299821D01*
X400866Y299858D01*
X401686Y301087D01*
X401699Y301152D01*
X401746Y301199D01*
X402312Y302564D01*
Y302630D01*
X402349Y302686D01*
X402637Y304135D01*
X402624Y304200D01*
X402649Y304261D01*
Y305739D01*
X402624Y305800D01*
X402637Y305865D01*
X402349Y307314D01*
X402312Y307370D01*
Y307436D01*
X401746Y308801D01*
X401699Y308848D01*
X401686Y308913D01*
X400866Y310142D01*
X400810Y310179D01*
X400785Y310240D01*
X399740Y311285D01*
X399679Y311310D01*
X399642Y311366D01*
X398413Y312186D01*
X398348Y312199D01*
X398301Y312246D01*
X396936Y312812D01*
X396870D01*
X396814Y312849D01*
X395365Y313137D01*
X395300Y313124D01*
X395239Y313149D01*
D02*
G37*
G36*
X285269Y291143D02*
X280526D01*
Y288774D01*
X277708Y285956D01*
X276761D01*
Y286812D01*
X272018D01*
Y282857D01*
X276761D01*
Y283713D01*
X277891D01*
X278098Y283213D01*
X274527Y279641D01*
X265523D01*
X265332Y280103D01*
X268085Y282857D01*
X269556D01*
Y286688D01*
X269556Y286812D01*
X269556D01*
Y287188D01*
X269556D01*
Y291143D01*
X264813D01*
Y288774D01*
X261995Y285956D01*
X261048D01*
Y286812D01*
X256305D01*
Y282857D01*
X261048D01*
Y283713D01*
X262178D01*
X262385Y283213D01*
X258814Y279641D01*
X254887D01*
X253613Y280915D01*
Y282857D01*
X253843D01*
Y286687D01*
X253843Y286812D01*
Y287188D01*
X253843Y287313D01*
Y291143D01*
X249100D01*
Y290287D01*
X248192D01*
X248192Y290287D01*
X247763Y290202D01*
X247399Y289959D01*
X247399Y289959D01*
X227482Y270041D01*
X227329Y270091D01*
X227035Y270301D01*
X227127Y271000D01*
X227020Y271809D01*
X226708Y272563D01*
X226211Y273211D01*
X226141Y273265D01*
Y277352D01*
X226711Y277789D01*
X227208Y278437D01*
X227520Y279191D01*
X227627Y280000D01*
X227520Y280809D01*
X227208Y281563D01*
X226711Y282211D01*
X226063Y282708D01*
X225309Y283020D01*
X224500Y283127D01*
X223691Y283020D01*
X222937Y282708D01*
X222289Y282211D01*
X221792Y281563D01*
X221480Y280809D01*
X221373Y280000D01*
X221480Y279191D01*
X221792Y278437D01*
X221859Y278350D01*
Y273265D01*
X221789Y273211D01*
X221292Y272563D01*
X220980Y271809D01*
X220873Y271000D01*
X220885Y270913D01*
X219121Y269149D01*
X214000D01*
X213789Y269062D01*
X213572Y268988D01*
X213562Y268968D01*
X213541Y268959D01*
X213453Y268748D01*
X213352Y268543D01*
X213322Y268084D01*
X213090Y267220D01*
X212654Y266464D01*
X212036Y265846D01*
X211280Y265410D01*
X210437Y265184D01*
X209563D01*
X208720Y265410D01*
X207964Y265846D01*
X207346Y266464D01*
X206910Y267220D01*
X206678Y268084D01*
X206648Y268543D01*
X206547Y268748D01*
X206459Y268959D01*
X206438Y268968D01*
X206428Y268988D01*
X206211Y269062D01*
X206000Y269149D01*
X199539D01*
X199458Y269116D01*
X199371Y269127D01*
X198481Y268889D01*
X198411Y268835D01*
X198324Y268824D01*
X197526Y268363D01*
X197473Y268293D01*
X197392Y268260D01*
X196740Y267608D01*
X196706Y267527D01*
X196637Y267474D01*
X196176Y266676D01*
X196165Y266589D01*
X196111Y266519D01*
X195873Y265629D01*
X195884Y265542D01*
X195851Y265461D01*
Y264539D01*
X195884Y264458D01*
X195873Y264371D01*
X196111Y263481D01*
X196165Y263411D01*
X196176Y263324D01*
X196637Y262526D01*
X196706Y262473D01*
X196740Y262392D01*
X197392Y261740D01*
X197473Y261706D01*
X197526Y261637D01*
X198324Y261176D01*
X198411Y261165D01*
X198481Y261111D01*
X199371Y260873D01*
X199458Y260884D01*
X199539Y260851D01*
X205333D01*
X205373Y260805D01*
X205645Y259788D01*
X205699Y259718D01*
X205710Y259631D01*
X206237Y258719D01*
X206306Y258666D01*
X206340Y258585D01*
X207085Y257840D01*
X207166Y257806D01*
X207219Y257737D01*
X208131Y257210D01*
X208218Y257199D01*
X208288Y257145D01*
X209305Y256873D01*
X209392Y256884D01*
X209473Y256851D01*
X210527D01*
X210608Y256884D01*
X210695Y256873D01*
X211712Y257145D01*
X211782Y257199D01*
X211869Y257210D01*
X212781Y257737D01*
X212834Y257806D01*
X212915Y257840D01*
X213660Y258585D01*
X213694Y258666D01*
X213763Y258719D01*
X214290Y259631D01*
X214301Y259718D01*
X214355Y259788D01*
X214627Y260805D01*
X214667Y260851D01*
X220461D01*
X220542Y260884D01*
X220629Y260873D01*
X221519Y261111D01*
X221589Y261165D01*
X221676Y261176D01*
X222474Y261637D01*
X222527Y261706D01*
X222608Y261740D01*
X223260Y262392D01*
X223293Y262473D01*
X223363Y262526D01*
X223824Y263324D01*
X223835Y263411D01*
X223889Y263481D01*
X224127Y264371D01*
X224116Y264458D01*
X224149Y264539D01*
Y265461D01*
X224116Y265542D01*
X224127Y265629D01*
X223889Y266519D01*
X223835Y266589D01*
X223824Y266676D01*
X223414Y267386D01*
X223913Y267885D01*
X224000Y267873D01*
X224809Y267980D01*
X225018Y268066D01*
X225422Y267692D01*
X225378Y267473D01*
X225378Y267473D01*
Y218465D01*
X222349Y215435D01*
X221676Y215824D01*
X221589Y215835D01*
X221519Y215889D01*
X220629Y216127D01*
X220542Y216116D01*
X220461Y216149D01*
X214000D01*
X213789Y216062D01*
X213572Y215988D01*
X213562Y215968D01*
X213541Y215959D01*
X213453Y215748D01*
X213352Y215543D01*
X213322Y215084D01*
X213090Y214220D01*
X212654Y213464D01*
X212036Y212846D01*
X211280Y212410D01*
X210437Y212184D01*
X209563D01*
X208720Y212410D01*
X207964Y212846D01*
X207346Y213464D01*
X206910Y214220D01*
X206678Y215084D01*
X206648Y215543D01*
X206547Y215748D01*
X206459Y215959D01*
X206438Y215968D01*
X206428Y215988D01*
X206211Y216062D01*
X206000Y216149D01*
X199539D01*
X199458Y216116D01*
X199371Y216127D01*
X198481Y215889D01*
X198411Y215835D01*
X198324Y215824D01*
X197526Y215363D01*
X197473Y215294D01*
X197392Y215260D01*
X196740Y214608D01*
X196706Y214527D01*
X196637Y214474D01*
X196176Y213676D01*
X196165Y213589D01*
X196111Y213519D01*
X195873Y212629D01*
X195884Y212542D01*
X195851Y212461D01*
Y211539D01*
X195884Y211458D01*
X195873Y211371D01*
X196111Y210481D01*
X196165Y210411D01*
X196176Y210324D01*
X196637Y209526D01*
X196706Y209473D01*
X196740Y209392D01*
X197392Y208740D01*
X197473Y208706D01*
X197526Y208637D01*
X198324Y208176D01*
X198411Y208165D01*
X198481Y208111D01*
X199371Y207873D01*
X199458Y207884D01*
X199539Y207851D01*
X205333D01*
X205373Y207805D01*
X205645Y206788D01*
X205699Y206718D01*
X205710Y206631D01*
X206237Y205719D01*
X206306Y205666D01*
X206340Y205585D01*
X207085Y204840D01*
X207166Y204806D01*
X207219Y204737D01*
X208131Y204210D01*
X208218Y204199D01*
X208288Y204145D01*
X209305Y203873D01*
X209392Y203884D01*
X209473Y203851D01*
X210527D01*
X210608Y203884D01*
X210695Y203873D01*
X211712Y204145D01*
X211782Y204199D01*
X211869Y204210D01*
X212781Y204737D01*
X212834Y204806D01*
X212915Y204840D01*
X213660Y205585D01*
X213694Y205666D01*
X213763Y205719D01*
X214290Y206631D01*
X214301Y206718D01*
X214355Y206788D01*
X214627Y207805D01*
X214667Y207851D01*
X220461D01*
X220542Y207884D01*
X220629Y207873D01*
X221519Y208111D01*
X221589Y208165D01*
X221676Y208176D01*
X222474Y208637D01*
X222527Y208706D01*
X222608Y208740D01*
X223260Y209392D01*
X223293Y209473D01*
X223363Y209526D01*
X223824Y210324D01*
X223835Y210411D01*
X223889Y210481D01*
X224127Y211371D01*
X224116Y211458D01*
X224149Y211539D01*
Y212461D01*
X224116Y212542D01*
X224127Y212629D01*
X223889Y213519D01*
X223835Y213589D01*
X223824Y213676D01*
X223801Y213715D01*
X227293Y217207D01*
X227293Y217207D01*
X227536Y217571D01*
X227622Y218000D01*
Y267009D01*
X248600Y287987D01*
X249100Y287907D01*
Y287313D01*
X249100Y287188D01*
Y286812D01*
X249100Y286687D01*
Y282857D01*
X249330D01*
Y280028D01*
X249494Y279209D01*
X249958Y278514D01*
X252486Y275986D01*
X253181Y275522D01*
X254000Y275359D01*
X283500D01*
X284319Y275522D01*
X285014Y275986D01*
X285478Y276681D01*
X285641Y277500D01*
X285478Y278319D01*
X285014Y279014D01*
X284319Y279478D01*
X283500Y279641D01*
X281236D01*
X281045Y280103D01*
X283798Y282857D01*
X285269D01*
Y286688D01*
X285269Y286812D01*
X285269D01*
Y287188D01*
X285269D01*
Y291143D01*
D02*
G37*
G36*
X416000Y293649D02*
X373000D01*
X372541Y293459D01*
X367541Y288459D01*
X367351Y288000D01*
Y286000D01*
X367541Y285541D01*
X372541Y280541D01*
X373000Y280351D01*
X416000D01*
X416459Y280541D01*
X421459Y285541D01*
X421649Y286000D01*
Y288000D01*
X421459Y288459D01*
X416459Y293459D01*
X416000Y293649D01*
D02*
G37*
G36*
X292474Y286812D02*
X287731D01*
Y282857D01*
X292474D01*
Y283713D01*
X298201D01*
X309552Y272362D01*
X309361Y271900D01*
X309188Y271900D01*
X308812D01*
X308687Y271900D01*
X304857D01*
Y271398D01*
X302257D01*
X301438Y271235D01*
X300743Y270771D01*
X298986Y269013D01*
X298522Y268319D01*
X298359Y267499D01*
Y260299D01*
Y244587D01*
Y238500D01*
X298522Y237681D01*
X298986Y236986D01*
X299681Y236522D01*
X300500Y236359D01*
X301319Y236522D01*
X302014Y236986D01*
X302478Y237681D01*
X302641Y238500D01*
Y238764D01*
X303103Y238955D01*
X304857Y237202D01*
Y235731D01*
X308688D01*
X308812Y235731D01*
Y235731D01*
X309188D01*
Y235731D01*
X313143D01*
Y240474D01*
X310774D01*
X307956Y243292D01*
Y244239D01*
X308812D01*
Y248982D01*
X304857D01*
Y244239D01*
X305713D01*
Y243109D01*
X305213Y242902D01*
X302641Y245474D01*
Y254477D01*
X303103Y254668D01*
X304857Y252915D01*
Y251444D01*
X308688D01*
X308812Y251444D01*
Y251444D01*
X309188D01*
Y251444D01*
X313143D01*
Y256187D01*
X310774D01*
X308570Y258391D01*
Y259952D01*
X308812D01*
Y264695D01*
X304857D01*
Y259952D01*
X306327D01*
Y258208D01*
X305827Y258001D01*
X302641Y261186D01*
Y266612D01*
X303144Y267115D01*
X306712D01*
X306919Y267157D01*
X308687D01*
X308812Y267157D01*
X309188D01*
X309313Y267157D01*
X313143D01*
Y271900D01*
X312471D01*
X312287Y272335D01*
X312202Y272764D01*
X311959Y273128D01*
X299459Y285628D01*
X299095Y285871D01*
X298665Y285956D01*
X298665Y285956D01*
X292474D01*
Y286812D01*
D02*
G37*
G36*
X185195Y270756D02*
X183805D01*
X183763Y270739D01*
X183720Y270750D01*
X182342Y270569D01*
X182303Y270547D01*
X182258Y270552D01*
X180915Y270193D01*
X180880Y270165D01*
X180835D01*
X179550Y269633D01*
X179518Y269601D01*
X179474Y269596D01*
X178270Y268900D01*
X178243Y268865D01*
X178199Y268853D01*
X177096Y268007D01*
X177074Y267968D01*
X177032Y267951D01*
X176541Y267459D01*
X176351Y267000D01*
Y232000D01*
X176462Y231731D01*
X176541Y231541D01*
X177032Y231049D01*
X177074Y231032D01*
X177096Y230993D01*
X178199Y230147D01*
X178243Y230135D01*
X178270Y230100D01*
X179474Y229404D01*
X179518Y229398D01*
X179550Y229367D01*
X180835Y228835D01*
X180880D01*
X180915Y228807D01*
X182258Y228448D01*
X182303Y228453D01*
X182342Y228431D01*
X183720Y228250D01*
X183763Y228261D01*
X183805Y228244D01*
X185195D01*
X185237Y228261D01*
X185280Y228250D01*
X186658Y228431D01*
X186697Y228453D01*
X186742Y228448D01*
X188085Y228807D01*
X188120Y228835D01*
X188165D01*
X189450Y229367D01*
X189481Y229398D01*
X189526Y229404D01*
X190730Y230100D01*
X190757Y230135D01*
X190801Y230147D01*
X191904Y230993D01*
X191926Y231032D01*
X191968Y231049D01*
X192459Y231541D01*
X192649Y232000D01*
X192649Y267000D01*
X192538Y267269D01*
X192459Y267459D01*
X191968Y267951D01*
X191926Y267968D01*
X191904Y268007D01*
X190801Y268853D01*
X190757Y268865D01*
X190730Y268900D01*
X189526Y269596D01*
X189481Y269601D01*
X189450Y269633D01*
X188165Y270165D01*
X188120D01*
X188085Y270193D01*
X186742Y270552D01*
X186697Y270547D01*
X186659Y270569D01*
X185280Y270750D01*
X185237Y270739D01*
X185195Y270756D01*
D02*
G37*
G36*
X517461Y269149D02*
X511000D01*
X510788Y269062D01*
X510572Y268988D01*
X510562Y268968D01*
X510541Y268959D01*
X510453Y268748D01*
X510352Y268543D01*
X510322Y268084D01*
X510090Y267220D01*
X509654Y266464D01*
X509036Y265846D01*
X508280Y265410D01*
X507437Y265184D01*
X506563D01*
X505720Y265410D01*
X504964Y265846D01*
X504346Y266464D01*
X503910Y267220D01*
X503678Y268084D01*
X503648Y268543D01*
X503547Y268748D01*
X503459Y268959D01*
X503438Y268968D01*
X503428Y268988D01*
X503211Y269062D01*
X503000Y269149D01*
X496539D01*
X496458Y269116D01*
X496371Y269127D01*
X495481Y268889D01*
X495411Y268835D01*
X495324Y268824D01*
X494526Y268363D01*
X494473Y268293D01*
X494392Y268260D01*
X493740Y267608D01*
X493707Y267527D01*
X493637Y267474D01*
X493176Y266676D01*
X493165Y266589D01*
X493111Y266519D01*
X492873Y265629D01*
X492884Y265542D01*
X492851Y265461D01*
Y264539D01*
X492884Y264458D01*
X492873Y264371D01*
X493111Y263481D01*
X493165Y263411D01*
X493176Y263324D01*
X493637Y262526D01*
X493707Y262473D01*
X493740Y262392D01*
X494392Y261740D01*
X494473Y261706D01*
X494526Y261637D01*
X495324Y261176D01*
X495411Y261165D01*
X495481Y261111D01*
X496371Y260873D01*
X496458Y260884D01*
X496539Y260851D01*
X502333D01*
X502373Y260805D01*
X502645Y259788D01*
X502699Y259718D01*
X502710Y259631D01*
X503237Y258719D01*
X503306Y258666D01*
X503340Y258585D01*
X504085Y257840D01*
X504166Y257806D01*
X504219Y257737D01*
X505131Y257210D01*
X505218Y257199D01*
X505288Y257145D01*
X506305Y256873D01*
X506392Y256884D01*
X506473Y256851D01*
X507527D01*
X507608Y256884D01*
X507695Y256873D01*
X508712Y257145D01*
X508782Y257199D01*
X508869Y257210D01*
X509781Y257737D01*
X509834Y257806D01*
X509915Y257840D01*
X510660Y258585D01*
X510694Y258666D01*
X510763Y258719D01*
X511290Y259631D01*
X511301Y259718D01*
X511355Y259788D01*
X511627Y260805D01*
X511667Y260851D01*
X517461D01*
X517542Y260884D01*
X517629Y260873D01*
X518519Y261111D01*
X518589Y261165D01*
X518676Y261176D01*
X519474Y261637D01*
X519527Y261706D01*
X519608Y261740D01*
X520260Y262392D01*
X520294Y262473D01*
X520363Y262526D01*
X520824Y263324D01*
X520835Y263411D01*
X520889Y263481D01*
X521127Y264371D01*
X521116Y264458D01*
X521149Y264539D01*
Y265461D01*
X521116Y265542D01*
X521127Y265629D01*
X520889Y266519D01*
X520835Y266589D01*
X520824Y266676D01*
X520363Y267474D01*
X520294Y267527D01*
X520260Y267608D01*
X519608Y268260D01*
X519527Y268293D01*
X519474Y268363D01*
X518676Y268824D01*
X518589Y268835D01*
X518519Y268889D01*
X517629Y269127D01*
X517542Y269116D01*
X517461Y269149D01*
D02*
G37*
G36*
X470500Y283127D02*
X469691Y283020D01*
X468937Y282708D01*
X468289Y282211D01*
X467792Y281563D01*
X467480Y280809D01*
X467373Y280000D01*
X467480Y279191D01*
X467792Y278437D01*
X467859Y278350D01*
Y273265D01*
X467789Y273211D01*
X467292Y272563D01*
X466980Y271809D01*
X466873Y271000D01*
X466885Y270913D01*
X465121Y269149D01*
X460000D01*
X459789Y269062D01*
X459572Y268988D01*
X459562Y268968D01*
X459541Y268959D01*
X459453Y268748D01*
X459352Y268543D01*
X459322Y268084D01*
X459090Y267220D01*
X458654Y266464D01*
X458036Y265846D01*
X457280Y265410D01*
X456437Y265184D01*
X455563D01*
X454720Y265410D01*
X453964Y265846D01*
X453346Y266464D01*
X452910Y267220D01*
X452678Y268084D01*
X452648Y268543D01*
X452547Y268748D01*
X452459Y268959D01*
X452438Y268968D01*
X452428Y268988D01*
X452212Y269062D01*
X452000Y269149D01*
X445539D01*
X445458Y269116D01*
X445371Y269127D01*
X444481Y268889D01*
X444411Y268835D01*
X444324Y268824D01*
X443526Y268363D01*
X443473Y268293D01*
X443392Y268260D01*
X442740Y267608D01*
X442706Y267527D01*
X442637Y267474D01*
X442176Y266676D01*
X442165Y266589D01*
X442111Y266519D01*
X441873Y265629D01*
X441884Y265542D01*
X441851Y265461D01*
Y264539D01*
X441884Y264458D01*
X441873Y264371D01*
X442111Y263481D01*
X442165Y263411D01*
X442176Y263324D01*
X442637Y262526D01*
X442706Y262473D01*
X442740Y262392D01*
X443392Y261740D01*
X443473Y261706D01*
X443526Y261637D01*
X444324Y261176D01*
X444411Y261165D01*
X444481Y261111D01*
X445371Y260873D01*
X445458Y260884D01*
X445539Y260851D01*
X451333D01*
X451373Y260805D01*
X451645Y259788D01*
X451699Y259718D01*
X451710Y259631D01*
X452237Y258719D01*
X452306Y258666D01*
X452340Y258585D01*
X453085Y257840D01*
X453166Y257806D01*
X453219Y257737D01*
X454131Y257210D01*
X454218Y257199D01*
X454288Y257145D01*
X455305Y256873D01*
X455392Y256884D01*
X455473Y256851D01*
X456527D01*
X456608Y256884D01*
X456695Y256873D01*
X457712Y257145D01*
X457782Y257199D01*
X457869Y257210D01*
X458781Y257737D01*
X458834Y257806D01*
X458915Y257840D01*
X459660Y258585D01*
X459694Y258666D01*
X459763Y258719D01*
X460290Y259631D01*
X460301Y259718D01*
X460355Y259788D01*
X460627Y260805D01*
X460667Y260851D01*
X466461D01*
X466542Y260884D01*
X466629Y260873D01*
X467519Y261111D01*
X467589Y261165D01*
X467676Y261176D01*
X468474Y261637D01*
X468527Y261706D01*
X468608Y261740D01*
X469260Y262392D01*
X469293Y262473D01*
X469363Y262526D01*
X469824Y263324D01*
X469835Y263411D01*
X469889Y263481D01*
X470127Y264371D01*
X470116Y264458D01*
X470149Y264539D01*
Y265461D01*
X470116Y265542D01*
X470127Y265629D01*
X469889Y266519D01*
X469835Y266589D01*
X469824Y266676D01*
X469414Y267386D01*
X469913Y267885D01*
X470000Y267873D01*
X470809Y267980D01*
X471563Y268292D01*
X472211Y268789D01*
X472708Y269437D01*
X473020Y270191D01*
X473127Y271000D01*
X473020Y271809D01*
X472708Y272563D01*
X472211Y273211D01*
X472141Y273265D01*
Y277352D01*
X472711Y277789D01*
X473208Y278437D01*
X473520Y279191D01*
X473627Y280000D01*
X473520Y280809D01*
X473208Y281563D01*
X472711Y282211D01*
X472063Y282708D01*
X471309Y283020D01*
X470500Y283127D01*
D02*
G37*
G36*
X327000Y259649D02*
X326984Y259643D01*
X326968Y259649D01*
X326757Y259549D01*
X326541Y259459D01*
X326540Y259458D01*
X326534Y259443D01*
X326519Y259436D01*
X326518Y259434D01*
X326440Y259216D01*
X326351Y259000D01*
Y218000D01*
X326440Y217784D01*
X326519Y217564D01*
X326534Y217557D01*
X326540Y217543D01*
X326541Y217541D01*
X326757Y217451D01*
X326968Y217351D01*
X326984Y217357D01*
X327000Y217351D01*
X327002Y217351D01*
X327216Y217440D01*
X327436Y217519D01*
X327443Y217534D01*
X327459Y217541D01*
X327549Y217757D01*
X327649Y217968D01*
X327675Y218508D01*
X327883Y219552D01*
X328284Y220521D01*
X328866Y221392D01*
X329608Y222134D01*
X330479Y222716D01*
X331448Y223117D01*
X332476Y223322D01*
X333524D01*
X334552Y223117D01*
X335521Y222716D01*
X336392Y222134D01*
X337134Y221392D01*
X337716Y220521D01*
X338117Y219552D01*
X338325Y218508D01*
X338351Y217968D01*
X338451Y217757D01*
X338540Y217544D01*
X338541Y217541D01*
X338557Y217534D01*
X338563Y217521D01*
X338564Y217519D01*
X338784Y217440D01*
X339000Y217351D01*
X339016Y217357D01*
X339032Y217351D01*
X339244Y217451D01*
X339459Y217541D01*
X339460Y217544D01*
X339466Y217557D01*
X339481Y217564D01*
X339482Y217566D01*
X339560Y217784D01*
X339649Y218000D01*
Y259000D01*
X339560Y259216D01*
X339481Y259436D01*
X339466Y259443D01*
X339459Y259459D01*
X339243Y259549D01*
X339032Y259649D01*
X339016Y259643D01*
X339000Y259649D01*
X338784Y259560D01*
X338564Y259481D01*
X338557Y259466D01*
X338541Y259459D01*
X338540Y259457D01*
X338451Y259243D01*
X338351Y259032D01*
X338325Y258492D01*
X338117Y257448D01*
X337716Y256479D01*
X337134Y255608D01*
X336392Y254866D01*
X335521Y254284D01*
X334552Y253883D01*
X333524Y253678D01*
X332476D01*
X331448Y253883D01*
X330479Y254284D01*
X329608Y254866D01*
X328866Y255608D01*
X328284Y256479D01*
X327883Y257448D01*
X327675Y258492D01*
X327649Y259032D01*
X327549Y259243D01*
X327459Y259459D01*
X327443Y259466D01*
X327437Y259478D01*
X327436Y259481D01*
X327216Y259560D01*
X327003Y259648D01*
X327000Y259649D01*
D02*
G37*
G36*
X462000D02*
X461784Y259560D01*
X461564Y259481D01*
X461557Y259466D01*
X461541Y259459D01*
X461540Y259457D01*
X461451Y259243D01*
X461351Y259032D01*
X461325Y258492D01*
X461117Y257448D01*
X460716Y256479D01*
X460134Y255608D01*
X459392Y254866D01*
X458521Y254284D01*
X457552Y253883D01*
X456524Y253678D01*
X455476D01*
X454448Y253883D01*
X453479Y254284D01*
X452608Y254866D01*
X451866Y255608D01*
X451284Y256479D01*
X450883Y257448D01*
X450675Y258492D01*
X450649Y259032D01*
X450549Y259243D01*
X450459Y259459D01*
X450444Y259466D01*
X450437Y259478D01*
X450436Y259481D01*
X450216Y259560D01*
X450000Y259649D01*
X449984Y259643D01*
X449968Y259649D01*
X449756Y259548D01*
X449541Y259459D01*
X449534Y259443D01*
X449519Y259436D01*
X449518Y259434D01*
X449440Y259216D01*
X449351Y259000D01*
Y218000D01*
X449440Y217784D01*
X449519Y217564D01*
X449534Y217557D01*
X449541Y217541D01*
X449757Y217451D01*
X449968Y217351D01*
X449984Y217357D01*
X450000Y217351D01*
X450216Y217440D01*
X450436Y217519D01*
X450444Y217534D01*
X450459Y217541D01*
X450549Y217757D01*
X450649Y217968D01*
X450675Y218508D01*
X450883Y219552D01*
X451284Y220521D01*
X451866Y221392D01*
X452608Y222134D01*
X453479Y222716D01*
X454448Y223117D01*
X455476Y223322D01*
X456524D01*
X457552Y223117D01*
X458521Y222716D01*
X459392Y222134D01*
X460134Y221392D01*
X460716Y220521D01*
X461117Y219552D01*
X461325Y218508D01*
X461351Y217968D01*
X461451Y217757D01*
X461540Y217544D01*
X461541Y217541D01*
X461557Y217534D01*
X461563Y217521D01*
X461564Y217519D01*
X461784Y217440D01*
X462000Y217351D01*
X462016Y217357D01*
X462032Y217351D01*
X462244Y217451D01*
X462459Y217541D01*
X462460Y217544D01*
X462466Y217557D01*
X462481Y217564D01*
X462482Y217566D01*
X462560Y217784D01*
X462649Y218000D01*
Y259000D01*
X462560Y259216D01*
X462481Y259436D01*
X462466Y259443D01*
X462459Y259459D01*
X462243Y259549D01*
X462032Y259649D01*
X462016Y259643D01*
X462000Y259649D01*
D02*
G37*
G36*
X216000D02*
X215784Y259560D01*
X215564Y259481D01*
X215557Y259466D01*
X215541Y259459D01*
X215540Y259457D01*
X215451Y259243D01*
X215351Y259032D01*
X215325Y258492D01*
X215117Y257448D01*
X214716Y256479D01*
X214134Y255608D01*
X213392Y254866D01*
X212521Y254284D01*
X211552Y253883D01*
X210524Y253678D01*
X209476D01*
X208448Y253883D01*
X207479Y254284D01*
X206608Y254866D01*
X205866Y255608D01*
X205284Y256479D01*
X204883Y257448D01*
X204675Y258492D01*
X204649Y259032D01*
X204549Y259243D01*
X204459Y259459D01*
X204444Y259466D01*
X204436Y259481D01*
X204216Y259560D01*
X204000Y259649D01*
X203984Y259643D01*
X203968Y259649D01*
X203757Y259549D01*
X203541Y259459D01*
X203534Y259443D01*
X203519Y259436D01*
X203440Y259216D01*
X203351Y259000D01*
Y218000D01*
X203440Y217784D01*
X203519Y217564D01*
X203534Y217557D01*
X203541Y217541D01*
X203757Y217451D01*
X203968Y217351D01*
X203984Y217357D01*
X204000Y217351D01*
X204216Y217440D01*
X204436Y217519D01*
X204444Y217534D01*
X204459Y217541D01*
X204549Y217757D01*
X204649Y217968D01*
X204675Y218508D01*
X204883Y219552D01*
X205284Y220521D01*
X205866Y221392D01*
X206608Y222134D01*
X207479Y222716D01*
X208448Y223117D01*
X209476Y223322D01*
X210524D01*
X211552Y223117D01*
X212521Y222716D01*
X213392Y222134D01*
X214134Y221392D01*
X214716Y220521D01*
X215117Y219552D01*
X215325Y218508D01*
X215351Y217968D01*
X215451Y217757D01*
X215540Y217544D01*
X215541Y217541D01*
X215557Y217534D01*
X215563Y217521D01*
X215564Y217519D01*
X215784Y217440D01*
X216000Y217351D01*
X216016Y217357D01*
X216032Y217351D01*
X216244Y217451D01*
X216459Y217541D01*
X216460Y217544D01*
X216466Y217557D01*
X216481Y217564D01*
X216482Y217566D01*
X216560Y217784D01*
X216649Y218000D01*
Y259000D01*
X216560Y259216D01*
X216481Y259436D01*
X216466Y259443D01*
X216459Y259459D01*
X216243Y259549D01*
X216032Y259649D01*
X216016Y259643D01*
X216000Y259649D01*
D02*
G37*
G36*
X234188Y263269D02*
X233812D01*
X233812Y263269D01*
X229857D01*
Y258526D01*
X232226D01*
X235044Y255708D01*
Y254761D01*
X234188D01*
Y250018D01*
X238143D01*
Y254761D01*
X237287D01*
Y255891D01*
X237787Y256098D01*
X241359Y252526D01*
Y247829D01*
X240856Y247326D01*
X238143D01*
Y247556D01*
X234312D01*
X234188Y247556D01*
Y247556D01*
X233812D01*
Y247556D01*
X229857D01*
Y242813D01*
X232226D01*
X235044Y239995D01*
Y239048D01*
X234188D01*
Y234305D01*
X237168D01*
X237359Y233843D01*
X235360Y231843D01*
X234312D01*
X234188Y231843D01*
Y231843D01*
X233812D01*
Y231843D01*
X229857D01*
Y227100D01*
X232226D01*
X235044Y224282D01*
Y195474D01*
X234188D01*
Y190731D01*
X238143D01*
Y195474D01*
X237287D01*
Y224747D01*
X237287Y224747D01*
X237202Y225176D01*
X236959Y225540D01*
X236959Y225540D01*
X235860Y226638D01*
X236052Y227100D01*
X238143D01*
Y228571D01*
X240886Y231314D01*
X241429Y231149D01*
X241522Y230681D01*
X241986Y229986D01*
X242681Y229522D01*
X243500Y229359D01*
X244319Y229522D01*
X245014Y229986D01*
X245478Y230681D01*
X245641Y231500D01*
Y236956D01*
Y246942D01*
Y253413D01*
X245478Y254233D01*
X245014Y254927D01*
X238143Y261798D01*
Y263269D01*
X234298D01*
X234188Y263269D01*
D02*
G37*
G36*
X480269Y266143D02*
X475526D01*
Y265179D01*
X475212Y264833D01*
X474782Y264748D01*
X474419Y264505D01*
X474419Y264505D01*
X467207Y257293D01*
X466964Y256929D01*
X466878Y256500D01*
X466878Y256500D01*
Y216432D01*
X466461Y216149D01*
X460000D01*
X459789Y216062D01*
X459572Y215988D01*
X459562Y215968D01*
X459541Y215959D01*
X459453Y215748D01*
X459352Y215543D01*
X459322Y215084D01*
X459090Y214220D01*
X458654Y213464D01*
X458036Y212846D01*
X457280Y212410D01*
X456437Y212184D01*
X455563D01*
X454720Y212410D01*
X453964Y212846D01*
X453346Y213464D01*
X452910Y214220D01*
X452678Y215084D01*
X452648Y215543D01*
X452547Y215748D01*
X452459Y215959D01*
X452438Y215968D01*
X452428Y215988D01*
X452212Y216062D01*
X452000Y216149D01*
X445539D01*
X445458Y216116D01*
X445371Y216127D01*
X444481Y215889D01*
X444411Y215835D01*
X444324Y215824D01*
X443526Y215363D01*
X443473Y215294D01*
X443392Y215260D01*
X442740Y214608D01*
X442706Y214527D01*
X442637Y214474D01*
X442176Y213676D01*
X442165Y213589D01*
X442111Y213519D01*
X442005Y213122D01*
X433000D01*
X433000Y213122D01*
X432571Y213036D01*
X432207Y212793D01*
X420035Y200622D01*
X369465D01*
X357293Y212793D01*
X356929Y213036D01*
X356500Y213122D01*
X356500Y213122D01*
X346995D01*
X346889Y213519D01*
X346835Y213589D01*
X346824Y213676D01*
X346363Y214474D01*
X346293Y214527D01*
X346260Y214608D01*
X345608Y215260D01*
X345527Y215294D01*
X345474Y215363D01*
X344676Y215824D01*
X344589Y215835D01*
X344519Y215889D01*
X343629Y216127D01*
X343542Y216116D01*
X343461Y216149D01*
X337000D01*
X336789Y216062D01*
X336572Y215988D01*
X336562Y215968D01*
X336541Y215959D01*
X336453Y215748D01*
X336352Y215543D01*
X336322Y215084D01*
X336090Y214220D01*
X335654Y213464D01*
X335036Y212846D01*
X334280Y212410D01*
X333437Y212184D01*
X332563D01*
X331720Y212410D01*
X330964Y212846D01*
X330346Y213464D01*
X329910Y214220D01*
X329678Y215084D01*
X329648Y215543D01*
X329547Y215748D01*
X329459Y215959D01*
X329438Y215968D01*
X329428Y215988D01*
X329211Y216062D01*
X329000Y216149D01*
X322539D01*
X322458Y216116D01*
X322371Y216127D01*
X321481Y215889D01*
X321411Y215835D01*
X321324Y215824D01*
X320526Y215363D01*
X320473Y215294D01*
X320392Y215260D01*
X319740Y214608D01*
X319707Y214527D01*
X319637Y214474D01*
X319176Y213676D01*
X319165Y213589D01*
X319111Y213519D01*
X318873Y212629D01*
X318884Y212542D01*
X318851Y212461D01*
Y211539D01*
X318884Y211458D01*
X318873Y211371D01*
X319111Y210481D01*
X319165Y210411D01*
X319176Y210324D01*
X319637Y209526D01*
X319707Y209473D01*
X319740Y209392D01*
X320392Y208740D01*
X320473Y208706D01*
X320526Y208637D01*
X321324Y208176D01*
X321411Y208165D01*
X321481Y208111D01*
X322371Y207873D01*
X322458Y207884D01*
X322539Y207851D01*
X328333D01*
X328373Y207805D01*
X328645Y206788D01*
X328699Y206718D01*
X328710Y206631D01*
X329237Y205719D01*
X329306Y205666D01*
X329340Y205585D01*
X330085Y204840D01*
X330166Y204806D01*
X330219Y204737D01*
X331131Y204210D01*
X331218Y204199D01*
X331288Y204145D01*
X332305Y203873D01*
X332392Y203884D01*
X332473Y203851D01*
X333527D01*
X333608Y203884D01*
X333695Y203873D01*
X334712Y204145D01*
X334782Y204199D01*
X334869Y204210D01*
X335781Y204737D01*
X335834Y204806D01*
X335915Y204840D01*
X336660Y205585D01*
X336694Y205666D01*
X336763Y205719D01*
X337290Y206631D01*
X337301Y206718D01*
X337355Y206788D01*
X337627Y207805D01*
X337667Y207851D01*
X343461D01*
X343542Y207884D01*
X343629Y207873D01*
X344519Y208111D01*
X344589Y208165D01*
X344676Y208176D01*
X345474Y208637D01*
X345527Y208706D01*
X345608Y208740D01*
X346260Y209392D01*
X346293Y209473D01*
X346363Y209526D01*
X346824Y210324D01*
X346835Y210411D01*
X346889Y210481D01*
X346995Y210878D01*
X356035D01*
X368207Y198707D01*
X368571Y198464D01*
X369000Y198378D01*
X369000Y198378D01*
X420500D01*
X420500Y198378D01*
X420929Y198464D01*
X421293Y198707D01*
X433465Y210878D01*
X442005D01*
X442111Y210481D01*
X442165Y210411D01*
X442176Y210324D01*
X442637Y209526D01*
X442706Y209473D01*
X442740Y209392D01*
X443392Y208740D01*
X443473Y208706D01*
X443526Y208637D01*
X444324Y208176D01*
X444411Y208165D01*
X444481Y208111D01*
X445371Y207873D01*
X445458Y207884D01*
X445539Y207851D01*
X451333D01*
X451373Y207805D01*
X451645Y206788D01*
X451699Y206718D01*
X451710Y206631D01*
X452237Y205719D01*
X452306Y205666D01*
X452340Y205585D01*
X453085Y204840D01*
X453166Y204806D01*
X453219Y204737D01*
X454131Y204210D01*
X454218Y204199D01*
X454288Y204145D01*
X455305Y203873D01*
X455392Y203884D01*
X455473Y203851D01*
X456527D01*
X456608Y203884D01*
X456695Y203873D01*
X457712Y204145D01*
X457782Y204199D01*
X457869Y204210D01*
X458781Y204737D01*
X458834Y204806D01*
X458915Y204840D01*
X459660Y205585D01*
X459694Y205666D01*
X459763Y205719D01*
X460290Y206631D01*
X460301Y206718D01*
X460355Y206788D01*
X460627Y207805D01*
X460667Y207851D01*
X466461D01*
X466542Y207884D01*
X466629Y207873D01*
X467519Y208111D01*
X467589Y208165D01*
X467676Y208176D01*
X468474Y208637D01*
X468527Y208706D01*
X468608Y208740D01*
X469260Y209392D01*
X469293Y209473D01*
X469363Y209526D01*
X469824Y210324D01*
X469835Y210411D01*
X469889Y210481D01*
X470127Y211371D01*
X470116Y211458D01*
X470149Y211539D01*
Y212461D01*
X470116Y212542D01*
X470127Y212629D01*
X469889Y213519D01*
X469835Y213589D01*
X469824Y213676D01*
X469363Y214474D01*
X469293Y214527D01*
X469260Y214608D01*
X469122Y214747D01*
Y231376D01*
X469622Y231527D01*
X469978Y230994D01*
X470672Y230530D01*
X471492Y230367D01*
X472311Y230530D01*
X473006Y230994D01*
X473470Y231689D01*
X473573Y232208D01*
X473594Y232231D01*
X474120Y232425D01*
X474594Y232108D01*
X475414Y231945D01*
X477284D01*
X477898Y231823D01*
X478717Y231986D01*
X478717Y231986D01*
X480269D01*
Y235818D01*
X480269Y235942D01*
X480269D01*
Y236317D01*
X480269D01*
Y238687D01*
X484624Y243042D01*
X484624Y243042D01*
X484867Y243406D01*
X484952Y243835D01*
X484952Y243835D01*
Y244921D01*
X487474D01*
Y248877D01*
X482731D01*
Y246130D01*
X482709Y246022D01*
X482709Y246022D01*
Y244300D01*
X478683Y240273D01*
X475526D01*
Y237655D01*
X475064Y237464D01*
X473633Y238895D01*
Y239756D01*
X478798Y244921D01*
X480269D01*
Y248752D01*
X480269Y248877D01*
Y249253D01*
X480269Y249377D01*
Y252000D01*
X480291Y252108D01*
X480291Y252108D01*
Y253437D01*
X484624Y257770D01*
X484682Y257857D01*
X487474D01*
Y261812D01*
X482731D01*
Y259065D01*
X482727Y259045D01*
X478376Y254694D01*
X478133Y254330D01*
X478048Y253901D01*
X478048Y253901D01*
Y253208D01*
X475526D01*
Y249377D01*
X475526Y249253D01*
Y248877D01*
X475526Y248752D01*
Y247705D01*
X474095Y246274D01*
X473633Y246466D01*
Y252691D01*
X478798Y257857D01*
X480269D01*
Y261687D01*
X480269Y261812D01*
Y262188D01*
X480269Y262313D01*
Y266143D01*
D02*
G37*
G36*
X433000Y276649D02*
X431000D01*
X430541Y276459D01*
X425541Y271459D01*
X425351Y271000D01*
Y228000D01*
X425541Y227541D01*
X430541Y222541D01*
X431000Y222351D01*
X433000D01*
X433459Y222541D01*
X438459Y227541D01*
X438649Y228000D01*
Y271000D01*
X438459Y271459D01*
X433459Y276459D01*
X433000Y276649D01*
D02*
G37*
G36*
X347500Y283127D02*
X346691Y283020D01*
X345937Y282708D01*
X345289Y282211D01*
X344792Y281563D01*
X344480Y280809D01*
X344373Y280000D01*
X344480Y279191D01*
X344792Y278437D01*
X344859Y278350D01*
Y273265D01*
X344789Y273211D01*
X344292Y272563D01*
X343980Y271809D01*
X343873Y271000D01*
X343885Y270913D01*
X342121Y269149D01*
X337000D01*
X336789Y269062D01*
X336572Y268988D01*
X336562Y268968D01*
X336541Y268959D01*
X336453Y268748D01*
X336352Y268543D01*
X336322Y268084D01*
X336090Y267220D01*
X335654Y266464D01*
X335036Y265846D01*
X334280Y265410D01*
X333437Y265184D01*
X332563D01*
X331720Y265410D01*
X330964Y265846D01*
X330346Y266464D01*
X329910Y267220D01*
X329678Y268084D01*
X329648Y268543D01*
X329547Y268748D01*
X329459Y268959D01*
X329438Y268968D01*
X329428Y268988D01*
X329211Y269062D01*
X329000Y269149D01*
X322539D01*
X322458Y269116D01*
X322371Y269127D01*
X321481Y268889D01*
X321411Y268835D01*
X321324Y268824D01*
X320526Y268363D01*
X320473Y268293D01*
X320392Y268260D01*
X319740Y267608D01*
X319707Y267527D01*
X319637Y267474D01*
X319176Y266676D01*
X319165Y266589D01*
X319111Y266519D01*
X318873Y265629D01*
X318884Y265542D01*
X318851Y265461D01*
Y264539D01*
X318884Y264458D01*
X318873Y264371D01*
X319111Y263481D01*
X319165Y263411D01*
X319176Y263324D01*
X319637Y262526D01*
X319707Y262473D01*
X319740Y262392D01*
X320392Y261740D01*
X320473Y261706D01*
X320526Y261637D01*
X321324Y261176D01*
X321411Y261165D01*
X321481Y261111D01*
X322371Y260873D01*
X322458Y260884D01*
X322539Y260851D01*
X328333D01*
X328373Y260805D01*
X328645Y259788D01*
X328699Y259718D01*
X328710Y259631D01*
X329237Y258719D01*
X329306Y258666D01*
X329340Y258585D01*
X330085Y257840D01*
X330166Y257806D01*
X330219Y257737D01*
X331131Y257210D01*
X331218Y257199D01*
X331288Y257145D01*
X332305Y256873D01*
X332392Y256884D01*
X332473Y256851D01*
X333527D01*
X333608Y256884D01*
X333695Y256873D01*
X334712Y257145D01*
X334782Y257199D01*
X334869Y257210D01*
X335781Y257737D01*
X335834Y257806D01*
X335915Y257840D01*
X336660Y258585D01*
X336694Y258666D01*
X336763Y258719D01*
X337290Y259631D01*
X337301Y259718D01*
X337355Y259788D01*
X337627Y260805D01*
X337667Y260851D01*
X343461D01*
X343542Y260884D01*
X343629Y260873D01*
X344519Y261111D01*
X344589Y261165D01*
X344676Y261176D01*
X345474Y261637D01*
X345527Y261706D01*
X345608Y261740D01*
X346260Y262392D01*
X346293Y262473D01*
X346363Y262526D01*
X346824Y263324D01*
X346835Y263411D01*
X346889Y263481D01*
X347127Y264371D01*
X347116Y264458D01*
X347149Y264539D01*
Y265461D01*
X347116Y265542D01*
X347127Y265629D01*
X346889Y266519D01*
X346835Y266589D01*
X346824Y266676D01*
X346414Y267386D01*
X346913Y267885D01*
X347000Y267873D01*
X347809Y267980D01*
X348563Y268292D01*
X349211Y268789D01*
X349708Y269437D01*
X349851Y269781D01*
X350351Y269682D01*
Y228000D01*
X350541Y227541D01*
X355541Y222541D01*
X356000Y222351D01*
X358000D01*
X358459Y222541D01*
X363459Y227541D01*
X363649Y228000D01*
Y271000D01*
X363459Y271459D01*
X358459Y276459D01*
X358000Y276649D01*
X356000D01*
X355541Y276459D01*
X350567Y271486D01*
X350410Y271492D01*
X350050Y271581D01*
X350020Y271809D01*
X349708Y272563D01*
X349211Y273211D01*
X349141Y273265D01*
Y277352D01*
X349711Y277789D01*
X350208Y278437D01*
X350520Y279191D01*
X350627Y280000D01*
X350520Y280809D01*
X350208Y281563D01*
X349711Y282211D01*
X349063Y282708D01*
X348309Y283020D01*
X347500Y283127D01*
D02*
G37*
G36*
X517461Y216149D02*
X511000D01*
X510788Y216062D01*
X510572Y215988D01*
X510562Y215968D01*
X510541Y215959D01*
X510453Y215748D01*
X510352Y215543D01*
X510322Y215084D01*
X510090Y214220D01*
X509654Y213464D01*
X509036Y212846D01*
X508280Y212410D01*
X507437Y212184D01*
X506563D01*
X505720Y212410D01*
X504964Y212846D01*
X504346Y213464D01*
X503910Y214220D01*
X503678Y215084D01*
X503648Y215543D01*
X503547Y215748D01*
X503459Y215959D01*
X503438Y215968D01*
X503428Y215988D01*
X503211Y216062D01*
X503000Y216149D01*
X496539D01*
X496458Y216116D01*
X496371Y216127D01*
X495481Y215889D01*
X495411Y215835D01*
X495324Y215824D01*
X494526Y215363D01*
X494473Y215294D01*
X494392Y215260D01*
X493740Y214608D01*
X493707Y214527D01*
X493637Y214474D01*
X493176Y213676D01*
X493165Y213589D01*
X493111Y213519D01*
X492873Y212629D01*
X492884Y212542D01*
X492851Y212461D01*
Y211539D01*
X492884Y211458D01*
X492873Y211371D01*
X493111Y210481D01*
X493165Y210411D01*
X493176Y210324D01*
X493637Y209526D01*
X493471Y209057D01*
X491207Y206793D01*
X490964Y206429D01*
X490878Y206000D01*
X490878Y206000D01*
Y163965D01*
X487878Y160964D01*
X485981D01*
X485981Y160964D01*
X485872Y160942D01*
X482731D01*
Y156986D01*
X487474D01*
Y158721D01*
X488342D01*
X488342Y158721D01*
X488772Y158806D01*
X489135Y159049D01*
X492793Y162707D01*
X492793Y162707D01*
X493036Y163071D01*
X493122Y163500D01*
X493122Y163500D01*
Y205535D01*
X495652Y208066D01*
X496371Y207873D01*
X496458Y207884D01*
X496539Y207851D01*
X502333D01*
X502373Y207805D01*
X502645Y206788D01*
X502699Y206718D01*
X502710Y206631D01*
X503237Y205719D01*
X503306Y205666D01*
X503340Y205585D01*
X504085Y204840D01*
X504166Y204806D01*
X504219Y204737D01*
X505131Y204210D01*
X505218Y204199D01*
X505288Y204145D01*
X506305Y203873D01*
X506392Y203884D01*
X506473Y203851D01*
X507527D01*
X507608Y203884D01*
X507695Y203873D01*
X508712Y204145D01*
X508782Y204199D01*
X508869Y204210D01*
X509781Y204737D01*
X509834Y204806D01*
X509915Y204840D01*
X510660Y205585D01*
X510694Y205666D01*
X510763Y205719D01*
X511290Y206631D01*
X511301Y206718D01*
X511355Y206788D01*
X511627Y207805D01*
X511667Y207851D01*
X517461D01*
X517542Y207884D01*
X517629Y207873D01*
X518519Y208111D01*
X518589Y208165D01*
X518676Y208176D01*
X519474Y208637D01*
X519527Y208706D01*
X519608Y208740D01*
X520260Y209392D01*
X520294Y209473D01*
X520363Y209526D01*
X520824Y210324D01*
X520835Y210411D01*
X520889Y210481D01*
X521127Y211371D01*
X521116Y211458D01*
X521149Y211539D01*
Y212461D01*
X521116Y212542D01*
X521127Y212629D01*
X520889Y213519D01*
X520835Y213589D01*
X520824Y213676D01*
X520363Y214474D01*
X520294Y214527D01*
X520260Y214608D01*
X519608Y215260D01*
X519527Y215294D01*
X519474Y215363D01*
X518676Y215824D01*
X518589Y215835D01*
X518519Y215889D01*
X517629Y216127D01*
X517542Y216116D01*
X517461Y216149D01*
D02*
G37*
G36*
X306334Y211874D02*
X305554Y211719D01*
X304893Y211276D01*
X304679Y210956D01*
X292474D01*
Y211812D01*
X287731D01*
Y207857D01*
X292474D01*
Y208713D01*
X304679D01*
X304893Y208393D01*
X305554Y207950D01*
X306334Y207795D01*
X307115Y207950D01*
X307776Y208393D01*
X308219Y209054D01*
X308374Y209835D01*
X308219Y210615D01*
X307776Y211276D01*
X307115Y211719D01*
X306334Y211874D01*
D02*
G37*
G36*
X327000Y206649D02*
X326984Y206643D01*
X326968Y206649D01*
X326757Y206549D01*
X326541Y206459D01*
X326540Y206458D01*
X326534Y206444D01*
X326519Y206436D01*
X326518Y206434D01*
X326440Y206216D01*
X326351Y206000D01*
Y165000D01*
X326440Y164784D01*
X326519Y164564D01*
X326534Y164557D01*
X326540Y164543D01*
X326541Y164541D01*
X326757Y164451D01*
X326968Y164351D01*
X326984Y164357D01*
X327000Y164350D01*
X327002Y164351D01*
X327216Y164440D01*
X327436Y164519D01*
X327443Y164534D01*
X327459Y164541D01*
X327549Y164757D01*
X327649Y164968D01*
X327675Y165508D01*
X327883Y166552D01*
X328284Y167521D01*
X328866Y168392D01*
X329608Y169134D01*
X330479Y169716D01*
X331448Y170117D01*
X332476Y170322D01*
X333524D01*
X334552Y170117D01*
X335521Y169716D01*
X336392Y169134D01*
X337134Y168392D01*
X337716Y167521D01*
X338117Y166552D01*
X338325Y165508D01*
X338351Y164968D01*
X338451Y164757D01*
X338540Y164543D01*
X338541Y164541D01*
X338557Y164534D01*
X338564Y164519D01*
X338784Y164440D01*
X339000Y164350D01*
X339016Y164357D01*
X339032Y164351D01*
X339243Y164451D01*
X339459Y164541D01*
X339460Y164543D01*
X339466Y164557D01*
X339481Y164564D01*
X339560Y164784D01*
X339649Y165000D01*
Y206000D01*
X339560Y206216D01*
X339481Y206436D01*
X339466Y206443D01*
X339459Y206459D01*
X339243Y206549D01*
X339032Y206649D01*
X339016Y206643D01*
X339000Y206649D01*
X338784Y206560D01*
X338564Y206481D01*
X338557Y206466D01*
X338541Y206459D01*
X338540Y206457D01*
X338451Y206243D01*
X338351Y206032D01*
X338325Y205492D01*
X338117Y204448D01*
X337716Y203479D01*
X337134Y202608D01*
X336392Y201866D01*
X335521Y201284D01*
X334552Y200883D01*
X333524Y200678D01*
X332476D01*
X331448Y200883D01*
X330479Y201284D01*
X329608Y201866D01*
X328866Y202608D01*
X328284Y203479D01*
X327883Y204448D01*
X327675Y205492D01*
X327649Y206032D01*
X327549Y206243D01*
X327459Y206459D01*
X327443Y206466D01*
X327437Y206479D01*
X327436Y206481D01*
X327216Y206560D01*
X327003Y206648D01*
X327000Y206649D01*
D02*
G37*
G36*
X416000Y218649D02*
X373000D01*
X372541Y218459D01*
X367541Y213459D01*
X367351Y213000D01*
Y211000D01*
X367541Y210541D01*
X372541Y205541D01*
X373000Y205351D01*
X416000D01*
X416459Y205541D01*
X421459Y210541D01*
X421649Y211000D01*
Y213000D01*
X421459Y213459D01*
X416459Y218459D01*
X416000Y218649D01*
D02*
G37*
G36*
X238143Y270474D02*
X234188D01*
Y265731D01*
X238143D01*
Y266981D01*
X238933D01*
X250350Y255564D01*
Y216143D01*
X249100D01*
Y212313D01*
X249100Y212188D01*
Y211812D01*
X249100Y211687D01*
Y207857D01*
X249330D01*
Y206257D01*
X249494Y205438D01*
X249958Y204743D01*
X251715Y202986D01*
X252410Y202522D01*
X253229Y202359D01*
X286000D01*
X286819Y202522D01*
X287514Y202986D01*
X287978Y203681D01*
X288141Y204500D01*
X287978Y205319D01*
X287514Y206014D01*
X286819Y206478D01*
X286000Y206641D01*
X283236D01*
X283045Y207103D01*
X283798Y207857D01*
X285269D01*
Y211688D01*
X285269Y211812D01*
X285269D01*
Y212188D01*
X285269D01*
Y216143D01*
X280526D01*
Y213774D01*
X278535Y211783D01*
X276761D01*
Y211812D01*
X272018D01*
Y207857D01*
X276761D01*
Y209540D01*
X278718D01*
X278925Y209040D01*
X276526Y206641D01*
X267523D01*
X267332Y207103D01*
X268085Y207857D01*
X269556D01*
Y211688D01*
X269556Y211812D01*
X269556D01*
Y212188D01*
X269556D01*
Y216143D01*
X264813D01*
Y213774D01*
X262609Y211570D01*
X261048D01*
Y211812D01*
X256305D01*
Y207857D01*
X261048D01*
Y209327D01*
X262792D01*
X262999Y208827D01*
X260814Y206641D01*
X254116D01*
X253613Y207144D01*
Y207857D01*
X253843D01*
Y211687D01*
X253843Y211812D01*
Y212188D01*
X253843Y212313D01*
Y216143D01*
X252593D01*
Y256028D01*
X252508Y256457D01*
X252265Y256821D01*
X252265Y256821D01*
X240191Y268896D01*
X239827Y269139D01*
X239398Y269224D01*
X239398Y269224D01*
X238143D01*
Y270474D01*
D02*
G37*
G36*
X462000Y206649D02*
X461784Y206560D01*
X461564Y206481D01*
X461557Y206466D01*
X461541Y206459D01*
X461540Y206457D01*
X461451Y206243D01*
X461351Y206032D01*
X461325Y205492D01*
X461117Y204448D01*
X460716Y203479D01*
X460134Y202608D01*
X459392Y201866D01*
X458521Y201284D01*
X457552Y200883D01*
X456524Y200678D01*
X455476D01*
X454448Y200883D01*
X453479Y201284D01*
X452608Y201866D01*
X451866Y202608D01*
X451284Y203479D01*
X450883Y204448D01*
X450675Y205492D01*
X450649Y206032D01*
X450549Y206243D01*
X450459Y206459D01*
X450444Y206466D01*
X450437Y206479D01*
X450436Y206481D01*
X450216Y206560D01*
X450000Y206649D01*
X449984Y206643D01*
X449968Y206649D01*
X449756Y206549D01*
X449541Y206459D01*
X449534Y206444D01*
X449519Y206436D01*
X449518Y206434D01*
X449440Y206216D01*
X449351Y206000D01*
Y165000D01*
X449440Y164784D01*
X449519Y164564D01*
X449534Y164557D01*
X449541Y164541D01*
X449757Y164451D01*
X449968Y164351D01*
X449984Y164357D01*
X450000Y164351D01*
X450216Y164440D01*
X450436Y164519D01*
X450444Y164534D01*
X450459Y164541D01*
X450549Y164757D01*
X450649Y164968D01*
X450675Y165508D01*
X450883Y166552D01*
X451284Y167521D01*
X451866Y168392D01*
X452608Y169134D01*
X453479Y169716D01*
X454448Y170117D01*
X455476Y170322D01*
X456524D01*
X457552Y170117D01*
X458521Y169716D01*
X459392Y169134D01*
X460134Y168392D01*
X460716Y167521D01*
X461117Y166552D01*
X461325Y165508D01*
X461351Y164968D01*
X461451Y164757D01*
X461540Y164543D01*
X461541Y164541D01*
X461557Y164534D01*
X461564Y164519D01*
X461784Y164440D01*
X462000Y164350D01*
X462016Y164357D01*
X462032Y164351D01*
X462243Y164451D01*
X462459Y164541D01*
X462460Y164543D01*
X462466Y164557D01*
X462481Y164564D01*
X462560Y164784D01*
X462649Y165000D01*
Y206000D01*
X462560Y206216D01*
X462481Y206436D01*
X462466Y206443D01*
X462459Y206459D01*
X462243Y206549D01*
X462032Y206649D01*
X462016Y206643D01*
X462000Y206649D01*
D02*
G37*
G36*
X216000D02*
X215784Y206560D01*
X215564Y206481D01*
X215557Y206466D01*
X215541Y206459D01*
X215540Y206457D01*
X215451Y206243D01*
X215351Y206032D01*
X215325Y205492D01*
X215117Y204448D01*
X214716Y203479D01*
X214134Y202608D01*
X213392Y201866D01*
X212521Y201284D01*
X211552Y200883D01*
X210524Y200678D01*
X209476D01*
X208448Y200883D01*
X207479Y201284D01*
X206608Y201866D01*
X205866Y202608D01*
X205284Y203479D01*
X204883Y204448D01*
X204675Y205492D01*
X204649Y206032D01*
X204549Y206243D01*
X204459Y206459D01*
X204444Y206466D01*
X204436Y206481D01*
X204216Y206560D01*
X204000Y206649D01*
X203984Y206643D01*
X203968Y206649D01*
X203757Y206549D01*
X203541Y206459D01*
X203534Y206443D01*
X203519Y206436D01*
X203440Y206216D01*
X203351Y206000D01*
Y165000D01*
X203440Y164784D01*
X203519Y164564D01*
X203534Y164557D01*
X203541Y164541D01*
X203757Y164451D01*
X203968Y164351D01*
X203984Y164357D01*
X204000Y164351D01*
X204216Y164440D01*
X204436Y164519D01*
X204444Y164534D01*
X204459Y164541D01*
X204549Y164757D01*
X204649Y164968D01*
X204675Y165508D01*
X204883Y166552D01*
X205284Y167521D01*
X205866Y168392D01*
X206608Y169134D01*
X207479Y169716D01*
X208448Y170117D01*
X209476Y170322D01*
X210524D01*
X211552Y170117D01*
X212521Y169716D01*
X213392Y169134D01*
X214134Y168392D01*
X214716Y167521D01*
X215117Y166552D01*
X215325Y165508D01*
X215351Y164968D01*
X215451Y164757D01*
X215541Y164541D01*
X215557Y164534D01*
X215564Y164519D01*
X215784Y164440D01*
X216000Y164351D01*
X216016Y164357D01*
X216032Y164351D01*
X216243Y164451D01*
X216459Y164541D01*
X216466Y164557D01*
X216481Y164564D01*
X216560Y164784D01*
X216649Y165000D01*
Y206000D01*
X216560Y206216D01*
X216481Y206436D01*
X216466Y206443D01*
X216459Y206459D01*
X216243Y206549D01*
X216032Y206649D01*
X216016Y206643D01*
X216000Y206649D01*
D02*
G37*
G36*
X308812Y233269D02*
X304857D01*
Y228526D01*
X305713D01*
Y225166D01*
X305713Y225166D01*
X305798Y224736D01*
X306041Y224372D01*
X310044Y220370D01*
Y196900D01*
X309313D01*
X309188Y196900D01*
X308812D01*
X308687Y196900D01*
X304857D01*
Y196669D01*
X302028D01*
X301209Y196507D01*
X300514Y196042D01*
X297986Y193514D01*
X297522Y192819D01*
X297359Y192000D01*
Y186300D01*
Y170587D01*
Y164000D01*
X297522Y163181D01*
X297986Y162486D01*
X298681Y162022D01*
X299500Y161859D01*
X300319Y162022D01*
X301014Y162486D01*
X301478Y163181D01*
X301641Y164000D01*
Y164764D01*
X302103Y164955D01*
X304857Y162202D01*
Y160731D01*
X308688D01*
X308812Y160731D01*
Y160731D01*
X309188D01*
Y160731D01*
X313143D01*
Y165474D01*
X310774D01*
X307956Y168292D01*
Y169239D01*
X308812D01*
Y173982D01*
X304857D01*
Y169239D01*
X305713D01*
Y168109D01*
X305213Y167902D01*
X301641Y171474D01*
Y180477D01*
X302103Y180668D01*
X304857Y177915D01*
Y176444D01*
X308688D01*
X308812Y176444D01*
Y176444D01*
X309188D01*
Y176444D01*
X313143D01*
Y181187D01*
X310774D01*
X308834Y183127D01*
Y186445D01*
X308834Y186445D01*
X308812Y186554D01*
Y189695D01*
X304857D01*
Y184952D01*
X306591D01*
Y182944D01*
X306091Y182737D01*
X301641Y187186D01*
Y191113D01*
X302915Y192387D01*
X304857D01*
Y192157D01*
X308687D01*
X308812Y192157D01*
X309188D01*
X309313Y192157D01*
X313143D01*
Y196900D01*
X312287D01*
Y220834D01*
X312287Y220834D01*
X312202Y221264D01*
X311959Y221628D01*
X311959Y221628D01*
X307956Y225630D01*
Y228526D01*
X308812D01*
Y233269D01*
D02*
G37*
G36*
X185195Y195756D02*
X183805D01*
X183763Y195739D01*
X183720Y195750D01*
X182342Y195569D01*
X182303Y195547D01*
X182258Y195552D01*
X180915Y195193D01*
X180880Y195165D01*
X180835D01*
X179550Y194633D01*
X179518Y194602D01*
X179474Y194596D01*
X178270Y193900D01*
X178243Y193865D01*
X178199Y193853D01*
X177096Y193007D01*
X177074Y192968D01*
X177032Y192951D01*
X176541Y192459D01*
X176351Y192000D01*
Y157000D01*
X176462Y156731D01*
X176541Y156541D01*
X177032Y156049D01*
X177074Y156032D01*
X177096Y155993D01*
X178199Y155147D01*
X178243Y155135D01*
X178270Y155100D01*
X179474Y154404D01*
X179518Y154399D01*
X179550Y154367D01*
X180835Y153835D01*
X180880D01*
X180915Y153807D01*
X182258Y153448D01*
X182303Y153453D01*
X182342Y153431D01*
X183720Y153250D01*
X183763Y153261D01*
X183805Y153244D01*
X185195D01*
X185237Y153261D01*
X185280Y153250D01*
X186658Y153431D01*
X186697Y153453D01*
X186742Y153448D01*
X188085Y153807D01*
X188120Y153835D01*
X188165D01*
X189450Y154367D01*
X189481Y154399D01*
X189526Y154404D01*
X190730Y155100D01*
X190757Y155135D01*
X190801Y155147D01*
X191904Y155993D01*
X191926Y156032D01*
X191968Y156049D01*
X192459Y156541D01*
X192649Y157000D01*
X192649Y192000D01*
X192538Y192269D01*
X192459Y192459D01*
X191968Y192951D01*
X191926Y192968D01*
X191904Y193007D01*
X190801Y193853D01*
X190757Y193865D01*
X190730Y193900D01*
X189526Y194596D01*
X189481Y194602D01*
X189450Y194633D01*
X188165Y195165D01*
X188120D01*
X188085Y195193D01*
X186742Y195552D01*
X186697Y195547D01*
X186659Y195569D01*
X185280Y195750D01*
X185237Y195739D01*
X185195Y195756D01*
D02*
G37*
G36*
X487474Y235942D02*
X482731D01*
Y231986D01*
X483981D01*
Y206567D01*
X477104Y199691D01*
X476861Y199327D01*
X476776Y198898D01*
X476776Y198898D01*
Y191644D01*
X475526D01*
Y187817D01*
X475526Y187688D01*
X475330Y187269D01*
X474938Y187191D01*
X474243Y186726D01*
X472486Y184969D01*
X472022Y184274D01*
X471859Y183455D01*
Y174582D01*
X471359Y174430D01*
X471079Y174849D01*
X470914Y175014D01*
X470219Y175478D01*
X469400Y175641D01*
X468581Y175478D01*
X467886Y175014D01*
X467422Y174319D01*
X467259Y173500D01*
X467422Y172681D01*
X467424Y172678D01*
Y165322D01*
X467422Y165319D01*
X467397Y165196D01*
X464851Y162649D01*
X460000D01*
X459789Y162562D01*
X459572Y162488D01*
X459562Y162468D01*
X459541Y162459D01*
X459453Y162248D01*
X459352Y162042D01*
X459322Y161584D01*
X459090Y160720D01*
X458654Y159964D01*
X458643Y159953D01*
X457986Y159514D01*
X457520Y159048D01*
X457280Y158910D01*
X456437Y158684D01*
X455563D01*
X454720Y158910D01*
X453964Y159346D01*
X453346Y159964D01*
X452910Y160720D01*
X452678Y161584D01*
X452648Y162042D01*
X452547Y162248D01*
X452459Y162459D01*
X452438Y162468D01*
X452428Y162488D01*
X452212Y162562D01*
X452000Y162649D01*
X445539D01*
X445458Y162616D01*
X445371Y162627D01*
X444481Y162389D01*
X444411Y162335D01*
X444324Y162324D01*
X443526Y161863D01*
X443473Y161793D01*
X443392Y161760D01*
X442740Y161108D01*
X442706Y161027D01*
X442637Y160974D01*
X442176Y160176D01*
X442165Y160089D01*
X442111Y160019D01*
X441873Y159129D01*
X441884Y159042D01*
X441851Y158961D01*
Y158039D01*
X441884Y157958D01*
X441873Y157871D01*
X442111Y156981D01*
X442165Y156911D01*
X442176Y156824D01*
X442637Y156026D01*
X442706Y155973D01*
X442740Y155892D01*
X443392Y155240D01*
X443473Y155207D01*
X443526Y155137D01*
X444324Y154676D01*
X444411Y154665D01*
X444481Y154611D01*
X445371Y154373D01*
X445458Y154384D01*
X445539Y154351D01*
X451333D01*
X451373Y154305D01*
X451645Y153288D01*
X451699Y153218D01*
X451710Y153131D01*
X452237Y152219D01*
X452306Y152166D01*
X452340Y152085D01*
X453085Y151340D01*
X453166Y151306D01*
X453219Y151237D01*
X454131Y150710D01*
X454218Y150699D01*
X454288Y150645D01*
X455305Y150373D01*
X455392Y150384D01*
X455473Y150351D01*
X456527D01*
X456608Y150384D01*
X456695Y150373D01*
X457712Y150645D01*
X457782Y150699D01*
X457869Y150710D01*
X458781Y151237D01*
X458834Y151306D01*
X458915Y151340D01*
X459660Y152085D01*
X459694Y152166D01*
X459763Y152219D01*
X460290Y153131D01*
X460301Y153218D01*
X460355Y153288D01*
X460627Y154305D01*
X460667Y154351D01*
X466461D01*
X466542Y154384D01*
X466629Y154373D01*
X467519Y154611D01*
X467589Y154665D01*
X467676Y154676D01*
X468474Y155137D01*
X468527Y155207D01*
X468608Y155240D01*
X469260Y155892D01*
X469293Y155973D01*
X469363Y156026D01*
X469824Y156824D01*
X469835Y156911D01*
X469889Y156981D01*
X470127Y157871D01*
X470116Y157958D01*
X470149Y158039D01*
Y158961D01*
X470116Y159042D01*
X470127Y159129D01*
X469889Y160019D01*
X469835Y160089D01*
X469824Y160176D01*
X469363Y160974D01*
X469645Y161388D01*
X470914Y162657D01*
X471359Y163322D01*
X471396Y163328D01*
X471859Y163084D01*
Y161074D01*
Y152500D01*
X472022Y151681D01*
X472486Y150986D01*
X473181Y150522D01*
X474000Y150359D01*
X474819Y150522D01*
X475514Y150986D01*
X475978Y151681D01*
X476141Y152500D01*
Y156945D01*
X477284D01*
X477898Y156823D01*
X478717Y156986D01*
X478717Y156986D01*
X480269D01*
Y160818D01*
X480269Y160942D01*
X480269D01*
Y161318D01*
X480269D01*
Y163687D01*
X484624Y168042D01*
X484624Y168042D01*
X484867Y168406D01*
X484952Y168835D01*
X484952Y168835D01*
Y170171D01*
X487474D01*
Y174127D01*
X482731D01*
Y171380D01*
X482709Y171272D01*
X482709Y171272D01*
Y169300D01*
X478683Y165273D01*
X476141D01*
Y170130D01*
X477284D01*
X477898Y170008D01*
X478717Y170171D01*
X478717Y170171D01*
X480269D01*
Y174003D01*
X480269Y174127D01*
X480269D01*
Y174503D01*
X480269D01*
Y176872D01*
X484624Y181227D01*
X484624Y181227D01*
X484867Y181591D01*
X484952Y182020D01*
X484952Y182020D01*
Y183356D01*
X487474D01*
Y187312D01*
X482731D01*
Y184565D01*
X482709Y184457D01*
X482709Y184457D01*
Y182485D01*
X478683Y178458D01*
X476141D01*
Y182568D01*
X476644Y183071D01*
X477775D01*
X478595Y183234D01*
X478778Y183356D01*
X480269D01*
Y187188D01*
X480269Y187312D01*
Y187688D01*
X480269Y187812D01*
Y191644D01*
X479019D01*
Y198433D01*
X485895Y205309D01*
X485896Y205309D01*
X486139Y205673D01*
X486224Y206102D01*
X486224Y206103D01*
Y231986D01*
X487474D01*
Y235942D01*
D02*
G37*
G36*
X234188Y188269D02*
X233812D01*
X233812Y188269D01*
X229857D01*
Y183526D01*
X232226D01*
X235044Y180708D01*
Y179761D01*
X234188D01*
Y175018D01*
X238143D01*
Y179761D01*
X237287D01*
Y180891D01*
X237787Y181098D01*
X240859Y178026D01*
Y169023D01*
X240397Y168832D01*
X238143Y171085D01*
Y172556D01*
X234312D01*
X234188Y172556D01*
Y172556D01*
X233812D01*
Y172556D01*
X229857D01*
Y167813D01*
X232226D01*
X235044Y164995D01*
Y164048D01*
X234188D01*
Y159305D01*
X238143D01*
Y164048D01*
X237287D01*
Y165178D01*
X237787Y165385D01*
X240859Y162314D01*
Y157887D01*
X239856Y156884D01*
X236288D01*
X236081Y156843D01*
X234312D01*
X234188Y156843D01*
Y156843D01*
X233812D01*
Y156843D01*
X229857D01*
Y152100D01*
X232226D01*
X245954Y138373D01*
X245954Y138372D01*
X246318Y138129D01*
X246747Y138044D01*
X246747Y138044D01*
X250526D01*
Y137188D01*
X255269D01*
Y141144D01*
X250526D01*
Y140287D01*
X247212D01*
X235860Y151638D01*
X236052Y152100D01*
X238143D01*
Y152602D01*
X240743D01*
X241563Y152765D01*
X242257Y153229D01*
X244514Y155486D01*
X244978Y156181D01*
X245141Y157000D01*
Y163200D01*
Y178913D01*
Y185500D01*
X244978Y186319D01*
X244514Y187014D01*
X243819Y187478D01*
X243000Y187641D01*
X242181Y187478D01*
X241486Y187014D01*
X241022Y186319D01*
X240859Y185500D01*
Y184736D01*
X240397Y184545D01*
X238143Y186798D01*
Y188269D01*
X234298D01*
X234188Y188269D01*
D02*
G37*
G36*
X517461Y163149D02*
X511000D01*
X510788Y163062D01*
X510572Y162988D01*
X510562Y162968D01*
X510541Y162959D01*
X510453Y162748D01*
X510352Y162542D01*
X510322Y162084D01*
X510090Y161220D01*
X509654Y160464D01*
X509036Y159846D01*
X508280Y159410D01*
X507437Y159184D01*
X506563D01*
X505720Y159410D01*
X504964Y159846D01*
X504346Y160464D01*
X503910Y161220D01*
X503678Y162084D01*
X503648Y162542D01*
X503547Y162748D01*
X503459Y162959D01*
X503438Y162968D01*
X503428Y162988D01*
X503211Y163062D01*
X503000Y163149D01*
X496539D01*
X496458Y163116D01*
X496371Y163127D01*
X495481Y162889D01*
X495411Y162835D01*
X495324Y162824D01*
X494526Y162363D01*
X494473Y162294D01*
X494392Y162260D01*
X493740Y161608D01*
X493707Y161527D01*
X493637Y161474D01*
X493176Y160676D01*
X493165Y160589D01*
X493111Y160519D01*
X492873Y159629D01*
X492884Y159542D01*
X492851Y159461D01*
Y158539D01*
X492884Y158458D01*
X492873Y158371D01*
X493111Y157481D01*
X493165Y157411D01*
X493176Y157324D01*
X493637Y156526D01*
X493707Y156473D01*
X493740Y156392D01*
X494392Y155740D01*
X494473Y155707D01*
X494526Y155637D01*
X495324Y155176D01*
X495411Y155165D01*
X495481Y155111D01*
X496371Y154873D01*
X496458Y154884D01*
X496539Y154851D01*
X502333D01*
X502373Y154805D01*
X502645Y153788D01*
X502699Y153718D01*
X502710Y153631D01*
X503237Y152719D01*
X503306Y152666D01*
X503340Y152585D01*
X504085Y151840D01*
X504166Y151806D01*
X504219Y151737D01*
X505131Y151210D01*
X505218Y151199D01*
X505288Y151145D01*
X506305Y150873D01*
X506392Y150884D01*
X506473Y150851D01*
X507527D01*
X507608Y150884D01*
X507695Y150873D01*
X508712Y151145D01*
X508782Y151199D01*
X508869Y151210D01*
X509781Y151737D01*
X509834Y151806D01*
X509915Y151840D01*
X510660Y152585D01*
X510694Y152666D01*
X510763Y152719D01*
X511290Y153631D01*
X511301Y153718D01*
X511355Y153788D01*
X511627Y154805D01*
X511667Y154851D01*
X517461D01*
X517542Y154884D01*
X517629Y154873D01*
X518519Y155111D01*
X518589Y155165D01*
X518676Y155176D01*
X519474Y155637D01*
X519527Y155707D01*
X519608Y155740D01*
X520260Y156392D01*
X520294Y156473D01*
X520363Y156526D01*
X520824Y157324D01*
X520835Y157411D01*
X520889Y157481D01*
X521127Y158371D01*
X521116Y158458D01*
X521149Y158539D01*
Y159461D01*
X521116Y159542D01*
X521127Y159629D01*
X520889Y160519D01*
X520835Y160589D01*
X520824Y160676D01*
X520363Y161474D01*
X520294Y161527D01*
X520260Y161608D01*
X519608Y162260D01*
X519527Y162294D01*
X519474Y162363D01*
X518676Y162824D01*
X518589Y162835D01*
X518519Y162889D01*
X517629Y163127D01*
X517542Y163116D01*
X517461Y163149D01*
D02*
G37*
G36*
X347229Y176141D02*
X346410Y175978D01*
X345715Y175514D01*
X345215Y175014D01*
X344751Y174319D01*
X344588Y173500D01*
Y165887D01*
X341851Y163149D01*
X337000D01*
X336789Y163062D01*
X336572Y162988D01*
X336562Y162968D01*
X336541Y162959D01*
X336453Y162748D01*
X336352Y162542D01*
X336322Y162084D01*
X336090Y161220D01*
X335654Y160464D01*
X335643Y160453D01*
X334986Y160014D01*
X334520Y159548D01*
X334280Y159410D01*
X333437Y159184D01*
X332563D01*
X331720Y159410D01*
X330964Y159846D01*
X330346Y160464D01*
X329910Y161220D01*
X329678Y162084D01*
X329648Y162542D01*
X329547Y162748D01*
X329459Y162959D01*
X329438Y162968D01*
X329428Y162988D01*
X329211Y163062D01*
X329000Y163149D01*
X322539D01*
X322458Y163116D01*
X322371Y163127D01*
X321481Y162889D01*
X321411Y162835D01*
X321324Y162824D01*
X320526Y162363D01*
X320473Y162294D01*
X320392Y162260D01*
X319740Y161608D01*
X319707Y161527D01*
X319637Y161474D01*
X319176Y160676D01*
X319165Y160589D01*
X319111Y160519D01*
X318873Y159629D01*
X318884Y159542D01*
X318851Y159461D01*
Y158539D01*
X318884Y158458D01*
X318873Y158371D01*
X319111Y157481D01*
X319165Y157411D01*
X319176Y157324D01*
X319637Y156526D01*
X319707Y156473D01*
X319740Y156392D01*
X320392Y155740D01*
X320473Y155707D01*
X320526Y155637D01*
X321324Y155176D01*
X321411Y155165D01*
X321481Y155111D01*
X322371Y154873D01*
X322458Y154884D01*
X322539Y154851D01*
X328333D01*
X328373Y154805D01*
X328645Y153788D01*
X328699Y153718D01*
X328710Y153631D01*
X329237Y152719D01*
X329306Y152666D01*
X329340Y152585D01*
X330085Y151840D01*
X330166Y151806D01*
X330219Y151737D01*
X331131Y151210D01*
X331218Y151199D01*
X331288Y151145D01*
X332305Y150873D01*
X332392Y150884D01*
X332473Y150851D01*
X333527D01*
X333608Y150884D01*
X333695Y150873D01*
X334712Y151145D01*
X334782Y151199D01*
X334869Y151210D01*
X335781Y151737D01*
X335834Y151806D01*
X335915Y151840D01*
X336660Y152585D01*
X336694Y152666D01*
X336763Y152719D01*
X337290Y153631D01*
X337301Y153718D01*
X337355Y153788D01*
X337627Y154805D01*
X337667Y154851D01*
X343461D01*
X343542Y154884D01*
X343629Y154873D01*
X344519Y155111D01*
X344589Y155165D01*
X344676Y155176D01*
X345474Y155637D01*
X345527Y155707D01*
X345608Y155740D01*
X346260Y156392D01*
X346293Y156473D01*
X346363Y156526D01*
X346824Y157324D01*
X346835Y157411D01*
X346889Y157481D01*
X347127Y158371D01*
X347116Y158458D01*
X347149Y158539D01*
Y159461D01*
X347116Y159542D01*
X347127Y159629D01*
X346889Y160519D01*
X346835Y160589D01*
X346824Y160676D01*
X346363Y161474D01*
X346645Y161888D01*
X348243Y163486D01*
X348708Y164181D01*
X348870Y165000D01*
Y172676D01*
X349208Y173181D01*
X349371Y174000D01*
X349208Y174819D01*
X348743Y175514D01*
X348049Y175978D01*
X347229Y176141D01*
D02*
G37*
G36*
X224500Y175641D02*
X223681Y175478D01*
X222986Y175014D01*
X222486Y174514D01*
X222022Y173819D01*
X221859Y173000D01*
Y165387D01*
X219121Y162649D01*
X214000D01*
X213789Y162562D01*
X213572Y162488D01*
X213562Y162468D01*
X213541Y162459D01*
X213453Y162248D01*
X213352Y162042D01*
X213322Y161584D01*
X213090Y160720D01*
X212654Y159964D01*
X212036Y159346D01*
X211280Y158910D01*
X210437Y158684D01*
X209563D01*
X208720Y158910D01*
X207964Y159346D01*
X207346Y159964D01*
X206910Y160720D01*
X206678Y161584D01*
X206648Y162042D01*
X206547Y162248D01*
X206459Y162459D01*
X206438Y162468D01*
X206428Y162488D01*
X206211Y162562D01*
X206000Y162649D01*
X199539D01*
X199458Y162616D01*
X199371Y162627D01*
X198481Y162389D01*
X198411Y162335D01*
X198324Y162324D01*
X197526Y161863D01*
X197473Y161793D01*
X197392Y161760D01*
X196740Y161108D01*
X196706Y161027D01*
X196637Y160974D01*
X196176Y160176D01*
X196165Y160089D01*
X196111Y160019D01*
X195873Y159129D01*
X195884Y159042D01*
X195851Y158961D01*
Y158039D01*
X195884Y157958D01*
X195873Y157871D01*
X196111Y156981D01*
X196165Y156911D01*
X196176Y156824D01*
X196637Y156026D01*
X196706Y155973D01*
X196740Y155892D01*
X197392Y155240D01*
X197473Y155207D01*
X197526Y155137D01*
X198324Y154676D01*
X198411Y154665D01*
X198481Y154611D01*
X199371Y154373D01*
X199458Y154384D01*
X199539Y154351D01*
X205333D01*
X205373Y154305D01*
X205645Y153288D01*
X205699Y153218D01*
X205710Y153131D01*
X206237Y152219D01*
X206306Y152166D01*
X206340Y152085D01*
X207085Y151340D01*
X207166Y151306D01*
X207219Y151237D01*
X208131Y150710D01*
X208218Y150699D01*
X208288Y150645D01*
X209305Y150373D01*
X209392Y150384D01*
X209473Y150351D01*
X210527D01*
X210608Y150384D01*
X210695Y150373D01*
X211712Y150645D01*
X211782Y150699D01*
X211869Y150710D01*
X212781Y151237D01*
X212834Y151306D01*
X212915Y151340D01*
X213660Y152085D01*
X213694Y152166D01*
X213763Y152219D01*
X214290Y153131D01*
X214301Y153218D01*
X214355Y153288D01*
X214627Y154305D01*
X214667Y154351D01*
X220461D01*
X220542Y154384D01*
X220629Y154373D01*
X221519Y154611D01*
X221589Y154665D01*
X221676Y154676D01*
X222474Y155137D01*
X222527Y155207D01*
X222608Y155240D01*
X223260Y155892D01*
X223293Y155973D01*
X223363Y156026D01*
X223824Y156824D01*
X223835Y156911D01*
X223889Y156981D01*
X224127Y157871D01*
X224116Y157958D01*
X224149Y158039D01*
Y158961D01*
X224116Y159042D01*
X224127Y159129D01*
X223889Y160019D01*
X223835Y160089D01*
X223824Y160176D01*
X223414Y160886D01*
X225514Y162986D01*
X225978Y163681D01*
X226141Y164500D01*
Y172176D01*
X226478Y172681D01*
X226641Y173500D01*
X226478Y174319D01*
X226014Y175014D01*
X225319Y175478D01*
X224500Y175641D01*
D02*
G37*
G36*
X433000Y201649D02*
X431000D01*
X430541Y201459D01*
X425541Y196459D01*
X425351Y196000D01*
Y153000D01*
X425541Y152541D01*
X430541Y147541D01*
X431000Y147351D01*
X433000D01*
X433459Y147541D01*
X438459Y152541D01*
X438649Y153000D01*
Y196000D01*
X438459Y196459D01*
X433459Y201459D01*
X433000Y201649D01*
D02*
G37*
G36*
X358000D02*
X356000D01*
X355541Y201459D01*
X350541Y196459D01*
X350351Y196000D01*
Y153000D01*
X350541Y152541D01*
X355541Y147541D01*
X356000Y147351D01*
X358000D01*
X358459Y147541D01*
X363459Y152541D01*
X363649Y153000D01*
Y196000D01*
X363459Y196459D01*
X358459Y201459D01*
X358000Y201649D01*
D02*
G37*
G36*
X308812Y158269D02*
X304857D01*
Y153526D01*
X305713D01*
Y150212D01*
X294362Y138860D01*
X293900Y139052D01*
Y141144D01*
X293670D01*
Y144243D01*
X293507Y145062D01*
X293042Y145757D01*
X291285Y147514D01*
X290590Y147978D01*
X289771Y148141D01*
X261500D01*
X260681Y147978D01*
X259986Y147514D01*
X259522Y146819D01*
X259359Y146000D01*
X259522Y145181D01*
X259986Y144486D01*
X260681Y144022D01*
X261258Y143907D01*
X261433Y143375D01*
X259202Y141144D01*
X257731D01*
Y137312D01*
X257731Y137188D01*
X257731D01*
Y136812D01*
X257731D01*
Y132857D01*
X262474D01*
Y135226D01*
X265292Y138044D01*
X266239D01*
Y137188D01*
X270982D01*
Y141144D01*
X266239D01*
Y140287D01*
X265109D01*
X264902Y140787D01*
X267973Y143859D01*
X276977D01*
X277168Y143397D01*
X274915Y141144D01*
X273444D01*
Y137312D01*
X273444Y137188D01*
X273444D01*
Y136812D01*
X273444D01*
Y132857D01*
X278187D01*
Y135226D01*
X281005Y138044D01*
X281952D01*
Y137188D01*
X286695D01*
Y141144D01*
X281952D01*
Y140287D01*
X280822D01*
X280615Y140787D01*
X283686Y143859D01*
X288884D01*
X289387Y143356D01*
Y141144D01*
X289157D01*
Y137312D01*
X289157Y137188D01*
X289157D01*
Y136812D01*
X289157D01*
Y132857D01*
X293900D01*
Y135226D01*
X307628Y148954D01*
X307628Y148954D01*
X307871Y149318D01*
X307956Y149747D01*
Y153526D01*
X308812D01*
Y158269D01*
D02*
G37*
G36*
X416000Y143649D02*
X373000D01*
X372541Y143459D01*
X367541Y138459D01*
X367351Y138000D01*
Y136000D01*
X367541Y135541D01*
X372541Y130541D01*
X373000Y130351D01*
X416000D01*
X416459Y130541D01*
X421459Y135541D01*
X421649Y136000D01*
Y138000D01*
X421459Y138459D01*
X416459Y143459D01*
X416000Y143649D01*
D02*
G37*
G36*
X395239Y127149D02*
X393761D01*
X393700Y127124D01*
X393635Y127137D01*
X392186Y126849D01*
X392130Y126812D01*
X392064D01*
X390699Y126246D01*
X390652Y126199D01*
X390587Y126186D01*
X389358Y125366D01*
X389321Y125310D01*
X389260Y125285D01*
X388215Y124240D01*
X388190Y124179D01*
X388134Y124142D01*
X387314Y122913D01*
X387301Y122848D01*
X387254Y122801D01*
X386688Y121436D01*
Y121370D01*
X386651Y121314D01*
X386363Y119865D01*
X386376Y119800D01*
X386351Y119739D01*
Y118261D01*
X386376Y118200D01*
X386363Y118135D01*
X386651Y116686D01*
X386688Y116630D01*
Y116564D01*
X387254Y115199D01*
X387301Y115152D01*
X387314Y115087D01*
X388134Y113858D01*
X388190Y113821D01*
X388215Y113760D01*
X389260Y112715D01*
X389321Y112690D01*
X389358Y112634D01*
X390587Y111814D01*
X390652Y111801D01*
X390699Y111754D01*
X392064Y111188D01*
X392130D01*
X392186Y111151D01*
X393635Y110863D01*
X393700Y110876D01*
X393761Y110851D01*
X395239D01*
X395300Y110876D01*
X395365Y110863D01*
X396814Y111151D01*
X396870Y111188D01*
X396936D01*
X398301Y111754D01*
X398348Y111801D01*
X398413Y111814D01*
X399642Y112634D01*
X399679Y112690D01*
X399740Y112715D01*
X400785Y113760D01*
X400810Y113821D01*
X400866Y113858D01*
X401686Y115087D01*
X401699Y115152D01*
X401746Y115199D01*
X402312Y116564D01*
Y116630D01*
X402349Y116686D01*
X402637Y118135D01*
X402624Y118200D01*
X402649Y118261D01*
Y119739D01*
X402624Y119800D01*
X402637Y119865D01*
X402349Y121314D01*
X402312Y121370D01*
Y121436D01*
X401746Y122801D01*
X401699Y122848D01*
X401686Y122913D01*
X400866Y124142D01*
X400810Y124179D01*
X400785Y124240D01*
X399740Y125285D01*
X399679Y125310D01*
X399642Y125366D01*
X398413Y126186D01*
X398348Y126199D01*
X398301Y126246D01*
X396936Y126812D01*
X396870D01*
X396814Y126849D01*
X395365Y127137D01*
X395300Y127124D01*
X395239Y127149D01*
D02*
G37*
G36*
X272239D02*
X270761D01*
X270700Y127124D01*
X270635Y127137D01*
X269186Y126849D01*
X269130Y126812D01*
X269064D01*
X267699Y126246D01*
X267652Y126199D01*
X267587Y126186D01*
X266358Y125366D01*
X266321Y125310D01*
X266260Y125285D01*
X265215Y124240D01*
X265190Y124179D01*
X265134Y124142D01*
X264314Y122913D01*
X264301Y122848D01*
X264254Y122801D01*
X263688Y121436D01*
Y121370D01*
X263651Y121314D01*
X263363Y119865D01*
X263376Y119800D01*
X263351Y119739D01*
Y118261D01*
X263376Y118200D01*
X263363Y118135D01*
X263651Y116686D01*
X263688Y116630D01*
Y116564D01*
X264254Y115199D01*
X264301Y115152D01*
X264314Y115087D01*
X265134Y113858D01*
X265190Y113821D01*
X265215Y113760D01*
X266260Y112715D01*
X266321Y112690D01*
X266358Y112634D01*
X267587Y111814D01*
X267652Y111801D01*
X267699Y111754D01*
X269064Y111188D01*
X269130D01*
X269186Y111151D01*
X270635Y110863D01*
X270700Y110876D01*
X270761Y110851D01*
X272239D01*
X272300Y110876D01*
X272365Y110863D01*
X273814Y111151D01*
X273870Y111188D01*
X273936D01*
X275301Y111754D01*
X275348Y111801D01*
X275413Y111814D01*
X276642Y112634D01*
X276679Y112690D01*
X276740Y112715D01*
X277785Y113760D01*
X277810Y113821D01*
X277866Y113858D01*
X278686Y115087D01*
X278699Y115152D01*
X278746Y115199D01*
X279312Y116564D01*
Y116630D01*
X279349Y116686D01*
X279637Y118135D01*
X279624Y118200D01*
X279649Y118261D01*
Y119739D01*
X279624Y119800D01*
X279637Y119865D01*
X279349Y121314D01*
X279312Y121370D01*
Y121436D01*
X278746Y122801D01*
X278699Y122848D01*
X278686Y122913D01*
X277866Y124142D01*
X277810Y124179D01*
X277785Y124240D01*
X276740Y125285D01*
X276679Y125310D01*
X276642Y125366D01*
X275413Y126186D01*
X275348Y126199D01*
X275301Y126246D01*
X273936Y126812D01*
X273870D01*
X273814Y126849D01*
X272365Y127137D01*
X272300Y127124D01*
X272239Y127149D01*
D02*
G37*
G36*
X482239Y127149D02*
X480761D01*
X480700Y127124D01*
X480635Y127137D01*
X479186Y126849D01*
X479130Y126812D01*
X479064D01*
X477699Y126246D01*
X477652Y126199D01*
X477587Y126186D01*
X476358Y125366D01*
X476321Y125310D01*
X476260Y125285D01*
X475215Y124240D01*
X475190Y124179D01*
X475134Y124142D01*
X474314Y122913D01*
X474301Y122848D01*
X474254Y122801D01*
X473688Y121436D01*
Y121370D01*
X473651Y121314D01*
X473363Y119865D01*
X473376Y119800D01*
X473351Y119739D01*
Y118261D01*
X473376Y118200D01*
X473363Y118135D01*
X473651Y116686D01*
X473688Y116630D01*
Y116564D01*
X474254Y115199D01*
X474301Y115152D01*
X474314Y115087D01*
X475134Y113858D01*
X475190Y113821D01*
X475215Y113760D01*
X476260Y112715D01*
X476321Y112690D01*
X476358Y112634D01*
X477587Y111814D01*
X477652Y111801D01*
X477699Y111754D01*
X479064Y111188D01*
X479130D01*
X479186Y111151D01*
X480635Y110863D01*
X480700Y110876D01*
X480761Y110851D01*
X482239D01*
X482300Y110876D01*
X482365Y110863D01*
X483814Y111151D01*
X483870Y111188D01*
X483936D01*
X485301Y111754D01*
X485348Y111801D01*
X485413Y111814D01*
X486642Y112634D01*
X486679Y112690D01*
X486740Y112715D01*
X487785Y113760D01*
X487810Y113821D01*
X487866Y113858D01*
X488686Y115087D01*
X488699Y115152D01*
X488746Y115199D01*
X489312Y116564D01*
Y116630D01*
X489349Y116686D01*
X489637Y118135D01*
X489624Y118200D01*
X489649Y118261D01*
Y119739D01*
X489624Y119800D01*
X489637Y119865D01*
X489349Y121314D01*
X489312Y121370D01*
Y121436D01*
X488746Y122801D01*
X488699Y122848D01*
X488686Y122913D01*
X487866Y124142D01*
X487810Y124179D01*
X487785Y124240D01*
X486740Y125285D01*
X486679Y125310D01*
X486642Y125366D01*
X485413Y126186D01*
X485348Y126199D01*
X485301Y126246D01*
X483936Y126812D01*
X483870D01*
X483814Y126849D01*
X482365Y127137D01*
X482300Y127124D01*
X482239Y127149D01*
D02*
G37*
G36*
X185239D02*
X183761D01*
X183700Y127124D01*
X183635Y127137D01*
X182186Y126849D01*
X182130Y126812D01*
X182064D01*
X180699Y126246D01*
X180652Y126199D01*
X180587Y126186D01*
X179358Y125366D01*
X179321Y125310D01*
X179260Y125285D01*
X178215Y124240D01*
X178190Y124179D01*
X178134Y124142D01*
X177314Y122913D01*
X177301Y122848D01*
X177254Y122801D01*
X176688Y121436D01*
Y121370D01*
X176651Y121314D01*
X176363Y119865D01*
X176376Y119800D01*
X176351Y119739D01*
Y118261D01*
X176376Y118200D01*
X176363Y118135D01*
X176651Y116686D01*
X176688Y116630D01*
Y116564D01*
X177254Y115199D01*
X177301Y115152D01*
X177314Y115087D01*
X178134Y113858D01*
X178190Y113821D01*
X178215Y113760D01*
X179260Y112715D01*
X179321Y112690D01*
X179358Y112634D01*
X180587Y111814D01*
X180652Y111801D01*
X180699Y111754D01*
X182064Y111188D01*
X182130D01*
X182186Y111151D01*
X183635Y110863D01*
X183700Y110876D01*
X183761Y110851D01*
X185239D01*
X185300Y110876D01*
X185365Y110863D01*
X186814Y111151D01*
X186870Y111188D01*
X186936D01*
X188301Y111754D01*
X188348Y111801D01*
X188413Y111814D01*
X189642Y112634D01*
X189679Y112690D01*
X189740Y112715D01*
X190785Y113760D01*
X190810Y113821D01*
X190866Y113858D01*
X191686Y115087D01*
X191699Y115152D01*
X191746Y115199D01*
X192312Y116564D01*
Y116630D01*
X192349Y116686D01*
X192637Y118135D01*
X192624Y118200D01*
X192649Y118261D01*
Y119739D01*
X192624Y119800D01*
X192637Y119865D01*
X192349Y121314D01*
X192312Y121370D01*
Y121436D01*
X191746Y122801D01*
X191699Y122848D01*
X191686Y122913D01*
X190866Y124142D01*
X190810Y124179D01*
X190785Y124240D01*
X189740Y125285D01*
X189679Y125310D01*
X189642Y125366D01*
X188413Y126186D01*
X188348Y126199D01*
X188301Y126246D01*
X186936Y126812D01*
X186870D01*
X186814Y126849D01*
X185365Y127137D01*
X185300Y127124D01*
X185239Y127149D01*
D02*
G37*
%LPD*%
G36*
X221351Y268262D02*
X222149Y267801D01*
X222801Y267149D01*
X223261Y266351D01*
X223500Y265461D01*
Y264539D01*
X223261Y263649D01*
X222801Y262851D01*
X222149Y262199D01*
X221351Y261738D01*
X220461Y261500D01*
X214000D01*
Y260973D01*
X213727Y259956D01*
X213201Y259044D01*
X212456Y258299D01*
X211544Y257773D01*
X210527Y257500D01*
X209473D01*
X208456Y257773D01*
X207544Y258299D01*
X206799Y259044D01*
X206273Y259956D01*
X206000Y260973D01*
Y261500D01*
X199539D01*
X198649Y261738D01*
X197851Y262199D01*
X197199Y262851D01*
X196739Y263649D01*
X196500Y264539D01*
Y265461D01*
X196739Y266351D01*
X197199Y267149D01*
X197851Y267801D01*
X198649Y268262D01*
X199539Y268500D01*
X206000D01*
X206034Y267978D01*
X206305Y266969D01*
X206827Y266065D01*
X207565Y265327D01*
X208469Y264805D01*
X209478Y264534D01*
X210522D01*
X211531Y264805D01*
X212435Y265327D01*
X213173Y266065D01*
X213696Y266969D01*
X213966Y267978D01*
X214000Y268500D01*
X220461D01*
X221351Y268262D01*
D02*
G37*
G36*
Y215262D02*
X222149Y214801D01*
X222801Y214149D01*
X223261Y213351D01*
X223500Y212461D01*
Y211539D01*
X223261Y210649D01*
X222801Y209851D01*
X222149Y209199D01*
X221351Y208738D01*
X220461Y208500D01*
X214000D01*
Y207973D01*
X213727Y206956D01*
X213201Y206044D01*
X212456Y205299D01*
X211544Y204773D01*
X210527Y204500D01*
X209473D01*
X208456Y204773D01*
X207544Y205299D01*
X206799Y206044D01*
X206273Y206956D01*
X206000Y207973D01*
Y208500D01*
X199539D01*
X198649Y208738D01*
X197851Y209199D01*
X197199Y209851D01*
X196739Y210649D01*
X196500Y211539D01*
Y212461D01*
X196739Y213351D01*
X197199Y214149D01*
X197851Y214801D01*
X198649Y215262D01*
X199539Y215500D01*
X206000D01*
X206034Y214978D01*
X206305Y213969D01*
X206827Y213065D01*
X207565Y212327D01*
X208469Y211805D01*
X209478Y211534D01*
X210522D01*
X211531Y211805D01*
X212435Y212327D01*
X213173Y213065D01*
X213696Y213969D01*
X213966Y214978D01*
X214000Y215500D01*
X220461D01*
X221351Y215262D01*
D02*
G37*
G36*
X518351Y268262D02*
X519149Y267801D01*
X519801Y267149D01*
X520261Y266351D01*
X520500Y265461D01*
Y264539D01*
X520261Y263649D01*
X519801Y262851D01*
X519149Y262199D01*
X518351Y261738D01*
X517461Y261500D01*
X511000D01*
Y260973D01*
X510727Y259956D01*
X510201Y259044D01*
X509456Y258299D01*
X508544Y257773D01*
X507527Y257500D01*
X506473D01*
X505456Y257773D01*
X504544Y258299D01*
X503799Y259044D01*
X503273Y259956D01*
X503000Y260973D01*
Y261500D01*
X496539D01*
X495649Y261738D01*
X494851Y262199D01*
X494199Y262851D01*
X493739Y263649D01*
X493500Y264539D01*
Y265461D01*
X493739Y266351D01*
X494199Y267149D01*
X494851Y267801D01*
X495649Y268262D01*
X496539Y268500D01*
X503000D01*
X503034Y267978D01*
X503304Y266969D01*
X503827Y266065D01*
X504565Y265327D01*
X505469Y264805D01*
X506478Y264534D01*
X507522D01*
X508531Y264805D01*
X509435Y265327D01*
X510173Y266065D01*
X510696Y266969D01*
X510966Y267978D01*
X511000Y268500D01*
X517461D01*
X518351Y268262D01*
D02*
G37*
G36*
X467351D02*
X468149Y267801D01*
X468801Y267149D01*
X469262Y266351D01*
X469500Y265461D01*
Y264539D01*
X469262Y263649D01*
X468801Y262851D01*
X468149Y262199D01*
X467351Y261738D01*
X466461Y261500D01*
X460000D01*
Y260973D01*
X459727Y259956D01*
X459201Y259044D01*
X458456Y258299D01*
X457544Y257773D01*
X456527Y257500D01*
X455473D01*
X454456Y257773D01*
X453544Y258299D01*
X452799Y259044D01*
X452273Y259956D01*
X452000Y260973D01*
Y261500D01*
X445539D01*
X444649Y261738D01*
X443851Y262199D01*
X443199Y262851D01*
X442738Y263649D01*
X442500Y264539D01*
Y265461D01*
X442738Y266351D01*
X443199Y267149D01*
X443851Y267801D01*
X444649Y268262D01*
X445539Y268500D01*
X452000D01*
X452034Y267978D01*
X452305Y266969D01*
X452827Y266065D01*
X453565Y265327D01*
X454469Y264805D01*
X455478Y264534D01*
X456522D01*
X457531Y264805D01*
X458435Y265327D01*
X459173Y266065D01*
X459695Y266969D01*
X459966Y267978D01*
X460000Y268500D01*
X466461D01*
X467351Y268262D01*
D02*
G37*
G36*
X241359Y237843D02*
X238605Y235089D01*
X238143Y235280D01*
Y239048D01*
X237287D01*
Y240460D01*
X237287Y240460D01*
X237202Y240889D01*
X236959Y241253D01*
X236959Y241253D01*
X235860Y242351D01*
X236052Y242813D01*
X238143D01*
Y243043D01*
X241359D01*
Y237843D01*
D02*
G37*
G36*
X467351Y215262D02*
X468149Y214801D01*
X468801Y214149D01*
X469262Y213351D01*
X469500Y212461D01*
Y211539D01*
X469262Y210649D01*
X468801Y209851D01*
X468149Y209199D01*
X467351Y208738D01*
X466461Y208500D01*
X460000D01*
Y207973D01*
X459727Y206956D01*
X459201Y206044D01*
X458456Y205299D01*
X457544Y204773D01*
X456527Y204500D01*
X455473D01*
X454456Y204773D01*
X453544Y205299D01*
X452799Y206044D01*
X452273Y206956D01*
X452000Y207973D01*
Y208500D01*
X445539D01*
X444649Y208738D01*
X443851Y209199D01*
X443199Y209851D01*
X442738Y210649D01*
X442500Y211539D01*
Y212461D01*
X442738Y213351D01*
X443199Y214149D01*
X443851Y214801D01*
X444649Y215262D01*
X445539Y215500D01*
X452000D01*
X452034Y214978D01*
X452305Y213969D01*
X452827Y213065D01*
X453565Y212327D01*
X454469Y211805D01*
X455478Y211534D01*
X456522D01*
X457531Y211805D01*
X458435Y212327D01*
X459173Y213065D01*
X459695Y213969D01*
X459966Y214978D01*
X460000Y215500D01*
X466461D01*
X467351Y215262D01*
D02*
G37*
G36*
X344351D02*
X345149Y214801D01*
X345801Y214149D01*
X346262Y213351D01*
X346500Y212461D01*
Y211539D01*
X346262Y210649D01*
X345801Y209851D01*
X345149Y209199D01*
X344351Y208738D01*
X343461Y208500D01*
X337000D01*
Y207973D01*
X336727Y206956D01*
X336201Y206044D01*
X335456Y205299D01*
X334544Y204773D01*
X333527Y204500D01*
X332473D01*
X331456Y204773D01*
X330544Y205299D01*
X329799Y206044D01*
X329273Y206956D01*
X329000Y207973D01*
Y208500D01*
X322539D01*
X321649Y208738D01*
X320851Y209199D01*
X320199Y209851D01*
X319739Y210649D01*
X319500Y211539D01*
Y212461D01*
X319739Y213351D01*
X320199Y214149D01*
X320851Y214801D01*
X321649Y215262D01*
X322539Y215500D01*
X329000D01*
X329034Y214978D01*
X329305Y213969D01*
X329827Y213065D01*
X330565Y212327D01*
X331469Y211805D01*
X332478Y211534D01*
X333522D01*
X334531Y211805D01*
X335435Y212327D01*
X336173Y213065D01*
X336696Y213969D01*
X336966Y214978D01*
X337000Y215500D01*
X343461D01*
X344351Y215262D01*
D02*
G37*
G36*
Y268262D02*
X345149Y267801D01*
X345801Y267149D01*
X346262Y266351D01*
X346500Y265461D01*
Y264539D01*
X346262Y263649D01*
X345801Y262851D01*
X345149Y262199D01*
X344351Y261738D01*
X343461Y261500D01*
X337000D01*
Y260973D01*
X336727Y259956D01*
X336201Y259044D01*
X335456Y258299D01*
X334544Y257773D01*
X333527Y257500D01*
X332473D01*
X331456Y257773D01*
X330544Y258299D01*
X329799Y259044D01*
X329273Y259956D01*
X329000Y260973D01*
Y261500D01*
X322539D01*
X321649Y261738D01*
X320851Y262199D01*
X320199Y262851D01*
X319739Y263649D01*
X319500Y264539D01*
Y265461D01*
X319739Y266351D01*
X320199Y267149D01*
X320851Y267801D01*
X321649Y268262D01*
X322539Y268500D01*
X329000D01*
X329034Y267978D01*
X329305Y266969D01*
X329827Y266065D01*
X330565Y265327D01*
X331469Y264805D01*
X332478Y264534D01*
X333522D01*
X334531Y264805D01*
X335435Y265327D01*
X336173Y266065D01*
X336696Y266969D01*
X336966Y267978D01*
X337000Y268500D01*
X343461D01*
X344351Y268262D01*
D02*
G37*
G36*
X518351Y215262D02*
X519149Y214801D01*
X519801Y214149D01*
X520261Y213351D01*
X520500Y212461D01*
Y211539D01*
X520261Y210649D01*
X519801Y209851D01*
X519149Y209199D01*
X518351Y208738D01*
X517461Y208500D01*
X511000D01*
Y207973D01*
X510727Y206956D01*
X510201Y206044D01*
X509456Y205299D01*
X508544Y204773D01*
X507527Y204500D01*
X506473D01*
X505456Y204773D01*
X504544Y205299D01*
X503799Y206044D01*
X503273Y206956D01*
X503000Y207973D01*
Y208500D01*
X496539D01*
X495649Y208738D01*
X494851Y209199D01*
X494199Y209851D01*
X493739Y210649D01*
X493500Y211539D01*
Y212461D01*
X493739Y213351D01*
X494199Y214149D01*
X494851Y214801D01*
X495649Y215262D01*
X496539Y215500D01*
X503000D01*
X503034Y214978D01*
X503304Y213969D01*
X503827Y213065D01*
X504565Y212327D01*
X505469Y211805D01*
X506478Y211534D01*
X507522D01*
X508531Y211805D01*
X509435Y212327D01*
X510173Y213065D01*
X510696Y213969D01*
X510966Y214978D01*
X511000Y215500D01*
X517461D01*
X518351Y215262D01*
D02*
G37*
G36*
X467351Y161761D02*
X468149Y161301D01*
X468801Y160649D01*
X469262Y159851D01*
X469500Y158961D01*
Y158039D01*
X469262Y157149D01*
X468801Y156351D01*
X468149Y155699D01*
X467351Y155238D01*
X466461Y155000D01*
X460000D01*
Y154473D01*
X459727Y153456D01*
X459201Y152544D01*
X458456Y151799D01*
X457544Y151273D01*
X456527Y151000D01*
X455473D01*
X454456Y151273D01*
X453544Y151799D01*
X452799Y152544D01*
X452273Y153456D01*
X452000Y154473D01*
Y155000D01*
X445539D01*
X444649Y155238D01*
X443851Y155699D01*
X443199Y156351D01*
X442738Y157149D01*
X442500Y158039D01*
Y158961D01*
X442738Y159851D01*
X443199Y160649D01*
X443851Y161301D01*
X444649Y161761D01*
X445539Y162000D01*
X452000D01*
X452034Y161478D01*
X452305Y160469D01*
X452827Y159565D01*
X453565Y158827D01*
X454469Y158305D01*
X455478Y158034D01*
X456522D01*
X457531Y158305D01*
X458435Y158827D01*
X459173Y159565D01*
X459695Y160469D01*
X459966Y161478D01*
X460000Y162000D01*
X466461D01*
X467351Y161761D01*
D02*
G37*
G36*
X518351Y162261D02*
X519149Y161801D01*
X519801Y161149D01*
X520261Y160351D01*
X520500Y159461D01*
Y158539D01*
X520261Y157649D01*
X519801Y156851D01*
X519149Y156199D01*
X518351Y155738D01*
X517461Y155500D01*
X511000D01*
Y154973D01*
X510727Y153956D01*
X510201Y153044D01*
X509456Y152299D01*
X508544Y151773D01*
X507527Y151500D01*
X506473D01*
X505456Y151773D01*
X504544Y152299D01*
X503799Y153044D01*
X503273Y153956D01*
X503000Y154973D01*
Y155500D01*
X496539D01*
X495649Y155738D01*
X494851Y156199D01*
X494199Y156851D01*
X493739Y157649D01*
X493500Y158539D01*
Y159461D01*
X493739Y160351D01*
X494199Y161149D01*
X494851Y161801D01*
X495649Y162261D01*
X496539Y162500D01*
X503000D01*
X503034Y161978D01*
X503304Y160969D01*
X503827Y160065D01*
X504565Y159327D01*
X505469Y158805D01*
X506478Y158534D01*
X507522D01*
X508531Y158805D01*
X509435Y159327D01*
X510173Y160065D01*
X510696Y160969D01*
X510966Y161978D01*
X511000Y162500D01*
X517461D01*
X518351Y162261D01*
D02*
G37*
G36*
X344351D02*
X345149Y161801D01*
X345801Y161149D01*
X346262Y160351D01*
X346500Y159461D01*
Y158539D01*
X346262Y157649D01*
X345801Y156851D01*
X345149Y156199D01*
X344351Y155738D01*
X343461Y155500D01*
X337000D01*
Y154973D01*
X336727Y153956D01*
X336201Y153044D01*
X335456Y152299D01*
X334544Y151773D01*
X333527Y151500D01*
X332473D01*
X331456Y151773D01*
X330544Y152299D01*
X329799Y153044D01*
X329273Y153956D01*
X329000Y154973D01*
Y155500D01*
X322539D01*
X321649Y155738D01*
X320851Y156199D01*
X320199Y156851D01*
X319739Y157649D01*
X319500Y158539D01*
Y159461D01*
X319739Y160351D01*
X320199Y161149D01*
X320851Y161801D01*
X321649Y162261D01*
X322539Y162500D01*
X329000D01*
X329034Y161978D01*
X329305Y160969D01*
X329827Y160065D01*
X330565Y159327D01*
X331469Y158805D01*
X332478Y158534D01*
X333522D01*
X334531Y158805D01*
X335435Y159327D01*
X336173Y160065D01*
X336696Y160969D01*
X336966Y161978D01*
X337000Y162500D01*
X343461D01*
X344351Y162261D01*
D02*
G37*
G36*
X221351Y161761D02*
X222149Y161301D01*
X222801Y160649D01*
X223261Y159851D01*
X223500Y158961D01*
Y158039D01*
X223261Y157149D01*
X222801Y156351D01*
X222149Y155699D01*
X221351Y155238D01*
X220461Y155000D01*
X214000D01*
Y154473D01*
X213727Y153456D01*
X213201Y152544D01*
X212456Y151799D01*
X211544Y151273D01*
X210527Y151000D01*
X209473D01*
X208456Y151273D01*
X207544Y151799D01*
X206799Y152544D01*
X206273Y153456D01*
X206000Y154473D01*
Y155000D01*
X199539D01*
X198649Y155238D01*
X197851Y155699D01*
X197199Y156351D01*
X196739Y157149D01*
X196500Y158039D01*
Y158961D01*
X196739Y159851D01*
X197199Y160649D01*
X197851Y161301D01*
X198649Y161761D01*
X199539Y162000D01*
X206000D01*
X206034Y161478D01*
X206305Y160469D01*
X206827Y159565D01*
X207565Y158827D01*
X208469Y158305D01*
X209478Y158034D01*
X210522D01*
X211531Y158305D01*
X212435Y158827D01*
X213173Y159565D01*
X213696Y160469D01*
X213966Y161478D01*
X214000Y162000D01*
X220461D01*
X221351Y161761D01*
D02*
G37*
D10*
X221000Y212500D02*
X226500Y218000D01*
Y267473D01*
X248192Y289165D01*
X251472D01*
X466500Y212201D02*
X468000Y213701D01*
Y256500D02*
X475212Y263712D01*
X468000Y213701D02*
Y256500D01*
X466500Y212000D02*
Y212201D01*
X477444Y263712D02*
X477898Y264165D01*
X475212Y263712D02*
X477444D01*
X433000Y212000D02*
X446000D01*
X420500Y199500D02*
X433000Y212000D01*
X369000Y199500D02*
X420500D01*
X356500Y212000D02*
X369000Y199500D01*
X343000Y212000D02*
X356500D01*
X290103Y209835D02*
X306334D01*
X311165Y194528D02*
Y220834D01*
X306835Y225166D02*
X311165Y220834D01*
X214500Y212500D02*
X221000D01*
X210000Y208000D02*
X214500Y212500D01*
X504000Y211000D02*
X507000Y208000D01*
X497000Y211000D02*
X504000D01*
X492000Y206000D02*
X497000Y211000D01*
X492000Y163500D02*
Y206000D01*
X488342Y159842D02*
X492000Y163500D01*
X485981Y159842D02*
X488342D01*
X485103Y158964D02*
X485981Y159842D01*
X484709Y172150D02*
X485103D01*
X483831Y171272D02*
X484709Y172150D01*
X483831Y168835D02*
Y171272D01*
X478291Y163295D02*
X483831Y168835D01*
X477898Y163295D02*
X478291D01*
X484709Y185335D02*
X485103D01*
X483831Y184457D02*
X484709Y185335D01*
X483831Y182020D02*
Y184457D01*
X478291Y176480D02*
X483831Y182020D01*
X477898Y176480D02*
X478291D01*
X477898Y189665D02*
Y198898D01*
X485103Y206102D01*
Y233964D01*
X484709Y246899D02*
X485103D01*
X483831Y246022D02*
X484709Y246899D01*
X483831Y243835D02*
Y246022D01*
X478291Y238295D02*
X483831Y243835D01*
X477898Y238295D02*
X478291D01*
X484709Y259835D02*
X485103D01*
X483831Y258957D02*
X484709Y259835D01*
X483831Y258563D02*
Y258957D01*
X479169Y253901D02*
X483831Y258563D01*
X479169Y252108D02*
Y253901D01*
X478291Y251231D02*
X479169Y252108D01*
X477898Y251231D02*
X478291D01*
X460000Y212000D02*
X466500D01*
X456000Y208000D02*
X460000Y212000D01*
X282504Y214165D02*
X282897D01*
X278999Y210661D02*
X282504Y214165D01*
X275216Y210661D02*
X278999D01*
X274390Y209835D02*
X275216Y210661D01*
X266791Y214165D02*
X267185D01*
X263074Y210448D02*
X266791Y214165D01*
X259291Y210448D02*
X263074D01*
X258677Y209835D02*
X259291Y210448D01*
X251472Y214165D02*
Y256028D01*
X239398Y268103D02*
X251472Y256028D01*
X236165Y268103D02*
X239398D01*
X236165Y252390D02*
Y256173D01*
X231835Y260504D02*
X236165Y256173D01*
X231835Y260504D02*
Y260897D01*
X236165Y236677D02*
Y240460D01*
X231835Y244791D02*
X236165Y240460D01*
X231835Y244791D02*
Y245185D01*
X236165Y193103D02*
Y224747D01*
X231835Y229078D02*
X236165Y224747D01*
X231835Y229078D02*
Y229472D01*
X236165Y177390D02*
Y181173D01*
X231835Y185504D02*
X236165Y181173D01*
X231835Y185504D02*
Y185898D01*
X236165Y161677D02*
Y165460D01*
X231835Y169791D02*
X236165Y165460D01*
X231835Y169791D02*
Y170185D01*
X246747Y139165D02*
X252898D01*
X231835Y154078D02*
X246747Y139165D01*
X231835Y154078D02*
Y154472D01*
X264827Y139165D02*
X268610D01*
X260496Y134835D02*
X264827Y139165D01*
X260103Y134835D02*
X260496D01*
X280540Y139165D02*
X284323D01*
X276209Y134835D02*
X280540Y139165D01*
X275815Y134835D02*
X276209D01*
X306835Y149747D02*
Y155897D01*
X291922Y134835D02*
X306835Y149747D01*
X291528Y134835D02*
X291922D01*
X306835Y167827D02*
Y171610D01*
Y167827D02*
X311165Y163496D01*
Y163102D02*
Y163496D01*
Y178815D02*
Y179209D01*
X307712Y182662D02*
X311165Y179209D01*
X307712Y182662D02*
Y186445D01*
X306835Y187323D02*
X307712Y186445D01*
X306835Y225166D02*
Y230897D01*
X311165Y238103D02*
Y238496D01*
X306835Y242827D02*
X311165Y238496D01*
X306835Y242827D02*
Y246610D01*
X311165Y253815D02*
Y254209D01*
X307448Y257926D02*
X311165Y254209D01*
X307448Y257926D02*
Y261709D01*
X306835Y262323D02*
X307448Y261709D01*
X290103Y284835D02*
X298665D01*
X311165Y269528D02*
Y272335D01*
X298665Y284835D02*
X311165Y272335D01*
X274390Y284835D02*
X278173D01*
X282504Y289165D01*
X282897D01*
X258677Y284835D02*
X262460D01*
X266791Y289165D01*
X267185D01*
X501000Y259000D02*
G03*
X513000Y259000I6000J0D01*
G01*
Y271000D02*
G03*
X501000Y271000I-6000J0D01*
G01*
Y206000D02*
G03*
X513000Y206000I6000J0D01*
G01*
Y218000D02*
G03*
X501000Y218000I-6000J0D01*
G01*
X513000Y165000D02*
G03*
X501000Y165000I-6000J0D01*
G01*
Y153000D02*
G03*
X513000Y153000I6000J0D01*
G01*
X204000D02*
G03*
X216000Y153000I6000J0D01*
G01*
X327000Y259000D02*
G03*
X339000Y259000I6000J0D01*
G01*
X450000Y153000D02*
G03*
X462000Y153000I6000J0D01*
G01*
X450000Y206000D02*
G03*
X462000Y206000I6000J0D01*
G01*
Y218000D02*
G03*
X450000Y218000I-6000J0D01*
G01*
Y259000D02*
G03*
X462000Y259000I6000J0D01*
G01*
X327000Y206000D02*
G03*
X339000Y206000I6000J0D01*
G01*
Y218000D02*
G03*
X327000Y218000I-6000J0D01*
G01*
Y153000D02*
G03*
X339000Y153000I6000J0D01*
G01*
X216000Y165000D02*
G03*
X204000Y165000I-6000J0D01*
G01*
Y206000D02*
G03*
X216000Y206000I6000J0D01*
G01*
Y218000D02*
G03*
X204000Y218000I-6000J0D01*
G01*
Y259000D02*
G03*
X216000Y259000I6000J0D01*
G01*
X462000Y271000D02*
G03*
X450000Y271000I-6000J0D01*
G01*
X462000Y165000D02*
G03*
X450000Y165000I-6000J0D01*
G01*
X339000Y271000D02*
G03*
X327000Y271000I-6000J0D01*
G01*
X339000Y165000D02*
G03*
X327000Y165000I-6000J0D01*
G01*
X216000Y271000D02*
G03*
X204000Y271000I-6000J0D01*
G01*
X517000Y153000D02*
G03*
X517000Y165000I0J6000D01*
G01*
Y206000D02*
G03*
X517000Y218000I0J6000D01*
G01*
Y259000D02*
G03*
X517000Y271000I0J6000D01*
G01*
X250000Y305000D02*
G03*
X216000Y271000I0J-34000D01*
G01*
X293000Y119000D02*
G03*
X327000Y153000I0J34000D01*
G01*
X216000D02*
G03*
X250000Y119000I34000J0D01*
G01*
X327000Y271000D02*
G03*
X293000Y305000I-34000J0D01*
G01*
D02*
G03*
X250000Y305000I-21500J0D01*
G01*
X279000D02*
G03*
X279000Y305000I-7500J0D01*
G01*
Y119000D02*
G03*
X279000Y119000I-7500J0D01*
G01*
X250000D02*
G03*
X293000Y119000I21500J0D01*
G01*
X165000Y119000D02*
G03*
X204000Y119000I19500J0D01*
G01*
X192000D02*
G03*
X192000Y119000I-7500J0D01*
G01*
Y305000D02*
G03*
X192000Y305000I-7500J0D01*
G01*
X204000D02*
G03*
X165000Y305000I-19500J0D01*
G01*
X192000Y267000D02*
G03*
X177000Y267000I-7500J-7500D01*
G01*
Y157000D02*
G03*
X192000Y157000I7500J7500D01*
G01*
X177000Y232000D02*
G03*
X192000Y232000I7500J7500D01*
G01*
Y192000D02*
G03*
X177000Y192000I-7500J-7500D01*
G01*
X416000Y119000D02*
G03*
X450000Y153000I0J34000D01*
G01*
X339000D02*
G03*
X373000Y119000I34000J0D01*
G01*
Y305000D02*
G03*
X339000Y271000I0J-34000D01*
G01*
X450000D02*
G03*
X416000Y305000I-34000J0D01*
G01*
D02*
G03*
X373000Y305000I-21500J0D01*
G01*
X402000D02*
G03*
X402000Y305000I-7500J0D01*
G01*
Y119000D02*
G03*
X402000Y119000I-7500J0D01*
G01*
X373000D02*
G03*
X416000Y119000I21500J0D01*
G01*
X501000Y305000D02*
G03*
X462000Y305000I-19500J0D01*
G01*
X489000D02*
G03*
X489000Y305000I-7500J0D01*
G01*
Y119000D02*
G03*
X489000Y119000I-7500J0D01*
G01*
X462000D02*
G03*
X501000Y119000I19500J0D01*
G01*
X513000Y271000D02*
X517000D01*
X513000Y259000D02*
X517000D01*
X513000Y218000D02*
X517000D01*
X513000Y206000D02*
X517000D01*
X513000Y153000D02*
X517000D01*
X513000Y165000D02*
X517000D01*
X501000Y218000D02*
Y259000D01*
Y165000D02*
Y206000D01*
X216000Y218000D02*
Y259000D01*
X462000Y165000D02*
Y206000D01*
X450000Y165000D02*
Y206000D01*
Y218000D02*
Y259000D01*
X462000Y218000D02*
Y259000D01*
X339000Y165000D02*
Y206000D01*
X327000Y165000D02*
Y206000D01*
Y218000D02*
Y259000D01*
X339000Y218000D02*
Y259000D01*
X204000Y218000D02*
Y259000D01*
Y165000D02*
Y206000D01*
X165000Y153000D02*
Y271000D01*
X216000Y165000D02*
Y206000D01*
X204000Y119000D02*
Y153000D01*
X165000Y119000D02*
Y153000D01*
X204000Y271000D02*
Y305000D01*
X165000Y271000D02*
Y305000D01*
X192000Y157000D02*
Y192000D01*
X177000Y157000D02*
Y192000D01*
X192000Y232000D02*
Y267000D01*
X177000Y232000D02*
Y267000D01*
X356000Y201000D02*
X358000D01*
X368000Y136000D02*
Y138000D01*
Y286000D02*
Y288000D01*
X356000Y276000D02*
X358000D01*
X368000Y211000D02*
Y213000D01*
X431000Y201000D02*
X433000D01*
X431000Y276000D02*
X433000D01*
Y201000D02*
X438000Y196000D01*
X358000Y201000D02*
X363000Y196000D01*
X351000D02*
X356000Y201000D01*
X426000Y196000D02*
X431000Y201000D01*
Y148000D02*
X433000D01*
X356000D02*
X358000D01*
X433000D02*
X438000Y153000D01*
X363000D02*
Y196000D01*
X426000Y153000D02*
Y196000D01*
X438000Y153000D02*
Y196000D01*
X351000Y153000D02*
X356000Y148000D01*
X358000D02*
X363000Y153000D01*
X426000D02*
X431000Y148000D01*
X351000Y153000D02*
Y196000D01*
X431000Y223000D02*
X433000D01*
X356000D02*
X358000D01*
X433000D02*
X438000Y228000D01*
X351000D02*
X356000Y223000D01*
X358000D02*
X363000Y228000D01*
X426000D02*
X431000Y223000D01*
X433000Y276000D02*
X438000Y271000D01*
X363000Y228000D02*
Y271000D01*
X426000Y228000D02*
Y271000D01*
X438000Y228000D02*
Y271000D01*
X358000Y276000D02*
X363000Y271000D01*
X351000D02*
X356000Y276000D01*
X426000Y271000D02*
X431000Y276000D01*
X351000Y228000D02*
Y271000D01*
X373000Y143000D02*
X416000D01*
X373000Y131000D02*
X416000D01*
X421000Y136000D01*
X416000Y143000D02*
X421000Y138000D01*
Y136000D02*
Y138000D01*
X368000Y136000D02*
X373000Y131000D01*
X368000Y138000D02*
X373000Y143000D01*
Y218000D02*
X416000D01*
X373000Y206000D02*
X416000D01*
X421000Y211000D01*
X416000Y218000D02*
X421000Y213000D01*
Y211000D02*
Y213000D01*
X368000Y211000D02*
X373000Y206000D01*
X368000Y213000D02*
X373000Y218000D01*
Y293000D02*
X416000D01*
X373000Y281000D02*
X416000D01*
X421000Y286000D01*
X416000Y293000D02*
X421000Y288000D01*
Y286000D02*
Y288000D01*
X368000Y286000D02*
X373000Y281000D01*
X368000Y288000D02*
X373000Y293000D01*
X462000Y271000D02*
Y305000D01*
X501000Y271000D02*
Y305000D01*
X462000Y119000D02*
Y153000D01*
X501000Y119000D02*
Y153000D01*
D13*
X251472Y214165D02*
D03*
Y209835D02*
D03*
X258677D02*
D03*
Y214165D02*
D03*
X291528Y134835D02*
D03*
Y139165D02*
D03*
X284323D02*
D03*
Y134835D02*
D03*
X251472Y289165D02*
D03*
Y284835D02*
D03*
X258677D02*
D03*
Y289165D02*
D03*
X267185Y214165D02*
D03*
Y209835D02*
D03*
X274390D02*
D03*
Y214165D02*
D03*
X275815Y134835D02*
D03*
Y139165D02*
D03*
X268610D02*
D03*
Y134835D02*
D03*
X267185Y289165D02*
D03*
Y284835D02*
D03*
X274390D02*
D03*
Y289165D02*
D03*
X282897Y214165D02*
D03*
Y209835D02*
D03*
X290103D02*
D03*
Y214165D02*
D03*
X260103Y134835D02*
D03*
Y139165D02*
D03*
X252898D02*
D03*
Y134835D02*
D03*
X282897Y289165D02*
D03*
Y284835D02*
D03*
X290103D02*
D03*
Y289165D02*
D03*
X477898Y189665D02*
D03*
Y185335D02*
D03*
X485103D02*
D03*
Y189665D02*
D03*
X477898Y264165D02*
D03*
Y259835D02*
D03*
X485103D02*
D03*
Y264165D02*
D03*
X477898Y176480D02*
D03*
Y172150D02*
D03*
X485103D02*
D03*
Y176480D02*
D03*
X477898Y251231D02*
D03*
Y246899D02*
D03*
X485103D02*
D03*
Y251231D02*
D03*
X477898Y163295D02*
D03*
Y158964D02*
D03*
X485103D02*
D03*
Y163295D02*
D03*
X477898Y238295D02*
D03*
Y233964D02*
D03*
X485103D02*
D03*
Y238295D02*
D03*
D14*
X231835Y229472D02*
D03*
X236165D02*
D03*
Y236677D02*
D03*
X231835D02*
D03*
Y154472D02*
D03*
X236165D02*
D03*
Y161677D02*
D03*
X231835D02*
D03*
X311165Y194528D02*
D03*
X306835D02*
D03*
Y187323D02*
D03*
X311165D02*
D03*
Y269528D02*
D03*
X306835D02*
D03*
Y262323D02*
D03*
X311165D02*
D03*
X231835Y245185D02*
D03*
X236165D02*
D03*
Y252390D02*
D03*
X231835D02*
D03*
Y170185D02*
D03*
X236165D02*
D03*
Y177390D02*
D03*
X231835D02*
D03*
X311165Y178815D02*
D03*
X306835D02*
D03*
Y171610D02*
D03*
X311165D02*
D03*
Y253815D02*
D03*
X306835D02*
D03*
Y246610D02*
D03*
X311165D02*
D03*
X231835Y260897D02*
D03*
X236165D02*
D03*
Y268103D02*
D03*
X231835D02*
D03*
Y185898D02*
D03*
X236165D02*
D03*
Y193103D02*
D03*
X231835D02*
D03*
X311165Y163102D02*
D03*
X306835D02*
D03*
Y155897D02*
D03*
X311165D02*
D03*
Y238103D02*
D03*
X306835D02*
D03*
Y230897D02*
D03*
X311165D02*
D03*
D18*
X474000Y152500D02*
Y161074D01*
Y174258D01*
X477775Y159086D02*
X477898Y158964D01*
X475987Y159086D02*
X477775D01*
X474000Y161074D02*
X475987Y159086D01*
X463229Y158000D02*
X469400Y164171D01*
Y164500D01*
X477775Y172272D02*
X477898Y172150D01*
X475987Y172272D02*
X477775D01*
X474000Y174258D02*
X475987Y172272D01*
X474000Y174258D02*
Y183455D01*
X475757Y185212D02*
X477775D01*
X469565Y164665D02*
Y173335D01*
X469400Y173500D02*
X469565Y173335D01*
X474000Y183455D02*
X475757Y185212D01*
X477775D02*
X477898Y185335D01*
X471492Y232508D02*
Y238008D01*
X477748Y259835D02*
X477898D01*
X471492Y253578D02*
X477748Y259835D01*
X471492Y240643D02*
Y253578D01*
Y238008D02*
X475414Y234086D01*
X477748Y246899D02*
X477898D01*
X471492Y240643D02*
X477748Y246899D01*
X471492Y238008D02*
Y240643D01*
X477775Y234086D02*
X477898Y233964D01*
X475414Y234086D02*
X477775D01*
X243000Y178913D02*
Y185500D01*
X236165Y185748D02*
Y185898D01*
Y185748D02*
X243000Y178913D01*
Y163200D02*
Y178913D01*
X236165Y170035D02*
Y170185D01*
Y170035D02*
X243000Y163200D01*
Y157000D02*
Y163200D01*
X240743Y154743D02*
X243000Y157000D01*
X236288Y154743D02*
X240743D01*
X236165Y154472D02*
Y154621D01*
X236288Y154743D01*
X261500Y146000D02*
X267087D01*
X260103Y139165D02*
X260252D01*
X267087Y146000D01*
X282800D01*
X275815Y139165D02*
X275965D01*
X282800Y146000D01*
X289771D01*
X291528Y139165D02*
Y144243D01*
X289771Y146000D02*
X291528Y144243D01*
X299500Y164000D02*
Y170587D01*
X306835Y163102D02*
Y163252D01*
X299500Y170587D02*
X306835Y163252D01*
X299500Y170587D02*
Y186300D01*
X306835Y178815D02*
Y178965D01*
X299500Y186300D02*
X306835Y178965D01*
X299500Y186300D02*
Y192000D01*
X302028Y194528D01*
X306835D01*
X300500Y238500D02*
Y244587D01*
X306835Y238103D02*
Y238252D01*
X300500Y244587D02*
X306835Y238252D01*
X300500Y244587D02*
Y260299D01*
X306835Y253815D02*
Y253965D01*
X300500Y260299D02*
X306835Y253965D01*
X300500Y260299D02*
Y267499D01*
X302257Y269257D02*
X306712D01*
X300500Y267499D02*
X302257Y269257D01*
X306835Y269379D02*
Y269528D01*
X306712Y269257D02*
X306835Y269379D01*
X275413Y277500D02*
X283500D01*
X282748Y284835D02*
X282897D01*
X275413Y277500D02*
X282748Y284835D01*
X259700Y277500D02*
X275413D01*
X267035Y284835D02*
X267185D01*
X259700Y277500D02*
X267035Y284835D01*
X254000Y277500D02*
X259700D01*
X251472Y280028D02*
X254000Y277500D01*
X251472Y280028D02*
Y284835D01*
X277413Y204500D02*
X286000D01*
X282748Y209835D02*
X282897D01*
X277413Y204500D02*
X282748Y209835D01*
X261701Y204500D02*
X277413D01*
X267035Y209835D02*
X267185D01*
X261701Y204500D02*
X267035Y209835D01*
X253229Y204500D02*
X261701D01*
X251472Y206257D02*
Y209835D01*
Y206257D02*
X253229Y204500D01*
X243500Y231500D02*
Y236956D01*
X236165Y229472D02*
Y229621D01*
X243500Y236956D01*
Y246942D01*
Y253413D01*
X236165Y245185D02*
X241743D01*
X243500Y246942D01*
X236165Y260748D02*
Y260897D01*
Y260748D02*
X243500Y253413D01*
X217500Y264500D02*
X224000Y271000D01*
X459500Y158000D02*
X463229D01*
X456000Y154500D02*
X459500Y158000D01*
X346729Y173500D02*
X347229Y174000D01*
X346729Y165000D02*
Y173500D01*
X340229Y158500D02*
X346729Y165000D01*
X336500Y158500D02*
X340229D01*
X332729Y155000D02*
X333000D01*
X336500Y158500D01*
X210271Y154500D02*
X213771Y158000D01*
X210000Y154500D02*
X210271D01*
X213771Y158000D02*
X217500D01*
X224000Y164500D01*
Y173000D01*
X224500Y173500D01*
X456271Y261000D02*
X459771Y264500D01*
X456000Y261000D02*
X456271D01*
X459771Y264500D02*
X463500D01*
X470000Y271000D01*
Y279500D01*
X470500Y280000D01*
X333271Y261000D02*
X336771Y264500D01*
X333000Y261000D02*
X333271D01*
X336771Y264500D02*
X340500D01*
X347000Y271000D01*
Y279500D01*
X347500Y280000D01*
X224000Y279500D02*
X224500Y280000D01*
X224000Y271000D02*
Y279500D01*
X213771Y264500D02*
X217500D01*
X210000Y261000D02*
X210271D01*
X213771Y264500D01*
D19*
X210000Y261000D02*
D03*
X220000Y265000D02*
D03*
X200000D02*
D03*
Y212000D02*
D03*
X220000D02*
D03*
X210000Y208000D02*
D03*
X333000D02*
D03*
X343000Y212000D02*
D03*
X323000D02*
D03*
X200000Y158500D02*
D03*
X220000D02*
D03*
X210000Y154500D02*
D03*
X333000Y155000D02*
D03*
X343000Y159000D02*
D03*
X323000D02*
D03*
X446000Y265000D02*
D03*
X466000D02*
D03*
X456000Y261000D02*
D03*
X507000D02*
D03*
X517000Y265000D02*
D03*
X497000D02*
D03*
X446000Y212000D02*
D03*
X466000D02*
D03*
X456000Y208000D02*
D03*
X507000D02*
D03*
X517000Y212000D02*
D03*
X497000D02*
D03*
X446000Y158500D02*
D03*
X466000D02*
D03*
X456000Y154500D02*
D03*
X507000Y155000D02*
D03*
X517000Y159000D02*
D03*
X497000D02*
D03*
X323000Y265000D02*
D03*
X343000D02*
D03*
X333000Y261000D02*
D03*
D20*
X497500Y289500D02*
D03*
X482250D02*
D03*
X467000D02*
D03*
X497000Y141500D02*
D03*
X481750D02*
D03*
X466500D02*
D03*
X259000Y189000D02*
D03*
X269750D02*
D03*
X280500D02*
D03*
X259000Y173750D02*
D03*
X269750D02*
D03*
X280500D02*
D03*
X259000Y158500D02*
D03*
X269750D02*
D03*
X280500D02*
D03*
Y226500D02*
D03*
X269750D02*
D03*
X259000D02*
D03*
X280500Y241750D02*
D03*
X269750D02*
D03*
X259000D02*
D03*
X280500Y257000D02*
D03*
X269750D02*
D03*
X259000D02*
D03*
X469400Y164500D02*
D03*
Y173500D02*
D03*
X224000Y271000D02*
D03*
X347229Y174000D02*
D03*
X346729Y165000D02*
D03*
X224000Y164500D02*
D03*
X224500Y173500D02*
D03*
X470000Y271000D02*
D03*
X470500Y280000D02*
D03*
X347000Y271000D02*
D03*
X347500Y280000D02*
D03*
X224500D02*
D03*
D21*
X474000Y152500D02*
D03*
X471492Y232508D02*
D03*
X243000Y185500D02*
D03*
X261500Y146000D02*
D03*
X299500Y164000D02*
D03*
X300500Y238500D02*
D03*
X283500Y277500D02*
D03*
X286000Y204500D02*
D03*
X243500Y231500D02*
D03*
X306334Y209835D02*
D03*
M02*
