G04*
G04 #@! TF.GenerationSoftware,Altium Limited,Altium Designer,20.2.6 (244)*
G04*
G04 Layer_Physical_Order=4*
G04 Layer_Color=16711680*
%FSLAX24Y24*%
%MOIN*%
G70*
G04*
G04 #@! TF.SameCoordinates,AAC5203C-1E5B-4ACD-AD40-D79658958D62*
G04*
G04*
G04 #@! TF.FilePolarity,Positive*
G04*
G01*
G75*
%ADD10C,0.0100*%
%ADD21C,0.0600*%
%ADD27R,0.0600X0.0600*%
%ADD101C,0.0300*%
%ADD102C,0.0150*%
%ADD103R,0.0600X0.0600*%
G04:AMPARAMS|DCode=104|XSize=50mil|YSize=80mil|CornerRadius=0mil|HoleSize=0mil|Usage=FLASHONLY|Rotation=270.000|XOffset=0mil|YOffset=0mil|HoleType=Round|Shape=Octagon|*
%AMOCTAGOND104*
4,1,8,0.0400,0.0125,0.0400,-0.0125,0.0275,-0.0250,-0.0275,-0.0250,-0.0400,-0.0125,-0.0400,0.0125,-0.0275,0.0250,0.0275,0.0250,0.0400,0.0125,0.0*
%
%ADD104OCTAGOND104*%

%ADD105R,0.0700X0.0500*%
G04:AMPARAMS|DCode=106|XSize=50mil|YSize=70mil|CornerRadius=0mil|HoleSize=0mil|Usage=FLASHONLY|Rotation=270.000|XOffset=0mil|YOffset=0mil|HoleType=Round|Shape=Octagon|*
%AMOCTAGOND106*
4,1,8,0.0350,0.0125,0.0350,-0.0125,0.0225,-0.0250,-0.0225,-0.0250,-0.0350,-0.0125,-0.0350,0.0125,-0.0225,0.0250,0.0225,0.0250,0.0350,0.0125,0.0*
%
%ADD106OCTAGOND106*%

%ADD107O,0.0709X0.0394*%
%ADD108O,0.0827X0.0394*%
%ADD109C,0.0256*%
%ADD110R,0.0630X0.0630*%
%ADD111C,0.0630*%
%ADD112C,0.0510*%
%ADD113R,0.0510X0.0510*%
%ADD114C,0.0394*%
%ADD115R,0.0394X0.0394*%
%ADD116C,0.0500*%
%ADD117C,0.0280*%
%ADD118C,0.0400*%
G36*
X59891Y54466D02*
X60144Y54398D01*
X60386Y54298D01*
X60614Y54167D01*
X60822Y54007D01*
X61007Y53822D01*
X61167Y53614D01*
X61298Y53386D01*
X61398Y53144D01*
X61466Y52891D01*
X61500Y52631D01*
Y52500D01*
Y39293D01*
X61450Y39247D01*
X61425Y39250D01*
X61265Y39238D01*
X61111Y39192D01*
X60971Y39115D01*
X60850Y39010D01*
X60755Y38882D01*
X60688Y38736D01*
X60654Y38580D01*
Y38420D01*
X60688Y38264D01*
X60755Y38118D01*
X60850Y37990D01*
X60971Y37885D01*
X61111Y37808D01*
X61265Y37762D01*
X61425Y37750D01*
X61454Y37753D01*
X61504Y37707D01*
X61504Y20680D01*
X61468Y20646D01*
X61425Y20650D01*
X61265Y20638D01*
X61111Y20592D01*
X60971Y20515D01*
X60850Y20410D01*
X60755Y20282D01*
X60688Y20136D01*
X60654Y19980D01*
Y19820D01*
X60688Y19664D01*
X60755Y19518D01*
X60850Y19390D01*
X60971Y19285D01*
X61111Y19208D01*
X61265Y19162D01*
X61425Y19150D01*
X61452Y19153D01*
X61455Y19152D01*
X61500Y19107D01*
Y17500D01*
Y17369D01*
X61466Y17109D01*
X61398Y16856D01*
X61298Y16614D01*
X61167Y16386D01*
X61007Y16178D01*
X60822Y15993D01*
X60614Y15833D01*
X60386Y15702D01*
X60144Y15602D01*
X59891Y15534D01*
X59631Y15500D01*
X59369D01*
X59109Y15534D01*
X58856Y15602D01*
X58614Y15702D01*
X58386Y15833D01*
X58178Y15993D01*
X57993Y16178D01*
X57833Y16386D01*
X57702Y16614D01*
X57602Y16856D01*
X57534Y17109D01*
X57500Y17369D01*
Y17500D01*
X26500D01*
Y17369D01*
X26466Y17109D01*
X26398Y16856D01*
X26298Y16614D01*
X26167Y16386D01*
X26007Y16178D01*
X25822Y15993D01*
X25614Y15833D01*
X25386Y15702D01*
X25144Y15602D01*
X24891Y15534D01*
X24631Y15500D01*
X24369D01*
X24109Y15534D01*
X23856Y15602D01*
X23614Y15702D01*
X23386Y15833D01*
X23178Y15993D01*
X22993Y16178D01*
X22833Y16386D01*
X22702Y16614D01*
X22602Y16856D01*
X22534Y17109D01*
X22500Y17369D01*
Y17500D01*
Y19108D01*
X22545Y19154D01*
X22584Y19150D01*
X22744Y19162D01*
X22897Y19208D01*
X23038Y19285D01*
X23158Y19390D01*
X23254Y19518D01*
X23321Y19664D01*
X23354Y19820D01*
Y19980D01*
X23321Y20136D01*
X23254Y20282D01*
X23158Y20410D01*
X23038Y20515D01*
X22897Y20592D01*
X22744Y20638D01*
X22584Y20650D01*
X22541Y20646D01*
X22504Y20680D01*
Y37711D01*
X22554Y37757D01*
X22580Y37755D01*
X22739Y37767D01*
X22893Y37812D01*
X23033Y37889D01*
X23154Y37994D01*
X23250Y38122D01*
X23316Y38268D01*
X23350Y38424D01*
Y38584D01*
X23316Y38741D01*
X23250Y38886D01*
X23154Y39015D01*
X23033Y39120D01*
X22893Y39197D01*
X22739Y39242D01*
X22580Y39254D01*
X22537Y39250D01*
X22500Y39284D01*
Y52500D01*
Y52631D01*
X22534Y52891D01*
X22602Y53144D01*
X22702Y53386D01*
X22833Y53614D01*
X22993Y53822D01*
X23178Y54007D01*
X23386Y54167D01*
X23614Y54298D01*
X23856Y54398D01*
X24109Y54466D01*
X24369Y54500D01*
X59631D01*
X59891Y54466D01*
D02*
G37*
%LPC*%
G36*
X59574Y53315D02*
X59426D01*
X59420Y53312D01*
X59413Y53314D01*
X59269Y53285D01*
X59263Y53281D01*
X59256D01*
X59120Y53225D01*
X59115Y53220D01*
X59109Y53219D01*
X58986Y53137D01*
X58982Y53131D01*
X58976Y53128D01*
X58872Y53024D01*
X58869Y53018D01*
X58863Y53014D01*
X58781Y52891D01*
X58780Y52885D01*
X58775Y52880D01*
X58719Y52744D01*
Y52737D01*
X58715Y52731D01*
X58686Y52587D01*
X58688Y52580D01*
X58685Y52574D01*
Y52426D01*
X58688Y52420D01*
X58686Y52413D01*
X58715Y52269D01*
X58719Y52263D01*
Y52256D01*
X58775Y52120D01*
X58780Y52115D01*
X58781Y52109D01*
X58863Y51986D01*
X58869Y51982D01*
X58872Y51976D01*
X58976Y51872D01*
X58982Y51869D01*
X58986Y51863D01*
X59109Y51781D01*
X59115Y51780D01*
X59120Y51775D01*
X59256Y51719D01*
X59263D01*
X59269Y51715D01*
X59413Y51686D01*
X59420Y51688D01*
X59426Y51685D01*
X59574D01*
X59580Y51688D01*
X59587Y51686D01*
X59731Y51715D01*
X59737Y51719D01*
X59744D01*
X59880Y51775D01*
X59885Y51780D01*
X59891Y51781D01*
X60014Y51863D01*
X60018Y51869D01*
X60024Y51872D01*
X60128Y51976D01*
X60131Y51982D01*
X60137Y51986D01*
X60219Y52109D01*
X60220Y52115D01*
X60225Y52120D01*
X60281Y52256D01*
Y52263D01*
X60285Y52269D01*
X60314Y52413D01*
X60312Y52420D01*
X60315Y52426D01*
Y52574D01*
X60312Y52580D01*
X60314Y52587D01*
X60285Y52731D01*
X60281Y52737D01*
Y52744D01*
X60225Y52880D01*
X60220Y52885D01*
X60219Y52891D01*
X60137Y53014D01*
X60131Y53018D01*
X60128Y53024D01*
X60024Y53128D01*
X60018Y53131D01*
X60014Y53137D01*
X59891Y53219D01*
X59885Y53220D01*
X59880Y53225D01*
X59744Y53281D01*
X59737D01*
X59731Y53285D01*
X59587Y53314D01*
X59580Y53312D01*
X59574Y53315D01*
D02*
G37*
G36*
X24574D02*
X24426D01*
X24420Y53312D01*
X24413Y53314D01*
X24269Y53285D01*
X24263Y53281D01*
X24256D01*
X24120Y53225D01*
X24115Y53220D01*
X24109Y53219D01*
X23986Y53137D01*
X23982Y53131D01*
X23976Y53128D01*
X23872Y53024D01*
X23869Y53018D01*
X23863Y53014D01*
X23781Y52891D01*
X23780Y52885D01*
X23775Y52880D01*
X23719Y52744D01*
Y52737D01*
X23715Y52731D01*
X23686Y52587D01*
X23688Y52580D01*
X23685Y52574D01*
Y52426D01*
X23688Y52420D01*
X23686Y52413D01*
X23715Y52269D01*
X23719Y52263D01*
Y52256D01*
X23775Y52120D01*
X23780Y52115D01*
X23781Y52109D01*
X23863Y51986D01*
X23869Y51982D01*
X23872Y51976D01*
X23976Y51872D01*
X23982Y51869D01*
X23986Y51863D01*
X24109Y51781D01*
X24115Y51780D01*
X24120Y51775D01*
X24256Y51719D01*
X24263D01*
X24269Y51715D01*
X24413Y51686D01*
X24420Y51688D01*
X24426Y51685D01*
X24574D01*
X24580Y51688D01*
X24587Y51686D01*
X24731Y51715D01*
X24737Y51719D01*
X24744D01*
X24880Y51775D01*
X24885Y51780D01*
X24891Y51781D01*
X25014Y51863D01*
X25018Y51869D01*
X25024Y51872D01*
X25128Y51976D01*
X25131Y51982D01*
X25137Y51986D01*
X25219Y52109D01*
X25220Y52115D01*
X25225Y52120D01*
X25281Y52256D01*
Y52263D01*
X25285Y52269D01*
X25314Y52413D01*
X25312Y52420D01*
X25315Y52426D01*
Y52574D01*
X25312Y52580D01*
X25314Y52587D01*
X25285Y52731D01*
X25281Y52737D01*
Y52744D01*
X25225Y52880D01*
X25220Y52885D01*
X25219Y52891D01*
X25137Y53014D01*
X25131Y53018D01*
X25128Y53024D01*
X25024Y53128D01*
X25018Y53131D01*
X25014Y53137D01*
X24891Y53219D01*
X24885Y53220D01*
X24880Y53225D01*
X24744Y53281D01*
X24737D01*
X24731Y53285D01*
X24587Y53314D01*
X24580Y53312D01*
X24574Y53315D01*
D02*
G37*
G36*
X51153Y53167D02*
X51149Y53165D01*
X51145Y53166D01*
X50897Y53139D01*
X50893Y53137D01*
X50889Y53138D01*
X50646Y53081D01*
X50643Y53079D01*
X50639Y53079D01*
X50405Y52993D01*
X50402Y52990D01*
X50397Y52990D01*
X50175Y52876D01*
X50173Y52873D01*
X50169Y52872D01*
X49962Y52732D01*
X49960Y52729D01*
X49956Y52728D01*
X49768Y52564D01*
X49766Y52560D01*
X49762Y52558D01*
X49595Y52373D01*
X49594Y52369D01*
X49590Y52367D01*
X49447Y52163D01*
X49446Y52159D01*
X49443Y52156D01*
X49325Y51936D01*
X49325Y51932D01*
X49322Y51929D01*
X49232Y51696D01*
X49232Y51692D01*
X49230Y51689D01*
X49169Y51447D01*
X49169Y51443D01*
X49167Y51439D01*
X49136Y51192D01*
X49137Y51188D01*
X49135Y51184D01*
X49135Y51062D01*
X49135Y51062D01*
X49134Y51059D01*
X49135Y51058D01*
X49134Y51056D01*
X49134Y51054D01*
X49135Y51053D01*
X49134Y51051D01*
Y50816D01*
X49135Y50814D01*
X49134Y50811D01*
X49170Y50345D01*
X49172Y50343D01*
X49171Y50340D01*
X49243Y49878D01*
X49244Y49876D01*
X49244Y49873D01*
X49351Y49418D01*
X49353Y49416D01*
X49352Y49414D01*
X49495Y48968D01*
X49496Y48966D01*
X49496Y48964D01*
X49672Y48531D01*
X49674Y48529D01*
X49674Y48526D01*
X49883Y48108D01*
X49885Y48106D01*
X49886Y48103D01*
X50126Y47703D01*
X50128Y47701D01*
X50129Y47698D01*
X50400Y47317D01*
X50402Y47316D01*
X50403Y47313D01*
X50702Y46954D01*
X50704Y46953D01*
X50705Y46951D01*
X51032Y46616D01*
X51034Y46615D01*
X51035Y46612D01*
X51386Y46303D01*
X51389Y46303D01*
X51390Y46300D01*
X51764Y46020D01*
X51766Y46019D01*
X51768Y46017D01*
X52162Y45766D01*
X52165Y45765D01*
X52167Y45763D01*
X52579Y45543D01*
X52582Y45543D01*
X52584Y45541D01*
X53012Y45354D01*
X53014Y45353D01*
X53016Y45352D01*
X53237Y45275D01*
X53246Y45272D01*
X53256Y45272D01*
X53259Y45271D01*
X53260Y45272D01*
X53271Y45268D01*
X53291Y45269D01*
X53302Y45274D01*
X53315Y45275D01*
X53333Y45283D01*
X53341Y45293D01*
X53353Y45298D01*
X53366Y45312D01*
X53366Y45313D01*
X53561Y45384D01*
X53563Y45386D01*
X53566Y45386D01*
X53987Y45577D01*
X53988Y45578D01*
X53991Y45579D01*
X54396Y45801D01*
X54398Y45803D01*
X54400Y45804D01*
X54787Y46056D01*
X54789Y46058D01*
X54791Y46059D01*
X55158Y46341D01*
X55159Y46343D01*
X55161Y46344D01*
X55505Y46652D01*
X55506Y46655D01*
X55509Y46656D01*
X55828Y46990D01*
X55829Y46992D01*
X55832Y46993D01*
X56125Y47350D01*
X56125Y47353D01*
X56128Y47354D01*
X56392Y47733D01*
X56393Y47736D01*
X56395Y47737D01*
X56630Y48135D01*
X56631Y48137D01*
X56633Y48139D01*
X56837Y48554D01*
X56837Y48556D01*
X56839Y48558D01*
X57011Y48987D01*
X57011Y48989D01*
X57013Y48991D01*
X57152Y49432D01*
X57151Y49435D01*
X57153Y49437D01*
X57258Y49887D01*
X57257Y49890D01*
X57259Y49892D01*
X57329Y50348D01*
X57328Y50351D01*
X57330Y50353D01*
X57365Y50814D01*
X57364Y50817D01*
X57365Y50819D01*
Y51175D01*
X57364Y51179D01*
X57365Y51183D01*
X57334Y51431D01*
X57332Y51434D01*
X57333Y51438D01*
X57273Y51681D01*
X57270Y51684D01*
X57270Y51688D01*
X57181Y51922D01*
X57178Y51925D01*
X57178Y51929D01*
X57061Y52150D01*
X57058Y52152D01*
X57057Y52156D01*
X56914Y52361D01*
X56911Y52363D01*
X56909Y52367D01*
X56743Y52554D01*
X56739Y52555D01*
X56737Y52559D01*
X56549Y52724D01*
X56545Y52725D01*
X56543Y52728D01*
X56337Y52869D01*
X56333Y52870D01*
X56330Y52873D01*
X56108Y52987D01*
X56104Y52988D01*
X56101Y52991D01*
X55866Y53077D01*
X55862Y53077D01*
X55859Y53079D01*
X55616Y53137D01*
X55612Y53136D01*
X55608Y53138D01*
X55360Y53166D01*
X55356Y53165D01*
X55352Y53166D01*
X55102Y53164D01*
X55098Y53162D01*
X55094Y53163D01*
X54847Y53130D01*
X54843Y53128D01*
X54839Y53129D01*
X54597Y53066D01*
X54594Y53063D01*
X54590Y53063D01*
X54357Y52972D01*
X54354Y52969D01*
X54350Y52968D01*
X54131Y52849D01*
X54128Y52846D01*
X54124Y52845D01*
X53921Y52700D01*
X53919Y52696D01*
X53915Y52695D01*
X53730Y52526D01*
X53729Y52523D01*
X53725Y52521D01*
X53562Y52331D01*
X53561Y52327D01*
X53558Y52325D01*
X53419Y52117D01*
X53419Y52113D01*
X53415Y52110D01*
X53303Y51887D01*
X53303Y51883D01*
X53300Y51880D01*
X53275Y51809D01*
X53225Y51809D01*
X53200Y51879D01*
X53197Y51882D01*
X53197Y51886D01*
X53085Y52109D01*
X53082Y52112D01*
X53081Y52116D01*
X52943Y52324D01*
X52940Y52326D01*
X52938Y52330D01*
X52776Y52519D01*
X52773Y52521D01*
X52771Y52525D01*
X52587Y52694D01*
X52583Y52695D01*
X52581Y52699D01*
X52378Y52844D01*
X52374Y52844D01*
X52371Y52848D01*
X52152Y52967D01*
X52148Y52967D01*
X52145Y52970D01*
X51913Y53062D01*
X51909Y53062D01*
X51906Y53065D01*
X51665Y53128D01*
X51661Y53127D01*
X51657Y53129D01*
X51410Y53163D01*
X51406Y53162D01*
X51402Y53163D01*
X51153Y53167D01*
D02*
G37*
G36*
X43020Y53445D02*
X42940D01*
X42928Y53440D01*
X42915D01*
X42842Y53410D01*
X42833Y53400D01*
X42821Y53395D01*
X42765Y53339D01*
X42760Y53327D01*
X42750Y53318D01*
X42720Y53245D01*
Y53232D01*
X42715Y53220D01*
Y53140D01*
X42720Y53128D01*
Y53115D01*
X42750Y53042D01*
X42760Y53033D01*
X42765Y53021D01*
X42821Y52965D01*
X42833Y52960D01*
X42842Y52950D01*
X42915Y52920D01*
X42928D01*
X42940Y52915D01*
X43020D01*
X43032Y52920D01*
X43045D01*
X43118Y52950D01*
X43127Y52960D01*
X43139Y52965D01*
X43195Y53021D01*
X43200Y53033D01*
X43210Y53042D01*
X43240Y53115D01*
Y53128D01*
X43245Y53140D01*
Y53220D01*
X43240Y53232D01*
Y53245D01*
X43210Y53318D01*
X43200Y53327D01*
X43195Y53339D01*
X43139Y53395D01*
X43127Y53400D01*
X43118Y53410D01*
X43045Y53440D01*
X43032D01*
X43020Y53445D01*
D02*
G37*
G36*
X41060D02*
X40980D01*
X40968Y53440D01*
X40955D01*
X40882Y53410D01*
X40873Y53400D01*
X40861Y53395D01*
X40805Y53339D01*
X40800Y53327D01*
X40790Y53318D01*
X40760Y53245D01*
Y53232D01*
X40755Y53220D01*
Y53140D01*
X40760Y53128D01*
Y53115D01*
X40790Y53042D01*
X40800Y53033D01*
X40805Y53021D01*
X40861Y52965D01*
X40873Y52960D01*
X40882Y52950D01*
X40955Y52920D01*
X40968D01*
X40980Y52915D01*
X41060D01*
X41072Y52920D01*
X41085D01*
X41158Y52950D01*
X41167Y52960D01*
X41179Y52965D01*
X41235Y53021D01*
X41240Y53033D01*
X41250Y53042D01*
X41280Y53115D01*
Y53128D01*
X41285Y53140D01*
Y53220D01*
X41280Y53232D01*
Y53245D01*
X41250Y53318D01*
X41240Y53327D01*
X41235Y53339D01*
X41179Y53395D01*
X41167Y53400D01*
X41158Y53410D01*
X41085Y53440D01*
X41072D01*
X41060Y53445D01*
D02*
G37*
G36*
X42853Y50157D02*
X42775Y50142D01*
X42709Y50098D01*
X42665Y50031D01*
X42650Y49953D01*
X42665Y49875D01*
X42709Y49809D01*
X42775Y49765D01*
X42853Y49750D01*
X42931Y49765D01*
X42998Y49809D01*
X43042Y49875D01*
X43057Y49953D01*
X43042Y50031D01*
X42998Y50098D01*
X42931Y50142D01*
X42853Y50157D01*
D02*
G37*
G36*
X41603D02*
X41525Y50142D01*
X41459Y50098D01*
X41415Y50031D01*
X41400Y49953D01*
X41415Y49875D01*
X41459Y49809D01*
X41525Y49765D01*
X41603Y49750D01*
X41681Y49765D01*
X41748Y49809D01*
X41792Y49875D01*
X41807Y49953D01*
X41792Y50031D01*
X41748Y50098D01*
X41681Y50142D01*
X41603Y50157D01*
D02*
G37*
G36*
X40403D02*
X40325Y50142D01*
X40259Y50098D01*
X40215Y50031D01*
X40200Y49953D01*
X40215Y49875D01*
X40259Y49809D01*
X40325Y49765D01*
X40403Y49750D01*
X40481Y49765D01*
X40548Y49809D01*
X40592Y49875D01*
X40607Y49953D01*
X40592Y50031D01*
X40548Y50098D01*
X40481Y50142D01*
X40403Y50157D01*
D02*
G37*
G36*
X32450Y48259D02*
X32383Y48250D01*
X32320Y48224D01*
X32267Y48183D01*
X32226Y48130D01*
X32200Y48067D01*
X32191Y48000D01*
X32200Y47933D01*
X32226Y47870D01*
X32267Y47817D01*
X32320Y47776D01*
X32383Y47750D01*
X32450Y47741D01*
X32517Y47750D01*
X32580Y47776D01*
X32633Y47817D01*
X32674Y47870D01*
X32700Y47933D01*
X32709Y48000D01*
X32700Y48067D01*
X32674Y48130D01*
X32633Y48183D01*
X32580Y48224D01*
X32517Y48250D01*
X32450Y48259D01*
D02*
G37*
G36*
X39700Y48154D02*
X39622Y48138D01*
X39556Y48094D01*
X39512Y48028D01*
X39496Y47950D01*
X39504Y47912D01*
X38838Y47247D01*
X38792Y47266D01*
Y47484D01*
X38962Y47654D01*
X39000Y47646D01*
X39078Y47662D01*
X39144Y47706D01*
X39188Y47772D01*
X39204Y47850D01*
X39188Y47928D01*
X39144Y47994D01*
X39078Y48038D01*
X39000Y48054D01*
X38922Y48038D01*
X38856Y47994D01*
X38812Y47928D01*
X38796Y47850D01*
X38804Y47812D01*
X38601Y47609D01*
X38576Y47573D01*
X38568Y47530D01*
X38568Y47530D01*
Y39876D01*
X34854Y36162D01*
X29250D01*
X29250Y36162D01*
X29207Y36154D01*
X29171Y36129D01*
X29171Y36129D01*
X27617Y34575D01*
X27565Y34578D01*
X27540Y34608D01*
X27554Y34657D01*
X27578Y34662D01*
X27644Y34706D01*
X27688Y34772D01*
X27704Y34850D01*
X27688Y34928D01*
X27644Y34994D01*
X27612Y35016D01*
Y36826D01*
X27619Y36831D01*
X27663Y36897D01*
X27679Y36975D01*
X27663Y37053D01*
X27619Y37119D01*
X27553Y37163D01*
X27475Y37179D01*
X27397Y37163D01*
X27331Y37119D01*
X27287Y37053D01*
X27271Y36975D01*
X27287Y36897D01*
X27331Y36831D01*
X27388Y36793D01*
Y36401D01*
X27344Y36378D01*
X27328Y36388D01*
X27250Y36404D01*
X27172Y36388D01*
X27106Y36344D01*
X27062Y36278D01*
X27046Y36200D01*
X27048Y36191D01*
X26482Y35625D01*
X26416Y35638D01*
X26338Y35623D01*
X26272Y35578D01*
X26227Y35512D01*
X26212Y35434D01*
X26227Y35356D01*
X26272Y35290D01*
X26338Y35246D01*
X26416Y35230D01*
X26494Y35246D01*
X26560Y35290D01*
X26604Y35356D01*
X26620Y35434D01*
X26618Y35443D01*
X27184Y36009D01*
X27250Y35996D01*
X27328Y36012D01*
X27344Y36022D01*
X27388Y35999D01*
Y35016D01*
X27356Y34994D01*
X27312Y34928D01*
X27296Y34850D01*
X27312Y34772D01*
X27356Y34706D01*
X27367Y34698D01*
X27356Y34645D01*
X27322Y34638D01*
X27256Y34594D01*
X27212Y34528D01*
X27196Y34450D01*
X27212Y34372D01*
X27256Y34306D01*
X27322Y34262D01*
X27400Y34246D01*
X27478Y34262D01*
X27544Y34306D01*
X27566Y34338D01*
X27650D01*
X27650Y34338D01*
X27693Y34346D01*
X27729Y34371D01*
X29296Y35938D01*
X29883D01*
X29908Y35888D01*
X29876Y35846D01*
X29845Y35771D01*
X29834Y35690D01*
X29845Y35609D01*
X29876Y35534D01*
X29925Y35469D01*
X29990Y35419D01*
X30066Y35388D01*
X30147Y35377D01*
X30227Y35388D01*
X30303Y35419D01*
X30368Y35469D01*
X30417Y35534D01*
X30449Y35609D01*
X30459Y35690D01*
X30449Y35771D01*
X30417Y35846D01*
X30385Y35888D01*
X30410Y35938D01*
X34790D01*
X34809Y35892D01*
X34430Y35512D01*
X32066D01*
X32044Y35544D01*
X31978Y35588D01*
X31900Y35604D01*
X31822Y35588D01*
X31756Y35544D01*
X31712Y35478D01*
X31696Y35400D01*
X31712Y35322D01*
X31756Y35256D01*
X31822Y35212D01*
X31900Y35196D01*
X31978Y35212D01*
X32044Y35256D01*
X32066Y35288D01*
X34366D01*
X34386Y35242D01*
X32921Y33777D01*
X32896Y33740D01*
X32888Y33697D01*
X32888Y33697D01*
Y33566D01*
X32856Y33544D01*
X32812Y33478D01*
X32796Y33400D01*
X32812Y33322D01*
X32856Y33256D01*
X32922Y33212D01*
X33000Y33196D01*
X33078Y33212D01*
X33144Y33256D01*
X33188Y33322D01*
X33204Y33400D01*
X33188Y33478D01*
X33144Y33544D01*
X33112Y33566D01*
Y33651D01*
X39079Y39618D01*
X39079Y39618D01*
X39104Y39655D01*
X39112Y39697D01*
Y46354D01*
X40312Y47554D01*
X40350Y47546D01*
X40428Y47562D01*
X40494Y47606D01*
X40538Y47672D01*
X40554Y47750D01*
X40538Y47828D01*
X40494Y47894D01*
X40428Y47938D01*
X40350Y47954D01*
X40272Y47938D01*
X40206Y47894D01*
X40162Y47828D01*
X40146Y47750D01*
X40154Y47712D01*
X38998Y46557D01*
X38952Y46576D01*
Y47044D01*
X39662Y47754D01*
X39700Y47746D01*
X39778Y47762D01*
X39844Y47806D01*
X39888Y47872D01*
X39904Y47950D01*
X39888Y48028D01*
X39844Y48094D01*
X39778Y48138D01*
X39700Y48154D01*
D02*
G37*
G36*
X27865Y47215D02*
X27235D01*
Y46585D01*
X27865D01*
Y47215D01*
D02*
G37*
G36*
X29550Y47218D02*
X29468Y47207D01*
X29391Y47175D01*
X29325Y47125D01*
X29275Y47059D01*
X29243Y46982D01*
X29232Y46900D01*
X29243Y46818D01*
X29275Y46741D01*
X29325Y46675D01*
X29391Y46625D01*
X29468Y46593D01*
X29550Y46582D01*
X29632Y46593D01*
X29709Y46625D01*
X29775Y46675D01*
X29825Y46741D01*
X29857Y46818D01*
X29868Y46900D01*
X29857Y46982D01*
X29825Y47059D01*
X29775Y47125D01*
X29709Y47175D01*
X29632Y47207D01*
X29550Y47218D01*
D02*
G37*
G36*
X28550D02*
X28468Y47207D01*
X28391Y47175D01*
X28325Y47125D01*
X28275Y47059D01*
X28243Y46982D01*
X28232Y46900D01*
X28243Y46818D01*
X28275Y46741D01*
X28325Y46675D01*
X28391Y46625D01*
X28468Y46593D01*
X28550Y46582D01*
X28632Y46593D01*
X28709Y46625D01*
X28775Y46675D01*
X28825Y46741D01*
X28857Y46818D01*
X28868Y46900D01*
X28857Y46982D01*
X28825Y47059D01*
X28775Y47125D01*
X28709Y47175D01*
X28632Y47207D01*
X28550Y47218D01*
D02*
G37*
G36*
X36700Y47213D02*
X36606Y47201D01*
X36518Y47164D01*
X36443Y47107D01*
X36386Y47032D01*
X36349Y46944D01*
X36337Y46850D01*
X36349Y46756D01*
X36386Y46668D01*
X36443Y46593D01*
X36518Y46536D01*
X36606Y46499D01*
X36700Y46487D01*
X36794Y46499D01*
X36882Y46536D01*
X36957Y46593D01*
X37014Y46668D01*
X37051Y46756D01*
X37063Y46850D01*
X37051Y46944D01*
X37014Y47032D01*
X36957Y47107D01*
X36882Y47164D01*
X36794Y47201D01*
X36700Y47213D01*
D02*
G37*
G36*
X35700D02*
X35606Y47201D01*
X35518Y47164D01*
X35443Y47107D01*
X35386Y47032D01*
X35349Y46944D01*
X35337Y46850D01*
X35349Y46756D01*
X35386Y46668D01*
X35443Y46593D01*
X35518Y46536D01*
X35606Y46499D01*
X35700Y46487D01*
X35794Y46499D01*
X35882Y46536D01*
X35957Y46593D01*
X36014Y46668D01*
X36051Y46756D01*
X36063Y46850D01*
X36051Y46944D01*
X36014Y47032D01*
X35957Y47107D01*
X35882Y47164D01*
X35794Y47201D01*
X35700Y47213D01*
D02*
G37*
G36*
X34700D02*
X34606Y47201D01*
X34518Y47164D01*
X34443Y47107D01*
X34386Y47032D01*
X34349Y46944D01*
X34337Y46850D01*
X34349Y46756D01*
X34386Y46668D01*
X34443Y46593D01*
X34518Y46536D01*
X34606Y46499D01*
X34700Y46487D01*
X34794Y46499D01*
X34882Y46536D01*
X34957Y46593D01*
X35014Y46668D01*
X35051Y46756D01*
X35063Y46850D01*
X35051Y46944D01*
X35014Y47032D01*
X34957Y47107D01*
X34882Y47164D01*
X34794Y47201D01*
X34700Y47213D01*
D02*
G37*
G36*
X32450Y47259D02*
X32383Y47250D01*
X32320Y47224D01*
X32267Y47183D01*
X32226Y47130D01*
X32200Y47067D01*
X32191Y47000D01*
X32200Y46933D01*
X32226Y46870D01*
X32267Y46817D01*
X32318Y46777D01*
X32322Y46751D01*
Y46749D01*
X32318Y46723D01*
X32267Y46683D01*
X32226Y46630D01*
X32200Y46567D01*
X32191Y46500D01*
X32200Y46433D01*
X32226Y46370D01*
X32267Y46317D01*
X32280Y46307D01*
X32263Y46257D01*
X32193D01*
Y45743D01*
X32707D01*
Y46257D01*
X32637D01*
X32620Y46307D01*
X32633Y46317D01*
X32674Y46370D01*
X32700Y46433D01*
X32709Y46500D01*
X32700Y46567D01*
X32674Y46630D01*
X32633Y46683D01*
X32582Y46723D01*
X32578Y46749D01*
Y46751D01*
X32582Y46777D01*
X32633Y46817D01*
X32674Y46870D01*
X32700Y46933D01*
X32709Y47000D01*
X32700Y47067D01*
X32674Y47130D01*
X32633Y47183D01*
X32580Y47224D01*
X32517Y47250D01*
X32450Y47259D01*
D02*
G37*
G36*
X28550Y44654D02*
X28472Y44638D01*
X28406Y44594D01*
X28362Y44528D01*
X28346Y44450D01*
X28348Y44442D01*
X27943Y44038D01*
X23949D01*
X23944Y44044D01*
X23878Y44088D01*
X23857Y44092D01*
X23851Y44127D01*
X23852Y44144D01*
X23914Y44186D01*
X23958Y44252D01*
X23974Y44330D01*
X23958Y44408D01*
X23914Y44474D01*
X23848Y44518D01*
X23770Y44534D01*
X23692Y44518D01*
X23626Y44474D01*
X23582Y44408D01*
X23566Y44330D01*
X23582Y44252D01*
X23626Y44186D01*
X23692Y44142D01*
X23713Y44138D01*
X23719Y44103D01*
X23718Y44086D01*
X23656Y44044D01*
X23612Y43978D01*
X23596Y43900D01*
X23612Y43822D01*
X23656Y43756D01*
X23722Y43712D01*
X23800Y43696D01*
X23878Y43712D01*
X23944Y43756D01*
X23949Y43762D01*
X28000D01*
X28053Y43773D01*
X28097Y43803D01*
X28542Y44248D01*
X28550Y44246D01*
X28628Y44262D01*
X28694Y44306D01*
X28738Y44372D01*
X28754Y44450D01*
X28738Y44528D01*
X28694Y44594D01*
X28628Y44638D01*
X28550Y44654D01*
D02*
G37*
G36*
X44800Y44413D02*
X44706Y44401D01*
X44618Y44364D01*
X44543Y44307D01*
X44486Y44232D01*
X44449Y44144D01*
X44437Y44050D01*
X44449Y43956D01*
X44486Y43868D01*
X44543Y43793D01*
X44618Y43736D01*
X44706Y43699D01*
X44800Y43687D01*
X44894Y43699D01*
X44982Y43736D01*
X45057Y43793D01*
X45114Y43868D01*
X45151Y43956D01*
X45163Y44050D01*
X45151Y44144D01*
X45114Y44232D01*
X45057Y44307D01*
X44982Y44364D01*
X44894Y44401D01*
X44800Y44413D01*
D02*
G37*
G36*
X42450D02*
X42356Y44401D01*
X42268Y44364D01*
X42193Y44307D01*
X42136Y44232D01*
X42099Y44144D01*
X42087Y44050D01*
X42099Y43956D01*
X42136Y43868D01*
X42193Y43793D01*
X42268Y43736D01*
X42356Y43699D01*
X42450Y43687D01*
X42544Y43699D01*
X42632Y43736D01*
X42707Y43793D01*
X42764Y43868D01*
X42801Y43956D01*
X42813Y44050D01*
X42801Y44144D01*
X42764Y44232D01*
X42707Y44307D01*
X42632Y44364D01*
X42544Y44401D01*
X42450Y44413D01*
D02*
G37*
G36*
X40100D02*
X40006Y44401D01*
X39918Y44364D01*
X39843Y44307D01*
X39786Y44232D01*
X39749Y44144D01*
X39737Y44050D01*
X39749Y43956D01*
X39786Y43868D01*
X39843Y43793D01*
X39918Y43736D01*
X40006Y43699D01*
X40100Y43687D01*
X40194Y43699D01*
X40282Y43736D01*
X40357Y43793D01*
X40414Y43868D01*
X40451Y43956D01*
X40463Y44050D01*
X40451Y44144D01*
X40414Y44232D01*
X40357Y44307D01*
X40282Y44364D01*
X40194Y44401D01*
X40100Y44413D01*
D02*
G37*
G36*
X37750D02*
X37656Y44401D01*
X37568Y44364D01*
X37493Y44307D01*
X37436Y44232D01*
X37399Y44144D01*
X37387Y44050D01*
X37399Y43956D01*
X37436Y43868D01*
X37493Y43793D01*
X37568Y43736D01*
X37656Y43699D01*
X37750Y43687D01*
X37844Y43699D01*
X37932Y43736D01*
X38007Y43793D01*
X38064Y43868D01*
X38101Y43956D01*
X38113Y44050D01*
X38101Y44144D01*
X38064Y44232D01*
X38007Y44307D01*
X37932Y44364D01*
X37844Y44401D01*
X37750Y44413D01*
D02*
G37*
G36*
X23700Y43554D02*
X23622Y43538D01*
X23556Y43494D01*
X23512Y43428D01*
X23496Y43350D01*
X23512Y43272D01*
X23556Y43206D01*
X23622Y43162D01*
X23700Y43146D01*
X23778Y43162D01*
X23844Y43206D01*
X23888Y43272D01*
X23904Y43350D01*
X23888Y43428D01*
X23844Y43494D01*
X23778Y43538D01*
X23700Y43554D01*
D02*
G37*
G36*
X30900Y43763D02*
X30819Y43752D01*
X30744Y43721D01*
X30679Y43671D01*
X30629Y43606D01*
X30598Y43531D01*
X30587Y43450D01*
X30598Y43369D01*
X30629Y43294D01*
X30679Y43229D01*
X30744Y43179D01*
X30819Y43148D01*
X30900Y43137D01*
X30981Y43148D01*
X31056Y43179D01*
X31121Y43229D01*
X31171Y43294D01*
X31202Y43369D01*
X31213Y43450D01*
X31202Y43531D01*
X31171Y43606D01*
X31121Y43671D01*
X31056Y43721D01*
X30981Y43752D01*
X30900Y43763D01*
D02*
G37*
G36*
X44800Y43413D02*
X44706Y43401D01*
X44618Y43364D01*
X44543Y43307D01*
X44486Y43232D01*
X44449Y43144D01*
X44437Y43050D01*
X44449Y42956D01*
X44486Y42868D01*
X44543Y42793D01*
X44618Y42736D01*
X44706Y42699D01*
X44800Y42687D01*
X44894Y42699D01*
X44982Y42736D01*
X45057Y42793D01*
X45114Y42868D01*
X45151Y42956D01*
X45163Y43050D01*
X45151Y43144D01*
X45114Y43232D01*
X45057Y43307D01*
X44982Y43364D01*
X44894Y43401D01*
X44800Y43413D01*
D02*
G37*
G36*
X42450D02*
X42356Y43401D01*
X42268Y43364D01*
X42193Y43307D01*
X42136Y43232D01*
X42099Y43144D01*
X42087Y43050D01*
X42099Y42956D01*
X42136Y42868D01*
X42193Y42793D01*
X42268Y42736D01*
X42356Y42699D01*
X42450Y42687D01*
X42544Y42699D01*
X42632Y42736D01*
X42707Y42793D01*
X42764Y42868D01*
X42801Y42956D01*
X42813Y43050D01*
X42801Y43144D01*
X42764Y43232D01*
X42707Y43307D01*
X42632Y43364D01*
X42544Y43401D01*
X42450Y43413D01*
D02*
G37*
G36*
X40100D02*
X40006Y43401D01*
X39918Y43364D01*
X39843Y43307D01*
X39786Y43232D01*
X39749Y43144D01*
X39737Y43050D01*
X39749Y42956D01*
X39786Y42868D01*
X39843Y42793D01*
X39918Y42736D01*
X40006Y42699D01*
X40100Y42687D01*
X40194Y42699D01*
X40282Y42736D01*
X40357Y42793D01*
X40414Y42868D01*
X40451Y42956D01*
X40463Y43050D01*
X40451Y43144D01*
X40414Y43232D01*
X40357Y43307D01*
X40282Y43364D01*
X40194Y43401D01*
X40100Y43413D01*
D02*
G37*
G36*
X37750D02*
X37656Y43401D01*
X37568Y43364D01*
X37493Y43307D01*
X37436Y43232D01*
X37399Y43144D01*
X37387Y43050D01*
X37399Y42956D01*
X37436Y42868D01*
X37493Y42793D01*
X37568Y42736D01*
X37656Y42699D01*
X37750Y42687D01*
X37844Y42699D01*
X37932Y42736D01*
X38007Y42793D01*
X38064Y42868D01*
X38101Y42956D01*
X38113Y43050D01*
X38101Y43144D01*
X38064Y43232D01*
X38007Y43307D01*
X37932Y43364D01*
X37844Y43401D01*
X37750Y43413D01*
D02*
G37*
G36*
X25438Y42604D02*
X25359Y42588D01*
X25293Y42544D01*
X25249Y42478D01*
X25234Y42400D01*
X25249Y42322D01*
X25293Y42256D01*
X25359Y42212D01*
X25438Y42196D01*
X25475Y42204D01*
X26410Y41269D01*
X26396Y41200D01*
X26412Y41122D01*
X26456Y41056D01*
X26522Y41012D01*
X26600Y40996D01*
X26678Y41012D01*
X26744Y41056D01*
X26788Y41122D01*
X26804Y41200D01*
X26788Y41278D01*
X26744Y41344D01*
X26678Y41388D01*
X26600Y41404D01*
X26593Y41403D01*
X25634Y42362D01*
X25641Y42400D01*
X25626Y42478D01*
X25582Y42544D01*
X25516Y42588D01*
X25438Y42604D01*
D02*
G37*
G36*
X28503Y41266D02*
X28423Y41255D01*
X28347Y41224D01*
X28282Y41175D01*
X28233Y41110D01*
X28201Y41034D01*
X28191Y40953D01*
X28201Y40873D01*
X28233Y40797D01*
X28282Y40732D01*
X28347Y40683D01*
X28423Y40651D01*
X28503Y40641D01*
X28584Y40651D01*
X28660Y40683D01*
X28725Y40732D01*
X28774Y40797D01*
X28805Y40873D01*
X28816Y40953D01*
X28805Y41034D01*
X28774Y41110D01*
X28725Y41175D01*
X28660Y41224D01*
X28584Y41255D01*
X28503Y41266D01*
D02*
G37*
G36*
X26350Y40754D02*
X26272Y40738D01*
X26206Y40694D01*
X26162Y40628D01*
X26146Y40550D01*
X26154Y40512D01*
X25294Y39653D01*
X25222Y39638D01*
X25156Y39594D01*
X25112Y39528D01*
X25096Y39450D01*
X25112Y39372D01*
X25156Y39306D01*
X25222Y39262D01*
X25300Y39246D01*
X25378Y39262D01*
X25444Y39306D01*
X25488Y39372D01*
X25504Y39450D01*
X25488Y39528D01*
X25488Y39529D01*
X26312Y40354D01*
X26350Y40346D01*
X26428Y40362D01*
X26494Y40406D01*
X26538Y40472D01*
X26554Y40550D01*
X26538Y40628D01*
X26494Y40694D01*
X26428Y40738D01*
X26350Y40754D01*
D02*
G37*
G36*
X42074Y39315D02*
X41926D01*
X41920Y39312D01*
X41913Y39314D01*
X41769Y39285D01*
X41763Y39281D01*
X41756D01*
X41620Y39225D01*
X41615Y39220D01*
X41609Y39219D01*
X41486Y39137D01*
X41482Y39131D01*
X41476Y39128D01*
X41372Y39024D01*
X41369Y39018D01*
X41363Y39014D01*
X41281Y38891D01*
X41280Y38885D01*
X41275Y38880D01*
X41219Y38744D01*
Y38737D01*
X41215Y38731D01*
X41186Y38587D01*
X41188Y38580D01*
X41185Y38574D01*
Y38426D01*
X41188Y38420D01*
X41186Y38413D01*
X41215Y38269D01*
X41219Y38263D01*
Y38256D01*
X41275Y38120D01*
X41280Y38115D01*
X41281Y38109D01*
X41363Y37986D01*
X41369Y37982D01*
X41372Y37976D01*
X41476Y37872D01*
X41482Y37869D01*
X41486Y37863D01*
X41609Y37781D01*
X41615Y37780D01*
X41620Y37775D01*
X41756Y37719D01*
X41763D01*
X41769Y37715D01*
X41913Y37686D01*
X41920Y37688D01*
X41926Y37685D01*
X42074D01*
X42080Y37688D01*
X42087Y37686D01*
X42231Y37715D01*
X42237Y37719D01*
X42244D01*
X42380Y37775D01*
X42385Y37780D01*
X42391Y37781D01*
X42514Y37863D01*
X42518Y37869D01*
X42524Y37872D01*
X42628Y37976D01*
X42631Y37982D01*
X42637Y37986D01*
X42719Y38109D01*
X42720Y38115D01*
X42725Y38120D01*
X42781Y38256D01*
Y38263D01*
X42785Y38269D01*
X42814Y38413D01*
X42812Y38420D01*
X42815Y38426D01*
Y38574D01*
X42812Y38580D01*
X42814Y38587D01*
X42785Y38731D01*
X42781Y38737D01*
Y38744D01*
X42725Y38880D01*
X42720Y38885D01*
X42719Y38891D01*
X42637Y39014D01*
X42631Y39018D01*
X42628Y39024D01*
X42524Y39128D01*
X42518Y39131D01*
X42514Y39137D01*
X42391Y39219D01*
X42385Y39220D01*
X42380Y39225D01*
X42244Y39281D01*
X42237D01*
X42231Y39285D01*
X42087Y39314D01*
X42080Y39312D01*
X42074Y39315D01*
D02*
G37*
G36*
X49974Y39315D02*
X49826D01*
X49820Y39312D01*
X49813Y39314D01*
X49669Y39285D01*
X49663Y39281D01*
X49656D01*
X49520Y39225D01*
X49515Y39220D01*
X49509Y39219D01*
X49386Y39137D01*
X49382Y39131D01*
X49376Y39128D01*
X49272Y39024D01*
X49269Y39018D01*
X49263Y39014D01*
X49181Y38891D01*
X49180Y38885D01*
X49175Y38880D01*
X49119Y38744D01*
Y38737D01*
X49115Y38731D01*
X49086Y38587D01*
X49088Y38580D01*
X49085Y38574D01*
Y38426D01*
X49088Y38420D01*
X49086Y38413D01*
X49115Y38269D01*
X49119Y38263D01*
Y38256D01*
X49175Y38120D01*
X49180Y38115D01*
X49181Y38109D01*
X49263Y37986D01*
X49269Y37982D01*
X49272Y37976D01*
X49376Y37872D01*
X49382Y37869D01*
X49386Y37863D01*
X49509Y37781D01*
X49515Y37780D01*
X49520Y37775D01*
X49656Y37719D01*
X49663D01*
X49669Y37715D01*
X49813Y37686D01*
X49820Y37688D01*
X49826Y37685D01*
X49974D01*
X49980Y37688D01*
X49987Y37686D01*
X50131Y37715D01*
X50137Y37719D01*
X50144D01*
X50280Y37775D01*
X50285Y37780D01*
X50291Y37781D01*
X50414Y37863D01*
X50418Y37869D01*
X50424Y37872D01*
X50528Y37976D01*
X50531Y37982D01*
X50537Y37986D01*
X50619Y38109D01*
X50620Y38115D01*
X50625Y38120D01*
X50681Y38256D01*
Y38263D01*
X50685Y38269D01*
X50714Y38413D01*
X50712Y38420D01*
X50715Y38426D01*
Y38574D01*
X50712Y38580D01*
X50714Y38587D01*
X50685Y38731D01*
X50681Y38737D01*
Y38744D01*
X50625Y38880D01*
X50620Y38885D01*
X50619Y38891D01*
X50537Y39014D01*
X50531Y39018D01*
X50528Y39024D01*
X50424Y39128D01*
X50418Y39131D01*
X50414Y39137D01*
X50291Y39219D01*
X50285Y39220D01*
X50280Y39225D01*
X50144Y39281D01*
X50137D01*
X50131Y39285D01*
X49987Y39314D01*
X49980Y39312D01*
X49974Y39315D01*
D02*
G37*
G36*
X34174D02*
X34026D01*
X34020Y39312D01*
X34013Y39314D01*
X33869Y39285D01*
X33863Y39281D01*
X33856D01*
X33720Y39225D01*
X33715Y39220D01*
X33709Y39219D01*
X33586Y39137D01*
X33582Y39131D01*
X33576Y39128D01*
X33472Y39024D01*
X33469Y39018D01*
X33463Y39014D01*
X33381Y38891D01*
X33380Y38885D01*
X33375Y38880D01*
X33319Y38744D01*
Y38737D01*
X33315Y38731D01*
X33286Y38587D01*
X33288Y38580D01*
X33285Y38574D01*
Y38426D01*
X33288Y38420D01*
X33286Y38413D01*
X33315Y38269D01*
X33319Y38263D01*
Y38256D01*
X33375Y38120D01*
X33380Y38115D01*
X33381Y38109D01*
X33463Y37986D01*
X33469Y37982D01*
X33472Y37976D01*
X33576Y37872D01*
X33582Y37869D01*
X33586Y37863D01*
X33709Y37781D01*
X33715Y37780D01*
X33720Y37775D01*
X33856Y37719D01*
X33863D01*
X33869Y37715D01*
X34013Y37686D01*
X34020Y37688D01*
X34026Y37685D01*
X34174D01*
X34180Y37688D01*
X34187Y37686D01*
X34331Y37715D01*
X34337Y37719D01*
X34344D01*
X34480Y37775D01*
X34485Y37780D01*
X34491Y37781D01*
X34614Y37863D01*
X34618Y37869D01*
X34624Y37872D01*
X34728Y37976D01*
X34731Y37982D01*
X34737Y37986D01*
X34819Y38109D01*
X34820Y38115D01*
X34825Y38120D01*
X34881Y38256D01*
Y38263D01*
X34885Y38269D01*
X34914Y38413D01*
X34912Y38420D01*
X34915Y38426D01*
Y38574D01*
X34912Y38580D01*
X34914Y38587D01*
X34885Y38731D01*
X34881Y38737D01*
Y38744D01*
X34825Y38880D01*
X34820Y38885D01*
X34819Y38891D01*
X34737Y39014D01*
X34731Y39018D01*
X34728Y39024D01*
X34624Y39128D01*
X34618Y39131D01*
X34614Y39137D01*
X34491Y39219D01*
X34485Y39220D01*
X34480Y39225D01*
X34344Y39281D01*
X34337D01*
X34331Y39285D01*
X34187Y39314D01*
X34180Y39312D01*
X34174Y39315D01*
D02*
G37*
G36*
X49850Y36663D02*
X49769Y36652D01*
X49694Y36621D01*
X49629Y36571D01*
X49579Y36506D01*
X49548Y36431D01*
X49537Y36350D01*
X49548Y36269D01*
X49579Y36194D01*
X49629Y36129D01*
X49694Y36079D01*
X49769Y36048D01*
X49850Y36037D01*
X49931Y36048D01*
X50006Y36079D01*
X50071Y36129D01*
X50121Y36194D01*
X50152Y36269D01*
X50163Y36350D01*
X50152Y36431D01*
X50121Y36506D01*
X50071Y36571D01*
X50006Y36621D01*
X49931Y36652D01*
X49850Y36663D01*
D02*
G37*
G36*
X49175D02*
X49094Y36652D01*
X49019Y36621D01*
X48954Y36571D01*
X48904Y36506D01*
X48873Y36431D01*
X48862Y36350D01*
X48873Y36269D01*
X48904Y36194D01*
X48954Y36129D01*
X49019Y36079D01*
X49094Y36048D01*
X49175Y36037D01*
X49256Y36048D01*
X49331Y36079D01*
X49396Y36129D01*
X49446Y36194D01*
X49477Y36269D01*
X49488Y36350D01*
X49477Y36431D01*
X49446Y36506D01*
X49396Y36571D01*
X49331Y36621D01*
X49256Y36652D01*
X49175Y36663D01*
D02*
G37*
G36*
X48500D02*
X48419Y36652D01*
X48344Y36621D01*
X48279Y36571D01*
X48229Y36506D01*
X48198Y36431D01*
X48187Y36350D01*
X48198Y36269D01*
X48229Y36194D01*
X48279Y36129D01*
X48344Y36079D01*
X48419Y36048D01*
X48500Y36037D01*
X48581Y36048D01*
X48656Y36079D01*
X48721Y36129D01*
X48771Y36194D01*
X48802Y36269D01*
X48813Y36350D01*
X48802Y36431D01*
X48771Y36506D01*
X48721Y36571D01*
X48656Y36621D01*
X48581Y36652D01*
X48500Y36663D01*
D02*
G37*
G36*
X49850Y35863D02*
X49769Y35852D01*
X49694Y35821D01*
X49629Y35771D01*
X49579Y35706D01*
X49548Y35631D01*
X49537Y35550D01*
X49548Y35469D01*
X49579Y35394D01*
X49629Y35329D01*
X49694Y35279D01*
X49769Y35248D01*
X49850Y35237D01*
X49931Y35248D01*
X50006Y35279D01*
X50071Y35329D01*
X50121Y35394D01*
X50152Y35469D01*
X50163Y35550D01*
X50152Y35631D01*
X50121Y35706D01*
X50071Y35771D01*
X50006Y35821D01*
X49931Y35852D01*
X49850Y35863D01*
D02*
G37*
G36*
X49175D02*
X49094Y35852D01*
X49019Y35821D01*
X48954Y35771D01*
X48904Y35706D01*
X48873Y35631D01*
X48862Y35550D01*
X48873Y35469D01*
X48904Y35394D01*
X48954Y35329D01*
X49019Y35279D01*
X49094Y35248D01*
X49175Y35237D01*
X49256Y35248D01*
X49331Y35279D01*
X49396Y35329D01*
X49446Y35394D01*
X49477Y35469D01*
X49488Y35550D01*
X49477Y35631D01*
X49446Y35706D01*
X49396Y35771D01*
X49331Y35821D01*
X49256Y35852D01*
X49175Y35863D01*
D02*
G37*
G36*
X48500D02*
X48419Y35852D01*
X48344Y35821D01*
X48279Y35771D01*
X48229Y35706D01*
X48198Y35631D01*
X48187Y35550D01*
X48198Y35469D01*
X48229Y35394D01*
X48279Y35329D01*
X48344Y35279D01*
X48419Y35248D01*
X48500Y35237D01*
X48581Y35248D01*
X48656Y35279D01*
X48721Y35329D01*
X48771Y35394D01*
X48802Y35469D01*
X48813Y35550D01*
X48802Y35631D01*
X48771Y35706D01*
X48721Y35771D01*
X48656Y35821D01*
X48581Y35852D01*
X48500Y35863D01*
D02*
G37*
G36*
X58955Y33491D02*
X58345D01*
X58190Y33336D01*
Y33026D01*
X58345Y32871D01*
X58955D01*
X59110Y33026D01*
Y33336D01*
X58955Y33491D01*
D02*
G37*
G36*
X24916Y33038D02*
X24838Y33023D01*
X24772Y32978D01*
X24727Y32912D01*
X24712Y32834D01*
X24727Y32756D01*
X24736Y32743D01*
X24697Y32712D01*
X24612Y32796D01*
X24620Y32834D01*
X24604Y32912D01*
X24560Y32978D01*
X24494Y33023D01*
X24416Y33038D01*
X24338Y33023D01*
X24272Y32978D01*
X24227Y32912D01*
X24212Y32834D01*
X24227Y32756D01*
X24272Y32690D01*
X24338Y32646D01*
X24416Y32630D01*
X24454Y32638D01*
X27521Y29571D01*
X27521Y29571D01*
X27557Y29546D01*
X27600Y29538D01*
X27600Y29538D01*
X35057D01*
X35086Y29468D01*
X35143Y29393D01*
X35218Y29336D01*
X35306Y29299D01*
X35400Y29287D01*
X35494Y29299D01*
X35582Y29336D01*
X35657Y29393D01*
X35714Y29468D01*
X35751Y29556D01*
X35763Y29650D01*
X35751Y29744D01*
X35714Y29832D01*
X35657Y29907D01*
X35582Y29964D01*
X35494Y30001D01*
X35400Y30013D01*
X35306Y30001D01*
X35218Y29964D01*
X35143Y29907D01*
X35086Y29832D01*
X35057Y29762D01*
X27646D01*
X24793Y32616D01*
X24825Y32654D01*
X24838Y32646D01*
X24916Y32630D01*
X24954Y32638D01*
X27121Y30471D01*
X27121Y30471D01*
X27157Y30446D01*
X27200Y30438D01*
X35091D01*
X35091Y30438D01*
X35107Y30441D01*
X35143Y30393D01*
X35218Y30336D01*
X35306Y30299D01*
X35400Y30287D01*
X35494Y30299D01*
X35582Y30336D01*
X35657Y30393D01*
X35714Y30468D01*
X35751Y30556D01*
X35763Y30650D01*
X35751Y30744D01*
X35714Y30832D01*
X35657Y30907D01*
X35582Y30964D01*
X35494Y31001D01*
X35400Y31013D01*
X35306Y31001D01*
X35218Y30964D01*
X35143Y30907D01*
X35086Y30832D01*
X35049Y30744D01*
X35038Y30662D01*
X27246D01*
X25112Y32796D01*
X25120Y32834D01*
X25104Y32912D01*
X25060Y32978D01*
X24994Y33023D01*
X24916Y33038D01*
D02*
G37*
G36*
X52998Y33315D02*
X52917Y33304D01*
X52841Y33273D01*
X52777Y33223D01*
X52727Y33159D01*
X52696Y33083D01*
X52685Y33002D01*
X52696Y32921D01*
X52727Y32846D01*
X52777Y32781D01*
X52841Y32731D01*
X52917Y32700D01*
X52998Y32690D01*
X53079Y32700D01*
X53111Y32714D01*
X53130Y32710D01*
X54200D01*
X54205Y32703D01*
X54270Y32653D01*
X54345Y32622D01*
X54426Y32611D01*
X54507Y32622D01*
X54582Y32653D01*
X54647Y32703D01*
X54697Y32768D01*
X54728Y32843D01*
X54739Y32924D01*
X54728Y33005D01*
X54697Y33080D01*
X54647Y33145D01*
X54582Y33195D01*
X54507Y33226D01*
X54426Y33237D01*
X54345Y33226D01*
X54270Y33195D01*
X54205Y33145D01*
X54200Y33138D01*
X53277D01*
X53269Y33159D01*
X53219Y33223D01*
X53154Y33273D01*
X53079Y33304D01*
X52998Y33315D01*
D02*
G37*
G36*
X38160Y33010D02*
X37440D01*
Y32290D01*
X38160D01*
Y33010D01*
D02*
G37*
G36*
X35760D02*
X35040D01*
Y32290D01*
X35760D01*
Y33010D01*
D02*
G37*
G36*
X23400Y32204D02*
X23322Y32188D01*
X23256Y32144D01*
X23212Y32078D01*
X23196Y32000D01*
X23204Y31962D01*
X22971Y31729D01*
X22946Y31693D01*
X22938Y31650D01*
X22938Y31650D01*
Y27250D01*
X22938Y27250D01*
X22946Y27207D01*
X22971Y27171D01*
X24471Y25671D01*
X24471Y25671D01*
X24507Y25646D01*
X24550Y25638D01*
X24550Y25638D01*
X25008D01*
X25012Y25622D01*
X25056Y25556D01*
X25122Y25512D01*
X25200Y25496D01*
X25278Y25512D01*
X25344Y25556D01*
X25388Y25622D01*
X25392Y25638D01*
X33500D01*
X33500Y25638D01*
X33543Y25646D01*
X33579Y25671D01*
X35237Y27328D01*
X35306Y27299D01*
X35400Y27287D01*
X35494Y27299D01*
X35582Y27336D01*
X35657Y27393D01*
X35714Y27468D01*
X35751Y27556D01*
X35763Y27650D01*
X35751Y27744D01*
X35714Y27832D01*
X35657Y27907D01*
X35582Y27964D01*
X35494Y28001D01*
X35400Y28013D01*
X35306Y28001D01*
X35218Y27964D01*
X35143Y27907D01*
X35086Y27832D01*
X35049Y27744D01*
X35037Y27650D01*
X35049Y27556D01*
X35078Y27487D01*
X33454Y25862D01*
X32841D01*
X32821Y25912D01*
X35237Y28328D01*
X35306Y28299D01*
X35400Y28287D01*
X35494Y28299D01*
X35582Y28336D01*
X35657Y28393D01*
X35714Y28468D01*
X35751Y28556D01*
X35763Y28650D01*
X35751Y28744D01*
X35714Y28832D01*
X35657Y28907D01*
X35582Y28964D01*
X35494Y29001D01*
X35400Y29013D01*
X35306Y29001D01*
X35218Y28964D01*
X35143Y28907D01*
X35086Y28832D01*
X35049Y28744D01*
X35037Y28650D01*
X35049Y28556D01*
X35078Y28487D01*
X32654Y26062D01*
X24824D01*
X24815Y26105D01*
X24771Y26171D01*
X24705Y26215D01*
X24627Y26231D01*
X24549Y26215D01*
X24483Y26171D01*
X24438Y26105D01*
X24435Y26086D01*
X24387Y26072D01*
X23162Y27296D01*
Y27627D01*
X23212Y27650D01*
X23259Y27613D01*
X23335Y27582D01*
X23416Y27572D01*
X23497Y27582D01*
X23572Y27613D01*
X23637Y27663D01*
X23687Y27728D01*
X23718Y27803D01*
X23728Y27884D01*
X23718Y27965D01*
X23687Y28041D01*
X23637Y28105D01*
X23572Y28155D01*
X23497Y28186D01*
X23416Y28197D01*
X23335Y28186D01*
X23259Y28155D01*
X23212Y28119D01*
X23162Y28141D01*
Y31604D01*
X23362Y31804D01*
X23400Y31796D01*
X23478Y31812D01*
X23544Y31856D01*
X23588Y31922D01*
X23604Y32000D01*
X23588Y32078D01*
X23544Y32144D01*
X23478Y32188D01*
X23400Y32204D01*
D02*
G37*
G36*
X59060Y32310D02*
X58240D01*
Y31690D01*
X59060D01*
Y32310D01*
D02*
G37*
G36*
X37800Y32013D02*
X37706Y32001D01*
X37618Y31964D01*
X37543Y31907D01*
X37486Y31832D01*
X37449Y31744D01*
X37437Y31650D01*
X37449Y31556D01*
X37486Y31468D01*
X37543Y31393D01*
X37618Y31336D01*
X37706Y31299D01*
X37800Y31287D01*
X37894Y31299D01*
X37982Y31336D01*
X38057Y31393D01*
X38114Y31468D01*
X38151Y31556D01*
X38163Y31650D01*
X38151Y31744D01*
X38114Y31832D01*
X38057Y31907D01*
X37982Y31964D01*
X37894Y32001D01*
X37800Y32013D01*
D02*
G37*
G36*
X35400D02*
X35306Y32001D01*
X35218Y31964D01*
X35143Y31907D01*
X35086Y31832D01*
X35049Y31744D01*
X35037Y31650D01*
X35049Y31556D01*
X35086Y31468D01*
X35143Y31393D01*
X35218Y31336D01*
X35306Y31299D01*
X35400Y31287D01*
X35494Y31299D01*
X35582Y31336D01*
X35657Y31393D01*
X35714Y31468D01*
X35751Y31556D01*
X35763Y31650D01*
X35751Y31744D01*
X35714Y31832D01*
X35657Y31907D01*
X35582Y31964D01*
X35494Y32001D01*
X35400Y32013D01*
D02*
G37*
G36*
X37800Y31013D02*
X37706Y31001D01*
X37618Y30964D01*
X37543Y30907D01*
X37486Y30832D01*
X37449Y30744D01*
X37437Y30650D01*
X37449Y30556D01*
X37486Y30468D01*
X37543Y30393D01*
X37618Y30336D01*
X37706Y30299D01*
X37800Y30287D01*
X37894Y30299D01*
X37963Y30328D01*
X38388Y29904D01*
Y29734D01*
X38347Y29706D01*
X38338Y29705D01*
X38300Y29712D01*
X38300Y29712D01*
X38155D01*
X38151Y29744D01*
X38114Y29832D01*
X38057Y29907D01*
X37982Y29964D01*
X37894Y30001D01*
X37800Y30013D01*
X37706Y30001D01*
X37618Y29964D01*
X37543Y29907D01*
X37486Y29832D01*
X37449Y29744D01*
X37437Y29650D01*
X37449Y29556D01*
X37486Y29468D01*
X37543Y29393D01*
X37618Y29336D01*
X37706Y29299D01*
X37800Y29287D01*
X37894Y29299D01*
X37982Y29336D01*
X38057Y29393D01*
X38114Y29468D01*
X38122Y29488D01*
X38254D01*
X38929Y28812D01*
X38909Y28762D01*
X38143D01*
X38114Y28832D01*
X38057Y28907D01*
X37982Y28964D01*
X37894Y29001D01*
X37800Y29013D01*
X37706Y29001D01*
X37618Y28964D01*
X37543Y28907D01*
X37486Y28832D01*
X37449Y28744D01*
X37437Y28650D01*
X37449Y28556D01*
X37486Y28468D01*
X37543Y28393D01*
X37618Y28336D01*
X37706Y28299D01*
X37800Y28287D01*
X37894Y28299D01*
X37982Y28336D01*
X38057Y28393D01*
X38114Y28468D01*
X38143Y28538D01*
X38930D01*
X39659Y27808D01*
X39640Y27762D01*
X38143D01*
X38114Y27832D01*
X38057Y27907D01*
X37982Y27964D01*
X37894Y28001D01*
X37800Y28013D01*
X37706Y28001D01*
X37618Y27964D01*
X37543Y27907D01*
X37486Y27832D01*
X37449Y27744D01*
X37437Y27650D01*
X37449Y27556D01*
X37486Y27468D01*
X37543Y27393D01*
X37618Y27336D01*
X37706Y27299D01*
X37800Y27287D01*
X37894Y27299D01*
X37982Y27336D01*
X38057Y27393D01*
X38114Y27468D01*
X38143Y27538D01*
X39704D01*
X43421Y23821D01*
X43421Y23821D01*
X43457Y23796D01*
X43500Y23788D01*
X43500Y23788D01*
X46550D01*
X46550Y23788D01*
X46593Y23796D01*
X46629Y23821D01*
X46912Y24104D01*
X46950Y24096D01*
X47028Y24112D01*
X47094Y24156D01*
X47138Y24222D01*
X47154Y24300D01*
X47138Y24378D01*
X47094Y24444D01*
X47028Y24488D01*
X46950Y24504D01*
X46872Y24488D01*
X46806Y24444D01*
X46762Y24378D01*
X46746Y24300D01*
X46754Y24262D01*
X46504Y24012D01*
X43546D01*
X43327Y24231D01*
X43359Y24270D01*
X43372Y24262D01*
X43450Y24246D01*
X43528Y24262D01*
X43594Y24306D01*
X43638Y24372D01*
X43654Y24450D01*
X43638Y24528D01*
X43594Y24594D01*
X43528Y24638D01*
X43450Y24654D01*
X43372Y24638D01*
X43306Y24594D01*
X43295Y24578D01*
X43206D01*
X42818Y24967D01*
X42838Y25017D01*
X43364D01*
X43386Y24985D01*
X43452Y24941D01*
X43530Y24925D01*
X43608Y24941D01*
X43674Y24985D01*
X43718Y25051D01*
X43734Y25129D01*
X43718Y25207D01*
X43708Y25223D01*
X43731Y25267D01*
X44864D01*
X44885Y25235D01*
X44951Y25191D01*
X45029Y25175D01*
X45107Y25191D01*
X45174Y25235D01*
X45218Y25301D01*
X45233Y25379D01*
X45218Y25457D01*
X45174Y25524D01*
X45107Y25568D01*
X45029Y25583D01*
X44951Y25568D01*
X44885Y25524D01*
X44864Y25491D01*
X42793D01*
X38612Y29673D01*
Y29950D01*
X38604Y29993D01*
X38579Y30029D01*
X38579Y30029D01*
X38122Y30487D01*
X38151Y30556D01*
X38163Y30650D01*
X38151Y30744D01*
X38114Y30832D01*
X38057Y30907D01*
X37982Y30964D01*
X37894Y31001D01*
X37800Y31013D01*
D02*
G37*
G36*
X58905Y29948D02*
X58395D01*
X58240Y29793D01*
Y29483D01*
X58395Y29328D01*
X58905D01*
X59060Y29483D01*
Y29793D01*
X58905Y29948D01*
D02*
G37*
G36*
Y31129D02*
X58395D01*
X58240Y30974D01*
Y30880D01*
X56622Y29262D01*
X50417D01*
X50406Y29271D01*
X50331Y29302D01*
X50250Y29313D01*
X50169Y29302D01*
X50094Y29271D01*
X50083Y29262D01*
X49742D01*
X49731Y29271D01*
X49656Y29302D01*
X49575Y29313D01*
X49494Y29302D01*
X49419Y29271D01*
X49408Y29262D01*
X49067D01*
X49056Y29271D01*
X48981Y29302D01*
X48900Y29313D01*
X48819Y29302D01*
X48744Y29271D01*
X48679Y29221D01*
X48629Y29156D01*
X48598Y29081D01*
X48587Y29000D01*
X48598Y28919D01*
X48629Y28844D01*
X48679Y28779D01*
X48744Y28729D01*
X48819Y28698D01*
X48900Y28687D01*
X48981Y28698D01*
X49056Y28729D01*
X49067Y28738D01*
X49408D01*
X49419Y28729D01*
X49494Y28698D01*
X49575Y28687D01*
X49656Y28698D01*
X49731Y28729D01*
X49742Y28738D01*
X49988D01*
Y28462D01*
X49742D01*
X49731Y28471D01*
X49656Y28502D01*
X49575Y28513D01*
X49494Y28502D01*
X49419Y28471D01*
X49408Y28462D01*
X49067D01*
X49056Y28471D01*
X48981Y28502D01*
X48900Y28513D01*
X48819Y28502D01*
X48744Y28471D01*
X48679Y28421D01*
X48629Y28356D01*
X48598Y28281D01*
X48587Y28200D01*
X48598Y28119D01*
X48629Y28044D01*
X48679Y27979D01*
X48744Y27929D01*
X48819Y27898D01*
X48900Y27887D01*
X48981Y27898D01*
X49056Y27929D01*
X49067Y27938D01*
X49408D01*
X49419Y27929D01*
X49494Y27898D01*
X49575Y27887D01*
X49656Y27898D01*
X49731Y27929D01*
X49742Y27938D01*
X50083D01*
X50094Y27929D01*
X50169Y27898D01*
X50250Y27887D01*
X50331Y27898D01*
X50406Y27929D01*
X50471Y27979D01*
X50521Y28044D01*
X50552Y28119D01*
X50563Y28200D01*
X50552Y28281D01*
X50521Y28356D01*
X50512Y28367D01*
Y28738D01*
X56731D01*
X56731Y28738D01*
X56799Y28747D01*
X56862Y28773D01*
X56917Y28815D01*
X58611Y30509D01*
X58905D01*
X59060Y30664D01*
Y30974D01*
X58905Y31129D01*
D02*
G37*
G36*
X42450Y29363D02*
X42369Y29352D01*
X42294Y29321D01*
X42229Y29271D01*
X42179Y29206D01*
X42148Y29131D01*
X42137Y29050D01*
X42148Y28969D01*
X42179Y28894D01*
X42229Y28829D01*
X42294Y28779D01*
X42369Y28748D01*
X42450Y28737D01*
X42531Y28748D01*
X42606Y28779D01*
X42671Y28829D01*
X42721Y28894D01*
X42752Y28969D01*
X42763Y29050D01*
X42752Y29131D01*
X42721Y29206D01*
X42671Y29271D01*
X42606Y29321D01*
X42531Y29352D01*
X42450Y29363D01*
D02*
G37*
G36*
X41775D02*
X41694Y29352D01*
X41619Y29321D01*
X41554Y29271D01*
X41504Y29206D01*
X41473Y29131D01*
X41462Y29050D01*
X41473Y28969D01*
X41504Y28894D01*
X41554Y28829D01*
X41619Y28779D01*
X41694Y28748D01*
X41775Y28737D01*
X41856Y28748D01*
X41931Y28779D01*
X41996Y28829D01*
X42046Y28894D01*
X42077Y28969D01*
X42088Y29050D01*
X42077Y29131D01*
X42046Y29206D01*
X41996Y29271D01*
X41931Y29321D01*
X41856Y29352D01*
X41775Y29363D01*
D02*
G37*
G36*
X41100D02*
X41019Y29352D01*
X40944Y29321D01*
X40879Y29271D01*
X40829Y29206D01*
X40798Y29131D01*
X40787Y29050D01*
X40798Y28969D01*
X40829Y28894D01*
X40879Y28829D01*
X40944Y28779D01*
X41019Y28748D01*
X41100Y28737D01*
X41181Y28748D01*
X41256Y28779D01*
X41321Y28829D01*
X41371Y28894D01*
X41402Y28969D01*
X41413Y29050D01*
X41402Y29131D01*
X41371Y29206D01*
X41321Y29271D01*
X41256Y29321D01*
X41181Y29352D01*
X41100Y29363D01*
D02*
G37*
G36*
X58955Y28767D02*
X58345D01*
X58190Y28612D01*
Y28302D01*
X58345Y28147D01*
X58955D01*
X59110Y28302D01*
Y28612D01*
X58955Y28767D01*
D02*
G37*
G36*
X42450Y28563D02*
X42369Y28552D01*
X42294Y28521D01*
X42229Y28471D01*
X42179Y28406D01*
X42148Y28331D01*
X42137Y28250D01*
X42148Y28169D01*
X42179Y28094D01*
X42229Y28029D01*
X42294Y27979D01*
X42369Y27948D01*
X42450Y27937D01*
X42531Y27948D01*
X42606Y27979D01*
X42671Y28029D01*
X42721Y28094D01*
X42752Y28169D01*
X42763Y28250D01*
X42752Y28331D01*
X42721Y28406D01*
X42671Y28471D01*
X42606Y28521D01*
X42531Y28552D01*
X42450Y28563D01*
D02*
G37*
G36*
X41775D02*
X41694Y28552D01*
X41619Y28521D01*
X41554Y28471D01*
X41504Y28406D01*
X41473Y28331D01*
X41462Y28250D01*
X41473Y28169D01*
X41504Y28094D01*
X41554Y28029D01*
X41619Y27979D01*
X41694Y27948D01*
X41775Y27937D01*
X41856Y27948D01*
X41931Y27979D01*
X41996Y28029D01*
X42046Y28094D01*
X42077Y28169D01*
X42088Y28250D01*
X42077Y28331D01*
X42046Y28406D01*
X41996Y28471D01*
X41931Y28521D01*
X41856Y28552D01*
X41775Y28563D01*
D02*
G37*
G36*
X41100D02*
X41019Y28552D01*
X40944Y28521D01*
X40879Y28471D01*
X40829Y28406D01*
X40798Y28331D01*
X40787Y28250D01*
X40798Y28169D01*
X40829Y28094D01*
X40879Y28029D01*
X40944Y27979D01*
X41019Y27948D01*
X41100Y27937D01*
X41181Y27948D01*
X41256Y27979D01*
X41321Y28029D01*
X41371Y28094D01*
X41402Y28169D01*
X41413Y28250D01*
X41402Y28331D01*
X41371Y28406D01*
X41321Y28471D01*
X41256Y28521D01*
X41181Y28552D01*
X41100Y28563D01*
D02*
G37*
G36*
X46950Y27954D02*
X46872Y27938D01*
X46806Y27894D01*
X46762Y27828D01*
X46746Y27750D01*
X46762Y27672D01*
X46806Y27606D01*
X46872Y27562D01*
X46950Y27546D01*
X47028Y27562D01*
X47094Y27606D01*
X47138Y27672D01*
X47154Y27750D01*
X47138Y27828D01*
X47094Y27894D01*
X47028Y27938D01*
X46950Y27954D01*
D02*
G37*
G36*
X46750Y27254D02*
X46672Y27238D01*
X46606Y27194D01*
X46562Y27128D01*
X46546Y27050D01*
X46562Y26972D01*
X46582Y26942D01*
X46555Y26892D01*
X46396D01*
X46388Y26928D01*
X46344Y26994D01*
X46278Y27038D01*
X46200Y27054D01*
X46122Y27038D01*
X46056Y26994D01*
X46012Y26928D01*
X45996Y26850D01*
X46012Y26772D01*
X46056Y26706D01*
X46122Y26662D01*
X46200Y26646D01*
X46278Y26662D01*
X46287Y26668D01*
X56097D01*
X57088Y25677D01*
Y25516D01*
X57056Y25494D01*
X57012Y25428D01*
X56996Y25350D01*
X57012Y25272D01*
X57056Y25206D01*
X57122Y25162D01*
X57200Y25146D01*
X57278Y25162D01*
X57344Y25206D01*
X57388Y25272D01*
X57404Y25350D01*
X57388Y25428D01*
X57344Y25494D01*
X57312Y25516D01*
Y25614D01*
X57358Y25633D01*
X57919Y25072D01*
X57919Y25072D01*
X57956Y25048D01*
X57998Y25039D01*
X58889D01*
X58911Y25007D01*
X58977Y24963D01*
X59055Y24948D01*
X59133Y24963D01*
X59199Y25007D01*
X59243Y25074D01*
X59259Y25152D01*
X59243Y25230D01*
X59199Y25296D01*
X59133Y25340D01*
X59055Y25355D01*
X58977Y25340D01*
X58911Y25296D01*
X58889Y25264D01*
X58045D01*
X56179Y27129D01*
X56143Y27154D01*
X56100Y27162D01*
X56100Y27162D01*
X46916D01*
X46894Y27194D01*
X46828Y27238D01*
X46750Y27254D01*
D02*
G37*
G36*
X59148Y26583D02*
X59075Y26569D01*
X59012Y26527D01*
X58971Y26465D01*
X58956Y26392D01*
X58971Y26318D01*
X59012Y26256D01*
X59075Y26215D01*
X59148Y26200D01*
X59221Y26215D01*
X59283Y26256D01*
X59325Y26318D01*
X59339Y26392D01*
X59325Y26465D01*
X59283Y26527D01*
X59221Y26569D01*
X59148Y26583D01*
D02*
G37*
G36*
X29449Y25538D02*
X29368Y25527D01*
X29292Y25496D01*
X29228Y25446D01*
X29178Y25381D01*
X29147Y25306D01*
X29136Y25225D01*
X29147Y25144D01*
X29178Y25069D01*
X29228Y25004D01*
X29292Y24954D01*
X29368Y24923D01*
X29449Y24912D01*
X29530Y24923D01*
X29605Y24954D01*
X29670Y25004D01*
X29719Y25069D01*
X29751Y25144D01*
X29761Y25225D01*
X29751Y25306D01*
X29719Y25381D01*
X29670Y25446D01*
X29605Y25496D01*
X29530Y25527D01*
X29449Y25538D01*
D02*
G37*
G36*
X59152Y24300D02*
X59079Y24285D01*
X59016Y24244D01*
X58975Y24182D01*
X58960Y24108D01*
X58975Y24035D01*
X59016Y23973D01*
X59079Y23931D01*
X59152Y23917D01*
X59225Y23931D01*
X59287Y23973D01*
X59329Y24035D01*
X59343Y24108D01*
X59329Y24182D01*
X59287Y24244D01*
X59225Y24285D01*
X59152Y24300D01*
D02*
G37*
G36*
X23050Y23913D02*
X22969Y23902D01*
X22894Y23871D01*
X22829Y23821D01*
X22779Y23756D01*
X22748Y23681D01*
X22737Y23600D01*
X22748Y23519D01*
X22779Y23444D01*
X22829Y23379D01*
X22894Y23329D01*
X22969Y23298D01*
X23050Y23287D01*
X23131Y23298D01*
X23206Y23329D01*
X23271Y23379D01*
X23321Y23444D01*
X23352Y23519D01*
X23363Y23600D01*
X23352Y23681D01*
X23321Y23756D01*
X23271Y23821D01*
X23206Y23871D01*
X23131Y23902D01*
X23050Y23913D01*
D02*
G37*
G36*
X53075Y23419D02*
X52325D01*
Y22669D01*
X53075D01*
Y23419D01*
D02*
G37*
G36*
X44389Y22765D02*
X44310Y22750D01*
X44244Y22706D01*
X44200Y22640D01*
X44185Y22561D01*
X44200Y22483D01*
X44244Y22417D01*
X44310Y22373D01*
X44389Y22358D01*
X44396Y22359D01*
X45053Y21703D01*
X45097Y21673D01*
X45150Y21662D01*
X47251D01*
X47256Y21656D01*
X47322Y21612D01*
X47400Y21596D01*
X47478Y21612D01*
X47544Y21656D01*
X47588Y21722D01*
X47604Y21800D01*
X47588Y21878D01*
X47544Y21944D01*
X47478Y21988D01*
X47400Y22004D01*
X47322Y21988D01*
X47256Y21944D01*
X47251Y21938D01*
X45207D01*
X44591Y22554D01*
X44592Y22561D01*
X44577Y22640D01*
X44533Y22706D01*
X44467Y22750D01*
X44389Y22765D01*
D02*
G37*
G36*
X49974Y20715D02*
X49826D01*
X49820Y20712D01*
X49813Y20714D01*
X49669Y20685D01*
X49663Y20681D01*
X49656D01*
X49520Y20625D01*
X49515Y20620D01*
X49509Y20619D01*
X49386Y20537D01*
X49382Y20531D01*
X49376Y20528D01*
X49272Y20424D01*
X49269Y20418D01*
X49263Y20414D01*
X49181Y20291D01*
X49180Y20285D01*
X49175Y20280D01*
X49119Y20144D01*
Y20137D01*
X49115Y20131D01*
X49086Y19987D01*
X49088Y19980D01*
X49085Y19974D01*
Y19826D01*
X49088Y19820D01*
X49086Y19813D01*
X49115Y19669D01*
X49119Y19663D01*
Y19656D01*
X49175Y19520D01*
X49180Y19515D01*
X49181Y19509D01*
X49263Y19386D01*
X49269Y19382D01*
X49272Y19376D01*
X49376Y19272D01*
X49382Y19269D01*
X49386Y19263D01*
X49509Y19181D01*
X49515Y19180D01*
X49520Y19175D01*
X49656Y19119D01*
X49663D01*
X49669Y19115D01*
X49813Y19086D01*
X49820Y19088D01*
X49826Y19085D01*
X49974D01*
X49980Y19088D01*
X49987Y19086D01*
X50131Y19115D01*
X50137Y19119D01*
X50144D01*
X50280Y19175D01*
X50285Y19180D01*
X50291Y19181D01*
X50414Y19263D01*
X50418Y19269D01*
X50424Y19272D01*
X50528Y19376D01*
X50531Y19382D01*
X50537Y19386D01*
X50619Y19509D01*
X50620Y19515D01*
X50625Y19520D01*
X50681Y19656D01*
Y19663D01*
X50685Y19669D01*
X50714Y19813D01*
X50712Y19820D01*
X50715Y19826D01*
Y19974D01*
X50712Y19980D01*
X50714Y19987D01*
X50685Y20131D01*
X50681Y20137D01*
Y20144D01*
X50625Y20280D01*
X50620Y20285D01*
X50619Y20291D01*
X50537Y20414D01*
X50531Y20418D01*
X50528Y20424D01*
X50424Y20528D01*
X50418Y20531D01*
X50414Y20537D01*
X50291Y20619D01*
X50285Y20620D01*
X50280Y20625D01*
X50144Y20681D01*
X50137D01*
X50131Y20685D01*
X49987Y20714D01*
X49980Y20712D01*
X49974Y20715D01*
D02*
G37*
G36*
X42074D02*
X41926D01*
X41920Y20712D01*
X41913Y20714D01*
X41769Y20685D01*
X41763Y20681D01*
X41756D01*
X41620Y20625D01*
X41615Y20620D01*
X41609Y20619D01*
X41486Y20537D01*
X41482Y20531D01*
X41476Y20528D01*
X41372Y20424D01*
X41369Y20418D01*
X41363Y20414D01*
X41281Y20291D01*
X41280Y20285D01*
X41275Y20280D01*
X41219Y20144D01*
Y20137D01*
X41215Y20131D01*
X41186Y19987D01*
X41188Y19980D01*
X41185Y19974D01*
Y19826D01*
X41188Y19820D01*
X41186Y19813D01*
X41215Y19669D01*
X41219Y19663D01*
Y19656D01*
X41275Y19520D01*
X41280Y19515D01*
X41281Y19509D01*
X41363Y19386D01*
X41369Y19382D01*
X41372Y19376D01*
X41476Y19272D01*
X41482Y19269D01*
X41486Y19263D01*
X41609Y19181D01*
X41615Y19180D01*
X41620Y19175D01*
X41756Y19119D01*
X41763D01*
X41769Y19115D01*
X41913Y19086D01*
X41920Y19088D01*
X41926Y19085D01*
X42074D01*
X42080Y19088D01*
X42087Y19086D01*
X42231Y19115D01*
X42237Y19119D01*
X42244D01*
X42380Y19175D01*
X42385Y19180D01*
X42391Y19181D01*
X42514Y19263D01*
X42518Y19269D01*
X42524Y19272D01*
X42628Y19376D01*
X42631Y19382D01*
X42637Y19386D01*
X42719Y19509D01*
X42720Y19515D01*
X42725Y19520D01*
X42781Y19656D01*
Y19663D01*
X42785Y19669D01*
X42814Y19813D01*
X42812Y19820D01*
X42815Y19826D01*
Y19974D01*
X42812Y19980D01*
X42814Y19987D01*
X42785Y20131D01*
X42781Y20137D01*
Y20144D01*
X42725Y20280D01*
X42720Y20285D01*
X42719Y20291D01*
X42637Y20414D01*
X42631Y20418D01*
X42628Y20424D01*
X42524Y20528D01*
X42518Y20531D01*
X42514Y20537D01*
X42391Y20619D01*
X42385Y20620D01*
X42380Y20625D01*
X42244Y20681D01*
X42237D01*
X42231Y20685D01*
X42087Y20714D01*
X42080Y20712D01*
X42074Y20715D01*
D02*
G37*
G36*
X34174D02*
X34026D01*
X34020Y20712D01*
X34013Y20714D01*
X33869Y20685D01*
X33863Y20681D01*
X33856D01*
X33720Y20625D01*
X33715Y20620D01*
X33709Y20619D01*
X33586Y20537D01*
X33582Y20531D01*
X33576Y20528D01*
X33472Y20424D01*
X33469Y20418D01*
X33463Y20414D01*
X33381Y20291D01*
X33380Y20285D01*
X33375Y20280D01*
X33319Y20144D01*
Y20137D01*
X33315Y20131D01*
X33286Y19987D01*
X33288Y19980D01*
X33285Y19974D01*
Y19826D01*
X33288Y19820D01*
X33286Y19813D01*
X33315Y19669D01*
X33319Y19663D01*
Y19656D01*
X33375Y19520D01*
X33380Y19515D01*
X33381Y19509D01*
X33463Y19386D01*
X33469Y19382D01*
X33472Y19376D01*
X33576Y19272D01*
X33582Y19269D01*
X33586Y19263D01*
X33709Y19181D01*
X33715Y19180D01*
X33720Y19175D01*
X33856Y19119D01*
X33863D01*
X33869Y19115D01*
X34013Y19086D01*
X34020Y19088D01*
X34026Y19085D01*
X34174D01*
X34180Y19088D01*
X34187Y19086D01*
X34331Y19115D01*
X34337Y19119D01*
X34344D01*
X34480Y19175D01*
X34485Y19180D01*
X34491Y19181D01*
X34614Y19263D01*
X34618Y19269D01*
X34624Y19272D01*
X34728Y19376D01*
X34731Y19382D01*
X34737Y19386D01*
X34819Y19509D01*
X34820Y19515D01*
X34825Y19520D01*
X34881Y19656D01*
Y19663D01*
X34885Y19669D01*
X34914Y19813D01*
X34912Y19820D01*
X34915Y19826D01*
Y19974D01*
X34912Y19980D01*
X34914Y19987D01*
X34885Y20131D01*
X34881Y20137D01*
Y20144D01*
X34825Y20280D01*
X34820Y20285D01*
X34819Y20291D01*
X34737Y20414D01*
X34731Y20418D01*
X34728Y20424D01*
X34624Y20528D01*
X34618Y20531D01*
X34614Y20537D01*
X34491Y20619D01*
X34485Y20620D01*
X34480Y20625D01*
X34344Y20681D01*
X34337D01*
X34331Y20685D01*
X34187Y20714D01*
X34180Y20712D01*
X34174Y20715D01*
D02*
G37*
G36*
X24574Y18315D02*
X24426D01*
X24420Y18312D01*
X24413Y18314D01*
X24269Y18285D01*
X24263Y18281D01*
X24256D01*
X24120Y18225D01*
X24115Y18220D01*
X24109Y18219D01*
X23986Y18137D01*
X23982Y18131D01*
X23976Y18128D01*
X23872Y18024D01*
X23869Y18018D01*
X23863Y18014D01*
X23781Y17891D01*
X23780Y17885D01*
X23775Y17880D01*
X23719Y17744D01*
Y17737D01*
X23715Y17731D01*
X23686Y17587D01*
X23688Y17580D01*
X23685Y17574D01*
Y17426D01*
X23688Y17420D01*
X23686Y17413D01*
X23715Y17269D01*
X23719Y17263D01*
Y17256D01*
X23775Y17120D01*
X23780Y17115D01*
X23781Y17109D01*
X23863Y16986D01*
X23869Y16982D01*
X23872Y16976D01*
X23976Y16872D01*
X23982Y16869D01*
X23986Y16863D01*
X24109Y16781D01*
X24115Y16780D01*
X24120Y16775D01*
X24256Y16719D01*
X24263D01*
X24269Y16715D01*
X24413Y16686D01*
X24420Y16688D01*
X24426Y16685D01*
X24574D01*
X24580Y16688D01*
X24587Y16686D01*
X24731Y16715D01*
X24737Y16719D01*
X24744D01*
X24880Y16775D01*
X24885Y16780D01*
X24891Y16781D01*
X25014Y16863D01*
X25018Y16869D01*
X25024Y16872D01*
X25128Y16976D01*
X25131Y16982D01*
X25137Y16986D01*
X25219Y17109D01*
X25220Y17115D01*
X25225Y17120D01*
X25281Y17256D01*
Y17263D01*
X25285Y17269D01*
X25314Y17413D01*
X25312Y17420D01*
X25315Y17426D01*
Y17574D01*
X25312Y17580D01*
X25314Y17587D01*
X25285Y17731D01*
X25281Y17737D01*
Y17744D01*
X25225Y17880D01*
X25220Y17885D01*
X25219Y17891D01*
X25137Y18014D01*
X25131Y18018D01*
X25128Y18024D01*
X25024Y18128D01*
X25018Y18131D01*
X25014Y18137D01*
X24891Y18219D01*
X24885Y18220D01*
X24880Y18225D01*
X24744Y18281D01*
X24737D01*
X24731Y18285D01*
X24587Y18314D01*
X24580Y18312D01*
X24574Y18315D01*
D02*
G37*
G36*
X59574D02*
X59426D01*
X59420Y18312D01*
X59413Y18314D01*
X59269Y18285D01*
X59263Y18281D01*
X59256D01*
X59120Y18225D01*
X59115Y18220D01*
X59109Y18219D01*
X58986Y18137D01*
X58982Y18131D01*
X58976Y18128D01*
X58872Y18024D01*
X58869Y18018D01*
X58863Y18014D01*
X58781Y17891D01*
X58780Y17885D01*
X58775Y17880D01*
X58719Y17744D01*
Y17737D01*
X58715Y17731D01*
X58686Y17587D01*
X58688Y17580D01*
X58685Y17574D01*
Y17426D01*
X58688Y17420D01*
X58686Y17413D01*
X58715Y17269D01*
X58719Y17263D01*
Y17256D01*
X58775Y17120D01*
X58780Y17115D01*
X58781Y17109D01*
X58863Y16986D01*
X58869Y16982D01*
X58872Y16976D01*
X58976Y16872D01*
X58982Y16869D01*
X58986Y16863D01*
X59109Y16781D01*
X59115Y16780D01*
X59120Y16775D01*
X59256Y16719D01*
X59263D01*
X59269Y16715D01*
X59413Y16686D01*
X59420Y16688D01*
X59426Y16685D01*
X59574D01*
X59580Y16688D01*
X59587Y16686D01*
X59731Y16715D01*
X59737Y16719D01*
X59744D01*
X59880Y16775D01*
X59885Y16780D01*
X59891Y16781D01*
X60014Y16863D01*
X60018Y16869D01*
X60024Y16872D01*
X60128Y16976D01*
X60131Y16982D01*
X60137Y16986D01*
X60219Y17109D01*
X60220Y17115D01*
X60225Y17120D01*
X60281Y17256D01*
Y17263D01*
X60285Y17269D01*
X60314Y17413D01*
X60312Y17420D01*
X60315Y17426D01*
Y17574D01*
X60312Y17580D01*
X60314Y17587D01*
X60285Y17731D01*
X60281Y17737D01*
Y17744D01*
X60225Y17880D01*
X60220Y17885D01*
X60219Y17891D01*
X60137Y18014D01*
X60131Y18018D01*
X60128Y18024D01*
X60024Y18128D01*
X60018Y18131D01*
X60014Y18137D01*
X59891Y18219D01*
X59885Y18220D01*
X59880Y18225D01*
X59744Y18281D01*
X59737D01*
X59731Y18285D01*
X59587Y18314D01*
X59580Y18312D01*
X59574Y18315D01*
D02*
G37*
%LPD*%
D10*
X27650Y34450D02*
X29250Y36050D01*
X27400Y34450D02*
X27650D01*
X34900Y36050D02*
X38680Y39830D01*
X39000Y46400D02*
X40350Y47750D01*
X33000Y33697D02*
X39000Y39697D01*
Y46400D01*
X38840Y39764D02*
Y47090D01*
X39700Y47950D01*
X38680Y47530D02*
X39000Y47850D01*
X38680Y39830D02*
Y47530D01*
X34476Y35400D02*
X38840Y39764D01*
X29250Y36050D02*
X34900D01*
X27500Y34850D02*
Y36950D01*
X31900Y35400D02*
X34476D01*
X33000Y33400D02*
Y33697D01*
X24916Y32834D02*
X27200Y30550D01*
X35404Y30654D02*
X35500Y30750D01*
X35096Y30554D02*
X35304D01*
X35091Y30550D02*
X35096Y30554D01*
X27200Y30550D02*
X35091D01*
X27600Y29650D02*
X35400D01*
X24416Y32834D02*
X27600Y29650D01*
X27475Y36975D02*
X27500Y36950D01*
X26416Y35434D02*
X26450D01*
X27216Y36200D01*
X27250D01*
X25300Y39450D02*
Y39500D01*
X26350Y40550D01*
X26600Y41200D02*
Y41238D01*
X25438Y42400D02*
X26600Y41238D01*
X24685Y25950D02*
X32700D01*
X24627Y26009D02*
X24685Y25950D01*
X24627Y26009D02*
Y26027D01*
X24550Y25750D02*
X25200D01*
X23050Y27250D02*
X24550Y25750D01*
X23050Y27250D02*
Y31650D01*
X25200Y25700D02*
Y25750D01*
X32700Y25950D02*
X35400Y28650D01*
X33500Y25750D02*
X35400Y27650D01*
X25200Y25750D02*
X33500D01*
X23050Y31650D02*
X23400Y32000D01*
X46270Y26780D02*
X56144D01*
X46200Y26850D02*
X46270Y26780D01*
X46750Y27050D02*
X56100D01*
X57998Y25152D01*
X59055D01*
X57200Y25350D02*
Y25724D01*
X56144Y26780D02*
X57200Y25724D01*
X37800Y30650D02*
X38500Y29950D01*
Y29626D02*
X42747Y25379D01*
X38500Y29626D02*
Y29950D01*
X38300Y29600D02*
X42771Y25129D01*
X42747Y25379D02*
X45029D01*
X42771Y25129D02*
X43530D01*
X37800Y27650D02*
X39750D01*
X37800Y28650D02*
X38976D01*
X39750Y27650D02*
X43500Y23900D01*
X43434Y24466D02*
X43450Y24450D01*
X43160Y24466D02*
X43434D01*
X38976Y28650D02*
X43160Y24466D01*
X43500Y23900D02*
X46550D01*
X37850Y29600D02*
X38300D01*
X37800Y29650D02*
X37850Y29600D01*
X46550Y23900D02*
X46950Y24300D01*
X60250Y17500D02*
G03*
X60250Y17500I-750J0D01*
G01*
X25250D02*
G03*
X25250Y17500I-750J0D01*
G01*
X60250Y52500D02*
G03*
X60250Y52500I-750J0D01*
G01*
X25250D02*
G03*
X25250Y52500I-750J0D01*
G01*
X43180Y53180D02*
G03*
X43180Y53180I-200J0D01*
G01*
X41220D02*
G03*
X41220Y53180I-200J0D01*
G01*
X53269Y45400D02*
G03*
X57250Y51050I-2019J5650D01*
G01*
X49249D02*
G03*
X53275Y45383I6001J0D01*
G01*
X57250Y51050D02*
G03*
X53250Y51050I-2000J0D01*
G01*
D02*
G03*
X49250Y51050I-2000J0D01*
G01*
X22500Y37762D02*
G03*
X22500Y39247I104J743D01*
G01*
X22504Y19157D02*
G03*
X22504Y20643I104J743D01*
G01*
X61504Y39243D02*
G03*
X61504Y37757I-104J-743D01*
G01*
X42750Y38500D02*
G03*
X42750Y38500I-750J0D01*
G01*
Y19900D02*
G03*
X42750Y19900I-750J0D01*
G01*
X57500Y17500D02*
G03*
X61500Y17500I2000J0D01*
G01*
Y52500D02*
G03*
X59500Y54500I-2000J0D01*
G01*
X24500D02*
G03*
X22500Y52500I0J-2000D01*
G01*
Y17500D02*
G03*
X26500Y17500I2000J0D01*
G01*
X61504Y20643D02*
G03*
X61504Y19157I-104J-743D01*
G01*
X50650Y19900D02*
G03*
X50650Y19900I-750J0D01*
G01*
Y38500D02*
G03*
X50650Y38500I-750J0D01*
G01*
X34850D02*
G03*
X34850Y38500I-750J0D01*
G01*
Y19900D02*
G03*
X34850Y19900I-750J0D01*
G01*
X61500Y39247D02*
Y52500D01*
X22500Y17500D02*
Y19142D01*
Y39247D02*
Y52500D01*
X22504Y20643D02*
Y37757D01*
X61504Y20643D02*
Y37757D01*
X61500Y17500D02*
Y19142D01*
X26500Y17500D02*
X57500D01*
X24500Y54500D02*
X59500D01*
D21*
X37800Y27650D02*
D03*
Y29650D02*
D03*
Y26650D02*
D03*
Y28650D02*
D03*
Y30650D02*
D03*
Y31650D02*
D03*
X35400Y27650D02*
D03*
Y29650D02*
D03*
Y26650D02*
D03*
Y28650D02*
D03*
Y30650D02*
D03*
Y31650D02*
D03*
X44800Y44050D02*
D03*
Y43050D02*
D03*
X42450Y44050D02*
D03*
Y43050D02*
D03*
X40100Y44050D02*
D03*
Y43050D02*
D03*
X37750Y44050D02*
D03*
Y43050D02*
D03*
X36700Y46850D02*
D03*
X34700D02*
D03*
X35700D02*
D03*
D27*
X37700D02*
D03*
D101*
X53130Y32924D02*
X54426D01*
X53052Y33002D02*
X53130Y32924D01*
X52998Y33002D02*
X53052D01*
D102*
X23800Y43900D02*
X28000D01*
X28550Y44450D01*
X45150Y21800D02*
X47400D01*
X44389Y22561D02*
X45150Y21800D01*
D103*
X37800Y32650D02*
D03*
X35400D02*
D03*
X44800Y45050D02*
D03*
X42450D02*
D03*
X40100D02*
D03*
X37750D02*
D03*
D104*
X58650Y28457D02*
D03*
Y33181D02*
D03*
D105*
Y32000D02*
D03*
D106*
Y30819D02*
D03*
Y29638D02*
D03*
D107*
X60589Y26951D02*
D03*
Y23549D02*
D03*
D108*
X58955Y26951D02*
D03*
Y23549D02*
D03*
D109*
X59148Y26392D02*
D03*
X59152Y24108D02*
D03*
D110*
X52700Y23044D02*
D03*
D111*
Y22256D02*
D03*
D112*
X29550Y46900D02*
D03*
X28550D02*
D03*
X30550D02*
D03*
D113*
X27550D02*
D03*
D114*
X32450Y48000D02*
D03*
Y47000D02*
D03*
Y46500D02*
D03*
Y47500D02*
D03*
D115*
Y46000D02*
D03*
D116*
X29449Y25225D02*
D03*
X30147Y35690D02*
D03*
X23416Y27884D02*
D03*
X28503Y40953D02*
D03*
X30900Y43450D02*
D03*
X23050Y23600D02*
D03*
X42450Y28250D02*
D03*
X41775D02*
D03*
X48500Y36350D02*
D03*
X49175D02*
D03*
X49850D02*
D03*
X48500Y35550D02*
D03*
X49175D02*
D03*
X49850D02*
D03*
X41100Y29050D02*
D03*
X41775D02*
D03*
X42450D02*
D03*
X41100Y28250D02*
D03*
X52998Y33002D02*
D03*
X54426Y32924D02*
D03*
X50250Y28200D02*
D03*
X49575D02*
D03*
X48900D02*
D03*
X50250Y29000D02*
D03*
X49575D02*
D03*
X48900D02*
D03*
D117*
X27400Y34450D02*
D03*
X39700Y47950D02*
D03*
X40350Y47750D02*
D03*
X42853Y49953D02*
D03*
X40403D02*
D03*
X39000Y47850D02*
D03*
X27500Y34850D02*
D03*
X31900Y35400D02*
D03*
X33000Y33400D02*
D03*
X41603Y49953D02*
D03*
X27475Y36975D02*
D03*
X27250Y36200D02*
D03*
X26416Y35434D02*
D03*
X25300Y39450D02*
D03*
X26600Y41200D02*
D03*
X25438Y42400D02*
D03*
X26350Y40550D02*
D03*
X23700Y43350D02*
D03*
X23800Y43900D02*
D03*
X24627Y26027D02*
D03*
X25200Y25700D02*
D03*
X23400Y32000D02*
D03*
X24916Y32834D02*
D03*
X24416D02*
D03*
X28550Y44450D02*
D03*
X23770Y44330D02*
D03*
X46200Y26850D02*
D03*
X57200Y25350D02*
D03*
X59055Y25152D02*
D03*
X46750Y27050D02*
D03*
X43530Y25129D02*
D03*
X45029Y25379D02*
D03*
X43450Y24450D02*
D03*
X46950Y24300D02*
D03*
Y27750D02*
D03*
X47400Y21800D02*
D03*
X44389Y22561D02*
D03*
D118*
X58550Y30819D02*
X58650D01*
X56731Y29000D02*
X58550Y30819D01*
X50250Y29000D02*
X56731D01*
X50250Y28200D02*
Y29000D01*
X49575Y28200D02*
X50250D01*
X48900D02*
X49575D01*
Y29000D02*
X50250D01*
X48900D02*
X49575D01*
M02*
