M48
;Layer_Color=9474304
;FILE_FORMAT=2:4
INCH,LZ
;TYPE=PLATED
T1F00S00C0.0160
T3F00S00C0.0276
T4F00S00C0.0280
T5F00S00C0.0300
T8F00S00C0.0394
;TYPE=NON_PLATED
T9F00S00C0.0256
%
T01
X0474Y0218
X04695Y0243
Y02775
X0572Y02535
X059055Y025152
X04675Y02705
X0462Y02685
X045029Y025379
X04353Y025129
X04345Y02445
X044389Y022561
X0252Y0257
X024627Y026027
X024416Y032834
X024916
X0234Y032
X0274Y03445
X0275Y03485
X02725Y0362
X027475Y036975
X026416Y035434
X0253Y03945
X02635Y04055
X0266Y0412
X025438Y0424
X0237Y04335
X0238Y0439
X02377Y04433
X02855Y04445
X0319Y0354
X033Y0334
X039Y04785
X0397Y04795
X04035Y04775
X040403Y049953
X041603
X042853
T03
X03245Y046
Y0465
Y047
Y0475
Y048
T04
X0489Y0282
X049575
X05025
Y029
X049575
X0489
X04245Y02905
X041775
X0411
Y02825
X041775
X04245
X029449Y025225
X02305Y0236
X023416Y027884
X030147Y03569
X028503Y040953
X0309Y04345
X0485Y03635
X049175
X04985
Y03555
X049175
X0485
X052998Y033002
X054426Y032924
X03055Y0469
X02955
X02855
X02755
T05
X0354Y02665
Y02765
Y02865
Y02965
Y03065
X0378
Y02965
Y02865
Y02765
Y02665
Y03165
Y03265
X0354
Y03165
X03775Y04305
Y04405
Y04505
X0377Y04685
X0367
X0357
X0347
X0401Y04505
Y04405
Y04305
X04245
Y04405
Y04505
X0448
Y04405
Y04305
T08
X0527Y022256
Y023044
T09
X059152Y024108
X059148Y026392
M30
